%TF.GenerationSoftware,Altium Limited,Altium Designer,21.8.1 (53)*%
G04 Layer_Physical_Order=2*
G04 Layer_Color=16711680*
%FSLAX43Y43*%
%MOMM*%
%TF.SameCoordinates,0F9CA4FB-8759-410D-9958-79F17413BB1C*%
%TF.FilePolarity,Positive*%
%TF.FileFunction,Copper,L2,Bot,Signal*%
%TF.Part,Single*%
G01*
G75*
%TA.AperFunction,NonConductor*%
%ADD10C,0.203*%
%ADD11C,0.254*%
%TA.AperFunction,Conductor*%
%ADD12C,0.600*%
%TA.AperFunction,ComponentPad*%
%ADD14C,1.800*%
%ADD15C,1.500*%
%ADD16R,1.500X1.500*%
%TA.AperFunction,ViaPad*%
%ADD17C,6.000*%
%TA.AperFunction,ComponentPad*%
%ADD18C,1.400*%
D10*
X22985Y25357D02*
X25517Y22825D01*
X22266Y25357D02*
X25517Y22106D01*
X21856Y22894D02*
X25517Y19233D01*
X21856Y19700D02*
X25517Y23362D01*
X25140Y25357D02*
X25517Y24980D01*
X24421Y25357D02*
X25517Y24261D01*
X23703Y25357D02*
X25517Y23543D01*
X23750Y16566D02*
X25517Y18333D01*
X21856Y20021D02*
X25517Y16359D01*
X24870Y16249D02*
X25517Y16896D01*
X24468Y16566D02*
X25517Y17615D01*
X21856Y21458D02*
X25517Y17796D01*
X21856Y22176D02*
X25517Y18514D01*
X21856Y20739D02*
X25517Y17077D01*
X21856Y21856D02*
X25357Y25357D01*
X21548D02*
X25517Y21388D01*
X21856Y21137D02*
X25517Y24799D01*
X20829Y25357D02*
X25517Y20669D01*
X21856Y22574D02*
X24639Y25357D01*
X21718Y23155D02*
X23921Y25357D01*
X21856Y21856D02*
X25357Y25357D01*
X20111D02*
X25517Y19951D01*
X19556Y16682D02*
X25517Y22644D01*
X21676Y19482D02*
X25517Y15640D01*
X16087Y12494D02*
X25517Y21925D01*
X21856Y20419D02*
X25517Y24081D01*
X21316Y19123D02*
X23874Y16566D01*
X19581Y17984D02*
X23540Y14026D01*
X25106Y15334D02*
X25517Y14922D01*
X25106Y15048D02*
X25517Y15460D01*
X24960Y14761D02*
X25517Y14204D01*
X24677Y13901D02*
X25517Y14741D01*
X25106Y14907D02*
Y16013D01*
Y15766D02*
X25517Y16178D01*
X24553Y14354D02*
X25106Y14907D01*
Y12892D02*
X25517Y13304D01*
X24600Y14402D02*
X25517Y13485D01*
X25106Y12460D02*
X25517Y12048D01*
X25106Y13179D02*
X25517Y12767D01*
X25037Y13542D02*
X25517Y14023D01*
X24553Y14026D02*
X25106Y13473D01*
Y12367D02*
Y13473D01*
X24553Y16566D02*
X25106Y16013D01*
X23447Y16566D02*
X24553D01*
X23447Y14026D02*
X24553D01*
X23447Y14354D02*
X24553D01*
X23930D02*
X24259Y14026D01*
X22894Y16013D02*
X23447Y16566D01*
X24083Y14026D02*
X24412Y14354D01*
X22894Y13473D02*
X23447Y14026D01*
X22894Y12367D02*
X23447Y11814D01*
X21000Y23874D02*
X22484Y25357D01*
X20641Y24233D02*
X21765Y25357D01*
X21359Y23514D02*
X23202Y25357D01*
X20178Y24696D02*
X21856Y23018D01*
X19667Y24696D02*
X20328Y25357D01*
X19393D02*
X20054Y24696D01*
X20281Y24592D02*
X21047Y25357D01*
X20957Y18764D02*
X23301Y16420D01*
X20178Y17984D02*
X21856Y19662D01*
X20598Y18405D02*
X22942Y16060D01*
X20239Y18045D02*
X22894Y15390D01*
X21856Y19662D02*
Y23018D01*
X20054Y24696D02*
X21856Y22894D01*
X20140Y17984D02*
X21856Y19700D01*
X18230Y24696D02*
X18892Y25357D01*
X17956D02*
X18618Y24696D01*
X18674Y25357D02*
X19336Y24696D01*
X16822D02*
X20178D01*
X17237Y25357D02*
X17899Y24696D01*
X16519Y25357D02*
X17181Y24696D01*
X17511D02*
X18173Y25357D01*
X18948Y24696D02*
X19610Y25357D01*
X15144Y19662D02*
X16822Y17984D01*
X19125Y17688D02*
X19421Y17984D01*
X18504Y17786D02*
X18703Y17984D01*
X15800Y25357D02*
X16642Y24516D01*
X15144Y23018D02*
X16822Y24696D01*
X15144Y19662D02*
Y23018D01*
X19484Y17329D02*
X20140Y17984D01*
X19028Y17786D02*
X19556Y17258D01*
Y16202D02*
Y17258D01*
X17972Y15674D02*
X19028D01*
X18144Y17984D02*
X18343Y17786D01*
X17972D02*
X19028D01*
X17444Y16202D02*
X17972Y15674D01*
X19382Y16029D02*
X22894Y12516D01*
X18863Y17984D02*
X23134Y13713D01*
X22894Y12367D02*
Y13473D01*
Y14907D02*
X23447Y14354D01*
X19556Y16573D02*
X22894Y13234D01*
X19028Y15674D02*
X19556Y16202D01*
X22894Y14907D02*
Y16013D01*
X17426Y17984D02*
X17799Y17612D01*
X16822Y17984D02*
X20178D01*
X17444Y17258D02*
X17972Y17786D01*
X15514Y14077D02*
X17542Y16105D01*
X17444Y16202D02*
Y17258D01*
X15154Y14436D02*
X17444Y16726D01*
X15439Y14152D02*
X15759Y13832D01*
X16087Y13213D02*
X18548Y15674D01*
X15873Y13718D02*
X17901Y15746D01*
X16087Y12848D02*
Y13504D01*
X15759Y13832D02*
X16087Y13504D01*
X15759Y13832D02*
X16087Y13504D01*
Y12848D02*
Y13504D01*
X24793Y12054D02*
X25517Y11330D01*
X24417Y11486D02*
X25517Y12586D01*
X24844Y11194D02*
X25517Y11867D01*
X24553Y11486D02*
X25106Y10933D01*
X24553Y11814D02*
X25106Y12367D01*
X23596Y11814D02*
X23925Y11486D01*
X23699D02*
X24028Y11814D01*
X25517Y483D02*
Y25357D01*
X24314Y11814D02*
X25517Y10611D01*
X25106Y10305D02*
X25517Y9893D01*
X25106Y10019D02*
X25517Y10431D01*
X25106Y9827D02*
Y10933D01*
Y10737D02*
X25517Y11149D01*
X24553Y9274D02*
X25106Y9827D01*
X16087Y11058D02*
X25517Y20488D01*
X16087Y11776D02*
X25517Y21207D01*
X23447Y11486D02*
X24553D01*
X16335Y10588D02*
X25517Y19770D01*
X23447Y11814D02*
X24553D01*
X19018Y15674D02*
X23327Y11365D01*
X22894Y10933D02*
X23447Y11486D01*
X19266Y9927D02*
X23694Y14354D01*
X16695Y10229D02*
X25517Y19052D01*
X22894Y9827D02*
X23447Y9274D01*
X21856Y6050D02*
X25517Y9712D01*
X19556Y8779D02*
X23019Y12243D01*
X18787Y10166D02*
X23211Y14590D01*
X19350Y7856D02*
X23378Y11883D01*
X23981Y9274D02*
X25517Y7738D01*
X21856Y3177D02*
X25517Y6838D01*
X21856Y4934D02*
X25517Y1272D01*
X21856Y5652D02*
X25517Y1990D01*
X24985Y9707D02*
X25517Y9175D01*
X24626Y9348D02*
X25517Y8456D01*
X23447Y9274D02*
X24553D01*
X23472Y483D02*
X25517Y2528D01*
X22754Y483D02*
X25517Y3246D01*
X24909Y483D02*
X25517Y1091D01*
X24191Y483D02*
X25517Y1809D01*
X22035Y483D02*
X25517Y3965D01*
X21856Y4215D02*
X25517Y554D01*
X21856Y3497D02*
X24870Y483D01*
X21856Y5332D02*
X25517Y8994D01*
X19556Y9389D02*
X25517Y3427D01*
X21856Y3895D02*
X25517Y7557D01*
X21856Y4613D02*
X25517Y8275D01*
X21201Y6832D02*
X23643Y9274D01*
X20842Y7192D02*
X23186Y9536D01*
X21560Y6473D02*
X24361Y9274D01*
X20598Y483D02*
X25517Y5402D01*
X19880Y483D02*
X25517Y6120D01*
X21317Y483D02*
X25517Y4683D01*
X21834Y2800D02*
X24152Y483D01*
X19556Y8671D02*
X25517Y2709D01*
X21475Y2441D02*
X23433Y483D01*
X18299Y15674D02*
X22968Y11006D01*
X18068Y10166D02*
X22894Y14992D01*
Y9827D02*
Y10933D01*
X19556Y9498D02*
X22894Y12837D01*
X17972Y10166D02*
X19028D01*
X17572Y9766D02*
X17972Y10166D01*
X19028D02*
X19556Y9638D01*
X20482Y7551D02*
X22894Y9963D01*
X20069Y7856D02*
X22894Y10681D01*
X19241Y8267D02*
X19652Y7856D01*
X19028Y8054D02*
X19556Y8582D01*
Y9638D01*
X17572Y8454D02*
X17972Y8054D01*
X18735D02*
X18934Y7856D01*
X17054Y9870D02*
X22894Y15710D01*
X16087Y12858D02*
X18779Y10166D01*
X16087Y11421D02*
X17657Y9851D01*
X16087Y12140D02*
X18061Y10166D01*
X16087Y10837D02*
X17158Y9766D01*
X16087Y10837D02*
Y12848D01*
X17158Y9766D02*
X17572D01*
X16898Y8454D02*
X17497Y7856D01*
X16502Y8454D02*
X17158D01*
X17195Y7856D02*
X17683Y8344D01*
X17158Y8454D02*
X17572D01*
X16174Y8782D02*
X16502Y8454D01*
X16174Y8782D02*
X16502Y8454D01*
X17158D01*
X21856Y2822D02*
Y6178D01*
X20178Y7856D02*
X21856Y6178D01*
X20178Y1144D02*
X21856Y2822D01*
X18443Y483D02*
X19105Y1144D01*
X18632Y7856D02*
X18831Y8054D01*
X18017D02*
X18215Y7856D01*
X17972Y8054D02*
X19028D01*
X21115Y2082D02*
X22715Y483D01*
X20756Y1723D02*
X21996Y483D01*
X20397Y1364D02*
X21278Y483D01*
X19898Y1144D02*
X20559Y483D01*
X19162D02*
X19823Y1144D01*
X18461D02*
X19123Y483D01*
X19179Y1144D02*
X19841Y483D01*
X17913Y7856D02*
X18112Y8054D01*
X16822Y7856D02*
X20178D01*
X16822Y1144D02*
X20178D01*
X15144Y3024D02*
X17024Y1144D01*
X15144Y2822D02*
Y6178D01*
X16822Y7856D01*
X15144Y2822D02*
X16822Y1144D01*
X17725Y483D02*
X18387Y1144D01*
X17024D02*
X17686Y483D01*
X17742Y1144D02*
X18404Y483D01*
X16288D02*
X16950Y1144D01*
X15569Y483D02*
X16527Y1440D01*
X17006Y483D02*
X17668Y1144D01*
X13645Y25357D02*
X15565Y23438D01*
X12927Y25357D02*
X15205Y23079D01*
X15082Y25357D02*
X16283Y24156D01*
X14364Y25357D02*
X15924Y23797D01*
X12208Y25357D02*
X15144Y22421D01*
X11490Y25357D02*
X15144Y21703D01*
X10771Y25357D02*
X15144Y20984D01*
X14052Y14771D02*
X17266Y17984D01*
X13693Y15130D02*
X16685Y18122D01*
X14479Y14479D02*
X17984Y17984D01*
X14479Y14479D02*
X17984Y17984D01*
X13115Y15271D02*
X16326Y18481D01*
X10053Y25357D02*
X15144Y20266D01*
X13553Y15271D02*
X14106Y14718D01*
X9335Y25357D02*
X17444Y17248D01*
X4256Y15750D02*
X13863Y25357D01*
X8616D02*
X17444Y16529D01*
X483Y25357D02*
X25517D01*
X3706Y16637D02*
X12426Y25357D01*
X2869D02*
X12956Y15271D01*
X4065Y16278D02*
X13144Y25357D01*
X4256Y15032D02*
X14581Y25357D01*
X3873Y13931D02*
X15300Y25357D01*
X4256Y12877D02*
X16736Y25357D01*
X4232Y13571D02*
X16018Y25357D01*
X3587D02*
X14465Y14479D01*
X2150Y25357D02*
X12342Y15166D01*
X483Y24870D02*
X12622Y12731D01*
X14455Y14479D02*
X15111D01*
X14455D02*
X15111D01*
X15439Y14152D01*
X15111Y14479D02*
X15439Y14152D01*
X14106Y14479D02*
X14455D01*
X14106D02*
Y14718D01*
X13662Y13168D02*
X13938D01*
X14455D02*
X14775Y12848D01*
X14340Y13168D02*
X14775Y12732D01*
X14106Y11950D02*
X14775Y12620D01*
X14106Y12684D02*
X14775Y12014D01*
X13938Y13168D02*
X14455D01*
X13662D02*
X13938D01*
X14106Y12669D02*
X14530Y13093D01*
X13553Y13059D02*
X13662Y13168D01*
X12447Y15271D02*
X13553D01*
X12447Y13059D02*
X13553D01*
X11894Y12731D02*
X14106D01*
X11894Y13612D02*
X12447Y13059D01*
X11894Y14718D02*
X12447Y15271D01*
X12012Y12731D02*
X12394Y13113D01*
X13641Y13148D02*
X14059Y12731D01*
X13449D02*
X13887Y13168D01*
X13012Y13059D02*
X13340Y12731D01*
X12731D02*
X13059Y13059D01*
X12731Y12731D02*
X13059Y13059D01*
X11894Y12613D02*
X12012Y12731D01*
X3066Y16716D02*
X11707Y25357D01*
X483Y22754D02*
X3086Y25357D01*
X2372Y16716D02*
X3628D01*
X483Y19841D02*
X3608Y16716D01*
X483Y18404D02*
X2272Y16615D01*
X483Y19123D02*
X2890Y16716D01*
X483Y17686D02*
X1912Y16256D01*
X1432Y25357D02*
X11983Y14806D01*
X714Y25357D02*
X11894Y14177D01*
X483Y23433D02*
X11894Y12021D01*
X483Y24152D02*
X11904Y12731D01*
X1744Y16088D02*
X2372Y16716D01*
X483Y16967D02*
X1744Y15706D01*
X3608Y16716D02*
X4256Y16068D01*
X483Y21317D02*
X4523Y25357D01*
X483Y22035D02*
X3805Y25357D01*
X483Y19880D02*
X5960Y25357D01*
X483Y20598D02*
X5242Y25357D01*
X483Y24191D02*
X1650Y25357D01*
X483Y24909D02*
X931Y25357D01*
X483Y23472D02*
X2368Y25357D01*
X483Y16288D02*
X9552Y25357D01*
X483Y17006D02*
X8834Y25357D01*
X483Y14851D02*
X10989Y25357D01*
X483Y15569D02*
X10271Y25357D01*
X483Y18443D02*
X7397Y25357D01*
X483Y19162D02*
X6678Y25357D01*
X483Y17725D02*
X8115Y25357D01*
X4256Y14832D02*
Y16088D01*
X3628Y14204D02*
X4256Y14832D01*
X11894Y13612D02*
Y14718D01*
X3628Y14176D02*
X4256Y13548D01*
X3628Y16716D02*
X4256Y16088D01*
X2372Y14204D02*
X3628D01*
X2372Y14176D02*
X3628D01*
X4256Y12292D02*
Y13548D01*
X3628Y11664D02*
X4256Y12292D01*
X2372Y11664D02*
X3628D01*
X1744Y14832D02*
X2372Y14204D01*
X483Y15531D02*
X2105Y13908D01*
X1744Y13548D02*
X2372Y14176D01*
X483Y14812D02*
X1746Y13549D01*
X1744Y14832D02*
Y16088D01*
X483Y16249D02*
X1744Y14987D01*
X483Y14133D02*
X1744Y15394D01*
X483Y12696D02*
X2182Y14395D01*
X483Y13414D02*
X1823Y14754D01*
X1744Y12292D02*
X2372Y11664D01*
X1744Y12292D02*
Y13548D01*
X483Y14094D02*
X1744Y12832D01*
X483Y11977D02*
X1744Y13239D01*
X7898Y25357D02*
X22894Y10361D01*
X7179Y25357D02*
X25517Y7019D01*
X14775Y10837D02*
Y12848D01*
X6461Y25357D02*
X25517Y6301D01*
X14106Y11965D02*
X14775Y11296D01*
X14106Y10519D02*
Y12731D01*
Y11232D02*
X14775Y11902D01*
X5743Y25357D02*
X25517Y5583D01*
X5024Y25357D02*
X25517Y4864D01*
X4306Y25357D02*
X25517Y4146D01*
X4256Y13194D02*
X16967Y483D01*
X4256Y15350D02*
X15144Y4461D01*
X4256Y16068D02*
X15144Y5179D01*
X4256Y12476D02*
X16249Y483D01*
X3680Y11583D02*
X17455Y25357D01*
X483Y21278D02*
X15364Y6397D01*
X483Y5512D02*
X15144Y20173D01*
X483Y20559D02*
X15144Y5898D01*
X4256Y10721D02*
X15144Y21610D01*
X4040Y11224D02*
X15144Y22329D01*
X4256Y10003D02*
X15144Y20892D01*
X483Y4075D02*
X15607Y19199D01*
X483Y4793D02*
X15248Y19559D01*
X3988Y12025D02*
X15531Y483D01*
X483Y3356D02*
X15966Y18840D01*
X4155Y14732D02*
X15144Y3742D01*
X3796Y14372D02*
X15144Y3024D01*
X3629Y11666D02*
X14812Y483D01*
X14775Y10181D02*
X15103Y9853D01*
X14106Y10529D02*
X16800Y7834D01*
X15103Y9853D02*
X16174Y8782D01*
X14775Y10181D02*
X15103Y9853D01*
X14775Y10181D02*
Y10837D01*
X14106Y11247D02*
X14775Y10577D01*
Y10181D02*
Y10837D01*
X13396Y10519D02*
X16441Y7475D01*
X12678Y10519D02*
X16082Y7115D01*
X14851Y483D02*
X16168Y1799D01*
X14133Y483D02*
X15808Y2158D01*
X12696Y483D02*
X15144Y2931D01*
X11977Y483D02*
X15144Y3650D01*
X13414Y483D02*
X15449Y2518D01*
X11960Y10519D02*
X15723Y6756D01*
X6230Y483D02*
X15352Y9605D01*
X6948Y483D02*
X15711Y9245D01*
X483Y483D02*
X25517D01*
X4793D02*
X14775Y10465D01*
X4075Y483D02*
X14775Y11183D01*
X5512Y483D02*
X14993Y9964D01*
X8385Y483D02*
X16430Y8527D01*
X7667Y483D02*
X16070Y8886D01*
X9104Y483D02*
X17075Y8454D01*
X10540Y483D02*
X15144Y5087D01*
X9822Y483D02*
X15144Y5805D01*
X11259Y483D02*
X15144Y4368D01*
X11894Y10519D02*
Y12731D01*
X3628Y11636D02*
X4256Y11008D01*
X11894Y10519D02*
X14106D01*
X11894Y10585D02*
X11960Y10519D01*
X2372Y11636D02*
X3628D01*
X1744Y11008D02*
X2372Y11636D01*
X483Y11220D02*
X1744Y9958D01*
X1919Y483D02*
X11956Y10519D01*
X1201Y483D02*
X11894Y11176D01*
X3356Y483D02*
X13393Y10519D01*
X2638Y483D02*
X12675Y10519D01*
X1744Y9752D02*
Y11008D01*
X483Y9822D02*
X2349Y11688D01*
X4256Y9752D02*
Y11008D01*
X483Y21996D02*
X11894Y10585D01*
X483Y22715D02*
X11894Y11303D01*
X483Y10540D02*
X1989Y12047D01*
X483Y13375D02*
X2297Y11561D01*
X483Y11259D02*
X1744Y12521D01*
X483Y12657D02*
X1938Y11201D01*
X483Y11938D02*
X1744Y10677D01*
X483Y483D02*
X11894Y11894D01*
X483Y1919D02*
X12035Y13472D01*
X483Y483D02*
X11894Y11894D01*
X483Y2638D02*
X11894Y14050D01*
X483Y483D02*
Y25357D01*
Y1201D02*
X11894Y12613D01*
X3628Y9124D02*
X4256Y9752D01*
X2372Y9124D02*
X3628D01*
X483Y4036D02*
X4036Y483D01*
X483Y4754D02*
X4754Y483D01*
X1744Y9752D02*
X2372Y9124D01*
X483Y3317D02*
X3317Y483D01*
X483Y2599D02*
X2599Y483D01*
X4256Y10321D02*
X14094Y483D01*
X4181Y9677D02*
X13375Y483D01*
X3821Y9318D02*
X12657Y483D01*
X3297Y9124D02*
X11938Y483D01*
X2578Y9124D02*
X11220Y483D01*
X483Y1881D02*
X1881Y483D01*
X483Y1162D02*
X1162Y483D01*
X483Y9783D02*
X9783Y483D01*
X483Y10502D02*
X10502Y483D01*
X483Y6230D02*
X3377Y9124D01*
X483Y6948D02*
X2659Y9124D01*
X483Y8385D02*
X1797Y9700D01*
X483Y9104D02*
X1744Y10365D01*
X483Y7667D02*
X2156Y9340D01*
X483Y8346D02*
X8346Y483D01*
X483Y9065D02*
X9065Y483D01*
X483Y7628D02*
X7628Y483D01*
X483Y6191D02*
X6191Y483D01*
X483Y6909D02*
X6909Y483D01*
X483Y5473D02*
X5473Y483D01*
D11*
X24000Y11916D02*
Y12920D01*
Y13924D01*
Y12920D02*
X25004D01*
X22996D02*
X24000D01*
X3000D02*
X4154D01*
X3000D02*
Y14074D01*
X1846Y12920D02*
X3000D01*
Y11766D02*
Y12920D01*
D12*
X14783Y13824D02*
X15431Y13176D01*
X13610Y13824D02*
X14783D01*
X15431Y10509D02*
Y13176D01*
Y10509D02*
X16830Y9110D01*
X13051Y14190D02*
X13244D01*
X13610Y13824D01*
X16830Y9110D02*
X18500D01*
D14*
X3000Y15460D02*
D03*
Y12920D02*
D03*
Y10380D02*
D03*
D15*
X13000Y14165D02*
D03*
X24000Y12920D02*
D03*
Y10380D02*
D03*
Y15460D02*
D03*
D16*
X13000Y11625D02*
D03*
D17*
X18500Y21340D02*
D03*
Y4500D02*
D03*
D18*
Y16730D02*
D03*
Y9110D02*
D03*
%TF.MD5,36df0af97c3a5a5e2b6281fa7e6d8c9f*%
M02*
