%TF.GenerationSoftware,Altium Limited,Altium Designer,21.8.1 (53)*%
G04 Layer_Color=32896*
%FSLAX43Y43*%
%MOMM*%
%TF.SameCoordinates,0F9CA4FB-8759-410D-9958-79F17413BB1C*%
%TF.FilePolarity,Positive*%
%TF.FileFunction,Legend,Bot*%
%TF.Part,Single*%
G01*
G75*
%TA.AperFunction,NonConductor*%
%ADD19C,0.200*%
D19*
X7866Y15960D02*
Y15293D01*
X7533Y14960D01*
X7199Y15293D01*
Y15960D01*
X6200Y15793D02*
X6366Y15960D01*
X6700D01*
X6866Y15793D01*
Y15127D01*
X6700Y14960D01*
X6366D01*
X6200Y15127D01*
X5200Y15793D02*
X5367Y15960D01*
X5700D01*
X5866Y15793D01*
Y15127D01*
X5700Y14960D01*
X5367D01*
X5200Y15127D01*
X7199Y13253D02*
X7366Y13420D01*
X7699D01*
X7866Y13253D01*
Y12587D01*
X7699Y12420D01*
X7366D01*
X7199Y12587D01*
Y12920D01*
X7533D01*
X6866Y12420D02*
Y13420D01*
X6200Y12420D01*
Y13420D01*
X5866D02*
Y12420D01*
X5367D01*
X5200Y12587D01*
Y13253D01*
X5367Y13420D01*
X5866D01*
X5200Y10713D02*
X5367Y10880D01*
X5700D01*
X5866Y10713D01*
Y10547D01*
X5700Y10380D01*
X5367D01*
X5200Y10213D01*
Y10047D01*
X5367Y9880D01*
X5700D01*
X5866Y10047D01*
%TF.MD5,10713e710a680c3ce50b9e2e249534f0*%
M02*
