%TF.GenerationSoftware,Altium Limited,Altium Designer,21.8.1 (53)*%
G04 Layer_Color=65535*
%FSLAX43Y43*%
%MOMM*%
%TF.SameCoordinates,0F9CA4FB-8759-410D-9958-79F17413BB1C*%
%TF.FilePolarity,Positive*%
%TF.FileFunction,Legend,Top*%
%TF.Part,Single*%
G01*
G75*
%TA.AperFunction,NonConductor*%
%ADD11C,0.254*%
%ADD19C,0.200*%
%ADD25C,0.240*%
G36*
X5686Y23901D02*
X6634D01*
Y23427D01*
X6160D01*
Y22953D01*
X6634D01*
Y22479D01*
X7108D01*
Y21530D01*
X6634D01*
Y22005D01*
X6160D01*
Y22479D01*
X5686D01*
Y22005D01*
X5211D01*
Y22479D01*
X3789D01*
Y22005D01*
X4263D01*
Y21530D01*
X3789D01*
Y22005D01*
X3315D01*
Y22479D01*
X2841D01*
Y22005D01*
X2367D01*
Y21530D01*
X1892D01*
Y22479D01*
X2367D01*
Y22953D01*
X2841D01*
Y23427D01*
X2367D01*
Y23901D01*
X1892D01*
Y24375D01*
X2367D01*
Y23901D01*
X3315D01*
Y22953D01*
X3789D01*
Y23901D01*
X3315D01*
Y24005D01*
Y24010D01*
Y24849D01*
X3789D01*
Y24375D01*
X5211D01*
Y24849D01*
X5686D01*
Y23901D01*
D02*
G37*
G36*
X7108D02*
X6634D01*
Y24375D01*
X7108D01*
Y23901D01*
D02*
G37*
G36*
X5211Y21945D02*
Y21940D01*
Y21530D01*
X4737D01*
Y22005D01*
X5211D01*
Y21945D01*
D02*
G37*
%LPC*%
G36*
X5686Y23901D02*
X5211D01*
Y22953D01*
X5686D01*
Y23901D01*
D02*
G37*
%LPD*%
D11*
X2429Y826D02*
Y4254D01*
D19*
X1730Y9110D02*
Y16730D01*
Y9110D02*
X4270D01*
Y16730D01*
X1730D02*
X4270D01*
X11730Y10355D02*
X14270D01*
X11730D02*
Y15435D01*
X14270D01*
Y10355D02*
Y15435D01*
X22730Y16730D02*
X25270D01*
Y9110D02*
Y16730D01*
X22730Y9110D02*
X25270D01*
X22730D02*
Y16730D01*
X18500Y15460D02*
X19262D01*
Y10380D02*
Y15460D01*
X17738Y10380D02*
X19262D01*
X17738D02*
Y15460D01*
X18500D01*
Y10151D02*
Y10380D01*
Y15460D02*
Y15689D01*
X7866Y13253D02*
X7700Y13420D01*
X7367D01*
X7200Y13253D01*
Y12587D01*
X7367Y12420D01*
X7700D01*
X7866Y12587D01*
Y12920D01*
X7533D01*
X8200Y12420D02*
Y13420D01*
X8866Y12420D01*
Y13420D01*
X9199D02*
Y12420D01*
X9699D01*
X9866Y12587D01*
Y13253D01*
X9699Y13420D01*
X9199D01*
X18000Y13586D02*
Y14253D01*
X18667Y13586D01*
X18833D01*
X19000Y13753D01*
Y14086D01*
X18833Y14253D01*
X18000Y12587D02*
Y13253D01*
X18667Y12587D01*
X18833D01*
X19000Y12753D01*
Y13087D01*
X18833Y13253D01*
Y12254D02*
X19000Y12087D01*
Y11754D01*
X18833Y11587D01*
X18167D01*
X18000Y11754D01*
Y12087D01*
X18167Y12254D01*
X18833D01*
X7866Y10713D02*
X7700Y10880D01*
X7367D01*
X7200Y10713D01*
Y10547D01*
X7367Y10380D01*
X7700D01*
X7866Y10213D01*
Y10047D01*
X7700Y9880D01*
X7367D01*
X7200Y10047D01*
X3866Y3713D02*
X3700Y3880D01*
X3367D01*
X3200Y3713D01*
Y3546D01*
X3367Y3380D01*
X3700D01*
X3866Y3213D01*
Y3047D01*
X3700Y2880D01*
X3367D01*
X3200Y3047D01*
X4200Y2880D02*
Y3546D01*
X4366D01*
X4533Y3380D01*
Y2880D01*
Y3380D01*
X4700Y3546D01*
X4866Y3380D01*
Y2880D01*
X5366Y3546D02*
X5699D01*
X5866Y3380D01*
Y2880D01*
X5366D01*
X5199Y3047D01*
X5366Y3213D01*
X5866D01*
X6199Y2880D02*
X6532D01*
X6366D01*
Y3880D01*
X6199D01*
X7032Y2880D02*
X7365D01*
X7199D01*
Y3880D01*
X7032D01*
X8865D02*
Y2880D01*
X9365D01*
X9531Y3047D01*
Y3713D01*
X9365Y3880D01*
X8865D01*
X10364Y2880D02*
X10031D01*
X9865Y3047D01*
Y3380D01*
X10031Y3546D01*
X10364D01*
X10531Y3380D01*
Y3213D01*
X9865D01*
X10864Y3546D02*
X11197Y2880D01*
X11531Y3546D01*
X11864Y2880D02*
X12197D01*
X12030D01*
Y3546D01*
X11864D01*
X13363D02*
X12864D01*
X12697Y3380D01*
Y3047D01*
X12864Y2880D01*
X13363D01*
X14196D02*
X13863D01*
X13697Y3047D01*
Y3380D01*
X13863Y3546D01*
X14196D01*
X14363Y3380D01*
Y3213D01*
X13697D01*
X3200Y2200D02*
Y1200D01*
X3700D01*
X3866Y1367D01*
Y1534D01*
X3700Y1700D01*
X3200D01*
X3700D01*
X3866Y1867D01*
Y2033D01*
X3700Y2200D01*
X3200D01*
X4366Y1200D02*
X4700D01*
X4866Y1367D01*
Y1700D01*
X4700Y1867D01*
X4366D01*
X4200Y1700D01*
Y1367D01*
X4366Y1200D01*
X5366Y1867D02*
X5699D01*
X5866Y1700D01*
Y1200D01*
X5366D01*
X5199Y1367D01*
X5366Y1534D01*
X5866D01*
X6199Y1867D02*
Y1200D01*
Y1534D01*
X6366Y1700D01*
X6532Y1867D01*
X6699D01*
X7865Y2200D02*
Y1200D01*
X7365D01*
X7199Y1367D01*
Y1700D01*
X7365Y1867D01*
X7865D01*
X7200Y15960D02*
Y15293D01*
X7533Y14960D01*
X7866Y15293D01*
Y15960D01*
X8866Y15793D02*
X8700Y15960D01*
X8366D01*
X8200Y15793D01*
Y15127D01*
X8366Y14960D01*
X8700D01*
X8866Y15127D01*
X9866Y15793D02*
X9699Y15960D01*
X9366D01*
X9199Y15793D01*
Y15127D01*
X9366Y14960D01*
X9699D01*
X9866Y15127D01*
D25*
X1760Y707D02*
X760D01*
Y1207D01*
X927Y1374D01*
X1260D01*
X1427Y1207D01*
Y707D01*
Y1041D02*
X1760Y1374D01*
Y1707D02*
X1094D01*
X760Y2040D01*
X1094Y2373D01*
X1760D01*
X1260D01*
Y1707D01*
X760Y2707D02*
X1760D01*
Y3206D01*
X1593Y3373D01*
X927D01*
X760Y3206D01*
Y2707D01*
X1760Y3706D02*
X760D01*
X1094Y4040D01*
X760Y4373D01*
X1760D01*
%TF.MD5,0fbc41ab670f416b46afd778c7ebb43c*%
M02*
