%TF.GenerationSoftware,Altium Limited,Altium Designer,21.8.1 (53)*%
G04 Layer_Physical_Order=3*
G04 Layer_Color=16440176*
%FSLAX43Y43*%
%MOMM*%
%TF.SameCoordinates,3FC202D4-D6D8-4E4D-99FA-64827559B015*%
%TF.FilePolarity,Positive*%
%TF.FileFunction,Copper,L3,Inr,Signal*%
%TF.Part,Single*%
G01*
G75*
%TA.AperFunction,Conductor*%
%ADD12C,0.400*%
%ADD14C,1.200*%
%ADD15C,1.000*%
%TA.AperFunction,ComponentPad*%
%ADD19C,1.400*%
%ADD20R,1.500X1.500*%
%ADD21C,1.500*%
%TA.AperFunction,ViaPad*%
%ADD22C,6.000*%
%TA.AperFunction,ComponentPad*%
%ADD23C,1.370*%
%ADD24C,1.800*%
%ADD25C,1.524*%
%ADD26C,1.425*%
%ADD27R,1.425X1.425*%
%ADD28C,3.200*%
%ADD29C,1.950*%
%TA.AperFunction,ViaPad*%
%ADD30C,1.270*%
%ADD31C,1.800*%
D12*
X45680Y36850D02*
X47130Y38300D01*
X37150Y36850D02*
X45680D01*
X30350Y34800D02*
X35100D01*
X37150Y36850D01*
X47130Y44300D02*
X47189Y44241D01*
X48109D01*
X49450Y42900D01*
Y24400D02*
Y42900D01*
X48000Y22950D02*
X49450Y24400D01*
X37050Y22950D02*
X48000D01*
X32390Y27610D02*
X37050Y22950D01*
X27600Y32050D02*
X30350Y34800D01*
X67400Y72084D02*
X67634Y71850D01*
X86850D01*
X67400Y72084D02*
Y79350D01*
X57700Y80950D02*
X65800D01*
X67400Y79350D01*
X4850Y61650D02*
X6800D01*
X1000Y57800D02*
X4850Y61650D01*
X1000Y28250D02*
Y57800D01*
X6800Y61650D02*
X9900Y64750D01*
Y66866D01*
X10134Y67100D01*
X31700D01*
X58520Y77000D02*
Y80130D01*
X38100Y80950D02*
X57700D01*
X58520Y80130D01*
X36550Y79400D02*
X38100Y80950D01*
X36550Y71950D02*
Y79400D01*
X31700Y67100D02*
X36550Y71950D01*
X1740Y27510D02*
X3380D01*
X1000Y28250D02*
X1740Y27510D01*
X32300Y61750D02*
X41700Y71150D01*
X19600Y61750D02*
X32300D01*
X15150Y57300D02*
X19600Y61750D01*
X49700Y75800D02*
X50900Y77000D01*
X49700Y73250D02*
Y75800D01*
X47600Y71150D02*
X49700Y73250D01*
X41700Y71150D02*
X47600D01*
X15150Y49000D02*
Y57300D01*
X11050Y28050D02*
Y44900D01*
X15150Y49000D01*
X27600Y20280D02*
Y32050D01*
X24770Y17450D02*
X27600Y20280D01*
D14*
X18620Y32590D02*
X18735Y32705D01*
X15450Y6650D02*
X28400D01*
X15150Y2600D02*
X29632D01*
X31482Y4450D01*
X31600D01*
X6200Y11550D02*
Y29650D01*
X12950Y9150D02*
X15450Y6650D01*
X12950Y9150D02*
Y42300D01*
X6200Y11550D02*
X15150Y2600D01*
X12900Y42350D02*
X12950Y42300D01*
X16456Y9794D02*
X39194D01*
X15753Y10497D02*
X16456Y9794D01*
X39194D02*
X40300Y10900D01*
X15753Y10497D02*
Y32093D01*
X16250Y32590D01*
X18620D01*
X70450Y10900D02*
X79900D01*
X62650D02*
X70450D01*
X70400Y10950D02*
X70450Y10900D01*
X70400Y10950D02*
Y23800D01*
X40300Y10900D02*
X62650D01*
X62680Y10930D01*
X79900Y10900D02*
X81840Y12840D01*
X70400Y35350D02*
X80100D01*
X64450D02*
X70400D01*
X70400Y23800D02*
X80800D01*
X64200D02*
X70400D01*
Y35350D02*
Y35350D01*
Y23800D02*
Y35350D01*
X81840Y12840D02*
Y17670D01*
X62680Y10930D02*
Y17670D01*
X81840Y24840D02*
Y28950D01*
X80800Y23800D02*
X81840Y24840D01*
X62680Y25320D02*
X64200Y23800D01*
X62680Y25320D02*
Y28950D01*
X70400Y35350D02*
Y44400D01*
X70400Y35350D02*
X70400Y35350D01*
X65600Y49200D02*
X70400Y44400D01*
X80100Y35350D02*
X81840Y37090D01*
Y40230D01*
X65600Y49200D02*
X81137D01*
X62680Y37120D02*
X64450Y35350D01*
X62680Y37120D02*
Y40230D01*
X64960Y49200D02*
X65600D01*
X81840Y49903D02*
Y57050D01*
X81137Y49200D02*
X81840Y49903D01*
X48080D02*
X48783Y49200D01*
X64960D02*
Y57050D01*
X48783Y49200D02*
X64960D01*
X48080Y49903D02*
Y57050D01*
D15*
X38300Y61850D02*
X85350D01*
X31350Y54900D02*
X38300Y61850D01*
X85675Y62175D02*
X87350Y63850D01*
X85350Y61850D02*
X85675Y62175D01*
X86000Y61850D02*
X91730Y56120D01*
X93150D01*
X85350Y61850D02*
X86000D01*
X87350Y63850D02*
Y67250D01*
X94350Y74250D02*
Y78450D01*
X87350Y67250D02*
X94350Y74250D01*
X92200Y80600D02*
X94350Y78450D01*
X78840Y79140D02*
X80300Y80600D01*
X92200D01*
X78840Y77000D02*
Y79140D01*
X23150Y54900D02*
X31350D01*
X21000Y52750D02*
X23150Y54900D01*
X21050Y33950D02*
Y52700D01*
X21000Y52750D02*
X21050Y52700D01*
X19805Y32705D02*
X21050Y33950D01*
X18735Y32705D02*
X19805D01*
D19*
X39510Y32300D02*
D03*
X47130D02*
D03*
X92900Y36500D02*
D03*
Y44120D02*
D03*
X39510Y38300D02*
D03*
X47130D02*
D03*
X39510Y41300D02*
D03*
X47130D02*
D03*
X39510Y44300D02*
D03*
X47130D02*
D03*
X39510Y47300D02*
D03*
X47130D02*
D03*
X47130Y35300D02*
D03*
X39510D02*
D03*
X47130Y29300D02*
D03*
X39510D02*
D03*
X47130Y26300D02*
D03*
X39510D02*
D03*
D20*
X28700Y64000D02*
D03*
X42670Y17370D02*
D03*
D21*
X26160Y64000D02*
D03*
X23620D02*
D03*
X21080D02*
D03*
X18540D02*
D03*
X16000D02*
D03*
X40130Y17370D02*
D03*
X45210D02*
D03*
X41554Y7250D02*
D03*
X35054D02*
D03*
X41554Y2750D02*
D03*
X35054D02*
D03*
D22*
X92500Y66000D02*
D03*
X4500D02*
D03*
X92500Y4500D02*
D03*
X4500D02*
D03*
D23*
X40740Y74460D02*
D03*
Y77000D02*
D03*
X43280Y74460D02*
D03*
Y77000D02*
D03*
X45820Y74460D02*
D03*
Y77000D02*
D03*
X48360Y74460D02*
D03*
Y77000D02*
D03*
X50900Y74460D02*
D03*
Y77000D02*
D03*
X53440Y74460D02*
D03*
Y77000D02*
D03*
X55980Y74460D02*
D03*
Y77000D02*
D03*
X58520Y74460D02*
D03*
Y77000D02*
D03*
X61060Y74460D02*
D03*
Y77000D02*
D03*
X63600Y74460D02*
D03*
Y77000D02*
D03*
X66140Y74460D02*
D03*
Y77000D02*
D03*
X68680Y74460D02*
D03*
Y77000D02*
D03*
X71220Y74460D02*
D03*
Y77000D02*
D03*
X73760Y74460D02*
D03*
Y77000D02*
D03*
X76300Y74460D02*
D03*
Y77000D02*
D03*
X78840Y74460D02*
D03*
Y77000D02*
D03*
X81380Y74460D02*
D03*
Y77000D02*
D03*
X83920Y74460D02*
D03*
Y77000D02*
D03*
X86460Y74460D02*
D03*
Y77000D02*
D03*
X89000Y74460D02*
D03*
Y77000D02*
D03*
D24*
X93000Y16420D02*
D03*
Y13880D02*
D03*
Y11340D02*
D03*
X93050Y27000D02*
D03*
Y29540D02*
D03*
X93150Y58660D02*
D03*
Y56120D02*
D03*
Y53580D02*
D03*
Y51040D02*
D03*
X58793Y4727D02*
D03*
X61333D02*
D03*
X63874D02*
D03*
X3380Y50370D02*
D03*
Y47830D02*
D03*
Y45290D02*
D03*
Y42750D02*
D03*
Y40210D02*
D03*
Y37670D02*
D03*
Y35130D02*
D03*
Y32590D02*
D03*
Y30050D02*
D03*
Y27510D02*
D03*
Y24970D02*
D03*
Y22430D02*
D03*
Y19890D02*
D03*
Y17350D02*
D03*
Y14810D02*
D03*
X18620D02*
D03*
Y17350D02*
D03*
Y19890D02*
D03*
Y22430D02*
D03*
Y24970D02*
D03*
Y27510D02*
D03*
Y30050D02*
D03*
Y32590D02*
D03*
Y35130D02*
D03*
Y37670D02*
D03*
Y40210D02*
D03*
Y42750D02*
D03*
Y45290D02*
D03*
Y47830D02*
D03*
Y50370D02*
D03*
X8470Y52810D02*
D03*
X11010D02*
D03*
X13550D02*
D03*
X8470Y50270D02*
D03*
X11010D02*
D03*
X13550D02*
D03*
D25*
X3380Y12270D02*
D03*
X18620D02*
D03*
X3380Y52910D02*
D03*
X18620D02*
D03*
X23500Y37060D02*
D03*
X26040D02*
D03*
X28580D02*
D03*
X31120D02*
D03*
X33660D02*
D03*
Y52300D02*
D03*
X31120D02*
D03*
X28580D02*
D03*
X26040D02*
D03*
X23500D02*
D03*
D26*
X32390Y30150D02*
D03*
Y27610D02*
D03*
Y25070D02*
D03*
Y22530D02*
D03*
Y19990D02*
D03*
Y17450D02*
D03*
Y14910D02*
D03*
Y12370D02*
D03*
X24770D02*
D03*
Y14910D02*
D03*
Y17450D02*
D03*
Y19990D02*
D03*
Y22530D02*
D03*
Y25070D02*
D03*
Y27610D02*
D03*
D27*
Y30150D02*
D03*
D28*
X57040Y57050D02*
D03*
X61000D02*
D03*
X64960D02*
D03*
X68920D02*
D03*
X73920D02*
D03*
X77880D02*
D03*
X81840D02*
D03*
X85800D02*
D03*
X40160D02*
D03*
X44120D02*
D03*
X48080D02*
D03*
X52040D02*
D03*
X54760Y40230D02*
D03*
X58720D02*
D03*
X62680D02*
D03*
X66640D02*
D03*
X73920D02*
D03*
X77880D02*
D03*
X81840D02*
D03*
X85800D02*
D03*
X73920Y28950D02*
D03*
X77880D02*
D03*
X81840D02*
D03*
X85800D02*
D03*
X54760D02*
D03*
X58720D02*
D03*
X62680D02*
D03*
X66640D02*
D03*
X73920Y17670D02*
D03*
X77880D02*
D03*
X81840D02*
D03*
X85800D02*
D03*
X54760D02*
D03*
X58720D02*
D03*
X62680D02*
D03*
X66640D02*
D03*
D29*
X83700Y5327D02*
D03*
X78700D02*
D03*
D30*
X37400Y48500D02*
D03*
X64550Y72000D02*
D03*
X24400Y41050D02*
D03*
X86850Y71850D02*
D03*
X83350Y69300D02*
D03*
X18300Y55600D02*
D03*
X3350Y57250D02*
D03*
X11050Y28050D02*
D03*
X5950Y36800D02*
D03*
X5570Y40220D02*
D03*
X21000Y52750D02*
D03*
D31*
X28400Y6650D02*
D03*
X6200Y29650D02*
D03*
X31600Y4450D02*
D03*
X12900Y42350D02*
D03*
%TF.MD5,9340bce12a68a4b845e1a7d1a187267d*%
M02*
