%TF.GenerationSoftware,Altium Limited,Altium Designer,21.8.1 (53)*%
G04 Layer_Physical_Order=2*
G04 Layer_Color=36540*
%FSLAX43Y43*%
%MOMM*%
%TF.SameCoordinates,2523FC94-2157-46A2-8D95-2E3533E7A92D*%
%TF.FilePolarity,Positive*%
%TF.FileFunction,Copper,L2,Inr,Signal*%
%TF.Part,Single*%
G01*
G75*
%TA.AperFunction,Conductor*%
%ADD12C,1.200*%
%ADD13C,0.600*%
%ADD15C,2.000*%
%ADD16C,0.400*%
%TA.AperFunction,ComponentPad*%
%ADD17C,1.800*%
%ADD18C,1.500*%
%ADD19R,1.500X1.500*%
%ADD20C,1.524*%
%ADD21C,1.425*%
%ADD22R,1.425X1.425*%
%ADD23C,1.400*%
%ADD24C,3.200*%
%TA.AperFunction,ViaPad*%
%ADD25C,6.000*%
%TA.AperFunction,ComponentPad*%
%ADD26C,1.950*%
%TA.AperFunction,ViaPad*%
%ADD27C,1.800*%
%ADD28C,1.270*%
%TA.AperFunction,Conductor*%
%ADD29C,6.000*%
%ADD30C,4.000*%
%ADD31C,1.000*%
D12*
X57040Y51460D02*
X57300Y51200D01*
X58800Y4734D02*
Y11050D01*
X12900Y42350D02*
X13062D01*
X13462Y42750D02*
X18620D01*
X13062Y42350D02*
X13462Y42750D01*
D13*
X28580Y44680D02*
Y52300D01*
Y37060D02*
Y44680D01*
X38350Y47200D02*
X42800D01*
X35830Y44680D02*
X38350Y47200D01*
X28580Y44680D02*
X35830D01*
D15*
X73892Y48600D02*
X87450D01*
X72977Y47685D02*
X73892Y48600D01*
X87450D02*
X92600Y53750D01*
Y66000D01*
X92432Y4668D02*
X92600Y4500D01*
X72977Y11050D02*
X90300D01*
X92432Y8918D01*
Y4668D02*
Y8918D01*
X58793Y4727D02*
X58800Y4734D01*
D16*
X49050Y23484D02*
Y37295D01*
X48816Y23250D02*
X49050Y23484D01*
X36850Y23250D02*
X48816D01*
X47130Y39215D02*
X49050Y37295D01*
X35650Y24450D02*
Y31450D01*
Y24450D02*
X36850Y23250D01*
X29450Y32150D02*
X34950D01*
X35650Y31450D01*
X28050Y23270D02*
Y30750D01*
X29450Y32150D01*
X24770Y19990D02*
X28050Y23270D01*
X47130Y25130D02*
Y26505D01*
X46650Y24650D02*
X47130Y25130D01*
X29050Y33500D02*
X35400D01*
X37200Y31700D01*
Y25050D02*
Y31700D01*
X26800Y23750D02*
Y31250D01*
X25703Y22653D02*
X26800Y23750D01*
Y31250D02*
X29050Y33500D01*
X24770Y22530D02*
X24893Y22653D01*
X25703D01*
X37600Y24650D02*
X46650D01*
X37200Y25050D02*
X37600Y24650D01*
D17*
X58793Y4727D02*
D03*
X61333D02*
D03*
X63874D02*
D03*
X3380Y50370D02*
D03*
Y47830D02*
D03*
Y45290D02*
D03*
Y42750D02*
D03*
Y40210D02*
D03*
Y37670D02*
D03*
Y35130D02*
D03*
Y32590D02*
D03*
Y30050D02*
D03*
Y27510D02*
D03*
Y24970D02*
D03*
Y22430D02*
D03*
Y19890D02*
D03*
Y17350D02*
D03*
Y14810D02*
D03*
X18620D02*
D03*
Y17350D02*
D03*
Y19890D02*
D03*
Y22430D02*
D03*
Y24970D02*
D03*
Y27510D02*
D03*
Y30050D02*
D03*
Y32590D02*
D03*
Y35130D02*
D03*
Y37670D02*
D03*
Y40210D02*
D03*
Y42750D02*
D03*
Y45290D02*
D03*
Y47830D02*
D03*
Y50370D02*
D03*
X8470Y52810D02*
D03*
X11010D02*
D03*
X13550D02*
D03*
X8470Y50270D02*
D03*
X11010D02*
D03*
X13550D02*
D03*
D18*
X16000Y64000D02*
D03*
X18540D02*
D03*
X21080D02*
D03*
X23620D02*
D03*
X26160D02*
D03*
X40130Y17370D02*
D03*
X45210D02*
D03*
X41554Y7250D02*
D03*
X35054D02*
D03*
X41554Y2750D02*
D03*
X35054D02*
D03*
D19*
X28700Y64000D02*
D03*
X42670Y17370D02*
D03*
D20*
X3380Y12270D02*
D03*
X18620D02*
D03*
X3380Y52910D02*
D03*
X18620D02*
D03*
X23500Y37060D02*
D03*
X26040D02*
D03*
X28580D02*
D03*
X31120D02*
D03*
X33660D02*
D03*
Y52300D02*
D03*
X31120D02*
D03*
X28580D02*
D03*
X26040D02*
D03*
X23500D02*
D03*
D21*
X32390Y30150D02*
D03*
Y27610D02*
D03*
Y25070D02*
D03*
Y22530D02*
D03*
Y19990D02*
D03*
Y17450D02*
D03*
Y14910D02*
D03*
Y12370D02*
D03*
X24770D02*
D03*
Y14910D02*
D03*
Y17450D02*
D03*
Y19990D02*
D03*
Y22530D02*
D03*
Y25070D02*
D03*
Y27610D02*
D03*
D22*
Y30150D02*
D03*
D23*
X39510Y36675D02*
D03*
X47130D02*
D03*
X39510Y44295D02*
D03*
X47130D02*
D03*
X47130Y29055D02*
D03*
X39510D02*
D03*
X47130Y34135D02*
D03*
X39510D02*
D03*
X47130Y31595D02*
D03*
X39510D02*
D03*
X47130Y26505D02*
D03*
X39510D02*
D03*
X39510Y39215D02*
D03*
X47130D02*
D03*
X39510Y41755D02*
D03*
X47130D02*
D03*
D24*
X57040Y57050D02*
D03*
X61000D02*
D03*
X64960D02*
D03*
X68920D02*
D03*
X73920D02*
D03*
X77880D02*
D03*
X81840D02*
D03*
X85800D02*
D03*
X40160D02*
D03*
X44120D02*
D03*
X48080D02*
D03*
X52040D02*
D03*
X54760Y40230D02*
D03*
X58720D02*
D03*
X62680D02*
D03*
X66640D02*
D03*
X73920D02*
D03*
X77880D02*
D03*
X81840D02*
D03*
X85800D02*
D03*
X73920Y28950D02*
D03*
X77880D02*
D03*
X81840D02*
D03*
X85800D02*
D03*
X54760D02*
D03*
X58720D02*
D03*
X62680D02*
D03*
X66640D02*
D03*
X73920Y17670D02*
D03*
X77880D02*
D03*
X81840D02*
D03*
X85800D02*
D03*
X54760D02*
D03*
X58720D02*
D03*
X62680D02*
D03*
X66640D02*
D03*
D25*
X4500Y66000D02*
D03*
X92500D02*
D03*
Y4500D02*
D03*
X4500D02*
D03*
D26*
X83700Y5327D02*
D03*
X78700D02*
D03*
D27*
X28400Y6650D02*
D03*
X31600Y4450D02*
D03*
X6200Y29650D02*
D03*
X12900Y42350D02*
D03*
D28*
X42800Y47200D02*
D03*
D29*
X72977Y40230D02*
Y47685D01*
Y17670D02*
Y28950D01*
Y40230D01*
Y11050D02*
Y17670D01*
X69981Y50681D02*
X72977Y47685D01*
X69462Y51200D02*
X69981Y50681D01*
X53800Y13400D02*
Y51200D01*
X57300D02*
X69462D01*
X53800D02*
X57300D01*
X42800D02*
X53800D01*
Y13400D02*
X56150Y11050D01*
X58800D01*
X72977D01*
X78700Y5327D01*
D30*
X69981Y50681D02*
X73920Y54620D01*
Y57050D01*
X42800Y51200D02*
X42950Y51050D01*
X40160Y53840D02*
X42800Y51200D01*
X40160Y53840D02*
Y57050D01*
X57040Y51460D02*
Y57050D01*
D31*
X9100Y42350D02*
X14580Y47830D01*
X9100Y42350D02*
X9450Y42000D01*
X8700Y42750D02*
X9100Y42350D01*
X6050Y57800D02*
X26100D01*
X28700Y60400D02*
Y64000D01*
X26100Y57800D02*
X28700Y60400D01*
X29157Y9577D02*
X29275Y9694D01*
X28700Y9577D02*
X29157D01*
X24750D02*
X28700D01*
X28650Y9627D02*
X28700Y9577D01*
X29275Y9694D02*
X32767D01*
X32884Y9577D02*
X36377D01*
X32767Y9694D02*
X32884Y9577D01*
X9450Y11513D02*
Y42000D01*
X5900Y42750D02*
X8700D01*
X9450Y11513D02*
X11386Y9577D01*
X3380Y42750D02*
X5900D01*
X6050Y42900D02*
Y57800D01*
X5900Y42750D02*
X6050Y42900D01*
X4500Y59350D02*
X6050Y57800D01*
X4500Y59350D02*
Y66000D01*
Y4500D02*
X9577Y9577D01*
X11386D01*
X14580Y47830D02*
X18620D01*
X28650Y9627D02*
Y21300D01*
X29880Y22530D01*
X32390D01*
X11386Y9577D02*
X24750D01*
X24770Y9597D01*
Y12370D01*
X36377Y9577D02*
X37700Y10900D01*
X35054Y8254D02*
X36377Y9577D01*
X37700Y10900D02*
X43842D01*
X35054Y7250D02*
Y8254D01*
X42670Y12072D02*
Y17370D01*
Y12072D02*
X43842Y10900D01*
X56000D01*
%TF.MD5,580838c9018bc19e7aff9d33b13e3b7c*%
M02*
