%TF.GenerationSoftware,Altium Limited,Altium Designer,21.8.1 (53)*%
G04 Layer_Physical_Order=1*
G04 Layer_Color=255*
%FSLAX43Y43*%
%MOMM*%
%TF.SameCoordinates,3FC202D4-D6D8-4E4D-99FA-64827559B015*%
%TF.FilePolarity,Positive*%
%TF.FileFunction,Copper,L1,Top,Signal*%
%TF.Part,Single*%
G01*
G75*
%TA.AperFunction,NonConductor*%
%ADD10C,0.203*%
%ADD11C,0.254*%
%TA.AperFunction,Conductor*%
%ADD12C,0.400*%
%ADD13C,0.600*%
%ADD14C,1.200*%
%ADD15C,1.000*%
%ADD16C,2.800*%
%ADD17C,0.800*%
%ADD18C,2.000*%
%TA.AperFunction,ComponentPad*%
%ADD19C,1.400*%
%ADD20R,1.500X1.500*%
%ADD21C,1.500*%
%TA.AperFunction,ViaPad*%
%ADD22C,6.000*%
%TA.AperFunction,ComponentPad*%
%ADD23C,1.370*%
%ADD24C,1.800*%
%ADD25C,1.524*%
%ADD26C,1.425*%
%ADD27R,1.425X1.425*%
%ADD28C,3.200*%
%ADD29C,1.950*%
%TA.AperFunction,ViaPad*%
%ADD30C,1.270*%
%ADD31C,1.800*%
D10*
X36257Y37907D02*
G03*
X36650Y37744I393J393D01*
G01*
X94883Y70500D02*
X96517D01*
X96381D02*
X96517Y70364D01*
X95264Y70119D02*
X95645Y70500D01*
X95623Y69760D02*
X96363Y70500D01*
X94945D02*
X96517Y68927D01*
Y68866D02*
Y70500D01*
X95663D02*
X96517Y69646D01*
X95982Y69401D02*
X96517Y69936D01*
X92789Y70500D02*
X93934Y69356D01*
X92345D02*
X93353Y70364D01*
X91627Y69356D02*
X92771Y70500D01*
X92071D02*
X93215Y69356D01*
X93217Y70500D02*
X95544Y68172D01*
X94883Y70500D02*
X96378Y69006D01*
X93063Y69356D02*
X93712Y70004D01*
X96378Y69006D02*
X96517Y68866D01*
X96378Y69006D02*
X96517Y68866D01*
X96342Y69042D02*
X96517Y69217D01*
X95057Y68476D02*
X95149Y68568D01*
X95544Y67989D02*
Y68172D01*
X95256Y63723D02*
X95544Y63434D01*
X95417Y68117D02*
X95508Y68208D01*
X94339Y69194D02*
X94431Y69286D01*
X94698Y68835D02*
X94790Y68927D01*
X93782Y69356D02*
X94071Y69645D01*
X90822Y69356D02*
X94178D01*
X95544Y67989D01*
X94897Y63364D02*
X95544Y62716D01*
X90822Y62644D02*
X94178D01*
X90908Y69356D02*
X92053Y70500D01*
X91353D02*
X92497Y69356D01*
X89916Y70500D02*
X91060Y69356D01*
X90634Y70500D02*
X91779Y69356D01*
X89197Y70500D02*
X90582Y69115D01*
X88404Y67570D02*
X91334Y70500D01*
X87760D02*
X89864Y68397D01*
X88479Y70500D02*
X90223Y68756D01*
X86324Y70500D02*
X89145Y67678D01*
X87042Y70500D02*
X89504Y68038D01*
X85531Y67570D02*
X88461Y70500D01*
X85605D02*
X88535Y67570D01*
X86967D02*
X89897Y70500D01*
X87686Y67570D02*
X90616Y70500D01*
X86249Y67570D02*
X89179Y70500D01*
X89144Y67678D02*
X90822Y69356D01*
X89144Y67592D02*
X90908Y69356D01*
X88800Y65150D02*
X89144Y64805D01*
X88800Y64374D02*
X89144Y64718D01*
X88800Y63655D02*
X89306Y64161D01*
X88800Y62937D02*
X89665Y63802D01*
X89144Y64322D02*
Y67678D01*
X88800Y66529D02*
X89144Y66873D01*
X88800Y66587D02*
X89144Y66242D01*
X88800Y67247D02*
X89144Y67592D01*
X88800Y67305D02*
X89144Y66961D01*
X88800Y65868D02*
X89144Y65524D01*
X88800Y65092D02*
X89144Y65437D01*
X88800Y65811D02*
X89144Y66155D01*
X94178Y62645D02*
X95544Y61279D01*
X93461Y62644D02*
X95544Y60561D01*
X94178Y62644D02*
X95544Y64011D01*
X94538Y63004D02*
X95544Y61998D01*
X92742Y62644D02*
X95544Y59842D01*
X92024Y62644D02*
X95544Y59124D01*
X92963Y59916D02*
X95544Y62497D01*
X93681Y59916D02*
X95544Y61779D01*
X88800Y64431D02*
X93316Y59916D01*
X90606Y59713D02*
X93537Y62644D01*
X88800Y63713D02*
X92597Y59916D01*
X90606Y60432D02*
X92818Y62644D01*
X90606Y58277D02*
X95544Y63215D01*
X91305Y62644D02*
X95544Y58405D01*
X90606Y58995D02*
X95544Y63934D01*
X94406Y59203D02*
X95544Y60342D01*
X94406Y58485D02*
X95544Y59623D01*
X94089Y59605D02*
X95544Y61060D01*
X94406Y58032D02*
Y59288D01*
X94256Y56898D02*
X95544Y58187D01*
X94406Y58107D02*
X95544Y56969D01*
X94406Y58826D02*
X95544Y57687D01*
X92522Y59916D02*
X93778D01*
X94406Y59288D01*
X91894D02*
X92522Y59916D01*
X91894Y58032D02*
X92522Y57404D01*
X93896Y57257D02*
X95544Y58905D01*
X93778Y57404D02*
X94406Y58032D01*
X90606Y59034D02*
X92393Y57246D01*
X90010Y61273D02*
X91381Y62644D01*
X90369Y60914D02*
X92100Y62644D01*
X89651Y61632D02*
X90743Y62724D01*
X90178Y61106D02*
X90606Y60678D01*
Y59822D02*
Y60678D01*
Y60471D02*
X91894Y59182D01*
X90178Y61106D02*
X90606Y60678D01*
Y59822D02*
Y60678D01*
X89144Y64322D02*
X90822Y62644D01*
X89292Y61992D02*
X90383Y63083D01*
X88800Y62483D02*
Y67570D01*
X88932Y62351D02*
X90024Y63443D01*
X88800Y62995D02*
X92201Y59594D01*
X88800Y62483D02*
X90178Y61106D01*
X88800Y51750D02*
Y59917D01*
X90606Y57558D02*
X91894Y58847D01*
X90606Y58315D02*
X92034Y56887D01*
X90606Y59752D02*
X91894Y58463D01*
Y58032D02*
Y59288D01*
X90606Y54414D02*
Y59822D01*
Y56840D02*
X91894Y58129D01*
X88894Y54414D02*
Y59822D01*
X88800Y59403D02*
X88894Y59308D01*
X88800Y58626D02*
X88894Y58721D01*
X88800Y59917D02*
X88894Y59822D01*
X88800Y59345D02*
X88894Y59439D01*
X88800Y57908D02*
X88894Y58002D01*
X88800Y57966D02*
X88894Y57871D01*
X88800Y58684D02*
X88894Y58590D01*
X77156Y69614D02*
Y70500D01*
Y69971D02*
X77684Y70500D01*
X74829D02*
X75444Y69884D01*
Y69614D02*
Y70500D01*
X73392D02*
X74861Y69031D01*
X74110Y70500D02*
X75221Y69390D01*
X72674Y70500D02*
X74318Y68856D01*
X73166D02*
X74811Y70500D01*
X71237D02*
X72881Y68856D01*
X39206Y70500D02*
X75444D01*
X70518D02*
X72163Y68856D01*
X71011D02*
X72655Y70500D01*
X71955D02*
X73600Y68856D01*
X72448D02*
X74092Y70500D01*
X71729Y68856D02*
X73374Y70500D01*
X83893Y70243D02*
X84150Y70500D01*
X82855Y70291D02*
X83845D01*
X83222D02*
X83432Y70500D01*
X83450D02*
X83659Y70291D01*
X84252Y69884D02*
X84868Y70500D01*
X84341Y69254D02*
X85587Y70500D01*
X83845Y70291D02*
X84341Y69795D01*
X82731Y70500D02*
X82941Y70291D01*
X77156Y70500D02*
X93217D01*
X82013D02*
X82539Y69974D01*
X82359Y69795D02*
X82855Y70291D01*
X77156Y69253D02*
X78403Y70500D01*
X81295D02*
X82359Y69435D01*
X73885Y68856D02*
X75444Y70415D01*
X63334Y70500D02*
X64979Y68856D01*
X63827D02*
X65471Y70500D01*
X62616D02*
X64260Y68856D01*
X63108D02*
X64753Y70500D01*
X64771D02*
X66415Y68856D01*
X65263D02*
X66908Y70500D01*
X64053D02*
X65697Y68856D01*
X64545D02*
X66189Y70500D01*
X60953Y68856D02*
X62597Y70500D01*
X61179D02*
X62823Y68856D01*
X59024Y70500D02*
X60668Y68856D01*
X60460Y70500D02*
X62105Y68856D01*
X61897Y70500D02*
X63542Y68856D01*
X62390D02*
X64034Y70500D01*
X61671Y68856D02*
X63316Y70500D01*
X68856Y68856D02*
X70500Y70500D01*
X68856Y68856D02*
X70500Y70500D01*
X68137Y68856D02*
X69782Y70500D01*
X68363D02*
X70007Y68856D01*
X69800Y70500D02*
X71444Y68856D01*
X70292D02*
X71937Y70500D01*
X69574Y68856D02*
X71218Y70500D01*
X66208D02*
X67852Y68856D01*
X66700D02*
X68345Y70500D01*
X65489D02*
X67134Y68856D01*
X65982D02*
X67626Y70500D01*
X67419Y68856D02*
X69063Y70500D01*
X67645D02*
X69289Y68856D01*
X66926Y70500D02*
X68571Y68856D01*
X80576Y70500D02*
X83506Y67570D01*
X83375D02*
X86305Y70500D01*
X79783Y67570D02*
X82713Y70500D01*
X79858D02*
X82788Y67570D01*
X84812D02*
X87742Y70500D01*
X84887D02*
X87817Y67570D01*
X84094D02*
X87024Y70500D01*
X84168D02*
X87098Y67570D01*
X77703Y70500D02*
X80633Y67570D01*
X78346D02*
X81276Y70500D01*
X77628Y67570D02*
X80558Y70500D01*
X77156Y70329D02*
X79914Y67570D01*
X79065D02*
X81995Y70500D01*
X79139D02*
X82069Y67570D01*
X78421Y70500D02*
X81351Y67570D01*
X84341Y68805D02*
Y69795D01*
X83845Y68309D02*
X84341Y68805D01*
X82855Y68309D02*
X83845D01*
X83485D02*
X84225Y67570D01*
X84341Y69609D02*
X86380Y67570D01*
X84341Y68891D02*
X85661Y67570D01*
X84024Y68489D02*
X84943Y67570D01*
X82359Y68805D02*
X82855Y68309D01*
X77513Y67570D02*
X88800D01*
X82359Y68805D02*
Y69795D01*
X80502Y67570D02*
X82359Y69428D01*
X81938Y67570D02*
X82766Y68398D01*
X82657Y67570D02*
X83396Y68309D01*
X81220Y67570D02*
X82407Y68757D01*
X58079Y68856D02*
X59724Y70500D01*
X58305D02*
X59950Y68856D01*
X57361D02*
X59005Y70500D01*
X57587D02*
X59231Y68856D01*
X59742Y70500D02*
X61386Y68856D01*
X60235D02*
X61879Y70500D01*
X58798Y68856D02*
X60442Y70500D01*
X59516Y68856D02*
X61161Y70500D01*
X55431D02*
X57076Y68856D01*
X55924D02*
X57568Y70500D01*
X54713D02*
X56357Y68856D01*
X55206D02*
X56850Y70500D01*
X56642Y68856D02*
X58287Y70500D01*
X56868D02*
X58513Y68856D01*
X56150Y70500D02*
X57794Y68856D01*
X76852Y68231D02*
X79121Y70500D01*
X77211Y67872D02*
X79839Y70500D01*
X77156Y68758D02*
Y69614D01*
Y68758D02*
Y69614D01*
Y69610D02*
X79196Y67570D01*
X77156Y68892D02*
X78477Y67570D01*
X76863Y68466D02*
X77759Y67570D01*
X74603Y68856D02*
X75444Y69697D01*
X74686Y68856D02*
X75444Y69614D01*
X69081Y70500D02*
X70726Y68856D01*
X39578D02*
X74686D01*
X76741Y68343D02*
X77156Y68758D01*
X76741Y68343D02*
X77513Y67570D01*
X76741Y68343D02*
X77156Y68758D01*
X94406Y55611D02*
X95544Y56750D01*
X94406Y56671D02*
X95544Y55532D01*
X94084Y57711D02*
X95544Y56250D01*
X94406Y56329D02*
X95544Y57468D01*
X94276Y55363D02*
X95544Y54095D01*
X94406Y54174D02*
X95544Y55313D01*
X94406Y55492D02*
Y56748D01*
Y55952D02*
X95544Y54813D01*
X93778Y57376D02*
X94406Y56748D01*
X93701Y57376D02*
X94406Y56671D01*
X92522Y57404D02*
X93778D01*
X92522Y54864D02*
X93778D01*
X94063Y54550D02*
X95544Y56031D01*
X93917Y55004D02*
X95544Y53377D01*
X93778Y54864D02*
X94406Y55492D01*
X93871Y52202D02*
X95544Y53876D01*
X94406Y53797D02*
X95544Y52658D01*
X94406Y53456D02*
X95544Y54594D01*
X94406Y52952D02*
Y54208D01*
X94230Y51843D02*
X95544Y53158D01*
X94406Y51300D02*
X95544Y52439D01*
X94406Y53078D02*
X95544Y51940D01*
X93778Y54836D02*
X94406Y54208D01*
X93778Y52324D02*
X94406Y52952D01*
X92522Y54836D02*
X93778D01*
X92522Y52324D02*
X93778D01*
Y52296D02*
X94406Y51668D01*
X93752Y52296D02*
X94406Y51642D01*
X92522Y52296D02*
X93778D01*
X91894Y56692D02*
X92578Y57376D01*
X92522D02*
X93778D01*
X91894Y56748D02*
X92522Y57376D01*
X91894Y55492D02*
Y56748D01*
Y55590D02*
X92620Y54864D01*
X91894Y55492D02*
X92522Y54864D01*
X90895Y54256D02*
X92013Y55374D01*
X91640Y54283D02*
X92372Y55014D01*
X90606Y56121D02*
X92205Y57721D01*
X90606Y55403D02*
X91894Y56692D01*
X90606Y57597D02*
X91894Y56308D01*
X90606Y56879D02*
X91894Y55590D01*
X90606Y56160D02*
X92226Y54540D01*
X90606Y54685D02*
X91894Y55973D01*
X90606Y55442D02*
X91765Y54283D01*
X91969D02*
X92522Y54836D01*
X92275Y52571D02*
X92522Y52324D01*
X91791Y54283D02*
X91969D01*
X91791Y52571D02*
X92275D01*
X91894Y51668D02*
X92522Y52296D01*
X91894Y51663D02*
X92527Y52296D01*
X92039Y52571D02*
X92419Y52192D01*
X90935Y54283D02*
X91791D01*
X90935D02*
X91791D01*
X90764Y54256D02*
X90908D01*
X90764Y52544D02*
X90908D01*
X91764D01*
X91348D02*
X92059Y51833D01*
X90908Y52544D02*
X91764D01*
X94406Y51642D02*
X95544Y50503D01*
X94406Y50923D02*
X95544Y49784D01*
X94110Y52656D02*
X95544Y51221D01*
X94406Y50582D02*
X95544Y51721D01*
X93956Y43666D02*
X95544Y45255D01*
X93956Y44189D02*
X95544Y42600D01*
X94302Y50309D02*
X95544Y49066D01*
X93956Y44385D02*
X95544Y45973D01*
X92671Y49784D02*
X95544Y46911D01*
X92591Y45176D02*
X95544Y48129D01*
X93943Y49949D02*
X95544Y48348D01*
X93389Y49784D02*
X95544Y47629D01*
X93728Y44875D02*
X95544Y46692D01*
X93895Y43531D02*
X95544Y41882D01*
X93310Y45176D02*
X95544Y47410D01*
X93956Y36482D02*
X95544Y38071D01*
X93956Y37005D02*
X95544Y35416D01*
X93536Y43172D02*
X95544Y41163D01*
X93869Y37114D02*
X95544Y38789D01*
X93753Y35770D02*
X95544Y33979D01*
X93847Y30626D02*
X95544Y32323D01*
X93956Y36286D02*
X95544Y34698D01*
X93510Y37473D02*
X95544Y39508D01*
X93361Y35444D02*
X95544Y33261D01*
X92925Y43064D02*
X95544Y40445D01*
X92874Y37556D02*
X95544Y40226D01*
X92580Y30796D02*
X95544Y33760D01*
X93298Y30796D02*
X95544Y33042D01*
X92642Y35444D02*
X95544Y32542D01*
X94406Y50412D02*
Y51668D01*
X93778Y49784D02*
X94406Y50412D01*
X93956Y43592D02*
Y44648D01*
X92522Y49784D02*
X93778D01*
X93428Y45176D02*
X93956Y44648D01*
X91894Y50412D02*
X92522Y49784D01*
X90629Y52544D02*
X91894Y51279D01*
Y50412D02*
Y51668D01*
X91844Y44648D02*
X92372Y45176D01*
X93428D01*
X91844Y43592D02*
Y44648D01*
X93428Y37556D02*
X93956Y37028D01*
X93405Y37556D02*
X93956Y37005D01*
X93354Y43064D02*
X93956Y43666D01*
X93428Y43064D02*
X93956Y43592D01*
Y35972D02*
Y37028D01*
X93428Y35444D02*
X93956Y35972D01*
X92422Y30796D02*
X93678D01*
X92372Y43064D02*
X93428D01*
X92372Y37556D02*
X93428D01*
X91844Y43592D02*
X92372Y43064D01*
X91844Y37028D02*
X92372Y37556D01*
X91844Y35972D02*
X92372Y35444D01*
X93428D01*
X91844Y35972D02*
Y37028D01*
X90606Y54723D02*
X91046Y54283D01*
X88800Y54374D02*
X88894Y54279D01*
X88800Y55092D02*
X88894Y54998D01*
X88800Y54316D02*
X88894Y54410D01*
Y53558D02*
Y54414D01*
X90606D02*
X90764Y54256D01*
X88894Y53558D02*
Y54414D01*
X88800Y53597D02*
X88894Y53692D01*
X88800Y56471D02*
X88894Y56565D01*
X88800Y56529D02*
X88894Y56434D01*
X88800Y57189D02*
X88894Y57284D01*
X88800Y57247D02*
X88894Y57153D01*
X88800Y55810D02*
X88894Y55716D01*
X88800Y55034D02*
X88894Y55129D01*
X88800Y55753D02*
X88894Y55847D01*
X89322Y53130D02*
X89480Y52972D01*
X89908Y52544D01*
X88894Y53558D02*
X89322Y53130D01*
X88894Y53558D02*
X89322Y53130D01*
X89908Y52544D02*
X90764D01*
X89908D02*
X90764D01*
X89480Y52972D02*
X89908Y52544D01*
X88894Y53561D02*
X89911Y52544D01*
X88800Y52161D02*
X89546Y52906D01*
X88800Y53655D02*
X88894Y53561D01*
X88800Y52879D02*
X89187Y53266D01*
X88108Y50750D02*
X89905Y52547D01*
X78683Y51750D02*
X88800D01*
X77683Y50750D02*
X88800D01*
X81642D02*
X82642Y51750D01*
X82084D02*
X83084Y50750D01*
X80924D02*
X81924Y51750D01*
X81366D02*
X82366Y50750D01*
X83079D02*
X84079Y51750D01*
X83521D02*
X84521Y50750D01*
X82361D02*
X83361Y51750D01*
X82803D02*
X83803Y50750D01*
X79210Y51750D02*
X80210Y50750D01*
X79487D02*
X80487Y51750D01*
X78050Y50750D02*
X79050Y51750D01*
X78768Y50750D02*
X79768Y51750D01*
X80205Y50750D02*
X81205Y51750D01*
X80647D02*
X81647Y50750D01*
X79929Y51750D02*
X80929Y50750D01*
X85953D02*
X86953Y51750D01*
X86395D02*
X87395Y50750D01*
X85234D02*
X86234Y51750D01*
X85676D02*
X86676Y50750D01*
X87113Y51750D02*
X88113Y50750D01*
X87389D02*
X88389Y51750D01*
X86671Y50750D02*
X87671Y51750D01*
X83797Y50750D02*
X84797Y51750D01*
X78588Y51654D02*
X79492Y50750D01*
X78228Y51295D02*
X78774Y50750D01*
X77869Y50936D02*
X78055Y50750D01*
X84516D02*
X85516Y51750D01*
X84958D02*
X85958Y50750D01*
X84239Y51750D02*
X85239Y50750D01*
X88800Y42103D02*
X95544Y48847D01*
X88800Y46471D02*
X95544Y39727D01*
X88800Y52937D02*
X95544Y46192D01*
X88800Y52218D02*
X95544Y45474D01*
X88800Y37792D02*
X95544Y44536D01*
X88800Y44316D02*
X95544Y37571D01*
X88800Y45753D02*
X95544Y39008D01*
X88800Y45034D02*
X95544Y38290D01*
X87831Y51750D02*
X95544Y44037D01*
X88800Y44258D02*
X95544Y51002D01*
X88550Y51750D02*
X95544Y44755D01*
X88800Y44976D02*
X93608Y49784D01*
X88800Y50063D02*
X95544Y43319D01*
X88800Y42821D02*
X95544Y49565D01*
X88800Y43539D02*
X95544Y50284D01*
X88800Y38568D02*
X95544Y31824D01*
X88800Y37850D02*
X95544Y31105D01*
X88800Y34918D02*
X95544Y41663D01*
X88800Y34200D02*
X95544Y40944D01*
X88800Y30608D02*
X95544Y37352D01*
X88800Y37131D02*
X95544Y30387D01*
X88800Y34976D02*
X92981Y30796D01*
X88800Y37074D02*
X95544Y43818D01*
X88800Y43597D02*
X95544Y36853D01*
X88800Y38511D02*
X93354Y43064D01*
X88800Y42160D02*
X93405Y37556D01*
X88800Y42879D02*
X95544Y36134D01*
X88800Y35637D02*
X95544Y42381D01*
X88800Y36355D02*
X95544Y43100D01*
X88800Y45695D02*
X92890Y49784D01*
X88800Y49345D02*
X92969Y45176D01*
X89911Y52544D02*
X91894Y50561D01*
X88800Y46413D02*
X92347Y49960D01*
X88800Y48626D02*
X92311Y45115D01*
X88800Y47908D02*
X91952Y44756D01*
X88800Y47189D02*
X91844Y44145D01*
X88800Y49287D02*
X92085Y52571D01*
X88800Y50005D02*
X91339Y52544D01*
X88800Y50724D02*
X90621Y52544D01*
X77683Y50750D02*
X78678Y51744D01*
X88800Y47850D02*
X91894Y50944D01*
X88800Y47132D02*
X91988Y50319D01*
X88800Y48568D02*
X91894Y51663D01*
X88800Y32763D02*
X91927Y35890D01*
X88800Y32045D02*
X92286Y35531D01*
X88800Y39287D02*
X91844Y36242D01*
X88800Y33482D02*
X91844Y36526D01*
X88800Y31326D02*
X92918Y35444D01*
X88800Y34258D02*
X92342Y30716D01*
X88800Y33539D02*
X91983Y30356D01*
X88800Y39947D02*
X92145Y43292D01*
X88800Y39229D02*
X92635Y43064D01*
X88800Y41384D02*
X91844Y44429D01*
X88800Y40666D02*
X91844Y43710D01*
X88800Y41442D02*
X92686Y37556D01*
X88800Y40724D02*
X92170Y37353D01*
X88800Y40005D02*
X91844Y36961D01*
X50403Y70500D02*
X52047Y68856D01*
X50895D02*
X52539Y70500D01*
X49684D02*
X51328Y68856D01*
X50177D02*
X51821Y70500D01*
X51839D02*
X53484Y68856D01*
X52332D02*
X53976Y70500D01*
X51121D02*
X52765Y68856D01*
X51613D02*
X53258Y70500D01*
X48021Y68856D02*
X49666Y70500D01*
X48247D02*
X49892Y68856D01*
X47303D02*
X48947Y70500D01*
X47529D02*
X49173Y68856D01*
X48966Y70500D02*
X50610Y68856D01*
X49458D02*
X51103Y70500D01*
X48740Y68856D02*
X50384Y70500D01*
X53276D02*
X54921Y68856D01*
X53769D02*
X55413Y70500D01*
X52558D02*
X54202Y68856D01*
X53050D02*
X54695Y70500D01*
X53995D02*
X55639Y68856D01*
X54487D02*
X56132Y70500D01*
X51242Y49544D02*
X51760Y49027D01*
X48593Y48593D02*
X49544Y49544D01*
X47642D02*
X51760D01*
X48234Y48953D02*
X48826Y49544D01*
X48593Y48593D02*
X49544Y49544D01*
X49312Y47875D02*
X50981Y49544D01*
X50524D02*
X51760Y48308D01*
X48953Y48234D02*
X50263Y49544D01*
X43218Y70500D02*
X44863Y68856D01*
X43711D02*
X45355Y70500D01*
X42500D02*
X44144Y68856D01*
X42992D02*
X44637Y70500D01*
X44655D02*
X46300Y68856D01*
X45148D02*
X46792Y70500D01*
X43937D02*
X45581Y68856D01*
X44429D02*
X46074Y70500D01*
X40837Y68856D02*
X42482Y70500D01*
X41063D02*
X42707Y68856D01*
X40119D02*
X41763Y70500D01*
X40345D02*
X41989Y68856D01*
X41781Y70500D02*
X43426Y68856D01*
X42274D02*
X43918Y70500D01*
X41556Y68856D02*
X43200Y70500D01*
X46810D02*
X48455Y68856D01*
X47875Y49312D02*
X48108Y49544D01*
X47642D02*
X47759Y49428D01*
X47642Y49544D02*
X47759Y49428D01*
X46776Y48444D02*
X46864Y48356D01*
X46602D02*
X46864D01*
X46595Y48444D02*
X46684Y48356D01*
X46092Y70500D02*
X47736Y68856D01*
X46585D02*
X48229Y70500D01*
X45374D02*
X47018Y68856D01*
X45866D02*
X47511Y70500D01*
X40245Y48148D02*
X40542Y48444D01*
X45877D02*
X46284Y48037D01*
X39735Y48356D02*
X39823Y48444D01*
X49087Y49544D02*
X51760Y46871D01*
X50030Y47157D02*
X51760Y48886D01*
X49671Y47516D02*
X51700Y49544D01*
X49805D02*
X51760Y47590D01*
X48369Y49544D02*
X51760Y46153D01*
X50856Y45827D02*
X51760Y46731D01*
X50389Y46797D02*
X51760Y48168D01*
X50749Y46438D02*
X51760Y47449D01*
X47759Y49428D02*
X50528Y46659D01*
X48186Y47034D02*
X49544Y45676D01*
X48186Y46772D02*
Y47034D01*
X47658Y46244D02*
X48186Y46772D01*
X47650Y49544D02*
X51760Y45435D01*
X48186Y46854D02*
X49544Y45495D01*
X46792Y45356D02*
X48328Y46892D01*
X50856Y45676D02*
Y46331D01*
Y45676D02*
Y46331D01*
X50528Y46659D02*
X50856Y46331D01*
X50528Y46659D02*
X50856Y46331D01*
Y45108D02*
X51760Y46013D01*
X50856Y45621D02*
X51760Y44716D01*
X50856Y44978D02*
Y45676D01*
X47944Y45070D02*
X49047Y46173D01*
X49544Y44978D02*
Y45676D01*
X47511Y45356D02*
X48688Y46532D01*
X46602Y46244D02*
X47658D01*
X47867Y46454D02*
X49544Y44777D01*
X47358Y46244D02*
X49544Y44058D01*
X48186Y44593D02*
X49406Y45814D01*
X43003Y48444D02*
X46347Y45100D01*
X43721Y48444D02*
X46810Y45356D01*
X45158Y48444D02*
X46074Y47528D01*
X44440Y48444D02*
X46074Y46810D01*
X41566Y48444D02*
X46074Y43936D01*
X40848Y48444D02*
X46936Y42356D01*
X40566Y44158D02*
X44852Y48444D01*
X42285D02*
X46074Y44655D01*
X40566Y47031D02*
X41979Y48444D01*
X40182Y45211D02*
X43415Y48444D01*
X40566Y47750D02*
X41260Y48444D01*
X40038Y48356D02*
X40566Y47828D01*
X40119Y42274D02*
X46289Y48444D01*
X40129D02*
X46410Y42164D01*
X40541Y44852D02*
X44134Y48444D01*
X46074Y46810D02*
X46640Y46244D01*
X46074Y46772D02*
X46602Y46244D01*
X46074Y47828D02*
X46602Y48356D01*
X46074Y46772D02*
Y47828D01*
X40566Y41284D02*
X46074Y46793D01*
X46640Y46244D02*
X47529Y45356D01*
X40566Y47290D02*
X46074Y41781D01*
X40478Y41915D02*
X46074Y47511D01*
X40038Y45356D02*
X40566Y44828D01*
Y46772D02*
Y47828D01*
X40038Y46244D02*
X40566Y46772D01*
X40106Y46312D02*
X47063Y39356D01*
X40056Y39337D02*
X46963Y46244D01*
X40465Y46672D02*
X46074Y41062D01*
X39206Y70098D02*
X39608Y70500D01*
X39206Y69922D02*
Y70478D01*
X37471Y70500D02*
X37794Y70177D01*
X39206Y69922D02*
Y70478D01*
X39400Y68856D02*
X41045Y70500D01*
X39626D02*
X41271Y68856D01*
X39206Y70202D02*
X40552Y68856D01*
X38928Y69644D02*
X39206Y69922D01*
X37256Y70500D02*
X38094D01*
X36978Y70044D02*
X37256Y70322D01*
Y70500D01*
Y70322D02*
Y70500D01*
X37396Y67570D02*
X40326Y70500D01*
X37093Y70160D02*
X37435Y69818D01*
X36978Y70044D02*
X37256Y70322D01*
X38722Y68856D02*
X39578D01*
X38722D02*
X39578D01*
X38928Y69644D02*
X39206Y69922D01*
X38627Y69344D02*
X39115Y68856D01*
X38986Y69703D02*
X39834Y68856D01*
X38294Y68428D02*
X38722Y68856D01*
X38294Y68428D02*
X38722Y68856D01*
X38268Y68985D02*
X38560Y68693D01*
X37909Y68625D02*
X38200Y68334D01*
X37550Y68266D02*
X37841Y67975D01*
X37190Y67907D02*
X37482Y67615D01*
X37437Y67570D02*
X38294Y68428D01*
X37160Y67570D02*
X37437D01*
X36606Y61307D02*
X37160Y60753D01*
Y67293D02*
Y67570D01*
X36969Y64536D02*
X37160Y64345D01*
X36734Y69800D02*
X37075Y69459D01*
X36831Y67548D02*
X37123Y67256D01*
X36606Y61750D02*
X37160Y62305D01*
X36606Y62026D02*
X37160Y61471D01*
X36610Y64177D02*
X37160Y63627D01*
X36606Y62744D02*
X37160Y62190D01*
X36606Y63906D02*
X37160Y64460D01*
X36606Y63187D02*
X37160Y63742D01*
X36472Y67189D02*
X36764Y66897D01*
X36606Y64172D02*
X37160Y64727D01*
X36606Y63463D02*
X37160Y62908D01*
X36606Y62469D02*
X37160Y63023D01*
X36606Y55778D02*
Y64172D01*
Y57440D02*
X37160Y57994D01*
X36606Y57715D02*
X37160Y57161D01*
X36606Y58158D02*
X37160Y58713D01*
X36606Y58434D02*
X37160Y57879D01*
X36606Y56997D02*
X37160Y56443D01*
X36606Y56003D02*
X37160Y56557D01*
X36606Y56721D02*
X37160Y57276D01*
X36606Y60589D02*
X37160Y60035D01*
X36606Y59595D02*
X37160Y60149D01*
X36606Y61032D02*
X37160Y61586D01*
X36606Y60313D02*
X37160Y60868D01*
X36606Y58877D02*
X37160Y59431D01*
X36606Y59152D02*
X37160Y58598D01*
X36606Y59871D02*
X37160Y59316D01*
X39411Y48444D02*
X39500Y48356D01*
X38982D02*
X40038D01*
X38692Y48444D02*
X38882Y48255D01*
X39016Y48356D02*
X39105Y48444D01*
X39608Y45356D02*
X42697Y48444D01*
X39482Y42356D02*
X45571Y48444D01*
X38454Y47794D02*
X39016Y48356D01*
X38454Y47256D02*
Y47828D01*
X38414Y49756D02*
X38711D01*
X38414Y48444D02*
X46776D01*
X38044Y50422D02*
X38711Y49756D01*
X38261D02*
X38486Y49981D01*
X38454Y47828D02*
X38982Y48356D01*
X38391Y48028D02*
X38522Y47896D01*
X37916Y47256D02*
X38454Y47794D01*
X39153Y46244D02*
X40038D01*
X38837Y46144D02*
X39626Y45356D01*
X39053Y46144D02*
X39153Y46244D01*
X39053Y46144D02*
X39153Y46244D01*
X39356Y39356D02*
X46423Y46423D01*
X39456Y46244D02*
X46473Y39227D01*
X39356Y39356D02*
X46423Y46423D01*
X38498Y46144D02*
X39053D01*
X38498D02*
X39053D01*
X37383D02*
X38498D01*
X38119D02*
X38945Y45318D01*
X38390Y44856D02*
X39779Y46244D01*
X37671Y44856D02*
X38960Y46144D01*
X37400D02*
X38586Y44959D01*
X38044Y50422D02*
Y51750D01*
X37759Y49756D02*
X38414D01*
X37160Y51750D02*
X38044D01*
X37542D02*
X38044Y51248D01*
X37277Y49491D02*
X38127Y50340D01*
X37759Y49756D02*
X38414D01*
X37494Y49491D02*
X37759Y49756D01*
X37494Y49491D02*
X37759Y49756D01*
X37160Y55223D02*
Y64727D01*
X36606Y55778D02*
X37160Y55223D01*
X36606Y56279D02*
X37160Y55724D01*
X36852Y55531D02*
X37160Y55839D01*
Y51750D02*
Y52657D01*
X36905Y49491D02*
X37494D01*
X36409Y48995D02*
X36905Y49491D01*
X38391Y48005D02*
Y48421D01*
X37895Y47509D02*
X38391Y48005D01*
X37290Y47348D02*
X37451Y47509D01*
X37129D02*
X37895D01*
X38043Y47657D02*
X38444Y47256D01*
X37383D02*
X38454D01*
X37472Y47509D02*
X37726Y47256D01*
X37129Y47509D02*
X37383Y47256D01*
X36549Y46422D02*
X36827Y46144D01*
X36409Y48229D02*
Y48995D01*
X36549Y46422D02*
X36827Y46144D01*
X37383D01*
X36953Y44856D02*
X38242Y46144D01*
X36827D02*
X37383D01*
X50856Y43465D02*
X51760Y42561D01*
X50856Y42235D02*
X51760Y43139D01*
X50856Y44184D02*
X51760Y43279D01*
X50856Y42953D02*
X51760Y43857D01*
X50856Y42029D02*
X51760Y41124D01*
X50856Y40798D02*
X51760Y41702D01*
X50856Y42747D02*
X51760Y41843D01*
X50856Y41516D02*
X51760Y42421D01*
X50856Y44390D02*
X51760Y45294D01*
X50856Y44902D02*
X51760Y43998D01*
X50856Y44322D02*
Y44978D01*
Y44322D02*
Y44978D01*
Y43671D02*
X51760Y44576D01*
X47880Y42133D02*
X49544Y43797D01*
X48186Y44699D02*
X49544Y43340D01*
X50856Y39873D02*
X51760Y38969D01*
X50856Y38642D02*
X51760Y39547D01*
X50856Y40592D02*
X51760Y39687D01*
X50856Y39361D02*
X51760Y40265D01*
X50856Y37924D02*
X51760Y38828D01*
X50856Y38436D02*
X51760Y37532D01*
X50856Y39155D02*
X51760Y38251D01*
X50856Y41310D02*
X51760Y40406D01*
X50856Y40079D02*
X51760Y40984D01*
X47994Y40580D02*
X49544Y39029D01*
X48176Y38837D02*
X49544Y40205D01*
X46892Y40244D02*
X49544Y37592D01*
X48186Y38128D02*
X49544Y39486D01*
X47611Y40244D02*
X49544Y38311D01*
X48186Y43875D02*
X49544Y45234D01*
Y44322D02*
Y44978D01*
Y44322D02*
Y44978D01*
X48186Y43772D02*
Y44828D01*
X47930Y43517D02*
X49544Y41903D01*
X48186Y41720D02*
X49544Y43079D01*
X48186Y43980D02*
X49544Y42621D01*
X47658Y43244D02*
X48186Y43772D01*
X47658Y45356D02*
X48186Y44828D01*
X46602Y43244D02*
X47658D01*
X46602Y45356D02*
X47658D01*
X46666Y42356D02*
X47555Y43244D01*
X47385Y42356D02*
X49544Y44515D01*
X47485Y43244D02*
X49544Y41185D01*
X46766Y43244D02*
X47655Y42356D01*
X48186Y41825D02*
X49544Y40466D01*
X48186Y41106D02*
X49544Y39748D01*
X48186Y41001D02*
X49544Y42360D01*
X48186Y40772D02*
Y41828D01*
X47817Y39196D02*
X49544Y40923D01*
X48186Y37772D02*
Y38828D01*
X47658Y39356D02*
X48186Y38828D01*
X47658Y42356D02*
X48186Y41828D01*
X47655Y42356D02*
X48186Y41825D01*
X46602Y42356D02*
X47658D01*
X46602Y40244D02*
X47658D01*
X47258Y39356D02*
X49544Y41642D01*
X47658Y40244D02*
X48186Y40772D01*
X46602Y39356D02*
X47658D01*
X50856Y36281D02*
X51760Y35377D01*
X50856Y35050D02*
X51760Y35955D01*
X50856Y37000D02*
X51760Y36095D01*
X50856Y35769D02*
X51760Y36673D01*
X50856Y34844D02*
X51760Y33940D01*
X50856Y33613D02*
X51760Y34518D01*
X50856Y35563D02*
X51760Y34658D01*
X50856Y34332D02*
X51760Y35236D01*
X50856Y37718D02*
X51760Y36814D01*
X50856Y36487D02*
X51760Y37392D01*
X50856Y37206D02*
X51760Y38110D01*
X47006Y33356D02*
X49544Y35894D01*
X48120Y34706D02*
X49544Y33282D01*
X48050Y32963D02*
X49544Y34458D01*
X47691Y33322D02*
X49544Y35176D01*
X50856Y32177D02*
X51760Y33081D01*
X50856Y32689D02*
X51760Y31785D01*
X50856Y32895D02*
X51760Y33799D01*
X50856Y33408D02*
X51760Y32503D01*
X50856Y31971D02*
X51760Y31066D01*
X50856Y30740D02*
X51760Y31644D01*
X50856Y31458D02*
X51760Y32363D01*
X47145Y34244D02*
X49544Y31845D01*
X50856Y34126D02*
X51760Y33222D01*
X47761Y34347D02*
X49544Y32563D01*
X48186Y32380D02*
X49544Y33739D01*
X46879Y30356D02*
X49544Y33021D01*
X48183Y31770D02*
X49544Y30408D01*
X48186Y32485D02*
X49544Y31127D01*
X48057Y37643D02*
X49544Y36156D01*
X48113Y35900D02*
X49544Y37331D01*
X48186Y38233D02*
X49544Y36874D01*
X47754Y36259D02*
X49544Y38050D01*
X47697Y37284D02*
X49544Y35437D01*
X48186Y35254D02*
X49544Y36613D01*
X47658Y36356D02*
X48186Y35828D01*
Y34772D02*
Y35828D01*
X47132Y36356D02*
X49544Y38768D01*
X47658Y37244D02*
X48186Y37772D01*
X46602Y37244D02*
X47658D01*
X46602Y36356D02*
X47658D01*
X47019Y37244D02*
X49544Y34719D01*
X46074Y35828D02*
X46602Y36356D01*
X46074Y34772D02*
Y35828D01*
X48186Y35359D02*
X49544Y34000D01*
X48186Y31772D02*
Y32828D01*
X47658Y34244D02*
X48186Y34772D01*
X47658Y33356D02*
X48186Y32828D01*
X47598Y30356D02*
X49544Y32302D01*
X47658Y31244D02*
X48186Y31772D01*
X46602Y30356D02*
X47658D01*
X46602Y34244D02*
X47658D01*
X46602Y33356D02*
X47658D01*
X46074Y34772D02*
X46602Y34244D01*
X46074Y32828D02*
X46602Y33356D01*
X46074Y31772D02*
X46602Y31244D01*
X47658D01*
X46074Y31772D02*
Y32828D01*
X46074Y44828D02*
X46602Y45356D01*
X46074Y43772D02*
X46602Y43244D01*
X40566Y43772D02*
Y44828D01*
X46074Y43772D02*
Y44828D01*
X40566Y44416D02*
X46114Y38867D01*
X40528Y43735D02*
X46074Y38189D01*
X40415Y38978D02*
X46074Y44638D01*
X40566Y38410D02*
X46074Y43919D01*
X40038Y43244D02*
X40566Y43772D01*
X38982Y42356D02*
X40038D01*
X38982Y45356D02*
X40038D01*
X38982Y43244D02*
X40038D01*
X40169Y43376D02*
X47189Y36356D01*
X39948D02*
X46836Y43244D01*
X40038Y42356D02*
X40566Y41828D01*
X46074Y41764D02*
X46666Y42356D01*
X46074Y40772D02*
X46602Y40244D01*
X46074Y41828D02*
X46602Y42356D01*
X46074Y40772D02*
Y41828D01*
Y38828D02*
X46602Y39356D01*
X46074Y37772D02*
X46602Y37244D01*
X46074Y37772D02*
Y38828D01*
X40038Y40244D02*
X40566Y40772D01*
X40038Y39356D02*
X40566Y38828D01*
Y40772D02*
Y41828D01*
X38982Y40244D02*
X40038D01*
X40566Y37772D02*
Y38828D01*
X40038Y37244D02*
X40566Y37772D01*
X38982Y37244D02*
X40038D01*
X37645Y43744D02*
X39034Y42356D01*
X38363Y43744D02*
X39752Y42356D01*
X38482Y44856D02*
X38982Y45356D01*
X38482Y43744D02*
X38982Y43244D01*
X38263Y41856D02*
X39652Y43244D01*
X38482Y40744D02*
X38982Y40244D01*
X37545Y41856D02*
X38958Y43269D01*
X38482Y41856D02*
X38982Y42356D01*
X36927Y43744D02*
X38649Y42022D01*
X36827Y41856D02*
X38599Y43628D01*
X36443Y42190D02*
X37997Y43744D01*
X36778Y41856D02*
X38482D01*
X36778Y40744D02*
X38482D01*
X37053D02*
X38712Y39085D01*
X36431Y39305D02*
X37871Y40744D01*
X38990Y40244D02*
X39879Y39356D01*
X38982D02*
X40038D01*
X37771Y40744D02*
X39160Y39356D01*
X38137Y38856D02*
X39526Y40244D01*
X38482Y37744D02*
X38982Y37244D01*
X37898Y37744D02*
X39286Y36356D01*
X38482Y38856D02*
X38982Y39356D01*
X36790Y38945D02*
X38536Y40691D01*
X37419Y38856D02*
X38895Y40332D01*
X36880Y38856D02*
X38482D01*
X36403Y37802D02*
X36461Y37744D01*
X36492Y36492D02*
X37744Y37744D01*
X36650D02*
X38482D01*
X36492Y36492D02*
X37744Y37744D01*
X40566Y41542D02*
X46177Y35931D01*
X40566Y34818D02*
X46297Y40550D01*
X40566Y35537D02*
X46074Y41045D01*
X40566Y40824D02*
X46074Y35315D01*
X40566Y38669D02*
X46240Y32994D01*
X40566Y31945D02*
X46234Y37613D01*
X40566Y32663D02*
X46074Y38172D01*
X40566Y37950D02*
X46074Y32441D01*
X39582Y43244D02*
X46536Y36290D01*
X39821Y33356D02*
X46710Y40244D01*
X39229Y36356D02*
X46360Y43486D01*
X40352Y36041D02*
X46074Y41764D01*
X40232Y40439D02*
X47315Y33356D01*
X40289Y33105D02*
X47429Y40244D01*
X39708D02*
X46600Y33353D01*
X40038Y34244D02*
X40566Y34772D01*
X40038Y33356D02*
X40566Y32828D01*
X40038Y36356D02*
X40566Y35828D01*
Y34772D02*
Y35828D01*
X40295Y37502D02*
X47442Y30356D01*
X40038Y31244D02*
X40566Y31772D01*
Y32828D01*
X40005Y36356D02*
X40566Y35795D01*
X39992Y34244D02*
X40566Y34818D01*
X38982Y34244D02*
X40038D01*
X38982Y31244D02*
X40038D01*
X39695Y30356D02*
X46593Y37254D01*
X39835Y37244D02*
X46723Y30356D01*
X38982D02*
X40038D01*
X39116Y37244D02*
X40005Y36356D01*
X38982D02*
X40038D01*
X37179Y37744D02*
X38775Y36149D01*
X37292Y35856D02*
X38832Y37395D01*
X38011Y35856D02*
X39400Y37244D01*
X38482Y35856D02*
X38982Y36356D01*
X37128Y34744D02*
X38482D01*
X36851Y36132D02*
X38463Y37744D01*
X37128Y35856D02*
X38482D01*
X36461Y37744D02*
X38350Y35856D01*
X36572Y34744D02*
X37128D01*
X36513Y32921D02*
X38336Y34744D01*
X36587D02*
X38476Y32856D01*
X36572Y34744D02*
X37128D01*
X39103Y33356D02*
X39992Y34244D01*
X38982Y33356D02*
X40038D01*
X38482Y34744D02*
X38982Y34244D01*
X38024Y34744D02*
X39413Y33356D01*
X38482Y31744D02*
X38982Y31244D01*
X38150Y31744D02*
X39539Y30356D01*
X38482Y32856D02*
X38982Y33356D01*
X37306Y34744D02*
X38838Y33212D01*
X37885Y32856D02*
X39273Y34244D01*
X37166Y32856D02*
X38769Y34458D01*
X36578Y32856D02*
X38482D01*
X37055Y30589D02*
X38210Y31744D01*
X36578D02*
X38482D01*
X36695Y30948D02*
X37492Y31744D01*
X94306Y29471D02*
X95544Y28232D01*
X94306Y27492D02*
X95544Y28731D01*
X94306Y29648D02*
X95544Y30886D01*
X94306Y28929D02*
X95544Y30168D01*
Y19798D02*
Y64011D01*
X94306Y26597D02*
X95544Y25358D01*
X94306Y26774D02*
X95544Y28013D01*
X94306Y27315D02*
X95544Y26077D01*
X94226Y28832D02*
X95544Y27513D01*
X93866Y28473D02*
X95544Y26795D01*
X94206Y30267D02*
X95544Y31605D01*
X94014Y27919D02*
X95544Y29450D01*
X88800Y19113D02*
X95544Y25858D01*
X93700Y25766D02*
X95544Y23921D01*
X94059Y26125D02*
X95544Y24640D01*
X96284Y18871D02*
X96517Y18638D01*
X95925Y18512D02*
X96517Y17919D01*
X96378Y18964D02*
X96517Y19104D01*
X96378Y18964D02*
X96517Y19104D01*
X95207Y17793D02*
X96517Y16482D01*
X94847Y17434D02*
X96517Y15764D01*
X95566Y18152D02*
X96517Y17201D01*
X93110Y17676D02*
X95544Y20110D01*
X93422Y17676D02*
X95544Y19798D01*
X93003Y25744D02*
X95544Y23203D01*
X92391Y17676D02*
X95544Y20829D01*
X94256Y16666D02*
X96517Y18928D01*
X94256Y15948D02*
X96517Y18209D01*
X94256Y16842D02*
X96378Y18964D01*
X93661Y28284D02*
X94306Y28929D01*
X93678Y28284D02*
X94306Y28912D01*
X93678Y30796D02*
X94306Y30168D01*
Y28912D02*
Y30168D01*
X93678Y28256D02*
X94306Y27628D01*
Y26372D02*
Y27628D01*
X91794Y28912D02*
X92422Y28284D01*
X93678D01*
X91794Y30168D02*
X92422Y30796D01*
X91794Y28912D02*
Y30168D01*
Y27628D02*
X92422Y28256D01*
X93678D01*
X91794Y26372D02*
Y27628D01*
X93678Y25744D02*
X94306Y26372D01*
X94256Y15792D02*
Y16842D01*
X92422Y25744D02*
X93678D01*
X93628Y15164D02*
X94256Y15792D01*
X92372Y15136D02*
X93628D01*
X92372Y15164D02*
X93628D01*
X92372Y17676D02*
X93422D01*
X91794Y26372D02*
X92422Y25744D01*
X91744Y17048D02*
X92372Y17676D01*
X91744Y17029D02*
X92391Y17676D01*
X91744Y15792D02*
X92372Y15164D01*
X91744Y15792D02*
Y17048D01*
X94256Y13792D02*
X96517Y16054D01*
X94256Y15871D02*
X96517Y13609D01*
X94488Y17075D02*
X96517Y15046D01*
X94256Y13252D02*
Y14508D01*
X96517Y483D02*
Y19104D01*
X94256Y13715D02*
X96517Y11454D01*
X94256Y14434D02*
X96517Y12172D01*
X94256Y11637D02*
X96517Y13899D01*
X94254Y14509D02*
X96517Y16773D01*
X94256Y16589D02*
X96517Y14327D01*
X93895Y14869D02*
X96517Y17491D01*
X93628Y15136D02*
X94256Y14508D01*
X93702Y12521D02*
X96517Y15336D01*
X94062Y12162D02*
X96517Y14617D01*
X93936Y15472D02*
X96517Y12890D01*
X94128Y13125D02*
X96517Y10735D01*
X94256Y11560D02*
X96517Y9298D01*
X94256Y10919D02*
X96517Y13181D01*
X94256Y10712D02*
Y11968D01*
X93961Y10418D02*
X96517Y7861D01*
X94066Y7856D02*
X96517Y10307D01*
X94256Y10842D02*
X96517Y8580D01*
X93769Y12765D02*
X96517Y10017D01*
X91911Y7856D02*
X96517Y12462D01*
X93628Y12624D02*
X94256Y13252D01*
X93628Y10084D02*
X94256Y10712D01*
X89099Y13124D02*
X96517Y5706D01*
X93348Y7856D02*
X96517Y11025D01*
X92629Y7856D02*
X96517Y11744D01*
X90788Y14636D02*
X91845Y15692D01*
X91507Y14636D02*
X92204Y15333D01*
X89351Y14636D02*
X91744Y17029D01*
X90070Y14636D02*
X91744Y16310D01*
X91872Y14636D02*
X92372Y15136D01*
X93554D02*
X94256Y14434D01*
X90536Y13124D02*
X91744Y11916D01*
X89818Y13124D02*
X91744Y11198D01*
X88800Y14860D02*
X89025Y14636D01*
X89008D02*
X91872D01*
X88800D02*
X89008D01*
X88800D02*
X89008D01*
X88800Y12647D02*
X89277Y13124D01*
X89008D02*
X91872D01*
X88800Y12917D02*
X89008Y13124D01*
X92372Y12596D02*
X93628D01*
X94256Y11968D01*
X91872Y13124D02*
X92372Y12624D01*
X93628D01*
X91744Y11968D02*
X92372Y12596D01*
X91254Y13124D02*
X92078Y12301D01*
X88800Y12370D02*
Y12917D01*
Y12705D02*
X93650Y7856D01*
X91744Y10712D02*
X92372Y10084D01*
X91744Y10712D02*
Y11968D01*
X88800Y28510D02*
X95544Y21766D01*
X88800Y27792D02*
X95544Y21048D01*
X88800Y24861D02*
X92323Y28384D01*
X88800Y21987D02*
X92558Y25744D01*
X88800Y27074D02*
X95544Y20329D01*
X88800Y19832D02*
X95544Y26576D01*
X88800Y20550D02*
X95544Y27294D01*
X88800Y26355D02*
X95451Y19704D01*
X88800Y29171D02*
X95544Y35915D01*
X88800Y35695D02*
X95544Y28950D01*
X88800Y29889D02*
X95544Y36634D01*
X88800Y36413D02*
X95544Y29669D01*
X88800Y27734D02*
X95544Y34479D01*
X88800Y29229D02*
X95544Y22484D01*
X88800Y28453D02*
X95544Y35197D01*
X88800Y23481D02*
X94014Y18267D01*
X88800Y22763D02*
X93655Y17908D01*
X88800Y22045D02*
X93169Y17676D01*
X88800Y21326D02*
X92451Y17676D01*
X88800Y15521D02*
X95544Y22265D01*
X88800Y14803D02*
X95544Y21547D01*
X88800Y16239D02*
X95544Y22984D01*
X88800Y25637D02*
X95092Y19345D01*
X88800Y24918D02*
X94732Y18986D01*
X88800Y21268D02*
X93276Y25744D01*
X88800Y24200D02*
X94373Y18627D01*
X88800Y17676D02*
X95544Y24421D01*
X88800Y16958D02*
X95544Y23702D01*
X88800Y18395D02*
X95544Y25139D01*
X88800Y25579D02*
X91964Y28743D01*
X88800Y23424D02*
X91794Y26418D01*
X88800Y26297D02*
X91794Y29292D01*
X88800Y24142D02*
X91794Y27136D01*
X88800Y22705D02*
X92131Y26036D01*
X88800Y20608D02*
X92052Y17356D01*
X88800Y19889D02*
X91744Y16945D01*
X88800Y19171D02*
X91744Y16227D01*
X88800Y31384D02*
X92175Y28009D01*
X88800Y30666D02*
X91816Y27650D01*
X88800Y32821D02*
X91794Y29827D01*
X88800Y32103D02*
X91794Y29108D01*
X88800Y27016D02*
X91794Y30010D01*
X88800Y29947D02*
X91794Y26953D01*
X88800Y14636D02*
Y50750D01*
Y18453D02*
X92245Y15008D01*
X88800Y17734D02*
X91885Y14649D01*
X88800Y17016D02*
X91180Y14636D01*
X88800Y16297D02*
X90462Y14636D01*
X88800Y15579D02*
X89743Y14636D01*
X88253Y12370D02*
X88800D01*
X85543D02*
X85765Y12148D01*
X83304Y12180D02*
X83494Y12370D01*
X83113D02*
X85987D01*
X83113D02*
X83256Y12228D01*
X83113Y12370D02*
X83256Y12228D01*
X59243Y12044D02*
X60999D01*
X68189D01*
X59243D02*
X60999D01*
X85698Y8827D02*
X89995Y13124D01*
X86416Y8827D02*
X90714Y13124D01*
X85456Y9572D02*
X88253Y12370D01*
X85456Y9303D02*
X88523Y12370D01*
X86450Y6705D02*
X92371Y12626D01*
X88417Y12370D02*
X92931Y7856D01*
X86450Y8142D02*
X91432Y13124D01*
X86450Y7424D02*
X92011Y12985D01*
X84106Y12370D02*
X85046Y11430D01*
X84825Y12370D02*
X85406Y11789D01*
X83663Y11821D02*
X84212Y12370D01*
X84022Y11461D02*
X84931Y12370D01*
X84381Y11102D02*
X85649Y12370D01*
X84550Y10933D02*
X85987Y12370D01*
X83388D02*
X84687Y11071D01*
X87976Y12092D02*
X92213Y7856D01*
X87617Y11733D02*
X91494Y7856D01*
X87257Y11374D02*
X90799Y7832D01*
X86898Y11015D02*
X90440Y7473D01*
X86450Y5268D02*
X91819Y10637D01*
X86450Y4550D02*
X92178Y10278D01*
X86539Y10656D02*
X90081Y7114D01*
X83256Y12228D02*
X84550Y10933D01*
X69516Y10472D02*
X70394Y9594D01*
X68734Y9722D02*
X69500Y10488D01*
X69516Y10472D02*
X70394Y9594D01*
X86450Y5987D02*
X91744Y11281D01*
X86180Y10296D02*
X89721Y6755D01*
X69482Y10470D02*
X75950Y4003D01*
X62882Y11156D02*
X63771Y12044D01*
X63598D02*
X64486Y11156D01*
X62164D02*
X63052Y12044D01*
X62879D02*
X63768Y11156D01*
X64319D02*
X65208Y12044D01*
X65035D02*
X65923Y11156D01*
X63600D02*
X64489Y12044D01*
X64316D02*
X65205Y11156D01*
X60724Y12044D02*
X61613Y11156D01*
X60727D02*
X61615Y12044D01*
X60006D02*
X60894Y11156D01*
X60008D02*
X60897Y12044D01*
X61445Y11156D02*
X62334Y12044D01*
X62161D02*
X63050Y11156D01*
X61442Y12044D02*
X62331Y11156D01*
X67190Y12044D02*
X67690Y11545D01*
X67908Y12044D02*
X68049Y11904D01*
X65756Y11156D02*
X66644Y12044D01*
X66471D02*
X67330Y11185D01*
X67192Y11156D02*
X68081Y12044D01*
X67301Y11156D02*
X68189Y12044D01*
X66474Y11156D02*
X67363Y12044D01*
X60972Y11156D02*
X61928D01*
X60972D02*
X61928D01*
X43556D02*
X60972D01*
X61928D01*
X65753Y12044D02*
X66642Y11156D01*
X61928D02*
X67301D01*
X65037D02*
X65926Y12044D01*
X93576Y10084D02*
X96517Y7143D01*
X95200Y6834D02*
X96517Y8152D01*
X94481Y7552D02*
X96517Y9588D01*
X94840Y7193D02*
X96517Y8870D01*
X95559Y6475D02*
X96517Y7433D01*
X95856Y6053D02*
X96517Y6715D01*
X94178Y7856D02*
X95856Y6178D01*
Y2822D02*
Y6178D01*
X92858Y10084D02*
X96517Y6425D01*
X90822Y7856D02*
X94178D01*
X91192D02*
X93421Y10084D01*
X92372D02*
X93628D01*
X86450Y3832D02*
X92703Y10084D01*
X89144Y6178D02*
X90822Y7856D01*
X85821Y9937D02*
X89362Y6396D01*
X95856Y4931D02*
X96517Y4269D01*
X95856Y3898D02*
X96517Y4559D01*
X95856Y5650D02*
X96517Y4988D01*
X95856Y4616D02*
X96517Y5278D01*
X95856Y3179D02*
X96517Y3841D01*
X95856Y3494D02*
X96517Y2832D01*
X95856Y4213D02*
X96517Y3551D01*
X95856Y5335D02*
X96517Y5996D01*
X95832Y2799D02*
X96517Y2114D01*
X86450Y2395D02*
X89144Y5089D01*
X86450Y1676D02*
X89144Y4371D01*
X95473Y2440D02*
X96517Y1396D01*
X90822Y1144D02*
X94178D01*
X89144Y3021D02*
X91021Y1144D01*
X78979Y9594D02*
X79747Y8827D01*
X78978Y9594D02*
X80622D01*
X78261D02*
X79028Y8827D01*
X78514D02*
X79281Y9594D01*
X80416D02*
X81184Y8827D01*
X80622Y9594D02*
X81390Y8827D01*
X79232D02*
X80000Y9594D01*
X79698D02*
X80465Y8827D01*
X77222Y9594D02*
X78978D01*
X77222D02*
X78978D01*
X76359Y8827D02*
X77126Y9594D01*
X76824D02*
X77591Y8827D01*
X77542Y9594D02*
X78310Y8827D01*
X77795D02*
X78563Y9594D01*
X77077Y8827D02*
X77844Y9594D01*
X86450Y7153D02*
X89144Y4458D01*
X86450Y6434D02*
X89144Y3740D01*
X86450Y8589D02*
X89144Y5895D01*
X86450Y7871D02*
X89144Y5177D01*
Y2822D02*
Y6178D01*
X86450Y5716D02*
X89144Y3021D01*
X86450Y3113D02*
X89144Y5808D01*
X85456Y8827D02*
Y9572D01*
Y8827D02*
Y9572D01*
X79951Y8827D02*
X80670Y9546D01*
X80669Y8827D02*
X81029Y9187D01*
X85456Y8827D02*
X86450D01*
Y1227D02*
Y8827D01*
X85461Y9578D02*
X86212Y8827D01*
X94178Y1144D02*
X95856Y2822D01*
X95114Y2081D02*
X96517Y677D01*
X89144Y2822D02*
X90822Y1144D01*
X88130Y483D02*
X89807Y2160D01*
X93877Y483D02*
X96517Y3123D01*
X94596Y483D02*
X96517Y2404D01*
X88848Y483D02*
X90166Y1800D01*
X94755Y1721D02*
X95994Y483D01*
X86450Y4997D02*
X90965Y483D01*
X86450Y4279D02*
X90246Y483D01*
X85975D02*
X89144Y3652D01*
X86450Y3561D02*
X89528Y483D01*
X86693D02*
X89144Y2934D01*
X87412Y483D02*
X89448Y2519D01*
X86450Y2842D02*
X88809Y483D01*
X93177Y1144D02*
X93838Y483D01*
X93895Y1144D02*
X94557Y483D01*
X92458Y1144D02*
X93120Y483D01*
X93159D02*
X93821Y1144D01*
X95314Y483D02*
X96517Y1686D01*
X96033Y483D02*
X96517Y967D01*
X94396Y1362D02*
X95275Y483D01*
X91004D02*
X91665Y1144D01*
X91021D02*
X91683Y483D01*
X89567D02*
X90525Y1441D01*
X90285Y483D02*
X90947Y1144D01*
X91740D02*
X92402Y483D01*
X92441D02*
X93102Y1144D01*
X91722Y483D02*
X92384Y1144D01*
X79509Y483D02*
X80253Y1227D01*
X80162D02*
X80907Y483D01*
X78791D02*
X79535Y1227D01*
X79444D02*
X80188Y483D01*
X86450Y2124D02*
X88091Y483D01*
X86450Y1405D02*
X87373Y483D01*
X80227D02*
X80972Y1227D01*
X80881D02*
X81625Y483D01*
X77289Y1227D02*
X78033Y483D01*
X77354D02*
X78098Y1227D01*
X76570D02*
X77315Y483D01*
X76635D02*
X77380Y1227D01*
X78072Y483D02*
X78816Y1227D01*
X78726D02*
X79470Y483D01*
X78007Y1227D02*
X78752Y483D01*
X84473Y1227D02*
X85217Y483D01*
X84538D02*
X85282Y1227D01*
X83755D02*
X84499Y483D01*
X83819D02*
X84564Y1227D01*
X85256Y483D02*
X86001Y1227D01*
X85910D02*
X86654Y483D01*
X85191Y1227D02*
X85936Y483D01*
X81664D02*
X82409Y1227D01*
X82318D02*
X83062Y483D01*
X80946D02*
X81690Y1227D01*
X81599D02*
X82344Y483D01*
X83036Y1227D02*
X83781Y483D01*
X83101D02*
X83845Y1227D01*
X82383Y483D02*
X83127Y1227D01*
X74669Y9594D02*
X75950Y8313D01*
X73950Y9594D02*
X75950Y7595D01*
X70394Y9594D02*
X72149D01*
X70394D02*
X72149D01*
X71795D02*
X75950Y5439D01*
X71077Y9594D02*
X75950Y4721D01*
X73232Y9594D02*
X75950Y6876D01*
X72513Y9594D02*
X75950Y6158D01*
X65056Y5427D02*
X69809Y10180D01*
X65129Y4782D02*
X70168Y9820D01*
X68256Y9244D02*
X68734Y9722D01*
X68256Y9244D02*
X68734Y9722D01*
X69123Y10111D02*
X75950Y3284D01*
X68764Y9752D02*
X75950Y2566D01*
X64529Y3463D02*
X70660Y9594D01*
X75387D02*
X76155Y8827D01*
X72149Y9594D02*
X77222D01*
X67301Y9244D02*
X68256D01*
X67301D02*
X68256D01*
X76106Y9594D02*
X76873Y8827D01*
X75950D02*
X81390D01*
X65129Y4099D02*
Y5355D01*
X62289Y9244D02*
X67301D01*
X64175Y5983D02*
X67437Y9244D01*
X62289Y6252D02*
X65281Y9244D01*
X63456Y5983D02*
X66718Y9244D01*
X62350Y5594D02*
X66000Y9244D01*
X64697Y5787D02*
X68155Y9244D01*
X64529Y3499D02*
X65129Y4099D01*
X62289Y6887D02*
X63220Y5957D01*
X63246Y5983D02*
X64501D01*
X62289Y6169D02*
X62860Y5597D01*
X62289Y5655D02*
X62589Y5355D01*
X62618D02*
X63246Y5983D01*
X64501D02*
X65129Y5355D01*
X62589Y4099D02*
Y5355D01*
X62618Y4099D02*
Y5355D01*
X62289Y7689D02*
X63844Y9244D01*
X62289Y6971D02*
X64563Y9244D01*
X62289Y9126D02*
X62408Y9244D01*
X62289Y8408D02*
X63126Y9244D01*
X62289Y7606D02*
X63912Y5983D01*
X61961Y3471D02*
X62589Y4099D01*
X62289Y5655D02*
Y9244D01*
X64529Y3499D02*
Y3601D01*
Y2946D02*
Y3499D01*
X62618Y4099D02*
X63167Y3550D01*
X64529Y3499D02*
Y3601D01*
X64201Y2618D02*
X64529Y2946D01*
X64201Y2618D02*
X64529Y2946D01*
Y3499D01*
X62396Y3906D02*
X62960Y3343D01*
X62037Y3547D02*
X62600Y2984D01*
X60706Y3471D02*
X61961D01*
X61394D02*
X62241Y2625D01*
X60049Y4099D02*
X61882Y2265D01*
X59689Y3740D02*
X61523Y1906D01*
X42368Y1906D02*
X61522D01*
X68405Y9393D02*
X75950Y1847D01*
X66398Y9244D02*
X75159Y483D01*
X65859D02*
X74971Y9594D01*
X65679Y9244D02*
X74441Y483D01*
X67296D02*
X76408Y9594D01*
X67835Y9244D02*
X76596Y483D01*
X66577D02*
X75689Y9594D01*
X67116Y9244D02*
X75878Y483D01*
X63704D02*
X72815Y9594D01*
X64242Y9244D02*
X73004Y483D01*
X62985D02*
X72097Y9594D01*
X63524Y9244D02*
X72286Y483D01*
X65141D02*
X74252Y9594D01*
X64961Y9244D02*
X73723Y483D01*
X64422D02*
X73534Y9594D01*
X73762Y483D02*
X75950Y2671D01*
Y1227D02*
X86450D01*
X75950D02*
Y8827D01*
X73043Y483D02*
X75950Y3389D01*
X75198Y483D02*
X75950Y1234D01*
X75917Y483D02*
X76661Y1227D01*
X74480Y483D02*
X75950Y1953D01*
X69451Y483D02*
X75950Y6982D01*
X70169Y483D02*
X75950Y6263D01*
X68014Y483D02*
X75950Y8418D01*
X68733Y483D02*
X75950Y7700D01*
X71606Y483D02*
X75950Y4826D01*
X72325Y483D02*
X75950Y4108D01*
X70888Y483D02*
X75950Y5545D01*
X62806Y9244D02*
X71567Y483D01*
X62289Y8324D02*
X70131Y483D01*
X64529Y3210D02*
X67257Y483D01*
X64302Y2719D02*
X66538Y483D01*
X65129Y4766D02*
X69412Y483D01*
X65103Y4073D02*
X68694Y483D01*
X64744Y3714D02*
X67975Y483D01*
X60816Y1906D02*
X62814Y3903D01*
X60098Y1906D02*
X61664Y3471D01*
X59239D02*
X60805Y1906D01*
X59379D02*
X60945Y3471D01*
X62267Y483D02*
X71379Y9594D01*
X62289Y9042D02*
X70849Y483D01*
X61522Y1906D02*
X63167Y3550D01*
X62506Y922D02*
X64201Y2618D01*
X62865Y1282D02*
X63665Y483D01*
X62506Y923D02*
X62946Y483D01*
X62178Y594D02*
X62506Y922D01*
X63943Y2360D02*
X65820Y483D01*
X63584Y2000D02*
X65102Y483D01*
X63225Y1641D02*
X64383Y483D01*
X62178Y594D02*
X62506Y922D01*
X61522Y594D02*
X62178D01*
X60830Y483D02*
X60942Y594D01*
X61522D02*
X62178D01*
X61548Y483D02*
X61660Y594D01*
X62116D02*
X62228Y483D01*
X61398Y594D02*
X61509Y483D01*
X50856Y28585D02*
X51760Y29489D01*
X50856Y29097D02*
X51760Y28193D01*
X50856Y29303D02*
X51760Y30207D01*
X50856Y29815D02*
X51760Y28911D01*
X50856Y27148D02*
X51760Y28052D01*
X50856Y27660D02*
X51760Y26756D01*
X50856Y27866D02*
X51760Y28771D01*
X50856Y28379D02*
X51760Y27474D01*
X50856Y30021D02*
X51760Y30926D01*
X50856Y30534D02*
X51760Y29629D01*
X47987Y30026D02*
X49544Y31584D01*
X50856Y31252D02*
X51760Y30348D01*
X48186Y29612D02*
X49544Y28253D01*
X47471Y27356D02*
X49544Y29429D01*
X48186Y29507D02*
X49544Y30865D01*
X50856Y25505D02*
X51760Y24601D01*
X50856Y24274D02*
X51760Y25178D01*
X50856Y26223D02*
X51760Y25319D01*
X50856Y24992D02*
X51760Y25897D01*
X50856Y23556D02*
X51760Y24460D01*
X50856Y24068D02*
X51760Y23164D01*
X50856Y24786D02*
X51760Y23882D01*
X50856Y26942D02*
X51760Y26037D01*
X50856Y25711D02*
X51760Y26615D01*
X50856Y26429D02*
X51760Y27334D01*
X48186Y26738D02*
X49544Y25379D01*
X47950Y25537D02*
X49544Y23942D01*
X47524Y25244D02*
X49544Y23224D01*
X48186Y26020D02*
X49544Y24661D01*
X47824Y31410D02*
X49544Y29690D01*
X48186Y28788D02*
X49544Y30147D01*
X47658Y30356D02*
X48186Y29828D01*
Y28772D02*
Y29828D01*
X47924Y27090D02*
X49544Y28710D01*
X47887Y28474D02*
X49544Y26816D01*
X48186Y28893D02*
X49544Y27535D01*
X47658Y28244D02*
X48186Y28772D01*
X47271Y31244D02*
X49544Y28971D01*
X46074Y28849D02*
X46679Y28244D01*
X46074Y29828D02*
X46602Y30356D01*
X46074Y28772D02*
Y29828D01*
X47642Y28244D02*
X48186Y28788D01*
X46679Y28244D02*
X47568Y27356D01*
X46074Y28772D02*
X46602Y28244D01*
X47398D02*
X49544Y26098D01*
X48186Y26633D02*
X49544Y27992D01*
X47658Y27356D02*
X48186Y26828D01*
X47568Y27356D02*
X48186Y26738D01*
Y25915D02*
X49544Y27273D01*
X47658Y25244D02*
X48186Y25772D01*
Y26828D01*
X46602Y28244D02*
X47658D01*
X46602Y27356D02*
X47658D01*
X46753D02*
X47642Y28244D01*
X46074Y26828D02*
X46602Y27356D01*
X46074Y25772D02*
X46602Y25244D01*
X47658D01*
X46074Y25772D02*
Y26828D01*
X50856Y21913D02*
X51760Y21008D01*
X50856Y20682D02*
X51760Y21586D01*
X50856Y22631D02*
X51760Y21727D01*
X50856Y21400D02*
X51760Y22305D01*
Y12370D02*
Y49544D01*
X50856Y20476D02*
X51760Y19572D01*
X50856Y21194D02*
X51760Y20290D01*
X50856Y19963D02*
X51760Y20868D01*
X50856Y22119D02*
X51760Y23023D01*
X50798Y19815D02*
X51760Y18853D01*
X50856Y22837D02*
X51760Y23742D01*
X50856Y23350D02*
X51760Y22445D01*
X50080Y19096D02*
X51760Y17416D01*
X49721Y18737D02*
X51760Y16698D01*
X50439Y19456D02*
X51760Y18135D01*
X48643Y17660D02*
X51760Y14543D01*
X48284Y17300D02*
X51760Y13824D01*
X49361Y18378D02*
X51760Y15979D01*
X49002Y18019D02*
X51760Y15261D01*
X47795Y11156D02*
X51760Y15121D01*
X48514Y11156D02*
X51760Y14402D01*
X47925Y16941D02*
X51760Y13106D01*
X44921Y11156D02*
X51760Y17994D01*
X45640Y11156D02*
X51760Y17276D01*
X44203Y11156D02*
X51760Y18713D01*
X47453Y16694D02*
X51760Y12387D01*
X46735Y16694D02*
X52273Y11156D01*
X47077D02*
X51760Y15839D01*
X46358Y11156D02*
X51760Y16557D01*
X50856Y19872D02*
Y20528D01*
Y19872D02*
Y20528D01*
X49544D02*
Y44322D01*
X50856Y20528D02*
Y44322D01*
X50528Y19544D02*
X50856Y19872D01*
X50528Y19544D02*
X50856Y19872D01*
X47022Y18006D02*
X49544Y20528D01*
X48006Y17022D02*
X50528Y19544D01*
X45057Y18476D02*
X49544Y22963D01*
X45769Y18469D02*
X49544Y22244D01*
X46806Y25244D02*
X49544Y22506D01*
X44657Y18476D02*
X45763D01*
X46128Y18110D02*
X49544Y21526D01*
X46742Y18006D02*
X49544Y20808D01*
X44104Y17923D02*
X44657Y18476D01*
X47022Y16694D02*
X47678D01*
X47022D02*
X47678D01*
X46233Y18006D02*
X47022D01*
X46193Y16694D02*
X47022D01*
X47678D02*
X48006Y17022D01*
X46104Y16606D02*
X51555Y11156D01*
X47678Y16694D02*
X48006Y17022D01*
X45763Y18476D02*
X46233Y18006D01*
X44657Y16264D02*
X45763D01*
X44104Y16817D02*
Y17923D01*
Y16817D02*
X44657Y16264D01*
X45009D02*
X50118Y11156D01*
X45728Y16264D02*
X50836Y11156D01*
X45763Y16264D02*
X46193Y16694D01*
X40566Y35795D02*
X46304Y30057D01*
X40566Y29071D02*
X46171Y34676D01*
X40566Y29789D02*
X46074Y35298D01*
X40566Y35076D02*
X46074Y29568D01*
X40566Y26197D02*
X46108Y31739D01*
X40422Y31628D02*
X46074Y25976D01*
X40522Y26872D02*
X46074Y32424D01*
X40566Y32203D02*
X46074Y26694D01*
X40226Y30168D02*
X47302Y37244D01*
X39961Y34244D02*
X46850Y27356D01*
X40359Y34565D02*
X46074Y28849D01*
X39569Y27356D02*
X46530Y34317D01*
X40162Y27231D02*
X47176Y34244D01*
X40062Y31269D02*
X49544Y21787D01*
X39242Y34244D02*
X46367Y27120D01*
X40566Y29329D02*
X49456Y20439D01*
X40038Y25244D02*
X40566Y25772D01*
Y28772D02*
Y29828D01*
Y25772D02*
Y26828D01*
X40485Y28691D02*
X49096Y20080D01*
X40126Y28332D02*
X48737Y19721D01*
X40566Y26455D02*
X48019Y19002D01*
X40038Y28244D02*
X40566Y28772D01*
X40038Y27356D02*
X40566Y26828D01*
X40038Y30356D02*
X40566Y29828D01*
X38982Y27356D02*
X40038D01*
X39369Y31244D02*
X49544Y21069D01*
X39495Y28244D02*
X48378Y19361D01*
X38982Y25244D02*
X40038D01*
X37432Y31744D02*
X38901Y30275D01*
X37773Y29870D02*
X39147Y31244D01*
X37414Y30230D02*
X38705Y31521D01*
X37788Y29856D02*
X38482D01*
X38477D02*
X39865Y31244D01*
X38482Y29856D02*
X38982Y30356D01*
X37232Y28744D02*
X37788D01*
X37536Y28197D02*
X38084Y28744D01*
X36713Y31744D02*
X38542Y29916D01*
X36954Y29022D02*
X37232Y28744D01*
X36459Y29275D02*
X36580Y29396D01*
X36818Y28915D02*
X36940Y29037D01*
X37177Y28556D02*
X37365Y28744D01*
X37232D02*
X37788D01*
X36954Y29022D02*
X37232Y28744D01*
X38614Y27119D02*
X39739Y28244D01*
X38982D02*
X40038D01*
X38482Y28744D02*
X38982Y28244D01*
X38680Y27053D02*
X38982Y27356D01*
X38322Y25744D02*
X38482D01*
X38982Y25244D01*
X38322Y25744D02*
X38482D01*
X38277Y28744D02*
X39665Y27356D01*
X38255Y27479D02*
X39021Y28244D01*
X37788Y28744D02*
X38482D01*
X37896Y27838D02*
X38642Y28584D01*
X37558Y28744D02*
X38965Y27338D01*
X38044Y26022D02*
X38322Y25744D01*
X38044Y26022D02*
X38322Y25744D01*
X42902Y18476D02*
X49544Y25118D01*
X43620Y18476D02*
X49544Y24400D01*
X42183Y18476D02*
X49544Y25837D01*
X41564Y18476D02*
X43776D01*
X43556Y11945D02*
X51760Y20149D01*
X43556Y11227D02*
X51760Y19431D01*
X43776Y17912D02*
X49544Y23681D01*
X43776Y16264D02*
Y18476D01*
X40548Y25755D02*
X47660Y18643D01*
X40715Y18444D02*
X47515Y25244D01*
X38403Y25744D02*
X45672Y18476D01*
X40028D02*
X46797Y25244D01*
X41074Y18084D02*
X49544Y26555D01*
X40189Y25395D02*
X47300Y18284D01*
X39621Y25244D02*
X46860Y18006D01*
X43776Y17498D02*
X44104Y17169D01*
X43776Y16476D02*
X44111Y16811D01*
X43776Y18216D02*
X44104Y17888D01*
X43776Y17194D02*
X44104Y17523D01*
X43776Y16780D02*
X49400Y11156D01*
X43572Y16264D02*
X48681Y11156D01*
X43556Y14844D02*
X47244Y11156D01*
X43556Y14819D02*
X45001Y16264D01*
X43556Y14100D02*
X45720Y16264D01*
X43556Y15537D02*
X44470Y16452D01*
X43556Y16264D02*
X43776D01*
X43556Y12663D02*
X47587Y16694D01*
X43556Y15563D02*
X47963Y11156D01*
X43556Y13382D02*
X46868Y16694D01*
X41236Y17528D02*
X41564Y17857D01*
X41236Y17164D02*
X41564Y16836D01*
X40683Y18476D02*
X41236Y17923D01*
Y17883D02*
X41564Y17554D01*
Y16264D02*
Y18476D01*
X40683Y16264D02*
X41236Y16817D01*
Y17923D01*
X39577Y18476D02*
X40683D01*
X40643D02*
X41236Y17883D01*
X39024Y17923D02*
X39577Y18476D01*
X39024Y16817D02*
Y17923D01*
X36556Y12129D02*
X41564Y17138D01*
X39024Y16817D02*
X39577Y16264D01*
X36502Y14231D02*
X39056Y16785D01*
X41050Y16632D02*
X41644Y16037D01*
X40691Y16272D02*
X41644Y15319D01*
X39577Y16264D02*
X40683D01*
X41564D02*
X41644D01*
Y11156D02*
Y16264D01*
X43556Y11156D02*
Y16264D01*
X39980D02*
X41644Y14600D01*
X36556Y11411D02*
X41564Y16420D01*
X36556Y12848D02*
X39972Y16264D01*
X36556Y13566D02*
X39416Y16426D01*
X36556Y13222D02*
Y14178D01*
X37737Y11156D02*
X41644Y15063D01*
X38456Y11156D02*
X41644Y14344D01*
X37019Y11156D02*
X41644Y15781D01*
X58571Y11156D02*
X59460Y12044D01*
X59287D02*
X60176Y11156D01*
X58918Y12370D02*
X59243Y12044D01*
X58918Y12370D02*
X59243Y12044D01*
X58495Y9244D02*
X60378Y7362D01*
Y5655D02*
Y9244D01*
X59290Y11156D02*
X60179Y12044D01*
X59213Y9244D02*
X60378Y8080D01*
X58243Y12370D02*
X59458Y11156D01*
X57777Y9244D02*
X60378Y6643D01*
X51760Y12370D02*
X58918D01*
X57853Y11156D02*
X58993Y12295D01*
X56340Y9244D02*
X60154Y5431D01*
X57058Y9244D02*
X60378Y5925D01*
X55621Y9244D02*
X58883Y5983D01*
X59643Y5761D02*
X60378Y6496D01*
X60002Y5402D02*
X60378Y5778D01*
X59932Y9244D02*
X60378Y8798D01*
X59421Y5983D02*
X60049Y5355D01*
X60078D02*
X60378Y5655D01*
X60078Y4099D02*
Y5355D01*
X60049Y4099D02*
Y5355D01*
X58427Y5983D02*
X60378Y7933D01*
X59146Y5983D02*
X60378Y7215D01*
X58166Y5983D02*
X59421D01*
X58166Y3471D02*
X59421D01*
X53542Y11156D02*
X54757Y12370D01*
X53933D02*
X55147Y11156D01*
X52824D02*
X54038Y12370D01*
X53214D02*
X54429Y11156D01*
X54979D02*
X56194Y12370D01*
X55369D02*
X56584Y11156D01*
X54261D02*
X55475Y12370D01*
X54651D02*
X55865Y11156D01*
X50669D02*
X51883Y12370D01*
X51387Y11156D02*
X52602Y12370D01*
X49232Y11156D02*
X51760Y13684D01*
X49950Y11156D02*
X51760Y12965D01*
X52106Y11156D02*
X53320Y12370D01*
X52496D02*
X53710Y11156D01*
X51777Y12370D02*
X52992Y11156D01*
X57135D02*
X58349Y12370D01*
X57525D02*
X58739Y11156D01*
X56806Y12370D02*
X58021Y11156D01*
X57538Y5355D02*
X58166Y5983D01*
X57538Y4099D02*
X58166Y3471D01*
X57538Y4099D02*
Y5355D01*
X56416Y11156D02*
X57631Y12370D01*
X54903Y9244D02*
X58165Y5982D01*
X55698Y11156D02*
X56912Y12370D01*
X56088D02*
X57302Y11156D01*
X52748Y9244D02*
X57538Y4454D01*
X54185Y9244D02*
X57806Y5623D01*
X53466Y9244D02*
X57538Y5173D01*
X53632Y1906D02*
X60378Y8652D01*
X60078Y4099D02*
X60706Y3471D01*
X52914Y1906D02*
X60252Y9244D01*
X59421Y3471D02*
X60049Y4099D01*
X57942Y1906D02*
X60107Y4070D01*
X55787Y1906D02*
X57759Y3878D01*
X54350Y1906D02*
X57538Y5093D01*
X55069Y1906D02*
X57538Y4375D01*
X50758Y1906D02*
X58097Y9244D01*
X51311D02*
X58650Y1906D01*
X50040D02*
X57379Y9244D01*
X50592D02*
X57931Y1906D01*
X52029Y9244D02*
X59368Y1906D01*
X52195D02*
X59534Y9244D01*
X51477Y1906D02*
X58815Y9244D01*
X58661Y1906D02*
X60466Y3711D01*
X59393Y483D02*
X59505Y594D01*
X58675Y483D02*
X58787Y594D01*
X59242D02*
X59354Y483D01*
X60112D02*
X60223Y594D01*
X60679D02*
X60791Y483D01*
X59961Y594D02*
X60073Y483D01*
X57224Y1906D02*
X58790Y3471D01*
X58521D02*
X60086Y1906D01*
X56506D02*
X58119Y3519D01*
X57238Y483D02*
X57350Y594D01*
X57956Y483D02*
X58068Y594D01*
X58524D02*
X58636Y483D01*
X57806Y594D02*
X57917Y483D01*
X49874Y9244D02*
X57213Y1906D01*
X50621Y594D02*
X50733Y483D01*
X49903Y594D02*
X50015Y483D01*
X50054D02*
X50165Y594D01*
X51491Y483D02*
X51602Y594D01*
X52058D02*
X52170Y483D01*
X50772D02*
X50884Y594D01*
X51340D02*
X51452Y483D01*
X49156Y9244D02*
X56494Y1906D01*
X49321D02*
X56660Y9244D01*
X48603Y1906D02*
X55942Y9244D01*
X48466Y594D02*
X48578Y483D01*
X49185Y594D02*
X49296Y483D01*
X49335D02*
X49447Y594D01*
X48617Y483D02*
X48729Y594D01*
X55650D02*
X55762Y483D01*
X55801D02*
X55913Y594D01*
X54932D02*
X55044Y483D01*
X55083D02*
X55194Y594D01*
X56519Y483D02*
X56631Y594D01*
X57087D02*
X57199Y483D01*
X56369Y594D02*
X56481Y483D01*
X52927D02*
X53039Y594D01*
X53495D02*
X53607Y483D01*
X52209D02*
X52321Y594D01*
X52777D02*
X52888Y483D01*
X54213Y594D02*
X54325Y483D01*
X54364D02*
X54476Y594D01*
X53646Y483D02*
X53758Y594D01*
X43556Y14126D02*
X46526Y11156D01*
X43556Y13408D02*
X45808Y11156D01*
X43556Y12689D02*
X45089Y11156D01*
X43556Y11971D02*
X44371Y11156D01*
X42660Y7457D02*
X44447Y9244D01*
X42660Y6739D02*
X45165Y9244D01*
X43556Y11252D02*
X43652Y11156D01*
X42473Y7989D02*
X43729Y9244D01*
X42122D02*
X43078D01*
X42122D02*
X43078D01*
X42114Y8348D02*
X43010Y9244D01*
X42122D02*
X43078D01*
X37661D02*
X45000Y1906D01*
X38545D02*
X45884Y9244D01*
X36942D02*
X44281Y1906D01*
X42379Y3584D02*
X48039Y9244D01*
X43078D02*
X60378D01*
X42107Y6144D02*
X42660Y6697D01*
X42107Y3856D02*
X42660Y3303D01*
Y3146D02*
X48758Y9244D01*
X42660Y2428D02*
X49476Y9244D01*
X42660Y2197D02*
Y3303D01*
X41214Y3856D02*
X46602Y9244D01*
X41932Y3856D02*
X47321Y9244D01*
X42107Y8356D02*
X42660Y7803D01*
X42065Y6144D02*
X42660Y6739D01*
X41253Y9244D02*
X48592Y1906D01*
X41971Y9244D02*
X49310Y1906D01*
X41479Y6144D02*
X45718Y1906D01*
X40611Y11156D02*
X41644Y12189D01*
X41329Y11156D02*
X41644Y11471D01*
X39174Y11156D02*
X41644Y13626D01*
X39892Y11156D02*
X41644Y12908D01*
X39816Y9244D02*
X40853Y8207D01*
X40535Y9244D02*
X41423Y8356D01*
X38379Y9244D02*
X40448Y7175D01*
X39098Y9244D02*
X40494Y7848D01*
X36556Y13942D02*
X39342Y11156D01*
X36556Y13223D02*
X38623Y11156D01*
X36556Y13222D02*
Y14178D01*
Y11156D02*
Y13222D01*
Y12505D02*
X37905Y11156D01*
X36556D02*
X41644D01*
X36556Y11786D02*
X37186Y11156D01*
X41403Y8356D02*
X42292Y9244D01*
X42660Y6697D02*
Y7803D01*
X41001Y8356D02*
X42107D01*
X41001Y6144D02*
X42107D01*
X41001Y3856D02*
X42107D01*
X40448Y2197D02*
X40740Y1906D01*
X40448Y2197D02*
Y3303D01*
Y6697D02*
X41001Y6144D01*
X40448Y3303D02*
X41001Y3856D01*
X40448Y7803D02*
X41001Y8356D01*
X40448Y6697D02*
Y7803D01*
X37108Y1906D02*
X41347Y6144D01*
X39982Y1906D02*
X40448Y2372D01*
X39264Y1906D02*
X40448Y3091D01*
X45729Y1906D02*
X53068Y9244D01*
X46282D02*
X53621Y1906D01*
X45011D02*
X52350Y9244D01*
X45563D02*
X52902Y1906D01*
X47166D02*
X54505Y9244D01*
X47719D02*
X55058Y1906D01*
X46448D02*
X53787Y9244D01*
X47000D02*
X54339Y1906D01*
X43408Y9244D02*
X50747Y1906D01*
X43574D02*
X50913Y9244D01*
X42690D02*
X50029Y1906D01*
X42856D02*
X50194Y9244D01*
X44292Y1906D02*
X51631Y9244D01*
X44845D02*
X52184Y1906D01*
X44127Y9244D02*
X51465Y1906D01*
X47885D02*
X55223Y9244D01*
X48437D02*
X55776Y1906D01*
X46462Y483D02*
X46573Y594D01*
X47029D02*
X47141Y483D01*
X47748Y594D02*
X47859Y483D01*
X47898D02*
X48010Y594D01*
X47180Y483D02*
X47292Y594D01*
X42660Y7119D02*
X47873Y1906D01*
X42511Y6549D02*
X47155Y1906D01*
X42152Y6190D02*
X46436Y1906D01*
X45025Y483D02*
X45137Y594D01*
X45743Y483D02*
X45855Y594D01*
X46311D02*
X46423Y483D01*
X45592Y594D02*
X45704Y483D01*
X42660Y2809D02*
X43563Y1906D01*
X42606Y2144D02*
X42844Y1906D01*
X42368D02*
X42660Y2197D01*
X38559Y483D02*
X38671Y594D01*
X39277Y483D02*
X39389Y594D01*
X39845D02*
X39957Y483D01*
X39127Y594D02*
X39238Y483D01*
X37827Y1906D02*
X42065Y6144D01*
X37122Y483D02*
X37234Y594D01*
X36404Y483D02*
X36515Y594D01*
X36971D02*
X37083Y483D01*
X37840D02*
X37952Y594D01*
X38408D02*
X38520Y483D01*
X37690Y594D02*
X37802Y483D01*
X43437Y594D02*
X43549Y483D01*
X43588D02*
X43700Y594D01*
X42719D02*
X42831Y483D01*
X42869D02*
X42981Y594D01*
X44306Y483D02*
X44418Y594D01*
X44874D02*
X44986Y483D01*
X44156Y594D02*
X44267Y483D01*
X40714D02*
X40826Y594D01*
X41282D02*
X41394Y483D01*
X39996D02*
X40108Y594D01*
X40563D02*
X40675Y483D01*
X42000Y594D02*
X42112Y483D01*
X42151D02*
X42263Y594D01*
X41433Y483D02*
X41544Y594D01*
X35316Y70500D02*
X35541Y70275D01*
X34663Y70500D02*
X35767D01*
X34663Y70259D02*
Y70500D01*
Y70259D02*
Y70500D01*
X34172Y66556D02*
X38094Y70478D01*
X34663Y70435D02*
X35182Y69915D01*
X34421Y70017D02*
X34663Y70259D01*
X34421Y70017D02*
X34663Y70259D01*
X32703Y67906D02*
X35297Y70500D01*
X32925Y70017D02*
X34104Y68838D01*
X32206Y70017D02*
X33745Y68478D01*
X31985Y67906D02*
X34096Y70017D01*
X33508Y66556D02*
X37453Y70500D01*
X34006Y67072D02*
X36978Y70044D01*
X33172Y67906D02*
X35767Y70500D01*
X36375Y69441D02*
X36716Y69100D01*
X36015Y69082D02*
X36357Y68740D01*
X34361Y70017D02*
X34823Y69556D01*
X35656Y68723D02*
X35998Y68381D01*
X35297Y68364D02*
X35639Y68022D01*
X34938Y68004D02*
X35279Y67663D01*
X34578Y67645D02*
X34920Y67303D01*
X33643Y70017D02*
X34464Y69197D01*
X34219Y67286D02*
X34561Y66944D01*
X33939Y70017D02*
X34421D01*
X33939D02*
X34421D01*
X33728Y66794D02*
X34006Y67072D01*
X33860Y66927D02*
X34202Y66585D01*
X33728Y66794D02*
X34006Y67072D01*
X29829Y67906D02*
X31941Y70017D01*
X31488D02*
X33386Y68119D01*
X29111Y67906D02*
X31223Y70017D01*
X29332D02*
X31444Y67906D01*
X30769Y70017D02*
X32881Y67906D01*
X31266D02*
X33378Y70017D01*
X30051D02*
X32163Y67906D01*
X30548D02*
X32660Y70017D01*
X28392Y67906D02*
X30504Y70017D01*
X28614D02*
X30726Y67906D01*
X27674D02*
X29786Y70017D01*
X27896D02*
X30007Y67906D01*
X27761Y66556D02*
X28000Y66794D01*
X28245D02*
X28484Y66556D01*
X27527Y66794D02*
X27765Y66556D01*
X33172Y66794D02*
X33728D01*
X33172D02*
X33728D01*
X31837D02*
X32076Y66556D01*
X32071D02*
X32310Y66794D01*
X32790Y66556D02*
X33029Y66794D01*
X33274D02*
X33513Y66556D01*
X32555Y66794D02*
X32794Y66556D01*
X29916D02*
X30155Y66794D01*
X30400D02*
X30639Y66556D01*
X28963Y66794D02*
X29202Y66556D01*
X29682Y66794D02*
X29921Y66556D01*
X31119Y66794D02*
X31357Y66556D01*
X31353D02*
X31592Y66794D01*
X30635Y66556D02*
X30873Y66794D01*
X35006Y65722D02*
X38928Y69644D01*
X36113Y66829D02*
X36404Y66538D01*
X35753Y66470D02*
X36045Y66178D01*
X35394Y66111D02*
X35686Y65819D01*
X35322Y65456D02*
X37160Y67293D01*
X35035Y65752D02*
X35327Y65460D01*
X34894Y65028D02*
X35322Y65456D01*
X34894Y65028D02*
X35322Y65456D01*
X34728Y65444D02*
X35006Y65722D01*
X34728Y65444D02*
X35006Y65722D01*
X33905Y65444D02*
X34894Y64455D01*
X33187Y65444D02*
X34894Y63737D01*
X29280Y59454D02*
X37160Y67334D01*
X31750Y65444D02*
X34894Y62300D01*
X32469Y65444D02*
X34894Y63019D01*
X34624Y65444D02*
X34967Y65101D01*
X34894Y64172D02*
Y65028D01*
X31032Y65444D02*
X34894Y61582D01*
X30313Y65444D02*
X34894Y60863D01*
Y56206D02*
Y65028D01*
X30357Y58376D02*
X34894Y62913D01*
X29998Y58735D02*
X34894Y63631D01*
X29639Y59094D02*
X34894Y64350D01*
X29806Y63797D02*
X34894Y58708D01*
X29595Y65444D02*
X34894Y60145D01*
X29806Y64515D02*
X34894Y59427D01*
X29271Y62894D02*
X34894Y57271D01*
X28553Y62894D02*
X34894Y56553D01*
X29806Y63079D02*
X34894Y57990D01*
X29185Y65106D02*
X29523Y65444D01*
X29806Y65008D02*
X30242Y65444D01*
X29198Y66556D02*
X29437Y66794D01*
X28877Y65444D02*
X29215Y65106D01*
X28561Y60172D02*
X33834Y65444D01*
X28921Y59813D02*
X34552Y65444D01*
X29806Y64290D02*
X30960Y65444D01*
X29806Y63571D02*
X31679Y65444D01*
X28479Y66556D02*
X28718Y66794D01*
X28158Y65444D02*
X28497Y65106D01*
X27440Y65444D02*
X27779Y65106D01*
X27748D02*
X28087Y65444D01*
X27843Y60890D02*
X32397Y65444D01*
X28202Y60531D02*
X33115Y65444D01*
X28466Y65106D02*
X28805Y65444D01*
X34172D02*
X34728D01*
X34172D02*
X34728D01*
X29806Y62894D02*
Y65106D01*
X27835Y62894D02*
X34523Y56206D01*
X27594Y65106D02*
X29806D01*
X27594Y64952D02*
X27748Y65106D01*
X27266Y63905D02*
X27594Y64234D01*
X27484Y61250D02*
X29129Y62894D01*
X27594D02*
X29806D01*
X27594D02*
Y65106D01*
X25519Y67906D02*
X27631Y70017D01*
X25740D02*
X27852Y67906D01*
X24800D02*
X26912Y70017D01*
X25022D02*
X27134Y67906D01*
X26956D02*
X29067Y70017D01*
X27177D02*
X29289Y67906D01*
X26237D02*
X28349Y70017D01*
X26459D02*
X28571Y67906D01*
X23363D02*
X25475Y70017D01*
X483D02*
X33939D01*
X22645Y67906D02*
X24757Y70017D01*
X22867D02*
X24979Y67906D01*
X24082D02*
X26194Y70017D01*
X24304D02*
X26415Y67906D01*
X23585Y70017D02*
X25697Y67906D01*
X26324Y66556D02*
X26563Y66794D01*
X26808D02*
X27047Y66556D01*
X25606D02*
X25844Y66794D01*
X26090D02*
X26329Y66556D01*
X27042D02*
X27281Y66794D01*
X25607Y65106D02*
X26713D01*
X26003Y65444D02*
X26342Y65106D01*
X14278Y66794D02*
X33172D01*
X14728Y66556D02*
X34172D01*
X14278Y67906D02*
X33172D01*
X24653Y66794D02*
X24892Y66556D01*
X25371Y66794D02*
X25610Y66556D01*
X14728Y65444D02*
X34172D01*
X24887Y66556D02*
X25126Y66794D01*
X21208Y67906D02*
X23320Y70017D01*
X21430D02*
X23542Y67906D01*
X20490D02*
X22602Y70017D01*
X20712D02*
X22823Y67906D01*
X21927D02*
X24038Y70017D01*
X22148D02*
X24260Y67906D01*
X20577Y66556D02*
X20815Y66794D01*
X21061D02*
X21300Y66556D01*
X19053Y67906D02*
X21165Y70017D01*
X19275D02*
X21386Y67906D01*
X18335D02*
X20446Y70017D01*
X18556D02*
X20668Y67906D01*
X19771D02*
X21883Y70017D01*
X19993D02*
X22105Y67906D01*
X20342Y66794D02*
X20581Y66556D01*
X23935Y66794D02*
X24173Y66556D01*
X24169D02*
X24408Y66794D01*
X23216D02*
X23455Y66556D01*
X23450D02*
X23689Y66794D01*
X23437Y65106D02*
X23776Y65444D01*
X23067Y65106D02*
X24173D01*
X23129Y65444D02*
X23468Y65106D01*
X22013Y66556D02*
X22252Y66794D01*
X22498D02*
X22736Y66556D01*
X21295D02*
X21534Y66794D01*
X21779D02*
X22018Y66556D01*
X22732D02*
X22971Y66794D01*
X20527Y65106D02*
X21633D01*
X20256Y65444D02*
X20594Y65106D01*
X26871Y64947D02*
X27368Y65444D01*
X27230Y64588D02*
X27594Y64952D01*
X25285Y65444D02*
X25623Y65106D01*
X26311D02*
X26650Y65444D01*
X26721D02*
X27594Y64571D01*
X27266Y64182D02*
X27594Y63853D01*
X26713Y65106D02*
X27266Y64553D01*
Y63447D02*
Y64553D01*
X24566Y65444D02*
X25256Y64754D01*
X25054Y64553D02*
X25607Y65106D01*
X24523Y64755D02*
X25213Y65444D01*
X24173Y65106D02*
X24726Y64553D01*
Y64239D02*
X25931Y65444D01*
X25054Y63447D02*
Y64553D01*
X23848Y65444D02*
X25054Y64238D01*
X27006Y62927D02*
X27594Y63515D01*
X27006Y62208D02*
X27692Y62894D01*
X27266Y63463D02*
X27594Y63135D01*
X27006Y63187D02*
X27266Y63447D01*
X27006Y63005D02*
X33805Y56206D01*
X27125Y61609D02*
X28410Y62894D01*
X27006Y61728D02*
Y63187D01*
X25054Y63447D02*
X25294Y63207D01*
X24567Y63288D02*
X25294Y62561D01*
X24726Y63520D02*
X25054Y63849D01*
X24726Y63848D02*
X25054Y63519D01*
X25294Y61728D02*
Y63207D01*
X24476Y62661D02*
X25294Y61842D01*
X24476Y62552D02*
X25213Y63289D01*
X22176Y64563D02*
X23058Y65444D01*
X24156Y65106D02*
X24494Y65444D01*
X21817Y64922D02*
X22339Y65444D01*
X22411D02*
X22908Y64947D01*
X22514Y64553D02*
X23067Y65106D01*
X24726Y63447D02*
Y64553D01*
X22186Y63447D02*
Y64553D01*
X22514Y63447D02*
Y64553D01*
X21282Y65106D02*
X21621Y65444D01*
X21692D02*
X22549Y64588D01*
X20563Y65106D02*
X20902Y65444D01*
X20974D02*
X21313Y65106D01*
X19974Y64517D02*
X20563Y65106D01*
X21633D02*
X22186Y64553D01*
X19974D02*
X20527Y65106D01*
X22514Y63447D02*
X22764Y63197D01*
X24476D02*
X24726Y63447D01*
X22186Y64233D02*
X22514Y63904D01*
X22186Y63854D02*
X22514Y64183D01*
X22764Y57598D02*
Y63197D01*
X24476Y57598D02*
Y63197D01*
X22186Y63514D02*
X22764Y62936D01*
X21936Y62886D02*
X22514Y63464D01*
X21936Y63046D02*
X22764Y62217D01*
X21936Y63197D02*
X22186Y63447D01*
X21936Y62708D02*
Y63197D01*
Y62167D02*
X22764Y62996D01*
X21936Y61852D02*
Y62708D01*
Y61852D02*
Y62708D01*
X33935Y56206D02*
X34894Y57165D01*
X34653Y56206D02*
X34894Y56447D01*
X33216Y56206D02*
X34894Y57884D01*
X32528Y56206D02*
X34894D01*
X33361Y54494D02*
X33675Y54180D01*
X34064D02*
X34379Y54494D01*
X32642D02*
X32957Y54180D01*
X33346D02*
X33660Y54494D01*
X31435Y57298D02*
X34894Y60758D01*
X31794Y56939D02*
X34894Y60039D01*
X30717Y58017D02*
X34894Y62194D01*
X31076Y57657D02*
X34894Y61476D01*
X32154Y56580D02*
X34894Y59321D01*
X32513Y56221D02*
X34894Y58602D01*
X27006Y62286D02*
X33086Y56206D01*
X35322Y54494D02*
X37160Y52657D01*
X34880Y50685D02*
X37006Y52811D01*
X34880Y52122D02*
X36287Y53529D01*
X34880Y51404D02*
X36646Y53170D01*
X34880Y53694D02*
X38044Y50529D01*
X34880Y52975D02*
X38100Y49756D01*
X34880Y49967D02*
X37160Y52247D01*
X32528Y54494D02*
X35322D01*
X34880Y53559D02*
X35569Y54248D01*
X34079Y54494D02*
X34394Y54180D01*
X34783D02*
X35097Y54494D01*
X34798D02*
X37160Y52132D01*
X34880Y52841D02*
X35928Y53889D01*
X34880Y49758D02*
Y54180D01*
X25294Y60872D02*
X25722Y60444D01*
X25294Y60872D02*
X25722Y60444D01*
X25294Y60872D02*
Y61728D01*
Y60872D02*
Y61728D01*
X27006D02*
X32528Y56206D01*
X25722Y60444D02*
X31244Y54922D01*
X25443Y54180D02*
X28715Y57452D01*
X26162Y54180D02*
X29074Y57093D01*
X24476Y61115D02*
X25294Y61934D01*
X24476Y60397D02*
X25294Y61215D01*
X24476Y61833D02*
X25294Y62652D01*
X24476Y61943D02*
X25294Y61124D01*
X24476Y61224D02*
X31520Y54180D01*
X24725D02*
X28356Y57811D01*
X24476Y59678D02*
X25482Y60685D01*
X31672Y54494D02*
X32528D01*
X31672D02*
X32528D01*
X31244Y54922D02*
X31672Y54494D01*
X31244Y54922D02*
X31672Y54494D01*
X31924D02*
X32238Y54180D01*
X32627D02*
X32942Y54494D01*
X31909Y54180D02*
X32223Y54494D01*
X28317Y54180D02*
X30152Y56015D01*
X29035Y54180D02*
X30511Y55656D01*
X26880Y54180D02*
X29433Y56733D01*
X27598Y54180D02*
X29793Y56374D01*
X30472Y54180D02*
X31229Y54937D01*
X31191Y54180D02*
X31589Y54578D01*
X29754Y54180D02*
X30870Y55296D01*
X35494Y49144D02*
X38044Y51694D01*
X35853Y48785D02*
X38044Y50976D01*
X35135Y49503D02*
X37382Y51750D01*
X35338Y45396D02*
X36457Y46515D01*
X36235Y44856D02*
X37523Y46144D01*
X35878Y44856D02*
X38482D01*
X34880Y46509D02*
X36534Y44856D01*
X35697Y45036D02*
X36816Y46156D01*
X34880Y52257D02*
X37570Y49567D01*
X34880Y51538D02*
X36928Y49491D01*
X34880Y50820D02*
X36557Y49143D01*
X34880Y50102D02*
X36409Y48572D01*
X34880Y47946D02*
X37971Y44856D01*
X34880Y47228D02*
X37252Y44856D01*
X34880Y48092D02*
X36549Y46422D01*
X36084Y42550D02*
X37279Y43744D01*
X36208D02*
X38097Y41856D01*
X36222Y40744D02*
X36778D01*
X36222D02*
X36778D01*
X36072Y39664D02*
X37152Y40744D01*
X36335D02*
X38223Y38856D01*
X35490Y43744D02*
X37379Y41856D01*
X35878Y43744D02*
X38482D01*
X35725Y42909D02*
X36560Y43744D01*
X35106Y43528D02*
X36778Y41856D01*
X34880Y41481D02*
X37505Y38856D01*
X34880Y40856D02*
X36880Y38856D01*
X35713Y40023D02*
X36434Y40744D01*
X36213Y48426D02*
X36409Y48623D01*
X34979Y45755D02*
X36098Y46874D01*
X34880Y44187D02*
X35044Y44022D01*
X35322Y43744D01*
X35044Y44022D02*
X35322Y43744D01*
X35006Y43627D02*
X35223Y43844D01*
X34880Y43753D02*
X35106Y43528D01*
X34880Y43753D02*
X35106Y43528D01*
X34880Y49758D02*
X36409Y48229D01*
X34880Y46375D02*
X35738Y47233D01*
X34880Y47812D02*
X35020Y47952D01*
X34880Y47093D02*
X35379Y47592D01*
X34880Y45853D02*
X35878Y44856D01*
X34880Y43753D02*
Y44187D01*
Y45853D02*
Y48092D01*
X35322Y43744D02*
X35878D01*
X35944Y41022D02*
X36222Y40744D01*
X35365Y43268D02*
X35842Y43744D01*
X35322D02*
X35878D01*
X35944Y41022D02*
X36222Y40744D01*
X36094Y38070D02*
X36257Y37907D01*
X35353Y40382D02*
X35969Y40998D01*
X34880Y42087D02*
X35944Y41022D01*
X34994Y40742D02*
X35610Y41357D01*
X34880Y40856D02*
Y42087D01*
Y41346D02*
X35250Y41716D01*
X34880Y39284D02*
X36094Y38070D01*
X34880Y37754D02*
X35645Y38519D01*
X34880Y38472D02*
X35286Y38878D01*
X24476Y57523D02*
X26560Y59607D01*
X24476Y56805D02*
X26919Y59248D01*
X24476Y58960D02*
X25841Y60325D01*
X24476Y58241D02*
X26200Y59966D01*
X24476Y60506D02*
X30802Y54180D01*
X24476Y59788D02*
X30083Y54180D01*
X24476Y59069D02*
X29365Y54180D01*
X24476Y58351D02*
X28646Y54180D01*
X19291Y55212D02*
X22764Y58685D01*
X18977Y54180D02*
X22764Y57967D01*
X21936Y62328D02*
X22764Y61499D01*
X20736Y60653D02*
X22764Y58625D01*
X23288Y54180D02*
X27637Y58529D01*
X24006Y54180D02*
X27996Y58170D01*
X22569Y54180D02*
X27278Y58889D01*
X24048Y56314D02*
X24476Y56742D01*
X24048Y56314D02*
X24476Y56742D01*
Y57598D01*
Y56742D02*
Y57598D01*
Y57632D02*
X27928Y54180D01*
X24476Y56914D02*
X27209Y54180D01*
X24202Y56469D02*
X26491Y54180D01*
X23125Y55391D02*
X24336Y54180D01*
X22280D02*
X34880D01*
X22765Y55032D02*
X23617Y54180D01*
X22406Y54673D02*
X22899Y54180D01*
X23843Y56110D02*
X25773Y54180D01*
X23484Y55750D02*
X25054Y54180D01*
X21856Y54122D02*
X24048Y56314D01*
X21814Y61731D02*
X22764Y60780D01*
X21455Y61371D02*
X22764Y60062D01*
X21508Y61424D02*
X21936Y61852D01*
X21508Y61424D02*
X21936Y61852D01*
X21096Y61012D02*
X22764Y59343D01*
X20377Y60294D02*
X22764Y57907D01*
X20018Y59935D02*
X22560Y57393D01*
X19659Y59575D02*
X22200Y57034D01*
X16942Y56456D02*
X22764Y62278D01*
X18514Y56591D02*
X22764Y60841D01*
X16539Y56456D02*
X21508Y61424D01*
X19300Y59216D02*
X21841Y56675D01*
X19014Y56372D02*
X22764Y60122D01*
X19291Y55930D02*
X22764Y59404D01*
X17661Y56456D02*
X22764Y61559D01*
X21856Y53466D02*
X22280Y53891D01*
X21856Y53786D02*
X22280Y53362D01*
X22047Y54314D02*
X22280Y54081D01*
X21856Y53380D02*
Y54122D01*
X21991Y52883D02*
X22280Y53172D01*
X21991Y52933D02*
X22280Y52644D01*
X21856Y53380D02*
X21991Y53245D01*
X18940Y58857D02*
X21482Y56315D01*
X20572Y55406D02*
X22764Y57598D01*
X18581Y58498D02*
X21123Y55956D01*
X18222Y58139D02*
X20764Y55597D01*
X20144Y54978D02*
X20572Y55406D01*
X20144Y54978D02*
X20572Y55406D01*
X17863Y57779D02*
X20404Y55238D01*
X21009Y51759D02*
X22280Y50488D01*
X20000Y49895D02*
X22280Y47615D01*
X21971Y52235D02*
X22280Y51925D01*
X21611Y51875D02*
X22280Y51207D01*
Y41706D02*
Y54180D01*
X20000Y45584D02*
X22280Y43304D01*
X20000Y47300D02*
X22280Y49580D01*
X20000Y47739D02*
X22280Y45459D01*
X20000Y49455D02*
X22280Y51735D01*
X20000Y51332D02*
X22280Y49052D01*
X20000Y50174D02*
X22280Y52454D01*
X20000Y52050D02*
X22280Y49770D01*
X20000Y50613D02*
X22280Y48333D01*
X20000Y48018D02*
X22280Y50298D01*
X20000Y48737D02*
X22280Y51017D01*
X21656Y39616D02*
X22280Y40241D01*
X21656Y39618D02*
X22280Y38994D01*
X21656Y40394D02*
X22280D01*
X21656Y40336D02*
X22280Y39712D01*
X21656Y38900D02*
X22280Y38275D01*
X21656Y38179D02*
X22280Y38804D01*
X21656Y38898D02*
X22280Y39522D01*
X21656Y43210D02*
X22280Y42586D01*
X21656Y42490D02*
X22280Y43114D01*
X21311Y43582D02*
X22280Y44551D01*
X21656Y43208D02*
X22280Y43833D01*
X21656Y41771D02*
X22280Y42396D01*
X21656Y41706D02*
X22280D01*
X21656Y42492D02*
X22280Y41867D01*
X21991Y52255D02*
Y53245D01*
X21495Y51759D02*
X21991Y52255D01*
X20009D02*
X20505Y51759D01*
X21495D01*
X20000Y46303D02*
X22280Y44023D01*
X20593Y44301D02*
X22280Y45988D01*
X20234Y44660D02*
X22280Y46706D01*
X20000Y46582D02*
X22280Y48862D01*
X20000Y48458D02*
X22280Y46178D01*
X20000Y50892D02*
X20867Y51759D01*
X20000Y49176D02*
X22280Y46896D01*
X20000Y45145D02*
X22280Y47425D01*
X20000Y47021D02*
X22280Y44741D01*
X20000Y45863D02*
X22280Y48143D01*
X21656Y42582D02*
Y43238D01*
Y42582D02*
Y43238D01*
X21328Y43566D02*
X21656Y43238D01*
X21328Y43566D02*
X21656Y43238D01*
Y41773D02*
X21723Y41706D01*
X21656Y40335D02*
X21715Y40394D01*
X21656Y41706D02*
Y42582D01*
X20952Y43941D02*
X22280Y45269D01*
X20000Y44893D02*
X21328Y43566D01*
X20000Y40555D02*
X20344Y40211D01*
X20000Y40116D02*
X20344Y40460D01*
X20000Y39397D02*
X20344Y39742D01*
X20000Y39118D02*
X20344Y38774D01*
X20000Y39837D02*
X20344Y39492D01*
X17616Y67906D02*
X19728Y70017D01*
X17838D02*
X19950Y67906D01*
X16898D02*
X19009Y70017D01*
X17119D02*
X19231Y67906D01*
X17469Y66794D02*
X17708Y66556D01*
X17703D02*
X17942Y66794D01*
X16750D02*
X16989Y66556D01*
X16985D02*
X17223Y66794D01*
X15461Y67906D02*
X17573Y70017D01*
X15683D02*
X17794Y67906D01*
X14742D02*
X16854Y70017D01*
X14964D02*
X17076Y67906D01*
X16179D02*
X18291Y70017D01*
X16401D02*
X18513Y67906D01*
X16266Y66556D02*
X16505Y66794D01*
X19140Y66556D02*
X19379Y66794D01*
X19624D02*
X19863Y66556D01*
X18421D02*
X18660Y66794D01*
X18906D02*
X19144Y66556D01*
X19858D02*
X20097Y66794D01*
X19110Y65089D02*
X19465Y65444D01*
X18408Y65106D02*
X18747Y65444D01*
X18187Y66794D02*
X18426Y66556D01*
X17987Y65106D02*
X19093D01*
X16253D02*
X16592Y65444D01*
X15447Y65106D02*
X16553D01*
X17382Y65444D02*
X17854Y64972D01*
X18100Y65444D02*
X18439Y65106D01*
X16762Y64896D02*
X17310Y65444D01*
X14024Y67906D02*
X16136Y70017D01*
X14246D02*
X16358Y67906D01*
X13722D02*
X14278D01*
X13722D02*
X14278D01*
X15313Y66794D02*
X15552Y66556D01*
X15548D02*
X15786Y66794D01*
X14595D02*
X14834Y66556D01*
X14829D02*
X15068Y66794D01*
X12809Y70017D02*
X14921Y67906D01*
X13527Y70017D02*
X15639Y67906D01*
X11372Y70017D02*
X13603Y67786D01*
X12090Y70017D02*
X14202Y67906D01*
X13444Y67628D02*
X13722Y67906D01*
X13444Y67628D02*
X13722Y67906D01*
X10654Y70017D02*
X13244Y67427D01*
X16032Y66794D02*
X16271Y66556D01*
X15227Y65444D02*
X15565Y65106D01*
X14172Y66556D02*
X14728D01*
X14172D02*
X14728D01*
X15535Y65106D02*
X15873Y65444D01*
X15945D02*
X16284Y65106D01*
X14618Y65335D02*
X15147Y64806D01*
X13894Y66278D02*
X14172Y66556D01*
X13894Y66278D02*
X14172Y66556D01*
X14077Y66594D02*
X14144Y66527D01*
X13718Y66235D02*
X13785Y66168D01*
X13359Y65875D02*
X13425Y65809D01*
X13000Y65516D02*
X13066Y65450D01*
X12640Y65157D02*
X12707Y65090D01*
X19469Y64729D02*
X20184Y65444D01*
X19537D02*
X20202Y64780D01*
X19093Y65106D02*
X19646Y64553D01*
Y64188D02*
X19974Y64517D01*
Y63447D02*
Y64553D01*
X19646Y63469D02*
X19974Y63798D01*
X19646Y63447D02*
Y64553D01*
Y63899D02*
X19974Y63570D01*
X17106Y64521D02*
X18029Y65444D01*
X18819D02*
X19974Y64289D01*
X16663Y65444D02*
X17495Y64613D01*
X17434Y64553D02*
X17987Y65106D01*
X17106Y63565D02*
X19094Y61577D01*
X19071Y62894D02*
X19646Y63469D01*
X13540Y64257D02*
X17657Y60140D01*
X19974Y63447D02*
X20224Y63197D01*
Y62708D02*
Y63197D01*
X19093Y62894D02*
X19646Y63447D01*
X17987Y62894D02*
X19093D01*
X19512Y63314D02*
X20171Y62655D01*
X19153Y62955D02*
X19812Y62296D01*
X18495Y62894D02*
X19453Y61936D01*
X16806Y63147D02*
X18735Y61218D01*
X16340Y62894D02*
X18375Y60859D01*
X17434Y63447D02*
X17987Y62894D01*
X15621D02*
X18016Y60500D01*
X11075Y54180D02*
X20158Y63263D01*
X14972Y57456D02*
X20224Y62708D01*
X10356Y54180D02*
X19071Y62894D01*
X16553Y65106D02*
X17106Y64553D01*
Y64284D02*
X17434Y63955D01*
X14894Y64553D02*
X15447Y65106D01*
X14894Y64465D02*
X15535Y65106D01*
X17434Y63447D02*
Y64553D01*
X17106Y63803D02*
X17434Y64132D01*
X14894Y63447D02*
Y64553D01*
X17106Y63447D02*
Y64553D01*
X14259Y64975D02*
X14894Y64340D01*
X12281Y64798D02*
X12348Y64731D01*
X11922Y64439D02*
X11989Y64372D01*
X11563Y64079D02*
X11629Y64013D01*
X13900Y64616D02*
X14894Y63621D01*
X13181Y63898D02*
X17298Y59781D01*
X11204Y63720D02*
X11270Y63654D01*
X12822Y63539D02*
X16939Y59422D01*
X16553Y62894D02*
X17106Y63447D01*
X14894D02*
X15447Y62894D01*
X16553D01*
X12463Y63179D02*
X16579Y59063D01*
X12104Y62820D02*
X16220Y58704D01*
X11744Y62461D02*
X15861Y58344D01*
X10844Y63361D02*
X10911Y63294D01*
X11385Y62102D02*
X15502Y57985D01*
X10485Y63002D02*
X10552Y62935D01*
X10126Y62643D02*
X10193Y62576D01*
X11026Y61743D02*
X15142Y57626D01*
X10667Y61383D02*
X14783Y57267D01*
X10307Y61024D02*
X14544Y56787D01*
X7856Y67485D02*
X10388Y70017D01*
X7856Y66766D02*
X11107Y70017D01*
X7234Y68300D02*
X8952Y70017D01*
X7593Y67940D02*
X9670Y70017D01*
X7856Y66048D02*
X11825Y70017D01*
X8498D02*
X12166Y66350D01*
X7062Y70017D02*
X11448Y65631D01*
X7780Y70017D02*
X11807Y65990D01*
X6135Y69356D02*
X6796Y70017D01*
X6515Y69018D02*
X7515Y70017D01*
X4906D02*
X5568Y69356D01*
X5416D02*
X6078Y70017D01*
X5625D02*
X10729Y64913D01*
X6343Y70017D02*
X11089Y65272D01*
X6875Y68659D02*
X8233Y70017D01*
X9217D02*
X12525Y66709D01*
X9935Y70017D02*
X12885Y67068D01*
X7856Y64322D02*
Y67678D01*
Y67068D02*
X10370Y64554D01*
X7856Y66350D02*
X10011Y64194D01*
X7856Y65631D02*
X9652Y63835D01*
X7856Y64913D02*
X9292Y63476D01*
X7856Y65329D02*
X12544Y70017D01*
X7856Y64611D02*
X13262Y70017D01*
X2822Y69356D02*
X6178D01*
X7856Y67678D01*
X7792Y64258D02*
X8933Y63117D01*
X7432Y63899D02*
X8574Y62757D01*
X2822Y62644D02*
X6178D01*
X3469Y70017D02*
X4131Y69356D01*
X3979D02*
X4641Y70017D01*
X2751D02*
X3413Y69356D01*
X3261D02*
X3923Y70017D01*
X4188D02*
X4850Y69356D01*
X4698D02*
X5359Y70017D01*
X1314D02*
X2399Y68932D01*
X2033Y70017D02*
X2758Y69292D01*
X483Y68733D02*
X1767Y70017D01*
X596D02*
X2040Y68573D01*
X483Y69451D02*
X1049Y70017D01*
X483Y69412D02*
X1681Y68214D01*
X483Y67296D02*
X3204Y70017D01*
X1144Y67678D02*
X2822Y69356D01*
X483Y68014D02*
X2486Y70017D01*
X1144Y64322D02*
Y67678D01*
X483Y64422D02*
X1144Y65084D01*
X483Y65141D02*
X1144Y65802D01*
X483Y65102D02*
X1144Y64440D01*
Y64322D02*
X2822Y62644D01*
X483Y62985D02*
X1482Y63985D01*
X483Y63704D02*
X1144Y64365D01*
X483Y68694D02*
X1321Y67855D01*
X483Y66577D02*
X1144Y67239D01*
X483Y67975D02*
X1144Y67313D01*
X483Y67257D02*
X1144Y66595D01*
X483Y65859D02*
X1144Y66521D01*
X483Y65820D02*
X1144Y65158D01*
X483Y66538D02*
X1144Y65877D01*
X7656Y58372D02*
X14728Y65444D01*
X7656Y57945D02*
X15155Y65444D01*
X6822Y59206D02*
X13894Y66278D01*
X7073Y63540D02*
X8215Y62398D01*
X8201Y54180D02*
X17451Y63430D01*
X7656Y55790D02*
X15104Y63238D01*
X7656Y57227D02*
X14894Y64465D01*
X7656Y56508D02*
X14894Y63747D01*
X6126Y58643D02*
X14278Y66794D01*
X6126Y58571D02*
X14350Y66794D01*
X5293Y59476D02*
X13444Y67628D01*
X6714Y63181D02*
X7856Y62039D01*
X2922Y58241D02*
X14699Y70017D01*
X3641Y58241D02*
X15417Y70017D01*
X483Y56519D02*
X13981Y70017D01*
X9767Y62283D02*
X9833Y62217D01*
X9948Y60665D02*
X14544Y56069D01*
X9407Y61924D02*
X9474Y61857D01*
X9048Y61565D02*
X9115Y61498D01*
X9638Y54180D02*
X18352Y62894D01*
X9230Y59946D02*
X14544Y54632D01*
X9589Y60306D02*
X14544Y55350D01*
X7656Y55071D02*
X15479Y62894D01*
X8689Y61206D02*
X8756Y61139D01*
X8330Y60846D02*
X8396Y60780D01*
X7971Y60487D02*
X8037Y60421D01*
X8919Y54180D02*
X17811Y63071D01*
X7656Y54353D02*
X16197Y62894D01*
X8871Y59587D02*
X14278Y54180D01*
X6178Y62644D02*
X7856Y64322D01*
X6355Y62821D02*
X7496Y61680D01*
X1144Y64440D02*
X2940Y62644D01*
X5700Y59884D01*
X483Y58675D02*
X4452Y62644D01*
X483Y57956D02*
X5171Y62644D01*
X483Y59393D02*
X3734Y62644D01*
X483Y60830D02*
X2560Y62907D01*
X483Y60112D02*
X3015Y62644D01*
X483Y62267D02*
X1841Y63625D01*
X483Y61548D02*
X2200Y63266D01*
X483Y64383D02*
X5341Y59525D01*
X483Y62946D02*
X5015Y58414D01*
X483Y63665D02*
X5015Y59133D01*
X7611Y60128D02*
X7678Y60061D01*
X7252Y59769D02*
X7319Y59702D01*
X5095Y62644D02*
X6778Y60961D01*
X5813Y62644D02*
X7137Y61321D01*
X5015Y59198D02*
X5293Y59476D01*
X6893Y59410D02*
X6960Y59343D01*
X5015Y59198D02*
X5293Y59476D01*
X3658Y62644D02*
X6060Y60243D01*
X4377Y62644D02*
X6419Y60602D01*
X483Y61509D02*
X3751Y58241D01*
X483Y60791D02*
X3033Y58241D01*
X483Y57238D02*
X5889Y62644D01*
X483Y62228D02*
X5015Y57696D01*
X483Y60073D02*
X2585Y57971D01*
X17504Y57420D02*
X18333Y56591D01*
X17805D02*
X18795D01*
X17144Y57061D02*
X17710Y56496D01*
X16539Y56456D02*
X17670D01*
X17805Y56591D01*
X18795D02*
X19291Y56095D01*
X14544Y56172D02*
Y57028D01*
X16785Y56702D02*
X17031Y56456D01*
X6544Y58928D02*
X6822Y59206D01*
X14544Y57028D02*
X14972Y57456D01*
X6544Y58928D02*
X6822Y59206D01*
X6534Y59050D02*
X6600Y58984D01*
X14544Y57028D02*
X14972Y57456D01*
X11793Y54180D02*
X14544Y56931D01*
Y56172D02*
Y57028D01*
X19291Y55105D02*
Y56095D01*
Y55633D02*
X20144Y54779D01*
X16256Y54744D02*
X17670D01*
X17805Y54609D01*
X18795D02*
X19291Y55105D01*
X17805Y54609D02*
X18795D01*
X16256Y54332D02*
X16668Y54744D01*
X14544Y55172D02*
Y56028D01*
Y55172D02*
Y56028D01*
Y56172D01*
Y55172D02*
Y56028D01*
X12512Y54180D02*
X14544Y56213D01*
X13230Y54180D02*
X14544Y55494D01*
X7656Y55773D02*
X9249Y54180D01*
X6544Y58372D02*
Y58928D01*
Y58372D02*
Y58928D01*
X5015Y58643D02*
Y59198D01*
Y58643D02*
Y59198D01*
X6126Y58021D02*
X6544Y57603D01*
X6126Y57134D02*
X6544Y57552D01*
X6175Y58691D02*
X6544Y58321D01*
X6126Y57852D02*
X6544Y58271D01*
X4102Y57984D02*
X5015Y58896D01*
X4341Y57504D02*
X5015Y58178D01*
X2855Y58241D02*
X3845D01*
X4341Y57745D01*
Y57651D02*
X5015Y56977D01*
X4341Y56785D02*
X5015Y57460D01*
X4341Y56755D02*
Y57745D01*
X6126Y55697D02*
X6544Y56115D01*
X6126Y55866D02*
X6544Y55448D01*
X6126Y56416D02*
X6544Y56834D01*
X6126Y56584D02*
X6544Y56166D01*
X6126Y55148D02*
X6544Y54729D01*
X6126Y54260D02*
X6544Y54679D01*
X6126Y54979D02*
X6544Y55397D01*
X6126Y57303D02*
X6544Y56885D01*
X3845Y56259D02*
X4341Y56755D01*
X3815Y56259D02*
X4341Y56785D01*
X3193Y56259D02*
X3845D01*
X4071Y56485D02*
X5015Y55540D01*
X3577Y56259D02*
X5015Y54822D01*
X4341Y56933D02*
X5015Y56259D01*
X20144Y53380D02*
Y54122D01*
X20000Y53766D02*
X20144Y53910D01*
Y54122D02*
Y54978D01*
Y54122D02*
Y54978D01*
X20009Y53245D02*
X20144Y53380D01*
X20000Y51611D02*
X20327Y51937D01*
X20000Y53487D02*
X20125Y53361D01*
X20009Y52255D02*
Y53245D01*
X18836Y54650D02*
X19307Y54180D01*
X16256D02*
X20000D01*
X18159Y54609D02*
X18588Y54180D01*
X18259D02*
X18688Y54609D01*
X19196Y55010D02*
X20144Y54061D01*
X19696Y54180D02*
X20144Y54629D01*
X20000Y44893D02*
Y54180D01*
X20344Y40722D02*
Y41378D01*
Y40722D02*
Y41378D01*
Y42582D01*
Y40722D02*
Y41378D01*
X20000Y38400D02*
X20344Y38056D01*
X20000Y37961D02*
X20344Y38305D01*
X20000Y38679D02*
X20344Y39023D01*
X20000Y42710D02*
X20344Y42366D01*
X20000Y41992D02*
X20344Y41648D01*
X20000Y42927D02*
X20344Y42582D01*
X20000Y42271D02*
X20328Y42599D01*
X20000Y41274D02*
X20344Y40929D01*
X20000Y40834D02*
X20344Y41179D01*
X20000Y41553D02*
X20344Y41897D01*
X7656Y57929D02*
X11404Y54180D01*
X7656Y57210D02*
X10686Y54180D01*
X6544D02*
Y58372D01*
X7656Y54180D02*
Y58372D01*
X8511Y59228D02*
X13559Y54180D01*
X8152Y58869D02*
X12841Y54180D01*
X7793Y58510D02*
X12123Y54180D01*
X7656Y56492D02*
X9967Y54180D01*
X2454D02*
X5015Y56741D01*
X3172Y54180D02*
X5015Y56023D01*
X3026Y56092D02*
X4938Y54180D01*
X2667Y55733D02*
X4220Y54180D01*
X5015D02*
Y58643D01*
X6126Y54180D02*
Y58643D01*
X3891Y54180D02*
X5015Y55304D01*
X16587Y54744D02*
X17152Y54180D01*
X16256Y54358D02*
X16433Y54180D01*
X14544D02*
Y55172D01*
X16256Y54180D02*
Y54744D01*
X17306D02*
X17870Y54180D01*
X17541D02*
X17970Y54609D01*
X16822Y54180D02*
X17386Y54744D01*
X7656Y55055D02*
X8531Y54180D01*
X6126D02*
X6544D01*
X4609D02*
X5015Y54586D01*
X6126Y54429D02*
X6375Y54180D01*
X13948D02*
X14544Y54776D01*
X7656Y54180D02*
X14544D01*
X7656Y54336D02*
X7812Y54180D01*
X2359Y57745D02*
X2855Y58241D01*
X2359Y57678D02*
X2922Y58241D01*
X2359Y57093D02*
Y57745D01*
X1948Y55015D02*
X2783Y54180D01*
X2307Y55374D02*
X3502Y54180D01*
X2000D02*
X5015D01*
X1906Y53632D02*
X2000Y53726D01*
X1906Y53621D02*
X2000Y53526D01*
X483Y55801D02*
X2359Y57678D01*
X1072Y55806D02*
X2359Y57093D01*
X483Y59354D02*
X2359Y57477D01*
X483Y58636D02*
X2193Y56926D01*
X1906Y54972D02*
X3193Y56259D01*
X1906Y54350D02*
X3815Y56259D01*
X1906Y54339D02*
X2065Y54180D01*
X1906Y50029D02*
X2000Y49934D01*
X1906Y49321D02*
X2000Y49416D01*
X1906Y50747D02*
X2000Y50653D01*
X1906Y50040D02*
X2000Y50134D01*
X1906Y48603D02*
X2000Y48697D01*
X1906Y48592D02*
X2000Y48497D01*
X1906Y49310D02*
X2000Y49216D01*
X1906Y52195D02*
X2000Y52289D01*
X1906Y52184D02*
X2000Y52089D01*
X1906Y52914D02*
X2000Y53008D01*
X1906Y52902D02*
X2000Y52808D01*
X1906Y51465D02*
X2000Y51371D01*
X1906Y50758D02*
X2000Y50853D01*
X1906Y51477D02*
X2000Y51571D01*
X794Y55528D02*
X1072Y55806D01*
X794Y55528D02*
X1072Y55806D01*
X794Y54972D02*
Y55528D01*
Y54972D02*
Y55528D01*
X483Y53607D02*
X794Y53295D01*
X483Y52927D02*
X794Y53239D01*
X483Y54325D02*
X794Y54013D01*
X483Y53646D02*
X794Y53958D01*
X483Y57917D02*
X1833Y56567D01*
X483Y57199D02*
X1474Y56207D01*
X483Y56481D02*
X1115Y55848D01*
X483Y55762D02*
X794Y55450D01*
X483Y55044D02*
X794Y54732D01*
X483Y54364D02*
X794Y54676D01*
X483Y55083D02*
X794Y55394D01*
X483Y49335D02*
X794Y49647D01*
X483Y49296D02*
X794Y48985D01*
X483Y50054D02*
X794Y50365D01*
X483Y50015D02*
X794Y49703D01*
X483Y48578D02*
X794Y48266D01*
X483Y47898D02*
X794Y48210D01*
X483Y48617D02*
X794Y48929D01*
X483Y52170D02*
X794Y51858D01*
X483Y51491D02*
X794Y51802D01*
X483Y52888D02*
X794Y52577D01*
X483Y52209D02*
X794Y52521D01*
X483Y50772D02*
X794Y51084D01*
X483Y50733D02*
X794Y50421D01*
X483Y51452D02*
X794Y51140D01*
X1906Y45000D02*
X2000Y44905D01*
X1906Y44292D02*
X2000Y44387D01*
X1906Y45718D02*
X2000Y45624D01*
X1906Y45011D02*
X2000Y45105D01*
X1906Y43563D02*
X2000Y43468D01*
X1906Y42856D02*
X2000Y42950D01*
X1906Y44281D02*
X2000Y44187D01*
X1906Y43574D02*
X2000Y43668D01*
X1906Y47166D02*
X2000Y47261D01*
X1906Y47155D02*
X2000Y47061D01*
X1906Y47885D02*
X2000Y47979D01*
X1906Y47873D02*
X2000Y47779D01*
X1906Y46436D02*
X2000Y46342D01*
X1906Y45729D02*
X2000Y45824D01*
X1906Y46448D02*
X2000Y46542D01*
X1906Y39264D02*
X2000Y39358D01*
X1906Y39252D02*
X2000Y39158D01*
X1906Y39982D02*
X2000Y40076D01*
X1906Y39971D02*
X2000Y39876D01*
X1906Y38534D02*
X2000Y38439D01*
X1906Y37827D02*
X2000Y37921D01*
X1906Y38545D02*
X2000Y38639D01*
X1906Y42126D02*
X2000Y42032D01*
X1906Y41419D02*
X2000Y41513D01*
X1906Y42844D02*
X2000Y42750D01*
X1906Y42137D02*
X2000Y42232D01*
X1906Y40700D02*
X2000Y40795D01*
X1906Y40689D02*
X2000Y40595D01*
X1906Y41408D02*
X2000Y41313D01*
X483Y44306D02*
X794Y44618D01*
X483Y44267D02*
X794Y43956D01*
X483Y45025D02*
X794Y45337D01*
X483Y44986D02*
X794Y44674D01*
X483Y43549D02*
X794Y43237D01*
X483Y42869D02*
X794Y43181D01*
X483Y43588D02*
X794Y43900D01*
X483Y47141D02*
X794Y46829D01*
X483Y46462D02*
X794Y46773D01*
X483Y47859D02*
X794Y47548D01*
X483Y47180D02*
X794Y47492D01*
X483Y45743D02*
X794Y46055D01*
X483Y45704D02*
X794Y45392D01*
X483Y46423D02*
X794Y46111D01*
X483Y39277D02*
X794Y39589D01*
X483Y39238D02*
X794Y38927D01*
X483Y39996D02*
X794Y40308D01*
X483Y39957D02*
X794Y39645D01*
X483Y38520D02*
X794Y38208D01*
X483Y37840D02*
X794Y38152D01*
X483Y38559D02*
X794Y38871D01*
X483Y42112D02*
X794Y41800D01*
X483Y41433D02*
X794Y41744D01*
X483Y42831D02*
X794Y42519D01*
X483Y42151D02*
X794Y42463D01*
X483Y40714D02*
X794Y41026D01*
X483Y40675D02*
X794Y40363D01*
X483Y41394D02*
X794Y41082D01*
X36094Y38022D02*
X36372Y37744D01*
X36650D01*
X35287Y37443D02*
X36005Y38160D01*
X35773Y37210D02*
X36340Y37777D01*
X36132Y36851D02*
X37026Y37744D01*
X35819Y37165D02*
X37128Y35856D01*
X35541Y37443D02*
X35819Y37165D01*
X35541Y37443D02*
X35819Y37165D01*
X34880Y38607D02*
X37631Y35856D01*
X34985Y36331D02*
X36294Y35022D01*
X34717Y34717D02*
X35658Y35658D01*
X35076Y34357D02*
X36018Y35299D01*
X34880Y35733D02*
X37758Y32856D01*
X34715Y35180D02*
X37039Y32856D01*
X34253Y35180D02*
X36578Y32856D01*
X36154Y33280D02*
X37618Y34744D01*
X36022Y31744D02*
X36578D01*
X36294Y35022D02*
X36572Y34744D01*
X36294Y35022D02*
X36572Y34744D01*
X36022Y31744D02*
X36578D01*
X36336Y31307D02*
X36773Y31744D01*
X36100Y29634D02*
X36221Y29755D01*
X35435Y33998D02*
X36377Y34940D01*
X35794Y33639D02*
X36900Y34744D01*
X35618Y32026D02*
X35679Y32087D01*
X35744Y32022D02*
X36022Y31744D01*
X35744Y32022D02*
X36022Y31744D01*
X35977Y31666D02*
X36055Y31744D01*
X35740Y29993D02*
X35862Y30115D01*
X34880Y37888D02*
X35326Y37443D01*
X34985D02*
X35541D01*
X34880D02*
Y39284D01*
Y37443D02*
X34985D01*
X35541D01*
X34880Y35598D02*
X35299Y36018D01*
X34880Y35180D02*
Y36331D01*
X34985D01*
X34717Y34717D02*
X35658Y35658D01*
X34253Y35180D02*
X34880D01*
X34357Y35076D02*
X34462Y35180D01*
X33462Y34181D02*
X33524Y34243D01*
X33822Y33822D02*
X33883Y33883D01*
X34181Y33462D02*
X34243Y33524D01*
X33822Y33822D02*
X33883Y33883D01*
X34899Y32744D02*
X34961Y32806D01*
X35259Y32385D02*
X35320Y32446D01*
X34540Y33103D02*
X34602Y33165D01*
X34304Y31430D02*
X34425Y31551D01*
X35022Y30711D02*
X35144Y30833D01*
X35381Y30352D02*
X35503Y30474D01*
X34663Y31071D02*
X34784Y31192D01*
X33944Y31789D02*
X34066Y31911D01*
X33580Y29988D02*
X33829Y30237D01*
X33226Y32507D02*
X33348Y32629D01*
X33585Y32148D02*
X33707Y32270D01*
X33580Y28551D02*
X34548Y29519D01*
X33580Y27833D02*
X34907Y29160D01*
X33580Y29269D02*
X34189Y29878D01*
X33580Y27694D02*
X42798Y18476D01*
X33580Y26975D02*
X42080Y18476D01*
X33580Y26257D02*
X41564Y18272D01*
X33580Y25538D02*
X40643Y18476D01*
X33783Y15823D02*
X46404Y28443D01*
X34501Y15823D02*
X46923Y28244D01*
X35065Y15668D02*
X46074Y26677D01*
X35425Y15309D02*
X46074Y25959D01*
X33580Y18493D02*
X46467Y31380D01*
X33580Y29849D02*
X44953Y18476D01*
X33580Y29131D02*
X44446Y18264D01*
X33580Y28412D02*
X43516Y18476D01*
X33580Y17775D02*
X47050Y31244D01*
X33580Y16338D02*
X46074Y28832D01*
X33580Y17056D02*
X46074Y29551D01*
X35784Y14950D02*
X46340Y25506D01*
X33580Y19791D02*
X41644Y11727D01*
X33580Y20509D02*
X41644Y12445D01*
X36143Y14590D02*
X39024Y17472D01*
X33580Y19073D02*
X41497Y11156D01*
X33580Y18354D02*
X40779Y11156D01*
X33580Y17636D02*
X40060Y11156D01*
X33580Y19212D02*
X39613Y25244D01*
X33580Y24820D02*
X39924Y18476D01*
X33580Y24102D02*
X39392Y18290D01*
X33580Y23383D02*
X39032Y17931D01*
X33580Y21946D02*
X41644Y13882D01*
X33580Y21228D02*
X41644Y13163D01*
X33580Y22665D02*
X39024Y17220D01*
X33580Y22085D02*
X37781Y26286D01*
X33580Y21367D02*
X38140Y25927D01*
X33580Y23522D02*
X37062Y27004D01*
X33580Y22804D02*
X37421Y26645D01*
X33580Y20648D02*
X38579Y25648D01*
X33580Y19930D02*
X38938Y25288D01*
X33580Y16917D02*
X34675Y15823D01*
X33580Y16199D02*
X33956Y15823D01*
X33580Y30487D02*
X38044Y26022D01*
X33580Y25677D02*
X35985Y28082D01*
X33580Y27114D02*
X35266Y28800D01*
X33580Y26396D02*
X35625Y28441D01*
X33580Y24959D02*
X36344Y27723D01*
X33580Y24241D02*
X36703Y27364D01*
X33580Y15823D02*
Y30487D01*
X34911Y15823D02*
X35389Y15345D01*
X36078Y14656D01*
X33955Y15823D02*
X34911D01*
X35389Y15345D01*
X36078Y14656D02*
X36556Y14178D01*
X36078Y14656D02*
X36556Y14178D01*
X33955Y13911D02*
X34644Y13222D01*
X33955Y15823D02*
X34911D01*
X33580Y13464D02*
X33991Y13875D01*
X33580Y15823D02*
X33955D01*
X33580Y13911D02*
X33955D01*
X33712D02*
X34644Y12979D01*
X33580Y12746D02*
X34350Y13516D01*
X33580Y11156D02*
Y13911D01*
X32463Y35180D02*
X32666Y34978D01*
X32744Y34899D02*
X32806Y34961D01*
X32463Y35180D02*
X32587D01*
X32463D02*
X32666Y34978D01*
X32587Y35180D02*
X35744Y32022D01*
X33103Y34540D02*
X33165Y34602D01*
X30721Y34144D02*
X30860Y34006D01*
X31132D02*
X31271Y34144D01*
X28977Y34006D02*
X29115Y34144D01*
X29285D02*
X29423Y34006D01*
X28122Y34144D02*
X28678D01*
X28566D02*
X28705Y34006D01*
X30003Y34144D02*
X30142Y34006D01*
X30413D02*
X30552Y34144D01*
X29695Y34006D02*
X29834Y34144D01*
X31728Y34006D02*
X32006Y33728D01*
X32148Y33585D02*
X32270Y33707D01*
X31789Y33944D02*
X31911Y34066D01*
X31728Y34006D02*
X32006Y33728D01*
X32867Y32867D02*
X32988Y32988D01*
X32867Y32867D02*
X32988Y32988D01*
X32507Y33226D02*
X32629Y33348D01*
X28678Y34144D02*
X31832D01*
X31172Y34006D02*
X31728D01*
X27388D02*
X31172D01*
X31728D01*
X31440Y34144D02*
X31579Y34006D01*
X23580Y31520D02*
X32547D01*
X27388Y32894D02*
X31172D01*
X27087Y35180D02*
X27844Y34422D01*
X26745Y34648D02*
X27182Y35085D01*
X26386Y35007D02*
X26559Y35180D01*
X26213D02*
X27087D01*
X26812D02*
X27986Y34006D01*
X27105Y34289D02*
X27541Y34725D01*
X24547Y35180D02*
X26554Y33172D01*
X26213Y35180D02*
X27388Y34006D01*
X22280Y35180D02*
X24547D01*
X21656Y31713D02*
X24834Y34892D01*
X21656Y33150D02*
X23685Y35180D01*
X21656Y32432D02*
X24404Y35180D01*
X23220D02*
X26880Y31520D01*
X23938Y35180D02*
X27598Y31520D01*
X22502Y35180D02*
X26162Y31520D01*
X27844Y34422D02*
X28122Y34144D01*
X28678D01*
X27844Y34422D02*
X28122Y34144D01*
X27540Y34006D02*
X27900Y34366D01*
X28258Y34006D02*
X28397Y34144D01*
X26832Y32894D02*
X27388D01*
X26832D02*
X27388D01*
X26554Y33172D02*
X26832Y32894D01*
X26554Y33172D02*
X26832Y32894D01*
X23617Y31520D02*
X25912Y33815D01*
X24336Y31520D02*
X26271Y33455D01*
X25773Y31520D02*
X27147Y32894D01*
X26491Y31520D02*
X27865Y32894D01*
X25054Y31520D02*
X26630Y33096D01*
X28379Y32894D02*
X29754Y31520D01*
X28646D02*
X30021Y32894D01*
X27661D02*
X29035Y31520D01*
X27928D02*
X29302Y32894D01*
X32559Y35180D02*
X37884Y29856D01*
X32006Y33728D02*
X38680Y27053D01*
X32666Y34978D02*
X37788Y29856D01*
X31832Y34144D02*
X36954Y29022D01*
X21656Y35308D02*
X25443Y31520D01*
X26942Y32894D02*
X28317Y31520D01*
X21656Y34589D02*
X24725Y31520D01*
X21656Y33871D02*
X24006Y31520D01*
X21656Y30277D02*
X25553Y34174D01*
X27209Y31520D02*
X28584Y32894D01*
X21656Y30995D02*
X25194Y34533D01*
X30535Y32894D02*
X31909Y31520D01*
X31172Y32894D02*
X32547Y31520D01*
X30083D02*
X31315Y32752D01*
X30802Y31520D02*
X31674Y32393D01*
X31520Y31520D02*
X32033Y32033D01*
X32238Y31520D02*
X32393Y31674D01*
X31520Y31520D02*
X32033Y32033D01*
X29365Y31520D02*
X30739Y32894D01*
X29816D02*
X31191Y31520D01*
X29098Y32894D02*
X30472Y31520D01*
X21656Y21656D02*
X23580Y23580D01*
X21656Y20937D02*
X23580Y22862D01*
X21656Y21658D02*
X23580Y19733D01*
X21656Y23094D02*
X23580Y21170D01*
X21656Y25248D02*
X23580Y27172D01*
X21656Y26686D02*
X23580Y24762D01*
X21656Y25966D02*
X23580Y27891D01*
X21656Y27405D02*
X23580Y25480D01*
X21656Y25250D02*
X23580Y23325D01*
X21656Y24531D02*
X23580Y22607D01*
X21656Y24529D02*
X23580Y26454D01*
X21656Y25968D02*
X23580Y24044D01*
X21656Y28121D02*
X23580Y30046D01*
X21656Y29560D02*
X23580Y27636D01*
X21656Y32434D02*
X23580Y30509D01*
X21656Y30279D02*
X23580Y28354D01*
X21656Y28842D02*
X23580Y26917D01*
X21656Y26685D02*
X23580Y28609D01*
X21656Y27403D02*
X23580Y29327D01*
X21656Y15192D02*
X23580Y13267D01*
X21656Y13035D02*
X23580Y14959D01*
X21656Y16627D02*
X23580Y18551D01*
X21656Y17347D02*
X23580Y15423D01*
X21656Y12316D02*
X23580Y14241D01*
X21656Y11598D02*
X23580Y13522D01*
X21656Y14473D02*
X23580Y12549D01*
X21656Y19500D02*
X23580Y21425D01*
X21656Y20939D02*
X23580Y19015D01*
X21656Y22374D02*
X23580Y24298D01*
X21656Y23813D02*
X23580Y21888D01*
X21656Y20221D02*
X23580Y18296D01*
X21656Y18063D02*
X23580Y19988D01*
X21656Y18782D02*
X23580Y20706D01*
X35631Y8331D02*
X36544Y9244D01*
X35990Y7972D02*
X37263Y9244D01*
X35122D02*
X36078D01*
X35122D02*
X36078D01*
X35466Y3856D02*
X40855Y9244D01*
X36224D02*
X41613Y3856D01*
X36160Y7423D02*
X37981Y9244D01*
X36160Y6704D02*
X38700Y9244D01*
X33728D02*
X35122D01*
X36078D01*
X33580Y12027D02*
X34644Y13092D01*
X34069Y9244D02*
X34958Y8356D01*
X34937D02*
X35826Y9244D01*
X34748Y3856D02*
X40137Y9244D01*
X31569Y5706D02*
X35108Y9244D01*
X36078D02*
X42122D01*
X36160Y6697D02*
Y7803D01*
X35607Y8356D02*
X36160Y7803D01*
X35600Y6144D02*
X36160Y6704D01*
X35607Y6144D02*
X36160Y6697D01*
X34501Y8356D02*
X35607D01*
X34501Y6144D02*
X35607D01*
X31743Y7260D02*
X35147Y3856D01*
X34501D02*
X35607D01*
X32856Y4119D02*
X34881Y6144D01*
X33580Y12607D02*
X34644Y11542D01*
X33580Y11309D02*
X34644Y12373D01*
X33580Y11888D02*
X34313Y11156D01*
X33580D02*
X33728D01*
X34644D02*
Y13222D01*
X34145Y11156D02*
X34644Y11655D01*
X33580Y11156D02*
X33728D01*
X34644D01*
X33580Y13325D02*
X34644Y12261D01*
X32294Y10678D02*
X32617Y11000D01*
X32313D02*
X32465Y10848D01*
X32294Y10678D02*
X32617Y11000D01*
X31595D02*
X32106Y10489D01*
X30770Y6287D02*
X33728Y9244D01*
X30876Y11000D02*
X31746Y10130D01*
X33539Y9056D02*
X34370Y8225D01*
X33948Y7803D02*
X34501Y8356D01*
X33180Y8696D02*
X34011Y7865D01*
X33948Y6697D02*
Y7803D01*
Y6697D02*
X34501Y6144D01*
X32856Y4837D02*
X34332Y6314D01*
X32856Y3822D02*
Y5078D01*
X32821Y8337D02*
X33948Y7209D01*
X30972Y5706D02*
X32228D01*
X31025Y6541D02*
X31860Y5706D01*
X30665Y6182D02*
X31142Y5706D01*
X32257Y5676D02*
X33948Y7367D01*
X32617Y5317D02*
X33973Y6673D01*
X32228Y5706D02*
X32856Y5078D01*
X35506Y9244D02*
X40948Y3802D01*
X35896Y3567D02*
X41573Y9244D01*
X36160Y3112D02*
X40448Y7401D01*
X36160Y7154D02*
X40448Y2865D01*
X36029Y6566D02*
X40689Y1906D01*
X36390D02*
X40815Y6331D01*
X36160Y2394D02*
X40456Y6690D01*
X35669Y6207D02*
X39971Y1906D01*
X33579Y3406D02*
X39418Y9244D01*
X34787D02*
X40589Y3443D01*
X31384Y6900D02*
X34465Y3819D01*
X32861Y3406D02*
X35600Y6144D01*
X32461Y7978D02*
X38534Y1906D01*
X35013Y6144D02*
X39252Y1906D01*
X32102Y7619D02*
X37815Y1906D01*
X36123Y2161D02*
X36379Y1906D01*
X35868D02*
X40740D01*
X36160Y2197D02*
Y3303D01*
X35868Y1906D02*
X36160Y2197D01*
Y2843D02*
X37097Y1906D01*
X36253Y594D02*
X36365Y483D01*
X35685D02*
X35797Y594D01*
X34051Y3406D02*
X34501Y3856D01*
X35607D02*
X36160Y3303D01*
X34051Y2094D02*
X34240Y1906D01*
X34248Y483D02*
X34360Y594D01*
X34967Y483D02*
X35079Y594D01*
X35535D02*
X35646Y483D01*
X34816Y594D02*
X34928Y483D01*
X32856Y4710D02*
X34106Y3460D01*
X32439Y3406D02*
X34051D01*
X32439D02*
X32856Y3822D01*
X32581Y3548D02*
X32723Y3406D01*
X32856Y3992D02*
X33442Y3406D01*
X32798Y1906D02*
X32987Y2094D01*
X32079Y1906D02*
X32268Y2094D01*
X32598D02*
X32786Y1906D01*
X30344Y3822D02*
X30761Y3406D01*
X30642Y1906D02*
X30831Y2094D01*
X30344Y3822D02*
Y5078D01*
X30442Y2094D02*
X30631Y1906D01*
X31361D02*
X31550Y2094D01*
X31879D02*
X32068Y1906D01*
X31161Y2094D02*
X31350Y1906D01*
X33516D02*
X33705Y2094D01*
X34035D02*
X34223Y1906D01*
X33316Y2094D02*
X33505Y1906D01*
X32812Y483D02*
X32923Y594D01*
X33530Y483D02*
X33642Y594D01*
X34098D02*
X34209Y483D01*
X33379Y594D02*
X33491Y483D01*
X31224Y594D02*
X31336Y483D01*
X31375D02*
X31487Y594D01*
X30506D02*
X30617Y483D01*
X30656D02*
X30768Y594D01*
X32093Y483D02*
X32205Y594D01*
X32661D02*
X32773Y483D01*
X31942Y594D02*
X32054Y483D01*
X29439Y11000D02*
X31028Y9411D01*
X30158Y11000D02*
X31387Y9771D01*
X29356Y10365D02*
X30669Y9052D01*
X29356Y9647D02*
X30310Y8693D01*
X29356Y7739D02*
X32294Y10678D01*
X30293Y5809D02*
X30770Y6287D01*
X29356Y8929D02*
X29950Y8334D01*
X29356Y8210D02*
X29591Y7975D01*
X29356Y9240D02*
X31116Y11000D01*
X29356D02*
X32617D01*
X29356Y10677D02*
X29679Y11000D01*
X29356Y9958D02*
X30397Y11000D01*
X29356Y8521D02*
X31834Y11000D01*
X29356Y7803D02*
X32553Y11000D01*
X29356Y7739D02*
Y11000D01*
X30293Y5809D02*
X30770Y6287D01*
X29443Y5809D02*
X30293D01*
X29337D02*
X29443D01*
X30293D01*
X30306Y5823D02*
X30698Y5431D01*
X30344Y5078D02*
X30972Y5706D01*
X29601Y5809D02*
X30344Y5066D01*
X29337Y5809D02*
X29443D01*
X29028Y5394D02*
X29443Y5809D01*
X27144Y6111D02*
X27861Y5394D01*
X27772D02*
X29028D01*
X29163Y5529D02*
X30344Y4348D01*
X22978Y3406D02*
X30761D01*
X27861Y5394D02*
X29850Y3406D01*
X26566Y11000D02*
X27444Y10121D01*
X25847Y11000D02*
X27444Y9403D01*
X23580Y11000D02*
X27444D01*
X27284D02*
X27444Y10840D01*
X23692Y11000D02*
X27279Y7413D01*
X27444Y7578D02*
Y11000D01*
X21656Y6569D02*
X26087Y11000D01*
X21656Y5850D02*
X26805Y11000D01*
X21656Y8724D02*
X23932Y11000D01*
X21656Y8006D02*
X24650Y11000D01*
X21656Y10879D02*
X23580Y12804D01*
X21656Y9442D02*
X23580Y11367D01*
X21656Y12318D02*
X27144Y6829D01*
X21656Y11600D02*
X27144Y6111D01*
X21656Y7287D02*
X25368Y11000D01*
X24410D02*
X27444Y7966D01*
X27144Y7278D02*
X27444Y7578D01*
X25129Y11000D02*
X27444Y8685D01*
X27144Y6022D02*
Y7278D01*
Y6022D02*
X27772Y5394D01*
X25677Y3406D02*
X27719Y5448D01*
X24958Y3406D02*
X27360Y5807D01*
X22172Y4211D02*
X27444Y9484D01*
X22531Y3852D02*
X27444Y8765D01*
X21656Y5132D02*
X27444Y10921D01*
X21813Y4571D02*
X27444Y10202D01*
X21656Y9444D02*
X27694Y3406D01*
X22890Y3493D02*
X27444Y8047D01*
X21656Y5852D02*
X24102Y3406D01*
X28550D02*
X34389Y9244D01*
X28579Y5394D02*
X30568Y3406D01*
X29269D02*
X30344Y4481D01*
X29987Y3406D02*
X30374Y3793D01*
X29006Y2094D02*
X29194Y1906D01*
X29206D02*
X29394Y2094D01*
X28287D02*
X28476Y1906D01*
X28487D02*
X28676Y2094D01*
X21656Y10881D02*
X29131Y3406D01*
X27114D02*
X29517Y5809D01*
X21656Y10163D02*
X28413Y3406D01*
X26395D02*
X28384Y5394D01*
X27832Y3406D02*
X30236Y5809D01*
X27769Y1906D02*
X27958Y2094D01*
X27569D02*
X27758Y1906D01*
X29724Y2094D02*
X29913Y1906D01*
X29924D02*
X30113Y2094D01*
X28501Y483D02*
X28613Y594D01*
X29069D02*
X29181Y483D01*
X29787Y594D02*
X29899Y483D01*
X29938D02*
X30050Y594D01*
X29219Y483D02*
X29331Y594D01*
X12428D02*
X61522D01*
X483Y483D02*
X96517D01*
X22978Y2094D02*
X34051D01*
X12428Y1906D02*
X34240D01*
X27783Y483D02*
X27894Y594D01*
X28350D02*
X28462Y483D01*
X27632Y594D02*
X27744Y483D01*
X24240Y3406D02*
X27144Y6310D01*
X24895Y1906D02*
X25084Y2094D01*
X24177Y1906D02*
X24365Y2094D01*
X24695D02*
X24884Y1906D01*
X25614D02*
X25802Y2094D01*
X26132D02*
X26321Y1906D01*
X25413Y2094D02*
X25602Y1906D01*
X21656Y8726D02*
X26976Y3406D01*
X21656Y8008D02*
X26258Y3406D01*
X21656Y7289D02*
X25539Y3406D01*
X21656Y6571D02*
X24821Y3406D01*
X23521D02*
X27144Y7029D01*
X23977Y2094D02*
X24165Y1906D01*
X23458D02*
X23647Y2094D01*
X26850D02*
X27039Y1906D01*
X27050D02*
X27239Y2094D01*
X26332Y1906D02*
X26521Y2094D01*
X26195Y594D02*
X26307Y483D01*
X26913Y594D02*
X27025Y483D01*
X27064D02*
X27176Y594D01*
X26346Y483D02*
X26458Y594D01*
X24191Y483D02*
X24302Y594D01*
X24758D02*
X24870Y483D01*
X23472D02*
X23584Y594D01*
X24040D02*
X24152Y483D01*
X25477Y594D02*
X25588Y483D01*
X25627D02*
X25739Y594D01*
X24909Y483D02*
X25021Y594D01*
X22280Y35180D02*
Y40394D01*
X21656Y34587D02*
X22280Y35212D01*
X21656Y36026D02*
X22280Y35402D01*
X21656Y35306D02*
X22280Y35930D01*
X21656Y31715D02*
X23580Y29791D01*
X21656Y29558D02*
X23580Y31483D01*
X21656Y33869D02*
X22967Y35180D01*
X21656Y33152D02*
X23580Y31228D01*
X21656Y37463D02*
X22280Y36838D01*
X21656Y36742D02*
X22280Y37367D01*
X21656Y38181D02*
X22280Y37557D01*
X21656Y37461D02*
X22280Y38085D01*
X21656Y36744D02*
X22280Y36120D01*
X21656Y36024D02*
X22280Y36648D01*
X20000Y31495D02*
X20344Y31839D01*
X21656Y30997D02*
X23580Y29073D01*
X21656Y28840D02*
X23580Y30764D01*
X20000Y28621D02*
X20344Y28965D01*
X20000Y28342D02*
X20344Y27998D01*
X21656Y28123D02*
X23580Y26199D01*
X20000Y27624D02*
X20344Y27279D01*
X20000Y27903D02*
X20344Y28247D01*
X20000Y30497D02*
X20344Y30153D01*
X20000Y30058D02*
X20344Y30402D01*
X20000Y31216D02*
X20344Y30871D01*
X20000Y30776D02*
X20344Y31121D01*
X20000Y29339D02*
X20344Y29684D01*
X20000Y29060D02*
X20344Y28716D01*
X20000Y29779D02*
X20344Y29435D01*
X20000Y34808D02*
X20344Y34463D01*
X20000Y34368D02*
X20344Y34713D01*
X20000Y35526D02*
X20344Y35182D01*
X20000Y35087D02*
X20344Y35431D01*
X20000Y33371D02*
X20344Y33027D01*
X20000Y32932D02*
X20344Y33276D01*
X20000Y34089D02*
X20344Y33745D01*
X20000Y33650D02*
X20344Y33994D01*
X20000Y36963D02*
X20344Y36619D01*
X20000Y36524D02*
X20344Y36868D01*
X20000Y37682D02*
X20344Y37337D01*
X20000Y37242D02*
X20344Y37587D01*
X20000Y36245D02*
X20344Y35900D01*
X20000Y35805D02*
X20344Y36150D01*
X2000Y25783D02*
Y54180D01*
X20000Y26466D02*
X20344Y26810D01*
X20000Y26187D02*
X20344Y25842D01*
X20000Y27184D02*
X20344Y27529D01*
X20000Y26905D02*
X20344Y26561D01*
X20000Y25468D02*
X20344Y25124D01*
X20000Y25029D02*
X20344Y25373D01*
X20000Y25747D02*
X20344Y26092D01*
X20000Y32213D02*
X20344Y32558D01*
X20000Y31934D02*
X20344Y31590D01*
X1906Y32798D02*
X2000Y32892D01*
X20000Y32653D02*
X20344Y32308D01*
X1906Y31350D02*
X2000Y31255D01*
X1906Y26321D02*
X2000Y26226D01*
X1906Y31361D02*
X2000Y31455D01*
X21656Y17345D02*
X23580Y19269D01*
X21656Y18784D02*
X23580Y16859D01*
X21656Y20219D02*
X23580Y22143D01*
X21656Y19502D02*
X23580Y17578D01*
Y11000D02*
Y31520D01*
X21656Y15190D02*
X23580Y17114D01*
X21656Y18065D02*
X23580Y16141D01*
X21656Y15908D02*
X23580Y17833D01*
X21656Y21656D02*
X23580Y23580D01*
X21656Y22376D02*
X23580Y20452D01*
X21656Y23811D02*
X23580Y25735D01*
X21656Y23092D02*
X23580Y25017D01*
X21656Y4728D02*
Y40394D01*
X20000Y16847D02*
X20344Y16503D01*
X20000Y17126D02*
X20344Y17471D01*
X21656Y15910D02*
X23580Y13986D01*
X21656Y13753D02*
X23580Y15677D01*
X21656Y16629D02*
X23580Y14704D01*
X21656Y14471D02*
X23580Y16396D01*
X21656Y13755D02*
X23580Y11830D01*
X21656Y13036D02*
X23580Y11112D01*
X20000Y13974D02*
X20344Y13629D01*
X20000Y15689D02*
X20344Y16034D01*
X20000Y15410D02*
X20344Y15066D01*
X20000Y16408D02*
X20344Y16752D01*
X20000Y16129D02*
X20344Y15785D01*
X20000Y14692D02*
X20344Y14348D01*
X20000Y14253D02*
X20344Y14597D01*
X20000Y14971D02*
X20344Y15315D01*
X20000Y22155D02*
X20344Y22500D01*
X20000Y21876D02*
X20344Y21532D01*
X20000Y22874D02*
X20344Y23218D01*
X20000Y22595D02*
X20344Y22250D01*
Y4728D02*
Y40722D01*
X20000Y20718D02*
X20344Y21063D01*
X20000Y21437D02*
X20344Y21781D01*
X20000Y21158D02*
X20344Y20813D01*
X20000Y24032D02*
X20344Y23687D01*
X20000Y23592D02*
X20344Y23937D01*
X20000Y24750D02*
X20344Y24406D01*
X20000Y24311D02*
X20344Y24655D01*
X20000Y11000D02*
Y42927D01*
Y23313D02*
X20344Y22969D01*
X2000Y11000D02*
Y24514D01*
X20000Y17566D02*
X20344Y17221D01*
X20000Y13534D02*
X20344Y13879D01*
X20000Y18284D02*
X20344Y17940D01*
X20000Y17845D02*
X20344Y18189D01*
X20000Y12816D02*
X20344Y13160D01*
X20000Y12537D02*
X20344Y12192D01*
X20000Y13255D02*
X20344Y12911D01*
X20000Y20000D02*
X20344Y20344D01*
X20000Y19721D02*
X20344Y19377D01*
X20000Y20439D02*
X20344Y20095D01*
X20000Y20000D02*
X20344Y20344D01*
X20000Y19003D02*
X20344Y18658D01*
X20000Y18563D02*
X20344Y18908D01*
X20000Y19282D02*
X20344Y19626D01*
X1906Y34235D02*
X2000Y34329D01*
X1906Y34223D02*
X2000Y34129D01*
X1906Y34953D02*
X2000Y35047D01*
X1906Y34942D02*
X2000Y34847D01*
X1906Y32786D02*
X2000Y32692D01*
X1906Y32079D02*
X2000Y32174D01*
X1906Y33516D02*
X2000Y33611D01*
X1906Y33505D02*
X2000Y33410D01*
X1906Y37097D02*
X2000Y37003D01*
X1906Y36390D02*
X2000Y36484D01*
X1906Y37815D02*
X2000Y37721D01*
X1906Y37108D02*
X2000Y37203D01*
X1906Y35671D02*
X2000Y35766D01*
X1906Y35660D02*
X2000Y35566D01*
X1906Y36379D02*
X2000Y36284D01*
X1906Y28476D02*
X2000Y28382D01*
X1906Y27769D02*
X2000Y27863D01*
X1906Y29194D02*
X2000Y29100D01*
X1906Y28487D02*
X2000Y28582D01*
X1906Y27050D02*
X2000Y27145D01*
X1906Y27039D02*
X2000Y26945D01*
X1906Y27758D02*
X2000Y27663D01*
X1906Y30631D02*
X2000Y30537D01*
X1906Y29924D02*
X2000Y30018D01*
X1906Y32068D02*
X2000Y31974D01*
X1906Y30642D02*
X2000Y30737D01*
X1906Y29913D02*
X2000Y29818D01*
X1906Y29206D02*
X2000Y29300D01*
X483Y28462D02*
X794Y28150D01*
X483Y34248D02*
X794Y34560D01*
X483Y34209D02*
X794Y33898D01*
X483Y34967D02*
X794Y35279D01*
X483Y34928D02*
X794Y34616D01*
X483Y32812D02*
X794Y33123D01*
X483Y32773D02*
X794Y32461D01*
X483Y33530D02*
X794Y33842D01*
X483Y33491D02*
X794Y33179D01*
X483Y37083D02*
X794Y36771D01*
X483Y36404D02*
X794Y36715D01*
X483Y37802D02*
X794Y37490D01*
X483Y37122D02*
X794Y37434D01*
X483Y35685D02*
X794Y35997D01*
X483Y35646D02*
X794Y35335D01*
X483Y36365D02*
X794Y36053D01*
X483Y29181D02*
X794Y28869D01*
X483Y28501D02*
X794Y28813D01*
X483Y29899D02*
X794Y29587D01*
X483Y29219D02*
X794Y29531D01*
X483Y27744D02*
X794Y27432D01*
X483Y27064D02*
X794Y27376D01*
X483Y27783D02*
X794Y28094D01*
X483Y31375D02*
X794Y31687D01*
X483Y31336D02*
X794Y31024D01*
X483Y32093D02*
X794Y32405D01*
X483Y32054D02*
X794Y31742D01*
X483Y30617D02*
X794Y30306D01*
X483Y29938D02*
X794Y30250D01*
X483Y30656D02*
X794Y30968D01*
X483Y17725D02*
X2000Y19242D01*
X483Y19123D02*
X2000Y17605D01*
X1906Y26332D02*
X2000Y26426D01*
X483Y19841D02*
X2000Y18324D01*
X483Y16288D02*
X2000Y17805D01*
X483Y17686D02*
X2000Y16168D01*
X483Y17006D02*
X2000Y18524D01*
X483Y18404D02*
X2000Y16887D01*
X483Y19880D02*
X2000Y21397D01*
X483Y21278D02*
X2000Y19760D01*
X483Y20598D02*
X2000Y22116D01*
X483Y21996D02*
X2000Y20479D01*
X483Y20559D02*
X2000Y19042D01*
X483Y18443D02*
X2000Y19961D01*
X483Y19162D02*
X2000Y20679D01*
X483Y14094D02*
X2000Y12576D01*
X483Y11977D02*
X2000Y13495D01*
X483Y14812D02*
X2000Y13295D01*
X483Y12696D02*
X2000Y14213D01*
X483Y11259D02*
X2000Y12776D01*
X483Y12657D02*
X2000Y11139D01*
X483Y13375D02*
X2000Y11858D01*
X483Y14851D02*
X2000Y16368D01*
X483Y16249D02*
X2000Y14732D01*
X483Y15569D02*
X2000Y17087D01*
X483Y16967D02*
X2000Y15450D01*
X483Y15531D02*
X2000Y14013D01*
X483Y13414D02*
X2000Y14932D01*
X483Y14133D02*
X2000Y15650D01*
X1906Y25878D02*
Y54972D01*
Y25878D02*
X2000Y25783D01*
X794Y25878D02*
Y54972D01*
Y25322D02*
Y25878D01*
Y25322D02*
X1072Y25044D01*
X794Y25322D02*
X1072Y25044D01*
X794Y25322D02*
Y25878D01*
X483Y26307D02*
X794Y25995D01*
X483Y25627D02*
X794Y25939D01*
X483Y27025D02*
X794Y26713D01*
X483Y26346D02*
X794Y26658D01*
X483Y25588D02*
X2000Y24071D01*
X483Y24909D02*
X845Y25271D01*
X483Y483D02*
Y70017D01*
X1324Y24792D02*
X1602Y24514D01*
X2000D01*
X1072Y25044D02*
X1324Y24792D01*
X1602Y24514D01*
X483Y21317D02*
X2000Y22834D01*
X483Y22715D02*
X2000Y21197D01*
X1602Y24514D02*
X2000D01*
X483Y24870D02*
X2000Y23353D01*
X483Y22754D02*
X2000Y24271D01*
X483Y24191D02*
X1204Y24912D01*
X483Y23472D02*
X1564Y24553D01*
X483Y22035D02*
X2000Y23553D01*
X483Y23433D02*
X2000Y21916D01*
X483Y24152D02*
X2000Y22634D01*
X21656Y10161D02*
X23580Y12085D01*
X19382Y11000D02*
X20344Y10037D01*
X20000Y12097D02*
X20344Y12442D01*
X20000Y11100D02*
X20344Y10756D01*
X17226Y11000D02*
X20344Y7882D01*
X16508Y11000D02*
X20344Y7163D01*
X18663Y11000D02*
X20344Y9319D01*
X17945Y11000D02*
X20344Y8600D01*
X14353Y11000D02*
X20344Y5008D01*
X13634Y11000D02*
X20344Y4290D01*
X15789Y11000D02*
X20344Y6445D01*
X15071Y11000D02*
X20344Y5727D01*
X12196Y2138D02*
X20344Y10286D01*
X14119Y1906D02*
X20344Y8131D01*
X11836Y2497D02*
X20344Y11005D01*
X21656Y5134D02*
X23384Y3406D01*
X21656Y4728D02*
X22978Y3406D01*
X20672Y3744D02*
X21994Y2422D01*
X22322Y2094D01*
X22978D01*
X22322D02*
X22978D01*
X21994Y2422D02*
X22322Y2094D01*
X20344Y4072D02*
X20672Y3744D01*
X20344Y4072D02*
X20672Y3744D01*
X20344Y4072D02*
Y4728D01*
Y4072D02*
Y4728D01*
X18429Y1906D02*
X20470Y3946D01*
X19148Y1906D02*
X20829Y3587D01*
X17711Y1906D02*
X20344Y4539D01*
X20000Y11818D02*
X20344Y11474D01*
X20000Y11379D02*
X20344Y11723D01*
X9706Y6113D02*
X14592Y11000D01*
X9706Y5395D02*
X15311Y11000D01*
X10400Y3934D02*
X17466Y11000D01*
X10759Y3575D02*
X18184Y11000D01*
X9706Y4677D02*
X16029Y11000D01*
X10040Y4293D02*
X16747Y11000D01*
X9285Y7848D02*
X12437Y11000D01*
X9644Y7489D02*
X13155Y11000D01*
X8567Y8567D02*
X11000Y11000D01*
X8926Y8207D02*
X11718Y11000D01*
X8605D02*
X17700Y1906D01*
X9324Y11000D02*
X18418Y1906D01*
X9706Y6832D02*
X13874Y11000D01*
X11118Y3215D02*
X18903Y11000D01*
X11477Y2856D02*
X19621Y11000D01*
X9706Y5589D02*
X13389Y1906D01*
X9706Y4871D02*
X12671Y1906D01*
X10042Y11000D02*
X19136Y1906D01*
X10760Y11000D02*
X19855Y1906D01*
X9706Y4628D02*
X12428Y1906D01*
X9706Y6772D02*
Y7428D01*
Y6772D02*
Y7428D01*
X9378Y7756D02*
X9706Y7428D01*
X9378Y7756D02*
X9706Y7428D01*
Y7026D02*
X14826Y1906D01*
X9706Y6308D02*
X14108Y1906D01*
X9706Y4628D02*
Y6772D01*
X19866Y1906D02*
X21189Y3228D01*
X20585Y1906D02*
X21548Y2869D01*
X16274Y1906D02*
X20344Y5976D01*
X16992Y1906D02*
X20344Y5258D01*
X22540Y2094D02*
X22729Y1906D01*
X22740D02*
X22929Y2094D01*
X21303Y1906D02*
X21907Y2510D01*
X22021Y1906D02*
X22266Y2150D01*
X12197Y11000D02*
X21292Y1906D01*
X12916Y11000D02*
X22010Y1906D01*
X11479Y11000D02*
X20573Y1906D01*
X12682D02*
X20344Y9568D01*
X14837Y1906D02*
X20344Y7413D01*
X15556Y1906D02*
X20344Y6694D01*
X13400Y1906D02*
X20344Y8850D01*
X23258Y2094D02*
X23447Y1906D01*
X22035Y483D02*
X22147Y594D01*
X21317Y483D02*
X21429Y594D01*
X21885D02*
X21996Y483D01*
X22754D02*
X22865Y594D01*
X23321D02*
X23433Y483D01*
X22603Y594D02*
X22715Y483D01*
X19729Y594D02*
X19841Y483D01*
X19880D02*
X19992Y594D01*
X19011D02*
X19123Y483D01*
X19162D02*
X19273Y594D01*
X20598Y483D02*
X20710Y594D01*
X21166D02*
X21278Y483D01*
X20448Y594D02*
X20559Y483D01*
X11772Y594D02*
X12428D01*
X11772D02*
X12428D01*
X11827D02*
X11938Y483D01*
X11977D02*
X12089Y594D01*
X13263D02*
X13375Y483D01*
X13414D02*
X13526Y594D01*
X12545D02*
X12657Y483D01*
X12696D02*
X12808Y594D01*
X11444Y922D02*
X11772Y594D01*
X11444Y922D02*
X11772Y594D01*
X8722Y3644D02*
X11444Y922D01*
X9104Y483D02*
X10494Y1873D01*
X10540Y483D02*
X11212Y1154D01*
X11259Y483D02*
X11571Y795D01*
X9822Y483D02*
X10853Y1514D01*
X17006Y483D02*
X17118Y594D01*
X17574D02*
X17686Y483D01*
X16288D02*
X16400Y594D01*
X16856D02*
X16967Y483D01*
X18292Y594D02*
X18404Y483D01*
X18443D02*
X18555Y594D01*
X17725Y483D02*
X17837Y594D01*
X14700D02*
X14812Y483D01*
X14851D02*
X14963Y594D01*
X13982D02*
X14094Y483D01*
X14133D02*
X14244Y594D01*
X15569Y483D02*
X15681Y594D01*
X16137D02*
X16249Y483D01*
X15419Y594D02*
X15531Y483D01*
X7489Y9644D02*
X8845Y11000D01*
X7156D02*
X20000D01*
X7156Y10748D02*
X7408Y11000D01*
X7156Y10029D02*
X8126Y11000D01*
X8207Y8926D02*
X10282Y11000D01*
X8567Y8567D02*
X11000Y11000D01*
X7848Y9285D02*
X9563Y11000D01*
X7156Y9978D02*
X9378Y7756D01*
X7156Y9978D02*
Y11000D01*
X5844Y9322D02*
X6172Y8994D01*
X2827Y7856D02*
X5844Y10873D01*
Y9322D02*
X6172Y8994D01*
X3576Y11000D02*
X8394Y6182D01*
X4982Y7856D02*
X6146Y9020D01*
X2858Y11000D02*
X6002Y7856D01*
X7376Y6657D02*
X7943Y7224D01*
X7735Y6298D02*
X8302Y6865D01*
X7017Y7017D02*
X7583Y7583D01*
X7017Y7017D02*
X7583Y7583D01*
X7856Y6002D02*
X8394Y5463D01*
X7856Y4982D02*
X8394Y5521D01*
X7856Y5700D02*
X8394Y6239D01*
X6298Y7735D02*
X6865Y8302D01*
X6657Y7376D02*
X7224Y7943D01*
X5700Y7856D02*
X6506Y8661D01*
X2822Y7856D02*
X6178D01*
X6172Y8994D02*
X8394Y6772D01*
X6002Y7856D02*
X7856Y6002D01*
X6178Y7856D02*
X7856Y6178D01*
X5013Y11000D02*
X5844Y10169D01*
Y9978D02*
Y11000D01*
X2000D02*
X5844D01*
X5732D02*
X5844Y10887D01*
X2139Y11000D02*
X5284Y7856D01*
X4295Y11000D02*
X5844Y9450D01*
X483Y6948D02*
X4534Y11000D01*
X483Y6230D02*
X5253Y11000D01*
X483Y9104D02*
X2379Y11000D01*
X483Y8385D02*
X3097Y11000D01*
X483Y10540D02*
X2000Y12058D01*
X483Y9822D02*
X2000Y11339D01*
X483Y11938D02*
X4565Y7856D01*
X483Y11220D02*
X3847Y7856D01*
X483Y7667D02*
X3816Y11000D01*
X3545Y7856D02*
X5844Y10155D01*
X4264Y7856D02*
X5844Y9437D01*
Y9322D02*
Y9978D01*
Y9322D02*
Y9978D01*
X1144Y6178D02*
X2822Y7856D01*
X1144Y6173D02*
X2827Y7856D01*
X483Y5512D02*
X1144Y6173D01*
X483Y10502D02*
X3129Y7856D01*
X483Y9783D02*
X2616Y7650D01*
X483Y9065D02*
X2257Y7290D01*
X483Y8346D02*
X1898Y6931D01*
X483Y7628D02*
X1539Y6572D01*
X483Y6909D02*
X1179Y6213D01*
X483Y6191D02*
X1144Y5529D01*
X8394Y3972D02*
Y4628D01*
Y3972D02*
X8722Y3644D01*
X8394Y4628D02*
Y6772D01*
Y3972D02*
Y4628D01*
X7887Y11000D02*
X16981Y1906D01*
X8394Y4027D02*
X11827Y594D01*
X8394Y3972D02*
X8722Y3644D01*
X7856Y3847D02*
X11220Y483D01*
X7856Y4565D02*
X8394Y4027D01*
X7856Y3545D02*
X8394Y4084D01*
X7856Y5284D02*
X8394Y4745D01*
X7856Y4264D02*
X8394Y4802D01*
X7168Y11000D02*
X16263Y1906D01*
X7156Y10294D02*
X15544Y1906D01*
X7856Y2822D02*
Y6178D01*
X6948Y483D02*
X9416Y2950D01*
X7650Y2616D02*
X9783Y483D01*
X7856Y2827D02*
X8698Y3669D01*
X7290Y2257D02*
X9065Y483D01*
X7856Y3129D02*
X10502Y483D01*
X8385D02*
X10135Y2232D01*
X7667Y483D02*
X9775Y2591D01*
X6173Y1144D02*
X7856Y2827D01*
X6178Y1144D02*
X7856Y2822D01*
X6213Y1179D02*
X6909Y483D01*
X5529Y1144D02*
X6191Y483D01*
X6230D02*
X9057Y3310D01*
X6931Y1898D02*
X8346Y483D01*
X6572Y1539D02*
X7628Y483D01*
X483Y1919D02*
X1265Y2702D01*
X483Y1201D02*
X1624Y2343D01*
X1144Y2822D02*
Y6178D01*
X483Y2638D02*
X1144Y3300D01*
Y2822D02*
X2822Y1144D01*
X483Y2599D02*
X2599Y483D01*
X483D02*
X1983Y1983D01*
X483Y4754D02*
X1144Y4092D01*
X483Y4075D02*
X1144Y4737D01*
X483Y5473D02*
X1144Y4811D01*
X483Y4793D02*
X1144Y5455D01*
X483Y3356D02*
X1144Y4018D01*
X483Y3317D02*
X3317Y483D01*
X483Y4036D02*
X1144Y3374D01*
X4075Y483D02*
X4737Y1144D01*
X4092D02*
X4754Y483D01*
X3356D02*
X4018Y1144D01*
X3374D02*
X4036Y483D01*
X4811Y1144D02*
X5473Y483D01*
X5512D02*
X6173Y1144D01*
X4793Y483D02*
X5455Y1144D01*
X483Y483D02*
X1983Y1983D01*
X2822Y1144D02*
X6178D01*
X483Y1881D02*
X1881Y483D01*
X483Y1162D02*
X1162Y483D01*
X1919D02*
X2702Y1265D01*
X2638Y483D02*
X3300Y1144D01*
X1201Y483D02*
X2343Y1624D01*
D11*
X93150Y51040D02*
X94304D01*
X93150D02*
Y52194D01*
Y49886D02*
Y51040D01*
X91996D02*
X93150D01*
X93050Y27000D02*
Y28154D01*
Y25846D02*
Y27000D01*
X94204D01*
X91896D02*
X93050D01*
X93000Y10186D02*
Y11340D01*
X94154D01*
X93000D02*
Y12494D01*
X91846Y11340D02*
X93000D01*
X58793Y4727D02*
Y5881D01*
Y4727D02*
X59947D01*
X58793Y3573D02*
Y4727D01*
X57639D02*
X58793D01*
X28700Y64000D02*
Y65004D01*
Y64000D02*
X29704D01*
X28700Y62996D02*
Y64000D01*
X27696D02*
X28700D01*
X35054Y7250D02*
X36058D01*
X35054Y6246D02*
Y7250D01*
Y8254D01*
X34050Y7250D02*
X35054D01*
D12*
X38600Y26300D02*
X39510D01*
X37510Y29300D02*
X39510D01*
X31893Y36707D02*
X36300Y32300D01*
X39776D01*
X33833Y36887D02*
X35263D01*
X36850Y35300D01*
X39510D01*
X36650Y38300D02*
X39510D01*
X33100Y41850D02*
X36650Y38300D01*
X36500Y41300D02*
X39510D01*
X34550Y43250D02*
X36500Y41300D01*
X31120Y48780D02*
X35600Y44300D01*
X39510D01*
X37105Y46700D02*
X38776D01*
X39376Y47300D02*
X39510D01*
X38776Y46700D02*
X39376Y47300D01*
X33660Y50145D02*
X37105Y46700D01*
X28400Y34700D02*
X32110D01*
X37510Y29300D01*
X31450Y33450D02*
X38600Y26300D01*
X27110Y33450D02*
X31450D01*
X92700Y71850D02*
X96100Y68450D01*
Y19520D02*
Y68450D01*
X93000Y16420D02*
X96100Y19520D01*
X86850Y71850D02*
X92700D01*
X1350Y25600D02*
Y55250D01*
X3350Y57250D01*
X1880Y25070D02*
X3280D01*
X3380Y24970D01*
X1350Y25600D02*
X1880Y25070D01*
X33450Y67350D02*
X36700Y70600D01*
X14000Y67350D02*
X33450D01*
X5570Y58920D02*
X14000Y67350D01*
X7100Y58650D02*
X14450Y66000D01*
X34450D02*
X38650Y70200D01*
X14450Y66000D02*
X34450D01*
X5950Y36800D02*
Y38300D01*
X7100Y39450D01*
Y58650D01*
X38650Y75566D02*
X38884Y75800D01*
X38650Y70200D02*
Y75566D01*
X38884Y75800D02*
X47160D01*
X48360Y77000D01*
X5570Y40220D02*
Y58920D01*
X36700Y78700D02*
X36950Y78950D01*
X36700Y70600D02*
Y78700D01*
X36950Y78950D02*
X45586D01*
X45820Y78716D01*
Y77000D02*
Y78716D01*
X45210Y17370D02*
X45230Y17350D01*
X23500Y37060D02*
X27110Y33450D01*
X26040Y37060D02*
X28400Y34700D01*
X31120Y37060D02*
X31424D01*
X31777Y36707D01*
X31893D01*
X33660Y37060D02*
X33833Y36887D01*
X27050Y41850D02*
X33100D01*
X28400Y43250D02*
X34550D01*
X31120Y48780D02*
Y52300D01*
X33660Y50145D02*
Y52300D01*
X26040Y45610D02*
X28400Y43250D01*
X26040Y45610D02*
Y52300D01*
X23500Y45400D02*
Y52300D01*
Y45400D02*
X27050Y41850D01*
D13*
X38086Y49100D02*
X47103D01*
X37400Y48500D02*
X37486D01*
X38086Y49100D01*
X50200Y44650D02*
Y46003D01*
X47103Y49100D02*
X50200Y46003D01*
X21000Y41050D02*
Y42910D01*
Y4400D02*
Y41050D01*
X24200D01*
X21000Y4400D02*
X22650Y2750D01*
X18620Y45290D02*
X21000Y42910D01*
X3380Y30050D02*
X6500Y26930D01*
Y9650D02*
Y26930D01*
X63874Y3273D02*
Y4727D01*
X12100Y1250D02*
X61850D01*
X63874Y3273D01*
X22650Y2750D02*
X35054D01*
X47350Y17350D02*
X50200Y20200D01*
Y44650D01*
X45230Y17350D02*
X47350D01*
X9050Y4300D02*
X12100Y1250D01*
X9050Y4300D02*
Y7100D01*
X6500Y9650D02*
X9050Y7100D01*
D14*
X42600Y10200D02*
X61450D01*
X35600D02*
X42600D01*
Y17300D01*
X42670Y17370D01*
X15950Y35130D02*
X18620D01*
X15400Y34580D02*
X15950Y35130D01*
X13842Y33022D02*
X15400Y34580D01*
X83700Y9150D02*
X83900D01*
X8822Y33022D02*
X13842D01*
X6200Y29650D02*
X6315Y29765D01*
Y30515D02*
X8822Y33022D01*
X6315Y29765D02*
Y30515D01*
X28400Y6650D02*
Y26160D01*
X61333Y4727D02*
Y10083D01*
X61450Y10200D01*
X67778D01*
X28400Y26160D02*
X32390Y30150D01*
X28515Y6765D02*
X29815D01*
X33250Y10200D01*
X28400Y6650D02*
X28515Y6765D01*
X33250Y10200D02*
X35600D01*
X12900Y42350D02*
X13062D01*
X35600Y10200D02*
Y13700D01*
X32390Y14910D02*
X32433Y14867D01*
X34433D01*
X35600Y13700D01*
X67778Y10200D02*
X70100Y12522D01*
D15*
X91336Y53400D02*
X91363Y53427D01*
X90336Y53400D02*
X91336D01*
X89750Y53986D02*
X90336Y53400D01*
X89750Y53986D02*
Y60250D01*
X92997Y53427D02*
X93150Y53580D01*
X91363Y53427D02*
X92997D01*
X86400Y63600D02*
X89750Y60250D01*
X80200Y63600D02*
X86400D01*
X75800Y68000D02*
X80200Y63600D01*
X75114Y68000D02*
X75800D01*
X15400Y55600D02*
Y56600D01*
Y34580D02*
Y55600D01*
X18300D01*
X26150Y63990D02*
X26160Y64000D01*
X26150Y61300D02*
Y63990D01*
Y61300D02*
X32100Y55350D01*
X35750D01*
X21000Y52750D02*
Y54550D01*
X23620Y57170D01*
Y64000D01*
X15400Y56600D02*
X21080Y62280D01*
Y63919D01*
X39150Y68000D02*
X75114D01*
X35750Y64600D02*
X39150Y68000D01*
X76300Y69186D02*
Y74460D01*
X75114Y68000D02*
X76300Y69186D01*
X35750Y55350D02*
Y64600D01*
X26160Y64000D02*
Y64026D01*
X35750Y55350D02*
X39800Y51300D01*
D16*
X45322D02*
X62172D01*
X39800D02*
X45322D01*
X83700Y5327D02*
Y9150D01*
X77800Y37400D02*
Y40150D01*
X70100Y34900D02*
X75300D01*
X77800Y37400D01*
X70100Y34900D02*
Y50128D01*
Y23800D02*
Y34900D01*
X58900Y36600D02*
Y40050D01*
X60600Y34900D02*
X70100D01*
X58900Y36600D02*
X60600Y34900D01*
X60121Y13800D02*
X70100D01*
X78100Y11350D02*
X81500D01*
X71272D02*
X78100D01*
X77880Y11570D02*
Y17670D01*
X70100Y13800D02*
Y23800D01*
Y12522D02*
Y13800D01*
X58950Y14972D02*
Y17440D01*
Y14972D02*
X60121Y13800D01*
X70100Y23800D02*
X76728D01*
X60500D02*
X70100D01*
X77900Y24972D02*
Y28930D01*
X76728Y23800D02*
X77900Y24972D01*
X58950Y25350D02*
X60500Y23800D01*
X58950Y25350D02*
Y28720D01*
X81500Y11350D02*
X83700Y9150D01*
X70100Y12522D02*
X71272Y11350D01*
X44150Y52472D02*
Y57020D01*
Y52472D02*
X45322Y51300D01*
X61000Y52472D02*
X62172Y51300D01*
X61000Y52472D02*
Y57050D01*
X62172Y51300D02*
X71272D01*
X75600D01*
X70100Y50128D02*
X71272Y51300D01*
X75600D02*
X77800Y53500D01*
Y56970D01*
D17*
X92850Y13730D02*
X93000Y13880D01*
X88630D02*
X93000D01*
X83900Y9150D02*
X88630Y13880D01*
D18*
X77800Y40150D02*
X77880Y40230D01*
X58720D02*
X58900Y40050D01*
X77880Y11570D02*
X78100Y11350D01*
X58720Y17670D02*
X58950Y17440D01*
X77880Y28950D02*
X77900Y28930D01*
X58720Y28950D02*
X58950Y28720D01*
X44120Y57050D02*
X44150Y57020D01*
X77800Y56970D02*
X77880Y57050D01*
D19*
X39510Y32300D02*
D03*
X47130D02*
D03*
X92900Y36500D02*
D03*
Y44120D02*
D03*
X39510Y38300D02*
D03*
X47130D02*
D03*
X39510Y41300D02*
D03*
X47130D02*
D03*
X39510Y44300D02*
D03*
X47130D02*
D03*
X39510Y47300D02*
D03*
X47130D02*
D03*
X47130Y35300D02*
D03*
X39510D02*
D03*
X47130Y29300D02*
D03*
X39510D02*
D03*
X47130Y26300D02*
D03*
X39510D02*
D03*
D20*
X28700Y64000D02*
D03*
X42670Y17370D02*
D03*
D21*
X26160Y64000D02*
D03*
X23620D02*
D03*
X21080D02*
D03*
X18540D02*
D03*
X16000D02*
D03*
X40130Y17370D02*
D03*
X45210D02*
D03*
X41554Y7250D02*
D03*
X35054D02*
D03*
X41554Y2750D02*
D03*
X35054D02*
D03*
D22*
X92500Y66000D02*
D03*
X4500D02*
D03*
X92500Y4500D02*
D03*
X4500D02*
D03*
D23*
X40740Y74460D02*
D03*
Y77000D02*
D03*
X43280Y74460D02*
D03*
Y77000D02*
D03*
X45820Y74460D02*
D03*
Y77000D02*
D03*
X48360Y74460D02*
D03*
Y77000D02*
D03*
X50900Y74460D02*
D03*
Y77000D02*
D03*
X53440Y74460D02*
D03*
Y77000D02*
D03*
X55980Y74460D02*
D03*
Y77000D02*
D03*
X58520Y74460D02*
D03*
Y77000D02*
D03*
X61060Y74460D02*
D03*
Y77000D02*
D03*
X63600Y74460D02*
D03*
Y77000D02*
D03*
X66140Y74460D02*
D03*
Y77000D02*
D03*
X68680Y74460D02*
D03*
Y77000D02*
D03*
X71220Y74460D02*
D03*
Y77000D02*
D03*
X73760Y74460D02*
D03*
Y77000D02*
D03*
X76300Y74460D02*
D03*
Y77000D02*
D03*
X78840Y74460D02*
D03*
Y77000D02*
D03*
X81380Y74460D02*
D03*
Y77000D02*
D03*
X83920Y74460D02*
D03*
Y77000D02*
D03*
X86460Y74460D02*
D03*
Y77000D02*
D03*
X89000Y74460D02*
D03*
Y77000D02*
D03*
D24*
X93000Y16420D02*
D03*
Y13880D02*
D03*
Y11340D02*
D03*
X93050Y27000D02*
D03*
Y29540D02*
D03*
X93150Y58660D02*
D03*
Y56120D02*
D03*
Y53580D02*
D03*
Y51040D02*
D03*
X58793Y4727D02*
D03*
X61333D02*
D03*
X63874D02*
D03*
X3380Y50370D02*
D03*
Y47830D02*
D03*
Y45290D02*
D03*
Y42750D02*
D03*
Y40210D02*
D03*
Y37670D02*
D03*
Y35130D02*
D03*
Y32590D02*
D03*
Y30050D02*
D03*
Y27510D02*
D03*
Y24970D02*
D03*
Y22430D02*
D03*
Y19890D02*
D03*
Y17350D02*
D03*
Y14810D02*
D03*
X18620D02*
D03*
Y17350D02*
D03*
Y19890D02*
D03*
Y22430D02*
D03*
Y24970D02*
D03*
Y27510D02*
D03*
Y30050D02*
D03*
Y32590D02*
D03*
Y35130D02*
D03*
Y37670D02*
D03*
Y40210D02*
D03*
Y42750D02*
D03*
Y45290D02*
D03*
Y47830D02*
D03*
Y50370D02*
D03*
X8470Y52810D02*
D03*
X11010D02*
D03*
X13550D02*
D03*
X8470Y50270D02*
D03*
X11010D02*
D03*
X13550D02*
D03*
D25*
X3380Y12270D02*
D03*
X18620D02*
D03*
X3380Y52910D02*
D03*
X18620D02*
D03*
X23500Y37060D02*
D03*
X26040D02*
D03*
X28580D02*
D03*
X31120D02*
D03*
X33660D02*
D03*
Y52300D02*
D03*
X31120D02*
D03*
X28580D02*
D03*
X26040D02*
D03*
X23500D02*
D03*
D26*
X32390Y30150D02*
D03*
Y27610D02*
D03*
Y25070D02*
D03*
Y22530D02*
D03*
Y19990D02*
D03*
Y17450D02*
D03*
Y14910D02*
D03*
Y12370D02*
D03*
X24770D02*
D03*
Y14910D02*
D03*
Y17450D02*
D03*
Y19990D02*
D03*
Y22530D02*
D03*
Y25070D02*
D03*
Y27610D02*
D03*
D27*
Y30150D02*
D03*
D28*
X57040Y57050D02*
D03*
X61000D02*
D03*
X64960D02*
D03*
X68920D02*
D03*
X73920D02*
D03*
X77880D02*
D03*
X81840D02*
D03*
X85800D02*
D03*
X40160D02*
D03*
X44120D02*
D03*
X48080D02*
D03*
X52040D02*
D03*
X54760Y40230D02*
D03*
X58720D02*
D03*
X62680D02*
D03*
X66640D02*
D03*
X73920D02*
D03*
X77880D02*
D03*
X81840D02*
D03*
X85800D02*
D03*
X73920Y28950D02*
D03*
X77880D02*
D03*
X81840D02*
D03*
X85800D02*
D03*
X54760D02*
D03*
X58720D02*
D03*
X62680D02*
D03*
X66640D02*
D03*
X73920Y17670D02*
D03*
X77880D02*
D03*
X81840D02*
D03*
X85800D02*
D03*
X54760D02*
D03*
X58720D02*
D03*
X62680D02*
D03*
X66640D02*
D03*
D29*
X83700Y5327D02*
D03*
X78700D02*
D03*
D30*
X37400Y48500D02*
D03*
X64550Y72000D02*
D03*
X24400Y41050D02*
D03*
X86850Y71850D02*
D03*
X83350Y69300D02*
D03*
X18300Y55600D02*
D03*
X3350Y57250D02*
D03*
X11050Y28050D02*
D03*
X5950Y36800D02*
D03*
X5570Y40220D02*
D03*
X21000Y52750D02*
D03*
D31*
X28400Y6650D02*
D03*
X6200Y29650D02*
D03*
X31600Y4450D02*
D03*
X12900Y42350D02*
D03*
%TF.MD5,d13246ef33d085d5c56ba9f48c37eae3*%
M02*
