%TF.GenerationSoftware,Altium Limited,Altium Designer,21.8.1 (53)*%
G04 Layer_Physical_Order=1*
G04 Layer_Color=255*
%FSLAX43Y43*%
%MOMM*%
%TF.SameCoordinates,2523FC94-2157-46A2-8D95-2E3533E7A92D*%
%TF.FilePolarity,Positive*%
%TF.FileFunction,Copper,L1,Top,Signal*%
%TF.Part,Single*%
G01*
G75*
%TA.AperFunction,NonConductor*%
%ADD10C,0.203*%
%ADD11C,0.254*%
%TA.AperFunction,Conductor*%
%ADD12C,1.200*%
%ADD13C,0.600*%
%ADD14C,2.800*%
%ADD15C,2.000*%
%ADD16C,0.400*%
%TA.AperFunction,ComponentPad*%
%ADD17C,1.800*%
%ADD18C,1.500*%
%ADD19R,1.500X1.500*%
%ADD20C,1.524*%
%ADD21C,1.425*%
%ADD22R,1.425X1.425*%
%ADD23C,1.400*%
%ADD24C,3.200*%
%TA.AperFunction,ViaPad*%
%ADD25C,6.000*%
%TA.AperFunction,ComponentPad*%
%ADD26C,1.950*%
%TA.AperFunction,ViaPad*%
%ADD27C,1.800*%
%ADD28C,1.270*%
D10*
X92554Y70017D02*
X93215Y69356D01*
X93063D02*
X93725Y70017D01*
X92345Y69356D02*
X93007Y70017D01*
X93782Y69356D02*
X94444Y70017D01*
X94339Y69194D02*
X95162Y70017D01*
X93272D02*
X93934Y69356D01*
X90908D02*
X91570Y70017D01*
X91117D02*
X91779Y69356D01*
X90398Y70017D02*
X91060Y69356D01*
X91627D02*
X92288Y70017D01*
X91835D02*
X92497Y69356D01*
X88404Y67570D02*
X90852Y70017D01*
X95427D02*
X96517Y68927D01*
X95057Y68476D02*
X96517Y69936D01*
X96146Y70017D02*
X96517Y69646D01*
X95417Y68117D02*
X96517Y69217D01*
X95776Y67757D02*
X96517Y68499D01*
X94709Y70017D02*
X96517Y68209D01*
X94698Y68835D02*
X95881Y70017D01*
X90822Y69356D02*
X94178D01*
X89144Y67678D02*
X90822Y69356D01*
X94178D02*
X95856Y67678D01*
X89144Y67592D02*
X90908Y69356D01*
X83375Y67570D02*
X85823Y70017D01*
X83933D02*
X86380Y67570D01*
X83214Y70017D02*
X85661Y67570D01*
X84651Y70017D02*
X87098Y67570D01*
X84812D02*
X87260Y70017D01*
X84094Y67570D02*
X86541Y70017D01*
X81777D02*
X84225Y67570D01*
X81938D02*
X84386Y70017D01*
X81220Y67570D02*
X83667Y70017D01*
X82657Y67570D02*
X85104Y70017D01*
X82496D02*
X84943Y67570D01*
X88961Y70017D02*
X90223Y68756D01*
X89680Y70017D02*
X90582Y69115D01*
X88243Y70017D02*
X89864Y68397D01*
X87525Y70017D02*
X89504Y68038D01*
X87686Y67570D02*
X90133Y70017D01*
X86967Y67570D02*
X89415Y70017D01*
X85531Y67570D02*
X87978Y70017D01*
X86806D02*
X89145Y67678D01*
X85369Y70017D02*
X87817Y67570D01*
X86249D02*
X88696Y70017D01*
X86088D02*
X88535Y67570D01*
X95856Y65682D02*
X96517Y66344D01*
X95856Y65997D02*
X96517Y65335D01*
X95856Y66715D02*
X96517Y66054D01*
X95856Y65279D02*
X96517Y64617D01*
X95856Y64560D02*
X96517Y63898D01*
X95856Y64963D02*
X96517Y65625D01*
X95856Y67119D02*
X96517Y67781D01*
X95856Y67434D02*
X96517Y66772D01*
X93990Y70017D02*
X96517Y67490D01*
X95856Y66400D02*
X96517Y67062D01*
X88800Y57189D02*
X96517Y64907D01*
X95856Y64322D02*
Y67678D01*
X95615Y64082D02*
X96517Y63180D01*
X95256Y63723D02*
X96517Y62461D01*
X94178Y62644D02*
X95856Y64322D01*
X94538Y63004D02*
X96517Y61025D01*
X88800Y55034D02*
X96517Y62752D01*
X94897Y63364D02*
X96517Y61743D01*
X88800Y56471D02*
X96517Y64188D01*
X88800Y63713D02*
X96517Y55996D01*
X88800Y64431D02*
X96517Y56714D01*
X88800Y62995D02*
X96517Y55277D01*
X88800Y55753D02*
X96517Y63470D01*
X93934Y69356D02*
X95856Y67434D01*
X88800Y66587D02*
X89144Y66242D01*
Y64322D02*
Y67678D01*
X88800Y65811D02*
X89144Y66155D01*
X88800Y67247D02*
X89144Y67592D01*
X88800Y67305D02*
X89144Y66961D01*
X81059Y70017D02*
X83506Y67570D01*
X88800Y66529D02*
X89144Y66873D01*
X88800Y51750D02*
Y67570D01*
Y62937D02*
X89665Y63802D01*
X89144Y64322D02*
X90822Y62644D01*
X88800Y61500D02*
X90383Y63083D01*
X88800Y62218D02*
X90024Y63443D01*
X88800Y65092D02*
X89144Y65437D01*
X88800Y65150D02*
X89144Y64805D01*
X88800Y65868D02*
X89144Y65524D01*
X88800Y63655D02*
X89306Y64161D01*
X88800Y64374D02*
X89144Y64718D01*
X59667Y67570D02*
X62115Y70017D01*
X60225D02*
X62672Y67570D01*
X59506Y70017D02*
X61954Y67570D01*
X60943Y70017D02*
X63390Y67570D01*
X61104D02*
X63552Y70017D01*
X60386Y67570D02*
X62833Y70017D01*
X57512Y67570D02*
X59959Y70017D01*
X58069D02*
X60517Y67570D01*
X57351Y70017D02*
X59798Y67570D01*
X58788Y70017D02*
X61235Y67570D01*
X58949D02*
X61396Y70017D01*
X58231Y67570D02*
X60678Y70017D01*
X63817D02*
X66264Y67570D01*
X63978D02*
X66425Y70017D01*
X63259Y67570D02*
X65707Y70017D01*
X64696Y67570D02*
X67144Y70017D01*
X65254D02*
X67701Y67570D01*
X64535Y70017D02*
X66983Y67570D01*
X61823D02*
X64270Y70017D01*
X62380D02*
X64827Y67570D01*
X61661Y70017D02*
X64109Y67570D01*
X63098Y70017D02*
X65546Y67570D01*
X62541D02*
X64988Y70017D01*
X51604D02*
X54051Y67570D01*
X51765D02*
X54212Y70017D01*
X51046Y67570D02*
X53494Y70017D01*
X52483Y67570D02*
X54931Y70017D01*
X53040D02*
X55488Y67570D01*
X52322Y70017D02*
X54769Y67570D01*
X49609D02*
X52057Y70017D01*
X50167D02*
X52614Y67570D01*
X49448Y70017D02*
X51896Y67570D01*
X50885Y70017D02*
X53333Y67570D01*
X50328D02*
X52775Y70017D01*
X55357Y67570D02*
X57804Y70017D01*
X55914D02*
X58361Y67570D01*
X55196Y70017D02*
X57643Y67570D01*
X56632Y70017D02*
X59080Y67570D01*
X56794D02*
X59241Y70017D01*
X56075Y67570D02*
X58523Y70017D01*
X53759D02*
X56206Y67570D01*
X53920D02*
X56367Y70017D01*
X53202Y67570D02*
X55649Y70017D01*
X54638Y67570D02*
X57086Y70017D01*
X54477D02*
X56925Y67570D01*
X75311Y70017D02*
X77759Y67570D01*
X75473D02*
X77920Y70017D01*
X74754Y67570D02*
X77202Y70017D01*
X76191Y67570D02*
X78638Y70017D01*
X76748D02*
X79196Y67570D01*
X76030Y70017D02*
X78477Y67570D01*
X73317D02*
X75765Y70017D01*
X73875D02*
X76322Y67570D01*
X73156Y70017D02*
X75604Y67570D01*
X74593Y70017D02*
X77040Y67570D01*
X74036D02*
X76483Y70017D01*
X79065Y67570D02*
X81512Y70017D01*
X79622D02*
X82069Y67570D01*
X78904Y70017D02*
X81351Y67570D01*
X80340Y70017D02*
X82788Y67570D01*
X80502D02*
X82949Y70017D01*
X79783Y67570D02*
X82231Y70017D01*
X77467D02*
X79914Y67570D01*
X77628D02*
X80075Y70017D01*
X76909Y67570D02*
X79357Y70017D01*
X78346Y67570D02*
X80794Y70017D01*
X78185D02*
X80633Y67570D01*
X67570D02*
X70017Y70017D01*
X67570Y67570D02*
X70017Y70017D01*
X67409D02*
X69856Y67570D01*
X68288D02*
X70736Y70017D01*
X68846D02*
X71293Y67570D01*
X68127Y70017D02*
X70575Y67570D01*
X65972Y70017D02*
X68419Y67570D01*
X66133D02*
X68581Y70017D01*
X65415Y67570D02*
X67862Y70017D01*
X66852Y67570D02*
X69299Y70017D01*
X66690D02*
X69138Y67570D01*
X71162D02*
X73610Y70017D01*
X71719D02*
X74167Y67570D01*
X71001Y70017D02*
X73448Y67570D01*
X72438Y70017D02*
X74885Y67570D01*
X72599D02*
X75046Y70017D01*
X71881Y67570D02*
X74328Y70017D01*
X69564D02*
X72011Y67570D01*
X69725D02*
X72173Y70017D01*
X69007Y67570D02*
X71454Y70017D01*
X70444Y67570D02*
X72891Y70017D01*
X70282D02*
X72730Y67570D01*
X88800Y57966D02*
X96517Y50248D01*
X88800Y57247D02*
X96517Y49530D01*
X94178Y62645D02*
X96517Y60306D01*
X88800Y55810D02*
X96517Y48093D01*
X88800Y55092D02*
X96517Y47375D01*
X88800Y56529D02*
X96517Y48811D01*
X88800Y50724D02*
X96517Y58441D01*
X88800Y50005D02*
X96517Y57723D01*
X88800Y60121D02*
X96517Y52404D01*
X88800Y48568D02*
X96517Y56286D01*
X88800Y47850D02*
X96517Y55567D01*
X88800Y49287D02*
X96517Y57004D01*
X88800Y53655D02*
X96517Y45938D01*
X88800Y52937D02*
X96517Y45219D01*
X88800Y54374D02*
X96517Y46656D01*
X88800Y44258D02*
X96517Y51975D01*
X88800Y43539D02*
X96517Y51257D01*
X88800Y52218D02*
X96517Y44501D01*
X88800Y46413D02*
X96517Y54131D01*
X88800Y45695D02*
X96517Y53412D01*
X88800Y47132D02*
X96517Y54849D01*
X88550Y51750D02*
X96517Y43783D01*
X88800Y44976D02*
X96517Y52694D01*
X93461Y62644D02*
X96517Y59588D01*
X92742Y62644D02*
X96517Y58869D01*
X90822Y62644D02*
X94178D01*
X91305D02*
X96517Y57432D01*
X88800Y62276D02*
X96517Y54559D01*
X92024Y62644D02*
X96517Y58151D01*
X88800Y60063D02*
X91381Y62644D01*
X88800Y59345D02*
X92100Y62644D01*
X88800Y60782D02*
X90743Y62724D01*
X88800Y57908D02*
X93537Y62644D01*
X88800Y58626D02*
X92818Y62644D01*
X88800Y60839D02*
X96517Y53122D01*
X88800Y52879D02*
X96517Y60596D01*
X88800Y53597D02*
X96517Y61315D01*
X88800Y59403D02*
X96517Y51685D01*
X88800Y58684D02*
X96517Y50967D01*
X88800Y52161D02*
X96517Y59878D01*
X88800Y54316D02*
X96517Y62033D01*
X88800Y61558D02*
X96517Y53840D01*
X87113Y51750D02*
X88113Y50750D01*
X88108D02*
X96517Y59160D01*
X87389Y50750D02*
X88389Y51750D01*
X88800Y40724D02*
X96517Y33006D01*
X88800Y32763D02*
X96517Y40481D01*
X88800Y33482D02*
X96517Y41199D01*
X88800Y32045D02*
X96517Y39762D01*
X88800Y39287D02*
X96517Y31569D01*
X88800Y40005D02*
X96517Y32288D01*
X88800Y34918D02*
X96517Y42636D01*
X88800Y42160D02*
X96517Y34443D01*
X88800Y42879D02*
X96517Y35161D01*
X88800Y41442D02*
X96517Y33725D01*
X88800Y34200D02*
X96517Y41917D01*
X88800Y29171D02*
X96517Y36888D01*
X88800Y36413D02*
X96517Y28696D01*
X88800Y37131D02*
X96517Y29414D01*
X88800Y35695D02*
X96517Y27977D01*
X88800Y27734D02*
X96517Y35452D01*
X88800Y28453D02*
X96517Y36170D01*
X88800Y38568D02*
X96517Y30851D01*
X88800Y30608D02*
X96517Y38325D01*
X88800Y31326D02*
X96517Y39044D01*
X88800Y29889D02*
X96517Y37607D01*
X88800Y37850D02*
X96517Y30132D01*
X88800Y48626D02*
X96517Y40909D01*
X88800Y40666D02*
X96517Y48383D01*
X88800Y41384D02*
X96517Y49102D01*
X88800Y39947D02*
X96517Y47665D01*
X88800Y47189D02*
X96517Y39472D01*
X88800Y47908D02*
X96517Y40190D01*
X88800Y42821D02*
X96517Y50538D01*
X88800Y50063D02*
X96517Y42346D01*
X87831Y51750D02*
X96517Y43064D01*
X88800Y49345D02*
X96517Y41627D01*
X88800Y42103D02*
X96517Y49820D01*
X88800Y37074D02*
X96517Y44791D01*
X88800Y44316D02*
X96517Y36598D01*
X88800Y45034D02*
X96517Y37317D01*
X88800Y43597D02*
X96517Y35880D01*
X88800Y35637D02*
X96517Y43354D01*
X88800Y36355D02*
X96517Y44073D01*
X88800Y46471D02*
X96517Y38754D01*
X88800Y38511D02*
X96517Y46228D01*
X88800Y39229D02*
X96517Y46946D01*
X88800Y37792D02*
X96517Y45509D01*
X88800Y45753D02*
X96517Y38035D01*
X82084Y51750D02*
X83084Y50750D01*
X82361D02*
X83361Y51750D01*
X81642Y50750D02*
X82642Y51750D01*
X83079Y50750D02*
X84079Y51750D01*
X83521D02*
X84521Y50750D01*
X82803Y51750D02*
X83803Y50750D01*
X79929Y51750D02*
X80929Y50750D01*
X80205D02*
X81205Y51750D01*
X79487Y50750D02*
X80487Y51750D01*
X80924Y50750D02*
X81924Y51750D01*
X81366D02*
X82366Y50750D01*
X80647Y51750D02*
X81647Y50750D01*
X85234D02*
X86234Y51750D01*
X85676D02*
X86676Y50750D01*
X84958Y51750D02*
X85958Y50750D01*
X86395Y51750D02*
X87395Y50750D01*
X86671D02*
X87671Y51750D01*
X85953Y50750D02*
X86953Y51750D01*
X78683D02*
X88800D01*
X77683Y50750D02*
X88800D01*
X83797D02*
X84797Y51750D01*
X84516Y50750D02*
X85516Y51750D01*
X84239D02*
X85239Y50750D01*
X78050D02*
X79050Y51750D01*
X78228Y51295D02*
X78774Y50750D01*
X77869Y50936D02*
X78055Y50750D01*
X78768D02*
X79768Y51750D01*
X79210D02*
X80210Y50750D01*
X78588Y51654D02*
X79492Y50750D01*
X77683D02*
X78678Y51744D01*
X48369Y49544D02*
X51760Y46153D01*
X49087Y49544D02*
X51760Y46871D01*
X46932Y49544D02*
X51760Y44716D01*
X47650Y49544D02*
X51760Y45435D01*
X50524Y49544D02*
X51760Y48308D01*
X50431Y45402D02*
X51760Y46731D01*
X51242Y49544D02*
X51760Y49027D01*
X50856Y44390D02*
X51760Y45294D01*
X50856Y44902D02*
X51760Y43998D01*
X50790Y45043D02*
X51760Y46013D01*
X49805Y49544D02*
X51760Y47590D01*
X49354Y46480D02*
X51760Y48886D01*
X46199Y49544D02*
X51760D01*
X50072Y45761D02*
X51760Y47449D01*
X49713Y46121D02*
X51760Y48168D01*
X50856Y32895D02*
X51760Y33799D01*
X50856Y33408D02*
X51760Y32503D01*
X50856Y34126D02*
X51760Y33222D01*
X50856Y32689D02*
X51760Y31785D01*
X50856Y31458D02*
X51760Y32363D01*
X50856Y32177D02*
X51760Y33081D01*
X50856Y35563D02*
X51760Y34658D01*
X50856Y34332D02*
X51760Y35236D01*
X50856Y35050D02*
X51760Y35955D01*
X50856Y33613D02*
X51760Y34518D01*
X50856Y34844D02*
X51760Y33940D01*
X50856Y29815D02*
X51760Y28911D01*
X50856Y28585D02*
X51760Y29489D01*
X50856Y29303D02*
X51760Y30207D01*
X50856Y27866D02*
X51760Y28771D01*
X50856Y28379D02*
X51760Y27474D01*
X50856Y29097D02*
X51760Y28193D01*
X50856Y30740D02*
X51760Y31644D01*
X50856Y31252D02*
X51760Y30348D01*
X50856Y31971D02*
X51760Y31066D01*
X50856Y30534D02*
X51760Y29629D01*
X50856Y30021D02*
X51760Y30926D01*
X50856Y41516D02*
X51760Y42421D01*
X50856Y42029D02*
X51760Y41124D01*
X50856Y42747D02*
X51760Y41843D01*
X50856Y41310D02*
X51760Y40406D01*
X50856Y40079D02*
X51760Y40984D01*
X50856Y40798D02*
X51760Y41702D01*
X50856Y44184D02*
X51760Y43279D01*
X50856Y42953D02*
X51760Y43857D01*
X50856Y43671D02*
X51760Y44576D01*
X50856Y42235D02*
X51760Y43139D01*
X50856Y43465D02*
X51760Y42561D01*
X50856Y37206D02*
X51760Y38110D01*
X50856Y37718D02*
X51760Y36814D01*
X50856Y38436D02*
X51760Y37532D01*
X50856Y37000D02*
X51760Y36095D01*
X50856Y35769D02*
X51760Y36673D01*
X50856Y36487D02*
X51760Y37392D01*
X50856Y39873D02*
X51760Y38969D01*
X50856Y38642D02*
X51760Y39547D01*
X50856Y40592D02*
X51760Y39687D01*
X50856Y37924D02*
X51760Y38828D01*
X50856Y39155D02*
X51760Y38251D01*
X47454Y67570D02*
X49902Y70017D01*
X48011D02*
X50459Y67570D01*
X47293Y70017D02*
X49740Y67570D01*
X48730Y70017D02*
X51177Y67570D01*
X48891D02*
X51338Y70017D01*
X48173Y67570D02*
X50620Y70017D01*
X46017Y67570D02*
X48465Y70017D01*
X46575D02*
X49022Y67570D01*
X45856Y70017D02*
X48304Y67570D01*
X46736D02*
X49183Y70017D01*
X46419Y47856D02*
X48108Y49544D01*
X46213D02*
X47902Y47856D01*
X47856D02*
X49544Y49544D01*
X48276Y47557D02*
X50263Y49544D01*
X47978Y47856D02*
X48306Y47528D01*
X48635Y47198D02*
X50981Y49544D01*
X48994Y46839D02*
X51700Y49544D01*
X47978Y47856D02*
X48306Y47528D01*
X47137Y47856D02*
X48826Y49544D01*
X47322Y47856D02*
X47978D01*
X47322D02*
X47978D01*
X47856D02*
X49544Y49544D01*
X47506Y45351D02*
X48011Y45856D01*
X44581Y67570D02*
X47028Y70017D01*
X45138D02*
X47585Y67570D01*
X44419Y70017D02*
X46867Y67570D01*
X45299D02*
X47746Y70017D01*
X44444Y49544D02*
X46199D01*
X44263Y47856D02*
X45952Y49544D01*
X43701Y70017D02*
X46148Y67570D01*
X43862D02*
X46310Y70017D01*
X43566Y50422D02*
X44444Y49544D01*
X43588Y47898D02*
X45234Y49544D01*
X43566Y50422D02*
X44444Y49544D01*
X45495D02*
X47184Y47856D01*
X45700D02*
X47389Y49544D01*
X44982Y47856D02*
X46671Y49544D01*
X46340Y46544D02*
X47534Y45351D01*
X46602D02*
X47658D01*
X45621Y46544D02*
X46815Y45351D01*
X44777Y49544D02*
X46465Y47856D01*
X43630D02*
X47322D01*
X44444Y49544D02*
X46199D01*
X43630Y46544D02*
X47322D01*
X43295Y46209D02*
X43630Y46544D01*
X50528Y45306D02*
X50856Y44978D01*
X50528Y45306D02*
X50856Y44978D01*
X48306Y47528D02*
X50528Y45306D01*
X50856Y44322D02*
Y44978D01*
Y44322D02*
Y44978D01*
X48186Y44699D02*
X49544Y43340D01*
X47322Y46544D02*
X49544Y44322D01*
X48186Y44593D02*
X48729Y45137D01*
X47941Y45067D02*
X48370Y45496D01*
X47058Y46544D02*
X49544Y44058D01*
X47749Y42720D02*
X49448Y44419D01*
X48186Y43875D02*
X49089Y44778D01*
X48108Y42361D02*
X49544Y43797D01*
X48186Y41720D02*
X49544Y43079D01*
X48186Y43980D02*
X49544Y42621D01*
X48125Y41167D02*
X49544Y39748D01*
X48186Y39565D02*
X49544Y40923D01*
X48186Y41825D02*
X49544Y40466D01*
X47490Y43239D02*
X49544Y41185D01*
X47455Y40271D02*
X49544Y42360D01*
X47933Y43514D02*
X49544Y41903D01*
X47766Y40808D02*
X49544Y39029D01*
X47916Y40013D02*
X49544Y41642D01*
X47658Y45351D02*
X48186Y44823D01*
Y43767D02*
Y44823D01*
X46787Y45351D02*
X47652Y46215D01*
X47658Y43239D02*
X48186Y43767D01*
X46771Y43239D02*
X47200Y42811D01*
X46074Y43767D02*
X46602Y43239D01*
X44903Y46544D02*
X46349Y45098D01*
X46074Y44823D02*
X46602Y45351D01*
X44185Y46544D02*
X46074Y44655D01*
Y43767D02*
Y44823D01*
X43548Y46462D02*
X46074Y43936D01*
X47658Y42811D02*
X48186Y42283D01*
Y41227D02*
Y42283D01*
X47121Y42811D02*
X47550Y43239D01*
X47658Y40699D02*
X48186Y41227D01*
X47156Y40699D02*
X47585Y40271D01*
X46736D02*
X47165Y40699D01*
X46602Y43239D02*
X47658D01*
X46602Y42811D02*
X47658D01*
X46074Y42283D02*
X46602Y42811D01*
X46074Y41227D02*
X46602Y40699D01*
X46074Y41227D02*
Y42283D01*
X42264Y70017D02*
X44711Y67570D01*
X42425D02*
X44873Y70017D01*
X41707Y67570D02*
X44154Y70017D01*
X43144Y67570D02*
X45591Y70017D01*
X41853Y51750D02*
X45747Y47856D01*
X42982Y70017D02*
X45430Y67570D01*
X40988D02*
X43436Y70017D01*
X41546D02*
X43993Y67570D01*
X40827Y70017D02*
X43275Y67570D01*
X40416Y51750D02*
X44310Y47856D01*
X41134Y51750D02*
X45029Y47856D01*
X39697Y51750D02*
X43257Y48191D01*
X42394Y51594D02*
X43272Y50716D01*
X43566Y50422D01*
X42394Y51594D02*
X43272Y50716D01*
X42443Y48191D02*
X44120Y49868D01*
X43162Y48191D02*
X44515Y49544D01*
X43295Y48191D02*
X43630Y47856D01*
X42305Y48191D02*
X43295D01*
X42305Y46209D02*
X43295D01*
X38368Y46271D02*
X43043Y50945D01*
X39086Y45552D02*
X43761Y50227D01*
X38727Y45911D02*
X43402Y50586D01*
X39552Y67570D02*
X41999Y70017D01*
X40109D02*
X42556Y67570D01*
X39390Y70017D02*
X41838Y67570D01*
X40270D02*
X42717Y70017D01*
X42394Y51594D02*
Y51750D01*
Y51594D02*
Y51750D01*
X38115Y67570D02*
X40562Y70017D01*
X38672D02*
X41119Y67570D01*
X37954Y70017D02*
X40401Y67570D01*
X38261Y51750D02*
X42062Y47948D01*
X38833Y67570D02*
X41281Y70017D01*
X41809Y47695D02*
X42305Y48191D01*
X41809Y46764D02*
X42364Y46209D01*
X41809Y46705D02*
Y47695D01*
Y46705D02*
X42305Y46209D01*
X40539Y44849D02*
X42102Y46412D01*
X40180Y45209D02*
X41809Y46838D01*
X38979Y51750D02*
X42538Y48191D01*
X38009Y46630D02*
X42684Y51305D01*
X39288Y45351D02*
X40038D01*
X39603D02*
X41809Y47557D01*
X40038Y45351D02*
X40566Y44823D01*
X42364Y46209D02*
X46183Y42391D01*
X43083Y46209D02*
X46542Y42750D01*
X40566Y42002D02*
X45108Y46544D01*
X40566Y39129D02*
X46074Y44638D01*
X40566Y44416D02*
X46074Y38907D01*
X40566Y41284D02*
X45826Y46544D01*
X40154Y40154D02*
X46544Y46544D01*
X40154Y40154D02*
X46544Y46544D01*
X40347Y42502D02*
X44389Y46544D01*
X40513Y39795D02*
X47263Y46544D01*
X39886Y37731D02*
X46074Y43919D01*
X40531Y43732D02*
X46567Y37696D01*
X40566Y36973D02*
X46832Y43239D01*
X40566Y42261D02*
X46074Y36752D01*
X40566Y41542D02*
X46917Y35191D01*
X40488Y34741D02*
X46524Y40777D01*
X40566Y36255D02*
X46074Y41764D01*
X40321Y37447D02*
X46358Y43484D01*
X40172Y43373D02*
X46208Y37337D01*
X40129Y35100D02*
X46165Y41136D01*
X40364Y41026D02*
X46401Y34989D01*
X39972Y40699D02*
X46074Y34597D01*
X40566Y44158D02*
X42617Y46209D01*
X40038Y43239D02*
X40566Y43767D01*
Y44823D01*
X39937Y42811D02*
X43671Y46544D01*
X39587Y43239D02*
X40016Y42811D01*
X39218D02*
X39647Y43239D01*
X38454Y43767D02*
X38982Y43239D01*
X40038D01*
X38454Y43767D02*
Y44517D01*
X38482Y42311D02*
X38982Y42811D01*
X38211Y42522D02*
X38956Y43266D01*
X40038Y42811D02*
X40566Y42283D01*
X40016Y42811D02*
X40566Y42261D01*
X38982Y42811D02*
X40038D01*
X39981Y40699D02*
X40566Y41284D01*
X40038Y40699D02*
X40566Y41227D01*
Y42283D01*
X38482Y41199D02*
X38982Y40699D01*
X38239Y40394D02*
X38763Y40918D01*
X37880Y40754D02*
X38326Y41199D01*
X38598Y40035D02*
X39263Y40699D01*
X38035Y41199D02*
X38973Y40261D01*
X50856Y39361D02*
X51760Y40265D01*
X48186Y39670D02*
X49544Y38311D01*
X48186Y38846D02*
X49544Y40205D01*
X48186Y38951D02*
X49544Y37592D01*
X48186Y36691D02*
X49544Y38050D01*
X48186Y36147D02*
Y37203D01*
X47723Y37665D02*
X49544Y39486D01*
X48082Y37306D02*
X49544Y38768D01*
X47658Y37731D02*
X48186Y37203D01*
X47541Y38159D02*
X49544Y36156D01*
X47404Y35191D02*
X49544Y37331D01*
X47958Y38460D02*
X49544Y36874D01*
X50856Y36281D02*
X51760Y35377D01*
X48151Y36112D02*
X49544Y34719D01*
X48186Y36796D02*
X49544Y35437D01*
X48186Y34536D02*
X49544Y35894D01*
X48186Y33817D02*
X49544Y35176D01*
X48186Y33607D02*
Y34663D01*
X47890Y34958D02*
X49544Y36613D01*
X47658Y35191D02*
X48186Y34663D01*
X47658Y35619D02*
X48186Y36147D01*
X47792Y35753D02*
X49544Y34000D01*
X47636Y35191D02*
X48186Y34641D01*
X47585Y40271D02*
X48186Y39670D01*
Y38687D02*
Y39743D01*
X47658Y40271D02*
X48186Y39743D01*
X47658Y38159D02*
X48186Y38687D01*
X47070Y37731D02*
X47499Y38159D01*
X46822D02*
X47251Y37731D01*
X46602Y40699D02*
X47658D01*
X46602Y40271D02*
X47658D01*
X46074Y39743D02*
X46602Y40271D01*
X46074Y38687D02*
X46602Y38159D01*
X46074Y38687D02*
Y39743D01*
X46602Y37731D02*
X47658D01*
X46602Y35619D02*
X47658D01*
X46602Y38159D02*
X47658D01*
X47207Y35619D02*
X47636Y35191D01*
X46602D02*
X47658D01*
X46685D02*
X47114Y35619D01*
X46074Y37203D02*
X46602Y37731D01*
X46074Y36147D02*
X46602Y35619D01*
X46074Y36147D02*
Y37203D01*
X46074Y34580D02*
X46685Y35191D01*
X46074Y34663D02*
X46602Y35191D01*
X48186Y33922D02*
X49544Y32563D01*
X48057Y32252D02*
X49544Y33739D01*
X48186Y34641D02*
X49544Y33282D01*
X48186Y31662D02*
X49544Y33021D01*
X48186Y31767D02*
X49544Y30408D01*
X48186Y31067D02*
Y32123D01*
X47984Y33406D02*
X49544Y31845D01*
X47592Y33079D02*
X49544Y31127D01*
X47698Y32611D02*
X49544Y34458D01*
X47864Y29904D02*
X49544Y31584D01*
X47353Y30111D02*
X49544Y32302D01*
X48186Y29507D02*
X49544Y30865D01*
X47817Y30699D02*
X49544Y28971D01*
X48176Y31058D02*
X49544Y29690D01*
X48186Y28788D02*
X49544Y30147D01*
X48186Y28893D02*
X49544Y27535D01*
X48186Y28527D02*
Y29583D01*
X47258Y30539D02*
X49544Y28253D01*
X47658Y30111D02*
X48186Y29583D01*
X47658Y30539D02*
X48186Y31067D01*
X47667Y27551D02*
X49544Y29429D01*
X47658Y27999D02*
X48186Y28527D01*
X47658Y33079D02*
X48186Y33607D01*
X46602Y32651D02*
X47658D01*
X46602Y33079D02*
X47658D01*
X47019Y32651D02*
X47448Y33079D01*
X47658Y32651D02*
X48186Y32123D01*
X46873Y33079D02*
X47302Y32651D01*
X46074Y33607D02*
X46602Y33079D01*
X46074Y32123D02*
X46602Y32651D01*
X46074Y33607D02*
Y34663D01*
Y31067D02*
X46602Y30539D01*
X46074Y31067D02*
Y32123D01*
X46602Y30111D02*
X47658D01*
X46602Y27999D02*
X47658D01*
X46634Y30111D02*
X47063Y30539D01*
X46958Y27561D02*
X47397Y27999D01*
X46602Y27561D02*
X47658D01*
X46924Y27999D02*
X47363Y27561D01*
X46602Y30539D02*
X47658D01*
X46074Y29551D02*
X46634Y30111D01*
X46074Y29583D02*
X46602Y30111D01*
X46074Y28527D02*
X46602Y27999D01*
X46074Y28527D02*
Y29583D01*
X40038Y40271D02*
X40566Y39743D01*
Y38687D02*
Y39743D01*
X39552Y40271D02*
X39981Y40699D01*
X40566Y34100D02*
X46074Y39609D01*
X40566Y39387D02*
X46074Y33878D01*
X40038Y38159D02*
X40566Y38687D01*
X38982Y40699D02*
X40038D01*
X38982Y40271D02*
X40038D01*
X39253Y40699D02*
X39682Y40271D01*
X38982Y38159D02*
X40038D01*
X38982Y37731D02*
X40038D01*
X39167D02*
X39596Y38159D01*
X40566Y36147D02*
Y37203D01*
X40038Y35619D02*
X40566Y36147D01*
X40038Y37731D02*
X40566Y37203D01*
X40566Y33607D02*
Y34663D01*
X40038Y33079D02*
X40566Y33607D01*
X40038Y35191D02*
X40566Y34663D01*
X38982Y35619D02*
X40038D01*
X38982Y35191D02*
X40038D01*
X39304Y35619D02*
X39733Y35191D01*
X38982Y33079D02*
X40038D01*
X39501Y35191D02*
X39930Y35619D01*
X38673Y39961D02*
X38982Y40271D01*
X38454Y38687D02*
X38982Y38159D01*
X38250Y38716D02*
X38454D01*
X38363D02*
X39348Y37731D01*
X38518Y37266D02*
X38982Y37731D01*
X38251Y37532D02*
X38930Y38212D01*
X37973Y38994D02*
X38250Y38716D01*
X38454D01*
X37973Y38994D02*
X38250Y38716D01*
X37892Y37892D02*
X38571Y38571D01*
X37892Y37892D02*
X38571Y38571D01*
X38482Y36119D02*
X38982Y35619D01*
X38482Y34691D02*
X38982Y35191D01*
X38293Y34691D02*
X38482D01*
Y33579D02*
X38982Y33079D01*
X39116Y32651D02*
X39545Y33079D01*
X38293Y33579D02*
X38482D01*
X37997Y36119D02*
X38482D01*
X38086D02*
X39015Y35191D01*
X37997Y36119D02*
X38482D01*
X38288Y34696D02*
X39211Y35619D01*
X37929Y35055D02*
X38738Y35864D01*
X40556Y38678D02*
X46593Y32641D01*
X40566Y31945D02*
X46780Y38159D01*
X40566Y31226D02*
X46074Y36735D01*
X40566Y36513D02*
X46968Y30111D01*
X40462Y29686D02*
X46499Y35723D01*
X40389Y35971D02*
X46426Y29934D01*
X40296Y32393D02*
X46332Y38429D01*
X40197Y38319D02*
X46234Y32282D01*
X39835Y32651D02*
X46074Y38890D01*
X40103Y30045D02*
X46140Y36082D01*
X39638Y38159D02*
X46074Y31723D01*
X40566Y29071D02*
X46074Y34580D01*
X40566Y34358D02*
X46074Y28849D01*
X40566Y31067D02*
Y32123D01*
Y33640D02*
X46645Y27561D01*
X40265Y27333D02*
X46307Y33375D01*
X40566Y28527D02*
Y29583D01*
X40023Y35619D02*
X46074Y29568D01*
X40038Y30539D02*
X40566Y31067D01*
X40038Y32651D02*
X40566Y32123D01*
X39774Y27561D02*
X46074Y33861D01*
X40038Y27999D02*
X40566Y28527D01*
X38982Y32651D02*
X40038D01*
X38982Y30539D02*
X40038D01*
X38482Y31039D02*
X38982Y30539D01*
X39355D02*
X39784Y30111D01*
X39450D02*
X39879Y30539D01*
X38482Y29611D02*
X38982Y30111D01*
X38471Y33579D02*
X39399Y32651D01*
X38482Y32151D02*
X38982Y32651D01*
X37898Y32151D02*
X38904Y33157D01*
X38232Y29611D02*
X39160Y30539D01*
X38137Y31039D02*
X39066Y30111D01*
X40038D02*
X40566Y29583D01*
X38982Y27999D02*
X40038D01*
X38982Y30111D02*
X40038D01*
X39055Y27561D02*
X39494Y27999D01*
X38982Y27561D02*
X40038D01*
X39022Y27999D02*
X39460Y27561D01*
X38173Y28499D02*
X38482D01*
X38982Y27999D01*
X38173Y29611D02*
X38482D01*
X38405Y27629D02*
X38879Y28103D01*
X38046Y27988D02*
X38520Y28462D01*
X88800Y17676D02*
X96517Y25394D01*
X88800Y24918D02*
X96517Y17201D01*
X88800Y25637D02*
X96517Y17919D01*
X88800Y24200D02*
X96517Y16482D01*
X88800Y16239D02*
X96517Y23957D01*
X88800Y16958D02*
X96517Y24675D01*
X88800Y27016D02*
X96517Y34733D01*
X88800Y27074D02*
X96517Y19356D01*
X88800Y34976D02*
X96517Y27259D01*
X88800Y26355D02*
X96517Y18638D01*
X88800Y18395D02*
X96517Y26112D01*
X88800Y19113D02*
X96517Y26831D01*
X88800Y21326D02*
X96517Y13609D01*
X88800Y13366D02*
X96517Y21083D01*
X88800Y14084D02*
X96517Y21802D01*
X88800Y12647D02*
X96517Y20365D01*
X88800Y19889D02*
X96517Y12172D01*
X88800Y20608D02*
X96517Y12890D01*
X88800Y15521D02*
X96517Y23238D01*
X88800Y22763D02*
X96517Y15046D01*
X88800Y23481D02*
X96517Y15764D01*
X88800Y22045D02*
X96517Y14327D01*
X88800Y14803D02*
X96517Y22520D01*
X88800Y24861D02*
X96517Y32578D01*
X88800Y32103D02*
X96517Y24385D01*
X88800Y32821D02*
X96517Y25104D01*
X88800Y31384D02*
X96517Y23667D01*
X88800Y23424D02*
X96517Y31141D01*
X88800Y24142D02*
X96517Y31859D01*
X88800Y26297D02*
X96517Y34015D01*
X88800Y33539D02*
X96517Y25822D01*
X88800Y34258D02*
X96517Y26540D01*
X88800Y25579D02*
X96517Y33296D01*
X88800Y12370D02*
Y50750D01*
Y21268D02*
X96517Y28986D01*
X88800Y28510D02*
X96517Y20793D01*
X88800Y29229D02*
X96517Y21511D01*
X88800Y27792D02*
X96517Y20075D01*
X88800Y19832D02*
X96517Y27549D01*
X88800Y20550D02*
X96517Y28267D01*
X88800Y22705D02*
X96517Y30423D01*
X88800Y29947D02*
X96517Y22230D01*
X88800Y30666D02*
X96517Y22948D01*
X88800Y21987D02*
X96517Y29704D01*
X83663Y11821D02*
X84212Y12370D01*
X88800Y18453D02*
X96517Y10735D01*
X88800Y17734D02*
X96517Y10017D01*
X88800Y19171D02*
X96517Y11454D01*
Y483D02*
Y70017D01*
X88800Y16297D02*
X96517Y8580D01*
X88800Y17016D02*
X96517Y9298D01*
X86416Y8827D02*
X96517Y18928D01*
X86450Y7424D02*
X96517Y17491D01*
X85698Y8827D02*
X96517Y19646D01*
X86450Y5987D02*
X96517Y16054D01*
X86450Y5268D02*
X96517Y15336D01*
X86450Y6705D02*
X96517Y16773D01*
X91911Y7856D02*
X96517Y12462D01*
X92629Y7856D02*
X96517Y11744D01*
X91192Y7856D02*
X96517Y13181D01*
X94066Y7856D02*
X96517Y10307D01*
X94481Y7552D02*
X96517Y9588D01*
X93348Y7856D02*
X96517Y11025D01*
X88800Y14142D02*
X96517Y6425D01*
X88800Y13424D02*
X96517Y5706D01*
X88800Y14860D02*
X96517Y7143D01*
X86450Y3832D02*
X96517Y13899D01*
X86450Y4550D02*
X96517Y14617D01*
X85456Y10021D02*
X87804Y12370D01*
X85456Y9303D02*
X88523Y12370D01*
X85100Y10384D02*
X87086Y12370D01*
X86450Y8142D02*
X96517Y18209D01*
X88800Y15579D02*
X96517Y7861D01*
X88800Y12705D02*
X93650Y7856D01*
X84381Y11102D02*
X85649Y12370D01*
X84740Y10743D02*
X86367Y12370D01*
X84022Y11461D02*
X84931Y12370D01*
X84106D02*
X89721Y6755D01*
X83388Y12370D02*
X89362Y6396D01*
X86980Y12370D02*
X91494Y7856D01*
X87698Y12370D02*
X92213Y7856D01*
X85456Y9584D02*
X86212Y8827D01*
X86261Y12370D02*
X90799Y7832D01*
X88417Y12370D02*
X92931Y7856D01*
X85543Y12370D02*
X90440Y7473D01*
X84578Y10906D02*
X85456Y10028D01*
Y8827D02*
Y10028D01*
X84578Y10906D02*
X85456Y10028D01*
X84825Y12370D02*
X90081Y7114D01*
X85456Y8827D02*
Y10028D01*
X83113Y12370D02*
X83256Y12228D01*
X83113Y12370D02*
X88800D01*
X83113D02*
X83256Y12228D01*
X83304Y12180D02*
X83494Y12370D01*
X83256Y12228D02*
X84578Y10906D01*
X67908Y12044D02*
X68049Y11904D01*
X67190Y12044D02*
X67690Y11545D01*
X60999Y12044D02*
X68189D01*
X66471D02*
X67330Y11185D01*
X66474Y11156D02*
X67363Y12044D01*
X67192Y11156D02*
X68081Y12044D01*
X65756Y11156D02*
X66644Y12044D01*
X70394Y9594D02*
X72149D01*
X77222D01*
X70394D02*
X72149D01*
X77222D02*
X78978D01*
X80622D01*
X77222D02*
X78978D01*
X67301Y11156D02*
X68189Y12044D01*
X68734Y9722D02*
X69500Y10488D01*
X61928Y11156D02*
X67301D01*
X69516Y10472D02*
X70394Y9594D01*
X69516Y10472D02*
X70394Y9594D01*
X61442Y12044D02*
X62331Y11156D01*
X61445D02*
X62334Y12044D01*
X60727Y11156D02*
X61615Y12044D01*
X62164Y11156D02*
X63052Y12044D01*
X62879D02*
X63768Y11156D01*
X62161Y12044D02*
X63050Y11156D01*
X59243Y12044D02*
X60999D01*
X59243D02*
X60999D01*
X60006D02*
X60894Y11156D01*
X60724Y12044D02*
X61613Y11156D01*
X60008D02*
X60897Y12044D01*
X64316D02*
X65205Y11156D01*
X64319D02*
X65208Y12044D01*
X63600Y11156D02*
X64489Y12044D01*
X65037Y11156D02*
X65926Y12044D01*
X65753D02*
X66642Y11156D01*
X65035Y12044D02*
X65923Y11156D01*
X60972D02*
X61928D01*
X60972D02*
X61928D01*
X60972D02*
X61928D01*
X63598Y12044D02*
X64486Y11156D01*
X62882D02*
X63771Y12044D01*
X76106Y9594D02*
X76873Y8827D01*
X76359D02*
X77126Y9594D01*
X75387D02*
X76155Y8827D01*
X76824Y9594D02*
X77591Y8827D01*
X77077D02*
X77844Y9594D01*
X71795D02*
X75950Y5439D01*
X69482Y10470D02*
X75950Y4003D01*
X69123Y10111D02*
X75950Y3284D01*
X71077Y9594D02*
X75950Y4721D01*
X67296Y483D02*
X76408Y9594D01*
X68764Y9752D02*
X75950Y2566D01*
X79232Y8827D02*
X80000Y9594D01*
X79698D02*
X80465Y8827D01*
X78979Y9594D02*
X79747Y8827D01*
X80416Y9594D02*
X81184Y8827D01*
X80622Y9594D02*
X81390Y8827D01*
X79951D02*
X80670Y9546D01*
X77795Y8827D02*
X78563Y9594D01*
X78261D02*
X79028Y8827D01*
X77542Y9594D02*
X78310Y8827D01*
X78514D02*
X79281Y9594D01*
X68405Y9393D02*
X75950Y1847D01*
X65056Y5427D02*
X69809Y10180D01*
X68256Y9244D02*
X68734Y9722D01*
X68256Y9244D02*
X68734Y9722D01*
X65141Y483D02*
X74252Y9594D01*
X65859Y483D02*
X74971Y9594D01*
X65129Y4782D02*
X70168Y9820D01*
X62267Y483D02*
X71379Y9594D01*
X62985Y483D02*
X72097Y9594D01*
X64529Y3463D02*
X70660Y9594D01*
X64422Y483D02*
X73534Y9594D01*
X63704Y483D02*
X72815Y9594D01*
X74669D02*
X75950Y8313D01*
X73950Y9594D02*
X75950Y7595D01*
X67301Y9244D02*
X68256D01*
X73232Y9594D02*
X75950Y6876D01*
X72513Y9594D02*
X75950Y6158D01*
X66577Y483D02*
X75689Y9594D01*
X62289Y9244D02*
X67301D01*
X64175Y5983D02*
X67437Y9244D01*
X63456Y5983D02*
X66718Y9244D01*
X64697Y5787D02*
X68155Y9244D01*
X62350Y5594D02*
X66000Y9244D01*
X95856Y5335D02*
X96517Y5996D01*
X95856Y5650D02*
X96517Y4988D01*
X95856Y6053D02*
X96517Y6715D01*
X95856Y4616D02*
X96517Y5278D01*
X95856Y4931D02*
X96517Y4269D01*
X95856Y2822D02*
Y6178D01*
X94840Y7193D02*
X96517Y8870D01*
X95200Y6834D02*
X96517Y8152D01*
X90822Y7856D02*
X94178D01*
X95856Y6178D01*
X95559Y6475D02*
X96517Y7433D01*
X95856Y4213D02*
X96517Y3551D01*
X95856Y3179D02*
X96517Y3841D01*
X95856Y3898D02*
X96517Y4559D01*
X95832Y2799D02*
X96517Y2114D01*
X95473Y2440D02*
X96517Y1396D01*
X95856Y3494D02*
X96517Y2832D01*
X90822Y1144D02*
X94178D01*
X95114Y2081D02*
X96517Y677D01*
X94178Y1144D02*
X95856Y2822D01*
X89144Y6178D02*
X90822Y7856D01*
X86450Y6434D02*
X89144Y3740D01*
X86450Y7153D02*
X89144Y4458D01*
Y2822D02*
Y6178D01*
X86450Y5716D02*
X89144Y3021D01*
X86450Y3113D02*
X89144Y5808D01*
X85456Y8827D02*
X86450D01*
Y8589D02*
X89144Y5895D01*
X80669Y8827D02*
X81029Y9187D01*
X86450Y7871D02*
X89144Y5177D01*
X86450Y1227D02*
Y8827D01*
X89144Y3021D02*
X91021Y1144D01*
X89144Y2822D02*
X90822Y1144D01*
X88130Y483D02*
X89807Y2160D01*
X88848Y483D02*
X90166Y1800D01*
X87412Y483D02*
X89448Y2519D01*
X86450Y2395D02*
X89144Y5089D01*
X86450Y1676D02*
X89144Y4371D01*
X78072Y483D02*
X78816Y1227D01*
X86450Y4279D02*
X90246Y483D01*
X86693D02*
X89144Y2934D01*
X93877Y483D02*
X96517Y3123D01*
X94396Y1362D02*
X95275Y483D01*
X89567D02*
X90525Y1441D01*
X94596Y483D02*
X96517Y2404D01*
X95314Y483D02*
X96517Y1686D01*
X94755Y1721D02*
X95994Y483D01*
X86450Y4997D02*
X90965Y483D01*
X86450Y3561D02*
X89528Y483D01*
X85975D02*
X89144Y3652D01*
X86450Y2842D02*
X88809Y483D01*
X86450Y2124D02*
X88091Y483D01*
X92458Y1144D02*
X93120Y483D01*
X93159D02*
X93821Y1144D01*
X92441Y483D02*
X93102Y1144D01*
X93895D02*
X94557Y483D01*
X96033D02*
X96517Y967D01*
X93177Y1144D02*
X93838Y483D01*
X91004D02*
X91665Y1144D01*
X91021D02*
X91683Y483D01*
X90285D02*
X90947Y1144D01*
X91740D02*
X92402Y483D01*
X91722D02*
X92384Y1144D01*
X80881Y1227D02*
X81625Y483D01*
X80946D02*
X81690Y1227D01*
X80227Y483D02*
X80972Y1227D01*
X86450Y1405D02*
X87373Y483D01*
X81664D02*
X82409Y1227D01*
X81599D02*
X82344Y483D01*
X78791D02*
X79535Y1227D01*
X79444D02*
X80188Y483D01*
X78726Y1227D02*
X79470Y483D01*
X80162Y1227D02*
X80907Y483D01*
X79509D02*
X80253Y1227D01*
X84473D02*
X85217Y483D01*
X84538D02*
X85282Y1227D01*
X83819Y483D02*
X84564Y1227D01*
X85256Y483D02*
X86001Y1227D01*
X85910D02*
X86654Y483D01*
X85191Y1227D02*
X85936Y483D01*
X82383D02*
X83127Y1227D01*
X83036D02*
X83781Y483D01*
X82318Y1227D02*
X83062Y483D01*
X83755Y1227D02*
X84499Y483D01*
X83101D02*
X83845Y1227D01*
X67301Y9244D02*
X68256D01*
X75950Y8827D02*
X81390D01*
X63246Y5983D02*
X64501D01*
X75950Y1227D02*
Y8827D01*
X65129Y4099D02*
Y5355D01*
X64501Y5983D02*
X65129Y5355D01*
X62289Y6971D02*
X64563Y9244D01*
X62289Y6252D02*
X65281Y9244D01*
X62289Y7689D02*
X63844Y9244D01*
X62289Y7606D02*
X63912Y5983D01*
X62618Y5355D02*
X63246Y5983D01*
X62289Y6887D02*
X63220Y5957D01*
X64529Y3499D02*
X65129Y4099D01*
X64529Y3499D02*
Y3601D01*
Y3499D02*
Y3601D01*
Y2946D02*
Y3499D01*
X75950Y1227D02*
X86450D01*
X64529Y2946D02*
Y3499D01*
X64201Y2618D02*
X64529Y2946D01*
X64201Y2618D02*
X64529Y2946D01*
X62618Y4099D02*
X63167Y3550D01*
X62506Y922D02*
X64201Y2618D01*
X61522Y1906D02*
X63167Y3550D01*
X62289Y8408D02*
X63126Y9244D01*
X62289Y6169D02*
X62860Y5597D01*
X62289Y5655D02*
X62589Y5355D01*
X62618Y4099D02*
Y5355D01*
X62396Y3906D02*
X62960Y3343D01*
X62589Y4099D02*
Y5355D01*
X62289Y5655D02*
Y9244D01*
Y9126D02*
X62408Y9244D01*
X60078Y4099D02*
X60706Y3471D01*
X61961D02*
X62589Y4099D01*
X60049Y4099D02*
X61882Y2265D01*
X62037Y3547D02*
X62600Y2984D01*
X61394Y3471D02*
X62241Y2625D01*
X60706Y3471D02*
X61961D01*
X60816Y1906D02*
X62814Y3903D01*
X62178Y594D02*
X62506Y922D01*
X61522Y594D02*
X62178D01*
X59689Y3740D02*
X61523Y1906D01*
X42368Y1906D02*
X61522D01*
X59239Y3471D02*
X60805Y1906D01*
X60098D02*
X61664Y3471D01*
X59379Y1906D02*
X60945Y3471D01*
X68733Y483D02*
X75950Y7700D01*
X69451Y483D02*
X75950Y6982D01*
X68014Y483D02*
X75950Y8418D01*
X70888Y483D02*
X75950Y5545D01*
X71606Y483D02*
X75950Y4826D01*
X70169Y483D02*
X75950Y6263D01*
X65679Y9244D02*
X74441Y483D01*
X66398Y9244D02*
X75159Y483D01*
X64961Y9244D02*
X73723Y483D01*
X67835Y9244D02*
X76596Y483D01*
X67116Y9244D02*
X75878Y483D01*
X76570Y1227D02*
X77315Y483D01*
X76635D02*
X77380Y1227D01*
X75917Y483D02*
X76661Y1227D01*
X77354Y483D02*
X78098Y1227D01*
X78007D02*
X78752Y483D01*
X77289Y1227D02*
X78033Y483D01*
X73043D02*
X75950Y3389D01*
X73762Y483D02*
X75950Y2671D01*
X72325Y483D02*
X75950Y4108D01*
X75198Y483D02*
X75950Y1234D01*
X74480Y483D02*
X75950Y1953D01*
X64242Y9244D02*
X73004Y483D01*
X64529Y3210D02*
X67257Y483D01*
X64302Y2719D02*
X66538Y483D01*
X65129Y4766D02*
X69412Y483D01*
X65103Y4073D02*
X68694Y483D01*
X64744Y3714D02*
X67975Y483D01*
X62806Y9244D02*
X71567Y483D01*
X62289Y9042D02*
X70849Y483D01*
X62289Y8324D02*
X70131Y483D01*
X63524Y9244D02*
X72286Y483D01*
X63943Y2360D02*
X65820Y483D01*
X62506Y923D02*
X62946Y483D01*
X62178Y594D02*
X62506Y922D01*
X62116Y594D02*
X62228Y483D01*
X63584Y2000D02*
X65102Y483D01*
X63225Y1641D02*
X64383Y483D01*
X62865Y1282D02*
X63665Y483D01*
X60830D02*
X60942Y594D01*
X61522D02*
X62178D01*
X60679D02*
X60791Y483D01*
X61548D02*
X61660Y594D01*
X61398D02*
X61509Y483D01*
X50856Y24274D02*
X51760Y25178D01*
X50856Y24786D02*
X51760Y23882D01*
X50856Y25505D02*
X51760Y24601D01*
X50856Y24068D02*
X51760Y23164D01*
X50856Y22837D02*
X51760Y23742D01*
X50856Y23556D02*
X51760Y24460D01*
X50856Y26429D02*
X51760Y27334D01*
X50856Y26942D02*
X51760Y26037D01*
X50856Y27660D02*
X51760Y26756D01*
X50856Y26223D02*
X51760Y25319D01*
X50856Y24992D02*
X51760Y25897D01*
X50856Y25711D02*
X51760Y26615D01*
X50856Y21913D02*
X51760Y21008D01*
X50856Y20682D02*
X51760Y21586D01*
X50856Y21400D02*
X51760Y22305D01*
X50856Y19963D02*
X51760Y20868D01*
X50856Y20476D02*
X51760Y19572D01*
X50856Y21194D02*
X51760Y20290D01*
X50856Y22119D02*
X51760Y23023D01*
X50856Y22631D02*
X51760Y21727D01*
X50856Y23350D02*
X51760Y22445D01*
X50439Y19456D02*
X51760Y18135D01*
X50798Y19815D02*
X51760Y18853D01*
X50856Y27148D02*
X51760Y28052D01*
X48186Y26738D02*
X49544Y25379D01*
X48186Y25977D02*
Y27033D01*
X49544Y20528D02*
Y44322D01*
X50856Y20528D02*
Y44322D01*
X48186Y26020D02*
X49544Y24661D01*
X48026Y27192D02*
X49544Y28710D01*
X48009Y28351D02*
X49544Y26816D01*
X47658Y27561D02*
X48186Y27033D01*
X47643Y27999D02*
X49544Y26098D01*
X48186Y26633D02*
X49544Y27992D01*
X47848Y25639D02*
X49544Y23942D01*
X50856Y19872D02*
Y20528D01*
X47658Y25449D02*
X48186Y25977D01*
X50528Y19544D02*
X50856Y19872D01*
X50528Y19544D02*
X50856Y19872D01*
Y20528D01*
X47319Y25449D02*
X49544Y23224D01*
X46128Y18110D02*
X49544Y21526D01*
X46602Y25449D02*
X47658D01*
X47022Y18006D02*
X49544Y20528D01*
X46233Y18006D02*
X47022D01*
X52496Y12370D02*
X53710Y11156D01*
X52824D02*
X54038Y12370D01*
X52106Y11156D02*
X53320Y12370D01*
X53542Y11156D02*
X54757Y12370D01*
X53933D02*
X55147Y11156D01*
X53214Y12370D02*
X54429Y11156D01*
X46735Y16694D02*
X52273Y11156D01*
X50669D02*
X51883Y12370D01*
X48514Y11156D02*
X51760Y14402D01*
X51777Y12370D02*
X52992Y11156D01*
X51387D02*
X52602Y12370D01*
X56416Y11156D02*
X57631Y12370D01*
X56806D02*
X58021Y11156D01*
X56088Y12370D02*
X57302Y11156D01*
X57525Y12370D02*
X58739Y11156D01*
X58243Y12370D02*
X59458Y11156D01*
X57135D02*
X58349Y12370D01*
X54651D02*
X55865Y11156D01*
X54979D02*
X56194Y12370D01*
X54261Y11156D02*
X55475Y12370D01*
X55698Y11156D02*
X56912Y12370D01*
X55369D02*
X56584Y11156D01*
X49721Y18737D02*
X51760Y16698D01*
X49361Y18378D02*
X51760Y15979D01*
X50080Y19096D02*
X51760Y17416D01*
Y12370D02*
Y49544D01*
X48643Y17660D02*
X51760Y14543D01*
X49002Y18019D02*
X51760Y15261D01*
X46742Y18006D02*
X49544Y20808D01*
X48006Y17022D02*
X50528Y19544D01*
X47678Y16694D02*
X48006Y17022D01*
X48284Y17300D02*
X51760Y13824D01*
X47678Y16694D02*
X48006Y17022D01*
X47453Y16694D02*
X51760Y12387D01*
X47077Y11156D02*
X51760Y15839D01*
X47925Y16941D02*
X51760Y13106D01*
X49232Y11156D02*
X51760Y13684D01*
X49950Y11156D02*
X51760Y12965D01*
X47795Y11156D02*
X51760Y15121D01*
X47022Y16694D02*
X47678D01*
X47022D02*
X47678D01*
X46193D02*
X47022D01*
X46358Y11156D02*
X51760Y16557D01*
X46104Y16606D02*
X51555Y11156D01*
X40566Y29329D02*
X49456Y20439D01*
X40566Y28611D02*
X49096Y20080D01*
X46074Y27033D02*
X46602Y27561D01*
X40715Y18444D02*
X49544Y27273D01*
X41074Y18084D02*
X49544Y26555D01*
X40566Y26455D02*
X48019Y19002D01*
X40566Y31484D02*
X49544Y22506D01*
X40415Y30917D02*
X49544Y21787D01*
X40566Y26916D02*
X46729Y33079D01*
X40056Y30557D02*
X49544Y21069D01*
X40248Y28210D02*
X48737Y19721D01*
X39740Y27999D02*
X48378Y19361D01*
X42902Y18476D02*
X49544Y25118D01*
X43620Y18476D02*
X49544Y24400D01*
X46074Y25977D02*
X46602Y25449D01*
X43776Y17912D02*
X49544Y23681D01*
X45769Y18469D02*
X49544Y22244D01*
X45057Y18476D02*
X49544Y22963D01*
X40446Y25857D02*
X47660Y18643D01*
X42183Y18476D02*
X49544Y25837D01*
X40028Y18476D02*
X47002Y25449D01*
X40086Y25498D02*
X47300Y18284D01*
X39416Y25449D02*
X46860Y18006D01*
X40223Y33264D02*
X46264Y27223D01*
X39689Y33079D02*
X46074Y26694D01*
X40038Y27561D02*
X40566Y27033D01*
Y26197D02*
X46074Y31706D01*
Y25977D02*
Y27033D01*
X40566Y25977D02*
Y27033D01*
X38728Y27306D02*
X38982Y27561D01*
X38004Y26362D02*
X38282Y26084D01*
X38004Y26362D02*
X38282Y26084D01*
X38454D01*
X38282D02*
X38454D01*
X41564Y18476D02*
X43776D01*
X44657D02*
X45763D01*
X40038Y25449D02*
X40566Y25977D01*
X44104Y17923D02*
X44657Y18476D01*
X45763D02*
X46233Y18006D01*
X40683Y18476D02*
X41236Y17923D01*
X38454Y25977D02*
X38982Y25449D01*
X40038D01*
X38454Y25977D02*
Y26084D01*
X39577Y18476D02*
X40683D01*
X39024Y17923D02*
X39577Y18476D01*
X43776Y16780D02*
X49400Y11156D01*
X45763Y16264D02*
X46193Y16694D01*
X44104Y16817D02*
X44657Y16264D01*
X44921Y11156D02*
X51760Y17994D01*
X45640Y11156D02*
X51760Y17276D01*
X44203Y11156D02*
X51760Y18713D01*
X41329Y11156D02*
X46868Y16694D01*
X42048Y11156D02*
X47587Y16694D01*
X41050Y16632D02*
X46526Y11156D01*
X43485D02*
X51760Y19431D01*
X42766Y11156D02*
X51760Y20149D01*
X42136Y16264D02*
X47244Y11156D01*
X42854Y16264D02*
X47963Y11156D01*
X44657Y16264D02*
X45763D01*
X45009D02*
X50118Y11156D01*
X45728Y16264D02*
X50836Y11156D01*
X43572Y16264D02*
X48681Y11156D01*
X39892D02*
X45001Y16264D01*
X39980D02*
X45089Y11156D01*
X39174D02*
X44470Y16452D01*
X40691Y16272D02*
X45808Y11156D01*
X40611D02*
X45720Y16264D01*
X43776Y18216D02*
X44104Y17888D01*
X43776Y17194D02*
X44104Y17523D01*
X43776Y16264D02*
Y18476D01*
X44104Y16817D02*
Y17923D01*
X41564Y16264D02*
Y18476D01*
X41236Y17883D02*
X41564Y17554D01*
X41236Y17528D02*
X41564Y17857D01*
X40643Y18476D02*
X41236Y17883D01*
Y16817D02*
Y17923D01*
X39024Y16817D02*
Y17923D01*
X43776Y17498D02*
X44104Y17169D01*
X43776Y16476D02*
X44111Y16811D01*
X41564Y16264D02*
X43776D01*
X41236Y17164D02*
X41564Y16836D01*
X39577Y16264D02*
X40683D01*
X39024Y16817D02*
X39577Y16264D01*
X38456Y11156D02*
X43564Y16264D01*
X40683D02*
X41236Y16817D01*
X59290Y11156D02*
X60179Y12044D01*
X59932Y9244D02*
X60378Y8798D01*
X59287Y12044D02*
X60176Y11156D01*
X60378Y5655D02*
Y9244D01*
X59146Y5983D02*
X60378Y7215D01*
X59213Y9244D02*
X60378Y8080D01*
X57777Y9244D02*
X60378Y6643D01*
X58427Y5983D02*
X60378Y7933D01*
X58495Y9244D02*
X60378Y7362D01*
X52914Y1906D02*
X60252Y9244D01*
X57058D02*
X60378Y5925D01*
X56340Y9244D02*
X60154Y5431D01*
X60002Y5402D02*
X60378Y5778D01*
X60078Y5355D02*
X60378Y5655D01*
X59643Y5761D02*
X60378Y6496D01*
X60078Y4099D02*
Y5355D01*
X59421Y3471D02*
X60049Y4099D01*
Y5355D01*
X59421Y5983D02*
X60049Y5355D01*
X57942Y1906D02*
X60107Y4070D01*
X58661Y1906D02*
X60466Y3711D01*
X58521Y3471D02*
X60086Y1906D01*
X58918Y12370D02*
X59243Y12044D01*
X58918Y12370D02*
X59243Y12044D01*
X57853Y11156D02*
X58993Y12295D01*
X58571Y11156D02*
X59460Y12044D01*
X55621Y9244D02*
X58883Y5983D01*
X54903Y9244D02*
X58165Y5982D01*
X51760Y12370D02*
X58918D01*
X54185Y9244D02*
X57806Y5623D01*
X53466Y9244D02*
X57538Y5173D01*
X52029Y9244D02*
X59368Y1906D01*
X52748Y9244D02*
X57538Y4454D01*
X58166Y5983D02*
X59421D01*
X58166Y3471D02*
X59421D01*
X57538Y4099D02*
X58166Y3471D01*
X52195Y1906D02*
X59534Y9244D01*
X57538Y5355D02*
X58166Y5983D01*
X57538Y4099D02*
Y5355D01*
X57224Y1906D02*
X58790Y3471D01*
X54350Y1906D02*
X57538Y5093D01*
X51477Y1906D02*
X58815Y9244D01*
X53632Y1906D02*
X60378Y8652D01*
X51311Y9244D02*
X58650Y1906D01*
X55787D02*
X57759Y3878D01*
X56506Y1906D02*
X58119Y3519D01*
X55069Y1906D02*
X57538Y4375D01*
X49874Y9244D02*
X57213Y1906D01*
X50040D02*
X57379Y9244D01*
X49321Y1906D02*
X56660Y9244D01*
X50758Y1906D02*
X58097Y9244D01*
X50592D02*
X57931Y1906D01*
X58675Y483D02*
X58787Y594D01*
X59242D02*
X59354Y483D01*
X58524Y594D02*
X58636Y483D01*
X59961Y594D02*
X60073Y483D01*
X60112D02*
X60223Y594D01*
X59393Y483D02*
X59505Y594D01*
X57087D02*
X57199Y483D01*
X57238D02*
X57350Y594D01*
X56519Y483D02*
X56631Y594D01*
X57956Y483D02*
X58068Y594D01*
X57806D02*
X57917Y483D01*
X50772D02*
X50884Y594D01*
X51340D02*
X51452Y483D01*
X50621Y594D02*
X50733Y483D01*
X52058Y594D02*
X52170Y483D01*
X52209D02*
X52321Y594D01*
X51491Y483D02*
X51602Y594D01*
X49156Y9244D02*
X56494Y1906D01*
X49335Y483D02*
X49447Y594D01*
X49185D02*
X49296Y483D01*
X50054D02*
X50165Y594D01*
X49903D02*
X50015Y483D01*
X54932Y594D02*
X55044Y483D01*
X55083D02*
X55194Y594D01*
X54364Y483D02*
X54476Y594D01*
X55801Y483D02*
X55913Y594D01*
X56369D02*
X56481Y483D01*
X55650Y594D02*
X55762Y483D01*
X52927D02*
X53039Y594D01*
X53495D02*
X53607Y483D01*
X52777Y594D02*
X52888Y483D01*
X54213Y594D02*
X54325Y483D01*
X53646D02*
X53758Y594D01*
X42660Y7457D02*
X44447Y9244D01*
X42660Y6739D02*
X45165Y9244D01*
X42473Y7989D02*
X43729Y9244D01*
X42660Y3146D02*
X48758Y9244D01*
X42660Y2428D02*
X49476Y9244D01*
X42379Y3584D02*
X48039Y9244D01*
X41214Y3856D02*
X46602Y9244D01*
X41932Y3856D02*
X47321Y9244D01*
X42114Y8348D02*
X43010Y9244D01*
X41253D02*
X48592Y1906D01*
X41971Y9244D02*
X49310Y1906D01*
X38545D02*
X45884Y9244D01*
X47166Y1906D02*
X54505Y9244D01*
X47719D02*
X55058Y1906D01*
X46448D02*
X53787Y9244D01*
X48437D02*
X55776Y1906D01*
X48603D02*
X55942Y9244D01*
X47885Y1906D02*
X55223Y9244D01*
X42152Y6190D02*
X46436Y1906D01*
X41479Y6144D02*
X45718Y1906D01*
X42107Y3856D02*
X42660Y3303D01*
X42511Y6549D02*
X47155Y1906D01*
X42606Y2144D02*
X42844Y1906D01*
X41403Y8356D02*
X42292Y9244D01*
X41001Y8356D02*
X42107D01*
X40535Y9244D02*
X41423Y8356D01*
X42660Y6697D02*
Y7803D01*
X42065Y6144D02*
X42660Y6739D01*
X42107Y8356D02*
X42660Y7803D01*
X39816Y9244D02*
X40853Y8207D01*
X40448Y7803D02*
X41001Y8356D01*
X39098Y9244D02*
X40494Y7848D01*
X40448Y6697D02*
Y7803D01*
X38379Y9244D02*
X40448Y7175D01*
X42107Y6144D02*
X42660Y6697D01*
X41001Y3856D02*
X42107D01*
X41001Y6144D02*
X42107D01*
X42660Y2197D02*
Y3303D01*
X42368Y1906D02*
X42660Y2197D01*
X40448D02*
X40740Y1906D01*
X40448Y6697D02*
X41001Y6144D01*
X40448Y3303D02*
X41001Y3856D01*
X40448Y2197D02*
Y3303D01*
X39982Y1906D02*
X40448Y2372D01*
X39264Y1906D02*
X40448Y3091D01*
X44845Y9244D02*
X52184Y1906D01*
X45011D02*
X52350Y9244D01*
X44292Y1906D02*
X51631Y9244D01*
X45729Y1906D02*
X53068Y9244D01*
X46282D02*
X53621Y1906D01*
X45563Y9244D02*
X52902Y1906D01*
X42856D02*
X50194Y9244D01*
X43408D02*
X50747Y1906D01*
X42690Y9244D02*
X50029Y1906D01*
X44127Y9244D02*
X51465Y1906D01*
X43574D02*
X50913Y9244D01*
X47180Y483D02*
X47292Y594D01*
X47748D02*
X47859Y483D01*
X47029Y594D02*
X47141Y483D01*
X48466Y594D02*
X48578Y483D01*
X48617D02*
X48729Y594D01*
X47898Y483D02*
X48010Y594D01*
X47000Y9244D02*
X54339Y1906D01*
X42660Y7119D02*
X47873Y1906D01*
X45743Y483D02*
X45855Y594D01*
X46462Y483D02*
X46573Y594D01*
X46311D02*
X46423Y483D01*
X42660Y2809D02*
X43563Y1906D01*
X40563Y594D02*
X40675Y483D01*
X39996D02*
X40108Y594D01*
X41282D02*
X41394Y483D01*
X41433D02*
X41544Y594D01*
X40714Y483D02*
X40826Y594D01*
X38559Y483D02*
X38671Y594D01*
X39127D02*
X39238Y483D01*
X38408Y594D02*
X38520Y483D01*
X39845Y594D02*
X39957Y483D01*
X39277D02*
X39389Y594D01*
X44156D02*
X44267Y483D01*
X44306D02*
X44418Y594D01*
X43588Y483D02*
X43700Y594D01*
X45025Y483D02*
X45137Y594D01*
X45592D02*
X45704Y483D01*
X44874Y594D02*
X44986Y483D01*
X42151D02*
X42263Y594D01*
X42719D02*
X42831Y483D01*
X42000Y594D02*
X42112Y483D01*
X43437Y594D02*
X43549Y483D01*
X42869D02*
X42981Y594D01*
X35798Y70017D02*
X38246Y67570D01*
X36517Y70017D02*
X38964Y67570D01*
X35080Y70017D02*
X37527Y67570D01*
X33643Y70017D02*
X37160Y66500D01*
X31488Y70017D02*
X37160Y64345D01*
X34361Y70017D02*
X37160Y67219D01*
X30051Y70017D02*
X37160Y62908D01*
X29332Y70017D02*
X37160Y62190D01*
X30769Y70017D02*
X37160Y63627D01*
X27896Y70017D02*
X37160Y60753D01*
X27177Y70017D02*
X37160Y60035D01*
X28614Y70017D02*
X37160Y61471D01*
X37396Y67570D02*
X39844Y70017D01*
X37160Y67570D02*
X88800D01*
X37235Y70017D02*
X39683Y67570D01*
X29806Y63797D02*
X37160Y56443D01*
X29806Y63079D02*
X37160Y55724D01*
X29806Y64515D02*
X37160Y57161D01*
X27598Y54180D02*
X37160Y63742D01*
X28553Y62894D02*
X37160Y54287D01*
X29271Y62894D02*
X37160Y55006D01*
X29035Y54180D02*
X37160Y62305D01*
X28317Y54180D02*
X37160Y63023D01*
X32925Y70017D02*
X37160Y65782D01*
X32206Y70017D02*
X37160Y65064D01*
X29806Y65008D02*
X34815Y70017D01*
X29806Y64290D02*
X35533Y70017D01*
X29806Y63571D02*
X36252Y70017D01*
X29806Y62894D02*
Y65106D01*
X28466D02*
X33378Y70017D01*
X29185Y65106D02*
X34096Y70017D01*
X27748Y65106D02*
X32660Y70017D01*
X27594Y64952D02*
X27748Y65106D01*
X27594Y62894D02*
Y65106D01*
X29806D01*
X27594Y62894D02*
X29806D01*
X27266Y63905D02*
X27594Y64234D01*
X27266Y64182D02*
X27594Y63853D01*
X27230Y64588D02*
X27594Y64952D01*
X27266Y63463D02*
X27594Y63135D01*
X27266Y63447D02*
Y64553D01*
X35853Y48785D02*
X38818Y51750D01*
X36213Y48426D02*
X39537Y51750D01*
X35494Y49144D02*
X38100Y51750D01*
X36931Y47707D02*
X40974Y51750D01*
X37290Y47348D02*
X41692Y51750D01*
X36572Y48067D02*
X40255Y51750D01*
X31191Y54180D02*
X37160Y60149D01*
X35135Y49503D02*
X37382Y51750D01*
X29754Y54180D02*
X37160Y61586D01*
X34880Y52975D02*
X46074Y41781D01*
X34880Y52257D02*
X46866Y40271D01*
X34880Y53694D02*
X41809Y46764D01*
X37160Y51750D02*
X42394D01*
X37649Y46989D02*
X42394Y51734D01*
X37542Y51750D02*
X41809Y47483D01*
X34880Y47228D02*
X39297Y42811D01*
X34880Y46509D02*
X38781Y42609D01*
X34880Y47946D02*
X38454Y44372D01*
X34880Y50102D02*
X39631Y45351D01*
X34880Y49758D02*
X39288Y45351D01*
X34880Y48092D02*
X38454Y44517D01*
X34880Y51538D02*
X46375Y40043D01*
X34880Y50820D02*
X46074Y39626D01*
X34783Y54180D02*
X37160Y56557D01*
X34880Y53559D02*
X37160Y55839D01*
X34064Y54180D02*
X37160Y57276D01*
Y51750D02*
Y67570D01*
X34880Y52122D02*
X37160Y54402D01*
X34880Y52841D02*
X37160Y55121D01*
X31909Y54180D02*
X37160Y59431D01*
X32627Y54180D02*
X37160Y58713D01*
X30472Y54180D02*
X37160Y60868D01*
X27835Y62894D02*
X37160Y53569D01*
X33346Y54180D02*
X37160Y57994D01*
X34880Y47093D02*
X35379Y47592D01*
X34880Y46375D02*
X35738Y47233D01*
X34880Y47812D02*
X35020Y47952D01*
X35338Y45396D02*
X36457Y46515D01*
X35697Y45036D02*
X36816Y46156D01*
X34979Y45755D02*
X36098Y46874D01*
X34880Y50685D02*
X37160Y52965D01*
X34880Y49967D02*
X37160Y52247D01*
X34880Y51404D02*
X37160Y53684D01*
X34880Y45853D02*
Y48092D01*
Y49758D02*
Y54180D01*
X23437Y65106D02*
X28349Y70017D01*
X23585D02*
X28497Y65106D01*
X22867Y70017D02*
X27779Y65106D01*
X24304Y70017D02*
X29215Y65106D01*
X24523Y64755D02*
X29786Y70017D01*
X24156Y65106D02*
X29067Y70017D01*
X21282Y65106D02*
X26194Y70017D01*
X21430D02*
X26342Y65106D01*
X20712Y70017D02*
X25623Y65106D01*
X22148Y70017D02*
X27594Y64571D01*
X22176Y64563D02*
X27631Y70017D01*
X21817Y64922D02*
X26912Y70017D01*
X26311Y65106D02*
X31223Y70017D01*
X26871Y64947D02*
X31941Y70017D01*
X25607Y65106D02*
X26713D01*
X27266Y64553D01*
X26713Y62894D02*
X27266Y63447D01*
X25607Y62894D02*
X26713D01*
X24726Y64239D02*
X30504Y70017D01*
X483D02*
X96517D01*
X25054Y64553D02*
X25607Y65106D01*
X25054Y63519D02*
X25679Y62894D01*
X25054Y63447D02*
X25607Y62894D01*
X19993Y70017D02*
X25256Y64754D01*
X20563Y65106D02*
X25475Y70017D01*
X19110Y65089D02*
X24038Y70017D01*
X19469Y64729D02*
X24757Y70017D01*
X19275D02*
X25054Y64238D01*
X22514Y64553D02*
X23067Y65106D01*
X18408D02*
X23320Y70017D01*
X18556D02*
X23468Y65106D01*
X17838Y70017D02*
X22908Y64947D01*
X17106Y64521D02*
X22602Y70017D01*
X17119D02*
X22549Y64588D01*
X24726Y63520D02*
X25054Y63849D01*
X24726Y63848D02*
X25054Y63519D01*
X24173Y65106D02*
X24726Y64553D01*
X25054Y63447D02*
Y64553D01*
X24173Y62894D02*
X24726Y63447D01*
Y64553D01*
X23067Y65106D02*
X24173D01*
X22186Y63854D02*
X22514Y64183D01*
X22186Y64233D02*
X22514Y63904D01*
X24100Y62894D02*
X24726Y63520D01*
X22514Y63447D02*
Y64553D01*
X25740Y70017D02*
X37160Y58598D01*
X25022Y70017D02*
X37160Y57879D01*
X26459Y70017D02*
X37160Y59316D01*
X25443Y54180D02*
X37160Y65897D01*
X26162Y54180D02*
X37160Y65178D01*
X24725Y54180D02*
X37160Y66615D01*
X22569Y54180D02*
X38407Y70017D01*
X23288Y54180D02*
X39125Y70017D01*
X24006Y54180D02*
X37160Y67334D01*
X20000Y52329D02*
X37688Y70017D01*
X20000Y53047D02*
X36970Y70017D01*
X24567Y63288D02*
X33675Y54180D01*
X25679Y62894D02*
X34394Y54180D01*
X24208Y62929D02*
X32957Y54180D01*
X26914Y63096D02*
X37160Y52851D01*
X26398Y62894D02*
X37160Y52132D01*
X26880Y54180D02*
X37160Y64460D01*
X22186Y63514D02*
X31520Y54180D01*
X22036Y62946D02*
X30802Y54180D01*
X22036Y62228D02*
X30083Y54180D01*
X22280D02*
X34880D01*
X23524Y62894D02*
X32238Y54180D01*
X22514Y63447D02*
X23067Y62894D01*
X24173D01*
X22036Y62267D02*
X22865Y63097D01*
X18977Y54180D02*
X27692Y62894D01*
X19696Y54180D02*
X28410Y62894D01*
X18259Y54180D02*
X27594Y63515D01*
X16906Y54982D02*
X25213Y63289D01*
X16906Y55700D02*
X24100Y62894D01*
X16906Y56419D02*
X23381Y62894D01*
X17541Y54180D02*
X26255Y62894D01*
X16906Y54264D02*
X25572Y62930D01*
X20811Y60578D02*
X27209Y54180D01*
X20452Y60219D02*
X26491Y54180D01*
X20093Y59860D02*
X25773Y54180D01*
X21889Y61656D02*
X29365Y54180D01*
X21530Y61296D02*
X28646Y54180D01*
X21171Y60937D02*
X27928Y54180D01*
X19375Y59141D02*
X24336Y54180D01*
X19015Y58782D02*
X23617Y54180D01*
X18656Y58423D02*
X22899Y54180D01*
X20000Y53766D02*
X29129Y62894D01*
X19734Y59500D02*
X25054Y54180D01*
X37134Y43600D02*
X38253Y44719D01*
X37493Y43240D02*
X38454Y44202D01*
X36775Y43959D02*
X37894Y45078D01*
X37852Y42881D02*
X38596Y43625D01*
X37161Y41472D02*
X37378Y41689D01*
X36802Y41831D02*
X37019Y42048D01*
X34880Y45853D02*
X38423Y42311D01*
X36415Y44318D02*
X37534Y45437D01*
X36056Y44677D02*
X37175Y45796D01*
X35106Y43528D02*
X38673Y39961D01*
X34880Y42087D02*
X37973Y38994D01*
X34880Y44187D02*
X37589Y41477D01*
X37867Y41199D01*
X38423D01*
X37589Y41477D02*
X37867Y41199D01*
X38423D01*
X37532Y38251D02*
X38124Y38843D01*
X37521Y41113D02*
X37737Y41329D01*
X36814Y38969D02*
X37406Y39561D01*
X37173Y38610D02*
X37765Y39202D01*
X36455Y39329D02*
X37046Y39920D01*
X34880Y41481D02*
X38806Y37554D01*
X34880Y40903D02*
X38518Y37266D01*
X35365Y43268D02*
X35582Y43485D01*
X35725Y42909D02*
X35941Y43125D01*
X35006Y43627D02*
X35223Y43844D01*
X36084Y42550D02*
X36300Y42766D01*
X36443Y42190D02*
X36660Y42407D01*
X35018Y40765D02*
X35610Y41357D01*
X34880Y43753D02*
X35106Y43528D01*
X34880Y43753D02*
X35106Y43528D01*
X34880Y43753D02*
Y44187D01*
Y41346D02*
X35250Y41716D01*
X34880Y40903D02*
Y42087D01*
X35736Y40047D02*
X36328Y40639D01*
X36096Y39688D02*
X36687Y40279D01*
X35377Y40406D02*
X35969Y40998D01*
X35287Y37443D02*
X35981Y38136D01*
X34985Y37443D02*
X35541D01*
X34985D02*
X35541D01*
X34880Y38472D02*
X35262Y38854D01*
X34880Y37754D02*
X35621Y38495D01*
X34880Y37443D02*
Y39237D01*
Y37888D02*
X35326Y37443D01*
X34880D02*
X34985D01*
X37719Y36397D02*
X37997Y36119D01*
X37719Y36397D02*
X37997Y36119D01*
X37210Y35773D02*
X37777Y36340D01*
X37569Y35414D02*
X38275Y36119D01*
X37459Y33857D02*
X37737Y33579D01*
X37459Y33857D02*
X37737Y33579D01*
X34880Y38607D02*
X38639Y34848D01*
X35819Y37165D02*
X38293Y34691D01*
X34880Y39237D02*
X37719Y36397D01*
X34880Y35733D02*
X38463Y32151D01*
X36872Y32561D02*
X37890Y33579D01*
X37737D02*
X38293D01*
X37752D02*
X38832Y32500D01*
X37737Y33579D02*
X38293D01*
X37418Y31039D02*
X38665Y29793D01*
X37843Y29940D02*
X38712Y30809D01*
X37484Y30300D02*
X38224Y31039D01*
X37231Y32202D02*
X38545Y33516D01*
X37283Y31039D02*
X38482D01*
X37283Y32151D02*
X38482D01*
X36744Y31039D02*
X38173Y29611D01*
X37125Y30659D02*
X37505Y31039D01*
X35773Y37210D02*
X36340Y37777D01*
X36132Y36851D02*
X36699Y37418D01*
X35541Y37443D02*
X35819Y37165D01*
X36492Y36492D02*
X37058Y37058D01*
X36851Y36132D02*
X37418Y36699D01*
X36492Y36492D02*
X37058Y37058D01*
X35541Y37443D02*
X35819Y37165D01*
X34880Y35598D02*
X35299Y36018D01*
X34880Y36331D02*
X34985D01*
X37459Y33857D01*
X34880Y35180D02*
Y36331D01*
X36513Y32921D02*
X37454Y33862D01*
X36449Y31334D02*
X36744Y31039D01*
X36449Y31317D02*
X36727Y31039D01*
X36744D02*
X37283D01*
X36744D02*
X37283D01*
X36449Y31317D02*
X36727Y31039D01*
X35076Y34357D02*
X36018Y35299D01*
X35435Y33998D02*
X36377Y34940D01*
X34717Y34717D02*
X35658Y35658D01*
X36154Y33280D02*
X37095Y34221D01*
X35794Y33639D02*
X36736Y34581D01*
X34357Y35076D02*
X34462Y35180D01*
X34253D02*
X34880D01*
X32603D02*
X32806Y34978D01*
X34717Y34717D02*
X35658Y35658D01*
X32587Y35180D02*
X32806Y34961D01*
X32603Y35180D02*
X32806Y34978D01*
X28977Y34006D02*
X29115Y34144D01*
X29285D02*
X29423Y34006D01*
X28566Y34144D02*
X28705Y34006D01*
X30003Y34144D02*
X30142Y34006D01*
X30413D02*
X30552Y34144D01*
X29695Y34006D02*
X29834Y34144D01*
X31472Y34006D02*
X32028D01*
X31472D02*
X32028D01*
X31440Y34144D02*
X31579Y34006D01*
X32028D02*
X32306Y33728D01*
X32028Y34006D02*
X32306Y33728D01*
X31850Y34006D02*
X31981Y34136D01*
X28678Y34144D02*
X31972D01*
X27388Y34006D02*
X31472D01*
X30721Y34144D02*
X30860Y34006D01*
X27388Y32894D02*
X31472D01*
X31132Y34006D02*
X31271Y34144D01*
X26213Y35180D02*
X27087D01*
X26745Y34648D02*
X27182Y35085D01*
X26386Y35007D02*
X26559Y35180D01*
X27087D02*
X27844Y34422D01*
X26812Y35180D02*
X27986Y34006D01*
X26213Y35180D02*
X27388Y34006D01*
X22280Y35180D02*
X24547D01*
X26554Y33172D01*
X21656Y33869D02*
X22967Y35180D01*
X21656Y32432D02*
X24404Y35180D01*
X21656Y33150D02*
X23685Y35180D01*
X27844Y34422D02*
X28122Y34144D01*
X28678D01*
X27844Y34422D02*
X28122Y34144D01*
X28258Y34006D02*
X28397Y34144D01*
X28122D02*
X28678D01*
X27540Y34006D02*
X27900Y34366D01*
X27105Y34289D02*
X27541Y34725D01*
X26554Y33172D02*
X26832Y32894D01*
X26554Y33172D02*
X26832Y32894D01*
X27388D01*
X26832D02*
X27388D01*
X34253Y35180D02*
X37283Y32151D01*
X34715Y35180D02*
X37744Y32151D01*
X29365Y31520D02*
X30739Y32894D01*
X32806Y34978D02*
X36449Y31334D01*
X32806Y34961D02*
X36449Y31317D01*
X29816Y32894D02*
X31191Y31520D01*
X27928D02*
X29302Y32894D01*
X28379D02*
X29754Y31520D01*
X27661Y32894D02*
X29035Y31520D01*
X29098Y32894D02*
X30472Y31520D01*
X28646D02*
X30021Y32894D01*
X31472D02*
X32847Y31520D01*
X31520D02*
X32183Y32183D01*
X31520Y31520D02*
X32183Y32183D01*
X33580Y29988D02*
X33979Y30387D01*
X33580Y29269D02*
X34339Y30028D01*
X32238Y31520D02*
X32543Y31824D01*
X30535Y32894D02*
X31909Y31520D01*
X23580D02*
X32847D01*
X30083D02*
X31458Y32894D01*
X31253D02*
X32627Y31520D01*
X30802D02*
X31824Y32543D01*
X22502Y35180D02*
X26162Y31520D01*
X23220Y35180D02*
X26880Y31520D01*
X21656Y33871D02*
X24006Y31520D01*
X23938Y35180D02*
X27598Y31520D01*
X24336D02*
X26271Y33455D01*
X23617Y31520D02*
X25912Y33815D01*
X21656Y35308D02*
X25443Y31520D01*
X21656Y31713D02*
X24834Y34892D01*
X21656Y34589D02*
X24725Y31520D01*
X21656Y30277D02*
X25553Y34174D01*
X21656Y30995D02*
X25194Y34533D01*
X25773Y31520D02*
X27147Y32894D01*
X26491Y31520D02*
X27865Y32894D01*
X25054Y31520D02*
X26630Y33096D01*
X26942Y32894D02*
X28317Y31520D01*
X27209D02*
X28584Y32894D01*
X21656Y28840D02*
X23580Y30764D01*
X21656Y32434D02*
X23580Y30509D01*
X21656Y31715D02*
X23580Y29791D01*
X21656Y33152D02*
X23580Y31228D01*
X21656Y30997D02*
X23580Y29073D01*
X21656Y29558D02*
X23580Y31483D01*
X16253Y65106D02*
X21165Y70017D01*
X16401D02*
X21313Y65106D01*
X17987D02*
X19093D01*
X16762Y64896D02*
X21883Y70017D01*
X19093Y65106D02*
X19646Y64553D01*
X17434D02*
X17987Y65106D01*
X15535D02*
X20446Y70017D01*
X15683D02*
X20594Y65106D01*
X13527Y70017D02*
X18439Y65106D01*
X14246Y70017D02*
X19974Y64289D01*
X14964Y70017D02*
X20202Y64780D01*
X12809Y70017D02*
X17854Y64972D01*
X20527Y65106D02*
X21633D01*
X22186Y64553D01*
X19974Y64517D02*
X20563Y65106D01*
X22186Y63447D02*
Y64553D01*
X19974Y63447D02*
X20124Y63297D01*
X19974Y63447D02*
Y64553D01*
X20527Y65106D01*
X19646Y63899D02*
X19974Y63570D01*
X19646Y64188D02*
X19974Y64517D01*
X19646Y63469D02*
X19974Y63798D01*
X19646Y63447D02*
Y64553D01*
X10654Y70017D02*
X15565Y65106D01*
X11372Y70017D02*
X16284Y65106D01*
X9935Y70017D02*
X15147Y64806D01*
X9217Y70017D02*
X14894Y64340D01*
X8498Y70017D02*
X14894Y63621D01*
X7856Y64611D02*
X13262Y70017D01*
X7856Y67485D02*
X10388Y70017D01*
X7856Y66766D02*
X11107Y70017D01*
X7593Y67940D02*
X9670Y70017D01*
X7856Y65329D02*
X12544Y70017D01*
X7856Y66048D02*
X11825Y70017D01*
X16553Y65106D02*
X17106Y64553D01*
Y64284D02*
X17434Y63955D01*
X15447Y65106D02*
X16553D01*
X17434Y63447D02*
Y64553D01*
X17106Y63803D02*
X17434Y64132D01*
X17106Y63447D02*
Y64553D01*
X12090Y70017D02*
X17495Y64613D01*
X14894Y64465D02*
X15535Y65106D01*
X14894Y64553D02*
X15447Y65106D01*
X14894Y63447D02*
Y64553D01*
X7856Y64322D02*
Y67678D01*
X22036Y62986D02*
X22514Y63464D01*
X22036Y63297D02*
X22186Y63447D01*
X20124Y62758D02*
Y63297D01*
X19512Y63314D02*
X20096Y62730D01*
X22036Y62758D02*
Y63297D01*
X19153Y62955D02*
X19737Y62371D01*
X19071Y62894D02*
X19646Y63469D01*
X19093Y62894D02*
X19646Y63447D01*
X17987Y62894D02*
X19093D01*
X11075Y54180D02*
X20124Y63230D01*
X10356Y54180D02*
X19071Y62894D01*
X22036Y61802D02*
Y62758D01*
Y61802D02*
Y62758D01*
X18495Y62894D02*
X19378Y62011D01*
X21558Y61324D02*
X22036Y61802D01*
X18297Y58064D02*
X22280Y54081D01*
X21558Y61324D02*
X22036Y61802D01*
X16906Y56672D02*
X21558Y61324D01*
X17938Y57704D02*
X22280Y53362D01*
X15472Y58106D02*
X20124Y62758D01*
X17219Y56986D02*
X22280Y51925D01*
X17579Y57345D02*
X22280Y52644D01*
X16553Y62894D02*
X17106Y63447D01*
X17434D02*
X17987Y62894D01*
X14894Y63447D02*
X15447Y62894D01*
X17106Y63565D02*
X19019Y61652D01*
X8201Y54180D02*
X17451Y63430D01*
X7856Y64913D02*
X15068Y57701D01*
X7780Y70017D02*
X17582Y60215D01*
X7856Y67068D02*
X16145Y58779D01*
X7856Y66350D02*
X15786Y58419D01*
X7856Y65631D02*
X15427Y58060D01*
X7792Y64258D02*
X14994Y57056D01*
X16806Y63147D02*
X18660Y61293D01*
X16340Y62894D02*
X18300Y60934D01*
X15447Y62894D02*
X16553D01*
X15621D02*
X17941Y60575D01*
X14994Y56672D02*
Y57628D01*
Y56672D02*
Y57628D01*
X8919Y54180D02*
X17811Y63071D01*
X14994Y57628D02*
X15472Y58106D01*
X14994Y57628D02*
X15472Y58106D01*
X9638Y54180D02*
X18352Y62894D01*
X11793Y54180D02*
X14994Y57381D01*
X4906Y70017D02*
X5568Y69356D01*
X5416D02*
X6078Y70017D01*
X4698Y69356D02*
X5359Y70017D01*
X6515Y69018D02*
X7515Y70017D01*
X6875Y68659D02*
X8233Y70017D01*
X6135Y69356D02*
X6796Y70017D01*
X3261Y69356D02*
X3923Y70017D01*
X3469D02*
X4131Y69356D01*
X2751Y70017D02*
X3413Y69356D01*
X3979D02*
X4641Y70017D01*
X4188D02*
X4850Y69356D01*
X483Y67296D02*
X3204Y70017D01*
X7234Y68300D02*
X8952Y70017D01*
X6178Y69356D02*
X7856Y67678D01*
X6178Y62644D02*
X7856Y64322D01*
X2822Y69356D02*
X6178D01*
X1144Y64440D02*
X2940Y62644D01*
X2822D02*
X6178D01*
X1144Y64322D02*
X2822Y62644D01*
X1314Y70017D02*
X2399Y68932D01*
X2033Y70017D02*
X2758Y69292D01*
X596Y70017D02*
X2040Y68573D01*
X1144Y67678D02*
X2822Y69356D01*
X1144Y64322D02*
Y67678D01*
X483Y67975D02*
X1144Y67313D01*
X483Y68733D02*
X1767Y70017D01*
X483Y69412D02*
X1681Y68214D01*
X483Y69451D02*
X1049Y70017D01*
X483Y68014D02*
X2486Y70017D01*
X483Y68694D02*
X1321Y67855D01*
X483Y65102D02*
X1144Y64440D01*
X483Y64422D02*
X1144Y65084D01*
X483Y65141D02*
X1144Y65802D01*
X483Y62985D02*
X1482Y63985D01*
X483Y62267D02*
X1841Y63625D01*
X483Y63704D02*
X1144Y64365D01*
X483Y66577D02*
X1144Y67239D01*
X483Y66538D02*
X1144Y65877D01*
X483Y67257D02*
X1144Y66595D01*
X483Y65820D02*
X1144Y65158D01*
X483Y65859D02*
X1144Y66521D01*
X6343Y70017D02*
X16864Y59497D01*
X7062Y70017D02*
X17223Y59856D01*
X5625Y70017D02*
X16504Y59138D01*
X2454Y54180D02*
X18291Y70017D01*
X3172Y54180D02*
X19009Y70017D01*
X483Y52927D02*
X17573Y70017D01*
X483Y55801D02*
X14699Y70017D01*
X483Y55083D02*
X15417Y70017D01*
X483Y56519D02*
X13981Y70017D01*
X483Y53646D02*
X16854Y70017D01*
X483Y54364D02*
X16136Y70017D01*
X7073Y63540D02*
X14994Y55619D01*
X6714Y63181D02*
X14994Y54900D01*
X7432Y63899D02*
X14994Y56337D01*
X6764Y54180D02*
X15479Y62894D01*
X7483Y54180D02*
X16197Y62894D01*
X6355Y62821D02*
X14994Y54182D01*
X3891Y54180D02*
X19728Y70017D01*
X5327Y54180D02*
X14894Y63747D01*
X4609Y54180D02*
X14894Y64465D01*
X6046Y54180D02*
X15104Y63238D01*
X5813Y62644D02*
X14278Y54180D01*
X483Y59393D02*
X3734Y62644D01*
X483Y58675D02*
X4452Y62644D01*
X483Y60112D02*
X3015Y62644D01*
X483Y57238D02*
X5889Y62644D01*
X2940D02*
X11404Y54180D01*
X483Y57956D02*
X5171Y62644D01*
X483Y64383D02*
X10686Y54180D01*
X483Y60830D02*
X2560Y62907D01*
X483Y61548D02*
X2200Y63266D01*
X483Y63665D02*
X9967Y54180D01*
X483Y62946D02*
X9249Y54180D01*
X483Y58636D02*
X4938Y54180D01*
X483Y57917D02*
X4220Y54180D01*
X483Y57199D02*
X3502Y54180D01*
X4377Y62644D02*
X12841Y54180D01*
X5095Y62644D02*
X13559Y54180D01*
X3658Y62644D02*
X12123Y54180D01*
X483Y62228D02*
X8531Y54180D01*
X483Y61509D02*
X7812Y54180D01*
X483Y60791D02*
X7094Y54180D01*
X483Y60073D02*
X6375Y54180D01*
X483Y59354D02*
X5657Y54180D01*
X20234Y44660D02*
X22280Y46706D01*
X20593Y44301D02*
X22280Y45988D01*
X20000Y47021D02*
X22280Y44741D01*
X20000Y45584D02*
X22280Y43304D01*
X20952Y43941D02*
X22280Y45269D01*
X20000Y46303D02*
X22280Y44023D01*
X20000Y46582D02*
X22280Y48862D01*
X20000Y48458D02*
X22280Y46178D01*
X20000Y48018D02*
X22280Y50298D01*
X20000Y47739D02*
X22280Y45459D01*
X20000Y45145D02*
X22280Y47425D01*
X20000Y45863D02*
X22280Y48143D01*
X21656Y41773D02*
X22280Y41149D01*
X21656Y41053D02*
X22280Y41677D01*
X21656Y41771D02*
X22280Y42396D01*
X21656Y40335D02*
X22280Y40959D01*
X21656Y40336D02*
X22280Y39712D01*
X21656Y41055D02*
X22280Y40431D01*
X21656Y43208D02*
X22280Y43833D01*
X21656Y43210D02*
X22280Y42586D01*
X21311Y43582D02*
X22280Y44551D01*
X21656Y42492D02*
X22280Y41867D01*
X21656Y42490D02*
X22280Y43114D01*
X20000Y47300D02*
X22280Y49580D01*
X20000Y49176D02*
X22280Y46896D01*
X20000Y49895D02*
X22280Y47615D01*
X21328Y43566D02*
X21656Y43238D01*
X21328Y43566D02*
X21656Y43238D01*
X20000Y44893D02*
X21328Y43566D01*
X20000Y49455D02*
X22280Y51735D01*
X20000Y51332D02*
X22280Y49052D01*
X20000Y50892D02*
X22280Y53172D01*
X20000Y50613D02*
X22280Y48333D01*
X20000Y48737D02*
X22280Y51017D01*
X21656Y42582D02*
Y43238D01*
Y42582D02*
Y43238D01*
X20000Y41274D02*
X20344Y40929D01*
X20000Y40555D02*
X20344Y40211D01*
X20000Y40116D02*
X20344Y40460D01*
X20000Y40834D02*
X20344Y41179D01*
X20000Y42927D02*
X20344Y42582D01*
X20000Y42710D02*
X20344Y42366D01*
X20000Y42271D02*
X20328Y42599D01*
X20000Y41553D02*
X20344Y41897D01*
X20000Y41992D02*
X20344Y41648D01*
X21656Y37461D02*
X22280Y38085D01*
X21656Y37463D02*
X22280Y36838D01*
X21656Y38181D02*
X22280Y37557D01*
Y35180D02*
Y54180D01*
X21656Y36744D02*
X22280Y36120D01*
X21656Y36742D02*
X22280Y37367D01*
X21656Y39618D02*
X22280Y38994D01*
X21656Y38898D02*
X22280Y39522D01*
X21656Y39616D02*
X22280Y40241D01*
X21656Y38179D02*
X22280Y38804D01*
X21656Y38900D02*
X22280Y38275D01*
X21656Y36026D02*
X22280Y35402D01*
X21656Y35306D02*
X22280Y35930D01*
X21656Y36024D02*
X22280Y36648D01*
X21656Y34587D02*
X22280Y35212D01*
X20000Y33371D02*
X20344Y33027D01*
X20000Y34089D02*
X20344Y33745D01*
X20000Y35526D02*
X20344Y35182D01*
X20000Y35087D02*
X20344Y35431D01*
X20000Y35805D02*
X20344Y36150D01*
X20000Y34368D02*
X20344Y34713D01*
X20000Y34808D02*
X20344Y34463D01*
X20000Y37682D02*
X20344Y37337D01*
X20000Y37242D02*
X20344Y37587D01*
X20000Y37961D02*
X20344Y38305D01*
X20000Y36524D02*
X20344Y36868D01*
X20000Y36245D02*
X20344Y35900D01*
X20000Y36963D02*
X20344Y36619D01*
X20000Y39397D02*
X20344Y39742D01*
X20000Y39118D02*
X20344Y38774D01*
X20000Y39837D02*
X20344Y39492D01*
X20000Y38400D02*
X20344Y38056D01*
X20000Y38679D02*
X20344Y39023D01*
X20000Y30776D02*
X20344Y31121D01*
X20000Y30497D02*
X20344Y30153D01*
X20000Y31216D02*
X20344Y30871D01*
X20000Y29779D02*
X20344Y29435D01*
X20000Y29339D02*
X20344Y29684D01*
X20000Y30058D02*
X20344Y30402D01*
X20000Y32653D02*
X20344Y32308D01*
X20000Y32213D02*
X20344Y32558D01*
X20000Y32932D02*
X20344Y33276D01*
X20000Y31495D02*
X20344Y31839D01*
X20000Y31934D02*
X20344Y31590D01*
X16906Y54180D02*
Y56672D01*
Y56581D02*
X19307Y54180D01*
X14994D02*
Y56672D01*
X16906Y55863D02*
X18588Y54180D01*
X16906Y55144D02*
X17870Y54180D01*
X16906Y54426D02*
X17152Y54180D01*
X12512D02*
X14994Y56663D01*
X483Y56481D02*
X2783Y54180D01*
X483Y55762D02*
X2065Y54180D01*
X13948D02*
X14994Y55226D01*
X14667Y54180D02*
X14994Y54508D01*
X13230Y54180D02*
X14994Y55944D01*
X20000Y53487D02*
X22280Y51207D01*
X20000Y52768D02*
X22280Y50488D01*
X20000Y51611D02*
X22280Y53891D01*
X20000Y50174D02*
X22280Y52454D01*
X20000Y52050D02*
X22280Y49770D01*
X20000Y44893D02*
Y54180D01*
X2000D02*
X14994D01*
X16906D02*
X20000D01*
X483Y52170D02*
X2000Y50653D01*
X483Y45743D02*
X2000Y47261D01*
X483Y50054D02*
X2000Y51571D01*
X483Y50772D02*
X2000Y52289D01*
X483Y51452D02*
X2000Y49934D01*
X483Y52888D02*
X2000Y51371D01*
X483Y50733D02*
X2000Y49216D01*
X483Y48617D02*
X2000Y50134D01*
X483Y49335D02*
X2000Y50853D01*
X483Y54325D02*
X2000Y52808D01*
X483Y52209D02*
X2000Y53726D01*
X483Y55044D02*
X2000Y53526D01*
X483Y51491D02*
X2000Y53008D01*
X483Y53607D02*
X2000Y52089D01*
X483Y47859D02*
X2000Y46342D01*
X483Y47141D02*
X2000Y45624D01*
X483Y46462D02*
X2000Y47979D01*
X483Y46423D02*
X2000Y44905D01*
X483Y44306D02*
X2000Y45824D01*
X483Y45025D02*
X2000Y46542D01*
X483Y47898D02*
X2000Y49416D01*
X483Y49296D02*
X2000Y47779D01*
X483Y50015D02*
X2000Y48497D01*
X483Y48578D02*
X2000Y47061D01*
X483Y47180D02*
X2000Y48697D01*
X483Y35646D02*
X2000Y34129D01*
X483Y33530D02*
X2000Y35047D01*
X483Y34248D02*
X2000Y35766D01*
X483Y32812D02*
X2000Y34329D01*
X483Y34209D02*
X2000Y32692D01*
X483Y34928D02*
X2000Y33410D01*
X483Y35685D02*
X2000Y37203D01*
X483Y37083D02*
X2000Y35566D01*
X483Y37802D02*
X2000Y36284D01*
X483Y36365D02*
X2000Y34847D01*
X483Y34967D02*
X2000Y36484D01*
X20000Y33650D02*
X20344Y33994D01*
X483Y29938D02*
X2000Y31455D01*
X483Y32054D02*
X2000Y30537D01*
X483Y29219D02*
X2000Y30737D01*
X483Y30617D02*
X2000Y29100D01*
X483Y31336D02*
X2000Y29818D01*
X483Y33491D02*
X2000Y31974D01*
X483Y31375D02*
X2000Y32892D01*
X483Y32093D02*
X2000Y33611D01*
X483Y30656D02*
X2000Y32174D01*
X483Y32773D02*
X2000Y31255D01*
X483Y43549D02*
X2000Y42032D01*
X483Y41433D02*
X2000Y42950D01*
X483Y42151D02*
X2000Y43668D01*
X483Y40714D02*
X2000Y42232D01*
X483Y42112D02*
X2000Y40595D01*
X483Y42831D02*
X2000Y41313D01*
X483Y43588D02*
X2000Y45105D01*
X483Y44986D02*
X2000Y43468D01*
X483Y45704D02*
X2000Y44187D01*
X483Y44267D02*
X2000Y42750D01*
X483Y42869D02*
X2000Y44387D01*
X483Y37840D02*
X2000Y39358D01*
X483Y39238D02*
X2000Y37721D01*
X483Y39957D02*
X2000Y38439D01*
X483Y38520D02*
X2000Y37003D01*
X483Y36404D02*
X2000Y37921D01*
X483Y37122D02*
X2000Y38639D01*
X483Y41394D02*
X2000Y39876D01*
X483Y39277D02*
X2000Y40795D01*
X483Y39996D02*
X2000Y41513D01*
X483Y38559D02*
X2000Y40076D01*
X483Y40675D02*
X2000Y39158D01*
X37617Y28499D02*
X38173D01*
X37803D02*
X38862Y27441D01*
X37617Y28499D02*
X38173D01*
X33580Y16338D02*
X46074Y28832D01*
X33783Y15823D02*
X46281Y28321D01*
X33580Y28412D02*
X43516Y18476D01*
X33580Y18493D02*
X46114Y31027D01*
X33580Y30567D02*
X45672Y18476D01*
X33580Y29849D02*
X44953Y18476D01*
X33580Y17775D02*
X46473Y30668D01*
X33580Y17056D02*
X46074Y29551D01*
X33580Y29131D02*
X44446Y18264D01*
X34501Y15823D02*
X46678Y27999D01*
X33580Y25538D02*
X40643Y18476D01*
X33580Y19212D02*
X39818Y25449D01*
X35425Y15309D02*
X46084Y25968D01*
X35784Y14950D02*
X46443Y25609D01*
X35065Y15668D02*
X46074Y26677D01*
X33580Y27694D02*
X42798Y18476D01*
X33580Y20648D02*
X38682Y25750D01*
X33580Y21367D02*
X38298Y26084D01*
X33580Y26975D02*
X42080Y18476D01*
X33580Y26257D02*
X41564Y18272D01*
X37339Y28777D02*
X37617Y28499D01*
X37686Y28347D02*
X37839Y28499D01*
X37339Y28777D02*
X37617Y28499D01*
X33580Y25677D02*
X36135Y28232D01*
X33580Y24959D02*
X36494Y27873D01*
X33580Y26396D02*
X35775Y28591D01*
X33580Y27833D02*
X35057Y29310D01*
X33580Y27114D02*
X35416Y28950D01*
X33580Y28551D02*
X34698Y29669D01*
X33580Y30787D02*
X38004Y26362D01*
X33580Y15823D02*
Y30787D01*
X33955Y15823D02*
X34911D01*
X33955D02*
X34911D01*
X33580D02*
X33955D01*
X34911D02*
X35389Y15345D01*
X36078Y14656D01*
X34911Y15823D02*
X35389Y15345D01*
X33580Y23522D02*
X37212Y27154D01*
X33580Y22804D02*
X37571Y26795D01*
X33580Y24241D02*
X36853Y27514D01*
X33580Y22085D02*
X37931Y26436D01*
X33580Y16199D02*
X33956Y15823D01*
X36556Y13942D02*
X39342Y11156D01*
X36556Y13223D02*
X38623Y11156D01*
X36556D02*
Y13222D01*
X37019Y11156D02*
X42128Y16264D01*
X37737Y11156D02*
X42846Y16264D01*
X36556Y12505D02*
X37905Y11156D01*
X36502Y14231D02*
X39056Y16785D01*
X36556Y13566D02*
X39416Y16426D01*
X36143Y14590D02*
X39024Y17472D01*
X36556Y12129D02*
X41564Y17138D01*
X36556Y11411D02*
X41564Y16420D01*
X36556Y12848D02*
X39972Y16264D01*
X36556Y11156D02*
X60972D01*
X36160Y6704D02*
X38700Y9244D01*
X36556Y11786D02*
X37186Y11156D01*
X36942Y9244D02*
X44281Y1906D01*
X37661Y9244D02*
X45000Y1906D01*
X36224Y9244D02*
X41613Y3856D01*
X36160Y7423D02*
X37981Y9244D01*
X35466Y3856D02*
X40855Y9244D01*
X35990Y7972D02*
X37263Y9244D01*
X35896Y3567D02*
X41573Y9244D01*
X35506D02*
X40948Y3802D01*
X36078Y14656D02*
X36556Y14178D01*
X36078Y14656D02*
X36556Y14178D01*
X33955Y13911D02*
X34644Y13222D01*
X36556D02*
Y14178D01*
Y13222D02*
Y14178D01*
X33712Y13911D02*
X34644Y12979D01*
X33580Y13464D02*
X33991Y13875D01*
X33580Y12746D02*
X34350Y13516D01*
X33580Y13911D02*
X33955D01*
X33580Y13325D02*
X34644Y12261D01*
X33580Y11156D02*
Y13911D01*
X34145Y11156D02*
X34644Y11655D01*
X33728Y11156D02*
X34644D01*
X33580D02*
X33728D01*
X34069Y9244D02*
X34958Y8356D01*
X33728Y9244D02*
X35122D01*
X34644Y11156D02*
Y13222D01*
X33580Y12607D02*
X34644Y11542D01*
X33580Y11309D02*
X34644Y12373D01*
X33580Y12027D02*
X34644Y13092D01*
X33580Y11888D02*
X34313Y11156D01*
X33580D02*
X33728D01*
X33580Y24102D02*
X39392Y18290D01*
X33580Y23383D02*
X39032Y17931D01*
X33580Y22665D02*
X39024Y17220D01*
X33580Y21946D02*
X44371Y11156D01*
X33580Y21228D02*
X43652Y11156D01*
X33580Y20509D02*
X42934Y11156D01*
X32306Y33728D02*
X38728Y27306D01*
X33580Y19930D02*
X39099Y25449D01*
X31972Y34144D02*
X37339Y28777D01*
X33580Y24820D02*
X39924Y18476D01*
X21656Y20221D02*
X23580Y18296D01*
X21656Y18782D02*
X23580Y20706D01*
X33580Y16917D02*
X34675Y15823D01*
X21656Y14473D02*
X23580Y12549D01*
X21656Y18065D02*
X23580Y16141D01*
X33580Y19791D02*
X42215Y11156D01*
X33580Y19073D02*
X41497Y11156D01*
X33580Y18354D02*
X40779Y11156D01*
X21656Y19502D02*
X23580Y17578D01*
X21656Y17345D02*
X23580Y19269D01*
X21656Y18063D02*
X23580Y19988D01*
X21656Y16627D02*
X23580Y18551D01*
X21656Y18784D02*
X23580Y16859D01*
X21656Y23092D02*
X23580Y25017D01*
X21656Y24531D02*
X23580Y22607D01*
X21656Y25250D02*
X23580Y23325D01*
X21656Y23813D02*
X23580Y21888D01*
X21656Y21656D02*
X23580Y23580D01*
X21656Y22374D02*
X23580Y24298D01*
X21656Y26686D02*
X23580Y24762D01*
X21656Y24529D02*
X23580Y26454D01*
X21656Y25248D02*
X23580Y27172D01*
X21656Y23811D02*
X23580Y25735D01*
X21656Y25968D02*
X23580Y24044D01*
X21656Y19500D02*
X23580Y21425D01*
X21656Y20939D02*
X23580Y19015D01*
X21656Y21658D02*
X23580Y19733D01*
X21656Y13755D02*
X23580Y11830D01*
X21656Y11598D02*
X23580Y13522D01*
X21656Y12316D02*
X23580Y14241D01*
X21656Y23094D02*
X23580Y21170D01*
X21656Y20937D02*
X23580Y22862D01*
X21656Y21656D02*
X23580Y23580D01*
X21656Y20219D02*
X23580Y22143D01*
X21656Y22376D02*
X23580Y20452D01*
X33580Y17636D02*
X40060Y11156D01*
X32313Y11000D02*
X32465Y10848D01*
X31595Y11000D02*
X32106Y10489D01*
X30158Y11000D02*
X31387Y9771D01*
X30876Y11000D02*
X31746Y10130D01*
X29439Y11000D02*
X31028Y9411D01*
X29356Y9958D02*
X30397Y11000D01*
X29356Y9240D02*
X31116Y11000D01*
X29356Y10677D02*
X29679Y11000D01*
X29356Y8521D02*
X31834Y11000D01*
X29356Y7739D02*
Y11000D01*
X32294Y10678D02*
X32617Y11000D01*
X32294Y10678D02*
X32617Y11000D01*
X29356D02*
X32617D01*
X29356Y7739D02*
X32294Y10678D01*
X29356Y10365D02*
X30669Y9052D01*
X29356Y9647D02*
X30310Y8693D01*
X29356Y7803D02*
X32553Y11000D01*
X21656Y10881D02*
X29131Y3406D01*
X21656Y10163D02*
X28413Y3406D01*
X28550D02*
X34389Y9244D01*
X21656Y9444D02*
X27694Y3406D01*
X21656Y8724D02*
X23932Y11000D01*
X21656Y8006D02*
X24650Y11000D01*
X23580D02*
Y31520D01*
X21656Y6569D02*
X26087Y11000D01*
X21656Y5850D02*
X26805Y11000D01*
X21656Y7287D02*
X25368Y11000D01*
X21656Y10161D02*
X23580Y12085D01*
X21656Y9442D02*
X23580Y11367D01*
X21656Y10879D02*
X23580Y12804D01*
X21656Y11600D02*
X27144Y6111D01*
X21656Y12318D02*
X27144Y6829D01*
X26566Y11000D02*
X27444Y10121D01*
X25847Y11000D02*
X27444Y9403D01*
X27284Y11000D02*
X27444Y10840D01*
X24410Y11000D02*
X27444Y7966D01*
Y7578D02*
Y11000D01*
X25129D02*
X27444Y8685D01*
X23580Y11000D02*
X27444D01*
X21656Y5132D02*
X27444Y10921D01*
X23692Y11000D02*
X27279Y7413D01*
X22172Y4211D02*
X27444Y9484D01*
X21813Y4571D02*
X27444Y10202D01*
X35122Y9244D02*
X36078D01*
X35122D02*
X36078D01*
X35122D02*
X36078D01*
X35631Y8331D02*
X36544Y9244D01*
X36078D02*
X60378D01*
X35607Y8356D02*
X36160Y7803D01*
X34937Y8356D02*
X35826Y9244D01*
X34501Y8356D02*
X35607D01*
X31569Y5706D02*
X35108Y9244D01*
X34748Y3856D02*
X40137Y9244D01*
X34787D02*
X40589Y3443D01*
X33579Y3406D02*
X39418Y9244D01*
X35600Y6144D02*
X36160Y6704D01*
X35607Y6144D02*
X36160Y6697D01*
Y7803D01*
Y3112D02*
X40448Y7401D01*
X36160Y7154D02*
X40448Y2865D01*
X35607Y3856D02*
X36160Y3303D01*
X34501Y6144D02*
X35607D01*
X31743Y7260D02*
X35147Y3856D01*
X34501D02*
X35607D01*
X32861Y3406D02*
X35600Y6144D01*
X33948Y7803D02*
X34501Y8356D01*
X33948Y6697D02*
X34501Y6144D01*
X33948Y6697D02*
Y7803D01*
X33539Y9056D02*
X34370Y8225D01*
X33180Y8696D02*
X34011Y7865D01*
X32821Y8337D02*
X33948Y7209D01*
X31384Y6900D02*
X34465Y3819D01*
X32257Y5676D02*
X33948Y7367D01*
X32856Y4837D02*
X34332Y6314D01*
X32856Y4119D02*
X34881Y6144D01*
X32856Y3822D02*
Y5078D01*
Y4710D02*
X34106Y3460D01*
X34051Y3406D02*
X34501Y3856D01*
X32856Y3992D02*
X33442Y3406D01*
X32617Y5317D02*
X33973Y6673D01*
X32439Y3406D02*
X32856Y3822D01*
X32228Y5706D02*
X32856Y5078D01*
X32439Y3406D02*
X34051D01*
X32581Y3548D02*
X32723Y3406D01*
X36160Y2394D02*
X40456Y6690D01*
X36160Y2843D02*
X37097Y1906D01*
X36160Y2197D02*
Y3303D01*
X37108Y1906D02*
X41347Y6144D01*
X37827Y1906D02*
X42065Y6144D01*
X36390Y1906D02*
X40815Y6331D01*
X32461Y7978D02*
X38534Y1906D01*
X35013Y6144D02*
X39252Y1906D01*
X32102Y7619D02*
X37815Y1906D01*
X36029Y6566D02*
X40689Y1906D01*
X35669Y6207D02*
X39971Y1906D01*
X36404Y483D02*
X36515Y594D01*
X36971D02*
X37083Y483D01*
X36253Y594D02*
X36365Y483D01*
X37690Y594D02*
X37802Y483D01*
X37840D02*
X37952Y594D01*
X37122Y483D02*
X37234Y594D01*
X36123Y2161D02*
X36379Y1906D01*
X35868D02*
X40740D01*
X35868D02*
X36160Y2197D01*
X35685Y483D02*
X35797Y594D01*
X35535D02*
X35646Y483D01*
X32798Y1906D02*
X32987Y2094D01*
X33316D02*
X33505Y1906D01*
X32598Y2094D02*
X32786Y1906D01*
X34035Y2094D02*
X34223Y1906D01*
X34051Y2094D02*
X34240Y1906D01*
X33516D02*
X33705Y2094D01*
X31361Y1906D02*
X31550Y2094D01*
X31879D02*
X32068Y1906D01*
X31161Y2094D02*
X31350Y1906D01*
X32079D02*
X32268Y2094D01*
X31224Y594D02*
X31336Y483D01*
X33530D02*
X33642Y594D01*
X34098D02*
X34209Y483D01*
X33379Y594D02*
X33491Y483D01*
X34816Y594D02*
X34928Y483D01*
X34967D02*
X35079Y594D01*
X34248Y483D02*
X34360Y594D01*
X31942D02*
X32054Y483D01*
X32093D02*
X32205Y594D01*
X31375Y483D02*
X31487Y594D01*
X32812Y483D02*
X32923Y594D01*
X32661D02*
X32773Y483D01*
X30770Y6287D02*
X33728Y9244D01*
X30293Y5809D02*
X30770Y6287D01*
X30293Y5809D02*
X30770Y6287D01*
X31025Y6541D02*
X31860Y5706D01*
X30665Y6182D02*
X31142Y5706D01*
X30306Y5823D02*
X30698Y5431D01*
X29356Y8929D02*
X29950Y8334D01*
X29443Y5809D02*
X30293D01*
X29356Y8210D02*
X29591Y7975D01*
X29443Y5809D02*
X30293D01*
X29601D02*
X30344Y5066D01*
X27832Y3406D02*
X30236Y5809D01*
X30344Y5078D02*
X30972Y5706D01*
X32228D01*
X30344Y3822D02*
Y5078D01*
Y3822D02*
X30761Y3406D01*
X29987D02*
X30374Y3793D01*
X29269Y3406D02*
X30344Y4481D01*
X29163Y5529D02*
X30344Y4348D01*
X22978Y3406D02*
X30761D01*
X27861Y5394D02*
X29850Y3406D01*
X22978Y2094D02*
X34051D01*
X28579Y5394D02*
X30568Y3406D01*
X27144Y7278D02*
X27444Y7578D01*
X27144Y6111D02*
X27861Y5394D01*
X27144Y6022D02*
Y7278D01*
X22890Y3493D02*
X27444Y8047D01*
X24240Y3406D02*
X27144Y6310D01*
X23521Y3406D02*
X27144Y7029D01*
X22531Y3852D02*
X27444Y8765D01*
X21656Y8726D02*
X26976Y3406D01*
X21656Y8008D02*
X26258Y3406D01*
X21656Y7289D02*
X25539Y3406D01*
X21656Y6571D02*
X24821Y3406D01*
X29337Y5809D02*
X29443D01*
X29337D02*
X29443D01*
X27144Y6022D02*
X27772Y5394D01*
X29028D02*
X29443Y5809D01*
X27114Y3406D02*
X29517Y5809D01*
X27772Y5394D02*
X29028D01*
X24958Y3406D02*
X27360Y5807D01*
X25677Y3406D02*
X27719Y5448D01*
X21656Y5852D02*
X24102Y3406D01*
X26395D02*
X28384Y5394D01*
X24895Y1906D02*
X25084Y2094D01*
X29206Y1906D02*
X29394Y2094D01*
X29724D02*
X29913Y1906D01*
X29006Y2094D02*
X29194Y1906D01*
X30442Y2094D02*
X30631Y1906D01*
X30642D02*
X30831Y2094D01*
X29924Y1906D02*
X30113Y2094D01*
X27769Y1906D02*
X27958Y2094D01*
X12428Y1906D02*
X34240D01*
X27569Y2094D02*
X27758Y1906D01*
X28487D02*
X28676Y2094D01*
X28287D02*
X28476Y1906D01*
X29219Y483D02*
X29331Y594D01*
X29787D02*
X29899Y483D01*
X29069Y594D02*
X29181Y483D01*
X30506Y594D02*
X30617Y483D01*
X30656D02*
X30768Y594D01*
X29938Y483D02*
X30050Y594D01*
X12428D02*
X61522D01*
X483Y483D02*
X96517D01*
X27783D02*
X27894Y594D01*
X28501Y483D02*
X28613Y594D01*
X28350D02*
X28462Y483D01*
X25614Y1906D02*
X25802Y2094D01*
X26132D02*
X26321Y1906D01*
X25413Y2094D02*
X25602Y1906D01*
X26850Y2094D02*
X27039Y1906D01*
X27050D02*
X27239Y2094D01*
X26332Y1906D02*
X26521Y2094D01*
X23977D02*
X24165Y1906D01*
X24177D02*
X24365Y2094D01*
X23458Y1906D02*
X23647Y2094D01*
X24695D02*
X24884Y1906D01*
X23472Y483D02*
X23584Y594D01*
X26195D02*
X26307Y483D01*
X26346D02*
X26458Y594D01*
X25627Y483D02*
X25739Y594D01*
X27064Y483D02*
X27176Y594D01*
X27632D02*
X27744Y483D01*
X26913Y594D02*
X27025Y483D01*
X24191D02*
X24302Y594D01*
X24758D02*
X24870Y483D01*
X24040Y594D02*
X24152Y483D01*
X25477Y594D02*
X25588Y483D01*
X24909D02*
X25021Y594D01*
X21656Y28842D02*
X23580Y26917D01*
X21656Y26685D02*
X23580Y28609D01*
X21656Y27403D02*
X23580Y29327D01*
X21656Y25966D02*
X23580Y27891D01*
X21656Y27405D02*
X23580Y25480D01*
X21656Y28123D02*
X23580Y26199D01*
X21656Y28121D02*
X23580Y30046D01*
X21656Y29560D02*
X23580Y27636D01*
X21656Y30279D02*
X23580Y28354D01*
X20000Y24032D02*
X20344Y23687D01*
X20000Y23592D02*
X20344Y23937D01*
X20000Y24311D02*
X20344Y24655D01*
X20000Y21158D02*
X20344Y20813D01*
X20000Y20718D02*
X20344Y21063D01*
X20000Y21437D02*
X20344Y21781D01*
X20000Y20000D02*
X20344Y20344D01*
X20000Y20000D02*
X20344Y20344D01*
X20000Y20439D02*
X20344Y20095D01*
X20000Y22874D02*
X20344Y23218D01*
X20000Y22595D02*
X20344Y22250D01*
X20000Y23313D02*
X20344Y22969D01*
X20000Y21876D02*
X20344Y21532D01*
X20000Y22155D02*
X20344Y22500D01*
X20000Y26905D02*
X20344Y26561D01*
X20000Y26466D02*
X20344Y26810D01*
X20000Y27184D02*
X20344Y27529D01*
X20000Y25747D02*
X20344Y26092D01*
X20000Y25468D02*
X20344Y25124D01*
X20000Y26187D02*
X20344Y25842D01*
X20000Y28621D02*
X20344Y28965D01*
X20000Y28342D02*
X20344Y27998D01*
X20000Y29060D02*
X20344Y28716D01*
X20000Y27624D02*
X20344Y27279D01*
X20000Y27903D02*
X20344Y28247D01*
X20000Y18284D02*
X20344Y17940D01*
X20000Y17845D02*
X20344Y18189D01*
X20000Y18563D02*
X20344Y18908D01*
X20000Y17126D02*
X20344Y17471D01*
X20000Y16847D02*
X20344Y16503D01*
X20000Y17566D02*
X20344Y17221D01*
X20000Y24750D02*
X20344Y24406D01*
X20000Y19721D02*
X20344Y19377D01*
X20000Y25029D02*
X20344Y25373D01*
X20000Y19003D02*
X20344Y18658D01*
X20000Y19282D02*
X20344Y19626D01*
X21656Y14471D02*
X23580Y16396D01*
X21656Y15910D02*
X23580Y13986D01*
X21656Y16629D02*
X23580Y14704D01*
X21656Y15192D02*
X23580Y13267D01*
X21656Y13035D02*
X23580Y14959D01*
X21656Y13753D02*
X23580Y15677D01*
X21656Y17347D02*
X23580Y15423D01*
X21656Y15190D02*
X23580Y17114D01*
X21656Y15908D02*
X23580Y17833D01*
X21656Y4728D02*
Y42582D01*
X20000Y14692D02*
X20344Y14348D01*
X21656Y13036D02*
X23580Y11112D01*
X20000Y11100D02*
X20344Y10756D01*
X20000Y11379D02*
X20344Y11723D01*
X17226Y11000D02*
X20344Y7882D01*
X16508Y11000D02*
X20344Y7163D01*
X17945Y11000D02*
X20344Y8600D01*
X15071Y11000D02*
X20344Y5727D01*
X14353Y11000D02*
X20344Y5008D01*
X15789Y11000D02*
X20344Y6445D01*
X11836Y2497D02*
X20344Y11005D01*
X13634Y11000D02*
X20344Y4290D01*
X20000Y14253D02*
X20344Y14597D01*
X20000Y13974D02*
X20344Y13629D01*
X20000Y14971D02*
X20344Y15315D01*
Y4728D02*
Y42582D01*
X20000Y13255D02*
X20344Y12911D01*
X20000Y13534D02*
X20344Y13879D01*
X20000Y16129D02*
X20344Y15785D01*
X20000Y15689D02*
X20344Y16034D01*
X20000Y16408D02*
X20344Y16752D01*
X20000Y15410D02*
X20344Y15066D01*
X20000Y11000D02*
Y42927D01*
Y12537D02*
X20344Y12192D01*
X20000Y12097D02*
X20344Y12442D01*
X20000Y12816D02*
X20344Y13160D01*
X20000Y11818D02*
X20344Y11474D01*
X11477Y2856D02*
X19621Y11000D01*
X11118Y3215D02*
X18903Y11000D01*
X10400Y3934D02*
X17466Y11000D01*
X10759Y3575D02*
X18184Y11000D01*
X10040Y4293D02*
X16747Y11000D01*
X10760D02*
X19855Y1906D01*
X10042Y11000D02*
X19136Y1906D01*
X483Y19841D02*
X2000Y18324D01*
X483Y17725D02*
X2000Y19242D01*
X483Y18443D02*
X2000Y19961D01*
X483Y17006D02*
X2000Y18524D01*
X483Y18404D02*
X2000Y16887D01*
X483Y19123D02*
X2000Y17605D01*
X483Y21996D02*
X2000Y20479D01*
X483Y19880D02*
X2000Y21397D01*
X483Y20598D02*
X2000Y22116D01*
X483Y19162D02*
X2000Y20679D01*
X483Y20559D02*
X2000Y19042D01*
X483Y21278D02*
X2000Y19760D01*
X483Y14133D02*
X2000Y15650D01*
X483Y15531D02*
X2000Y14013D01*
X483Y16249D02*
X2000Y14732D01*
X483Y14812D02*
X2000Y13295D01*
X483Y12696D02*
X2000Y14213D01*
X483Y13414D02*
X2000Y14932D01*
X483Y17686D02*
X2000Y16168D01*
X483Y15569D02*
X2000Y17087D01*
X483Y16288D02*
X2000Y17805D01*
X483Y14851D02*
X2000Y16368D01*
X483Y16967D02*
X2000Y15450D01*
X483Y26346D02*
X2000Y27863D01*
X483Y27744D02*
X2000Y26226D01*
X483Y28462D02*
X2000Y26945D01*
X483Y27025D02*
X2000Y25508D01*
X483Y24909D02*
X2000Y26426D01*
X483Y25627D02*
X2000Y27145D01*
X483Y29899D02*
X2000Y28382D01*
X483Y27783D02*
X2000Y29300D01*
X483Y28501D02*
X2000Y30018D01*
X483Y27064D02*
X2000Y28582D01*
X483Y29181D02*
X2000Y27663D01*
X483Y24152D02*
X2000Y22634D01*
X483Y22035D02*
X2000Y23553D01*
X483Y22754D02*
X2000Y24271D01*
X483Y21317D02*
X2000Y22834D01*
X483Y22715D02*
X2000Y21197D01*
X483Y23433D02*
X2000Y21916D01*
X483Y24191D02*
X2000Y25708D01*
X483Y25588D02*
X2000Y24071D01*
X483Y26307D02*
X2000Y24789D01*
X483Y24870D02*
X2000Y23353D01*
X483Y23472D02*
X2000Y24989D01*
X7848Y9285D02*
X9563Y11000D01*
X8207Y8926D02*
X10282Y11000D01*
X7489Y9644D02*
X8845Y11000D01*
X8567Y8567D02*
X11000Y11000D01*
X8926Y8207D02*
X11718Y11000D01*
X8567Y8567D02*
X11000Y11000D01*
X7156Y10748D02*
X7408Y11000D01*
X7156Y10029D02*
X8126Y11000D01*
X7156Y9978D02*
Y11000D01*
X3576D02*
X8394Y6182D01*
X2858Y11000D02*
X6002Y7856D01*
X9706Y6832D02*
X13874Y11000D01*
X9706Y6113D02*
X14592Y11000D01*
X9644Y7489D02*
X13155Y11000D01*
X9706Y4677D02*
X16029Y11000D01*
X9324D02*
X18418Y1906D01*
X9706Y5395D02*
X15311Y11000D01*
X7168D02*
X16263Y1906D01*
X7156Y11000D02*
X20000D01*
X9285Y7848D02*
X12437Y11000D01*
X8605D02*
X17700Y1906D01*
X7887Y11000D02*
X16981Y1906D01*
X2000Y11000D02*
Y54180D01*
X483Y10540D02*
X2000Y12058D01*
X483Y12657D02*
X2000Y11139D01*
X483Y11938D02*
X4565Y7856D01*
X483Y11220D02*
X3847Y7856D01*
X483Y9822D02*
X2000Y11339D01*
X483Y11977D02*
X2000Y13495D01*
X483Y13375D02*
X2000Y11858D01*
X483Y14094D02*
X2000Y12576D01*
X483Y11259D02*
X2000Y12776D01*
X483Y483D02*
Y70017D01*
X5732Y11000D02*
X5844Y10887D01*
X5013Y11000D02*
X5844Y10169D01*
X2000Y11000D02*
X5844D01*
Y9978D02*
Y11000D01*
X4295D02*
X5844Y9450D01*
X2139Y11000D02*
X5284Y7856D01*
X483Y8385D02*
X3097Y11000D01*
X483Y7667D02*
X3816Y11000D01*
X483Y9104D02*
X2379Y11000D01*
X483Y6230D02*
X5253Y11000D01*
X483Y6948D02*
X4534Y11000D01*
X21656Y5134D02*
X23384Y3406D01*
X20344Y4072D02*
X20672Y3744D01*
X20344Y4072D02*
X20672Y3744D01*
X21656Y4728D02*
X22978Y3406D01*
X20672Y3744D02*
X21994Y2422D01*
X19148Y1906D02*
X20829Y3587D01*
X11479Y11000D02*
X20573Y1906D01*
X12197Y11000D02*
X21292Y1906D01*
X12196Y2138D02*
X20344Y10286D01*
X12916Y11000D02*
X22010Y1906D01*
X18429D02*
X20470Y3946D01*
X16274Y1906D02*
X20344Y5976D01*
X22322Y2094D02*
X22978D01*
X22322D02*
X22978D01*
X22021Y1906D02*
X22266Y2150D01*
X22740Y1906D02*
X22929Y2094D01*
X23258D02*
X23447Y1906D01*
X22540Y2094D02*
X22729Y1906D01*
X21994Y2422D02*
X22322Y2094D01*
X21994Y2422D02*
X22322Y2094D01*
X19866Y1906D02*
X21189Y3228D01*
X21303Y1906D02*
X21907Y2510D01*
X20585Y1906D02*
X21548Y2869D01*
X18663Y11000D02*
X20344Y9319D01*
X12682Y1906D02*
X20344Y9568D01*
X19382Y11000D02*
X20344Y10037D01*
X14119Y1906D02*
X20344Y8131D01*
X14837Y1906D02*
X20344Y7413D01*
X13400Y1906D02*
X20344Y8850D01*
X9378Y7756D02*
X9706Y7428D01*
Y6772D02*
Y7428D01*
X9378Y7756D02*
X9706Y7428D01*
Y7026D02*
X14826Y1906D01*
X9706Y6772D02*
Y7428D01*
X20344Y4072D02*
Y4728D01*
Y4072D02*
Y4728D01*
X9706Y5589D02*
X13389Y1906D01*
X15556D02*
X20344Y6694D01*
X9706Y4871D02*
X12671Y1906D01*
X9706Y4628D02*
X12428Y1906D01*
X9706Y4628D02*
Y6772D01*
X8394Y3972D02*
X8722Y3644D01*
X8394Y3972D02*
Y4628D01*
X9706Y6308D02*
X14108Y1906D01*
X8394Y3972D02*
X8722Y3644D01*
X17711Y1906D02*
X20344Y4539D01*
X18292Y594D02*
X18404Y483D01*
X17725D02*
X17837Y594D01*
X19011D02*
X19123Y483D01*
X19162D02*
X19273Y594D01*
X18443Y483D02*
X18555Y594D01*
X16992Y1906D02*
X20344Y5258D01*
X16856Y594D02*
X16967Y483D01*
X16288D02*
X16400Y594D01*
X17574D02*
X17686Y483D01*
X17006D02*
X17118Y594D01*
X21885D02*
X21996Y483D01*
X22035D02*
X22147Y594D01*
X21317Y483D02*
X21429Y594D01*
X22754Y483D02*
X22865Y594D01*
X23321D02*
X23433Y483D01*
X22603Y594D02*
X22715Y483D01*
X19880D02*
X19992Y594D01*
X20448D02*
X20559Y483D01*
X19729Y594D02*
X19841Y483D01*
X21166Y594D02*
X21278Y483D01*
X20598D02*
X20710Y594D01*
X11444Y922D02*
X11772Y594D01*
X12428D01*
X11444Y922D02*
X11772Y594D01*
X11977Y483D02*
X12089Y594D01*
X11772D02*
X12428D01*
X11827D02*
X11938Y483D01*
X8722Y3644D02*
X11444Y922D01*
X9822Y483D02*
X10853Y1514D01*
X9104Y483D02*
X10494Y1873D01*
X11259Y483D02*
X11571Y795D01*
X10540Y483D02*
X11212Y1154D01*
X14700Y594D02*
X14812Y483D01*
X14851D02*
X14963Y594D01*
X14133Y483D02*
X14244Y594D01*
X15569Y483D02*
X15681Y594D01*
X16137D02*
X16249Y483D01*
X15419Y594D02*
X15531Y483D01*
X12696D02*
X12808Y594D01*
X13263D02*
X13375Y483D01*
X12545Y594D02*
X12657Y483D01*
X13982Y594D02*
X14094Y483D01*
X13414D02*
X13526Y594D01*
X7156Y9978D02*
X9378Y7756D01*
X6657Y7376D02*
X7224Y7943D01*
X6298Y7735D02*
X6865Y8302D01*
X6178Y7856D02*
X7856Y6178D01*
X7017Y7017D02*
X7583Y7583D01*
X7017Y7017D02*
X7583Y7583D01*
X5844Y9322D02*
X6172Y8994D01*
X2822Y7856D02*
X6178D01*
X5844Y9322D02*
X6172Y8994D01*
X8394Y6772D01*
X6002Y7856D02*
X7856Y6002D01*
X5700Y7856D02*
X6506Y8661D01*
X8394Y4628D02*
Y6772D01*
X7856Y5284D02*
X8394Y4745D01*
X7856Y4982D02*
X8394Y5521D01*
Y3972D02*
Y4628D01*
X7856Y4565D02*
X8394Y4027D01*
X7856Y4264D02*
X8394Y4802D01*
X7735Y6298D02*
X8302Y6865D01*
X7856Y5700D02*
X8394Y6239D01*
X7376Y6657D02*
X7943Y7224D01*
X7856Y6002D02*
X8394Y5463D01*
X2827Y7856D02*
X5844Y10873D01*
Y9322D02*
Y9978D01*
Y9322D02*
Y9978D01*
X4264Y7856D02*
X5844Y9437D01*
X4982Y7856D02*
X6146Y9020D01*
X3545Y7856D02*
X5844Y10155D01*
X483Y10502D02*
X3129Y7856D01*
X483Y9783D02*
X2616Y7650D01*
X483Y9065D02*
X2257Y7290D01*
X1144Y6178D02*
X2822Y7856D01*
X483Y8346D02*
X1898Y6931D01*
X1144Y6173D02*
X2827Y7856D01*
X483Y4793D02*
X1144Y5455D01*
X483Y4075D02*
X1144Y4737D01*
X483Y4754D02*
X1144Y4092D01*
X483Y7628D02*
X1539Y6572D01*
X483Y6909D02*
X1179Y6213D01*
X483Y6191D02*
X1144Y5529D01*
X483Y5473D02*
X1144Y4811D01*
X483Y5512D02*
X1144Y6173D01*
X7856Y3545D02*
X8394Y4084D01*
X7856Y2827D02*
X8698Y3669D01*
X7856Y2822D02*
Y6178D01*
X8394Y4027D02*
X11827Y594D01*
X7856Y3847D02*
X11220Y483D01*
X7856Y3129D02*
X10502Y483D01*
X7156Y10294D02*
X15544Y1906D01*
X6178Y1144D02*
X7856Y2822D01*
X6173Y1144D02*
X7856Y2827D01*
X6948Y483D02*
X9416Y2950D01*
X6230Y483D02*
X9057Y3310D01*
X7290Y2257D02*
X9065Y483D01*
X6931Y1898D02*
X8346Y483D01*
X6572Y1539D02*
X7628Y483D01*
X7650Y2616D02*
X9783Y483D01*
X8385D02*
X10135Y2232D01*
X7667Y483D02*
X9775Y2591D01*
X5512Y483D02*
X6173Y1144D01*
X2822D02*
X6178D01*
X4811D02*
X5473Y483D01*
X6213Y1179D02*
X6909Y483D01*
X5529Y1144D02*
X6191Y483D01*
X483Y1201D02*
X1624Y2343D01*
X1144Y2822D02*
Y6178D01*
Y2822D02*
X2822Y1144D01*
X483Y2599D02*
X2599Y483D01*
X483D02*
X1983Y1983D01*
X483Y3356D02*
X1144Y4018D01*
X483Y2638D02*
X1144Y3300D01*
X483Y4036D02*
X1144Y3374D01*
X483Y3317D02*
X3317Y483D01*
X483Y1919D02*
X1265Y2702D01*
X3356Y483D02*
X4018Y1144D01*
X3374D02*
X4036Y483D01*
X2638D02*
X3300Y1144D01*
X4092D02*
X4754Y483D01*
X4793D02*
X5455Y1144D01*
X4075Y483D02*
X4737Y1144D01*
X483Y483D02*
X1983Y1983D01*
X483Y1881D02*
X1881Y483D01*
X483Y1162D02*
X1162Y483D01*
X1919D02*
X2702Y1265D01*
X1201Y483D02*
X2343Y1624D01*
D11*
X89246Y66000D02*
X92500D01*
Y69254D01*
Y62746D02*
Y66000D01*
X95754D01*
X92500Y4500D02*
Y7754D01*
Y4500D02*
X95754D01*
X89246D02*
X92500D01*
Y1246D02*
Y4500D01*
X42670Y17370D02*
Y18374D01*
Y17370D02*
X43674D01*
X41666D02*
X42670D01*
Y16366D02*
Y17370D01*
X58793Y4727D02*
X59947D01*
X58793D02*
Y5881D01*
X57639Y4727D02*
X58793D01*
Y3573D02*
Y4727D01*
X28700Y64000D02*
Y65004D01*
X27696Y64000D02*
X28700D01*
X29704D01*
X28700Y62996D02*
Y64000D01*
X4500Y66000D02*
Y69254D01*
Y66000D02*
X7754D01*
X4500Y62746D02*
Y66000D01*
X1246D02*
X4500D01*
X35054Y7250D02*
X36058D01*
X35054D02*
Y8254D01*
X34050Y7250D02*
X35054D01*
Y6246D02*
Y7250D01*
X4500Y4500D02*
X7754D01*
X1246D02*
X4500D01*
Y7754D01*
Y1246D02*
Y4500D01*
D12*
X35600Y10200D02*
X61450D01*
X61333Y4727D02*
Y10083D01*
X61450Y10200D01*
X67778D01*
X21080Y62280D02*
Y63919D01*
X15950Y57150D02*
X21080Y62280D01*
X15950Y35130D02*
Y57150D01*
X28400Y6650D02*
Y26160D01*
X32390Y30150D01*
X28515Y6765D02*
X29815D01*
X33250Y10200D01*
X28400Y6650D02*
X28515Y6765D01*
X33250Y10200D02*
X35600D01*
X6200Y29650D02*
X6315Y29765D01*
Y30515D02*
X8822Y33022D01*
X6315Y29765D02*
Y30515D01*
X8822Y33022D02*
X13842D01*
X15950Y35130D01*
X18620D01*
X12900Y42350D02*
X13062D01*
X35600Y10200D02*
Y13700D01*
X32390Y14910D02*
X32433Y14867D01*
X34433D01*
X35600Y13700D01*
X67778Y10200D02*
X70100Y12522D01*
D13*
X63874Y3273D02*
Y4727D01*
X12100Y1250D02*
X61850D01*
X63874Y3273D01*
X22650Y2750D02*
X35054D01*
X21000Y4400D02*
X22650Y2750D01*
X18620Y45290D02*
X21000Y42910D01*
Y4400D02*
Y42910D01*
X47350Y17350D02*
X50200Y20200D01*
X47650Y47200D02*
X50200Y44650D01*
Y20200D02*
Y44650D01*
X45230Y17350D02*
X47350D01*
X42800Y47200D02*
X47650D01*
X9050Y4300D02*
X12100Y1250D01*
X9050Y4300D02*
Y7100D01*
X6500Y9650D02*
X9050Y7100D01*
X3380Y30050D02*
X6500Y26930D01*
Y9650D02*
Y26930D01*
D14*
X77800Y37400D02*
Y40150D01*
X70100Y34900D02*
X75300D01*
X77800Y37400D01*
X70100Y34900D02*
Y50128D01*
Y23800D02*
Y34900D01*
X58900Y36600D02*
Y40050D01*
X60600Y34900D02*
X70100D01*
X58900Y36600D02*
X60600Y34900D01*
X60121Y13800D02*
X70100D01*
X78100Y11350D02*
X81500D01*
X71272D02*
X78100D01*
X77880Y11570D02*
Y17670D01*
X70100Y13800D02*
Y23800D01*
Y12522D02*
Y13800D01*
X58950Y14972D02*
Y17440D01*
Y14972D02*
X60121Y13800D01*
X70100Y23800D02*
X76728D01*
X60500D02*
X70100D01*
X77900Y24972D02*
Y28930D01*
X76728Y23800D02*
X77900Y24972D01*
X58950Y25350D02*
X60500Y23800D01*
X58950Y25350D02*
Y28720D01*
X81500Y11350D02*
X83700Y9150D01*
X70100Y12522D02*
X71272Y11350D01*
X44150Y52472D02*
Y57020D01*
X45322Y51300D02*
X62172D01*
X44150Y52472D02*
X45322Y51300D01*
X61000Y52472D02*
X62172Y51300D01*
X61000Y52472D02*
Y57050D01*
X62172Y51300D02*
X71272D01*
X75600D01*
X70100Y50128D02*
X71272Y51300D01*
X75600D02*
X77800Y53500D01*
Y56970D01*
X83700Y5327D02*
Y9150D01*
D15*
X77800Y40150D02*
X77880Y40230D01*
X58720D02*
X58900Y40050D01*
X77880Y11570D02*
X78100Y11350D01*
X58720Y17670D02*
X58950Y17440D01*
X77880Y28950D02*
X77900Y28930D01*
X58720Y28950D02*
X58950Y28720D01*
X44120Y57050D02*
X44150Y57020D01*
X77800Y56970D02*
X77880Y57050D01*
D16*
X45210Y17370D02*
X45230Y17350D01*
X31750Y33450D02*
X38560Y26640D01*
X27110Y33450D02*
X31750D01*
X38560Y26640D02*
X39375D01*
X23500Y37060D02*
X27110Y33450D01*
X28400Y34700D02*
X32250D01*
X26040Y37060D02*
X28400Y34700D01*
X32250D02*
X37895Y29055D01*
X39510D01*
X31893Y36707D02*
X37005Y31595D01*
X39510D01*
X31120Y37060D02*
X31424D01*
X31777Y36707D01*
X31893D01*
X33833Y36887D02*
X35263D01*
X38015Y34135D02*
X39510D01*
X35263Y36887D02*
X38015Y34135D01*
X38275Y36675D02*
X39510D01*
X33100Y41850D02*
X38275Y36675D01*
X33660Y37060D02*
X33833Y36887D01*
X39375Y26640D02*
X39510Y26505D01*
X27050Y41850D02*
X33100D01*
X38528Y39272D02*
X39453D01*
X28400Y43250D02*
X34550D01*
X39453Y39272D02*
X39510Y39215D01*
X34550Y43250D02*
X38528Y39272D01*
X31120Y48780D02*
Y52300D01*
Y48780D02*
X38145Y41755D01*
X39510D01*
X33660Y50145D02*
X39510Y44295D01*
X33660Y50145D02*
Y52300D01*
X26040Y45610D02*
X28400Y43250D01*
X26040Y45610D02*
Y52300D01*
X23500Y45400D02*
Y52300D01*
Y45400D02*
X27050Y41850D01*
D17*
X58793Y4727D02*
D03*
X61333D02*
D03*
X63874D02*
D03*
X3380Y50370D02*
D03*
Y47830D02*
D03*
Y45290D02*
D03*
Y42750D02*
D03*
Y40210D02*
D03*
Y37670D02*
D03*
Y35130D02*
D03*
Y32590D02*
D03*
Y30050D02*
D03*
Y27510D02*
D03*
Y24970D02*
D03*
Y22430D02*
D03*
Y19890D02*
D03*
Y17350D02*
D03*
Y14810D02*
D03*
X18620D02*
D03*
Y17350D02*
D03*
Y19890D02*
D03*
Y22430D02*
D03*
Y24970D02*
D03*
Y27510D02*
D03*
Y30050D02*
D03*
Y32590D02*
D03*
Y35130D02*
D03*
Y37670D02*
D03*
Y40210D02*
D03*
Y42750D02*
D03*
Y45290D02*
D03*
Y47830D02*
D03*
Y50370D02*
D03*
X8470Y52810D02*
D03*
X11010D02*
D03*
X13550D02*
D03*
X8470Y50270D02*
D03*
X11010D02*
D03*
X13550D02*
D03*
D18*
X16000Y64000D02*
D03*
X18540D02*
D03*
X21080D02*
D03*
X23620D02*
D03*
X26160D02*
D03*
X40130Y17370D02*
D03*
X45210D02*
D03*
X41554Y7250D02*
D03*
X35054D02*
D03*
X41554Y2750D02*
D03*
X35054D02*
D03*
D19*
X28700Y64000D02*
D03*
X42670Y17370D02*
D03*
D20*
X3380Y12270D02*
D03*
X18620D02*
D03*
X3380Y52910D02*
D03*
X18620D02*
D03*
X23500Y37060D02*
D03*
X26040D02*
D03*
X28580D02*
D03*
X31120D02*
D03*
X33660D02*
D03*
Y52300D02*
D03*
X31120D02*
D03*
X28580D02*
D03*
X26040D02*
D03*
X23500D02*
D03*
D21*
X32390Y30150D02*
D03*
Y27610D02*
D03*
Y25070D02*
D03*
Y22530D02*
D03*
Y19990D02*
D03*
Y17450D02*
D03*
Y14910D02*
D03*
Y12370D02*
D03*
X24770D02*
D03*
Y14910D02*
D03*
Y17450D02*
D03*
Y19990D02*
D03*
Y22530D02*
D03*
Y25070D02*
D03*
Y27610D02*
D03*
D22*
Y30150D02*
D03*
D23*
X39510Y36675D02*
D03*
X47130D02*
D03*
X39510Y44295D02*
D03*
X47130D02*
D03*
X47130Y29055D02*
D03*
X39510D02*
D03*
X47130Y34135D02*
D03*
X39510D02*
D03*
X47130Y31595D02*
D03*
X39510D02*
D03*
X47130Y26505D02*
D03*
X39510D02*
D03*
X39510Y39215D02*
D03*
X47130D02*
D03*
X39510Y41755D02*
D03*
X47130D02*
D03*
D24*
X57040Y57050D02*
D03*
X61000D02*
D03*
X64960D02*
D03*
X68920D02*
D03*
X73920D02*
D03*
X77880D02*
D03*
X81840D02*
D03*
X85800D02*
D03*
X40160D02*
D03*
X44120D02*
D03*
X48080D02*
D03*
X52040D02*
D03*
X54760Y40230D02*
D03*
X58720D02*
D03*
X62680D02*
D03*
X66640D02*
D03*
X73920D02*
D03*
X77880D02*
D03*
X81840D02*
D03*
X85800D02*
D03*
X73920Y28950D02*
D03*
X77880D02*
D03*
X81840D02*
D03*
X85800D02*
D03*
X54760D02*
D03*
X58720D02*
D03*
X62680D02*
D03*
X66640D02*
D03*
X73920Y17670D02*
D03*
X77880D02*
D03*
X81840D02*
D03*
X85800D02*
D03*
X54760D02*
D03*
X58720D02*
D03*
X62680D02*
D03*
X66640D02*
D03*
D25*
X4500Y66000D02*
D03*
X92500D02*
D03*
Y4500D02*
D03*
X4500D02*
D03*
D26*
X83700Y5327D02*
D03*
X78700D02*
D03*
D27*
X28400Y6650D02*
D03*
X31600Y4450D02*
D03*
X6200Y29650D02*
D03*
X12900Y42350D02*
D03*
D28*
X42800Y47200D02*
D03*
%TF.MD5,80503fb5f2bfab0e08777a4bb378e52d*%
M02*
