%TF.GenerationSoftware,Altium Limited,Altium Designer,21.8.1 (53)*%
G04 Layer_Color=8388736*
%FSLAX43Y43*%
%MOMM*%
%TF.SameCoordinates,2523FC94-2157-46A2-8D95-2E3533E7A92D*%
%TF.FilePolarity,Negative*%
%TF.FileFunction,Soldermask,Top*%
%TF.Part,Single*%
G01*
G75*
%TA.AperFunction,ComponentPad*%
%ADD32C,2.003*%
%ADD33C,1.703*%
%ADD34R,1.703X1.703*%
%ADD35C,1.727*%
%ADD36C,1.628*%
%ADD37R,1.628X1.628*%
%ADD38C,1.603*%
%ADD39C,3.403*%
%TA.AperFunction,ViaPad*%
%ADD40C,6.203*%
%TA.AperFunction,ComponentPad*%
%ADD41C,2.153*%
%TA.AperFunction,ViaPad*%
%ADD42C,2.003*%
%ADD43C,1.473*%
D32*
X58793Y4727D02*
D03*
X61333D02*
D03*
X63874D02*
D03*
X3380Y50370D02*
D03*
Y47830D02*
D03*
Y45290D02*
D03*
Y42750D02*
D03*
Y40210D02*
D03*
Y37670D02*
D03*
Y35130D02*
D03*
Y32590D02*
D03*
Y30050D02*
D03*
Y27510D02*
D03*
Y24970D02*
D03*
Y22430D02*
D03*
Y19890D02*
D03*
Y17350D02*
D03*
Y14810D02*
D03*
X18620D02*
D03*
Y17350D02*
D03*
Y19890D02*
D03*
Y22430D02*
D03*
Y24970D02*
D03*
Y27510D02*
D03*
Y30050D02*
D03*
Y32590D02*
D03*
Y35130D02*
D03*
Y37670D02*
D03*
Y40210D02*
D03*
Y42750D02*
D03*
Y45290D02*
D03*
Y47830D02*
D03*
Y50370D02*
D03*
X8470Y52810D02*
D03*
X11010D02*
D03*
X13550D02*
D03*
X8470Y50270D02*
D03*
X11010D02*
D03*
X13550D02*
D03*
D33*
X16000Y64000D02*
D03*
X18540D02*
D03*
X21080D02*
D03*
X23620D02*
D03*
X26160D02*
D03*
X40130Y17370D02*
D03*
X45210D02*
D03*
X41554Y7250D02*
D03*
X35054D02*
D03*
X41554Y2750D02*
D03*
X35054D02*
D03*
D34*
X28700Y64000D02*
D03*
X42670Y17370D02*
D03*
D35*
X3380Y12270D02*
D03*
X18620D02*
D03*
X3380Y52910D02*
D03*
X18620D02*
D03*
X23500Y37060D02*
D03*
X26040D02*
D03*
X28580D02*
D03*
X31120D02*
D03*
X33660D02*
D03*
Y52300D02*
D03*
X31120D02*
D03*
X28580D02*
D03*
X26040D02*
D03*
X23500D02*
D03*
D36*
X32390Y30150D02*
D03*
Y27610D02*
D03*
Y25070D02*
D03*
Y22530D02*
D03*
Y19990D02*
D03*
Y17450D02*
D03*
Y14910D02*
D03*
Y12370D02*
D03*
X24770D02*
D03*
Y14910D02*
D03*
Y17450D02*
D03*
Y19990D02*
D03*
Y22530D02*
D03*
Y25070D02*
D03*
Y27610D02*
D03*
D37*
Y30150D02*
D03*
D38*
X39510Y36675D02*
D03*
X47130D02*
D03*
X39510Y44295D02*
D03*
X47130D02*
D03*
X47130Y29055D02*
D03*
X39510D02*
D03*
X47130Y34135D02*
D03*
X39510D02*
D03*
X47130Y31595D02*
D03*
X39510D02*
D03*
X47130Y26505D02*
D03*
X39510D02*
D03*
X39510Y39215D02*
D03*
X47130D02*
D03*
X39510Y41755D02*
D03*
X47130D02*
D03*
D39*
X57040Y57050D02*
D03*
X61000D02*
D03*
X64960D02*
D03*
X68920D02*
D03*
X73920D02*
D03*
X77880D02*
D03*
X81840D02*
D03*
X85800D02*
D03*
X40160D02*
D03*
X44120D02*
D03*
X48080D02*
D03*
X52040D02*
D03*
X54760Y40230D02*
D03*
X58720D02*
D03*
X62680D02*
D03*
X66640D02*
D03*
X73920D02*
D03*
X77880D02*
D03*
X81840D02*
D03*
X85800D02*
D03*
X73920Y28950D02*
D03*
X77880D02*
D03*
X81840D02*
D03*
X85800D02*
D03*
X54760D02*
D03*
X58720D02*
D03*
X62680D02*
D03*
X66640D02*
D03*
X73920Y17670D02*
D03*
X77880D02*
D03*
X81840D02*
D03*
X85800D02*
D03*
X54760D02*
D03*
X58720D02*
D03*
X62680D02*
D03*
X66640D02*
D03*
D40*
X4500Y66000D02*
D03*
X92500D02*
D03*
Y4500D02*
D03*
X4500D02*
D03*
D41*
X83700Y5327D02*
D03*
X78700D02*
D03*
D42*
X28400Y6650D02*
D03*
X31600Y4450D02*
D03*
X6200Y29650D02*
D03*
X12900Y42350D02*
D03*
D43*
X42800Y47200D02*
D03*
%TF.MD5,9e20cd6c292ca908400b3e10d806ba19*%
M02*
