%TF.GenerationSoftware,Altium Limited,Altium Designer,21.8.1 (53)*%
G04 Layer_Color=16711935*
%FSLAX43Y43*%
%MOMM*%
%TF.SameCoordinates,3FC202D4-D6D8-4E4D-99FA-64827559B015*%
%TF.FilePolarity,Negative*%
%TF.FileFunction,Soldermask,Bot*%
%TF.Part,Single*%
G01*
G75*
%TA.AperFunction,ComponentPad*%
%ADD34C,1.603*%
%ADD35R,1.703X1.703*%
%ADD36C,1.703*%
%TA.AperFunction,ViaPad*%
%ADD37C,6.203*%
%TA.AperFunction,ComponentPad*%
%ADD38C,1.573*%
%ADD39C,2.003*%
%ADD40C,1.727*%
%ADD41C,1.628*%
%ADD42R,1.628X1.628*%
%ADD43C,3.403*%
%ADD44C,2.153*%
%TA.AperFunction,ViaPad*%
%ADD45C,1.473*%
%ADD46C,2.003*%
D34*
X39510Y32300D02*
D03*
X47130D02*
D03*
X92900Y36500D02*
D03*
Y44120D02*
D03*
X39510Y38300D02*
D03*
X47130D02*
D03*
X39510Y41300D02*
D03*
X47130D02*
D03*
X39510Y44300D02*
D03*
X47130D02*
D03*
X39510Y47300D02*
D03*
X47130D02*
D03*
X47130Y35300D02*
D03*
X39510D02*
D03*
X47130Y29300D02*
D03*
X39510D02*
D03*
X47130Y26300D02*
D03*
X39510D02*
D03*
D35*
X28700Y64000D02*
D03*
X42670Y17370D02*
D03*
D36*
X26160Y64000D02*
D03*
X23620D02*
D03*
X21080D02*
D03*
X18540D02*
D03*
X16000D02*
D03*
X40130Y17370D02*
D03*
X45210D02*
D03*
X41554Y7250D02*
D03*
X35054D02*
D03*
X41554Y2750D02*
D03*
X35054D02*
D03*
D37*
X92500Y66000D02*
D03*
X4500D02*
D03*
X92500Y4500D02*
D03*
X4500D02*
D03*
D38*
X40740Y74460D02*
D03*
Y77000D02*
D03*
X43280Y74460D02*
D03*
Y77000D02*
D03*
X45820Y74460D02*
D03*
Y77000D02*
D03*
X48360Y74460D02*
D03*
Y77000D02*
D03*
X50900Y74460D02*
D03*
Y77000D02*
D03*
X53440Y74460D02*
D03*
Y77000D02*
D03*
X55980Y74460D02*
D03*
Y77000D02*
D03*
X58520Y74460D02*
D03*
Y77000D02*
D03*
X61060Y74460D02*
D03*
Y77000D02*
D03*
X63600Y74460D02*
D03*
Y77000D02*
D03*
X66140Y74460D02*
D03*
Y77000D02*
D03*
X68680Y74460D02*
D03*
Y77000D02*
D03*
X71220Y74460D02*
D03*
Y77000D02*
D03*
X73760Y74460D02*
D03*
Y77000D02*
D03*
X76300Y74460D02*
D03*
Y77000D02*
D03*
X78840Y74460D02*
D03*
Y77000D02*
D03*
X81380Y74460D02*
D03*
Y77000D02*
D03*
X83920Y74460D02*
D03*
Y77000D02*
D03*
X86460Y74460D02*
D03*
Y77000D02*
D03*
X89000Y74460D02*
D03*
Y77000D02*
D03*
D39*
X93000Y16420D02*
D03*
Y13880D02*
D03*
Y11340D02*
D03*
X93050Y27000D02*
D03*
Y29540D02*
D03*
X93150Y58660D02*
D03*
Y56120D02*
D03*
Y53580D02*
D03*
Y51040D02*
D03*
X58793Y4727D02*
D03*
X61333D02*
D03*
X63874D02*
D03*
X3380Y50370D02*
D03*
Y47830D02*
D03*
Y45290D02*
D03*
Y42750D02*
D03*
Y40210D02*
D03*
Y37670D02*
D03*
Y35130D02*
D03*
Y32590D02*
D03*
Y30050D02*
D03*
Y27510D02*
D03*
Y24970D02*
D03*
Y22430D02*
D03*
Y19890D02*
D03*
Y17350D02*
D03*
Y14810D02*
D03*
X18620D02*
D03*
Y17350D02*
D03*
Y19890D02*
D03*
Y22430D02*
D03*
Y24970D02*
D03*
Y27510D02*
D03*
Y30050D02*
D03*
Y32590D02*
D03*
Y35130D02*
D03*
Y37670D02*
D03*
Y40210D02*
D03*
Y42750D02*
D03*
Y45290D02*
D03*
Y47830D02*
D03*
Y50370D02*
D03*
X8470Y52810D02*
D03*
X11010D02*
D03*
X13550D02*
D03*
X8470Y50270D02*
D03*
X11010D02*
D03*
X13550D02*
D03*
D40*
X3380Y12270D02*
D03*
X18620D02*
D03*
X3380Y52910D02*
D03*
X18620D02*
D03*
X23500Y37060D02*
D03*
X26040D02*
D03*
X28580D02*
D03*
X31120D02*
D03*
X33660D02*
D03*
Y52300D02*
D03*
X31120D02*
D03*
X28580D02*
D03*
X26040D02*
D03*
X23500D02*
D03*
D41*
X32390Y30150D02*
D03*
Y27610D02*
D03*
Y25070D02*
D03*
Y22530D02*
D03*
Y19990D02*
D03*
Y17450D02*
D03*
Y14910D02*
D03*
Y12370D02*
D03*
X24770D02*
D03*
Y14910D02*
D03*
Y17450D02*
D03*
Y19990D02*
D03*
Y22530D02*
D03*
Y25070D02*
D03*
Y27610D02*
D03*
D42*
Y30150D02*
D03*
D43*
X57040Y57050D02*
D03*
X61000D02*
D03*
X64960D02*
D03*
X68920D02*
D03*
X73920D02*
D03*
X77880D02*
D03*
X81840D02*
D03*
X85800D02*
D03*
X40160D02*
D03*
X44120D02*
D03*
X48080D02*
D03*
X52040D02*
D03*
X54760Y40230D02*
D03*
X58720D02*
D03*
X62680D02*
D03*
X66640D02*
D03*
X73920D02*
D03*
X77880D02*
D03*
X81840D02*
D03*
X85800D02*
D03*
X73920Y28950D02*
D03*
X77880D02*
D03*
X81840D02*
D03*
X85800D02*
D03*
X54760D02*
D03*
X58720D02*
D03*
X62680D02*
D03*
X66640D02*
D03*
X73920Y17670D02*
D03*
X77880D02*
D03*
X81840D02*
D03*
X85800D02*
D03*
X54760D02*
D03*
X58720D02*
D03*
X62680D02*
D03*
X66640D02*
D03*
D44*
X83700Y5327D02*
D03*
X78700D02*
D03*
D45*
X37400Y48500D02*
D03*
X64550Y72000D02*
D03*
X24400Y41050D02*
D03*
X86850Y71850D02*
D03*
X83350Y69300D02*
D03*
X18300Y55600D02*
D03*
X3350Y57250D02*
D03*
X11050Y28050D02*
D03*
X5950Y36800D02*
D03*
X5570Y40220D02*
D03*
X21000Y52750D02*
D03*
D46*
X28400Y6650D02*
D03*
X6200Y29650D02*
D03*
X31600Y4450D02*
D03*
X12900Y42350D02*
D03*
%TF.MD5,70172c28cde81eec736c6b0cc5b71a3c*%
M02*
