M48
;Layer_Color=9474304
;FILE_FORMAT=4:3
METRIC,LZ
;TYPE=PLATED
T1F00S00C0.711
T2F00S00C0.762
T3F00S00C0.800
T4F00S00C0.850
T5F00S00C0.900
T6F00S00C0.950
T7F00S00C1.000
T8F00S00C1.020
T9F00S00C1.200
T10F00S00C1.300
T11F00S00C1.800
T12F00S00C2.200
T13F00S00C4.000
%
T01
X00244Y004105
X0021Y005275
X00374Y00485
X000557Y004022
X000595Y00368
X001105Y002805
X000335Y005725
X00183Y00556
X006455Y0072
X008335Y00693
X008685Y007185
T02
X00235Y003706
X002604
X002858
X003112
X003366
Y00523
X003112
X002858
X002604
X00235
T03
X00284Y000665
X00316Y000445
X00062Y002965
X00129Y004235
T04
X00929Y00365
Y004412
X004713Y00443
Y00413
Y00383
X004713Y00353
Y00323
Y00293
Y00263
X003951
Y00293
Y00323
Y00353
X003951Y00383
Y00413
Y00443
Y00473
X004713
T05
X004013Y001737
X004267
X004521
X00287Y0064
X002616
X002362
X002108
X001854
X0016
T06
X002477Y001237
X003239
Y001491
Y001745
Y001999
Y002253
Y002507
Y002761
Y003015
X002477
Y002761
Y002507
Y002253
Y001999
Y001745
Y001491
T07
X0035054Y000275
Y000725
X0041554
Y000275
X001862Y001481
Y001735
Y001989
Y002243
Y002497
Y002751
Y003005
Y003259
Y003513
Y003767
Y004021
Y004275
Y004529
Y004783
Y005037
X001355Y005027
Y005281
X001101
X000847
Y005027
X001101
X000338Y005037
Y004783
Y004529
Y004275
Y004021
Y003767
Y003513
Y003259
Y003005
Y002751
Y002497
Y002243
Y001989
Y001735
Y001481
T08
X004074Y007446
Y0077
X004328
Y007446
X004582
Y0077
X004836
Y007446
X00509
Y0077
X005344
Y007446
X005598
Y0077
X005852
Y007446
X006106
Y0077
X00636
Y007446
X006614
Y0077
X006868
Y007446
X007122
Y0077
X007376
Y007446
X00763
Y0077
X007884
Y007446
X008138
Y0077
X008392
Y007446
X008646
Y0077
X0089
Y007446
T09
X0058793Y0004727
X0061333
X0063874
X0093Y001134
Y001388
Y001642
X009305Y0027
Y002954
X009315Y005104
Y005358
Y005612
Y005866
T10
X00787Y0005327
X00837
T11
X000338Y001227
X001862
Y005291
X000338
T12
X005476Y001767
X005872
X006268
X006664
X007392
X007788
X008184
X00858
Y002895
X008184
X007788
X007392
X006664
X006268
X005872
X005476
Y004023
X005872
X006268
X006664
X007392
X007788
X008184
X00858
X005204Y005705
X004808
X004412
X004016
X005704
X0061
X006496
X006892
X007392
X007788
X008184
X00858
T13
X00045Y00045
X00925
X00045Y0066
X00925
M30
