%TF.GenerationSoftware,Altium Limited,Altium Designer,21.8.1 (53)*%
G04 Layer_Physical_Order=4*
G04 Layer_Color=16711680*
%FSLAX43Y43*%
%MOMM*%
%TF.SameCoordinates,2523FC94-2157-46A2-8D95-2E3533E7A92D*%
%TF.FilePolarity,Positive*%
%TF.FileFunction,Copper,L4,Bot,Signal*%
%TF.Part,Single*%
G01*
G75*
%TA.AperFunction,NonConductor*%
%ADD10C,0.203*%
%ADD11C,0.254*%
%TA.AperFunction,Conductor*%
%ADD12C,1.200*%
%ADD16C,0.400*%
%TA.AperFunction,ComponentPad*%
%ADD17C,1.800*%
%ADD18C,1.500*%
%ADD19R,1.500X1.500*%
%ADD20C,1.524*%
%ADD21C,1.425*%
%ADD22R,1.425X1.425*%
%ADD23C,1.400*%
%ADD24C,3.200*%
%TA.AperFunction,ViaPad*%
%ADD25C,6.000*%
%TA.AperFunction,ComponentPad*%
%ADD26C,1.950*%
%TA.AperFunction,ViaPad*%
%ADD27C,1.800*%
%ADD28C,1.270*%
D10*
X93063Y69356D02*
X93725Y70017D01*
X93272D02*
X93934Y69356D01*
X92554Y70017D02*
X93215Y69356D01*
X94339Y69194D02*
X95162Y70017D01*
X94698Y68835D02*
X95881Y70017D01*
X93782Y69356D02*
X94444Y70017D01*
X90908Y69356D02*
X91570Y70017D01*
X91117D02*
X91779Y69356D01*
X90398Y70017D02*
X91060Y69356D01*
X91835Y70017D02*
X92497Y69356D01*
X92345D02*
X93007Y70017D01*
X91627Y69356D02*
X92288Y70017D01*
X95427D02*
X96517Y68927D01*
X95057Y68476D02*
X96517Y69936D01*
X96146Y70017D02*
X96517Y69646D01*
X95417Y68117D02*
X96517Y69217D01*
X95776Y67757D02*
X96517Y68499D01*
X94709Y70017D02*
X96517Y68209D01*
X90822Y69356D02*
X94178D01*
X95856Y67678D01*
X89144Y67592D02*
X90908Y69356D01*
X93990Y70017D02*
X96517Y67490D01*
X93934Y69356D02*
X95856Y67434D01*
X84651Y70017D02*
X87098Y67570D01*
X84812D02*
X87260Y70017D01*
X84094Y67570D02*
X86541Y70017D01*
X85531Y67570D02*
X87978Y70017D01*
X86088D02*
X88535Y67570D01*
X85369Y70017D02*
X87817Y67570D01*
X82657D02*
X85104Y70017D01*
X83214D02*
X85661Y67570D01*
X82496Y70017D02*
X84943Y67570D01*
X83933Y70017D02*
X86380Y67570D01*
X83375D02*
X85823Y70017D01*
X88961D02*
X90223Y68756D01*
X89680Y70017D02*
X90582Y69115D01*
X88243Y70017D02*
X89864Y68397D01*
X88404Y67570D02*
X90852Y70017D01*
X89144Y67678D02*
X90822Y69356D01*
X88800Y67247D02*
X89144Y67592D01*
X86806Y70017D02*
X89145Y67678D01*
X87525Y70017D02*
X89504Y68038D01*
X86249Y67570D02*
X88696Y70017D01*
X87686Y67570D02*
X90133Y70017D01*
X86967Y67570D02*
X89415Y70017D01*
X95856Y65682D02*
X96517Y66344D01*
X95856Y65997D02*
X96517Y65335D01*
X95856Y66715D02*
X96517Y66054D01*
X95856Y65279D02*
X96517Y64617D01*
X95856Y64560D02*
X96517Y63898D01*
X95856Y64963D02*
X96517Y65625D01*
X95856Y67434D02*
X96517Y66772D01*
X95856Y66400D02*
X96517Y67062D01*
X95856Y67119D02*
X96517Y67781D01*
X88800Y64431D02*
X96517Y56714D01*
X88800Y57189D02*
X96517Y64907D01*
X95615Y64082D02*
X96517Y63180D01*
X95256Y63723D02*
X96517Y62461D01*
X94178Y62644D02*
X95856Y64322D01*
X94538Y63004D02*
X96517Y61025D01*
X94178Y62645D02*
X96517Y60306D01*
X94897Y63364D02*
X96517Y61743D01*
X88800Y63713D02*
X96517Y55996D01*
X88800Y55753D02*
X96517Y63470D01*
X88800Y56471D02*
X96517Y64188D01*
X88800Y55034D02*
X96517Y62752D01*
X88800Y62995D02*
X96517Y55277D01*
X95856Y64322D02*
Y67678D01*
X89144Y64322D02*
Y67678D01*
X88800Y66529D02*
X89144Y66873D01*
X88800Y66587D02*
X89144Y66242D01*
X88800Y67305D02*
X89144Y66961D01*
X88800Y65811D02*
X89144Y66155D01*
X88800Y51750D02*
Y67570D01*
X89144Y64322D02*
X90822Y62644D01*
X88800Y62218D02*
X90024Y63443D01*
X88800Y62937D02*
X89665Y63802D01*
X88800Y60782D02*
X90743Y62724D01*
X88800Y59345D02*
X92100Y62644D01*
X88800Y61500D02*
X90383Y63083D01*
X88800Y65092D02*
X89144Y65437D01*
X88800Y65150D02*
X89144Y64805D01*
X88800Y65868D02*
X89144Y65524D01*
X88800Y63655D02*
X89306Y64161D01*
X88800Y64374D02*
X89144Y64718D01*
X61104Y67570D02*
X63552Y70017D01*
X61661D02*
X64109Y67570D01*
X60943Y70017D02*
X63390Y67570D01*
X62380Y70017D02*
X64827Y67570D01*
X62541D02*
X64988Y70017D01*
X61823Y67570D02*
X64270Y70017D01*
X58949Y67570D02*
X61396Y70017D01*
X59506D02*
X61954Y67570D01*
X58788Y70017D02*
X61235Y67570D01*
X60225Y70017D02*
X62672Y67570D01*
X60386D02*
X62833Y70017D01*
X59667Y67570D02*
X62115Y70017D01*
X65254D02*
X67701Y67570D01*
X65415D02*
X67862Y70017D01*
X64696Y67570D02*
X67144Y70017D01*
X66133Y67570D02*
X68581Y70017D01*
X66690D02*
X69138Y67570D01*
X65972Y70017D02*
X68419Y67570D01*
X63259D02*
X65707Y70017D01*
X63817D02*
X66264Y67570D01*
X63098Y70017D02*
X65546Y67570D01*
X64535Y70017D02*
X66983Y67570D01*
X63978D02*
X66425Y70017D01*
X53040D02*
X55488Y67570D01*
X53202D02*
X55649Y70017D01*
X52483Y67570D02*
X54931Y70017D01*
X53920Y67570D02*
X56367Y70017D01*
X54477D02*
X56925Y67570D01*
X53759Y70017D02*
X56206Y67570D01*
X51046D02*
X53494Y70017D01*
X51604D02*
X54051Y67570D01*
X50885Y70017D02*
X53333Y67570D01*
X52322Y70017D02*
X54769Y67570D01*
X51765D02*
X54212Y70017D01*
X56794Y67570D02*
X59241Y70017D01*
X57351D02*
X59798Y67570D01*
X56632Y70017D02*
X59080Y67570D01*
X58069Y70017D02*
X60517Y67570D01*
X58231D02*
X60678Y70017D01*
X57512Y67570D02*
X59959Y70017D01*
X55196D02*
X57643Y67570D01*
X55357D02*
X57804Y70017D01*
X54638Y67570D02*
X57086Y70017D01*
X56075Y67570D02*
X58523Y70017D01*
X55914D02*
X58361Y67570D01*
X76748Y70017D02*
X79196Y67570D01*
X76909D02*
X79357Y70017D01*
X76191Y67570D02*
X78638Y70017D01*
X77628Y67570D02*
X80075Y70017D01*
X78185D02*
X80633Y67570D01*
X77467Y70017D02*
X79914Y67570D01*
X74754D02*
X77202Y70017D01*
X75311D02*
X77759Y67570D01*
X74593Y70017D02*
X77040Y67570D01*
X76030Y70017D02*
X78477Y67570D01*
X75473D02*
X77920Y70017D01*
X80502Y67570D02*
X82949Y70017D01*
X81059D02*
X83506Y67570D01*
X80340Y70017D02*
X82788Y67570D01*
X81777Y70017D02*
X84225Y67570D01*
X81938D02*
X84386Y70017D01*
X81220Y67570D02*
X83667Y70017D01*
X78904D02*
X81351Y67570D01*
X79065D02*
X81512Y70017D01*
X78346Y67570D02*
X80794Y70017D01*
X79783Y67570D02*
X82231Y70017D01*
X79622D02*
X82069Y67570D01*
X68846Y70017D02*
X71293Y67570D01*
X69007D02*
X71454Y70017D01*
X68288Y67570D02*
X70736Y70017D01*
X69725Y67570D02*
X72173Y70017D01*
X70282D02*
X72730Y67570D01*
X69564Y70017D02*
X72011Y67570D01*
X67409Y70017D02*
X69856Y67570D01*
X67570D02*
X70017Y70017D01*
X66852Y67570D02*
X69299Y70017D01*
X68127D02*
X70575Y67570D01*
X67570D02*
X70017Y70017D01*
X72599Y67570D02*
X75046Y70017D01*
X73156D02*
X75604Y67570D01*
X72438Y70017D02*
X74885Y67570D01*
X73875Y70017D02*
X76322Y67570D01*
X74036D02*
X76483Y70017D01*
X73317Y67570D02*
X75765Y70017D01*
X71001D02*
X73448Y67570D01*
X71162D02*
X73610Y70017D01*
X70444Y67570D02*
X72891Y70017D01*
X71881Y67570D02*
X74328Y70017D01*
X71719D02*
X74167Y67570D01*
X92742Y62644D02*
X96517Y58869D01*
X92024Y62644D02*
X96517Y58151D01*
X93461Y62644D02*
X96517Y59588D01*
X88800Y52879D02*
X96517Y60596D01*
X88800Y59403D02*
X96517Y51685D01*
X91305Y62644D02*
X96517Y57432D01*
X88800Y54316D02*
X96517Y62033D01*
X88800Y61558D02*
X96517Y53840D01*
X88800Y62276D02*
X96517Y54559D01*
X88800Y60839D02*
X96517Y53122D01*
X88108Y50750D02*
X96517Y59160D01*
X88800Y53597D02*
X96517Y61315D01*
X88800Y57247D02*
X96517Y49530D01*
X88800Y56529D02*
X96517Y48811D01*
X88800Y57966D02*
X96517Y50248D01*
X88800Y55092D02*
X96517Y47375D01*
X88800Y47132D02*
X96517Y54849D01*
X88800Y55810D02*
X96517Y48093D01*
X88800Y50005D02*
X96517Y57723D01*
X88800Y49287D02*
X96517Y57004D01*
X88800Y50724D02*
X96517Y58441D01*
X88800Y47850D02*
X96517Y55567D01*
X88800Y48568D02*
X96517Y56286D01*
X88800Y57908D02*
X93537Y62644D01*
X90822D02*
X94178D01*
X88800Y58626D02*
X92818Y62644D01*
X88800Y52161D02*
X96517Y59878D01*
X88800Y58684D02*
X96517Y50967D01*
X88800Y60121D02*
X96517Y52404D01*
X88800Y60063D02*
X91381Y62644D01*
X83079Y50750D02*
X84079Y51750D01*
X82803D02*
X83803Y50750D01*
X83797D02*
X84797Y51750D01*
X83521D02*
X84521Y50750D01*
X86756Y50835D02*
X87671Y51750D01*
X86756D02*
X88800D01*
X86756Y51389D02*
X87395Y50750D01*
X87389D02*
X88389Y51750D01*
X86756Y50750D02*
X88800D01*
X87113Y51750D02*
X88113Y50750D01*
X86756Y51553D02*
X86953Y51750D01*
X84516Y50750D02*
X84844Y51079D01*
X84239Y51750D02*
X84844Y51145D01*
X86756Y50750D02*
Y51750D01*
X84844Y50750D02*
Y51750D01*
X88800Y44316D02*
X96517Y36598D01*
X88800Y36355D02*
X96517Y44073D01*
X88800Y37074D02*
X96517Y44791D01*
X88800Y35637D02*
X96517Y43354D01*
X88800Y42879D02*
X96517Y35161D01*
X88800Y43597D02*
X96517Y35880D01*
X88800Y38511D02*
X96517Y46228D01*
X88800Y45753D02*
X96517Y38035D01*
X88800Y46471D02*
X96517Y38754D01*
X88800Y45034D02*
X96517Y37317D01*
X88800Y37792D02*
X96517Y45509D01*
X88800Y32763D02*
X96517Y40481D01*
X88800Y40005D02*
X96517Y32288D01*
X88800Y40724D02*
X96517Y33006D01*
X88800Y39287D02*
X96517Y31569D01*
X88800Y31326D02*
X96517Y39044D01*
X88800Y32045D02*
X96517Y39762D01*
X88800Y42160D02*
X96517Y34443D01*
X88800Y34200D02*
X96517Y41917D01*
X88800Y34918D02*
X96517Y42636D01*
X88800Y33482D02*
X96517Y41199D01*
X88800Y41442D02*
X96517Y33725D01*
X88800Y53655D02*
X96517Y45938D01*
X88800Y52937D02*
X96517Y45219D01*
X88800Y54374D02*
X96517Y46656D01*
X88800Y44258D02*
X96517Y51975D01*
X88800Y43539D02*
X96517Y51257D01*
X88800Y52218D02*
X96517Y44501D01*
X88800Y45695D02*
X96517Y53412D01*
X88800Y44976D02*
X96517Y52694D01*
X88800Y46413D02*
X96517Y54131D01*
X87831Y51750D02*
X96517Y43064D01*
X88550Y51750D02*
X96517Y43783D01*
X88800Y40666D02*
X96517Y48383D01*
X88800Y47908D02*
X96517Y40190D01*
X88800Y48626D02*
X96517Y40909D01*
X88800Y47189D02*
X96517Y39472D01*
X88800Y39229D02*
X96517Y46946D01*
X88800Y39947D02*
X96517Y47665D01*
X88800Y50063D02*
X96517Y42346D01*
X88800Y42103D02*
X96517Y49820D01*
X88800Y42821D02*
X96517Y50538D01*
X88800Y41384D02*
X96517Y49102D01*
X88800Y49345D02*
X96517Y41627D01*
X62963Y50750D02*
X63963Y51750D01*
X63405D02*
X64405Y50750D01*
X62687Y51750D02*
X63687Y50750D01*
X64124Y51750D02*
X65124Y50750D01*
X64400D02*
X65400Y51750D01*
X63682Y50750D02*
X64682Y51750D01*
X60808Y50750D02*
X61808Y51750D01*
X61250D02*
X62250Y50750D01*
X60531Y51750D02*
X61531Y50750D01*
X61968Y51750D02*
X62968Y50750D01*
X62245D02*
X63245Y51750D01*
X61526Y50750D02*
X62526Y51750D01*
X69876Y51197D02*
X70429Y51750D01*
X69876D02*
X84844D01*
X67716D02*
X67964Y51501D01*
X66555Y50750D02*
X67555Y51750D01*
X66997D02*
X67964Y50783D01*
X66279Y51750D02*
X67279Y50750D01*
X65118D02*
X66118Y51750D01*
X52996D02*
X67964D01*
X64842D02*
X65842Y50750D01*
X65837D02*
X66837Y51750D01*
X65560D02*
X66560Y50750D01*
X54784Y51750D02*
X55784Y50750D01*
X55061D02*
X56061Y51750D01*
X54342Y50750D02*
X55342Y51750D01*
X55779Y50750D02*
X56779Y51750D01*
X56221D02*
X57221Y50750D01*
X55503Y51750D02*
X56503Y50750D01*
X52996Y50840D02*
X53905Y51750D01*
X53347D02*
X54347Y50750D01*
X52996Y51559D02*
X53187Y51750D01*
X54066D02*
X55066Y50750D01*
X53624D02*
X54624Y51750D01*
X58653Y50750D02*
X59653Y51750D01*
X59095D02*
X60095Y50750D01*
X58376Y51750D02*
X59376Y50750D01*
X59813Y51750D02*
X60813Y50750D01*
X60089D02*
X61089Y51750D01*
X59371Y50750D02*
X60371Y51750D01*
X56939D02*
X57939Y50750D01*
X57216D02*
X58216Y51750D01*
X56497Y50750D02*
X57497Y51750D01*
X57934Y50750D02*
X58934Y51750D01*
X57658D02*
X58658Y50750D01*
X77332D02*
X78332Y51750D01*
X77774D02*
X78774Y50750D01*
X77055Y51750D02*
X78055Y50750D01*
X78492Y51750D02*
X79492Y50750D01*
X78768D02*
X79768Y51750D01*
X78050Y50750D02*
X79050Y51750D01*
X75618D02*
X76618Y50750D01*
X75895D02*
X76895Y51750D01*
X75176Y50750D02*
X76176Y51750D01*
X76613Y50750D02*
X77613Y51750D01*
X76337D02*
X77337Y50750D01*
X80924D02*
X81924Y51750D01*
X81366D02*
X82366Y50750D01*
X80647Y51750D02*
X81647Y50750D01*
X82084Y51750D02*
X83084Y50750D01*
X82361D02*
X83361Y51750D01*
X81642Y50750D02*
X82642Y51750D01*
X79487Y50750D02*
X80487Y51750D01*
X69876Y50750D02*
X84844D01*
X79210Y51750D02*
X80210Y50750D01*
X80205D02*
X81205Y51750D01*
X79929D02*
X80929Y50750D01*
X71308Y51750D02*
X72308Y50750D01*
X71584D02*
X72584Y51750D01*
X70866Y50750D02*
X71866Y51750D01*
X72303Y50750D02*
X73303Y51750D01*
X72745D02*
X73745Y50750D01*
X72026Y51750D02*
X73026Y50750D01*
X67964D02*
Y51750D01*
X69876Y50750D02*
Y51750D01*
X52996Y50750D02*
Y51750D01*
X70589D02*
X71589Y50750D01*
X70147D02*
X71147Y51750D01*
X73463D02*
X74463Y50750D01*
X73739D02*
X74739Y51750D01*
X73021Y50750D02*
X74021Y51750D01*
X74458Y50750D02*
X75458Y51750D01*
X74900D02*
X75900Y50750D01*
X74181Y51750D02*
X75181Y50750D01*
X67274D02*
X67964Y51441D01*
X52996Y50750D02*
X67964D01*
X52996Y51383D02*
X53629Y50750D01*
X69876Y51745D02*
X70871Y50750D01*
X69876Y51027D02*
X70153Y50750D01*
X48891Y67570D02*
X51338Y70017D01*
X49448D02*
X51896Y67570D01*
X48730Y70017D02*
X51177Y67570D01*
X50167Y70017D02*
X52614Y67570D01*
X50328D02*
X52775Y70017D01*
X49609Y67570D02*
X52057Y70017D01*
X47454Y67570D02*
X49902Y70017D01*
X48011D02*
X50459Y67570D01*
X47293Y70017D02*
X49740Y67570D01*
X48173D02*
X50620Y70017D01*
X47207Y47926D02*
X51032Y51750D01*
X46848Y48285D02*
X50313Y51750D01*
X49755D02*
X51084Y50421D01*
X49037Y51750D02*
X51084Y49702D01*
X50474Y51750D02*
X51084Y51139D01*
Y47482D02*
Y48438D01*
Y47482D02*
Y48438D01*
Y51750D01*
X47600D02*
X51084Y48265D01*
X47567Y47567D02*
X51084Y51084D01*
X48318Y51750D02*
X51084Y48984D01*
X46881Y51750D02*
X51084Y47547D01*
X47567Y47567D02*
X51084Y51084D01*
X45299Y67570D02*
X47746Y70017D01*
X45856D02*
X48304Y67570D01*
X45138Y70017D02*
X47585Y67570D01*
X46575Y70017D02*
X49022Y67570D01*
X46736D02*
X49183Y70017D01*
X46017Y67570D02*
X48465Y70017D01*
X44419D02*
X46867Y67570D01*
X44581D02*
X47028Y70017D01*
X43862Y67570D02*
X46310Y70017D01*
X45095Y49406D02*
X47439Y51750D01*
X44377Y49406D02*
X46721Y51750D01*
X46130Y49004D02*
X48876Y51750D01*
X46489Y48644D02*
X49595Y51750D01*
X45771Y49363D02*
X48158Y51750D01*
X47408Y47726D02*
X47686Y47448D01*
X47408Y47726D02*
X47686Y47448D01*
X46006Y49128D02*
X47408Y47726D01*
X45172Y49406D02*
X45728D01*
X46006Y49128D01*
X45172Y49406D02*
X45728D01*
X46006Y49128D01*
X43791Y47383D02*
X44702Y48294D01*
X51084Y47482D02*
X51562Y47004D01*
X51760Y46807D01*
X51084Y47482D02*
X51562Y47004D01*
X47686Y47354D02*
X51760Y43279D01*
X48186Y43875D02*
X51439Y47128D01*
X47941Y45067D02*
X51084Y48211D01*
X46163Y51750D02*
X51760Y46153D01*
X45445Y51750D02*
X51760Y45435D01*
X47686Y45530D02*
X51084Y48929D01*
X44008Y51750D02*
X51760Y43998D01*
X44726Y51750D02*
X51760Y44716D01*
X48186Y41720D02*
X51760Y45294D01*
X48186Y44699D02*
X51760Y41124D01*
X48108Y42361D02*
X51760Y46013D01*
X47916Y40013D02*
X51760Y43857D01*
X47933Y43514D02*
X51760Y39687D01*
X48186Y43980D02*
X51760Y40406D01*
X47686Y46635D02*
X51760Y42561D01*
X47686Y45917D02*
X51760Y41843D01*
X47749Y42720D02*
X51760Y46731D01*
X47490Y43239D02*
X51760Y38969D01*
X47455Y40271D02*
X51760Y44576D01*
X47686Y46967D02*
X51084Y50366D01*
X47686Y46892D02*
Y47448D01*
X45172Y48294D02*
X46574Y46892D01*
X47686Y46249D02*
X51084Y49648D01*
X48186Y44593D02*
X51084Y47492D01*
X47686Y46892D02*
Y47448D01*
X44590Y48294D02*
X46574Y46310D01*
X43871Y48294D02*
X46574Y45591D01*
X43791Y46705D02*
Y47695D01*
Y47657D02*
X46349Y45098D01*
X43791Y46938D02*
X46074Y44655D01*
X47686Y45323D02*
X48186Y44823D01*
Y43767D02*
Y44823D01*
X47686Y45323D02*
Y46892D01*
X47658Y43239D02*
X48186Y43767D01*
X47121Y42811D02*
X47550Y43239D01*
X46771D02*
X47200Y42811D01*
X46574Y45323D02*
Y46892D01*
X46074Y44823D02*
X46574Y45323D01*
X46074Y43767D02*
Y44823D01*
X46602Y43239D02*
X47658D01*
X46074Y43767D02*
X46602Y43239D01*
X42264Y70017D02*
X44711Y67570D01*
X42425D02*
X44873Y70017D01*
X41707Y67570D02*
X44154Y70017D01*
X43144Y67570D02*
X45591Y70017D01*
X43701D02*
X46148Y67570D01*
X42982Y70017D02*
X45430Y67570D01*
X40988D02*
X43436Y70017D01*
X41546D02*
X43993Y67570D01*
X40827Y70017D02*
X43275Y67570D01*
X41134Y51750D02*
X43479Y49406D01*
X41503D02*
X43847Y51750D01*
X40785Y49406D02*
X43129Y51750D01*
X43289D02*
X45634Y49406D01*
X43658D02*
X46003Y51750D01*
X43153Y48294D02*
X43257Y48191D01*
X43588Y47898D02*
X43984Y48294D01*
X43295Y48191D02*
X43791Y47695D01*
X43162Y48191D02*
X43265Y48294D01*
X42221Y49406D02*
X44566Y51750D01*
X42571D02*
X44915Y49406D01*
X41853Y51750D02*
X44197Y49406D01*
X42940D02*
X45284Y51750D01*
X42305Y48191D02*
X43295D01*
X38833Y67570D02*
X41281Y70017D01*
X39390D02*
X41838Y67570D01*
X38672Y70017D02*
X41119Y67570D01*
X40109Y70017D02*
X42556Y67570D01*
X40270D02*
X42717Y70017D01*
X39552Y67570D02*
X41999Y70017D01*
X37396Y67570D02*
X39844Y70017D01*
X37954D02*
X40401Y67570D01*
X37235Y70017D02*
X39683Y67570D01*
X38115D02*
X40562Y70017D01*
X37542Y51750D02*
X39886Y49406D01*
X40066D02*
X42411Y51750D01*
X40416D02*
X42760Y49406D01*
X39697Y51750D02*
X42042Y49406D01*
X42435Y48294D02*
X42538Y48191D01*
X42443D02*
X42547Y48294D01*
X41716D02*
X42062Y47948D01*
X38261Y51750D02*
X40605Y49406D01*
X38629D02*
X40974Y51750D01*
X37911Y49406D02*
X40255Y51750D01*
X39348Y49406D02*
X41692Y51750D01*
X38979D02*
X41323Y49406D01*
X40347Y42502D02*
X45656Y47811D01*
X40566Y42002D02*
X46015Y47452D01*
X43295Y46209D02*
X43791Y46705D01*
X40154Y40154D02*
X46574Y46574D01*
X40154Y40154D02*
X46574Y46574D01*
X40566Y41284D02*
X46374Y47093D01*
X39561Y48294D02*
X46074Y41781D01*
X38842Y48294D02*
X46866Y40271D01*
X39937Y42811D02*
X45296Y48170D01*
X38124Y48294D02*
X46375Y40043D01*
X37406Y48294D02*
X46074Y39626D01*
X42364Y46209D02*
X46183Y42391D01*
X43083Y46209D02*
X46542Y42750D01*
X43548Y46462D02*
X46074Y43936D01*
X40566Y44416D02*
X46074Y38907D01*
X40566Y36973D02*
X46832Y43239D01*
X40566Y39129D02*
X46074Y44638D01*
X40513Y39795D02*
X46574Y45856D01*
X40531Y43732D02*
X46567Y37696D01*
X39886Y37731D02*
X46074Y43919D01*
X40321Y37447D02*
X46358Y43484D01*
X40172Y43373D02*
X46208Y37337D01*
X41809Y47695D02*
X42305Y48191D01*
X43257D02*
X43791Y47657D01*
X40998Y48294D02*
X41809Y47483D01*
Y46764D02*
X42364Y46209D01*
X41809Y46705D02*
X42305Y46209D01*
X41809Y46705D02*
Y47695D01*
X39603Y45351D02*
X41809Y47557D01*
X40180Y45209D02*
X41809Y46838D01*
X40279Y48294D02*
X41809Y46764D01*
X40566Y44158D02*
X42617Y46209D01*
X40539Y44849D02*
X42102Y46412D01*
X42305Y46209D02*
X43295D01*
X40566Y43767D02*
Y44823D01*
X40038Y45351D02*
X40566Y44823D01*
X40038Y43239D02*
X40566Y43767D01*
X39587Y43239D02*
X40016Y42811D01*
X39218D02*
X39647Y43239D01*
X38454Y44823D02*
X38982Y45351D01*
X40038D01*
X38454Y43767D02*
Y44823D01*
X38982Y43239D02*
X40038D01*
X38454Y43767D02*
X38982Y43239D01*
X48186Y39565D02*
X51760Y43139D01*
X48186Y38846D02*
X51760Y42421D01*
X48186Y41227D02*
Y42283D01*
X48125Y41167D02*
X51760Y37532D01*
X48082Y37306D02*
X51760Y40984D01*
X48186Y41825D02*
X51760Y38251D01*
X47658Y40699D02*
X48186Y41227D01*
X47658Y40271D02*
X48186Y39743D01*
X47658Y42811D02*
X48186Y42283D01*
X47723Y37665D02*
X51760Y41702D01*
X47766Y40808D02*
X51760Y36814D01*
X47585Y40271D02*
X48186Y39670D01*
Y36691D02*
X51760Y40265D01*
X48186Y36147D02*
Y37203D01*
Y38687D02*
Y39743D01*
Y38951D02*
X51760Y35377D01*
X47890Y34958D02*
X51760Y38828D01*
X48186Y39670D02*
X51760Y36095D01*
X47658Y37731D02*
X48186Y37203D01*
X47658Y35619D02*
X48186Y36147D01*
X47658Y38159D02*
X48186Y38687D01*
X47404Y35191D02*
X51760Y39547D01*
X46602Y35191D02*
X47658D01*
X46602Y40699D02*
X47658D01*
X46602Y40271D02*
X47658D01*
X46602Y42811D02*
X47658D01*
X46736Y40271D02*
X47165Y40699D01*
X47156D02*
X47585Y40271D01*
X46074Y38687D02*
X46602Y38159D01*
X46074Y42283D02*
X46602Y42811D01*
X46074Y41227D02*
X46602Y40699D01*
X46074Y41227D02*
Y42283D01*
Y39743D02*
X46602Y40271D01*
X46074Y38687D02*
Y39743D01*
X47070Y37731D02*
X47499Y38159D01*
X46602Y37731D02*
X47658D01*
X46822Y38159D02*
X47251Y37731D01*
X47207Y35619D02*
X47636Y35191D01*
X46602Y35619D02*
X47658D01*
X46685Y35191D02*
X47114Y35619D01*
X46602Y38159D02*
X47658D01*
X46074Y37203D02*
X46602Y37731D01*
X46074Y36147D02*
Y37203D01*
X46074Y34663D02*
X46602Y35191D01*
X46074Y36147D02*
X46602Y35619D01*
X48233Y33865D02*
X51760Y37392D01*
X48593Y33506D02*
X51760Y36673D01*
X48186Y34536D02*
X51760Y38110D01*
X49311Y32787D02*
X51760Y35236D01*
X48186Y34641D02*
X51760Y31066D01*
X48952Y33147D02*
X51760Y35955D01*
X47541Y38159D02*
X51760Y33940D01*
X48186Y36796D02*
X51760Y33222D01*
X47958Y38460D02*
X51760Y34658D01*
X47792Y35753D02*
X51760Y31785D01*
X48151Y36112D02*
X51760Y32503D01*
X49670Y32428D02*
X51760Y34518D01*
X49806Y31845D02*
X51760Y33799D01*
X49528Y32571D02*
X49806Y32293D01*
Y31127D02*
X51760Y33081D01*
X49806Y31737D02*
Y32293D01*
Y31737D02*
Y32293D01*
X48186Y33913D02*
X49528Y32571D01*
X49806Y32293D01*
X47352Y33079D02*
X48694Y31737D01*
X48186Y31767D02*
X48694Y31258D01*
X48186Y31662D02*
X48478Y31954D01*
X47636Y35191D02*
X48186Y34641D01*
Y33913D02*
Y34663D01*
X47658Y35191D02*
X48186Y34663D01*
X46254Y33305D02*
X46532Y33027D01*
X46604Y32954D02*
X46729Y33079D01*
X46254Y33305D02*
X46532Y33027D01*
X46074Y34580D02*
X46685Y35191D01*
X45698Y33305D02*
X46254D01*
X46074Y33607D02*
Y34663D01*
Y33607D02*
X46602Y33079D01*
X46236Y33305D02*
X46307Y33375D01*
X47698Y32611D02*
X47759Y32672D01*
X46908Y32651D02*
X47658D01*
X47019D02*
X47400Y33032D01*
X47658Y32651D02*
X48186Y32123D01*
Y31067D02*
Y32123D01*
X48057Y32252D02*
X48118Y32313D01*
X46873Y33079D02*
X47302Y32651D01*
X46602Y33079D02*
X47352D01*
X46532Y33027D02*
X46908Y32651D01*
X46074Y31067D02*
Y31817D01*
X45698Y32193D02*
X46074Y31817D01*
X40566Y42261D02*
X46074Y36752D01*
X40566Y36255D02*
X46074Y41764D01*
X40566Y41227D02*
Y42283D01*
Y41542D02*
X46917Y35191D01*
X40488Y34741D02*
X46524Y40777D01*
X40364Y41026D02*
X46401Y34989D01*
X40016Y42811D02*
X40566Y42261D01*
X39981Y40699D02*
X40566Y41284D01*
X40038Y42811D02*
X40566Y42283D01*
X40129Y35100D02*
X46165Y41136D01*
X39972Y40699D02*
X46074Y34597D01*
X40038Y40699D02*
X40566Y41227D01*
Y36147D02*
Y37203D01*
X40038Y35191D02*
X40566Y34663D01*
X40566Y38687D02*
Y39743D01*
X40566Y34100D02*
X46074Y39609D01*
X40566Y39387D02*
X46074Y33878D01*
X40566Y33607D02*
Y34663D01*
X40038Y38159D02*
X40566Y38687D01*
X40038Y37731D02*
X40566Y37203D01*
X40038Y40271D02*
X40566Y39743D01*
X40038Y35619D02*
X40566Y36147D01*
X38982Y35191D02*
X40038D01*
X38982Y40699D02*
X40038D01*
X38982Y40271D02*
X40038D01*
X38982Y42811D02*
X40038D01*
X39253Y40699D02*
X39682Y40271D01*
X39552D02*
X39981Y40699D01*
X38454Y38687D02*
X38982Y38159D01*
X38454Y42283D02*
X38982Y42811D01*
X38454Y41227D02*
X38982Y40699D01*
X38454Y41227D02*
Y42283D01*
Y39743D02*
X38982Y40271D01*
X38454Y38687D02*
Y39743D01*
X38982Y38159D02*
X40038D01*
X38982Y37731D02*
X40038D01*
X39167D02*
X39596Y38159D01*
X39501Y35191D02*
X39930Y35619D01*
X38982D02*
X40038D01*
X39304D02*
X39733Y35191D01*
X38454Y37203D02*
X38982Y37731D01*
X38454Y36147D02*
X38982Y35619D01*
X38454Y36147D02*
Y37203D01*
X38454Y34663D02*
X38982Y35191D01*
X38454Y33607D02*
Y34663D01*
X41207Y33305D02*
X46332Y38429D01*
X41926Y33305D02*
X46780Y38159D01*
X42644Y33305D02*
X46074Y36735D01*
X43362Y33305D02*
X46140Y36082D01*
X44081Y33305D02*
X46499Y35723D01*
X44799Y33305D02*
X46074Y34580D01*
X40489Y33305D02*
X46074Y38890D01*
X40197Y38319D02*
X45211Y33305D01*
X39638Y38159D02*
X44493Y33305D01*
X40556Y38678D02*
X45930Y33305D01*
X40566Y36513D02*
X43774Y33305D01*
X45698D02*
X46254D01*
X45604Y32193D02*
X46074Y31723D01*
X45518Y33305D02*
X46074Y33861D01*
X45324Y30956D02*
X46074Y31706D01*
X45507Y30956D02*
X46063D01*
X45507D02*
X46063D01*
X40263Y33305D02*
X45698D01*
X40495Y32193D02*
X45698D01*
X42730D02*
X43968Y30956D01*
X43887D02*
X45125Y32193D01*
X43169Y30956D02*
X44407Y32193D01*
X40389Y35971D02*
X43056Y33305D01*
X40023Y35619D02*
X42337Y33305D01*
X40263D02*
X40566Y33607D01*
Y34358D02*
X41619Y33305D01*
X40566Y33640D02*
X40901Y33305D01*
X40495Y32193D02*
X40566Y32123D01*
X38454Y33607D02*
X38757Y33305D01*
X38334D02*
X38545Y33516D01*
X37615Y33305D02*
X38454Y34144D01*
Y32123D02*
X38525Y32193D01*
X37701D02*
X38454Y31440D01*
X40575Y32193D02*
X41813Y30956D01*
X41014D02*
X42251Y32193D01*
X40566Y31484D02*
X41094Y30956D01*
X42012Y32193D02*
X43250Y30956D01*
X42450D02*
X43688Y32193D01*
X41732Y30956D02*
X42970Y32193D01*
X40566Y31945D02*
X40814Y32193D01*
X40566Y31226D02*
X41533Y32193D01*
X38454Y31067D02*
Y32123D01*
X40566Y31067D02*
Y32123D01*
X38454Y31067D02*
X38566Y30956D01*
X88800Y20550D02*
X96517Y28267D01*
X88800Y27792D02*
X96517Y20075D01*
X88800Y28510D02*
X96517Y20793D01*
X88800Y27074D02*
X96517Y19356D01*
X88800Y19113D02*
X96517Y26831D01*
X88800Y19832D02*
X96517Y27549D01*
X88800Y22705D02*
X96517Y30423D01*
X88800Y29947D02*
X96517Y22230D01*
X88800Y30666D02*
X96517Y22948D01*
X88800Y29229D02*
X96517Y21511D01*
X88800Y21268D02*
X96517Y28986D01*
X88800Y21987D02*
X96517Y29704D01*
X88800Y24200D02*
X96517Y16482D01*
X88800Y16239D02*
X96517Y23957D01*
X88800Y16958D02*
X96517Y24675D01*
X88800Y15521D02*
X96517Y23238D01*
X88800Y22763D02*
X96517Y15046D01*
X88800Y23481D02*
X96517Y15764D01*
X88800Y18395D02*
X96517Y26112D01*
X88800Y25637D02*
X96517Y17919D01*
X88800Y26355D02*
X96517Y18638D01*
X88800Y24918D02*
X96517Y17201D01*
X88800Y17676D02*
X96517Y25394D01*
X88800Y36413D02*
X96517Y28696D01*
X88800Y28453D02*
X96517Y36170D01*
X88800Y29171D02*
X96517Y36888D01*
X88800Y27734D02*
X96517Y35452D01*
X88800Y34976D02*
X96517Y27259D01*
X88800Y35695D02*
X96517Y27977D01*
X88800Y30608D02*
X96517Y38325D01*
X88800Y37850D02*
X96517Y30132D01*
X88800Y38568D02*
X96517Y30851D01*
X88800Y37131D02*
X96517Y29414D01*
X88800Y29889D02*
X96517Y37607D01*
X88800Y24861D02*
X96517Y32578D01*
X88800Y32103D02*
X96517Y24385D01*
X88800Y32821D02*
X96517Y25104D01*
X88800Y31384D02*
X96517Y23667D01*
X88800Y23424D02*
X96517Y31141D01*
X88800Y24142D02*
X96517Y31859D01*
X88800Y34258D02*
X96517Y26540D01*
X88800Y26297D02*
X96517Y34015D01*
X88800Y27016D02*
X96517Y34733D01*
X88800Y25579D02*
X96517Y33296D01*
X88800Y33539D02*
X96517Y25822D01*
X88800Y14084D02*
X96517Y21802D01*
X88800Y21326D02*
X96517Y13609D01*
X88800Y22045D02*
X96517Y14327D01*
Y483D02*
Y70017D01*
X88800Y16297D02*
X96517Y8580D01*
X88800Y13366D02*
X96517Y21083D01*
X86450Y7424D02*
X96517Y17491D01*
X86450Y6705D02*
X96517Y16773D01*
X88800Y14803D02*
X96517Y22520D01*
X86450Y5268D02*
X96517Y15336D01*
X86450Y5987D02*
X96517Y16054D01*
X91911Y7856D02*
X96517Y12462D01*
X92629Y7856D02*
X96517Y11744D01*
X91192Y7856D02*
X96517Y13181D01*
X94066Y7856D02*
X96517Y10307D01*
X94481Y7552D02*
X96517Y9588D01*
X93348Y7856D02*
X96517Y11025D01*
X88800Y14142D02*
X96517Y6425D01*
X88800Y13424D02*
X96517Y5706D01*
X88800Y14860D02*
X96517Y7143D01*
X86450Y3832D02*
X96517Y13899D01*
X86450Y4550D02*
X96517Y14617D01*
X88800Y19889D02*
X96517Y12172D01*
X88800Y19171D02*
X96517Y11454D01*
X88800Y12647D02*
X96517Y20365D01*
X88800Y17734D02*
X96517Y10017D01*
X88800Y17016D02*
X96517Y9298D01*
X88800Y18453D02*
X96517Y10735D01*
X88800Y20608D02*
X96517Y12890D01*
X85698Y8827D02*
X96517Y19646D01*
X88800Y12370D02*
Y50750D01*
X86450Y8142D02*
X96517Y18209D01*
X86416Y8827D02*
X96517Y18928D01*
X88800Y15579D02*
X96517Y7861D01*
X87698Y12370D02*
X92213Y7856D01*
X86980Y12370D02*
X91494Y7856D01*
X88800Y12705D02*
X93650Y7856D01*
X88417Y12370D02*
X92931Y7856D01*
X86261Y12370D02*
X90799Y7832D01*
X86253Y12370D02*
X88800D01*
X85898Y12015D02*
X90440Y7473D01*
X85506Y11622D02*
X86253Y12370D01*
X85539Y11656D02*
X90081Y7114D01*
X85180Y11296D02*
X89721Y6755D01*
X82824Y8827D02*
X86367Y12370D01*
X85028Y11144D02*
X85506Y11622D01*
X85028Y11144D02*
X85506Y11622D01*
X84261Y8827D02*
X87804Y12370D01*
X84980Y8827D02*
X88523Y12370D01*
X83543Y8827D02*
X87086Y12370D01*
X51760D02*
X66837D01*
X65872Y11406D02*
X66837Y12370D01*
X66146D02*
X66491Y12025D01*
X78514Y8827D02*
X80831Y11144D01*
X81021D02*
X83339Y8827D01*
X67306Y9972D02*
X68478Y11144D01*
X84072D02*
X85028D01*
X84072D02*
X85028D01*
X82106Y8827D02*
X84423Y11144D01*
X83177D02*
X85494Y8827D01*
X83895Y11144D02*
X86212Y8827D01*
X82458Y11144D02*
X84776Y8827D01*
X68478Y11144D02*
X84072D01*
X66828Y9494D02*
X67306Y9972D01*
X66828Y9494D02*
X67306Y9972D01*
X81740Y11144D02*
X84057Y8827D01*
X81388D02*
X83705Y11144D01*
X60258Y11406D02*
X61223Y12370D01*
X60398D02*
X61363Y11406D01*
X59680Y12370D02*
X60644Y11406D01*
X61117Y12370D02*
X62081Y11406D01*
X61695D02*
X62659Y12370D01*
X60977Y11406D02*
X61941Y12370D01*
X58243D02*
X59208Y11406D01*
X58821D02*
X59786Y12370D01*
X58103Y11406D02*
X59067Y12370D01*
X59540Y11406D02*
X60504Y12370D01*
X58962D02*
X59926Y11406D01*
X63991Y12370D02*
X64955Y11406D01*
X65427Y12370D02*
X66132Y11665D01*
X63850Y11406D02*
X64815Y12370D01*
X64709D02*
X65673Y11406D01*
X65287D02*
X66252Y12370D01*
X64569Y11406D02*
X65533Y12370D01*
X62414Y11406D02*
X63378Y12370D01*
X62554D02*
X63518Y11406D01*
X61835Y12370D02*
X62800Y11406D01*
X63272Y12370D02*
X64236Y11406D01*
X63132D02*
X64096Y12370D01*
X75274Y11144D02*
X77591Y8827D01*
X75992Y11144D02*
X78310Y8827D01*
X74556Y11144D02*
X76873Y8827D01*
X76711Y11144D02*
X79028Y8827D01*
X77077D02*
X79394Y11144D01*
X76359Y8827D02*
X78676Y11144D01*
X73837D02*
X76155Y8827D01*
X65859Y483D02*
X76521Y11144D01*
X72400D02*
X75950Y7595D01*
X67296Y483D02*
X77958Y11144D01*
X66577Y483D02*
X77239Y11144D01*
X79585D02*
X81902Y8827D01*
X79951D02*
X82268Y11144D01*
X79232Y8827D02*
X81550Y11144D01*
X80669Y8827D02*
X82987Y11144D01*
X84613D02*
X89362Y6396D01*
X80303Y11144D02*
X82620Y8827D01*
X77795D02*
X80113Y11144D01*
X78148D02*
X80465Y8827D01*
X77429Y11144D02*
X79747Y8827D01*
X78866Y11144D02*
X81184Y8827D01*
X67206Y9873D02*
X76596Y483D01*
X64697Y5787D02*
X70055Y11144D01*
X65056Y5427D02*
X70773Y11144D01*
X64175Y5983D02*
X69337Y11144D01*
X64422Y483D02*
X75084Y11144D01*
X65141Y483D02*
X75802Y11144D01*
X65129Y4782D02*
X71492Y11144D01*
X61548Y483D02*
X72210Y11144D01*
X62267Y483D02*
X72929Y11144D01*
X63456Y5983D02*
X68618Y11144D01*
X63704Y483D02*
X74365Y11144D01*
X62985Y483D02*
X73647Y11144D01*
X71682D02*
X75950Y6876D01*
X70963Y11144D02*
X75950Y6158D01*
X73119Y11144D02*
X75950Y8313D01*
X69527Y11144D02*
X75950Y4721D01*
X68808Y11144D02*
X75950Y4003D01*
X70245Y11144D02*
X75950Y5439D01*
X67925Y10591D02*
X75950Y2566D01*
X67565Y10232D02*
X75950Y1847D01*
X68284Y10950D02*
X75950Y3284D01*
X66847Y9514D02*
X75878Y483D01*
X50054D02*
X59065Y9494D01*
X95856Y5335D02*
X96517Y5996D01*
X95856Y5650D02*
X96517Y4988D01*
X95856Y6053D02*
X96517Y6715D01*
X95856Y4616D02*
X96517Y5278D01*
X95856Y4931D02*
X96517Y4269D01*
X95856Y2822D02*
Y6178D01*
X94840Y7193D02*
X96517Y8870D01*
X95200Y6834D02*
X96517Y8152D01*
X90822Y7856D02*
X94178D01*
X95856Y6178D01*
X95559Y6475D02*
X96517Y7433D01*
X95856Y4213D02*
X96517Y3551D01*
X95856Y3179D02*
X96517Y3841D01*
X95856Y3898D02*
X96517Y4559D01*
X95832Y2799D02*
X96517Y2114D01*
X95473Y2440D02*
X96517Y1396D01*
X95856Y3494D02*
X96517Y2832D01*
X90822Y1144D02*
X94178D01*
X95114Y2081D02*
X96517Y677D01*
X94178Y1144D02*
X95856Y2822D01*
X89144Y6178D02*
X90822Y7856D01*
X86450Y5716D02*
X89144Y3021D01*
X86450Y3113D02*
X89144Y5808D01*
X86450Y2395D02*
X89144Y5089D01*
Y2822D02*
Y6178D01*
X86450Y7871D02*
X89144Y5177D01*
X86450Y7153D02*
X89144Y4458D01*
X86450Y8589D02*
X89144Y5895D01*
X86450Y6434D02*
X89144Y3740D01*
X86450Y1227D02*
Y8827D01*
X89144Y3021D02*
X91021Y1144D01*
X89144Y2822D02*
X90822Y1144D01*
X86450Y1676D02*
X89144Y4371D01*
X80162Y1227D02*
X80907Y483D01*
X80227D02*
X80972Y1227D01*
X79509Y483D02*
X80253Y1227D01*
X78072Y483D02*
X78816Y1227D01*
X78726D02*
X79470Y483D01*
X78007Y1227D02*
X78752Y483D01*
X79444Y1227D02*
X80188Y483D01*
X78791D02*
X79535Y1227D01*
X93877Y483D02*
X96517Y3123D01*
X94396Y1362D02*
X95275Y483D01*
X89567D02*
X90525Y1441D01*
X94596Y483D02*
X96517Y2404D01*
X95314Y483D02*
X96517Y1686D01*
X94755Y1721D02*
X95994Y483D01*
X86450Y4997D02*
X90965Y483D01*
X86450Y4279D02*
X90246Y483D01*
X86450Y3561D02*
X89528Y483D01*
X88848D02*
X90166Y1800D01*
X88130Y483D02*
X89807Y2160D01*
X92458Y1144D02*
X93120Y483D01*
X93159D02*
X93821Y1144D01*
X92441Y483D02*
X93102Y1144D01*
X93895D02*
X94557Y483D01*
X96033D02*
X96517Y967D01*
X93177Y1144D02*
X93838Y483D01*
X91004D02*
X91665Y1144D01*
X91021D02*
X91683Y483D01*
X90285D02*
X90947Y1144D01*
X91740D02*
X92402Y483D01*
X91722D02*
X92384Y1144D01*
X85975Y483D02*
X89144Y3652D01*
X86450Y2842D02*
X88809Y483D01*
X86450Y2124D02*
X88091Y483D01*
X86693D02*
X89144Y2934D01*
X87412Y483D02*
X89448Y2519D01*
X86450Y1405D02*
X87373Y483D01*
X80881Y1227D02*
X81625Y483D01*
X80946D02*
X81690Y1227D01*
X77354Y483D02*
X78098Y1227D01*
X81664Y483D02*
X82409Y1227D01*
X81599D02*
X82344Y483D01*
X84473Y1227D02*
X85217Y483D01*
X84538D02*
X85282Y1227D01*
X83819Y483D02*
X84564Y1227D01*
X85256Y483D02*
X86001Y1227D01*
X85910D02*
X86654Y483D01*
X85191Y1227D02*
X85936Y483D01*
X82383D02*
X83127Y1227D01*
X83036D02*
X83781Y483D01*
X82318Y1227D02*
X83062Y483D01*
X83755Y1227D02*
X84499Y483D01*
X83101D02*
X83845Y1227D01*
X65872Y9494D02*
X66828D01*
X65872D02*
X66828D01*
X61301Y5983D02*
X64813Y9494D01*
X62350Y5594D02*
X66250Y9494D01*
X61837D02*
X70849Y483D01*
X61990Y5954D02*
X65531Y9494D01*
X59643Y5761D02*
X63376Y9494D01*
X60400D02*
X63912Y5983D01*
X59682Y9494D02*
X63220Y5957D01*
X60002Y5402D02*
X64094Y9494D01*
X61119D02*
X70131Y483D01*
X58963Y9494D02*
X62860Y5597D01*
X75950Y8827D02*
X86450D01*
X65129Y4099D02*
Y5355D01*
X64501Y5983D02*
X65129Y5355D01*
X75950Y1227D02*
Y8827D01*
Y1227D02*
X86450D01*
X64501Y3471D02*
X65129Y4099D01*
X63246Y5983D02*
X64501D01*
X62618Y4099D02*
X63246Y3471D01*
X62618Y5355D02*
X63246Y5983D01*
Y3471D02*
X64501D01*
X61394D02*
X64383Y483D01*
X59146Y5983D02*
X62658Y9494D01*
X60706Y5983D02*
X61961D01*
X58427D02*
X61939Y9494D01*
X60078Y5355D02*
X60706Y5983D01*
X61961D02*
X62589Y5355D01*
X59421Y5983D02*
X60049Y5355D01*
X57527Y9494D02*
X61038Y5983D01*
X58245Y9494D02*
X61757Y5983D01*
X58166D02*
X59421D01*
X56808Y9494D02*
X60513Y5790D01*
X56090Y9494D02*
X60154Y5431D01*
X62589Y4099D02*
Y5355D01*
X62618Y4099D02*
Y5355D01*
X60078Y4099D02*
Y5355D01*
X61961Y3471D02*
X62589Y4099D01*
X60706Y3471D02*
X61961D01*
X60078Y4099D02*
X60706Y3471D01*
X60049Y4099D02*
Y5355D01*
X58166Y3471D02*
X59421D01*
X57956Y483D02*
X60945Y3471D01*
X59421D02*
X60049Y4099D01*
X68014Y483D02*
X75950Y8418D01*
X68733Y483D02*
X75950Y7700D01*
X66148Y9494D02*
X75159Y483D01*
X70169D02*
X75950Y6263D01*
X70888Y483D02*
X75950Y5545D01*
X69451Y483D02*
X75950Y6982D01*
X63274Y9494D02*
X72286Y483D01*
X63992Y9494D02*
X73004Y483D01*
X62556Y9494D02*
X71567Y483D01*
X65429Y9494D02*
X74441Y483D01*
X64711Y9494D02*
X73723Y483D01*
X75198D02*
X75950Y1234D01*
X75917Y483D02*
X76661Y1227D01*
X74480Y483D02*
X75950Y1953D01*
X76635Y483D02*
X77380Y1227D01*
X77289D02*
X78033Y483D01*
X76570Y1227D02*
X77315Y483D01*
X71606D02*
X75950Y4826D01*
X72325Y483D02*
X75950Y4108D01*
X65129Y4766D02*
X69412Y483D01*
X73762D02*
X75950Y2671D01*
X73043Y483D02*
X75950Y3389D01*
X52209Y483D02*
X61221Y9494D01*
X59393Y483D02*
X62814Y3903D01*
X56519Y483D02*
X60107Y4070D01*
X65103Y4073D02*
X68694Y483D01*
X62396Y3906D02*
X65820Y483D01*
X60049Y4099D02*
X63665Y483D01*
X50772D02*
X59784Y9494D01*
X51061D02*
X60073Y483D01*
X50342Y9494D02*
X59354Y483D01*
X51779Y9494D02*
X60791Y483D01*
X51491D02*
X60502Y9494D01*
X62037Y3547D02*
X65102Y483D01*
X60830D02*
X63819Y3471D01*
X60112Y483D02*
X63173Y3544D01*
X64744Y3714D02*
X67975Y483D01*
X64268Y3471D02*
X67257Y483D01*
X63550Y3471D02*
X66538Y483D01*
X58521Y3471D02*
X61509Y483D01*
X58675D02*
X61664Y3471D01*
X57238Y483D02*
X60466Y3711D01*
X59689Y3740D02*
X62946Y483D01*
X59239Y3471D02*
X62228Y483D01*
X49806Y31584D02*
X51760Y29629D01*
X49806Y28971D02*
X51760Y30926D01*
X49806Y29690D02*
X51760Y31644D01*
X49806Y28253D02*
X51760Y30207D01*
X49806Y30147D02*
X51760Y28193D01*
X49806Y30865D02*
X51760Y28911D01*
X48186Y33922D02*
X51760Y30348D01*
X49806Y30408D02*
X51760Y32363D01*
X48176Y31058D02*
X48694Y30540D01*
X47864Y29904D02*
X48694Y30734D01*
X47817Y30699D02*
X48694Y29821D01*
X47353Y30111D02*
X48694Y31452D01*
X49806Y27535D02*
X51760Y29489D01*
X48186Y28893D02*
X48694Y28385D01*
X48186Y28788D02*
X48694Y29297D01*
X49806Y26816D02*
X51760Y28771D01*
X49806Y28710D02*
X51760Y26756D01*
X49806Y29429D02*
X51760Y27474D01*
X47667Y27551D02*
X48694Y28579D01*
X48009Y28351D02*
X48694Y27666D01*
X48186Y29507D02*
X48694Y30015D01*
X47643Y27999D02*
X48694Y26948D01*
X48026Y27192D02*
X48694Y27860D01*
X47658Y30539D02*
X48186Y31067D01*
X46602Y30539D02*
X47658D01*
X46412Y30607D02*
X46473Y30668D01*
X47258Y30539D02*
X48694Y29103D01*
X46908Y30111D02*
X47658D01*
X46771Y30247D02*
X47063Y30539D01*
X46063Y30956D02*
X46341Y30678D01*
X46063Y30956D02*
X46341Y30678D01*
X46042Y30956D02*
X46114Y31027D01*
X46341Y30678D02*
X46908Y30111D01*
X46074Y31067D02*
X46602Y30539D01*
X48186Y28527D02*
Y29583D01*
X47658Y27999D02*
X48186Y28527D01*
X47658Y30111D02*
X48186Y29583D01*
X46958Y27561D02*
X47397Y27999D01*
X47658Y27561D02*
X48186Y27033D01*
X46924Y27999D02*
X47363Y27561D01*
X46074Y28527D02*
X46602Y27999D01*
X47658D01*
X46074Y28527D02*
Y29277D01*
X46602Y27561D02*
X47658D01*
X46074Y27033D02*
X46602Y27561D01*
X49806Y23942D02*
X51760Y25897D01*
X49806Y25836D02*
X51760Y23882D01*
X49806Y26555D02*
X51760Y24601D01*
Y12370D02*
Y46807D01*
X49806Y24400D02*
X51760Y22445D01*
X49806Y25118D02*
X51760Y23164D01*
X49806Y25379D02*
X51760Y27334D01*
X49806Y27273D02*
X51760Y25319D01*
X49806Y27992D02*
X51760Y26037D01*
X46128Y18110D02*
X51760Y23742D01*
X49806Y24661D02*
X51760Y26615D01*
X49401Y23368D02*
X51760Y21008D01*
X49042Y23008D02*
X51760Y20290D01*
X49760Y23727D02*
X51760Y21727D01*
X48323Y22290D02*
X51760Y18853D01*
X47964Y21931D02*
X51760Y18135D01*
X48682Y22649D02*
X51760Y19572D01*
X46316Y16860D02*
X51760Y22305D01*
X47605Y21571D02*
X51760Y17416D01*
X46316Y17579D02*
X51760Y23023D01*
X46595Y21144D02*
X51760Y15979D01*
X47246Y21212D02*
X51760Y16698D01*
X49806Y26098D02*
X51760Y28052D01*
X48186Y26738D02*
X48694Y26229D01*
X48186Y25977D02*
Y27033D01*
X48694Y24328D02*
Y31737D01*
X49806Y24328D02*
Y31737D01*
X48186Y26020D02*
X48694Y25511D01*
X48186Y26633D02*
X48694Y27142D01*
X46074Y25977D02*
X46602Y25449D01*
X46074Y25977D02*
Y27033D01*
X47848Y25639D02*
X48694Y24792D01*
X47658Y25449D02*
X48186Y25977D01*
X49806Y23772D02*
Y24328D01*
Y23772D02*
Y24328D01*
X47319Y25449D02*
X48568Y24201D01*
X49528Y23494D02*
X49806Y23772D01*
X49528Y23494D02*
X49806Y23772D01*
X47456Y21422D02*
X49528Y23494D01*
X46602Y25449D02*
X47658D01*
X46622Y22256D02*
X48694Y24328D01*
X46622Y21144D02*
X47178D01*
X47456Y21422D01*
X47178Y21144D02*
X47456Y21422D01*
X43449Y32193D02*
X44686Y30956D01*
X44167Y32193D02*
X45405Y30956D01*
X41293Y32193D02*
X42531Y30956D01*
X44886Y32193D02*
X46968Y30111D01*
X44606Y30956D02*
X45771Y32121D01*
X40566Y26197D02*
X44213Y29844D01*
X40454Y30956D02*
X45507D01*
X40566Y29071D02*
X41339Y29844D01*
X40462Y29686D02*
X40621Y29844D01*
X40265Y27333D02*
X42776Y29844D01*
X40566Y26916D02*
X43494Y29844D01*
X39774Y27561D02*
X42058Y29844D01*
X45079D02*
X46074Y28849D01*
X44361Y29844D02*
X46645Y27561D01*
X45507Y29844D02*
X46074Y29277D01*
X43642Y29844D02*
X46264Y27223D01*
X42206Y29844D02*
X48208Y23842D01*
X42924Y29844D02*
X46074Y26694D01*
X40304Y29844D02*
X45507D01*
X40566Y25977D02*
Y27033D01*
X40038Y27561D02*
X40566Y27033D01*
X41487Y29844D02*
X47849Y23482D01*
X40038Y25449D02*
X40566Y25977D01*
X40454Y30956D02*
X40566Y31067D01*
X40304Y29844D02*
X40566Y29583D01*
X38454D02*
X38716Y29844D01*
X40566Y28527D02*
Y29583D01*
X38454Y28567D02*
X39022Y27999D01*
X38454Y28527D02*
Y29583D01*
X38140Y30956D02*
X38454Y31270D01*
X37378Y30956D02*
X38566D01*
X37421D02*
X38454Y31989D01*
X37378Y29844D02*
X38716D01*
X37895D02*
X38454Y29285D01*
X40038Y27999D02*
X40566Y28527D01*
X38982Y27561D02*
X40038D01*
X38982Y27999D02*
X40038D01*
X39055Y27561D02*
X39494Y27999D01*
X38982Y25449D02*
X40038D01*
X39022Y27999D02*
X39460Y27561D01*
X38454Y27033D02*
X38982Y27561D01*
X38454Y26960D02*
X39055Y27561D01*
X38454Y28527D02*
X38982Y27999D01*
X38454Y25977D02*
X38982Y25449D01*
X38454Y25977D02*
Y27033D01*
X40935Y22256D02*
X46678Y27999D01*
X42371Y22256D02*
X46084Y25968D01*
X41653Y22256D02*
X46074Y26677D01*
X44527Y22256D02*
X48694Y26423D01*
X45245Y22256D02*
X48694Y25705D01*
X43090Y22256D02*
X46443Y25609D01*
X40769Y29844D02*
X47490Y23123D01*
X40566Y29329D02*
X47131Y22764D01*
X40566Y28611D02*
X46771Y22405D01*
X40216Y22256D02*
X46281Y28321D01*
X40248Y28210D02*
X46202Y22256D01*
X45057Y18476D02*
X51760Y25178D01*
X45769Y18469D02*
X51760Y24460D01*
X45964Y22256D02*
X48694Y24986D01*
X45158Y21144D02*
X51760Y14543D01*
X44440Y21144D02*
X51760Y13824D01*
X45877Y21144D02*
X51760Y15261D01*
X43808Y22256D02*
X47002Y25449D01*
X38178Y22256D02*
X46622D01*
X43620Y18476D02*
X46289Y21144D01*
X41579Y11406D02*
X51760Y21586D01*
X43721Y21144D02*
X51760Y13106D01*
X39498Y22256D02*
X46074Y28832D01*
X39740Y27999D02*
X45484Y22256D01*
X39416Y25449D02*
X42610Y22256D01*
X40566Y26455D02*
X44765Y22256D01*
X40446Y25857D02*
X44047Y22256D01*
X40086Y25498D02*
X43329Y22256D01*
X38061D02*
X45578Y29773D01*
X38779Y22256D02*
X45938Y29414D01*
X37622Y22256D02*
X38178D01*
X37344Y21978D02*
X37622Y22256D01*
X37344Y21978D02*
X37622Y22256D01*
X42183Y18476D02*
X44852Y21144D01*
X42285D02*
X44953Y18476D01*
X40848Y21144D02*
X43516Y18476D01*
X42902D02*
X45571Y21144D01*
X43003D02*
X45672Y18476D01*
X41074Y18084D02*
X44134Y21144D01*
X40028Y18476D02*
X42697Y21144D01*
X40129D02*
X42798Y18476D01*
X37622Y22256D02*
X38178D01*
X40715Y18444D02*
X43415Y21144D01*
X38692D02*
X41564Y18272D01*
X46316Y17113D02*
X52023Y11406D01*
X47327D02*
X51760Y15839D01*
X46608Y11406D02*
X51760Y16557D01*
X53214Y12370D02*
X54179Y11406D01*
X53792D02*
X54757Y12370D01*
X51637Y11406D02*
X52602Y12370D01*
X43016Y11406D02*
X51760Y20149D01*
X43735Y11406D02*
X51760Y19431D01*
X46316Y17832D02*
X51760Y12387D01*
X45171Y11406D02*
X51760Y17994D01*
X45890Y11406D02*
X51760Y17276D01*
X44453Y11406D02*
X51760Y18713D01*
X56088Y12370D02*
X57052Y11406D01*
X56666D02*
X57631Y12370D01*
X55948Y11406D02*
X56912Y12370D01*
X57385Y11406D02*
X58349Y12370D01*
X57525D02*
X58489Y11406D01*
X56806Y12370D02*
X57771Y11406D01*
X54511D02*
X55475Y12370D01*
X54651D02*
X55615Y11406D01*
X53933Y12370D02*
X54897Y11406D01*
X55369Y12370D02*
X56334Y11406D01*
X55229D02*
X56194Y12370D01*
X46622Y21144D02*
X47178D01*
X45763Y18476D02*
X46316Y17923D01*
X44657Y18476D02*
X45763D01*
X45672D02*
X46316Y17832D01*
Y16817D02*
Y17923D01*
X44104Y16817D02*
Y17923D01*
X43776Y17912D02*
X47008Y21144D01*
X44104Y17923D02*
X44657Y18476D01*
X43776Y18216D02*
X44104Y17888D01*
X43776Y17194D02*
X44104Y17523D01*
X43776Y16264D02*
Y18476D01*
X45720Y16264D02*
X46316Y16860D01*
X45763Y16264D02*
X46316Y16817D01*
X44657Y16264D02*
X45763D01*
X46104Y16606D02*
X51305Y11406D01*
X45728Y16264D02*
X50586Y11406D01*
X45009Y16264D02*
X49868Y11406D01*
X44104Y16817D02*
X44657Y16264D01*
X43776Y16476D02*
X44111Y16811D01*
X43776Y17498D02*
X44104Y17169D01*
X43776Y16780D02*
X49150Y11406D01*
X43572Y16264D02*
X48431Y11406D01*
X54653Y9494D02*
X58165Y5982D01*
X55371Y9494D02*
X58883Y5983D01*
X53935Y9494D02*
X57806Y5623D01*
X52498Y9494D02*
X57538Y4454D01*
X49624Y9494D02*
X58636Y483D01*
X53216Y9494D02*
X57538Y5173D01*
X48187Y9494D02*
X57199Y483D01*
X48617D02*
X57629Y9494D01*
X47898Y483D02*
X56910Y9494D01*
X49335Y483D02*
X58347Y9494D01*
X48906D02*
X57917Y483D01*
X57538Y5355D02*
X58166Y5983D01*
X57538Y4099D02*
X58166Y3471D01*
X57538Y4099D02*
Y5355D01*
X53646Y483D02*
X57538Y4375D01*
X54364Y483D02*
X57759Y3878D01*
X52927Y483D02*
X57538Y5093D01*
X55801Y483D02*
X58790Y3471D01*
X55083Y483D02*
X58119Y3519D01*
X50919Y11406D02*
X51883Y12370D01*
X51777D02*
X52742Y11406D01*
X50200D02*
X51760Y12965D01*
X52496Y12370D02*
X53460Y11406D01*
X53074D02*
X54038Y12370D01*
X52356Y11406D02*
X53320Y12370D01*
X48764Y11406D02*
X51760Y14402D01*
X49482Y11406D02*
X51760Y13684D01*
X48045Y11406D02*
X51760Y15121D01*
X43588Y483D02*
X52600Y9494D01*
X43158D02*
X52170Y483D01*
X46032Y9494D02*
X55044Y483D01*
X46462D02*
X55473Y9494D01*
X45743Y483D02*
X54755Y9494D01*
X47180Y483D02*
X56192Y9494D01*
X47469D02*
X56481Y483D01*
X46750Y9494D02*
X55762Y483D01*
X44306D02*
X53318Y9494D01*
X44595D02*
X53607Y483D01*
X43877Y9494D02*
X52888Y483D01*
X45313Y9494D02*
X54325Y483D01*
X45025D02*
X54037Y9494D01*
X41566Y21144D02*
X44446Y18264D01*
X42298Y11406D02*
X51760Y20868D01*
X38178Y21144D02*
X46622D01*
X39424Y11406D02*
X44470Y16452D01*
X41564Y18476D02*
X43776D01*
X41050Y16632D02*
X46276Y11406D01*
X40691Y16272D02*
X45558Y11406D01*
X42136Y16264D02*
X46994Y11406D01*
X42854Y16264D02*
X47713Y11406D01*
X41564Y16264D02*
X43776D01*
X42114Y8348D02*
X43260Y9494D01*
X42473Y7989D02*
X43979Y9494D01*
X41403Y8356D02*
X42542Y9494D01*
X38706Y11406D02*
X43564Y16264D01*
X39980D02*
X44839Y11406D01*
X37987D02*
X42846Y16264D01*
X40861Y11406D02*
X45720Y16264D01*
X40142Y11406D02*
X45001Y16264D01*
X39411Y21144D02*
X42080Y18476D01*
X40683D02*
X41236Y17923D01*
X39577Y18476D02*
X40683D01*
X41564Y16264D02*
Y18476D01*
X41236Y16817D02*
Y17923D01*
X40643Y18476D02*
X41236Y17883D01*
X38076Y21042D02*
X40643Y18476D01*
X37717Y20683D02*
X39924Y18476D01*
X37357Y20324D02*
X39392Y18290D01*
X39024Y17923D02*
X39577Y18476D01*
X39024Y16817D02*
Y17923D01*
X41236Y17528D02*
X41564Y17857D01*
X41236Y17164D02*
X41564Y16836D01*
X41236Y17883D02*
X41564Y17554D01*
X40285Y9494D02*
X41423Y8356D01*
X41001D02*
X42107D01*
X40683Y16264D02*
X41236Y16817D01*
X39577Y16264D02*
X40683D01*
X37269Y11406D02*
X42128Y16264D01*
X39024Y16817D02*
X39577Y16264D01*
X39566Y9494D02*
X40853Y8207D01*
X38848Y9494D02*
X40494Y7848D01*
X42660Y6739D02*
X45415Y9494D01*
X41932Y3856D02*
X47571Y9494D01*
X42660Y7457D02*
X44697Y9494D01*
X42660Y3146D02*
X49008Y9494D01*
X42660Y2428D02*
X49726Y9494D01*
X42379Y3584D02*
X48289Y9494D01*
X41214Y3856D02*
X46852Y9494D01*
X41003D02*
X50015Y483D01*
X37411Y9494D02*
X46423Y483D01*
X41721Y9494D02*
X50733Y483D01*
X41433D02*
X50444Y9494D01*
X42440D02*
X51452Y483D01*
X42511Y6549D02*
X48578Y483D01*
X42606Y2144D02*
X44267Y483D01*
X42869D02*
X51881Y9494D01*
X42660Y7119D02*
X49296Y483D01*
X42660Y2809D02*
X44986Y483D01*
X42151D02*
X51163Y9494D01*
X41479Y6144D02*
X47141Y483D01*
X41669Y1644D02*
X42831Y483D01*
X42152Y6190D02*
X47859Y483D01*
X42247Y1785D02*
X43549Y483D01*
X42107Y8356D02*
X42660Y7803D01*
Y6697D02*
Y7803D01*
X41001Y6144D02*
X42107D01*
X42065D02*
X42660Y6739D01*
X42107Y6144D02*
X42660Y6697D01*
X41001Y3856D02*
X42107D01*
X40448Y7803D02*
X41001Y8356D01*
X40448Y6697D02*
Y7803D01*
X38129Y9494D02*
X40448Y7175D01*
Y3303D02*
X41001Y3856D01*
X40448Y6697D02*
X41001Y6144D01*
X42107Y3856D02*
X42660Y3303D01*
Y2197D02*
Y3303D01*
X40448Y2197D02*
X41001Y1644D01*
X42107D02*
X42660Y2197D01*
X41001Y1644D02*
X42107D01*
X40714Y483D02*
X41876Y1644D01*
X37840Y483D02*
X40448Y3091D01*
X38559Y483D02*
X40448Y2372D01*
Y2197D02*
Y3303D01*
X39996Y483D02*
X41158Y1644D01*
X39277Y483D02*
X40720Y1925D01*
X35798Y70017D02*
X38246Y67570D01*
X36517Y70017D02*
X38964Y67570D01*
X35080Y70017D02*
X37527Y67570D01*
X33643Y70017D02*
X37160Y66500D01*
X32925Y70017D02*
X37160Y65782D01*
X34361Y70017D02*
X37160Y67219D01*
X30051Y70017D02*
X37160Y62908D01*
X29332Y70017D02*
X37160Y62190D01*
X30769Y70017D02*
X37160Y63627D01*
X27896Y70017D02*
X37160Y60753D01*
X27177Y70017D02*
X37160Y60035D01*
X28614Y70017D02*
X37160Y61471D01*
Y67570D02*
X88800D01*
X29806Y63797D02*
X37160Y56443D01*
X29806Y64515D02*
X37160Y57161D01*
X29271Y62894D02*
X37160Y55006D01*
X31909Y54180D02*
X37160Y59431D01*
X29806Y63079D02*
X37160Y55724D01*
X26880Y54180D02*
X37160Y64460D01*
X27598Y54180D02*
X37160Y63742D01*
X28553Y62894D02*
X37160Y54287D01*
X29035Y54180D02*
X37160Y62305D01*
X28317Y54180D02*
X37160Y63023D01*
X29806Y65008D02*
X34815Y70017D01*
X32206D02*
X37160Y65064D01*
X29185Y65106D02*
X34096Y70017D01*
X29806Y63571D02*
X36252Y70017D01*
X31488D02*
X37160Y64345D01*
X29806Y64290D02*
X35533Y70017D01*
X27748Y65106D02*
X32660Y70017D01*
X28466Y65106D02*
X33378Y70017D01*
X27594Y65106D02*
X29806D01*
X27594Y64952D02*
X27748Y65106D01*
X27594Y62894D02*
Y65106D01*
X29806Y62894D02*
Y65106D01*
X27594Y62894D02*
X29806D01*
X27266Y63905D02*
X27594Y64234D01*
X27266Y64182D02*
X27594Y63853D01*
X27230Y64588D02*
X27594Y64952D01*
X27266Y63463D02*
X27594Y63135D01*
X27266Y63447D02*
Y64553D01*
X37160Y51750D02*
X51084D01*
X34880Y49406D02*
X45172D01*
X35037D02*
X37382Y51750D01*
X36474Y49406D02*
X38818Y51750D01*
X37192Y49406D02*
X39537Y51750D01*
X35756Y49406D02*
X38100Y51750D01*
X34880Y53694D02*
X39168Y49406D01*
X34880Y49967D02*
X37160Y52247D01*
X34880Y50685D02*
X37160Y52965D01*
X34880Y52975D02*
X38450Y49406D01*
X34880Y52257D02*
X37731Y49406D01*
X36687Y48294D02*
X39631Y45351D01*
X34880Y48294D02*
X45172D01*
X35969D02*
X38947Y45316D01*
X34880Y42064D02*
X41110Y48294D01*
X34880Y41346D02*
X41829Y48294D01*
X35250D02*
X38588Y44957D01*
X34880Y44938D02*
X38236Y48294D01*
X34880Y44219D02*
X38955Y48294D01*
X34880Y45656D02*
X37518Y48294D01*
X34880Y42783D02*
X40392Y48294D01*
X34880Y43501D02*
X39673Y48294D01*
X33346Y54180D02*
X37160Y57994D01*
X34064Y54180D02*
X37160Y57276D01*
X32627Y54180D02*
X37160Y58713D01*
Y51750D02*
Y67570D01*
X34880Y53559D02*
X37160Y55839D01*
X34783Y54180D02*
X37160Y56557D01*
X30472Y54180D02*
X37160Y60868D01*
X31191Y54180D02*
X37160Y60149D01*
X29754Y54180D02*
X37160Y61586D01*
X26914Y63096D02*
X37160Y52851D01*
X27835Y62894D02*
X37160Y53569D01*
X34880Y50820D02*
X36294Y49406D01*
X34880Y50102D02*
X35576Y49406D01*
X34880Y47812D02*
X35363Y48294D01*
X34880Y47093D02*
X36081Y48294D01*
X34880Y46375D02*
X36800Y48294D01*
X34880Y35180D02*
Y48294D01*
Y52122D02*
X37160Y54402D01*
X34880Y51404D02*
X37160Y53684D01*
X34880Y52841D02*
X37160Y55121D01*
X34880Y51538D02*
X37013Y49406D01*
X34880D02*
Y54180D01*
X23437Y65106D02*
X28349Y70017D01*
X23585D02*
X28497Y65106D01*
X22867Y70017D02*
X27779Y65106D01*
X24156D02*
X29067Y70017D01*
X24304D02*
X29215Y65106D01*
X22176Y64563D02*
X27631Y70017D01*
X20712D02*
X25623Y65106D01*
X21282D02*
X26194Y70017D01*
X20563Y65106D02*
X25475Y70017D01*
X21817Y64922D02*
X26912Y70017D01*
X22148D02*
X27594Y64571D01*
X21430Y70017D02*
X26342Y65106D01*
X26311D02*
X31223Y70017D01*
X26871Y64947D02*
X31941Y70017D01*
X25607Y65106D02*
X26713D01*
X27266Y64553D01*
X25607Y62894D02*
X26713D01*
X25054Y63447D02*
X25607Y62894D01*
X24523Y64755D02*
X29786Y70017D01*
X483D02*
X96517D01*
X25054Y64553D02*
X25607Y65106D01*
X24726Y64239D02*
X30504Y70017D01*
X25054Y63519D02*
X25679Y62894D01*
X19993Y70017D02*
X25256Y64754D01*
X23067Y65106D02*
X24173D01*
X19110Y65089D02*
X24038Y70017D01*
X19469Y64729D02*
X24757Y70017D01*
X19275D02*
X25054Y64238D01*
X22514Y64553D02*
X23067Y65106D01*
X18408D02*
X23320Y70017D01*
X18556D02*
X23468Y65106D01*
X17838Y70017D02*
X22908Y64947D01*
X17106Y64521D02*
X22602Y70017D01*
X17119D02*
X22549Y64588D01*
X24726Y63520D02*
X25054Y63849D01*
X24726Y63848D02*
X25054Y63519D01*
X24173Y65106D02*
X24726Y64553D01*
X25054Y63447D02*
Y64553D01*
X24173Y62894D02*
X24726Y63447D01*
Y64553D01*
X22514Y63447D02*
Y64553D01*
X22186Y63854D02*
X22514Y64183D01*
X22186Y64233D02*
X22514Y63904D01*
X24100Y62894D02*
X24726Y63520D01*
X23067Y62894D02*
X24173D01*
X25740Y70017D02*
X37160Y58598D01*
X25022Y70017D02*
X37160Y57879D01*
X26459Y70017D02*
X37160Y59316D01*
X25443Y54180D02*
X37160Y65897D01*
X26162Y54180D02*
X37160Y65178D01*
X24725Y54180D02*
X37160Y66615D01*
X22569Y54180D02*
X38407Y70017D01*
X23288Y54180D02*
X39125Y70017D01*
X24006Y54180D02*
X37160Y67334D01*
X20000Y52329D02*
X37688Y70017D01*
X20000Y53047D02*
X36970Y70017D01*
X24208Y62929D02*
X32957Y54180D01*
X22280D02*
X34880D01*
X23524Y62894D02*
X32238Y54180D01*
X25679Y62894D02*
X34394Y54180D01*
X26398Y62894D02*
X37160Y52132D01*
X24567Y63288D02*
X33675Y54180D01*
X21860Y63122D02*
X30802Y54180D01*
X21369Y62894D02*
X30083Y54180D01*
X20650Y62894D02*
X29365Y54180D01*
X22186Y63514D02*
X31520Y54180D01*
X20000Y53766D02*
X29129Y62894D01*
X26713D02*
X27266Y63447D01*
X16806Y63147D02*
X25773Y54180D01*
X22514Y63447D02*
X23067Y62894D01*
X18259Y54180D02*
X27594Y63515D01*
X19512Y63314D02*
X28646Y54180D01*
X17106Y63565D02*
X26491Y54180D01*
X7062Y70017D02*
X22899Y54180D01*
X7780Y70017D02*
X23617Y54180D01*
X13230D02*
X22514Y63464D01*
X16104Y54180D02*
X25213Y63289D01*
X13948Y54180D02*
X22865Y63097D01*
X18495Y62894D02*
X27209Y54180D01*
X18977D02*
X27692Y62894D01*
X17541Y54180D02*
X26255Y62894D01*
X19153Y62955D02*
X27928Y54180D01*
X19696D02*
X28410Y62894D01*
X21456Y47372D02*
X22280Y48197D01*
X15385Y54180D02*
X24100Y62894D01*
X15621D02*
X24336Y54180D01*
X14667D02*
X23381Y62894D01*
X16822Y54180D02*
X25572Y62930D01*
X16340Y62894D02*
X25054Y54180D01*
X34880Y39191D02*
X38956Y43266D01*
X34880Y42199D02*
X39348Y37731D01*
X34880Y41481D02*
X38806Y37554D01*
X34880Y37035D02*
X38763Y40918D01*
X34880Y36317D02*
X39263Y40699D01*
X34880Y40044D02*
X38454Y36469D01*
X34880Y47228D02*
X39297Y42811D01*
X34880Y46509D02*
X38781Y42609D01*
X34880Y47946D02*
X38454Y44372D01*
X34880Y44354D02*
X38973Y40261D01*
X34880Y43636D02*
X38614Y39902D01*
X34880Y39909D02*
X38596Y43625D01*
X34880Y38607D02*
X38639Y34848D01*
X34880Y37170D02*
X38745Y33305D01*
X34880Y37888D02*
X38454Y34314D01*
X36178Y33305D02*
X38738Y35864D01*
X36897Y33305D02*
X39211Y35619D01*
X35460Y33305D02*
X38454Y36299D01*
X34880Y39325D02*
X39015Y35191D01*
X33305Y33305D02*
X38571Y38571D01*
X33305Y33305D02*
X38571Y38571D01*
X34023Y33305D02*
X38930Y38212D01*
X34741Y33305D02*
X38454Y37018D01*
X34880Y37754D02*
X38454Y41328D01*
X34880Y40762D02*
X38454Y37188D01*
X34880Y38472D02*
X38454Y42047D01*
X34880Y35598D02*
X38454Y39173D01*
X34880Y36452D02*
X38027Y33305D01*
X34880Y35733D02*
X37309Y33305D01*
X34880Y45073D02*
X38454Y41498D01*
X34880Y40627D02*
X38454Y44202D01*
X34880Y45791D02*
X38454Y42217D01*
X34880Y42917D02*
X38454Y39343D01*
X31123Y35180D02*
X32998Y33305D01*
X33278Y35180D02*
X35153Y33305D01*
X33996Y35180D02*
X35872Y33305D01*
X32586D02*
X34462Y35180D01*
X34715D02*
X36590Y33305D01*
X34829Y31956D02*
X35067Y32193D01*
X34828D02*
X35065Y31956D01*
X31841Y35180D02*
X33716Y33305D01*
X31868D02*
X33743Y35180D01*
X31149Y33305D02*
X33025Y35180D01*
X32559D02*
X34435Y33305D01*
X30519Y31956D02*
X30757Y32193D01*
X36681Y31652D02*
X37222Y32193D01*
X36378Y31956D02*
X36656Y31678D01*
X36378Y31956D02*
X36656Y31678D01*
X37040Y31293D02*
X37941Y32193D01*
X36983D02*
X38221Y30956D01*
X36656Y31678D02*
X37378Y30956D01*
X36264Y32193D02*
X37502Y30956D01*
X35458Y30844D02*
X38862Y27441D01*
X35822Y30844D02*
X36544Y30122D01*
X34740Y30844D02*
X38503Y27081D01*
X34021Y30844D02*
X38454Y26411D01*
X36544Y30122D02*
X36822Y29844D01*
X37378D01*
X36544Y30122D02*
X36822Y29844D01*
X37177D02*
X38454Y28567D01*
X33580Y23522D02*
X38520Y28462D01*
X36822Y29844D02*
X37378D01*
X33580Y26396D02*
X37029Y29844D01*
X33580Y25677D02*
X37747Y29844D01*
X33580Y27114D02*
X36566Y30100D01*
X33580Y24959D02*
X38465Y29844D01*
X33580Y24241D02*
X38454Y29115D01*
X32674Y31956D02*
X32912Y32193D01*
X33391D02*
X33629Y31956D01*
X32672Y32193D02*
X32910Y31956D01*
X34109Y32193D02*
X34347Y31956D01*
X34111D02*
X34349Y32193D01*
X33392Y31956D02*
X33630Y32193D01*
X31237Y31956D02*
X31475Y32193D01*
X31954D02*
X32192Y31956D01*
X31236Y32193D02*
X31473Y31956D01*
X31956D02*
X32193Y32193D01*
X31956Y31956D02*
X32193Y32193D01*
X35548Y31956D02*
X35786Y32193D01*
X35822Y31956D02*
X36378D01*
X35546Y32193D02*
X35784Y31956D01*
X36266D02*
X36504Y32193D01*
X35822Y31956D02*
X36378D01*
X33580Y27833D02*
X36207Y30460D01*
X33580Y29988D02*
X34437Y30844D01*
X33580D02*
X35822D01*
X33580Y30706D02*
X33718Y30844D01*
X33580Y28551D02*
X35848Y30819D01*
X33580Y29269D02*
X35155Y30844D01*
X28994Y33305D02*
X30869Y35180D01*
X29686D02*
X31561Y33305D01*
X28967Y35180D02*
X30843Y33305D01*
X30404Y35180D02*
X32280Y33305D01*
X30431D02*
X32306Y35180D01*
X29712Y33305D02*
X31588Y35180D01*
X27531D02*
X29406Y33305D01*
X22280Y35180D02*
X34880D01*
X28171Y33305D02*
X28727D01*
X28249Y35180D02*
X30124Y33305D01*
X28276D02*
X30151Y35180D01*
X28171Y33305D02*
X28727D01*
X29082Y31956D02*
X29320Y32193D01*
X29378Y31956D02*
X35822D01*
X29080Y32193D02*
X29318Y31956D01*
X29800D02*
X30038Y32193D01*
X30517D02*
X30755Y31956D01*
X29799Y32193D02*
X30036Y31956D01*
X28727Y33305D02*
X38757D01*
X28727Y32193D02*
X38525D01*
X28822Y31956D02*
X29378D01*
X28822D02*
X29378D01*
X28544Y31678D02*
X28822Y31956D01*
X21456Y37261D02*
X22280Y38085D01*
X21456Y37663D02*
X22280Y36838D01*
X21989Y47906D02*
X22280Y47615D01*
X21456Y33669D02*
X22967Y35180D01*
X21456Y32950D02*
X23685Y35180D01*
X21456Y36542D02*
X22280Y37367D01*
X21456Y45565D02*
X22280Y44741D01*
X21456Y44847D02*
X22280Y44023D01*
X21456Y47319D02*
X22280Y48143D01*
X21456Y38381D02*
X22280Y37557D01*
X21456Y37979D02*
X22280Y38804D01*
X26812Y35180D02*
X28687Y33305D01*
X27893Y33027D02*
X28171Y33305D01*
X26094Y35180D02*
X28070Y33204D01*
X27893Y33027D02*
X28171Y33305D01*
X28544Y32011D02*
X28711Y31844D01*
X25375Y35180D02*
X27711Y32844D01*
X23938Y35180D02*
X26993Y32126D01*
X24657Y35180D02*
X27352Y32485D01*
X21456Y32232D02*
X24404Y35180D01*
X23220D02*
X26633Y31767D01*
X21638Y31696D02*
X25122Y35180D01*
X23617Y31520D02*
X27277Y35180D01*
X24336Y31520D02*
X27996Y35180D01*
X22502D02*
X26162Y31520D01*
X25054D02*
X28714Y35180D01*
X25773Y31520D02*
X29433Y35180D01*
X26387Y31520D02*
X27893Y33027D01*
X21456Y35508D02*
X25443Y31520D01*
X21456Y34789D02*
X24725Y31520D01*
X21456Y34071D02*
X24006Y31520D01*
X22356Y30977D02*
X26559Y35180D01*
X21997Y31336D02*
X25841Y35180D01*
X28053Y31520D02*
X28727Y32193D01*
X28544Y31678D02*
X28822Y31956D01*
X23580Y31520D02*
X26387D01*
X28387D02*
X28544Y31678D01*
X28053Y31520D02*
X28387D01*
X28185Y31652D02*
X28317Y31520D01*
X23521Y30706D02*
X23580Y30764D01*
X22628Y29594D02*
X23580D01*
X22803Y30706D02*
X23580Y31483D01*
X20000Y28342D02*
X23580Y24762D01*
X23058Y29594D02*
X23580Y29073D01*
X21456Y32634D02*
X23384Y30706D01*
X21456Y31915D02*
X22665Y30706D01*
X21456Y31878D02*
X22628Y30706D01*
X23580D02*
Y31520D01*
X22628Y30706D02*
X23580D01*
X22072Y29594D02*
X22628D01*
X21456Y33352D02*
X23580Y31228D01*
X20000Y31216D02*
X23580Y27636D01*
X20000Y27184D02*
X22410Y29594D01*
X20000Y29779D02*
X23580Y26199D01*
X20000Y30497D02*
X23580Y26917D01*
X22340Y29594D02*
X23580Y28354D01*
X20000Y27624D02*
X23580Y24044D01*
X22072Y29594D02*
X22628D01*
X20000Y26905D02*
X23580Y23325D01*
X20000Y22874D02*
X23580Y26454D01*
X20000Y23592D02*
X23580Y27172D01*
X20000Y25747D02*
X23580Y29327D01*
X20000Y29060D02*
X23580Y25480D01*
X20000Y26466D02*
X23129Y29594D01*
X20000Y24311D02*
X23580Y27891D01*
X20000Y25029D02*
X23580Y28609D01*
X16253Y65106D02*
X21165Y70017D01*
X16401D02*
X21313Y65106D01*
X15683Y70017D02*
X20594Y65106D01*
X16762Y64896D02*
X21883Y70017D01*
X17987Y65106D02*
X19093D01*
X17434Y64553D02*
X17987Y65106D01*
X13527Y70017D02*
X18439Y65106D01*
X15535D02*
X20446Y70017D01*
X12809D02*
X17854Y64972D01*
X14246Y70017D02*
X19974Y64289D01*
X14964Y70017D02*
X20202Y64780D01*
X12090Y70017D02*
X17495Y64613D01*
X20527Y65106D02*
X21633D01*
X22186Y64553D01*
X19974D02*
X20527Y65106D01*
X19974Y64517D02*
X20563Y65106D01*
X19646Y63469D02*
X19974Y63798D01*
X19646Y63899D02*
X19974Y63570D01*
X19093Y65106D02*
X19646Y64553D01*
Y64188D02*
X19974Y64517D01*
X17106Y64284D02*
X17434Y63955D01*
Y63447D02*
Y64553D01*
X17106Y63803D02*
X17434Y64132D01*
X7856Y66766D02*
X11107Y70017D01*
X7856Y66048D02*
X11825Y70017D01*
X7856Y67485D02*
X10388Y70017D01*
X7856Y64611D02*
X13262Y70017D01*
X9217D02*
X14894Y64340D01*
X7856Y65329D02*
X12544Y70017D01*
X6515Y69018D02*
X7515Y70017D01*
X6875Y68659D02*
X8233Y70017D01*
X6135Y69356D02*
X6796Y70017D01*
X7593Y67940D02*
X9670Y70017D01*
X7234Y68300D02*
X8952Y70017D01*
X11372D02*
X16284Y65106D01*
X15447D02*
X16553D01*
X14894Y64553D02*
X15447Y65106D01*
X16553D02*
X17106Y64553D01*
Y63447D02*
Y64553D01*
X14894Y64465D02*
X15535Y65106D01*
X9935Y70017D02*
X15147Y64806D01*
X10654Y70017D02*
X15565Y65106D01*
X6178Y69356D02*
X7856Y67678D01*
X8498Y70017D02*
X14894Y63621D01*
X7856Y64322D02*
Y67678D01*
X19974Y63447D02*
Y64553D01*
X22186Y63447D02*
Y64553D01*
X19646Y63447D02*
Y64553D01*
X21633Y62894D02*
X22186Y63447D01*
X12512Y54180D02*
X21226Y62894D01*
X19974Y63447D02*
X20527Y62894D01*
X6343Y70017D02*
X22280Y54081D01*
X11793Y54180D02*
X20517Y62904D01*
X11075Y54180D02*
X20158Y63263D01*
X7856Y66350D02*
X22280Y51925D01*
X7856Y67068D02*
X22280Y52644D01*
X20000Y52050D02*
X22280Y49770D01*
X20000Y49455D02*
X22280Y51735D01*
X20527Y62894D02*
X21633D01*
X22280Y49406D02*
Y54180D01*
X20000Y48737D02*
X22280Y51017D01*
X20000Y51332D02*
X21926Y49406D01*
X20000Y53487D02*
X22280Y51207D01*
X20000Y50892D02*
X22280Y53172D01*
X20000Y51611D02*
X22280Y53891D01*
X20000Y50174D02*
X22280Y52454D01*
X20000Y52768D02*
X22280Y50488D01*
X14894Y63447D02*
X15447Y62894D01*
X16553D02*
X17106Y63447D01*
X14894D02*
Y64553D01*
X7856Y64913D02*
X18588Y54180D01*
X19071Y62894D02*
X19646Y63469D01*
X17434Y63447D02*
X17987Y62894D01*
X7432Y63899D02*
X17152Y54180D01*
X7073Y63540D02*
X16433Y54180D01*
X6178Y62644D02*
X7856Y64322D01*
Y65631D02*
X19307Y54180D01*
X7792Y64258D02*
X17870Y54180D01*
X19093Y62894D02*
X19646Y63447D01*
X17987Y62894D02*
X19093D01*
X15447D02*
X16553D01*
X9638Y54180D02*
X18352Y62894D01*
X10356Y54180D02*
X19071Y62894D01*
X8919Y54180D02*
X17811Y63071D01*
X6714Y63181D02*
X15715Y54180D01*
X6764D02*
X15479Y62894D01*
X6355Y62821D02*
X14996Y54180D01*
X8201D02*
X17451Y63430D01*
X7483Y54180D02*
X16197Y62894D01*
X3979Y69356D02*
X4641Y70017D01*
X4188D02*
X4850Y69356D01*
X3469Y70017D02*
X4131Y69356D01*
X4906Y70017D02*
X5568Y69356D01*
X5416D02*
X6078Y70017D01*
X4698Y69356D02*
X5359Y70017D01*
X3261Y69356D02*
X3923Y70017D01*
X2822Y69356D02*
X6178D01*
X2751Y70017D02*
X3413Y69356D01*
X483Y67296D02*
X3204Y70017D01*
X1144Y67678D02*
X2822Y69356D01*
X2033Y70017D02*
X2758Y69292D01*
X2822Y62644D02*
X6178D01*
X1144Y64322D02*
X2822Y62644D01*
X483Y60112D02*
X3015Y62644D01*
X483Y59393D02*
X3734Y62644D01*
X1144Y64440D02*
X2940Y62644D01*
X483Y57956D02*
X5171Y62644D01*
X483Y58675D02*
X4452Y62644D01*
X596Y70017D02*
X2040Y68573D01*
X1314Y70017D02*
X2399Y68932D01*
X483Y67975D02*
X1144Y67313D01*
Y64322D02*
Y67678D01*
X483Y66577D02*
X1144Y67239D01*
X483Y67257D02*
X1144Y66595D01*
X483Y68733D02*
X1767Y70017D01*
X483Y69412D02*
X1681Y68214D01*
X483Y69451D02*
X1049Y70017D01*
X483Y68014D02*
X2486Y70017D01*
X483Y68694D02*
X1321Y67855D01*
X483Y63704D02*
X1144Y64365D01*
X483Y62985D02*
X1482Y63985D01*
X483Y64422D02*
X1144Y65084D01*
X483Y61548D02*
X2200Y63266D01*
X483Y60830D02*
X2560Y62907D01*
X483Y62267D02*
X1841Y63625D01*
X483Y65859D02*
X1144Y66521D01*
X483Y65820D02*
X1144Y65158D01*
X483Y66538D02*
X1144Y65877D01*
X483Y65102D02*
X1144Y64440D01*
X483Y65141D02*
X1144Y65802D01*
X3172Y54180D02*
X19009Y70017D01*
X3891Y54180D02*
X19728Y70017D01*
X2454Y54180D02*
X18291Y70017D01*
X483Y52927D02*
X17573Y70017D01*
X5625D02*
X22280Y53362D01*
X4609Y54180D02*
X14894Y64465D01*
X483Y55801D02*
X14699Y70017D01*
X483Y55083D02*
X15417Y70017D01*
X483Y56519D02*
X13981Y70017D01*
X483Y53646D02*
X16854Y70017D01*
X483Y54364D02*
X16136Y70017D01*
X4377Y62644D02*
X12841Y54180D01*
X5095Y62644D02*
X13559Y54180D01*
X3658Y62644D02*
X12123Y54180D01*
X5327D02*
X14894Y63747D01*
X6046Y54180D02*
X15104Y63238D01*
X5813Y62644D02*
X14278Y54180D01*
X483Y64383D02*
X10686Y54180D01*
X483Y63665D02*
X9967Y54180D01*
X483Y62946D02*
X9249Y54180D01*
X2000D02*
X20000D01*
X2940Y62644D02*
X11404Y54180D01*
X483Y59354D02*
X5657Y54180D01*
X483Y58636D02*
X4938Y54180D01*
X483Y57917D02*
X4220Y54180D01*
X483Y57199D02*
X3502Y54180D01*
X483Y56481D02*
X2783Y54180D01*
X483Y55762D02*
X2065Y54180D01*
X483Y62228D02*
X8531Y54180D01*
X483Y61509D02*
X7812Y54180D01*
X483Y57238D02*
X5889Y62644D01*
X483Y60791D02*
X7094Y54180D01*
X483Y60073D02*
X6375Y54180D01*
X483Y50772D02*
X2000Y52289D01*
X483Y52170D02*
X2000Y50653D01*
X483Y52888D02*
X2000Y51371D01*
X483Y51452D02*
X2000Y49934D01*
X483Y49335D02*
X2000Y50853D01*
X483Y50054D02*
X2000Y51571D01*
X483Y54325D02*
X2000Y52808D01*
X483Y52209D02*
X2000Y53726D01*
X483Y55044D02*
X2000Y53526D01*
X483Y51491D02*
X2000Y53008D01*
X483Y53607D02*
X2000Y52089D01*
X22106Y49406D02*
X22280Y49580D01*
X21822Y49406D02*
X22280D01*
X21822D02*
X22280D01*
X21544Y49128D02*
X21822Y49406D01*
X21630Y47546D02*
X22280Y46896D01*
X21544Y49128D02*
X21822Y49406D01*
X20622Y48206D02*
X21544Y49128D01*
X21456Y46600D02*
X22280Y47425D01*
X20344Y47928D02*
X20622Y48206D01*
X21456Y45882D02*
X22280Y46706D01*
X21456Y46284D02*
X22280Y45459D01*
X21456Y47002D02*
X22280Y46178D01*
X21456Y42290D02*
X22280Y43114D01*
X21456Y42692D02*
X22280Y41867D01*
X21456Y43410D02*
X22280Y42586D01*
X21456Y41973D02*
X22280Y41149D01*
X21456Y40853D02*
X22280Y41677D01*
X21456Y41571D02*
X22280Y42396D01*
X21456Y44445D02*
X22280Y45269D01*
X21456Y43727D02*
X22280Y44551D01*
X21456Y45164D02*
X22280Y45988D01*
X21456Y43008D02*
X22280Y43833D01*
X21456Y44129D02*
X22280Y43304D01*
X20344Y47928D02*
X20622Y48206D01*
X20344Y47372D02*
Y47928D01*
Y47372D02*
Y47928D01*
X20000Y45584D02*
X20344Y45240D01*
X20000Y45145D02*
X20344Y45489D01*
X20000Y45863D02*
X20344Y46208D01*
X20000Y47300D02*
X20344Y47644D01*
X20000Y47021D02*
X20344Y46677D01*
X20000Y47739D02*
X20344Y47395D01*
X20000Y46303D02*
X20344Y45958D01*
X20000Y46582D02*
X20344Y46926D01*
X20000Y42710D02*
X20344Y42366D01*
X20000Y42271D02*
X20344Y42615D01*
X20000Y42989D02*
X20344Y43334D01*
X20000Y41553D02*
X20344Y41897D01*
X20000Y41274D02*
X20344Y40929D01*
X20000Y41992D02*
X20344Y41648D01*
X20000Y44426D02*
X20344Y44771D01*
X20000Y44147D02*
X20344Y43803D01*
X20000Y44866D02*
X20344Y44521D01*
X20000Y43429D02*
X20344Y43085D01*
X20000Y43708D02*
X20344Y44052D01*
X21456Y38698D02*
X22280Y39522D01*
X21456Y39100D02*
X22280Y38275D01*
X21456Y39818D02*
X22280Y38994D01*
Y35180D02*
Y48197D01*
X21456Y35824D02*
X22280Y36648D01*
X21456Y36944D02*
X22280Y36120D01*
X21456Y40135D02*
X22280Y40959D01*
X21456Y40536D02*
X22280Y39712D01*
X21456Y41255D02*
X22280Y40431D01*
X21456Y39416D02*
X22280Y40241D01*
X21456Y31878D02*
Y47372D01*
Y35106D02*
X22280Y35930D01*
X21456Y34387D02*
X22280Y35212D01*
X21456Y36226D02*
X22280Y35402D01*
X21794Y29872D02*
X22072Y29594D01*
X21794Y29872D02*
X22072Y29594D01*
X20622Y31044D02*
X21794Y29872D01*
X20000Y30058D02*
X20804Y30862D01*
X20000Y29339D02*
X21164Y30503D01*
X20344Y31322D02*
X20622Y31044D01*
X20000Y27903D02*
X21882Y29785D01*
X20000Y28621D02*
X21523Y30144D01*
X20000Y36963D02*
X20344Y36619D01*
X20000Y36524D02*
X20344Y36868D01*
X20000Y37682D02*
X20344Y37337D01*
Y31878D02*
Y47372D01*
X20000Y35805D02*
X20344Y36150D01*
X20000Y36245D02*
X20344Y35900D01*
X20000Y40555D02*
X20344Y40211D01*
X20000Y39397D02*
X20344Y39742D01*
X20000Y40834D02*
X20344Y41179D01*
X20000Y38400D02*
X20344Y38056D01*
X20000Y38679D02*
X20344Y39023D01*
Y31322D02*
Y31878D01*
X20000Y31495D02*
X20344Y31839D01*
X20000Y31934D02*
X20344Y31590D01*
Y31322D02*
X20622Y31044D01*
X20000Y30776D02*
X20445Y31221D01*
X20344Y31322D02*
Y31878D01*
X20000Y34089D02*
X20344Y33745D01*
X20000Y33650D02*
X20344Y33994D01*
X20000Y34368D02*
X20344Y34713D01*
X20000Y32213D02*
X20344Y32558D01*
X20000Y32653D02*
X20344Y32308D01*
X20000Y50613D02*
X21515Y49098D01*
X20000Y49895D02*
X21156Y48739D01*
X20000Y49176D02*
X20796Y48380D01*
X20000Y48018D02*
X22280Y50298D01*
X20000Y48458D02*
X20437Y48021D01*
X483Y42831D02*
X2000Y41313D01*
X483Y44267D02*
X2000Y42750D01*
X483Y42151D02*
X2000Y43668D01*
X483Y42869D02*
X2000Y44387D01*
X483Y41433D02*
X2000Y42950D01*
X483Y43549D02*
X2000Y42032D01*
X20000Y39837D02*
X20344Y39492D01*
X20000Y39118D02*
X20344Y38774D01*
X20000Y40116D02*
X20344Y40460D01*
X20000Y37961D02*
X20344Y38305D01*
X20000Y37242D02*
X20344Y37587D01*
X483Y39957D02*
X2000Y38439D01*
X483Y42112D02*
X2000Y40595D01*
X483Y39996D02*
X2000Y41513D01*
X483Y40714D02*
X2000Y42232D01*
X483Y39277D02*
X2000Y40795D01*
X483Y41394D02*
X2000Y39876D01*
X483Y48578D02*
X2000Y47061D01*
X483Y46462D02*
X2000Y47979D01*
X483Y47180D02*
X2000Y48697D01*
X483Y45743D02*
X2000Y47261D01*
X483Y47141D02*
X2000Y45624D01*
X483Y47859D02*
X2000Y46342D01*
X483Y48617D02*
X2000Y50134D01*
X483Y50015D02*
X2000Y48497D01*
X483Y50733D02*
X2000Y49216D01*
X483Y49296D02*
X2000Y47779D01*
X483Y47898D02*
X2000Y49416D01*
X483Y40675D02*
X2000Y39158D01*
X483Y38559D02*
X2000Y40076D01*
X483Y44986D02*
X2000Y43468D01*
X483Y39238D02*
X2000Y37721D01*
X483Y37122D02*
X2000Y38639D01*
X483Y37840D02*
X2000Y39358D01*
X483Y46423D02*
X2000Y44905D01*
X483Y44306D02*
X2000Y45824D01*
X483Y45025D02*
X2000Y46542D01*
X483Y43588D02*
X2000Y45105D01*
X483Y45704D02*
X2000Y44187D01*
X20000Y35087D02*
X20344Y35431D01*
X20000Y34808D02*
X20344Y34463D01*
X20000Y35526D02*
X20344Y35182D01*
X20000Y33371D02*
X20344Y33027D01*
X20000Y32932D02*
X20344Y33276D01*
X483Y30617D02*
X2000Y29100D01*
X483Y32054D02*
X2000Y30537D01*
X483Y29938D02*
X2000Y31455D01*
X483Y30656D02*
X2000Y32174D01*
X483Y29219D02*
X2000Y30737D01*
X483Y31336D02*
X2000Y29818D01*
X483Y26346D02*
X2000Y27863D01*
X483Y27744D02*
X2000Y26226D01*
X483Y28462D02*
X2000Y26945D01*
X483Y27025D02*
X2000Y25508D01*
X483Y24909D02*
X2000Y26426D01*
X483Y25627D02*
X2000Y27145D01*
X483Y29899D02*
X2000Y28382D01*
X483Y27783D02*
X2000Y29300D01*
X483Y28501D02*
X2000Y30018D01*
X483Y27064D02*
X2000Y28582D01*
X483Y29181D02*
X2000Y27663D01*
X483Y36365D02*
X2000Y34847D01*
X483Y34248D02*
X2000Y35766D01*
X483Y34967D02*
X2000Y36484D01*
X483Y33530D02*
X2000Y35047D01*
X483Y34928D02*
X2000Y33410D01*
X483Y35646D02*
X2000Y34129D01*
X483Y36404D02*
X2000Y37921D01*
X483Y37802D02*
X2000Y36284D01*
X483Y38520D02*
X2000Y37003D01*
X483Y37083D02*
X2000Y35566D01*
X483Y35685D02*
X2000Y37203D01*
X483Y26307D02*
X2000Y24789D01*
X483Y24191D02*
X2000Y25708D01*
X483Y32773D02*
X2000Y31255D01*
X483Y23472D02*
X2000Y24989D01*
X483Y24870D02*
X2000Y23353D01*
X483Y25588D02*
X2000Y24071D01*
X483Y34209D02*
X2000Y32692D01*
X483Y32093D02*
X2000Y33611D01*
X483Y32812D02*
X2000Y34329D01*
X483Y31375D02*
X2000Y32892D01*
X483Y33491D02*
X2000Y31974D01*
X36406Y19163D02*
X38387Y21144D01*
X36406Y18445D02*
X39105Y21144D01*
X36406Y19372D02*
X38178Y21144D01*
X36406Y17008D02*
X40542Y21144D01*
X36406Y16290D02*
X41260Y21144D01*
X36406Y17727D02*
X39823Y21144D01*
X33580Y24820D02*
X36883Y21517D01*
X33580Y24102D02*
X36524Y21157D01*
X33580Y23383D02*
X36165Y20798D01*
X33580Y19930D02*
X39099Y25449D01*
X35572Y20206D02*
X37344Y21978D01*
X33580Y22665D02*
X35806Y20439D01*
X36998Y19965D02*
X39032Y17931D01*
X36406Y14135D02*
X39056Y16785D01*
X36639Y19606D02*
X39024Y17220D01*
X36406Y13416D02*
X39416Y16426D01*
X36406Y13072D02*
Y13628D01*
Y13072D02*
Y13628D01*
Y15571D02*
X41979Y21144D01*
X35294Y19928D02*
X35572Y20206D01*
X35294Y19928D02*
X35572Y20206D01*
X36406Y14853D02*
X39024Y17472D01*
X36406Y13628D02*
Y19372D01*
X35294D02*
Y19928D01*
X33580Y19073D02*
X35294Y17358D01*
Y19372D02*
Y19928D01*
Y13628D02*
Y19372D01*
X33580Y18354D02*
X35294Y16640D01*
X33580Y17056D02*
X35294Y18771D01*
X33580Y21946D02*
X35446Y20080D01*
X33580Y20509D02*
X35294Y18795D01*
X33580Y21228D02*
X35294Y19513D01*
X33580Y17775D02*
X35294Y19489D01*
X33580Y19791D02*
X35294Y18077D01*
X33580Y14183D02*
X35294Y15897D01*
X33580Y15481D02*
X35294Y13766D01*
X33580Y16199D02*
X35294Y14485D01*
X33580Y13464D02*
X35294Y15179D01*
X33580Y14762D02*
X35004Y13338D01*
X33580Y14044D02*
X34645Y12979D01*
X33580Y17636D02*
X35294Y15921D01*
X33580Y15619D02*
X35294Y17334D01*
X33580Y16338D02*
X35294Y18052D01*
X33580Y14901D02*
X35294Y16615D01*
X33580Y16917D02*
X35294Y15203D01*
X36406Y16965D02*
X41965Y11406D01*
X36406Y16247D02*
X41247Y11406D01*
X36406Y15529D02*
X40529Y11406D01*
X36550D02*
X41564Y16420D01*
X36406Y14810D02*
X39810Y11406D01*
X36406Y14092D02*
X39092Y11406D01*
X36406Y19121D02*
X44121Y11406D01*
X35832D02*
X41564Y17138D01*
X35113Y11406D02*
X39972Y16264D01*
X36406Y18402D02*
X43402Y11406D01*
X36406Y17684D02*
X42684Y11406D01*
X35466Y3856D02*
X41105Y9494D01*
X35974D02*
X41613Y3856D01*
X36160Y6704D02*
X38950Y9494D01*
X36692D02*
X45704Y483D01*
X37122D02*
X46134Y9494D01*
X35896Y3567D02*
X41823Y9494D01*
X35428Y11406D02*
X65872D01*
X35428Y9494D02*
X65872D01*
X34748Y3856D02*
X40387Y9494D01*
X35342Y9408D02*
X40948Y3802D01*
X34982Y9049D02*
X40589Y3443D01*
X36128Y12794D02*
X36406Y13072D01*
X36128Y12794D02*
X36406Y13072D01*
X33580Y12607D02*
X33927Y12260D01*
X36406Y13373D02*
X38373Y11406D01*
X36197Y12864D02*
X37655Y11406D01*
X34739D02*
X36128Y12794D01*
X33580Y12746D02*
X35294Y14460D01*
X33580Y12027D02*
X35294Y13742D01*
X33580Y13325D02*
X34286Y12619D01*
X33580Y11913D02*
X35294Y13628D01*
X33580Y11913D02*
Y30844D01*
X35838Y12504D02*
X36936Y11406D01*
X35479Y12145D02*
X36218Y11406D01*
X35119Y11786D02*
X35500Y11406D01*
X35990Y7972D02*
X37513Y9494D01*
X36160Y7423D02*
X38231Y9494D01*
X35631Y8331D02*
X36794Y9494D01*
X34739Y11406D02*
X35428D01*
X34406Y8472D02*
X35428Y9494D01*
X34739Y11406D02*
X35428D01*
X34937Y8356D02*
X36076Y9494D01*
X34623Y8690D02*
X34958Y8356D01*
X33580Y27694D02*
X39018Y22256D01*
X33580Y26975D02*
X38300Y22256D01*
X33580Y26257D02*
X37602Y22235D01*
X33580Y21367D02*
X38454Y26241D01*
X33580Y20648D02*
X38682Y25750D01*
X33580Y22085D02*
X38454Y26960D01*
X33580Y30567D02*
X41892Y22256D01*
X33580Y29849D02*
X41173Y22256D01*
X33580Y22804D02*
X38879Y28103D01*
X33580Y18493D02*
X44931Y29844D01*
X33580Y29131D02*
X40455Y22256D01*
X33580Y28412D02*
X39736Y22256D01*
X33580Y25538D02*
X37243Y21876D01*
X33580Y19212D02*
X39818Y25449D01*
X31083Y11000D02*
X32667D01*
X32313D02*
X32490Y10823D01*
X31422Y9756D02*
X32667Y11000D01*
X31595D02*
X32131Y10464D01*
X30878Y10794D02*
X31083Y11000D01*
X30878Y10794D02*
X31083Y11000D01*
X28983D02*
X29417D01*
X30980Y10896D02*
X31771Y10105D01*
X30621Y10537D02*
X31412Y9746D01*
X23692Y11000D02*
X24554Y10138D01*
X24410Y11000D02*
X24914Y10497D01*
X20332Y9556D02*
X23580Y12804D01*
X21769Y9556D02*
X23580Y11367D01*
X22487Y9556D02*
X23932Y11000D01*
X21050Y9556D02*
X23580Y12085D01*
X20000Y20439D02*
X23580Y16859D01*
X20000Y12816D02*
X23580Y16396D01*
X20000Y17845D02*
X23580Y21425D01*
X20000Y13974D02*
X24195Y9779D01*
X20000Y13255D02*
X23700Y9556D01*
X27083Y11000D02*
X27317D01*
X28852Y10869D02*
X29069Y10652D01*
X26825Y10741D02*
X26941Y10625D01*
X28493Y10510D02*
X28710Y10293D01*
X28134Y10150D02*
X28350Y9934D01*
X27775Y9791D02*
X27991Y9575D01*
X23580Y11000D02*
X25417D01*
X26465Y10382D02*
X26582Y10265D01*
X25129Y11000D02*
X25273Y10856D01*
X26114Y9798D02*
X27317Y11000D01*
X26106Y10023D02*
X26223Y9906D01*
X31144Y9478D02*
X31422Y9756D01*
X31144Y9478D02*
X31422Y9756D01*
X30261Y10178D02*
X31144Y9295D01*
X30656Y483D02*
X39668Y9494D01*
X31144Y8922D02*
Y9478D01*
Y8922D02*
Y9478D01*
X28021Y7906D02*
X31116Y11000D01*
X29902Y9819D02*
X31144Y8577D01*
X27989Y7906D02*
X30878Y10794D01*
X29243Y7690D02*
X32553Y11000D01*
X28740Y7906D02*
X31834Y11000D01*
X32256Y8902D02*
X32494Y8663D01*
X32256Y8548D02*
X32494Y8786D01*
X32256Y8922D02*
X32494Y9161D01*
Y8472D02*
Y9161D01*
Y8472D02*
Y9161D01*
X32256Y7528D02*
Y8922D01*
X29543Y9460D02*
X31144Y7858D01*
Y7528D02*
Y8922D01*
X29184Y9100D02*
X30950Y7334D01*
X29602Y7331D02*
X31144Y8873D01*
X28825Y8741D02*
X30591Y6975D01*
X25836Y9520D02*
X26114Y9798D01*
X25836Y9520D02*
X26114Y9798D01*
X25747Y9664D02*
X25864Y9547D01*
X26948Y8964D02*
X28983Y11000D01*
X26948Y8531D02*
X29417Y11000D01*
X25836Y8964D02*
Y9520D01*
X23206Y9556D02*
X24650Y11000D01*
X23924Y9556D02*
X25368Y11000D01*
X18128Y9556D02*
X23972D01*
X24806Y8722D02*
X27083Y11000D01*
X23972Y9556D02*
X25417Y11000D01*
X27415Y9432D02*
X27632Y9215D01*
X27056Y9073D02*
X27273Y8856D01*
X25836Y8964D02*
Y9520D01*
Y7356D02*
Y8964D01*
X26948Y8531D02*
Y8964D01*
X25388Y9304D02*
X25836Y8856D01*
X25029Y8945D02*
X25836Y8137D01*
X24528Y8444D02*
X24806Y8722D01*
X24528Y8444D02*
X24806Y8722D01*
X24598Y7356D02*
X25836Y8594D01*
X23879Y7356D02*
X25836Y9313D01*
X34501Y8356D02*
X35607D01*
X36160Y7803D01*
Y6697D02*
Y7803D01*
X34406Y8260D02*
Y8472D01*
Y8260D02*
X34501Y8356D01*
X32256Y8184D02*
X32494Y7945D01*
X32256Y7465D02*
X32494Y7227D01*
X32256Y7111D02*
X32494Y7350D01*
X32256Y7829D02*
X32494Y8068D01*
X35600Y6144D02*
X36160Y6704D01*
X34501Y6144D02*
X35607D01*
X34406Y6240D02*
X34501Y6144D01*
X35607D02*
X36160Y6697D01*
X34406Y5941D02*
Y6240D01*
Y5941D02*
Y6240D01*
X33928Y5463D02*
X34406Y5941D01*
X33928Y5463D02*
X34406Y5941D01*
X31304Y5706D02*
X32494Y6896D01*
X32856Y4119D02*
X34881Y6144D01*
X32856Y4391D02*
X33928Y5463D01*
X32494Y6896D02*
Y8472D01*
X32256Y6972D02*
Y7528D01*
Y6972D02*
Y7528D01*
X31978Y6694D02*
X32256Y6972D01*
X32143Y6860D02*
X32300Y6702D01*
X31978Y6694D02*
X32256Y6972D01*
X29656Y6666D02*
X31144Y8155D01*
X29656Y7192D02*
X30232Y6615D01*
X29028Y7906D02*
X29656Y7278D01*
Y6039D02*
X31144Y7528D01*
X29656Y6039D02*
Y7278D01*
X30989Y5706D02*
X31978Y6694D01*
X31784Y6500D02*
X31941Y6343D01*
X31425Y6141D02*
X31582Y5984D01*
X31065Y5782D02*
X31142Y5706D01*
X30989D02*
X31304D01*
X30344Y5061D02*
X30989Y5706D01*
X29656Y6473D02*
X29873Y6256D01*
X29028Y5394D02*
X29656Y6022D01*
X29011Y5394D02*
X29656Y6039D01*
X30344Y5078D02*
X30972Y5706D01*
X29988Y4704D02*
X30344Y4348D01*
X36160Y7154D02*
X40448Y2865D01*
X36160Y2394D02*
X40456Y6690D01*
X36160Y3112D02*
X40448Y7401D01*
X36029Y6566D02*
X42112Y483D01*
X36404D02*
X42065Y6144D01*
X35685Y483D02*
X41347Y6144D01*
X34967Y483D02*
X40815Y6331D01*
X34406Y6034D02*
X39957Y483D01*
X29938D02*
X35600Y6144D01*
X35669Y6207D02*
X41394Y483D01*
X35013Y6144D02*
X40675Y483D01*
X36160Y2197D02*
Y3303D01*
X35607Y1644D02*
X36160Y2197D01*
X35607Y3856D02*
X36160Y3303D01*
Y2843D02*
X38520Y483D01*
X36123Y2161D02*
X37802Y483D01*
X35764Y1802D02*
X37083Y483D01*
X32581Y3548D02*
X35646Y483D01*
X34501Y1644D02*
X35607D01*
X34501Y3856D02*
X35607D01*
X34093Y5628D02*
X39238Y483D01*
X35203Y1644D02*
X36365Y483D01*
X33734Y5269D02*
X35147Y3856D01*
X33375Y4910D02*
X34465Y3819D01*
X32856Y3822D02*
Y4391D01*
X33015Y4550D02*
X34106Y3460D01*
X33948Y3303D02*
X34501Y3856D01*
X32856Y3992D02*
X33948Y2899D01*
X30344Y3822D02*
X30972Y3194D01*
X32228D02*
X32856Y3822D01*
X30344D02*
Y5061D01*
X29629Y4345D02*
X33491Y483D01*
X29269Y3986D02*
X32773Y483D01*
X32216Y3194D02*
X34928Y483D01*
X33948Y2197D02*
X34501Y1644D01*
X33948Y2197D02*
Y3303D01*
X33530Y483D02*
X34692Y1644D01*
X34248Y483D02*
X35410Y1644D01*
X32812Y483D02*
X34237Y1908D01*
X30972Y3194D02*
X32228D01*
X31375Y483D02*
X33948Y3056D01*
X29219Y483D02*
X31931Y3194D01*
X31498D02*
X34209Y483D01*
X32093D02*
X33948Y2338D01*
X28465Y8382D02*
X28942Y7906D01*
X27989D02*
X29028D01*
X28106Y8023D02*
X28223Y7906D01*
X28942D02*
X29656Y7192D01*
X27602Y5331D02*
X27719Y5448D01*
X27602Y5007D02*
Y5562D01*
X26435Y6244D02*
X26490Y6299D01*
X26292Y6244D02*
X26490Y6046D01*
X26435Y6244D02*
X26490Y6299D01*
X27602Y5565D02*
X27772Y5394D01*
X27602Y5007D02*
Y5562D01*
X26490Y5606D02*
Y6299D01*
X28579Y5394D02*
X28795Y5179D01*
X27772Y5394D02*
X29011D01*
X27861D02*
X28436Y4819D01*
X27367Y4772D02*
X27602Y5007D01*
X27566Y4971D02*
X28077Y4460D01*
X27367Y4772D02*
X27602Y5007D01*
X26534Y4494D02*
X27089D01*
X26534D02*
X27089D01*
X16428D02*
X26534D01*
X27089D02*
X27324Y4729D01*
X27089Y4494D02*
X27324Y4729D01*
X24669Y8586D02*
X25836Y7419D01*
X23972Y8444D02*
X24528D01*
X23972D02*
X24528D01*
X24092D02*
X25181Y7356D01*
X25316D02*
X25836Y7876D01*
X23419Y6244D02*
X24058Y5606D01*
X18128Y8444D02*
X23972D01*
X17728Y7356D02*
X25836D01*
X22656Y8444D02*
X23744Y7356D01*
X23374Y8444D02*
X24463Y7356D01*
X23161D02*
X24250Y8444D01*
X25880Y6244D02*
X26435D01*
X25880D02*
X26435D01*
X24856D02*
X25494Y5606D01*
X25574Y6244D02*
X26213Y5606D01*
X25721D02*
X26360Y6244D01*
X25003Y5606D02*
X25642Y6244D01*
X17728D02*
X25880D01*
X16428Y5606D02*
X26490D01*
X23566D02*
X24205Y6244D01*
X24285Y5606D02*
X24923Y6244D01*
X24137D02*
X24776Y5606D01*
X27706Y2422D02*
X30344Y5061D01*
X27783Y483D02*
X30733Y3433D01*
X27207Y4612D02*
X27718Y4101D01*
X28910Y3627D02*
X32054Y483D01*
X28551Y3267D02*
X31336Y483D01*
X28501D02*
X31213Y3194D01*
X26245Y3256D02*
X28384Y5394D01*
X26872Y3256D02*
X29011Y5394D01*
X26606Y4494D02*
X27358Y3742D01*
X27064Y483D02*
X30374Y3793D01*
X26346Y483D02*
X30344Y4481D01*
X27428Y2144D02*
X27706Y2422D01*
X27428Y2144D02*
X27706Y2422D01*
X26872Y2144D02*
X27428D01*
X28192Y2908D02*
X30617Y483D01*
X27832Y2549D02*
X29899Y483D01*
X27473Y2190D02*
X29181Y483D01*
X26872Y2144D02*
X27428D01*
X483Y483D02*
X96517D01*
X25627D02*
X27289Y2144D01*
X26800D02*
X28462Y483D01*
X26082Y2144D02*
X27744Y483D01*
X24450Y4494D02*
X25689Y3256D01*
X25887Y4494D02*
X26999Y3382D01*
X24090Y3256D02*
X25329Y4494D01*
X25169D02*
X26408Y3256D01*
X25527D02*
X26765Y4494D01*
X24808Y3256D02*
X26047Y4494D01*
X23013D02*
X24252Y3256D01*
X13428D02*
X26872D01*
X22653D02*
X23892Y4494D01*
X23732D02*
X24971Y3256D01*
X23371D02*
X24610Y4494D01*
X23927Y2144D02*
X25588Y483D01*
X24191D02*
X25852Y2144D01*
X23472Y483D02*
X25134Y2144D01*
X24909Y483D02*
X26571Y2144D01*
X25363D02*
X27025Y483D01*
X24645Y2144D02*
X26307Y483D01*
X22490Y2144D02*
X24152Y483D01*
X13428Y2144D02*
X26872D01*
X22035Y483D02*
X23697Y2144D01*
X23208D02*
X24870Y483D01*
X22754D02*
X24415Y2144D01*
X20000Y20000D02*
X23580Y23580D01*
X20000Y20000D02*
X23580Y23580D01*
X20000Y24032D02*
X23580Y20452D01*
Y11000D02*
Y29594D01*
X20000Y19282D02*
X23580Y22862D01*
X20000Y23313D02*
X23580Y19733D01*
X20000Y22155D02*
X23580Y25735D01*
X20000Y25468D02*
X23580Y21888D01*
X20000Y26187D02*
X23580Y22607D01*
X20000Y24750D02*
X23580Y21170D01*
X20000Y20718D02*
X23580Y24298D01*
X20000Y21437D02*
X23580Y25017D01*
X20000Y16129D02*
X23580Y12549D01*
X20000Y12097D02*
X23580Y15677D01*
X20000Y16847D02*
X23580Y13267D01*
X20000Y11379D02*
X23580Y14959D01*
X20000Y14692D02*
X23580Y11112D01*
X20000Y15410D02*
X23580Y11830D01*
X20000Y18563D02*
X23580Y22143D01*
X20000Y14253D02*
X23580Y17833D01*
X20000Y22595D02*
X23580Y19015D01*
X20000Y13534D02*
X23580Y17114D01*
X20000Y17566D02*
X23580Y13986D01*
X20000Y19721D02*
X23580Y16141D01*
X20000Y15689D02*
X23580Y19269D01*
X20000Y16408D02*
X23580Y19988D01*
X20000Y14971D02*
X23580Y18551D01*
X20000Y18284D02*
X23580Y14704D01*
X20000Y19003D02*
X23580Y15423D01*
X20000Y21158D02*
X23580Y17578D01*
X20000Y17126D02*
X23580Y20706D01*
X20000Y21876D02*
X23580Y18296D01*
X20000Y11000D02*
Y54180D01*
X12417Y11000D02*
X12522Y10894D01*
X17075Y10609D02*
X17466Y11000D01*
X16683D02*
X20000D01*
X14697Y10386D02*
X15164Y10853D01*
X17434Y10250D02*
X18184Y11000D01*
X17793Y9890D02*
X18903Y11000D01*
X15056Y10027D02*
X15523Y10494D01*
X14338Y10746D02*
X14592Y11000D01*
X14083D02*
X15017D01*
X12417D02*
X12522Y10894D01*
X12094Y9939D02*
X12786Y10631D01*
X11735Y10298D02*
X12427Y10990D01*
X18895Y9556D02*
X23580Y14241D01*
X19614Y9556D02*
X23580Y13522D01*
X19382Y11000D02*
X20826Y9556D01*
X20000Y12537D02*
X22981Y9556D01*
X20000Y11818D02*
X22263Y9556D01*
X20000Y11100D02*
X21544Y9556D01*
X17945Y11000D02*
X19389Y9556D01*
X18177D02*
X19621Y11000D01*
X17226D02*
X18671Y9556D01*
X18663Y11000D02*
X20108Y9556D01*
X17571Y7513D02*
X18502Y8444D01*
X19782D02*
X20871Y7356D01*
X20287D02*
X21376Y8444D01*
X19569Y7356D02*
X20658Y8444D01*
X21937D02*
X23026Y7356D01*
X22442D02*
X23531Y8444D01*
X21219D02*
X22308Y7356D01*
X18132D02*
X19221Y8444D01*
X18345D02*
X19434Y7356D01*
X17627Y8444D02*
X18715Y7356D01*
X19063Y8444D02*
X20152Y7356D01*
X18850D02*
X19939Y8444D01*
X16683Y11000D02*
X18128Y9556D01*
X15775Y9309D02*
X16241Y9775D01*
X15415Y9668D02*
X15882Y10135D01*
X14083Y11000D02*
X17728Y7356D01*
X14353Y11000D02*
X17997Y7356D01*
X15017Y11000D02*
X17294Y8722D01*
X12813Y9221D02*
X13504Y9912D01*
X13172Y8861D02*
X13864Y9553D01*
X12454Y9580D02*
X13145Y10271D01*
X12197Y11000D02*
X17592Y5606D01*
X12522Y10894D02*
X16894Y6522D01*
X17294Y8722D02*
X17572Y8444D01*
X18128D01*
X17294Y8722D02*
X17572Y8444D01*
X17211Y7872D02*
X17784Y8444D01*
X17572D02*
X18128D01*
X16852Y8231D02*
X17319Y8698D01*
X16134Y8950D02*
X16600Y9416D01*
X16493Y8590D02*
X16960Y9057D01*
X13531Y8502D02*
X14223Y9194D01*
X14250Y7784D02*
X14941Y8475D01*
X13890Y8143D02*
X14582Y8835D01*
X483Y14094D02*
X2000Y12576D01*
X483Y11977D02*
X2000Y13495D01*
X483Y12696D02*
X2000Y14213D01*
Y11000D02*
Y54180D01*
X483Y11259D02*
X2000Y12776D01*
X483Y13375D02*
X2000Y11858D01*
X483Y16249D02*
X2000Y14732D01*
X483Y14133D02*
X2000Y15650D01*
X483Y14851D02*
X2000Y16368D01*
X483Y13414D02*
X2000Y14932D01*
X483Y14812D02*
X2000Y13295D01*
X483Y15531D02*
X2000Y14013D01*
X11376Y10657D02*
X11718Y11000D01*
X11056D02*
X12417D01*
X9256D02*
X9944D01*
Y10422D02*
Y10978D01*
Y10422D02*
X10222Y10144D01*
X9944Y10422D02*
Y10978D01*
X2000Y11000D02*
X8144D01*
X7887D02*
X8144Y10742D01*
X483Y12657D02*
X2000Y11139D01*
X9256Y10692D02*
X9563Y11000D01*
X483Y10540D02*
X2000Y12058D01*
X483Y20598D02*
X2000Y22116D01*
X483Y21996D02*
X2000Y20479D01*
X483Y22715D02*
X2000Y21197D01*
X483Y21278D02*
X2000Y19760D01*
X483Y19162D02*
X2000Y20679D01*
X483Y19880D02*
X2000Y21397D01*
X483Y24152D02*
X2000Y22634D01*
X483Y22035D02*
X2000Y23553D01*
X483Y22754D02*
X2000Y24271D01*
X483Y21317D02*
X2000Y22834D01*
X483Y23433D02*
X2000Y21916D01*
X483Y18404D02*
X2000Y16887D01*
X483Y16288D02*
X2000Y17805D01*
X483Y17006D02*
X2000Y18524D01*
X483Y15569D02*
X2000Y17087D01*
X483Y16967D02*
X2000Y15450D01*
X483Y17686D02*
X2000Y16168D01*
X483Y18443D02*
X2000Y19961D01*
X483Y19841D02*
X2000Y18324D01*
X483Y20559D02*
X2000Y19042D01*
X483Y19123D02*
X2000Y17605D01*
X483Y17725D02*
X2000Y19242D01*
X11056Y10978D02*
X16428Y5606D01*
X9944Y10422D02*
X10222Y10144D01*
X9256Y9974D02*
X9944Y10663D01*
X11479Y11000D02*
X16873Y5606D01*
X9324Y11000D02*
X17068Y3256D01*
X9256Y10350D02*
X16350Y3256D01*
X9256Y7428D02*
Y11000D01*
X5700Y7856D02*
X8144Y10300D01*
X5013Y11000D02*
X8144Y7869D01*
X3576Y11000D02*
X14094Y483D01*
X4295Y11000D02*
X8144Y7150D01*
X9419Y7264D02*
X11261Y9106D01*
X9779Y6905D02*
X11620Y8746D01*
X9256Y7819D02*
X10902Y9465D01*
X10222Y10144D02*
X15594Y4772D01*
X9256Y9631D02*
X15631Y3256D01*
X9256Y8913D02*
X14913Y3256D01*
X9256Y9256D02*
X10183Y10183D01*
X9256Y8537D02*
X10543Y9824D01*
X9256Y9256D02*
X10183Y10183D01*
X6657Y7376D02*
X8144Y8863D01*
X6298Y7735D02*
X8144Y9581D01*
X2139Y11000D02*
X5284Y7856D01*
X2827D02*
X5971Y11000D01*
X483Y8385D02*
X3097Y11000D01*
X483Y6948D02*
X4534Y11000D01*
X483Y6230D02*
X5253Y11000D01*
X483Y7667D02*
X3816Y11000D01*
X483Y11938D02*
X4565Y7856D01*
X483Y9104D02*
X2379Y11000D01*
X483Y9822D02*
X2000Y11339D01*
X483Y11220D02*
X3847Y7856D01*
X483Y483D02*
Y70017D01*
X6450Y11000D02*
X8144Y9306D01*
X5732Y11000D02*
X8144Y8587D01*
X7168Y11000D02*
X8144Y10024D01*
X4982Y7856D02*
X8126Y11000D01*
X8144Y7428D02*
Y11000D01*
X4264Y7856D02*
X7408Y11000D01*
X2858D02*
X6002Y7856D01*
X3545D02*
X6689Y11000D01*
X483Y10502D02*
X3129Y7856D01*
X483Y9783D02*
X2616Y7650D01*
X483Y9065D02*
X2257Y7290D01*
X21006Y7356D02*
X22094Y8444D01*
X21724Y7356D02*
X22813Y8444D01*
X20500D02*
X21589Y7356D01*
X19974Y5606D02*
X20613Y6244D01*
X20545D02*
X21184Y5606D01*
X19827Y6244D02*
X20465Y5606D01*
X17819D02*
X18458Y6244D01*
X18390D02*
X19029Y5606D01*
X17671Y6244D02*
X18310Y5606D01*
X19108Y6244D02*
X19747Y5606D01*
X19256D02*
X19894Y6244D01*
X18537Y5606D02*
X19176Y6244D01*
X21411Y5606D02*
X22050Y6244D01*
X21982D02*
X22621Y5606D01*
X21263Y6244D02*
X21902Y5606D01*
X22700Y6244D02*
X23339Y5606D01*
X22848D02*
X23487Y6244D01*
X22129Y5606D02*
X22768Y6244D01*
X20692Y5606D02*
X21331Y6244D01*
X16906Y3256D02*
X18144Y4494D01*
X16548D02*
X17786Y3256D01*
X17624D02*
X18863Y4494D01*
X17266D02*
X18505Y3256D01*
X16894Y6522D02*
X17172Y6244D01*
X17728D01*
X16894Y6522D02*
X17172Y6244D01*
X17728D01*
X17100Y5606D02*
X17739Y6244D01*
X16405Y5629D02*
X17096Y6320D01*
X14968Y7065D02*
X15660Y7757D01*
X15327Y6706D02*
X16019Y7398D01*
X14609Y7425D02*
X15300Y8116D01*
X16046Y5988D02*
X16737Y6679D01*
X15686Y6347D02*
X16378Y7039D01*
X15594Y4772D02*
X15872Y4494D01*
X16428D01*
X15594Y4772D02*
X15872Y4494D01*
X15469Y3256D02*
X16708Y4494D01*
X16187Y3256D02*
X17426Y4494D01*
X15872D02*
X16428D01*
X12652Y4031D02*
X14494Y5873D01*
X13011Y3672D02*
X14853Y5514D01*
X12293Y4390D02*
X14135Y6232D01*
X14750Y3256D02*
X15989Y4494D01*
X13371Y3313D02*
X15212Y5154D01*
X20858Y4494D02*
X22097Y3256D01*
X21216D02*
X22455Y4494D01*
X20498Y3256D02*
X21737Y4494D01*
X21935Y3256D02*
X23173Y4494D01*
X22295D02*
X23534Y3256D01*
X21577Y4494D02*
X22815Y3256D01*
X19061D02*
X20300Y4494D01*
X19421D02*
X20660Y3256D01*
X18703Y4494D02*
X19942Y3256D01*
X20140Y4494D02*
X21379Y3256D01*
X19779D02*
X21018Y4494D01*
X20335Y2144D02*
X21996Y483D01*
X20598D02*
X22260Y2144D01*
X19880Y483D02*
X21542Y2144D01*
X21317Y483D02*
X22979Y2144D01*
X21771D02*
X23433Y483D01*
X21053Y2144D02*
X22715Y483D01*
X18443D02*
X20105Y2144D01*
X18898D02*
X20559Y483D01*
X18179Y2144D02*
X19841Y483D01*
X19616Y2144D02*
X21278Y483D01*
X19162D02*
X20823Y2144D01*
X17985Y4494D02*
X19223Y3256D01*
X18342D02*
X19581Y4494D01*
X14032Y3256D02*
X15571Y4795D01*
X13414Y483D02*
X15076Y2144D01*
X13869D02*
X15531Y483D01*
X13150Y2144D02*
X14812Y483D01*
X12594Y2422D02*
X12872Y2144D01*
X13428D01*
X12594Y2422D02*
X12872Y2144D01*
X12696Y483D02*
X14358Y2144D01*
X12872D02*
X13428D01*
X16288Y483D02*
X17950Y2144D01*
X16742D02*
X18404Y483D01*
X16024Y2144D02*
X17686Y483D01*
X17461Y2144D02*
X19123Y483D01*
X17725D02*
X19387Y2144D01*
X17006Y483D02*
X18668Y2144D01*
X14587D02*
X16249Y483D01*
X14851D02*
X16513Y2144D01*
X14133Y483D02*
X15794Y2144D01*
X15569Y483D02*
X17231Y2144D01*
X15306D02*
X16967Y483D01*
X10497Y6186D02*
X12339Y8028D01*
X10856Y5827D02*
X12698Y7669D01*
X10138Y6546D02*
X11979Y8387D01*
X9256Y8194D02*
X14194Y3256D01*
X9256Y7476D02*
X13476Y3256D01*
X9256Y7428D02*
X13428Y3256D01*
X7017Y7017D02*
X8144Y8144D01*
Y6872D02*
Y7428D01*
X7017Y7017D02*
X8144Y8144D01*
X7376Y6657D02*
X8144Y7426D01*
Y6872D02*
Y7428D01*
X11215Y5468D02*
X13057Y7310D01*
X8144Y6872D02*
X8422Y6594D01*
X8144Y6872D02*
X8422Y6594D01*
X11575Y5109D02*
X13416Y6950D01*
X11934Y4750D02*
X13775Y6591D01*
X7856Y2827D02*
X10023Y4994D01*
X7856Y5700D02*
X8586Y6431D01*
X7856Y4982D02*
X8945Y6071D01*
X7735Y6298D02*
X8227Y6790D01*
X7856Y3545D02*
X9664Y5353D01*
X7856Y4264D02*
X9304Y5712D01*
X2822Y7856D02*
X6178D01*
X7856Y6178D01*
X1144Y6173D02*
X2827Y7856D01*
X6002D02*
X7856Y6002D01*
X1144Y2822D02*
Y6178D01*
X483Y8346D02*
X1898Y6931D01*
X483Y7628D02*
X1539Y6572D01*
X483Y6909D02*
X1179Y6213D01*
X1144Y6178D02*
X2822Y7856D01*
X483Y6191D02*
X1144Y5529D01*
X483Y4036D02*
X1144Y3374D01*
X7856Y2822D02*
Y6178D01*
X483Y2638D02*
X1144Y3300D01*
X483Y3356D02*
X1144Y4018D01*
X483Y5473D02*
X1144Y4811D01*
X483Y4793D02*
X1144Y5455D01*
X483Y5512D02*
X1144Y6173D01*
X483Y4075D02*
X1144Y4737D01*
X483Y4754D02*
X1144Y4092D01*
X8422Y6594D02*
X12594Y2422D01*
X7856Y4565D02*
X11938Y483D01*
X7856Y3847D02*
X11220Y483D01*
X8385D02*
X11460Y3557D01*
X9104Y483D02*
X11819Y3198D01*
X7856Y3129D02*
X10502Y483D01*
X6948D02*
X10741Y4275D01*
X7667Y483D02*
X11100Y3916D01*
X6230Y483D02*
X10382Y4635D01*
X7856Y6002D02*
X13375Y483D01*
X7856Y5284D02*
X12657Y483D01*
X9822D02*
X12178Y2839D01*
X7650Y2616D02*
X9783Y483D01*
X7290Y2257D02*
X9065Y483D01*
X11259D02*
X12921Y2144D01*
X11977Y483D02*
X13639Y2144D01*
X10540Y483D02*
X12537Y2479D01*
X6173Y1144D02*
X7856Y2827D01*
X6178Y1144D02*
X7856Y2822D01*
X6213Y1179D02*
X6909Y483D01*
X6931Y1898D02*
X8346Y483D01*
X6572Y1539D02*
X7628Y483D01*
X1144Y2822D02*
X2822Y1144D01*
X483Y483D02*
X1983Y1983D01*
X1201Y483D02*
X2343Y1624D01*
X1919Y483D02*
X2702Y1265D01*
X483Y1881D02*
X1881Y483D01*
X483Y3317D02*
X3317Y483D01*
X483Y1201D02*
X1624Y2343D01*
X483Y1919D02*
X1265Y2702D01*
X483Y2599D02*
X2599Y483D01*
X483D02*
X1983Y1983D01*
X4092Y1144D02*
X4754Y483D01*
X4793D02*
X5455Y1144D01*
X4075Y483D02*
X4737Y1144D01*
X5512Y483D02*
X6173Y1144D01*
X5529D02*
X6191Y483D01*
X4811Y1144D02*
X5473Y483D01*
X2638D02*
X3300Y1144D01*
X2822D02*
X6178D01*
X483Y1162D02*
X1162Y483D01*
X3374Y1144D02*
X4036Y483D01*
X3356D02*
X4018Y1144D01*
D11*
X92500Y66000D02*
Y69254D01*
Y66000D02*
X95754D01*
X89246D02*
X92500D01*
Y62746D02*
Y66000D01*
Y4500D02*
Y7754D01*
Y4500D02*
X95754D01*
X89246D02*
X92500D01*
Y1246D02*
Y4500D01*
X58793Y4727D02*
X59947D01*
X58793D02*
Y5881D01*
X57639Y4727D02*
X58793D01*
Y3573D02*
Y4727D01*
X42670Y17370D02*
Y18374D01*
X41666Y17370D02*
X42670D01*
X43674D01*
X42670Y16366D02*
Y17370D01*
X28700Y64000D02*
Y65004D01*
Y64000D02*
X29704D01*
X27696D02*
X28700D01*
Y62996D02*
Y64000D01*
X4500Y66000D02*
Y69254D01*
Y66000D02*
X7754D01*
X1246D02*
X4500D01*
Y62746D02*
Y66000D01*
X35054Y7250D02*
Y8254D01*
Y7250D02*
X36058D01*
X35054Y6246D02*
Y7250D01*
X4500Y4500D02*
Y7754D01*
X1246Y4500D02*
X4500D01*
X7754D01*
X4500Y1246D02*
Y4500D01*
D12*
X33450Y6418D02*
Y8950D01*
X34950Y10450D01*
X66350D01*
X31600Y4450D02*
Y4568D01*
X33450Y6418D01*
X68000Y12100D02*
X69450Y13550D01*
X68000Y12100D02*
X84550D01*
X66350Y10450D02*
X68000Y12100D01*
X84550D02*
X85800Y13350D01*
Y17670D01*
X69450Y23350D02*
Y26350D01*
Y15850D02*
Y23350D01*
X83200D01*
X85417Y25567D02*
Y28567D01*
X83200Y23350D02*
X85417Y25567D01*
Y28567D02*
X85800Y28950D01*
X69450Y35000D02*
Y37420D01*
Y26350D02*
Y35000D01*
X84600D01*
X85800Y36200D02*
Y40230D01*
X84600Y35000D02*
X85800Y36200D01*
X69450Y13550D02*
Y15850D01*
X67181Y17670D02*
X69001Y15850D01*
X69450D01*
X66640Y17670D02*
X67181D01*
X66640Y28950D02*
X66850D01*
X69450Y26350D01*
Y37420D02*
Y47000D01*
X66640Y40230D02*
X69450Y37420D01*
Y47000D02*
X84400D01*
X68700D02*
X69450D01*
X53000D02*
X68700D01*
X68920Y47220D01*
Y57050D01*
X84400Y47000D02*
X85800Y48400D01*
Y57050D01*
X52040Y47960D02*
X53000Y47000D01*
X52040Y47960D02*
Y57050D01*
D16*
X26158Y6800D02*
X26392Y7034D01*
Y9242D02*
X29450Y12300D01*
X27046Y7796D02*
X30600Y11350D01*
X26392Y7034D02*
Y9242D01*
X17450Y6800D02*
X26158D01*
X26812Y5050D02*
X27046Y5284D01*
X16150Y5050D02*
X26812D01*
X27046Y5284D02*
Y7796D01*
X13150Y2700D02*
X27150D01*
X31700Y7250D02*
Y9200D01*
X27150Y2700D02*
X31700Y7250D01*
Y9200D02*
X35850Y13350D01*
Y19650D01*
X37900Y21700D02*
X46900D01*
X35850Y19650D02*
X37900Y21700D01*
X49250Y24050D02*
Y32015D01*
X46900Y21700D02*
X49250Y24050D01*
X47130Y34135D02*
X49250Y32015D01*
X10500Y10700D02*
X16150Y5050D01*
X8700Y7150D02*
Y29400D01*
Y7150D02*
X13150Y2700D01*
X3380Y32590D02*
X5510D01*
X8700Y29400D01*
X10500Y10700D02*
Y29250D01*
X4646Y35104D02*
X10500Y29250D01*
X12800Y11450D02*
X17450Y6800D01*
X12800Y11450D02*
Y29950D01*
X5080Y37670D02*
X12800Y29950D01*
X15200Y11650D02*
Y30650D01*
X17850Y9000D02*
X24250D01*
X15200Y11650D02*
X17850Y9000D01*
X5616Y40234D02*
X15200Y30650D01*
X24250Y9000D02*
X28100Y12850D01*
Y20780D01*
X29450Y12300D02*
Y17050D01*
X30600Y11350D02*
Y15660D01*
X28100Y20780D02*
X32390Y25070D01*
X29450Y17050D02*
X32390Y19990D01*
X30600Y15660D02*
X32390Y17450D01*
X3380Y40210D02*
X4880D01*
X4904Y40234D01*
X5616D01*
X26260Y30560D02*
X28449Y32749D01*
X26260Y27844D02*
Y30560D01*
X26026Y27610D02*
X26260Y27844D01*
X24770Y27610D02*
X26026D01*
X3380Y37670D02*
X5080D01*
X3380Y35130D02*
X3406Y35104D01*
X4646D01*
X36100Y31400D02*
X37100Y30400D01*
X45785D02*
X47130Y29055D01*
X37100Y30400D02*
X45785D01*
X29100Y31400D02*
X36100D01*
X28000Y27000D02*
Y30300D01*
X29100Y31400D01*
X26083Y25083D02*
X28000Y27000D01*
X24770Y25070D02*
X24782Y25083D01*
X26083D01*
X28449Y32749D02*
X45976D01*
X47130Y31595D01*
X47130Y44295D02*
Y47170D01*
X45450Y48850D02*
X47130Y47170D01*
X22100Y48850D02*
X45450D01*
X20900Y31600D02*
Y47650D01*
X22100Y48850D01*
X20900Y31600D02*
X22350Y30150D01*
X24770D01*
D17*
X58793Y4727D02*
D03*
X61333D02*
D03*
X63874D02*
D03*
X3380Y50370D02*
D03*
Y47830D02*
D03*
Y45290D02*
D03*
Y42750D02*
D03*
Y40210D02*
D03*
Y37670D02*
D03*
Y35130D02*
D03*
Y32590D02*
D03*
Y30050D02*
D03*
Y27510D02*
D03*
Y24970D02*
D03*
Y22430D02*
D03*
Y19890D02*
D03*
Y17350D02*
D03*
Y14810D02*
D03*
X18620D02*
D03*
Y17350D02*
D03*
Y19890D02*
D03*
Y22430D02*
D03*
Y24970D02*
D03*
Y27510D02*
D03*
Y30050D02*
D03*
Y32590D02*
D03*
Y35130D02*
D03*
Y37670D02*
D03*
Y40210D02*
D03*
Y42750D02*
D03*
Y45290D02*
D03*
Y47830D02*
D03*
Y50370D02*
D03*
X8470Y52810D02*
D03*
X11010D02*
D03*
X13550D02*
D03*
X8470Y50270D02*
D03*
X11010D02*
D03*
X13550D02*
D03*
D18*
X16000Y64000D02*
D03*
X18540D02*
D03*
X21080D02*
D03*
X23620D02*
D03*
X26160D02*
D03*
X40130Y17370D02*
D03*
X45210D02*
D03*
X41554Y7250D02*
D03*
X35054D02*
D03*
X41554Y2750D02*
D03*
X35054D02*
D03*
D19*
X28700Y64000D02*
D03*
X42670Y17370D02*
D03*
D20*
X3380Y12270D02*
D03*
X18620D02*
D03*
X3380Y52910D02*
D03*
X18620D02*
D03*
X23500Y37060D02*
D03*
X26040D02*
D03*
X28580D02*
D03*
X31120D02*
D03*
X33660D02*
D03*
Y52300D02*
D03*
X31120D02*
D03*
X28580D02*
D03*
X26040D02*
D03*
X23500D02*
D03*
D21*
X32390Y30150D02*
D03*
Y27610D02*
D03*
Y25070D02*
D03*
Y22530D02*
D03*
Y19990D02*
D03*
Y17450D02*
D03*
Y14910D02*
D03*
Y12370D02*
D03*
X24770D02*
D03*
Y14910D02*
D03*
Y17450D02*
D03*
Y19990D02*
D03*
Y22530D02*
D03*
Y25070D02*
D03*
Y27610D02*
D03*
D22*
Y30150D02*
D03*
D23*
X39510Y36675D02*
D03*
X47130D02*
D03*
X39510Y44295D02*
D03*
X47130D02*
D03*
X47130Y29055D02*
D03*
X39510D02*
D03*
X47130Y34135D02*
D03*
X39510D02*
D03*
X47130Y31595D02*
D03*
X39510D02*
D03*
X47130Y26505D02*
D03*
X39510D02*
D03*
X39510Y39215D02*
D03*
X47130D02*
D03*
X39510Y41755D02*
D03*
X47130D02*
D03*
D24*
X57040Y57050D02*
D03*
X61000D02*
D03*
X64960D02*
D03*
X68920D02*
D03*
X73920D02*
D03*
X77880D02*
D03*
X81840D02*
D03*
X85800D02*
D03*
X40160D02*
D03*
X44120D02*
D03*
X48080D02*
D03*
X52040D02*
D03*
X54760Y40230D02*
D03*
X58720D02*
D03*
X62680D02*
D03*
X66640D02*
D03*
X73920D02*
D03*
X77880D02*
D03*
X81840D02*
D03*
X85800D02*
D03*
X73920Y28950D02*
D03*
X77880D02*
D03*
X81840D02*
D03*
X85800D02*
D03*
X54760D02*
D03*
X58720D02*
D03*
X62680D02*
D03*
X66640D02*
D03*
X73920Y17670D02*
D03*
X77880D02*
D03*
X81840D02*
D03*
X85800D02*
D03*
X54760D02*
D03*
X58720D02*
D03*
X62680D02*
D03*
X66640D02*
D03*
D25*
X4500Y66000D02*
D03*
X92500D02*
D03*
Y4500D02*
D03*
X4500D02*
D03*
D26*
X83700Y5327D02*
D03*
X78700D02*
D03*
D27*
X28400Y6650D02*
D03*
X31600Y4450D02*
D03*
X6200Y29650D02*
D03*
X12900Y42350D02*
D03*
D28*
X42800Y47200D02*
D03*
%TF.MD5,ecba16f57d2e2710b24b689fe5f18fb4*%
M02*
