%TF.GenerationSoftware,Altium Limited,Altium Designer,21.8.1 (53)*%
G04 Layer_Color=8388736*
%FSLAX43Y43*%
%MOMM*%
%TF.SameCoordinates,B73FB20E-E6E7-419C-BECD-306DA7CCED71*%
%TF.FilePolarity,Negative*%
%TF.FileFunction,Soldermask,Top*%
%TF.Part,Single*%
G01*
G75*
%TA.AperFunction,ComponentPad*%
%ADD20C,2.203*%
%ADD21C,5.203*%
%ADD22O,8.203X3.203*%
%ADD23C,2.003*%
%TA.AperFunction,ViaPad*%
%ADD24C,6.203*%
%TA.AperFunction,ComponentPad*%
%ADD25C,2.153*%
%TA.AperFunction,ViaPad*%
%ADD26C,1.473*%
D20*
X66500Y49000D02*
D03*
X61420D02*
D03*
X56340D02*
D03*
X38340D02*
D03*
X43420D02*
D03*
X48500D02*
D03*
X66740Y4813D02*
D03*
X61660D02*
D03*
X56580D02*
D03*
X51500D02*
D03*
X74500Y34290D02*
D03*
Y29210D02*
D03*
Y24130D02*
D03*
Y19050D02*
D03*
X17170Y5000D02*
D03*
X22250D02*
D03*
X27330D02*
D03*
Y49000D02*
D03*
X22250D02*
D03*
X17170D02*
D03*
D21*
X62000Y19500D02*
D03*
X34000D02*
D03*
D22*
X43750Y19000D02*
D03*
X52250Y20000D02*
D03*
D23*
X41540Y4813D02*
D03*
X39000D02*
D03*
D24*
X75500Y50000D02*
D03*
Y4500D02*
D03*
X4500Y50000D02*
D03*
Y4500D02*
D03*
D25*
X6985Y23749D02*
D03*
Y28749D02*
D03*
D26*
X32131Y37846D02*
D03*
X71247Y12700D02*
D03*
%TF.MD5,81db7d2ff2ef04f4740eea45a2bf90b4*%
M02*
