M48
;Layer_Color=9474304
;FILE_FORMAT=4:3
METRIC,LZ
;TYPE=PLATED
T1F00S00C1.300
T2F00S00C4.000
%
T01
X001717Y0005
X002225
X002733
X004Y0004813
X004508
X005016
X005524
X0063Y001905
Y002413
Y002921
Y003429
X0055Y0049
X004992
X004484
X002733
X002225
X001717
X0006985Y0028749
Y0023749
T02
X00045Y00045
X0064
Y005
X00045
M30
