M48
;Layer_Color=9474304
;FILE_FORMAT=4:3
METRIC,LZ
;TYPE=PLATED
T1F00S00C0.711
T2F00S00C1.200
T3F00S00C1.300
T5F00S00C3.000
T6F00S00C4.000
%
T01
X0071247Y00127
X0032131Y0037846
T02
X0039Y0004813
X004154
T03
X001717Y0005
X002225
X002733
X00515Y0004813
X005658
X006166
X006674
X00745Y001905
Y002413
Y002921
Y003429
X00665Y0049
X006142
X005634
X00485
X004342
X003834
X002733
X002225
X001717
X0006985Y0028749
Y0023749
T05
X0062Y00195
X0034
T06
X00045Y00045
X00755
Y005
X00045
M30
