%TF.GenerationSoftware,Altium Limited,Altium Designer,21.8.1 (53)*%
G04 Layer_Physical_Order=2*
G04 Layer_Color=16711680*
%FSLAX43Y43*%
%MOMM*%
%TF.SameCoordinates,AC333826-6736-4184-BEF3-4D2E4CB995F7*%
%TF.FilePolarity,Positive*%
%TF.FileFunction,Copper,L2,Bot,Signal*%
%TF.Part,Single*%
G01*
G75*
%TA.AperFunction,Conductor*%
%ADD10C,2.000*%
%ADD11C,4.000*%
%TA.AperFunction,ComponentPad*%
%ADD12C,2.000*%
%TA.AperFunction,ViaPad*%
%ADD13C,6.000*%
%TA.AperFunction,ComponentPad*%
%ADD14C,1.950*%
D10*
X63520Y49520D02*
X64000Y50000D01*
X55499Y37973D02*
X63520Y45994D01*
Y49520D01*
X55499Y34290D02*
Y37973D01*
X59470Y9911D02*
X64000Y5381D01*
X55240Y9911D02*
X59470D01*
X64000Y4500D02*
Y5381D01*
X27330Y39000D02*
Y49000D01*
X4500Y40000D02*
Y50000D01*
X13843Y13716D02*
Y21781D01*
X32004D02*
X32258Y22035D01*
X13843Y21781D02*
X32004D01*
X13843D02*
Y30657D01*
X4500Y4500D02*
X4627D01*
X13843Y13716D01*
X4500Y40000D02*
X13843Y30657D01*
X27330Y5000D02*
X32258Y9928D01*
Y22035D01*
Y34072D01*
X27330Y39000D02*
X32258Y34072D01*
D11*
X27330Y49000D02*
X42040Y34290D01*
X55499D02*
X63000D01*
X42040D02*
X55499D01*
X49911Y24130D02*
Y26419D01*
Y15240D02*
Y24130D01*
X63000D01*
X45080Y4813D02*
Y10409D01*
X49911Y15240D01*
X42040Y34290D02*
X49911Y26419D01*
Y15240D02*
X55240Y9911D01*
Y4813D02*
Y9911D01*
D12*
X55000Y49000D02*
D03*
X49920D02*
D03*
X44840D02*
D03*
X40000Y4813D02*
D03*
X45080D02*
D03*
X50160D02*
D03*
X55240D02*
D03*
X17170Y5000D02*
D03*
X22250D02*
D03*
X27330D02*
D03*
Y49000D02*
D03*
X22250D02*
D03*
X17170D02*
D03*
X63000Y19050D02*
D03*
Y24130D02*
D03*
Y29210D02*
D03*
Y34290D02*
D03*
D13*
X4500Y50000D02*
D03*
X64000D02*
D03*
Y4500D02*
D03*
X4500D02*
D03*
D14*
X6985Y23749D02*
D03*
Y28749D02*
D03*
%TF.MD5,65aacca8c37c3435a1b8e7d3481e8284*%
M02*
