%TF.GenerationSoftware,Altium Limited,Altium Designer,21.8.1 (53)*%
G04 Layer_Physical_Order=2*
G04 Layer_Color=36540*
%FSLAX43Y43*%
%MOMM*%
%TF.SameCoordinates,EC881490-E286-48FB-906B-DE43019234B0*%
%TF.FilePolarity,Positive*%
%TF.FileFunction,Copper,L2,Inr,Signal*%
%TF.Part,Single*%
G01*
G75*
%TA.AperFunction,Conductor*%
%ADD12C,0.800*%
%ADD13C,0.400*%
%TA.AperFunction,ComponentPad*%
%ADD14C,1.400*%
%ADD15C,1.800*%
%ADD16C,1.524*%
%ADD17C,3.200*%
%ADD18C,1.500*%
%ADD19R,1.500X1.500*%
%ADD20C,1.425*%
%ADD21R,1.425X1.425*%
%TA.AperFunction,ViaPad*%
%ADD22C,6.000*%
%ADD23C,1.270*%
D12*
X60507Y50800D02*
X69450D01*
X74650Y56000D01*
Y56000D01*
X78150Y59500D01*
X13144Y54207D02*
Y57474D01*
X78150Y59500D02*
X82000D01*
X4500D02*
Y60000D01*
Y52197D02*
Y59500D01*
X76000Y30600D02*
Y39600D01*
Y3593D02*
Y30600D01*
X76150Y30750D02*
X82000D01*
X76000Y30600D02*
X76150Y30750D01*
X73550Y1143D02*
X78143D01*
X46101D02*
X73550D01*
X76000Y3593D01*
Y39600D02*
X78790Y42390D01*
X82000D01*
X13144Y53793D02*
Y54207D01*
X16550Y50800D02*
X22860D01*
X4500Y52197D02*
X11547D01*
X13144Y54207D02*
X16550Y50800D01*
X11547Y52197D02*
X13144Y53793D01*
X61180Y22020D02*
X61530Y21670D01*
X60530Y22020D02*
X61180D01*
X58674Y23876D02*
X60530Y22020D01*
X58674Y23876D02*
Y42601D01*
X59143Y43070D01*
X61530D01*
X28194Y50800D02*
X60507D01*
Y54940D01*
X22733Y41529D02*
Y50673D01*
Y41529D02*
X23432Y40830D01*
X22733Y50673D02*
X22860Y50800D01*
X23432Y40830D02*
X25620D01*
X4500Y36219D02*
Y52197D01*
X22860Y50800D02*
X28194D01*
Y40646D02*
Y50800D01*
X46140Y27725D02*
Y30220D01*
X44958Y26543D02*
X46140Y27725D01*
X28194Y26543D02*
Y33020D01*
Y15646D02*
Y26543D01*
X44958D01*
X28956Y1143D02*
X46101D01*
X46140Y1182D01*
Y5220D01*
X78143Y1143D02*
X82000Y5000D01*
X28194Y1905D02*
X28956Y1143D01*
X28194Y1905D02*
Y8026D01*
Y33020D02*
Y35566D01*
Y33020D02*
X28200D01*
X31000Y30220D01*
X28194Y35566D02*
Y38106D01*
Y35566D02*
X31000Y32760D01*
X28194Y38106D02*
Y40646D01*
Y38106D02*
X31000Y35300D01*
X28194Y40646D02*
X31000Y37840D01*
X28194Y10566D02*
Y13106D01*
Y8026D02*
Y10566D01*
X31000Y7760D01*
X28194Y13106D02*
Y15646D01*
Y13106D02*
X31000Y10300D01*
X28194Y8026D02*
X31000Y5220D01*
X28194Y15646D02*
X31000Y12840D01*
X4500Y5000D02*
Y36219D01*
X4969Y35750D02*
X10380D01*
X4500Y36219D02*
X4969Y35750D01*
D13*
X42600Y19050D02*
Y20460D01*
X42644Y44344D02*
Y45416D01*
X42600Y45460D02*
X42644Y45416D01*
X41250Y42951D02*
X42644Y44344D01*
X42075Y18525D02*
X46140Y14460D01*
X40550Y20050D02*
X42075Y18525D01*
X42600Y19050D01*
X40550Y20050D02*
Y22188D01*
X46140Y10030D02*
Y14460D01*
X39932Y22806D02*
X40550Y22188D01*
X40700Y43501D02*
X41250Y42951D01*
X42418Y41783D01*
X38620Y48000D02*
X40700Y45920D01*
Y43501D02*
Y45920D01*
X42418Y41783D02*
X46140Y38061D01*
Y35030D02*
Y38061D01*
X38814Y22806D02*
X39932D01*
X38620Y23000D02*
X38814Y22806D01*
D14*
X77690Y53600D02*
D03*
X85310D02*
D03*
X77690Y50600D02*
D03*
X85310D02*
D03*
X35000Y61000D02*
D03*
Y53380D02*
D03*
X37540D02*
D03*
Y61000D02*
D03*
X40080Y53380D02*
D03*
Y61000D02*
D03*
X42620Y53380D02*
D03*
Y61000D02*
D03*
X45160Y53380D02*
D03*
Y61000D02*
D03*
X47700Y53380D02*
D03*
Y61000D02*
D03*
X50240Y53380D02*
D03*
Y61000D02*
D03*
X52780Y53380D02*
D03*
Y61000D02*
D03*
D15*
X20550Y43270D02*
D03*
X18010D02*
D03*
X15470D02*
D03*
X20550Y45810D02*
D03*
X18010D02*
D03*
X15470D02*
D03*
X25620Y43370D02*
D03*
Y40830D02*
D03*
Y38290D02*
D03*
Y35750D02*
D03*
Y33210D02*
D03*
Y30670D02*
D03*
Y28130D02*
D03*
Y25590D02*
D03*
Y23050D02*
D03*
Y20510D02*
D03*
Y17970D02*
D03*
Y15430D02*
D03*
Y12890D02*
D03*
Y10350D02*
D03*
Y7810D02*
D03*
X10380D02*
D03*
Y10350D02*
D03*
Y12890D02*
D03*
Y15430D02*
D03*
Y17970D02*
D03*
Y20510D02*
D03*
Y23050D02*
D03*
Y25590D02*
D03*
Y28130D02*
D03*
Y30670D02*
D03*
Y33210D02*
D03*
Y35750D02*
D03*
Y38290D02*
D03*
Y40830D02*
D03*
Y43370D02*
D03*
X82000Y39850D02*
D03*
Y42390D02*
D03*
Y44930D02*
D03*
Y28210D02*
D03*
Y30750D02*
D03*
Y33290D02*
D03*
D16*
X25620Y45910D02*
D03*
X10380D02*
D03*
X25620Y5270D02*
D03*
X10380D02*
D03*
D17*
X13144Y57474D02*
D03*
X17104D02*
D03*
X21064D02*
D03*
X25024D02*
D03*
D18*
X53760Y10030D02*
D03*
X51220D02*
D03*
X48680D02*
D03*
X46140D02*
D03*
X43600D02*
D03*
X53760Y35030D02*
D03*
X51220D02*
D03*
X48680D02*
D03*
X46140D02*
D03*
X43600D02*
D03*
X66830Y24210D02*
D03*
Y19130D02*
D03*
X61530Y24210D02*
D03*
Y19130D02*
D03*
X66830Y43070D02*
D03*
Y37990D02*
D03*
X61530Y43070D02*
D03*
Y37990D02*
D03*
X46250Y23000D02*
D03*
X54550D02*
D03*
Y48000D02*
D03*
X50400Y23000D02*
D03*
Y48000D02*
D03*
X46250D02*
D03*
X42100Y23000D02*
D03*
Y48000D02*
D03*
X43600Y30220D02*
D03*
X46140D02*
D03*
X43600Y5220D02*
D03*
X46140D02*
D03*
X60507Y59440D02*
D03*
X67007D02*
D03*
X60507Y54940D02*
D03*
X67007D02*
D03*
D19*
X66830Y21670D02*
D03*
X61530D02*
D03*
X66830Y40530D02*
D03*
X61530D02*
D03*
X46250Y20460D02*
D03*
X54550D02*
D03*
Y45460D02*
D03*
X50400Y20460D02*
D03*
Y45460D02*
D03*
X46250D02*
D03*
X42100Y20460D02*
D03*
Y45460D02*
D03*
D20*
X31000Y48000D02*
D03*
Y45460D02*
D03*
Y42920D02*
D03*
Y40380D02*
D03*
X38620Y30220D02*
D03*
Y32760D02*
D03*
Y35300D02*
D03*
Y37840D02*
D03*
Y40380D02*
D03*
Y42920D02*
D03*
Y45460D02*
D03*
Y48000D02*
D03*
X31000Y23000D02*
D03*
Y20460D02*
D03*
Y17920D02*
D03*
Y15380D02*
D03*
X38620Y5220D02*
D03*
Y7760D02*
D03*
Y10300D02*
D03*
Y12840D02*
D03*
Y15380D02*
D03*
Y17920D02*
D03*
Y20460D02*
D03*
Y23000D02*
D03*
D21*
X31000Y37840D02*
D03*
Y35300D02*
D03*
Y32760D02*
D03*
Y30220D02*
D03*
Y12840D02*
D03*
Y10300D02*
D03*
Y7760D02*
D03*
Y5220D02*
D03*
D22*
X82000Y5000D02*
D03*
Y59500D02*
D03*
X4500D02*
D03*
Y5000D02*
D03*
D23*
X64100Y12900D02*
D03*
X16256Y38227D02*
D03*
X24892Y48387D02*
D03*
%TF.MD5,495d90b086df29d57175de8e10815a29*%
M02*
