M48
;Layer_Color=9474304
;FILE_FORMAT=4:3
METRIC,LZ
;TYPE=PLATED
T1F00S00C0.711
T2F00S00C0.850
T3F00S00C0.900
T4F00S00C0.950
T5F00S00C1.000
T6F00S00C1.200
T7F00S00C1.800
T8F00S00C2.200
T9F00S00C4.000
%
T01
X00641Y00129
X0016256Y0038227
X0024892Y0048387
T02
X007769Y00506
Y00536
X008531
Y00506
X005278Y005338
X005024
X00477
X004516
X004262
X004008
X003754
X0035
Y0061
X003754
X004008
X004262
X004516
X00477
X005024
X005278
T03
X00436Y000522
X004614
Y001003
X004868
X005122
X005376
X00436
X005455Y002046
Y0023
X006153Y002421
Y002167
Y001913
X006683
Y002167
Y002421
Y003799
Y004053
Y004307
X006153
Y004053
Y003799
X005455Y004546
Y0048
X00504
Y004546
X004625
Y0048
X00421
Y004546
X00436Y003503
X004614
X004868
X005122
X005376
X004614Y003022
X00436
X00421Y0023
Y002046
X004625
Y0023
X00504
Y002046
T04
X0031Y000522
Y000776
Y00103
Y001284
X003862
Y00103
Y000776
Y000522
Y001538
Y001792
Y002046
Y0023
Y003022
Y003276
Y00353
Y003784
Y004038
Y004292
Y004546
Y0048
X0031
Y004546
Y004292
Y004038
Y003784
Y00353
Y003276
Y003022
Y0023
Y002046
Y001792
Y001538
T05
X001038Y000781
Y001035
Y001289
X002562
Y001035
Y000781
Y001543
Y001797
Y002051
Y002305
Y002559
Y002813
Y003067
Y003321
Y003575
Y003829
Y004083
Y004337
X002055Y004327
X001801
X001547
Y004581
X001801
X002055
X001038Y004337
Y004083
Y003829
Y003575
Y003321
Y003067
Y002813
Y002559
Y002305
Y002051
Y001797
Y001543
X0060507Y005494
Y005944
X0067007
Y005494
T06
X0082Y002821
Y003075
Y003329
Y003985
Y004239
Y004493
T07
X001038Y000527
X002562
Y004591
X001038
T08
X0013144Y0057474
X0017104
X0021064
X0025024
T09
X00045Y0005
X0082
X00045Y00595
X0082
M30
