%TF.GenerationSoftware,Altium Limited,Altium Designer,21.8.1 (53)*%
G04 Layer_Physical_Order=1*
G04 Layer_Color=255*
%FSLAX43Y43*%
%MOMM*%
%TF.SameCoordinates,EC881490-E286-48FB-906B-DE43019234B0*%
%TF.FilePolarity,Positive*%
%TF.FileFunction,Copper,L1,Top,Signal*%
%TF.Part,Single*%
G01*
G75*
%TA.AperFunction,NonConductor*%
%ADD10C,0.203*%
%ADD11C,0.254*%
%TA.AperFunction,Conductor*%
%ADD12C,0.800*%
%ADD13C,0.400*%
%TA.AperFunction,ComponentPad*%
%ADD14C,1.400*%
%ADD15C,1.800*%
%ADD16C,1.524*%
%ADD17C,3.200*%
%ADD18C,1.500*%
%ADD19R,1.500X1.500*%
%ADD20C,1.425*%
%ADD21R,1.425X1.425*%
%TA.AperFunction,ViaPad*%
%ADD22C,6.000*%
%ADD23C,1.270*%
D10*
X84904Y64017D02*
X86017Y62904D01*
X84761Y61772D02*
X86017Y63028D01*
X85622Y64017D02*
X86017Y63622D01*
X85356Y60929D02*
X86017Y61591D01*
X85121Y61413D02*
X86017Y62310D01*
X84402Y62131D02*
X86017Y63746D01*
X84185Y64017D02*
X86017Y62185D01*
X82748Y64017D02*
X86017Y60748D01*
X83467Y64017D02*
X86017Y61467D01*
X85356Y58774D02*
X86017Y59436D01*
X85356Y59255D02*
X86017Y58593D01*
X85356Y59973D02*
X86017Y59311D01*
X85356Y58536D02*
X86017Y57875D01*
X85356Y58056D02*
X86017Y58717D01*
X85356Y60692D02*
X86017Y60030D01*
X85356Y60211D02*
X86017Y60873D01*
X85354Y57820D02*
X86017Y57156D01*
X85356Y59492D02*
X86017Y60154D01*
X81535Y62856D02*
X82696Y64017D01*
X82030D02*
X83192Y62856D01*
X81311Y64017D02*
X82473Y62856D01*
X82971D02*
X84133Y64017D01*
X82253Y62856D02*
X83415Y64017D01*
X80593D02*
X81755Y62856D01*
X79875Y64017D02*
X81036Y62856D01*
X80816D02*
X81978Y64017D01*
X79156D02*
X80320Y62854D01*
X84043Y62490D02*
X85570Y64017D01*
X83678Y62856D02*
X85356Y61178D01*
X83684Y62850D02*
X84852Y64017D01*
X85356Y57822D02*
Y61178D01*
X80322Y62856D02*
X83678D01*
X78644Y61178D02*
X80322Y62856D01*
X84829Y54656D02*
X86017Y55844D01*
X85548Y54656D02*
X86017Y55125D01*
X84994Y57461D02*
X86017Y56438D01*
Y54476D02*
Y64017D01*
X85838Y54656D02*
X86017Y54476D01*
X84276Y56742D02*
X86017Y55001D01*
X84635Y57102D02*
X86017Y55719D01*
X78746Y50727D02*
X86017Y57999D01*
X84782Y54656D02*
X85838D01*
X85600Y52544D02*
X86017Y52127D01*
X85421Y51656D02*
X86017Y52252D01*
X85838Y52544D02*
X86017Y52724D01*
Y51476D02*
Y52724D01*
X85838Y51656D02*
X86017Y51476D01*
X84782Y52544D02*
X85838D01*
X84882D02*
X85771Y51656D01*
X78676Y53003D02*
X86017Y45661D01*
X78746Y53652D02*
X86017Y46380D01*
X83444Y56144D02*
X85356Y58056D01*
X83678Y56144D02*
X85356Y57822D01*
X83917Y56383D02*
X85644Y54656D01*
X82000Y56144D02*
X84254Y53890D01*
X80322Y56144D02*
X83678D01*
X78650Y54224D02*
X80571Y56144D01*
X81282D02*
X84254Y53172D01*
X78746Y53601D02*
X81289Y56144D01*
X84254Y54081D02*
X84829Y54656D01*
X84254Y54128D02*
X84782Y54656D01*
X84254Y53072D02*
X84782Y52544D01*
X84254Y53072D02*
Y54128D01*
X83437Y56144D02*
X84926Y54656D01*
X82719Y56144D02*
X84495Y54368D01*
X80563Y56144D02*
X85052Y51656D01*
X78746Y53072D02*
Y54128D01*
X77719Y64017D02*
X79602Y62135D01*
X78438Y64017D02*
X79961Y62494D01*
X77001Y64017D02*
X79242Y61776D01*
X78644Y58063D02*
X80563Y56144D01*
X78644Y57822D02*
Y61178D01*
X71972Y64017D02*
X84558Y51431D01*
X76283Y64017D02*
X78883Y61417D01*
X70535Y64017D02*
X84254Y50298D01*
X71254Y64017D02*
X84254Y51017D01*
X78644Y57822D02*
X80322Y56144D01*
X78291Y54583D02*
X80087Y56379D01*
X78218Y52544D02*
X78746Y53072D01*
X78587Y51287D02*
X83444Y56144D01*
X78227Y51646D02*
X82726Y56144D01*
X77645Y54656D02*
X79728Y56739D01*
X78218Y54656D02*
X78746Y54128D01*
X77210Y48473D02*
X86017Y57281D01*
X77519Y51656D02*
X82008Y56144D01*
X74846Y64017D02*
X78644Y60219D01*
X74127Y64017D02*
X78644Y59500D01*
X75564Y64017D02*
X78644Y60937D01*
X73409Y64017D02*
X78644Y58782D01*
X68380Y64017D02*
X77742Y54656D01*
X67661Y64017D02*
X77093Y54586D01*
X68113Y55181D02*
X76949Y64017D01*
X68113Y54463D02*
X77667Y64017D01*
X66943D02*
X76734Y54227D01*
X77768Y52544D02*
X78218D01*
X77162Y51656D02*
X78218D01*
X77162Y54656D02*
X78218D01*
X77373Y52150D02*
X77868Y51656D01*
X77014Y51791D02*
X77156Y51649D01*
X72690Y64017D02*
X78644Y58063D01*
X76634Y54128D02*
X77162Y54656D01*
X76579Y51356D02*
X77768Y52544D01*
X75172Y52216D02*
X76634Y53678D01*
X69817Y64017D02*
X86017Y47817D01*
X69098Y64017D02*
X86017Y47098D01*
X62109Y44149D02*
X78644Y60684D01*
X65378Y43826D02*
X79010Y57457D01*
X64660Y43826D02*
X78650Y57816D01*
X61418Y44176D02*
X81260Y64017D01*
X58942Y43856D02*
X79104Y64017D01*
X60379Y43856D02*
X80541Y64017D01*
X59661Y43856D02*
X79823Y64017D01*
X78356Y46745D02*
X84469Y52858D01*
X78356Y46027D02*
X84873Y52544D01*
X78288Y47396D02*
X84254Y53362D01*
X78317Y52644D02*
X86017Y44943D01*
X78356Y45308D02*
X85592Y52544D01*
X77569Y48114D02*
X86017Y56562D01*
X77929Y47755D02*
X84254Y54081D01*
X77733Y52509D02*
X86017Y44225D01*
X66447Y44176D02*
X79369Y57098D01*
X62469Y43790D02*
X78644Y59965D01*
X63941Y43826D02*
X78644Y58529D01*
X61455Y58729D02*
X76844Y43340D01*
X62636Y43238D02*
X78644Y59247D01*
X61096Y58370D02*
X76844Y42621D01*
X58224Y43856D02*
X78386Y64017D01*
X60413Y58334D02*
X76844Y41903D01*
X58426Y58884D02*
X76844Y40466D01*
X59144Y58884D02*
X76844Y41184D01*
X68032Y54307D02*
X76844Y45495D01*
X68113Y54945D02*
X76844Y46213D01*
X67068Y53834D02*
X76844Y44058D01*
X67673Y53948D02*
X76844Y44777D01*
X61549Y54324D02*
X76844Y39029D01*
X61613Y54979D02*
X76844Y39748D01*
X60602Y53834D02*
X76844Y37592D01*
X61190Y53965D02*
X76844Y38311D01*
X85838Y49544D02*
X86017Y49724D01*
X84782Y49544D02*
X85838D01*
X84782Y51656D02*
X85838D01*
X85008Y49544D02*
X86017Y48535D01*
X85727Y49544D02*
X86017Y49254D01*
X84254Y50072D02*
X84782Y49544D01*
X84254Y51128D02*
X84782Y51656D01*
X82107Y46186D02*
X85465Y49544D01*
X81388Y46186D02*
X84765Y49562D01*
X83256Y44461D02*
X86017Y47223D01*
X83256Y45550D02*
X86017Y42788D01*
X83256Y45179D02*
X86017Y47941D01*
X83256Y44831D02*
X86017Y42069D01*
X83256Y42306D02*
X86017Y45067D01*
X83086Y45728D02*
X86017Y48660D01*
X82726Y46087D02*
X86017Y49378D01*
X83253Y43021D02*
X86017Y45786D01*
X82893Y43380D02*
X86017Y46504D01*
X84254Y50072D02*
Y51128D01*
X82628Y46186D02*
X83256Y45558D01*
X81372Y46186D02*
X82628D01*
X83256Y44302D02*
Y45558D01*
X82620Y46186D02*
X83256Y45550D01*
X80744Y45542D02*
X81388Y46186D01*
X80744Y45558D02*
X81372Y46186D01*
X80744Y44302D02*
X81372Y43674D01*
X80744Y44302D02*
Y45558D01*
X82628Y43674D02*
X83256Y44302D01*
X82628Y43646D02*
X83256Y43018D01*
Y41762D02*
Y43018D01*
X81372Y43646D02*
X82628D01*
X81372Y43674D02*
X82628D01*
X80744Y41762D02*
Y43018D01*
X83060Y40673D02*
X86017Y43631D01*
X83256Y40150D02*
X86017Y42912D01*
X83161Y44207D02*
X86017Y41351D01*
X83256Y39802D02*
X86017Y37040D01*
X83256Y42676D02*
X86017Y39914D01*
X82802Y43848D02*
X86017Y40632D01*
X82701Y41032D02*
X86017Y44349D01*
X82635Y41141D02*
X86017Y37759D01*
X82994Y41501D02*
X86017Y38477D01*
X82827Y38794D02*
X86017Y35604D01*
X83013Y34160D02*
X86017Y37165D01*
X83186Y39153D02*
X86017Y36322D01*
X83256Y32966D02*
X86017Y35728D01*
X83256Y33685D02*
X86017Y36446D01*
X81961Y34546D02*
X86017Y38602D01*
X82308Y38594D02*
X86017Y34885D01*
X81590Y38594D02*
X86017Y34167D01*
X82654Y34520D02*
X86017Y37883D01*
X82628Y41134D02*
X83256Y41762D01*
X81372Y41106D02*
X82628D01*
X83256Y41957D02*
X86017Y39196D01*
X83256Y39432D02*
X86017Y42194D01*
X81372Y41134D02*
X82628D01*
X80744Y41762D02*
X81372Y41134D01*
X80872Y40606D02*
X81372Y41106D01*
X80837Y40606D02*
X81369Y41138D01*
X83256Y39222D02*
Y40478D01*
X82628Y41106D02*
X83256Y40478D01*
X82628Y34546D02*
X83256Y33918D01*
X82628Y38594D02*
X83256Y39222D01*
X81372Y38594D02*
X82628D01*
X80872Y39094D02*
X81372Y38594D01*
Y34546D02*
X82628D01*
X80744Y33918D02*
X81372Y34546D01*
X78739Y50066D02*
X82620Y46186D01*
X78380Y49707D02*
X81901Y46186D01*
X78356Y46857D02*
X80744Y44469D01*
X78746Y50778D02*
X86017Y43506D01*
X78356Y43871D02*
X84405Y49921D01*
X77824Y49544D02*
X81277Y46091D01*
X76805Y49844D02*
X80918Y45732D01*
X78356Y44590D02*
X84254Y50489D01*
X76306Y49626D02*
X80744Y45187D01*
X78356Y41716D02*
X80843Y44204D01*
X80744Y43018D02*
X81372Y43646D01*
X78356Y44702D02*
X80744Y42313D01*
X78356Y43984D02*
X81303Y41036D01*
X78356Y40998D02*
X81202Y43844D01*
X78356Y46139D02*
X81111Y43384D01*
X78356Y43153D02*
X80744Y45542D01*
X78356Y45421D02*
X80751Y43025D01*
X78356Y42435D02*
X80744Y44823D01*
X78218Y51656D02*
X78746Y51128D01*
Y50072D02*
Y51128D01*
X76862Y51356D02*
X77162Y51656D01*
X78218Y49544D02*
X78746Y50072D01*
X76862Y49844D02*
X77162Y49544D01*
X76579Y51356D02*
X76862D01*
X76655Y51432D02*
X76731Y51356D01*
X76492Y49192D02*
X77003Y49703D01*
X76306Y49844D02*
X76862D01*
X77978Y47706D02*
X78356Y47328D01*
X77978Y47706D02*
X78356Y47328D01*
Y46572D02*
Y47328D01*
Y46572D02*
Y47328D01*
X77162Y49544D02*
X78218D01*
X76851Y48832D02*
X77563Y49544D01*
X76306Y49378D02*
X77978Y47706D01*
X75172Y48244D02*
X76844Y46572D01*
X80119Y40606D02*
X81010Y41497D01*
X79128Y40606D02*
X80872D01*
X79400D02*
X80744Y41950D01*
X80371Y39094D02*
X86017Y33448D01*
X79128Y39094D02*
X80872D01*
X78356Y43265D02*
X80944Y40677D01*
X78356Y36687D02*
X80763Y39094D01*
X78356Y33095D02*
X86017Y40757D01*
X78356Y33813D02*
X86017Y41475D01*
X78356Y37518D02*
X81350Y34523D01*
X78356Y36800D02*
X80991Y34164D01*
X78356Y36081D02*
X80744Y33692D01*
X79653Y39094D02*
X86017Y32730D01*
X78356Y35363D02*
X80744Y32974D01*
X78356Y35250D02*
X81700Y38594D01*
X78356Y35969D02*
X81177Y38790D01*
X78356Y34532D02*
X82418Y38594D01*
X78356Y38236D02*
X82046Y34546D01*
X78356Y42547D02*
X80297Y40606D01*
X78356Y41829D02*
X79579Y40606D01*
X78356Y41110D02*
X78860Y40606D01*
X78682D02*
X80744Y42668D01*
X78356Y40589D02*
Y46572D01*
X76844Y39078D02*
Y46572D01*
X67936Y37762D02*
X76795Y46621D01*
X67772Y42354D02*
X76844Y33282D01*
X67936Y42909D02*
X76844Y34000D01*
X78372Y40606D02*
X79128D01*
X78372D02*
X79128D01*
X78356Y37406D02*
X80044Y39094D01*
X78356Y38124D02*
X79326Y39094D01*
X76844Y38322D02*
Y39078D01*
Y38322D02*
Y39078D01*
X78356Y38322D02*
X79128Y39094D01*
X76844Y38322D02*
Y39078D01*
X68004Y60101D02*
X71920Y64017D01*
X68113Y59492D02*
X72638Y64017D01*
X67645Y60461D02*
X71202Y64017D01*
X67909Y55696D02*
X76231Y64017D01*
X67540Y56046D02*
X75512Y64017D01*
X66822Y56046D02*
X74794Y64017D01*
X67011Y60546D02*
X70483Y64017D01*
X66225D02*
X76599Y53643D01*
X65506Y64017D02*
X76240Y53283D01*
X67560Y56046D02*
X68113Y55493D01*
Y54387D02*
Y55493D01*
Y58887D02*
Y59993D01*
X76634Y53678D02*
Y54128D01*
X67560Y53834D02*
X68113Y54387D01*
X67541Y60546D02*
X68113Y59974D01*
X67560Y60546D02*
X68113Y59993D01*
X67484Y53834D02*
X68113Y54463D01*
X67560Y58334D02*
X68113Y58887D01*
X64069Y64017D02*
X67541Y60546D01*
X66454D02*
X67560D01*
X63351Y64017D02*
X66823Y60546D01*
X65901Y59993D02*
X66454Y60546D01*
X65901Y58887D02*
Y59993D01*
X62632Y64017D02*
X66279Y60371D01*
X61914Y64017D02*
X65920Y60011D01*
X61613Y55147D02*
X65901Y59436D01*
X61613Y58887D02*
Y59993D01*
X66454Y58334D02*
X67560D01*
X66454Y56046D02*
X67560D01*
X65901Y54387D02*
Y55493D01*
X66454Y53834D02*
X67560D01*
X65901Y54387D02*
X66454Y53834D01*
X65901Y55493D02*
X66454Y56046D01*
X65901Y58887D02*
X66454Y58334D01*
X61613Y54428D02*
X65986Y58802D01*
X61613Y59290D02*
X65901Y55001D01*
X74794Y51838D02*
X75172Y52216D01*
X74794Y51838D02*
X75172Y52216D01*
X68113Y59256D02*
X75162Y52206D01*
X76306Y49724D02*
X76426Y49844D01*
X76306Y49378D02*
Y49844D01*
X64788Y64017D02*
X75881Y52924D01*
X68113Y59974D02*
X75522Y52565D01*
X67938Y58712D02*
X74803Y51847D01*
X67936Y43509D02*
X74794Y50368D01*
Y48622D02*
X75172Y48244D01*
X67936Y40636D02*
X75358Y48058D01*
X74794Y48622D02*
X75172Y48244D01*
X67936Y38480D02*
X76436Y46981D01*
X67936Y39917D02*
X75718Y47699D01*
X67499Y41636D02*
X74794Y48931D01*
X67936Y42791D02*
X74794Y49650D01*
X67608Y38871D02*
X76077Y47340D01*
X67936Y41354D02*
X74999Y48418D01*
X74794Y51082D02*
Y51838D01*
Y50878D02*
Y51082D01*
Y51838D01*
Y50122D02*
Y50878D01*
Y50122D02*
Y50878D01*
X66879Y58334D02*
X74794Y50419D01*
X67578Y58353D02*
X74794Y51137D01*
X67633Y43925D02*
X74794Y51086D01*
X67165Y44176D02*
X74794Y51805D01*
Y49378D02*
Y50122D01*
Y50878D01*
Y48622D02*
Y49378D01*
Y48622D02*
Y49378D01*
X66277Y44176D02*
X67383D01*
X65927Y43826D02*
X66277Y44176D01*
X67383D02*
X67936Y43623D01*
X62083Y44176D02*
X62636Y43623D01*
X60546Y60546D02*
X64017Y64017D01*
X61162Y60443D02*
X64736Y64017D01*
X60546Y60546D02*
X64017Y64017D01*
X61196D02*
X65901Y59312D01*
X61521Y60084D02*
X65454Y64017D01*
X58559Y59996D02*
X62581Y64017D01*
X57840Y59996D02*
X61862Y64017D01*
X57604D02*
X66015Y55606D01*
X59277Y59996D02*
X63299Y64017D01*
X61613Y59457D02*
X66173Y64017D01*
X61067Y56038D02*
X69046Y64017D01*
X61060Y58334D02*
X61613Y58887D01*
X61426Y55679D02*
X69765Y64017D01*
X61060Y56046D02*
X61613Y55493D01*
X59040Y64017D02*
X67012Y56046D01*
X61060Y60546D02*
X61613Y59993D01*
X60356Y56046D02*
X68328Y64017D01*
X58322D02*
X66374Y55965D01*
X57122Y59996D02*
X61144Y64017D01*
X59954Y60546D02*
X61060D01*
X59404Y59996D02*
X59954Y60546D01*
X59404Y58884D02*
X59954Y58334D01*
X57051Y58884D02*
X59404D01*
X56885Y64017D02*
X60357Y60546D01*
X56495Y59996D02*
X57051D01*
X59404D01*
X56495D02*
X57051D01*
X59954Y56046D02*
X61060D01*
X59954Y58334D02*
X61060D01*
X59401Y55493D02*
X59954Y56046D01*
X57708Y58884D02*
X60546Y56046D01*
X57020Y58854D02*
X59891Y55982D01*
X56661Y58494D02*
X59532Y55623D01*
X56302Y58135D02*
X59401Y55035D01*
X60477Y64017D02*
X74794Y49700D01*
X61019Y53834D02*
X61613Y54428D01*
Y54387D02*
Y55493D01*
X59759Y64017D02*
X74794Y48982D01*
X57050Y46274D02*
X65901Y55125D01*
X57050Y48429D02*
X66955Y58334D01*
X57050Y49147D02*
X66346Y58443D01*
X57050Y46992D02*
X74075Y64017D01*
X57050Y47711D02*
X73357Y64017D01*
X57050Y48766D02*
X61640Y44176D01*
X60977D02*
X62083D01*
X61060Y53834D02*
X61613Y54387D01*
X57506Y43856D02*
X67484Y53834D01*
X57050Y49484D02*
X63241Y43293D01*
X57050Y44837D02*
X66251Y54038D01*
X57050Y45555D02*
X65901Y54407D01*
X57050Y44118D02*
X66766Y53834D01*
X57050Y50203D02*
X63601Y43652D01*
X59954Y53834D02*
X61060D01*
X59401Y54387D02*
X59954Y53834D01*
X56617Y50870D02*
X59768Y54021D01*
X59401Y54387D02*
Y55493D01*
X57050Y49866D02*
X61019Y53834D01*
X57050Y50584D02*
X60300Y53834D01*
X57050Y45892D02*
X59086Y43856D01*
X57050Y45174D02*
X58368Y43856D01*
X60657D02*
X60977Y44176D01*
X57050Y44455D02*
X57650Y43856D01*
X57050Y48047D02*
X60949Y44148D01*
X57050Y47329D02*
X60523Y43856D01*
X57050Y46610D02*
X59805Y43856D01*
X57050Y43792D02*
Y50870D01*
X67936Y42517D02*
Y43623D01*
X67383Y41964D02*
X67936Y42517D01*
X65927Y42314D02*
X66277Y41964D01*
X65657Y42314D02*
X66335Y41636D01*
X64938Y42314D02*
X65724Y41528D01*
X64530Y42314D02*
X65927D01*
X64530Y43826D02*
X65927D01*
X64256Y40548D02*
X65975Y42267D01*
X64375Y42159D02*
X65724Y40810D01*
X66780Y41636D02*
X67109Y41964D01*
X66277D02*
X67383D01*
X66725D02*
X67054Y41636D01*
X67772D02*
X67936Y41472D01*
X67413Y41995D02*
X67772Y41636D01*
X65724D02*
X67936D01*
X66062D02*
X66391Y41964D01*
X64256Y39829D02*
X65724Y41298D01*
X64256Y41560D02*
X65724Y40091D01*
X63774Y43826D02*
X64530D01*
X63774D02*
X64530D01*
X63396Y43448D02*
X63774Y43826D01*
X63396Y43448D02*
X63774Y43826D01*
X63122Y43174D02*
X63396Y43448D01*
X62744Y42796D02*
X63122Y43174D01*
X62636Y43180D02*
X62882Y42934D01*
X62744Y42796D02*
X63122Y43174D01*
X62636Y42517D02*
Y43623D01*
X62744Y42040D02*
Y42796D01*
X64256Y42040D02*
X64530Y42314D01*
X62744Y42040D02*
Y42796D01*
X64256Y41266D02*
X65304Y42314D01*
X64256Y41985D02*
X64585Y42314D01*
X62636Y41025D02*
X62744Y40916D01*
X62636Y42520D02*
X62744Y42629D01*
X62636Y40306D02*
X62744Y40198D01*
X62636Y40365D02*
X62744Y40473D01*
X67936Y39424D02*
Y41636D01*
X65724Y39424D02*
X67936D01*
X66391D02*
X66720Y39096D01*
X67114D02*
X67443Y39424D01*
X66396Y39096D02*
X66724Y39424D01*
X64256Y40842D02*
X66139Y38958D01*
X64256Y40123D02*
X65780Y38599D01*
X64256Y37674D02*
X66006Y39424D01*
X64256Y39405D02*
X65724Y37936D01*
X67383Y39096D02*
X67936Y38543D01*
Y37437D02*
Y38543D01*
X66277Y39096D02*
X67383D01*
Y36884D02*
X67936Y37437D01*
X66277Y36884D02*
X67383D01*
X65724Y38543D02*
X66277Y39096D01*
X65724Y37437D02*
Y38543D01*
Y37437D02*
X66277Y36884D01*
X64256Y35519D02*
X65949Y37212D01*
X64256Y39111D02*
X65724Y40580D01*
X64256Y38392D02*
X65724Y39861D01*
Y39424D02*
Y41636D01*
X64256Y36956D02*
X65724Y38424D01*
X64256Y35684D02*
Y42040D01*
X62636Y39588D02*
X62744Y39479D01*
X62636Y39646D02*
X62744Y39755D01*
Y35684D02*
Y42040D01*
X62636Y37437D02*
Y38543D01*
X64256Y36237D02*
X65724Y37706D01*
X64256Y34928D02*
Y35684D01*
X63878Y34550D02*
X64256Y34928D01*
Y35684D01*
X62636Y38151D02*
X62744Y38042D01*
X62636Y38209D02*
X62744Y38318D01*
X63878Y34550D02*
X64256Y34928D01*
X62636Y37491D02*
X62744Y37600D01*
X62083Y41964D02*
X62636Y42517D01*
X62608Y42489D02*
X62744Y42353D01*
X62080Y41964D02*
X62636Y42520D01*
X62249Y42130D02*
X62744Y41634D01*
X61751Y41636D02*
X62080Y41964D01*
X60978D02*
X61306Y41636D01*
X60597Y42344D02*
X60977Y41964D01*
X61696D02*
X62025Y41636D01*
X61033D02*
X61362Y41964D01*
X62470Y41636D02*
X62744Y41910D01*
X62636Y41083D02*
X62744Y41192D01*
X62636Y39424D02*
Y41636D01*
X61367Y39096D02*
X61695Y39424D01*
X61362D02*
X61691Y39096D01*
X60424Y41636D02*
X62636D01*
X60977Y41964D02*
X62083D01*
X60424Y39424D02*
X62636D01*
X60977Y39096D02*
X62083D01*
X57869Y43856D02*
X60657D01*
X57779Y41973D02*
X58150Y42344D01*
X57779Y42254D02*
X57869Y42344D01*
X57779Y40536D02*
X59587Y42344D01*
X57779Y41255D02*
X58868Y42344D01*
X57114Y43856D02*
X57869D01*
X57114D02*
X57869D01*
X57050Y43792D02*
X57114Y43856D01*
X57050Y43792D02*
X57114Y43856D01*
X59879Y42344D02*
X60588Y41636D01*
X59161Y42344D02*
X60424Y41081D01*
Y39424D02*
Y41636D01*
X58442Y42344D02*
X60424Y40362D01*
X57869Y42344D02*
X60597D01*
X57779Y39818D02*
X60305Y42344D01*
X57779Y39100D02*
X60810Y42131D01*
X57797Y42272D02*
X60424Y39644D01*
X62081Y39424D02*
X62744Y38761D01*
X62443Y38735D02*
X62744Y39036D01*
X62084Y39094D02*
X62414Y39424D01*
X62029Y36884D02*
X62636Y37491D01*
X62083Y39096D02*
X62636Y38543D01*
X57779Y39416D02*
X62128Y35067D01*
X60424Y37489D02*
X61029Y36884D01*
X57779Y38698D02*
X61768Y34708D01*
X57779Y37979D02*
X61409Y34349D01*
X62633Y37435D02*
X62744Y37324D01*
X62274Y37076D02*
X62744Y36605D01*
X62083Y36884D02*
X62636Y37437D01*
X61747Y36884D02*
X62744Y35887D01*
X61029Y36884D02*
X62487Y35426D01*
X60977Y36884D02*
X62083D01*
X60424Y37437D02*
X60977Y36884D01*
X57779Y33352D02*
X61311Y36884D01*
X57779Y37261D02*
X61050Y33989D01*
X57779Y40134D02*
X60424Y37489D01*
X60644Y39424D02*
X60975Y39093D01*
X57779Y37663D02*
X60424Y40309D01*
X57779Y36226D02*
X60977Y39424D01*
X57779Y36944D02*
X60424Y39590D01*
X57779Y41571D02*
X60616Y38734D01*
X57779Y38381D02*
X60424Y41027D01*
X57779Y40853D02*
X60424Y38207D01*
X57779Y33398D02*
Y42254D01*
X60424Y38543D02*
X60977Y39096D01*
X60424Y37437D02*
Y38543D01*
X57779Y35824D02*
X60332Y33271D01*
X57779Y35106D02*
X59972Y32912D01*
X57779Y34789D02*
X60426Y37436D01*
X57779Y35508D02*
X60424Y38153D01*
X57779Y34071D02*
X60785Y37077D01*
X57779Y36542D02*
X60691Y33630D01*
X82821Y31813D02*
X86017Y35009D01*
X83180Y31454D02*
X86017Y34291D01*
X83256Y32662D02*
Y33918D01*
Y33336D02*
X86017Y30575D01*
X83256Y30811D02*
X86017Y33573D01*
X79031Y38998D02*
X86017Y32011D01*
X82628Y32034D02*
X83256Y32662D01*
X82628Y29465D02*
X86017Y32854D01*
X78672Y38639D02*
X86017Y31293D01*
X83233Y32640D02*
X86017Y29856D01*
X82628Y29494D02*
X83256Y30122D01*
Y31378D01*
X82988Y29106D02*
X86017Y32136D01*
X82874Y32281D02*
X86017Y29138D01*
X82628Y32006D02*
X83256Y31378D01*
X81372Y29466D02*
X82628D01*
X81372Y29494D02*
X82628D01*
X81372Y32034D02*
X82628D01*
X81372Y32006D02*
X82628D01*
X80744Y31378D02*
X81372Y32006D01*
X80744Y30122D02*
Y31378D01*
Y32662D02*
X81372Y32034D01*
X80744Y32662D02*
Y33918D01*
X78537Y28966D02*
X80744Y31173D01*
X78356Y31052D02*
X80442Y28966D01*
X80744Y30122D02*
X81372Y29494D01*
X80872Y28966D02*
X81372Y29466D01*
X80692Y28966D02*
X81296Y29570D01*
X78356Y28966D02*
X80872D01*
X78356Y30334D02*
X79724Y28966D01*
X79974D02*
X80937Y29929D01*
X79255Y28966D02*
X80744Y30455D01*
X83256Y31181D02*
X86017Y28419D01*
X83256Y27937D02*
X86017Y30699D01*
X83256Y28656D02*
X86017Y31417D01*
Y483D02*
Y49724D01*
X83256Y30463D02*
X86017Y27701D01*
X78356Y21600D02*
X86017Y29262D01*
X78356Y22319D02*
X86017Y29981D01*
X78356Y20163D02*
X86017Y27825D01*
X78356Y20882D02*
X86017Y28544D01*
X82900Y27226D02*
X86017Y24109D01*
X82453Y26954D02*
X86017Y23390D01*
X83256Y27589D02*
X86017Y24827D01*
X80517Y27454D02*
X86017Y21954D01*
X81735Y26954D02*
X86017Y22672D01*
X79080Y27454D02*
X86017Y20517D01*
X79798Y27454D02*
X86017Y21235D01*
X78356Y19445D02*
X86017Y27107D01*
X78361Y27454D02*
X86017Y19798D01*
X83067Y29933D02*
X86017Y26983D01*
X82628Y26954D02*
X83256Y27582D01*
Y28838D01*
Y28307D02*
X86017Y25546D01*
X82707Y29574D02*
X86017Y26264D01*
X82628Y29466D02*
X83256Y28838D01*
X78356Y27348D02*
X78462Y27454D01*
X78356Y26629D02*
X79181Y27454D01*
X78356Y9878D02*
Y27454D01*
X81372Y26954D02*
X82628D01*
X80872Y27454D02*
X81372Y26954D01*
X78356Y23037D02*
X82273Y26954D01*
X78356Y23756D02*
X81554Y26954D01*
X78356Y27454D02*
X80872D01*
X78356Y25911D02*
X79899Y27454D01*
X78356Y24474D02*
X81104Y27222D01*
X78356Y25192D02*
X80618Y27454D01*
X78356Y32377D02*
X86017Y40038D01*
X78356Y31658D02*
X86017Y39320D01*
X78356Y34644D02*
X81183Y31817D01*
X78356Y33926D02*
X80824Y31457D01*
X78356Y28966D02*
Y38322D01*
X58287Y27394D02*
X76844Y45952D01*
X67439Y36940D02*
X76844Y27534D01*
X64256Y36531D02*
X76844Y23942D01*
X66776Y36884D02*
X76844Y26816D01*
X78356Y32489D02*
X81379Y29466D01*
X78356Y29503D02*
X81130Y32277D01*
X78356Y30221D02*
X80770Y32636D01*
X78356Y31771D02*
X81016Y29110D01*
X78356Y29615D02*
X79005Y28966D01*
X78356Y33207D02*
X80744Y30819D01*
X78356Y30940D02*
X80744Y33329D01*
X76844Y27822D02*
Y28578D01*
Y27822D02*
Y28578D01*
X67828Y39424D02*
X76844Y30408D01*
X67110Y39424D02*
X76844Y29690D01*
X67936Y40035D02*
X76844Y31127D01*
X61955Y25316D02*
X76844Y40205D01*
X61237Y25316D02*
X76844Y40923D01*
X58287Y25958D02*
X76844Y44515D01*
X58287Y26676D02*
X76844Y45234D01*
X58287Y24521D02*
X76844Y43079D01*
X58287Y25239D02*
X76844Y43797D01*
Y28578D02*
Y38322D01*
X67798Y37299D02*
X76844Y28253D01*
X67936Y37880D02*
X76844Y28971D01*
X67936Y24112D02*
X76844Y33021D01*
Y27822D02*
Y28578D01*
X64256Y37968D02*
X76844Y25379D01*
X64256Y38686D02*
X76844Y26098D01*
X67543Y25156D02*
X76844Y34458D01*
X66984Y25316D02*
X76844Y35176D01*
X78356Y26742D02*
X86017Y19080D01*
X78356Y18727D02*
X86017Y26388D01*
X62543Y33215D02*
X76844Y18913D01*
Y9878D02*
Y27822D01*
X64180Y13891D02*
X76844Y26555D01*
X61824Y32497D02*
X76844Y17477D01*
X62183Y32856D02*
X76844Y18195D01*
X61106Y31778D02*
X76844Y16040D01*
X61465Y32138D02*
X76844Y16758D01*
X78356Y25305D02*
X86017Y17643D01*
X78356Y17290D02*
X86017Y24952D01*
X78356Y18008D02*
X86017Y25670D01*
X78356Y16571D02*
X86017Y24233D01*
X78356Y24586D02*
X86017Y16925D01*
X78356Y26023D02*
X86017Y18361D01*
X64747Y13739D02*
X76844Y25836D01*
X65091Y12646D02*
X76844Y24400D01*
X65091Y13364D02*
X76844Y25118D01*
X62636Y22404D02*
X76844Y36613D01*
X64256Y35094D02*
X76844Y22505D01*
X64256Y35813D02*
X76844Y23224D01*
X62636Y21686D02*
X76844Y35894D01*
X63979Y34652D02*
X76844Y21787D01*
X58287Y23802D02*
X76844Y42360D01*
X62636Y23841D02*
X76844Y38050D01*
X62289Y22776D02*
X76844Y37331D01*
X58287Y23084D02*
X76844Y41642D01*
X67936Y21957D02*
X76844Y30865D01*
X67936Y22675D02*
X76844Y31584D01*
X67936Y19083D02*
X76844Y27992D01*
X67876Y19742D02*
X76844Y28710D01*
X67517Y20101D02*
X76844Y29429D01*
X67318Y22776D02*
X76844Y32302D01*
X58287Y8716D02*
X76844Y27273D01*
X62902Y33574D02*
X76844Y19632D01*
X78356Y17402D02*
X86017Y9740D01*
X80916Y8356D02*
X86017Y13457D01*
X78356Y22431D02*
X86017Y14769D01*
X82353Y8356D02*
X86017Y12020D01*
X81635Y8356D02*
X86017Y12738D01*
X78356Y15853D02*
X86017Y23515D01*
X78356Y23868D02*
X86017Y16206D01*
X78356Y15135D02*
X86017Y22796D01*
X78356Y23150D02*
X86017Y15488D01*
X85171Y6863D02*
X86017Y7709D01*
X85356Y6329D02*
X86017Y6991D01*
X84811Y7222D02*
X86017Y8428D01*
X85356Y6092D02*
X86017Y5430D01*
X85356Y5611D02*
X86017Y6273D01*
X83734Y8300D02*
X86017Y10583D01*
X83071Y8356D02*
X86017Y11302D01*
X84452Y7581D02*
X86017Y9146D01*
X84093Y7940D02*
X86017Y9865D01*
X78356Y20276D02*
X86017Y12614D01*
X78356Y12261D02*
X86017Y19923D01*
X78356Y12979D02*
X86017Y20641D01*
X78356Y11542D02*
X86017Y19204D01*
X78356Y19557D02*
X86017Y11896D01*
X78356Y21713D02*
X86017Y14051D01*
X78356Y14416D02*
X86017Y22078D01*
X78356Y20994D02*
X86017Y13333D01*
X78356Y13698D02*
X86017Y21359D01*
X80322Y8356D02*
X83678D01*
X85356Y6678D01*
X78644D02*
X80322Y8356D01*
X78356Y10824D02*
X86017Y18486D01*
X78356Y18839D02*
X86017Y11177D01*
X78356Y10106D02*
X86017Y17767D01*
X78356Y18121D02*
X86017Y10459D01*
X85356Y4174D02*
X86017Y4836D01*
X85356Y4655D02*
X86017Y3993D01*
X85356Y5373D02*
X86017Y4711D01*
X85356Y3936D02*
X86017Y3275D01*
X85356Y3456D02*
X86017Y4117D01*
X85356Y4892D02*
X86017Y5554D01*
X85356Y3322D02*
Y6678D01*
X83101Y483D02*
X86017Y3399D01*
X83544Y1644D02*
X85356Y3456D01*
X84944Y2911D02*
X86017Y1838D01*
X84585Y2552D02*
X86017Y1119D01*
X85303Y3270D02*
X86017Y2556D01*
X85256Y483D02*
X86017Y1244D01*
X84538Y483D02*
X86017Y1962D01*
X83819Y483D02*
X86017Y2681D01*
X83678Y1644D02*
X85356Y3322D01*
X84226Y2192D02*
X85936Y483D01*
X83867Y1833D02*
X85217Y483D01*
X79509D02*
X80671Y1644D01*
X80463D02*
X81625Y483D01*
X80227D02*
X81389Y1644D01*
X78644Y3463D02*
X80463Y1644D01*
X78644Y3322D02*
Y6678D01*
Y3322D02*
X80322Y1644D01*
X78791Y483D02*
X80137Y1829D01*
X82383Y483D02*
X83544Y1644D01*
X81900D02*
X83062Y483D01*
X83337Y1644D02*
X84499Y483D01*
X82619Y1644D02*
X83781Y483D01*
X80322Y1644D02*
X83678D01*
X80946Y483D02*
X82108Y1644D01*
X81664Y483D02*
X82826Y1644D01*
X81182D02*
X82344Y483D01*
X78356Y13092D02*
X83092Y8356D01*
X78356Y12373D02*
X82373Y8356D01*
X78356Y11655D02*
X81655Y8356D01*
X78356Y13810D02*
X86017Y6148D01*
X78356Y14529D02*
X86017Y6867D01*
X78356Y16684D02*
X86017Y9022D01*
X78356Y9387D02*
X86017Y17049D01*
X78356Y15247D02*
X86017Y7585D01*
X78356Y15965D02*
X86017Y8304D01*
X78356Y10936D02*
X80936Y8356D01*
X78356Y10218D02*
X80270Y8303D01*
X77978Y8744D02*
X78356Y9122D01*
Y9500D02*
X79911Y7944D01*
X78185Y8952D02*
X79552Y7585D01*
X77826Y8592D02*
X79192Y7226D01*
X77978Y8744D02*
X78356Y9122D01*
X77467Y8233D02*
X78833Y6867D01*
X77107Y7874D02*
X78644Y6337D01*
X67863Y23584D02*
X76844Y14603D01*
X67504Y23225D02*
X76844Y13884D01*
X67936Y24230D02*
X76844Y15321D01*
X67936Y21356D02*
X76844Y12448D01*
X67936Y22075D02*
X76844Y13166D01*
X64856Y10974D02*
X76844Y22963D01*
X64856Y11692D02*
X76844Y23681D01*
X64856Y9537D02*
X76844Y21526D01*
X64856Y10256D02*
X76844Y22244D01*
X67936Y19201D02*
X76844Y10292D01*
X67936Y20638D02*
X76844Y11729D01*
X78356Y9122D02*
Y9878D01*
Y9122D02*
Y9878D01*
X64856Y8819D02*
X76844Y20808D01*
X67291Y20564D02*
X76844Y11011D01*
X64856Y7382D02*
X76844Y19371D01*
X64856Y8100D02*
X76844Y20089D01*
X76389Y7156D02*
X78644Y4900D01*
X73043Y483D02*
X78644Y6084D01*
X76748Y7515D02*
X78644Y5619D01*
X75311Y6078D02*
X80907Y483D01*
X74952Y5719D02*
X80188Y483D01*
X70888D02*
X86017Y15612D01*
X70169Y483D02*
X86017Y16331D01*
X72325Y483D02*
X86017Y14175D01*
X71606Y483D02*
X86017Y14894D01*
X75917Y483D02*
X78700Y3266D01*
X76635Y483D02*
X79060Y2907D01*
X75198Y483D02*
X78644Y3929D01*
X78072Y483D02*
X79778Y2189D01*
X77354Y483D02*
X79419Y2548D01*
X74234Y5000D02*
X78752Y483D01*
X73762D02*
X78644Y5365D01*
X74593Y5360D02*
X79470Y483D01*
X74480D02*
X78644Y4647D01*
X65882Y2661D02*
X76844Y13623D01*
X66600Y2661D02*
X76844Y12905D01*
X65163Y2661D02*
X76844Y14342D01*
X68037Y2661D02*
X76844Y11468D01*
X67319Y2661D02*
X76844Y12186D01*
X62290Y2661D02*
X76844Y17215D01*
X60853Y2661D02*
X76844Y18652D01*
X63726Y2661D02*
X76844Y15779D01*
X63008Y2661D02*
X76844Y16497D01*
X75671Y6437D02*
X78644Y3463D01*
X76030Y6796D02*
X78644Y4182D01*
X73875Y4641D02*
X78033Y483D01*
X73515Y4282D02*
X77315Y483D01*
X69474Y2661D02*
X76844Y10031D01*
X68755Y2661D02*
X76844Y10750D01*
X70761Y1527D02*
X77978Y8744D01*
X69627Y2661D02*
X76844Y9878D01*
X67936Y40754D02*
X76844Y31845D01*
X67902Y24797D02*
X76844Y33739D01*
X67936Y41472D02*
X76844Y32563D01*
X67936Y21238D02*
X76844Y30147D01*
X64256Y37250D02*
X76844Y24661D01*
X62378Y25020D02*
X76844Y39486D01*
X60747Y31419D02*
X66850Y25316D01*
X63620Y34293D02*
X76844Y21069D01*
X62636Y24559D02*
X76844Y38768D01*
X67936Y23657D02*
Y24763D01*
X67383Y23104D02*
X67936Y23657D01*
X67383Y25316D02*
X67936Y24763D01*
X66906Y23104D02*
X67235Y22776D01*
X66599D02*
X66928Y23104D01*
X66277D02*
X67383D01*
X66277Y25316D02*
X67383D01*
X65724Y20564D02*
X67936D01*
X65724Y22776D02*
X67936D01*
X65724Y24763D02*
X66277Y25316D01*
X62636Y24501D02*
X65724Y21412D01*
Y23657D02*
Y24763D01*
X62636Y23783D02*
X65724Y20694D01*
X62636Y20967D02*
X65724Y24056D01*
X62083Y25316D02*
X62636Y24763D01*
X60977Y25316D02*
X62083D01*
Y23104D02*
X62636Y23657D01*
Y24763D01*
X65724Y23657D02*
X66277Y23104D01*
X65881Y22776D02*
X66243Y23138D01*
X61877Y23104D02*
X62206Y22776D01*
X65724Y22619D02*
X65881Y22776D01*
X65724Y20694D02*
X65854Y20564D01*
X60977Y23104D02*
X62083D01*
X60852Y22776D02*
X61181Y23104D01*
X61570Y22776D02*
X61899Y23104D01*
X61159D02*
X61488Y22776D01*
X67936Y20564D02*
Y22776D01*
X66277Y20236D02*
X67383D01*
X66572Y20564D02*
X66901Y20236D01*
X66933D02*
X67262Y20564D01*
X65724Y19683D02*
X66277Y20236D01*
X63261Y33934D02*
X76844Y20350D01*
X62636Y21628D02*
X75615Y8648D01*
X62636Y20909D02*
X75256Y8289D01*
X62262Y20564D02*
X74896Y7930D01*
X67936Y18577D02*
Y19683D01*
X67383Y18024D02*
X67936Y18577D01*
X67383Y20236D02*
X67936Y19683D01*
X67888Y18530D02*
X76692Y9726D01*
X67529Y18171D02*
X76333Y9367D01*
X62636Y19472D02*
X74537Y7571D01*
X65724Y18577D02*
X66277Y18024D01*
X62636Y18754D02*
X74178Y7211D01*
X62365Y18306D02*
X73819Y6852D01*
X65724Y20564D02*
Y22776D01*
X62636Y19530D02*
X65724Y22619D01*
X62636Y20564D02*
Y22776D01*
Y18812D02*
X65724Y21901D01*
X62636Y22346D02*
X65724Y19257D01*
X61186Y20236D02*
X61514Y20564D01*
X60825D02*
X61154Y20236D01*
X62353Y19966D02*
X65884Y23497D01*
X62339Y23361D02*
X65871Y19829D01*
X65854Y20564D02*
X66230Y20188D01*
X62636Y18577D02*
Y19683D01*
X65724Y18577D02*
Y19683D01*
X62083Y18024D02*
X62636Y18577D01*
X60977Y20236D02*
X62083D01*
X61543Y20564D02*
X61872Y20236D01*
X62083D02*
X62636Y19683D01*
X61904Y20236D02*
X62233Y20564D01*
X58287Y28831D02*
X66340Y36884D01*
X58287Y28113D02*
X67058Y36884D01*
X58287Y28959D02*
X63878Y34550D01*
X60387Y31060D02*
X66204Y25243D01*
X60028Y30701D02*
X65845Y24884D01*
X57050Y31187D02*
X62744Y36881D01*
X57050Y31905D02*
X62029Y36884D01*
X57153Y30093D02*
X62744Y35684D01*
X57050Y30468D02*
X62744Y36163D01*
X59669Y30342D02*
X65724Y24286D01*
X60424Y24763D02*
X60977Y25316D01*
X60424Y23657D02*
Y24763D01*
Y23657D02*
X60977Y23104D01*
X58287Y25258D02*
X60769Y22776D01*
X58287Y28850D02*
X61821Y25316D01*
X58287Y28132D02*
X61103Y25316D01*
X58287Y27413D02*
X60681Y25019D01*
X58287Y25977D02*
X60424Y23839D01*
X57779Y34387D02*
X59613Y32553D01*
X57779Y32642D02*
Y33398D01*
Y32642D02*
Y33398D01*
Y33669D02*
X59254Y32193D01*
X57779Y32950D02*
X58895Y31834D01*
X57401Y32264D02*
X57779Y32642D01*
X57401Y32264D02*
X57779Y32642D01*
X57573Y32437D02*
X58536Y31475D01*
X57050Y31914D02*
X57401Y32264D01*
X57214Y32078D02*
X58176Y31116D01*
X57050Y29989D02*
X57153Y30093D01*
X58287Y26695D02*
X60424Y24557D01*
X57050Y29989D02*
X57153Y30093D01*
X57050Y31524D02*
X57817Y30756D01*
X57050Y30805D02*
X57458Y30397D01*
X57050Y29989D02*
Y31914D01*
X56775Y25870D02*
Y27350D01*
X59310Y29982D02*
X66516Y22776D01*
X58950Y29623D02*
X65798Y22776D01*
X60424D02*
X62636D01*
X58591Y29264D02*
X65724Y22131D01*
X60424Y20564D02*
X62636D01*
X58287Y18055D02*
X60796Y20564D01*
X58287Y20929D02*
X60720Y23362D01*
X58287Y13026D02*
X65825Y20564D01*
X58287Y13744D02*
X65724Y21182D01*
X58287Y18792D02*
X63397Y13682D01*
X60424Y18577D02*
X60977Y18024D01*
X60424Y19683D02*
X60977Y20236D01*
X58287Y10152D02*
X66218Y18084D01*
X58287Y10871D02*
X65859Y18443D01*
X58287Y12308D02*
X66543Y20564D01*
X58287Y19511D02*
X63907Y13891D01*
X58287Y20229D02*
X72741Y5775D01*
X58287Y11589D02*
X65724Y19027D01*
X58287Y23103D02*
X60424Y20965D01*
Y20564D02*
Y22776D01*
X58287Y21647D02*
X60424Y23785D01*
X58287Y22384D02*
X60706Y19965D01*
X58287Y20210D02*
X60424Y22348D01*
X58287Y22366D02*
X60424Y24503D01*
X58287Y24540D02*
X60424Y22402D01*
X58287Y23821D02*
X60424Y21683D01*
X58287Y8887D02*
Y28959D01*
Y17337D02*
X60424Y19474D01*
Y18577D02*
Y19683D01*
X58287Y15900D02*
X60694Y18307D01*
X58287Y16618D02*
X60424Y18756D01*
X58287Y19492D02*
X60424Y21630D01*
X58287Y21666D02*
X60424Y19528D01*
X58287Y18773D02*
X60424Y20911D01*
X58287Y20948D02*
X60424Y18810D01*
X66957Y18024D02*
X75974Y9007D01*
X65091Y12707D02*
X72382Y5415D01*
X66277Y18024D02*
X67383D01*
X64882Y12197D02*
X72023Y5056D01*
X64856Y10786D02*
X71304Y4338D01*
X61928Y18024D02*
X73460Y6493D01*
X64856Y11505D02*
X71664Y4697D01*
X64445Y2661D02*
X76844Y15060D01*
X61571Y2661D02*
X76844Y17934D01*
X64856Y10068D02*
X70945Y3979D01*
X64856Y9350D02*
X70586Y3619D01*
X64856Y8631D02*
X70227Y3260D01*
X64856Y7913D02*
X69868Y2901D01*
X64849Y7201D02*
X69389Y2661D01*
X63772Y6123D02*
X67234Y2661D01*
X63412Y5764D02*
X66516Y2661D01*
X64490Y6842D02*
X68671Y2661D01*
X64131Y6482D02*
X67953Y2661D01*
X64595Y13891D02*
X65091Y13395D01*
Y12405D02*
Y13395D01*
X63605Y13891D02*
X64595D01*
X64856Y12170D02*
X65091Y12405D01*
X64856Y7963D02*
Y12170D01*
X63109Y13395D02*
X63605Y13891D01*
X63109Y12405D02*
Y13395D01*
X63344Y7963D02*
Y12170D01*
X63109Y12405D02*
X63344Y12170D01*
X64856Y7207D02*
Y7963D01*
X64478Y6829D02*
X64856Y7207D01*
Y7963D01*
X63053Y5405D02*
X65797Y2661D01*
X64478Y6829D02*
X64856Y7207D01*
X61975Y4327D02*
X63642Y2661D01*
X61616Y3968D02*
X62924Y2661D01*
X62694Y5046D02*
X65079Y2661D01*
X62335Y4686D02*
X64360Y2661D01*
X72438Y3204D02*
X75159Y483D01*
X72079Y2845D02*
X74441Y483D01*
X71719Y2486D02*
X73723Y483D01*
X73156Y3923D02*
X76596Y483D01*
X72797Y3564D02*
X75878Y483D01*
X70383Y1149D02*
X70761Y1527D01*
X70383Y1149D02*
X70761Y1527D01*
X71360Y2127D02*
X73004Y483D01*
X71001Y1768D02*
X72286Y483D01*
X69627Y1149D02*
X70383D01*
X69627D02*
X70383D01*
X69464D02*
X70131Y483D01*
X70642Y1408D02*
X71567Y483D01*
X70182Y1149D02*
X70849Y483D01*
X68733D02*
X69399Y1149D01*
X68027D02*
X68694Y483D01*
X69451D02*
X70118Y1149D01*
X68745D02*
X69412Y483D01*
X63716Y1149D02*
X64383Y483D01*
X64422D02*
X65089Y1149D01*
X63704Y483D02*
X64370Y1149D01*
X65141Y483D02*
X65807Y1149D01*
X64435D02*
X65102Y483D01*
X62280Y1149D02*
X62946Y483D01*
X62267D02*
X62934Y1149D01*
X62998D02*
X63665Y483D01*
X62985D02*
X63652Y1149D01*
X67296Y483D02*
X67963Y1149D01*
X66590D02*
X67257Y483D01*
X68014D02*
X68681Y1149D01*
X67308D02*
X67975Y483D01*
X65859D02*
X66526Y1149D01*
X65153D02*
X65820Y483D01*
X66577D02*
X67244Y1149D01*
X65872D02*
X66538Y483D01*
X58287Y15200D02*
X63344Y10142D01*
X58287Y14482D02*
X63344Y9424D01*
X58287Y15919D02*
X63344Y10861D01*
X61210Y18024D02*
X73100Y6134D01*
X58287Y13763D02*
X63344Y8706D01*
X58287Y17355D02*
X63109Y12533D01*
X58287Y18074D02*
X63109Y13251D01*
X58287Y9434D02*
X66877Y18024D01*
X58287Y16637D02*
X63344Y11579D01*
X58287Y13045D02*
X63344Y7987D01*
X58287Y12327D02*
X62997Y7616D01*
X58287Y11608D02*
X62638Y7257D01*
X57050Y3887D02*
X63344Y10181D01*
X58287Y10890D02*
X62279Y6897D01*
X57050Y6042D02*
X63261Y12253D01*
X57050Y6761D02*
X63109Y12820D01*
X57050Y4605D02*
X63344Y10900D01*
X57050Y5324D02*
X63344Y11618D01*
X60977Y18024D02*
X62083D01*
X58287Y8131D02*
Y8887D01*
Y8131D02*
Y8887D01*
Y9453D02*
X61561Y6179D01*
X58287Y8734D02*
X61201Y5820D01*
X58287Y14463D02*
X61848Y18024D01*
X58287Y15181D02*
X61130Y18024D01*
X58287Y10171D02*
X61920Y6538D01*
X57909Y7753D02*
X58287Y8131D01*
X58229Y8074D02*
X60842Y5460D01*
X57909Y7753D02*
X58287Y8131D01*
X57870Y7714D02*
X60483Y5101D01*
X57511Y7355D02*
X60124Y4742D01*
X57151Y6996D02*
X59764Y4383D01*
X57050Y6895D02*
X57909Y7753D01*
X57050Y6379D02*
X59405Y4024D01*
X57050Y5661D02*
X59046Y3664D01*
X60309Y2661D02*
X64478Y6829D01*
X60309Y2661D02*
X69627D01*
X60539Y2890D02*
X60768Y2661D01*
X61257Y3609D02*
X62205Y2661D01*
X60898Y3249D02*
X61487Y2661D01*
X57261D02*
X63344Y8744D01*
X57050Y3168D02*
X63344Y9463D01*
X58042Y2661D02*
X63344Y7963D01*
X57979Y2661D02*
X63344Y8026D01*
X60830Y483D02*
X61497Y1149D01*
X60843D02*
X61509Y483D01*
X60124Y1149D02*
X60791Y483D01*
X61561Y1149D02*
X62228Y483D01*
X61548D02*
X62215Y1149D01*
X58798D02*
X69627D01*
X59393Y483D02*
X60060Y1149D01*
X60112Y483D02*
X60778Y1149D01*
X59406D02*
X60073Y483D01*
X57050Y4224D02*
X58328Y2946D01*
X57050Y3505D02*
X57895Y2661D01*
X57050Y2787D02*
X57176Y2661D01*
X57050D02*
X58042D01*
X57238Y483D02*
X57905Y1149D01*
X57050Y4942D02*
X58687Y3305D01*
X57050Y2661D02*
Y6895D01*
X56532Y1149D02*
X57199Y483D01*
X56519D02*
X57186Y1149D01*
X58042D02*
X58798D01*
X58042D02*
X58798D01*
X58687D02*
X59354Y483D01*
X58675D02*
X59342Y1149D01*
X58042D02*
X58798D01*
X57251D02*
X57917Y483D01*
X57969Y1149D02*
X58636Y483D01*
X57956D02*
X58623Y1149D01*
X49268Y62200D02*
X51086Y64017D01*
X49701D02*
X51518Y62200D01*
X48982Y64017D02*
X50800Y62200D01*
X50419Y64017D02*
X52237Y62200D01*
X49987D02*
X51804Y64017D01*
X47832Y62200D02*
X49649Y64017D01*
X47546D02*
X49363Y62200D01*
X48550D02*
X50367Y64017D01*
X48264D02*
X50081Y62200D01*
X52861D02*
X54678Y64017D01*
X53579Y62200D02*
X55396Y64017D01*
X52142Y62200D02*
X53959Y64017D01*
X54170Y61354D02*
X56833Y64017D01*
X54170Y62073D02*
X56115Y64017D01*
X51138D02*
X52955Y62200D01*
X50705D02*
X52523Y64017D01*
X51856D02*
X53674Y62200D01*
X51424D02*
X53241Y64017D01*
X42803Y62200D02*
X44620Y64017D01*
X43235D02*
X45053Y62200D01*
X42517Y64017D02*
X44334Y62200D01*
X43954Y64017D02*
X45771Y62200D01*
X43521D02*
X45338Y64017D01*
X41366Y62200D02*
X43183Y64017D01*
X41080D02*
X42897Y62200D01*
X42084D02*
X43902Y64017D01*
X41798D02*
X43616Y62200D01*
X46109Y64017D02*
X47926Y62200D01*
X46395D02*
X48212Y64017D01*
X45676Y62200D02*
X47494Y64017D01*
X47113Y62200D02*
X48931Y64017D01*
X46827D02*
X48645Y62200D01*
X44672Y64017D02*
X46489Y62200D01*
X44239D02*
X46057Y64017D01*
X45390D02*
X47208Y62200D01*
X44958D02*
X46775Y64017D01*
X55448D02*
X59437Y60029D01*
X56167Y64017D02*
X59796Y60388D01*
X54730Y64017D02*
X58752Y59996D01*
X54170Y57762D02*
X60425Y64017D01*
X54170Y58481D02*
X59707Y64017D01*
X54011D02*
X58033Y59996D01*
X54170Y60636D02*
X57552Y64017D01*
X54170Y59199D02*
X58988Y64017D01*
X54170Y59917D02*
X58270Y64017D01*
X54170Y53452D02*
X59504Y58785D01*
X54170Y52733D02*
X59863Y58426D01*
X54170Y54170D02*
X58884Y58884D01*
X54462Y50870D02*
X67610Y64017D01*
X54506Y56339D02*
X66669Y44176D01*
X54170Y54170D02*
X58884Y58884D01*
X54170Y54888D02*
X58166Y58884D01*
X53924Y51050D02*
X66891Y64017D01*
X53564Y51409D02*
X60490Y58334D01*
X56217Y59718D02*
X56495Y59996D01*
X56217Y59718D02*
X56495Y59996D01*
X54170Y60985D02*
X55827Y59328D01*
X54170Y57670D02*
X56217Y59718D01*
X54170Y60267D02*
X55468Y58969D01*
X53293Y64017D02*
X57315Y59996D01*
X52575Y64017D02*
X56596Y59996D01*
X54170Y61704D02*
X56187Y59687D01*
X54170Y57670D02*
Y62200D01*
X54658Y56491D02*
X57051Y58884D01*
X54170Y56213D02*
X54380D01*
X54658Y56491D01*
X54380Y56213D02*
X54658Y56491D01*
X54170Y59548D02*
X55109Y58609D01*
X54170Y58830D02*
X54750Y58250D01*
X54170Y55607D02*
X57448Y58884D01*
X54170Y58111D02*
X54391Y57891D01*
X37055Y62200D02*
X38873Y64017D01*
X37488D02*
X39305Y62200D01*
X36769Y64017D02*
X38587Y62200D01*
X38206Y64017D02*
X40024Y62200D01*
X37774D02*
X39591Y64017D01*
X35618Y62200D02*
X37436Y64017D01*
X35332D02*
X37150Y62200D01*
X36337D02*
X38154Y64017D01*
X36051D02*
X37868Y62200D01*
X39643Y64017D02*
X41460Y62200D01*
X39929D02*
X41746Y64017D01*
X39211Y62200D02*
X41028Y64017D01*
X40647Y62200D02*
X42465Y64017D01*
X40361D02*
X42179Y62200D01*
X483Y64017D02*
X86017D01*
X33650Y62200D02*
X54170D01*
X38925Y64017D02*
X40742Y62200D01*
X38492D02*
X40310Y64017D01*
X31740D02*
X33650Y62108D01*
X31022Y64017D02*
X33650Y61389D01*
X26192Y59239D02*
X30970Y64017D01*
X26910Y58521D02*
X32407Y64017D01*
X26551Y58880D02*
X31688Y64017D01*
X24945Y59430D02*
X29533Y64017D01*
X24227Y59430D02*
X28815Y64017D01*
X25664Y59430D02*
X30252Y64017D01*
X22775Y58696D02*
X28096Y64017D01*
X33896D02*
X35713Y62200D01*
X34182D02*
X35999Y64017D01*
X33177D02*
X34995Y62200D01*
X34900D02*
X36717Y64017D01*
X34614D02*
X36431Y62200D01*
X32459Y64017D02*
X34276Y62200D01*
X30304Y64017D02*
X33650Y60671D01*
X28867Y64017D02*
X33650Y59234D01*
X29585Y64017D02*
X33650Y59953D01*
X27430Y64017D02*
X33650Y57797D01*
X30025Y57325D02*
X33650Y60950D01*
X28148Y64017D02*
X33650Y58516D01*
X26980Y57153D02*
X33844Y64017D01*
X33650Y57325D02*
Y62200D01*
X17725Y47180D02*
X34562Y64017D01*
X26711D02*
X33404Y57325D01*
X18443Y47180D02*
X35281Y64017D01*
X19162Y47180D02*
X33650Y61668D01*
X32180Y57325D02*
X33650Y58795D01*
X32898Y57325D02*
X33650Y58076D01*
X31461Y57325D02*
X33650Y59513D01*
Y52200D02*
Y56213D01*
X33079D02*
X33650Y55642D01*
X30743Y57325D02*
X33650Y60232D01*
X30123Y57325D02*
X33650D01*
X30923Y56213D02*
X33650Y53487D01*
X25953Y48943D02*
X33224Y56213D01*
X25275Y64017D02*
X31967Y57325D01*
X26980Y57872D02*
X33125Y64017D01*
X24556D02*
X31249Y57325D01*
X25993Y64017D02*
X32686Y57325D01*
X26980Y58002D02*
X28612Y56369D01*
X23838Y64017D02*
X30531Y57325D01*
X23119Y64017D02*
X29812Y57325D01*
X22401Y64017D02*
X29330Y57088D01*
X21683Y64017D02*
X28971Y56729D01*
X29567Y57325D02*
X30123D01*
X29567D02*
X30123D01*
X29289Y57047D02*
X29567Y57325D01*
X29289Y57047D02*
X29567Y57325D01*
X26980Y57284D02*
X28253Y56010D01*
X26980Y56565D02*
X27894Y55651D01*
X25528Y49236D02*
X32506Y56213D01*
X22201Y49959D02*
X29289Y57047D01*
X54170Y52200D02*
Y56213D01*
X54380D01*
X50742Y52200D02*
X51078Y51864D01*
X51460Y52200D02*
X51797Y51864D01*
X51145D02*
X51482Y52200D01*
X49708Y51864D02*
X50045Y52200D01*
X49305D02*
X49642Y51864D01*
X50427D02*
X50763Y52200D01*
X50024D02*
X50360Y51864D01*
X52554D02*
X53110D01*
X52554D02*
X53110D01*
X52179Y52200D02*
X52515Y51864D01*
X53205Y51768D02*
X53637Y52200D01*
X52582Y51864D02*
X52918Y52200D01*
X44633D02*
X54170D01*
X44970Y51864D02*
X52554D01*
X51864D02*
X52200Y52200D01*
X51864Y51864D02*
X52200Y52200D01*
X44825Y52009D02*
X45016Y52200D01*
X44995D02*
X45331Y51864D01*
X44633Y52200D02*
X44970Y51864D01*
X45713Y52200D02*
X46049Y51864D01*
X45398D02*
X45734Y52200D01*
X42093D02*
X42967D01*
X39553D02*
X40427D01*
X42477Y51816D02*
X42861Y52200D01*
X39770Y51983D02*
X39987Y52200D01*
X47868D02*
X48205Y51864D01*
X48271D02*
X48608Y52200D01*
X47553Y51864D02*
X47889Y52200D01*
X48990Y51864D02*
X49326Y52200D01*
X48587D02*
X48923Y51864D01*
X46431Y52200D02*
X46768Y51864D01*
X46116D02*
X46453Y52200D01*
X47150D02*
X47486Y51864D01*
X46835D02*
X47171Y52200D01*
X55181Y50870D02*
X59401Y55091D01*
X54170Y53083D02*
X56383Y50870D01*
X54170Y52364D02*
X55664Y50870D01*
X54170Y53801D02*
X64145Y43826D01*
X55899Y50870D02*
X59409Y54380D01*
X54170Y55956D02*
X66114Y44012D01*
X42839Y52200D02*
X43938Y51102D01*
X54170Y55238D02*
X65582Y43826D01*
X54170Y54519D02*
X64864Y43826D01*
X53110Y51864D02*
X53388Y51586D01*
X54103Y50870D01*
X53110Y51864D02*
X53388Y51586D01*
X54103Y50870D02*
X57050D01*
X53616Y52200D02*
X54946Y50870D01*
X43192Y51102D02*
X44065D01*
X42967Y52200D02*
X44065Y51102D01*
X52897Y52200D02*
X54227Y50870D01*
X43917Y51102D02*
X43991Y51175D01*
X42093Y52200D02*
X43192Y51102D01*
X42836Y51457D02*
X43273Y51894D01*
X40129Y51624D02*
X40566Y52061D01*
X42121Y52200D02*
X43219Y51102D01*
X40427Y52200D02*
X41757Y50870D01*
X37887Y52200D02*
X39217Y50870D01*
X38042Y51692D02*
X38218Y51868D01*
X39966Y52200D02*
X41296Y50870D01*
X39553Y52200D02*
X40883Y50870D01*
X43199Y51102D02*
X43632Y51535D01*
X40848Y50906D02*
X41284Y51342D01*
X40883Y50870D02*
X41757D01*
X41531D02*
X41644Y50983D01*
X40489Y51265D02*
X40925Y51701D01*
X38401Y51332D02*
X38578Y51509D01*
X38863Y50870D02*
X39217D01*
X38760Y50973D02*
X38937Y51150D01*
X34218Y52200D02*
X35548Y50870D01*
X33650Y52200D02*
X35867D01*
X33628Y50870D02*
X34958Y52200D01*
X34937D02*
X36267Y50870D01*
X34346D02*
X35676Y52200D01*
X29445Y55536D02*
X34112Y50870D01*
X30123Y56213D02*
X33650D01*
X29805Y55895D02*
X34830Y50870D01*
X32909D02*
X34239Y52200D01*
X37682Y52051D02*
X37832Y52200D01*
X37533D02*
X37887D01*
X35867D02*
X37197Y50870D01*
X37533Y52200D02*
X38863Y50870D01*
X36502D02*
X36849Y51218D01*
X28310Y50870D02*
X37197D01*
X35065D02*
X36131Y51936D01*
X35655Y52200D02*
X36985Y50870D01*
X35783D02*
X36490Y51577D01*
X31642Y56213D02*
X33650Y54205D01*
X30205Y56213D02*
X33650Y52768D01*
X32360Y56213D02*
X33650Y54924D01*
X30036Y50870D02*
X33650Y54484D01*
X29317Y50870D02*
X33650Y55203D01*
X28599Y50870D02*
X33650Y55921D01*
X28368Y54458D02*
X31956Y50870D01*
X29086Y55177D02*
X33393Y50870D01*
X28727Y54818D02*
X32675Y50870D01*
X30754D02*
X33650Y53766D01*
X28009Y54099D02*
X31238Y50870D01*
X32191D02*
X33650Y52329D01*
X31473Y50870D02*
X33650Y53047D01*
X26931Y53022D02*
X29083Y50870D01*
X26572Y52662D02*
X28364Y50870D01*
X27649Y53740D02*
X30519Y50870D01*
X27290Y53381D02*
X29801Y50870D01*
X37810Y52200D02*
X39140Y50870D01*
X28198Y47444D02*
X28310Y47332D01*
X27924Y47444D02*
X28310D01*
X26374Y47831D02*
X28310Y45895D01*
X27092Y47831D02*
X28310Y46614D01*
X24951Y49378D02*
X31787Y56213D01*
X23035Y49125D02*
X30123Y56213D01*
X23035Y48179D02*
X31069Y56213D01*
X23035Y48898D02*
X30350Y56213D01*
X27000Y45050D02*
X28310Y43740D01*
X27000Y43524D02*
X28310Y44834D01*
X27000Y44242D02*
X28310Y45552D01*
X27000Y43613D02*
X28310Y42303D01*
X27000Y44332D02*
X28310Y43022D01*
X27000Y46487D02*
X28310Y45177D01*
X27000Y45679D02*
X28310Y46989D01*
X27000Y45768D02*
X28310Y44458D01*
X27000Y44961D02*
X28310Y46271D01*
X27390Y48943D02*
X28310Y49863D01*
X27537Y48943D02*
X28093D01*
X27537D02*
X28093D01*
X28310Y48725D02*
Y50870D01*
X28100Y48935D02*
X28310Y49144D01*
X25853Y51944D02*
X28310Y49487D01*
X26213Y52303D02*
X28310Y50206D01*
X25494Y51585D02*
X28310Y48769D01*
X26672Y48943D02*
X28310Y50581D01*
X28093Y48943D02*
X28310Y48725D01*
X28093Y48943D02*
X28310Y48725D01*
X27924Y47444D02*
X28310D01*
X27646Y47722D02*
X27924Y47444D01*
X27646Y47722D02*
X27924Y47444D01*
X27537Y47831D02*
X27646Y47722D01*
X27000Y42805D02*
X28310Y44115D01*
X27000Y46397D02*
X28047Y47444D01*
X18281Y59231D02*
X23067Y64017D01*
X18809D02*
X23721Y59105D01*
X17761Y59430D02*
X22349Y64017D01*
X18640Y58871D02*
X23786Y64017D01*
X18090D02*
X23362Y58746D01*
X16654Y64017D02*
X21241Y59430D01*
X16324D02*
X20912Y64017D01*
X17372D02*
X21960Y59430D01*
X17043D02*
X21631Y64017D01*
X21353Y59430D02*
X25941Y64017D01*
X24046Y59430D02*
X26002D01*
X20964Y64017D02*
X25552Y59430D01*
X22416Y59055D02*
X27378Y64017D01*
X22057Y59415D02*
X26660Y64017D01*
X19527D02*
X24115Y59430D01*
X20086D02*
X22042D01*
X20635D02*
X25223Y64017D01*
X20246D02*
X24834Y59430D01*
X12343Y64017D02*
X16931Y59430D01*
X12732D02*
X17320Y64017D01*
X11625D02*
X16212Y59430D01*
X10906Y64017D02*
X15810Y59114D01*
X10188Y64017D02*
X15451Y58754D01*
X8751Y64017D02*
X13339Y59430D01*
X8033Y64017D02*
X12620Y59430D01*
X9469Y64017D02*
X14057Y59430D01*
X7856Y58864D02*
X13009Y64017D01*
X15217D02*
X19945Y59289D01*
X15935Y64017D02*
X20523Y59430D01*
X16126D02*
X18082D01*
X14498Y64017D02*
X19586Y58930D01*
X14505Y59047D02*
X19475Y64017D01*
X13062D02*
X17649Y59430D01*
X12166D02*
X14122D01*
X14145Y59406D02*
X18757Y64017D01*
X13451Y59430D02*
X18038Y64017D01*
X22042Y59430D02*
X23020Y58452D01*
X23068D02*
X24046Y59430D01*
X19108Y58452D02*
X20086Y59430D01*
X26002D02*
X26980Y58452D01*
X21960Y59430D02*
X23020Y58370D01*
X14864Y58688D02*
X20194Y64017D01*
X13780D02*
X19227Y58570D01*
X18999Y58512D02*
X24504Y64017D01*
X18082Y59430D02*
X19060Y58452D01*
X23068Y56496D02*
Y58452D01*
X26980Y56496D02*
Y58452D01*
X23020Y56496D02*
Y58452D01*
X23068Y56496D02*
X24046Y55518D01*
X22042D02*
X23020Y56496D01*
X19108D02*
Y58452D01*
X19060Y56496D02*
Y58452D01*
X19108Y56534D02*
X20124Y55518D01*
X18082D02*
X19060Y56496D01*
X14057Y59430D02*
X15100Y58387D01*
X15148Y58452D02*
X16126Y59430D01*
X14122D02*
X15100Y58452D01*
X15148Y56496D02*
Y58452D01*
X15100Y56496D02*
Y58452D01*
X11188D02*
X12166Y59430D01*
X7856Y59165D02*
X14719Y52302D01*
X11188Y56496D02*
Y58452D01*
X15148Y56496D02*
X16126Y55518D01*
X14122D02*
X15100Y56496D01*
X11188Y56551D02*
X12221Y55518D01*
X7856Y58447D02*
X14360Y51943D01*
X11188Y56496D02*
X12166Y55518D01*
X6100Y62856D02*
X7262Y64017D01*
X6498Y62535D02*
X7981Y64017D01*
X5382Y62856D02*
X6544Y64017D01*
X7217Y61817D02*
X9417Y64017D01*
X6857Y62176D02*
X8699Y64017D01*
X3945Y62856D02*
X5107Y64017D01*
X3722D02*
X4884Y62856D01*
X4663D02*
X5825Y64017D01*
X4440D02*
X5602Y62856D01*
X7576Y61458D02*
X10136Y64017D01*
X7856Y61019D02*
X10854Y64017D01*
X6178Y62856D02*
X7856Y61178D01*
Y59582D02*
X12291Y64017D01*
X7856Y60300D02*
X11573Y64017D01*
X2822Y62856D02*
X6178D01*
X2285Y64017D02*
X3447Y62856D01*
X3004Y64017D02*
X4165Y62856D01*
X1567Y64017D02*
X2775Y62809D01*
X483Y60830D02*
X3670Y64017D01*
X848D02*
X2416Y62450D01*
X483Y62985D02*
X1515Y64017D01*
X483Y63704D02*
X796Y64017D01*
X483Y61548D02*
X2952Y64017D01*
X483Y62267D02*
X2233Y64017D01*
X3227Y62856D02*
X4388Y64017D01*
X1144Y61178D02*
X2822Y62856D01*
X483Y60112D02*
X1144Y60773D01*
X483Y60791D02*
X1144Y60129D01*
X483Y63665D02*
X2057Y62090D01*
X483Y62946D02*
X1698Y61731D01*
X483Y62228D02*
X1339Y61372D01*
X483Y61509D02*
X1144Y60848D01*
X6596Y64017D02*
X11675Y58938D01*
X7314Y64017D02*
X12034Y59297D01*
X5877Y64017D02*
X11316Y58579D01*
X7856Y58145D02*
X13728Y64017D01*
X5159D02*
X11188Y57988D01*
X483Y49335D02*
X15165Y64017D01*
X483Y50054D02*
X14446Y64017D01*
X483Y47898D02*
X16602Y64017D01*
X483Y48617D02*
X15883Y64017D01*
X7856Y59884D02*
X11188Y56551D01*
X7809Y57775D02*
X14001Y51583D01*
X7856Y60602D02*
X11188Y57269D01*
X7450Y57416D02*
X13642Y51224D01*
X7090Y57057D02*
X13282Y50865D01*
X6731Y56698D02*
X12923Y50506D01*
X483Y57917D02*
X11220Y47180D01*
X483Y46462D02*
X11188Y57167D01*
X483Y47180D02*
X11188Y57886D01*
X1144Y57822D02*
Y61178D01*
X483Y57956D02*
X1144Y58618D01*
X483Y58636D02*
X1144Y57974D01*
X7856Y57822D02*
Y61178D01*
X483Y59393D02*
X1144Y60055D01*
X483Y60073D02*
X1144Y59411D01*
X483Y58675D02*
X1144Y59337D01*
X483Y59354D02*
X1144Y58692D01*
Y57974D02*
X2974Y56144D01*
X1144Y57822D02*
X2822Y56144D01*
X6178D02*
X7856Y57822D01*
X483Y55083D02*
X2183Y56783D01*
X483Y56519D02*
X1465Y57502D01*
X483Y57238D02*
X1144Y57900D01*
X483Y57199D02*
X10502Y47180D01*
X483Y55801D02*
X1824Y57143D01*
X26655Y56171D02*
X27534Y55292D01*
X26296Y55812D02*
X27175Y54933D01*
X26002Y55518D02*
X26980Y56496D01*
X22879Y56355D02*
X25738Y53496D01*
X22520Y55996D02*
X25379Y53137D01*
X22160Y55637D02*
X25020Y52777D01*
X20124Y55518D02*
X23942Y51700D01*
X18744Y56180D02*
X23583Y51341D01*
X18384Y55821D02*
X23224Y50981D01*
X25153Y55518D02*
X26457Y54214D01*
X25871Y55518D02*
X26816Y54573D01*
X24434Y55518D02*
X26098Y53855D01*
X24397Y49378D02*
X25387D01*
X24057Y50148D02*
X24828Y49378D01*
X24046Y55518D02*
X26002D01*
X21561D02*
X24661Y52418D01*
X20842Y55518D02*
X24302Y52059D01*
X23698Y49789D02*
X24253Y49234D01*
X19108Y56496D02*
X20086Y55518D01*
X22042D01*
X17860D02*
X18082D01*
X17968D02*
X22865Y50622D01*
X17860Y54909D02*
X22506Y50263D01*
X17860Y54499D02*
X19483Y56122D01*
X17860Y55217D02*
X19123Y56481D01*
X17860Y53781D02*
X19842Y55763D01*
X17860Y53931D02*
Y55518D01*
X21923Y49681D02*
X22201Y49959D01*
X21923Y49681D02*
X22201Y49959D01*
X17860Y53175D02*
Y53931D01*
X21923Y49125D02*
Y49681D01*
X17860Y53472D02*
X21923Y49408D01*
X17482Y52797D02*
X17860Y53175D01*
Y53931D01*
Y54190D02*
X22146Y49904D01*
X17482Y52797D02*
X17860Y53175D01*
X25822Y48943D02*
X27537D01*
X25387Y47396D02*
X25822Y47831D01*
X25387Y49378D02*
X25822Y48943D01*
X26346Y47180D02*
X26997Y47831D01*
X25627Y47180D02*
X26279Y47831D01*
X24776Y50866D02*
X26699Y48943D01*
X24417Y50507D02*
X25981Y48943D01*
X25135Y51226D02*
X27418Y48943D01*
X17006Y47180D02*
X25345Y55518D01*
X25822Y47831D02*
X27537D01*
X25372Y47396D02*
X25588Y47180D01*
X24909D02*
X25125Y47396D01*
X27000Y47116D02*
X27626Y47742D01*
X25739Y47748D02*
X26307Y47180D01*
X23035D02*
X27000D01*
X24397Y47396D02*
X25387D01*
X24654D02*
X24870Y47180D01*
X24191D02*
X24407Y47396D01*
X23901Y48882D02*
X24397Y49378D01*
X23035Y49015D02*
X23901Y48149D01*
X23339Y49430D02*
X23901Y48867D01*
X23035Y47180D02*
Y49125D01*
X21923Y47180D02*
Y49125D01*
X17649Y52964D02*
X21923Y48690D01*
Y49125D02*
Y49681D01*
X19880Y47180D02*
X21923Y49223D01*
X17290Y52605D02*
X21923Y47971D01*
X23901Y47892D02*
X24397Y47396D01*
X23901Y47892D02*
Y48882D01*
X23472Y47180D02*
X24043Y47750D01*
X23035Y47579D02*
X23433Y47180D01*
X23035Y47461D02*
X23901Y48328D01*
X20598Y47180D02*
X21923Y48505D01*
X23035Y48297D02*
X24152Y47180D01*
X21317D02*
X21923Y47787D01*
X14967Y56364D02*
X16348Y54983D01*
X14608Y56005D02*
X16348Y54265D01*
X14249Y55646D02*
X16156Y53739D01*
X14133Y47180D02*
X23259Y56306D01*
X13658Y55518D02*
X15797Y53379D01*
X12939Y55518D02*
X15438Y53020D01*
X12166Y55518D02*
X14122D01*
X12221D02*
X15079Y52661D01*
X6372Y56339D02*
X12564Y50146D01*
X16348Y53931D02*
Y55518D01*
X13583Y48898D02*
X17482Y52797D01*
X16126Y55518D02*
X16348D01*
X16930Y52246D02*
X21923Y47253D01*
X13583Y47348D02*
X21753Y55518D01*
X12449Y50032D02*
X16348Y53931D01*
X12071Y49654D02*
X12449Y50032D01*
X13583Y48067D02*
X21034Y55518D01*
X13583Y48785D02*
X20316Y55518D01*
X483Y50772D02*
X5855Y56144D01*
X2822D02*
X6178D01*
X483Y51491D02*
X5136Y56144D01*
X4411D02*
X12071Y48484D01*
X5129Y56144D02*
X12071Y49202D01*
X483Y53646D02*
X2981Y56144D01*
X483Y54364D02*
X2543Y56424D01*
X483Y52209D02*
X4418Y56144D01*
X483Y52927D02*
X3700Y56144D01*
X12071Y49654D02*
X12449Y50032D01*
X12071Y48898D02*
Y49654D01*
X11977Y47180D02*
X12071Y47274D01*
Y48898D02*
Y49654D01*
X5848Y56144D02*
X12205Y49787D01*
X3692Y56144D02*
X12071Y47765D01*
X11259Y47180D02*
X12071Y47992D01*
X10541Y47180D02*
X12071Y48711D01*
X15569Y47180D02*
X23977Y55588D01*
X16212Y51528D02*
X20559Y47180D01*
X15853Y51168D02*
X19841Y47180D01*
X16288D02*
X24626Y55518D01*
X16571Y51887D02*
X21278Y47180D01*
X14851D02*
X23618Y55947D01*
X9104Y47180D02*
X16348Y54425D01*
X15493Y50809D02*
X19123Y47180D01*
X483Y42869D02*
X13132Y55518D01*
X14416Y49731D02*
X16967Y47180D01*
X14057Y49372D02*
X16249Y47180D01*
X13697Y49013D02*
X15531Y47180D01*
X15134Y50450D02*
X18404Y47180D01*
X14775Y50091D02*
X17686Y47180D01*
X13583Y48409D02*
X14812Y47180D01*
X13583D02*
Y48898D01*
Y47180D02*
X21923D01*
X13583Y47691D02*
X14094Y47180D01*
X2974Y56144D02*
X11938Y47180D01*
X483Y54325D02*
X9000Y45808D01*
X483Y55044D02*
X9000Y46526D01*
X483Y43588D02*
X12413Y55518D01*
X483Y44306D02*
X11930Y55754D01*
X483Y56481D02*
X9783Y47180D01*
X483Y55762D02*
X9065Y47180D01*
X483Y45025D02*
X11571Y56113D01*
X483Y45743D02*
X11212Y56473D01*
X9822Y47180D02*
X12071Y49429D01*
X9000Y47180D02*
X12071D01*
Y48898D01*
X483Y50733D02*
X9000Y42216D01*
X483Y52888D02*
X9000Y44371D01*
X483Y53607D02*
X9000Y45089D01*
X483Y51452D02*
X9000Y42934D01*
X483Y52170D02*
X9000Y43653D01*
X55583Y57417D02*
X76844Y36155D01*
X55224Y57058D02*
X76844Y35437D01*
X55942Y57776D02*
X76844Y36874D01*
X54865Y56698D02*
X76844Y34719D01*
X43263Y27350D02*
X44743Y25870D01*
X42394D02*
X43874Y27350D01*
X41826D02*
X43306Y25870D01*
X43112D02*
X44592Y27350D01*
X42545D02*
X44025Y25870D01*
X56195Y27350D02*
X56775Y26769D01*
X55476Y27350D02*
X56775Y26051D01*
X44549Y25870D02*
X46029Y27350D01*
X45267Y25870D02*
X46747Y27350D01*
X44700D02*
X46180Y25870D01*
X38560D02*
X56775D01*
X40040Y27350D02*
X56775D01*
X43982D02*
X45462Y25870D01*
X43831D02*
X45311Y27350D01*
X37516D02*
X37645Y27221D01*
X38560Y25870D02*
X40040Y27350D01*
X36797D02*
X37285Y26862D01*
X39520Y25870D02*
X41000Y27350D01*
X38802Y25870D02*
X40282Y27350D01*
X36079D02*
X36926Y26503D01*
X35361Y27350D02*
X36567Y26143D01*
X36294Y25870D02*
X37774Y27350D01*
X33205D02*
X34685Y25870D01*
X40389Y27350D02*
X41869Y25870D01*
X40957D02*
X42437Y27350D01*
X40238Y25870D02*
X41718Y27350D01*
X41675Y25870D02*
X43155Y27350D01*
X41108D02*
X42588Y25870D01*
X39137Y26447D02*
X39714Y25870D01*
X38778Y26088D02*
X38996Y25870D01*
X39856Y27165D02*
X41151Y25870D01*
X39496Y26806D02*
X40433Y25870D01*
X51166Y27350D02*
X52646Y25870D01*
X51733D02*
X53213Y27350D01*
X51015Y25870D02*
X52495Y27350D01*
X52452Y25870D02*
X53932Y27350D01*
X51884D02*
X53364Y25870D01*
X49729Y27350D02*
X51209Y25870D01*
X49578D02*
X51058Y27350D01*
X50447D02*
X51927Y25870D01*
X50296D02*
X51776Y27350D01*
X54607Y25870D02*
X56087Y27350D01*
X54758D02*
X56238Y25870D01*
X54039Y27350D02*
X55519Y25870D01*
X56044D02*
X56775Y26602D01*
X55325Y25870D02*
X56775Y27320D01*
X53170Y25870D02*
X54650Y27350D01*
X52603D02*
X54083Y25870D01*
X53888D02*
X55368Y27350D01*
X53321D02*
X54801Y25870D01*
X35928D02*
X37408Y27350D01*
X45418D02*
X46898Y25870D01*
X35209D02*
X36689Y27350D01*
X46137D02*
X47617Y25870D01*
X45986D02*
X47466Y27350D01*
X33924D02*
X35404Y25870D01*
X33773D02*
X35253Y27350D01*
X34642D02*
X36122Y25870D01*
X34491D02*
X35971Y27350D01*
X48292D02*
X49772Y25870D01*
X48141D02*
X49621Y27350D01*
X49011D02*
X50491Y25870D01*
X48859D02*
X50339Y27350D01*
X46855D02*
X48335Y25870D01*
X46704D02*
X48184Y27350D01*
X47574D02*
X49054Y25870D01*
X47423D02*
X48903Y27350D01*
X27000Y29874D02*
X28310Y31184D01*
X27000Y30682D02*
X28310Y29372D01*
X27000Y31400D02*
X28310Y30090D01*
Y27350D02*
Y47444D01*
X27000Y29155D02*
X28310Y30465D01*
X27000Y31311D02*
X28310Y32621D01*
X27000Y32837D02*
X28310Y31527D01*
X27000Y30592D02*
X28310Y31902D01*
X27000Y32118D02*
X28310Y30808D01*
X27000Y28526D02*
X29656Y25870D01*
X28310Y27350D02*
X37774D01*
X27000Y26282D02*
X28310Y27592D01*
X33054Y25870D02*
X34534Y27350D01*
X32487D02*
X33967Y25870D01*
X27000Y28437D02*
X28310Y29747D01*
X27000Y29963D02*
X28310Y28653D01*
X27000Y27718D02*
X28310Y29028D01*
X27000Y29245D02*
X28310Y27935D01*
X27000Y41458D02*
X28310Y40148D01*
X27000Y39932D02*
X28310Y41242D01*
X27000Y40650D02*
X28310Y41960D01*
X27000Y39213D02*
X28310Y40523D01*
X27000Y40739D02*
X28310Y39429D01*
X27000Y42895D02*
X28310Y41585D01*
X27000Y42087D02*
X28310Y43397D01*
X27000Y42176D02*
X28310Y40866D01*
X27000Y41368D02*
X28310Y42678D01*
X27000Y34274D02*
X28310Y32964D01*
X27000Y32747D02*
X28310Y34057D01*
X27000Y38584D02*
X28310Y37274D01*
X27000Y32029D02*
X28310Y33339D01*
X27000Y33555D02*
X28310Y32245D01*
X27000Y38495D02*
X28310Y39805D01*
X27000Y40021D02*
X28310Y38711D01*
X27000Y37776D02*
X28310Y39086D01*
X27000Y39303D02*
X28310Y37993D01*
X29462Y25870D02*
X30942Y27350D01*
X29613D02*
X31093Y25870D01*
X28895Y27350D02*
X30375Y25870D01*
X30332Y27350D02*
X31812Y25870D01*
X30181D02*
X31661Y27350D01*
X28744Y25870D02*
X30224Y27350D01*
X27000Y27808D02*
X28938Y25870D01*
X27000Y24845D02*
X29505Y27350D01*
X27000Y25563D02*
X28787Y27350D01*
X31050D02*
X32530Y25870D01*
X31617D02*
X33097Y27350D01*
X30899Y25870D02*
X32379Y27350D01*
X32336Y25870D02*
X33816Y27350D01*
X31768D02*
X33248Y25870D01*
X28310D02*
X36294D01*
X27000Y24126D02*
X28310Y25436D01*
Y2661D02*
Y25870D01*
X27000Y24934D02*
X28310Y23624D01*
X27000Y22689D02*
X28310Y23999D01*
X27000Y23497D02*
X28310Y22187D01*
X27000Y24216D02*
X28310Y22906D01*
X27000Y22779D02*
X28310Y21469D01*
X27000Y21971D02*
X28310Y23281D01*
X27000Y26371D02*
X28310Y25061D01*
X27000Y27089D02*
X28310Y25779D01*
X27000Y23408D02*
X28310Y24718D01*
X27000Y25653D02*
X28310Y24343D01*
X27000Y20624D02*
X28310Y19314D01*
X27000Y19816D02*
X28310Y21126D01*
X27000Y19905D02*
X28310Y18595D01*
X27000Y19097D02*
X28310Y20407D01*
X27000Y22060D02*
X28310Y20750D01*
X27000Y21253D02*
X28310Y22563D01*
X27000Y21342D02*
X28310Y20032D01*
X27000Y20534D02*
X28310Y21844D01*
X40714Y483D02*
X41381Y1149D01*
X40727D02*
X41394Y483D01*
X40008Y1149D02*
X40675Y483D01*
X41445Y1149D02*
X42112Y483D01*
X41433D02*
X42099Y1149D01*
X38859D02*
X41659D01*
X39277Y483D02*
X39944Y1149D01*
X39996Y483D02*
X40663Y1149D01*
X39290D02*
X39957Y483D01*
X42869D02*
X43536Y1149D01*
X42415D02*
X58042D01*
X42164D02*
X42831Y483D01*
X43588D02*
X44255Y1149D01*
X42882D02*
X43549Y483D01*
X41659Y1149D02*
X42415D01*
X41659D02*
X42415D01*
X42151Y483D02*
X42818Y1149D01*
X41659D02*
X42415D01*
X35698D02*
X36365Y483D01*
X36404D02*
X37070Y1149D01*
X35685Y483D02*
X36352Y1149D01*
X37122Y483D02*
X37789Y1149D01*
X36416D02*
X37083Y483D01*
X34420Y1149D02*
X35176D01*
X34420D02*
X35176D01*
X34980D02*
X35646Y483D01*
X34967D02*
X35634Y1149D01*
X38103D02*
X38859D01*
X38103D02*
X38859D01*
X38103D02*
X38859D01*
X38572D02*
X39238Y483D01*
X38559D02*
X39226Y1149D01*
X35176D02*
X38103D01*
X37135D02*
X37802Y483D01*
X37853Y1149D02*
X38520Y483D01*
X37840D02*
X38507Y1149D01*
X51503D02*
X52170Y483D01*
X52209D02*
X52876Y1149D01*
X51491Y483D02*
X52157Y1149D01*
X52927Y483D02*
X53594Y1149D01*
X52222D02*
X52888Y483D01*
X50066Y1149D02*
X50733Y483D01*
X50054D02*
X50720Y1149D01*
X50785D02*
X51452Y483D01*
X50772D02*
X51439Y1149D01*
X55083Y483D02*
X55749Y1149D01*
X55095D02*
X55762Y483D01*
X54377Y1149D02*
X55044Y483D01*
X55814Y1149D02*
X56481Y483D01*
X55801D02*
X56468Y1149D01*
X53646Y483D02*
X54313Y1149D01*
X52940D02*
X53607Y483D01*
X54364D02*
X55031Y1149D01*
X53658D02*
X54325Y483D01*
X45743D02*
X46410Y1149D01*
X45756D02*
X46423Y483D01*
X45037Y1149D02*
X45704Y483D01*
X46474Y1149D02*
X47141Y483D01*
X46462D02*
X47128Y1149D01*
X44306Y483D02*
X44973Y1149D01*
X43601D02*
X44267Y483D01*
X45025D02*
X45692Y1149D01*
X44319D02*
X44986Y483D01*
X48630Y1149D02*
X49296Y483D01*
X48617D02*
X49284Y1149D01*
X49348D02*
X50015Y483D01*
X49335D02*
X50002Y1149D01*
X47193D02*
X47859Y483D01*
X47180D02*
X47847Y1149D01*
X47911D02*
X48578Y483D01*
X47898D02*
X48565Y1149D01*
X27000Y10476D02*
X28310Y11786D01*
X27000Y11284D02*
X28310Y9974D01*
X27000Y12003D02*
X28310Y10693D01*
X27000Y10566D02*
X28310Y9256D01*
X27000Y9758D02*
X28310Y11068D01*
X27000Y11913D02*
X28310Y13223D01*
X27000Y13439D02*
X28310Y12129D01*
X27000Y11195D02*
X28310Y12505D01*
X27000Y12721D02*
X28310Y11411D01*
X27000Y8410D02*
X28310Y7101D01*
X27000Y6884D02*
X28310Y8194D01*
X27000Y7603D02*
X28310Y8913D01*
X27000Y6166D02*
X28310Y7476D01*
X27000Y7692D02*
X28310Y6382D01*
X27000Y9847D02*
X28310Y8537D01*
X27000Y9039D02*
X28310Y10349D01*
X27000Y9129D02*
X28310Y7819D01*
X27000Y8321D02*
X28310Y9631D01*
X27000Y17750D02*
X28310Y16440D01*
X27000Y16224D02*
X28310Y17534D01*
X27000Y16942D02*
X28310Y18252D01*
X27000Y15505D02*
X28310Y16815D01*
X27000Y17032D02*
X28310Y15722D01*
X27000Y19187D02*
X28310Y17877D01*
X27000Y18379D02*
X28310Y19689D01*
X27000Y18468D02*
X28310Y17158D01*
X27000Y17661D02*
X28310Y18971D01*
X27000Y13350D02*
X28310Y14660D01*
X27000Y14876D02*
X28310Y13566D01*
X27000Y12632D02*
X28310Y13942D01*
X27000Y14158D02*
X28310Y12848D01*
X27000Y14787D02*
X28310Y16097D01*
X27000Y16313D02*
X28310Y15003D01*
X27000Y14068D02*
X28310Y15378D01*
X27000Y15595D02*
X28310Y14285D01*
X31375Y483D02*
X32042Y1149D01*
X31387D02*
X32054Y483D01*
X30669Y1149D02*
X31336Y483D01*
X32106Y1149D02*
X32773Y483D01*
X32093D02*
X32760Y1149D01*
X29938Y483D02*
X30605Y1149D01*
X29232D02*
X29899Y483D01*
X30656D02*
X31323Y1149D01*
X29951D02*
X30617Y483D01*
X33543Y1149D02*
X34209Y483D01*
X34420Y1149D02*
X35176D01*
X33530Y483D02*
X34197Y1149D01*
X34261D02*
X34928Y483D01*
X34248D02*
X34915Y1149D01*
X483Y483D02*
X86017D01*
X19174Y1149D02*
X34420D01*
X32824D02*
X33491Y483D01*
X32812D02*
X33478Y1149D01*
X27000Y5537D02*
X28310Y4227D01*
X27000Y4011D02*
X28310Y5321D01*
X27000Y4729D02*
X28310Y6039D01*
X27000Y4100D02*
X28310Y2790D01*
X27000Y4818D02*
X28310Y3508D01*
X27000Y5447D02*
X28310Y6757D01*
X27000Y6974D02*
X28310Y5664D01*
X26368Y2661D02*
X28310Y4602D01*
X27000Y6255D02*
X28310Y4945D01*
X28501Y483D02*
X29168Y1149D01*
X27805Y2661D02*
X28310Y3165D01*
X29219Y483D02*
X29886Y1149D01*
X28514D02*
X29181Y483D01*
X27087Y2661D02*
X28310Y3884D01*
X19174Y2661D02*
X28310D01*
X27795Y1149D02*
X28462Y483D01*
X27783D02*
X28449Y1149D01*
X27000Y36429D02*
X28310Y35119D01*
X27000Y34903D02*
X28310Y36213D01*
X27000Y35621D02*
X28310Y36931D01*
X27000Y34184D02*
X28310Y35494D01*
X27000Y35710D02*
X28310Y34401D01*
X27000Y37866D02*
X28310Y36556D01*
X27000Y37058D02*
X28310Y38368D01*
X27000Y37147D02*
X28310Y35837D01*
X27000Y36339D02*
X28310Y37649D01*
X27000Y33466D02*
X28310Y34776D01*
X27000Y27000D02*
X28310Y28310D01*
X27000Y34992D02*
X28310Y33682D01*
X27000Y27000D02*
X28310Y28310D01*
X483Y14133D02*
X9000Y22650D01*
X483Y27744D02*
X9000Y19226D01*
X483Y19880D02*
X9000Y28397D01*
X483Y27025D02*
X9000Y18508D01*
X483Y19162D02*
X9000Y27679D01*
X483Y28462D02*
X9000Y19945D01*
X483Y18443D02*
X9000Y26961D01*
X483Y20598D02*
X9000Y29116D01*
X483Y17725D02*
X9000Y26242D01*
X483Y26307D02*
X9000Y17789D01*
X483Y29899D02*
X9000Y21382D01*
X483Y22035D02*
X9000Y30553D01*
X483Y29181D02*
X9000Y20663D01*
X483Y21317D02*
X9000Y29834D01*
X483Y15569D02*
X9000Y24087D01*
X483Y23433D02*
X9000Y14916D01*
X483Y24152D02*
X9000Y15634D01*
X483Y22715D02*
X9000Y14197D01*
X483Y14851D02*
X9000Y23368D01*
X483Y17006D02*
X9000Y25524D01*
X483Y25588D02*
X9000Y17071D01*
X483Y16288D02*
X9000Y24805D01*
X483Y24870D02*
X9000Y16353D01*
X483Y7667D02*
X9000Y16184D01*
X483Y15531D02*
X9000Y7013D01*
X483Y16249D02*
X9000Y7732D01*
X27000Y4000D02*
Y47180D01*
X9000Y4000D02*
Y47180D01*
X483Y13414D02*
X9000Y21932D01*
X483Y21996D02*
X9000Y13479D01*
X483Y12696D02*
X9000Y21213D01*
X483Y21278D02*
X9000Y12760D01*
X6907Y7626D02*
X9000Y9718D01*
X7267Y7267D02*
X9000Y9000D01*
X6548Y7985D02*
X9000Y10437D01*
X7626Y6907D02*
X9000Y8282D01*
X7267Y7267D02*
X9000Y9000D01*
X4045Y8356D02*
X9000Y13311D01*
X3327Y8356D02*
X9000Y14029D01*
X6189Y8344D02*
X9000Y11155D01*
X5482Y8356D02*
X9000Y11874D01*
X483Y10540D02*
X9000Y19058D01*
X483Y18404D02*
X9000Y9887D01*
X483Y19123D02*
X9000Y10605D01*
X483Y17686D02*
X9000Y9168D01*
X483Y9822D02*
X9000Y18339D01*
X483Y11977D02*
X9000Y20495D01*
X483Y20559D02*
X9000Y12042D01*
X483Y11259D02*
X9000Y19776D01*
X483Y19841D02*
X9000Y11324D01*
X4764Y8356D02*
X9000Y12592D01*
X2822Y8356D02*
X6178D01*
X7856Y6678D01*
X483Y16967D02*
X9000Y8450D01*
X483Y9104D02*
X9000Y17621D01*
X483Y8385D02*
X9000Y16903D01*
X1144Y6678D02*
X2822Y8356D01*
X483Y39277D02*
X16348Y55143D01*
X483Y43549D02*
X9000Y35032D01*
X483Y35685D02*
X9000Y44203D01*
X483Y42831D02*
X9000Y34313D01*
X483Y34967D02*
X9000Y43484D01*
X483Y41433D02*
X15347Y56297D01*
X483Y42151D02*
X13850Y55518D01*
X483Y39996D02*
X16066Y55579D01*
X483Y40714D02*
X15707Y55938D01*
X483Y40675D02*
X9000Y32158D01*
X483Y32093D02*
X9000Y40611D01*
X483Y32812D02*
X9000Y41329D01*
X483Y29938D02*
X9000Y38455D01*
X483Y39957D02*
X9000Y31439D01*
X483Y42112D02*
X9000Y33595D01*
X483Y34248D02*
X9000Y42766D01*
X483Y41394D02*
X9000Y32876D01*
X483Y33530D02*
X9000Y42047D01*
X483Y38559D02*
X9000Y47076D01*
X483Y46423D02*
X9000Y37905D01*
X483Y47141D02*
X9000Y38624D01*
X483Y45704D02*
X9000Y37187D01*
X483Y37840D02*
X9000Y46358D01*
X483Y49296D02*
X9000Y40779D01*
X483Y50015D02*
X9000Y41497D01*
X483Y47859D02*
X9000Y39342D01*
X483Y48578D02*
X9000Y40061D01*
X483Y39238D02*
X9000Y30721D01*
X483Y31375D02*
X9000Y39892D01*
X483Y38520D02*
X9000Y30003D01*
X483Y30656D02*
X9000Y39174D01*
X483Y44986D02*
X9000Y36468D01*
X483Y37122D02*
X9000Y45639D01*
X483Y44267D02*
X9000Y35750D01*
X483Y36404D02*
X9000Y44921D01*
X483Y27783D02*
X9000Y36300D01*
X483Y35646D02*
X9000Y27129D01*
X483Y36365D02*
X9000Y27847D01*
X483Y34928D02*
X9000Y26410D01*
X483Y27064D02*
X9000Y35582D01*
X483Y29219D02*
X9000Y37737D01*
X483Y37802D02*
X9000Y29284D01*
X483Y28501D02*
X9000Y37018D01*
X483Y37083D02*
X9000Y28566D01*
X483Y6948D02*
X9000Y15466D01*
X483Y14812D02*
X9000Y6295D01*
X483Y30617D02*
X9000Y22100D01*
X483Y14094D02*
X9000Y5576D01*
X483Y6230D02*
X9000Y14747D01*
X483Y23472D02*
X9000Y31989D01*
X483Y26346D02*
X9000Y34863D01*
X483Y22754D02*
X9000Y31271D01*
X483Y31336D02*
X9000Y22818D01*
X483Y32773D02*
X9000Y24255D01*
X483Y24191D02*
X9000Y32708D01*
X483Y24909D02*
X9000Y33426D01*
X483Y32054D02*
X9000Y23537D01*
X483Y13375D02*
X5502Y8356D01*
X483Y25627D02*
X9000Y34145D01*
X483Y34209D02*
X9000Y25692D01*
X483Y33491D02*
X9000Y24974D01*
X483Y483D02*
Y64017D01*
Y9783D02*
X2366Y7900D01*
X483Y9065D02*
X2007Y7540D01*
X483Y8346D02*
X1648Y7181D01*
X483Y7628D02*
X1289Y6822D01*
X483Y12657D02*
X4784Y8356D01*
X483Y11938D02*
X4065Y8356D01*
X483Y11220D02*
X3347Y8356D01*
X483Y10502D02*
X2725Y8259D01*
X22071Y4000D02*
X23410Y2661D01*
X22776D02*
X24116Y4000D01*
X22058Y2661D02*
X23397Y4000D01*
X23495Y2661D02*
X24834Y4000D01*
X22789D02*
X24129Y2661D01*
X20634Y4000D02*
X21974Y2661D01*
X20621D02*
X21961Y4000D01*
X21353D02*
X22692Y2661D01*
X21340D02*
X22679Y4000D01*
X24945D02*
X26284Y2661D01*
X25650D02*
X26989Y4000D01*
X24932Y2661D02*
X26271Y4000D01*
X26382D02*
X27721Y2661D01*
X25663Y4000D02*
X27003Y2661D01*
X17834Y4000D02*
X27000D01*
X23508D02*
X24847Y2661D01*
X24226Y4000D02*
X25566Y2661D01*
X24213D02*
X25553Y4000D01*
X18820Y3015D02*
X19805Y4000D01*
X18479D02*
X19818Y2661D01*
X18461Y3374D02*
X19087Y4000D01*
X19197D02*
X20537Y2661D01*
X19184D02*
X20524Y4000D01*
X18101Y3733D02*
X18368Y4000D01*
X15568D02*
X15878Y3689D01*
X17834Y4000D02*
X19174Y2661D01*
X15568Y4000D02*
X15878Y3689D01*
X19903Y2661D02*
X21242Y4000D01*
X19916D02*
X21255Y2661D01*
X18418Y1149D02*
X19174D01*
X20611D02*
X21278Y483D01*
X20598D02*
X21265Y1149D01*
X18040Y1527D02*
X18418Y1149D01*
X15878Y3689D02*
X18040Y1527D01*
X18418Y1149D02*
X19174D01*
X18040Y1527D02*
X18418Y1149D01*
X22766D02*
X23433Y483D01*
X23472D02*
X24139Y1149D01*
X22754Y483D02*
X23420Y1149D01*
X24191Y483D02*
X24857Y1149D01*
X23485D02*
X24152Y483D01*
X21330Y1149D02*
X21996Y483D01*
X21317D02*
X21984Y1149D01*
X22048D02*
X22715Y483D01*
X22035D02*
X22702Y1149D01*
X26346Y483D02*
X27013Y1149D01*
X26358D02*
X27025Y483D01*
X25640Y1149D02*
X26307Y483D01*
X27077Y1149D02*
X27744Y483D01*
X27064D02*
X27731Y1149D01*
X24909Y483D02*
X25576Y1149D01*
X24203D02*
X24870Y483D01*
X25627D02*
X26294Y1149D01*
X24922D02*
X25588Y483D01*
X14168Y4000D02*
X17686Y483D01*
X14887Y4000D02*
X18404Y483D01*
X14851D02*
X16968Y2600D01*
X16288Y483D02*
X17686Y1881D01*
X15569Y483D02*
X17327Y2240D01*
X13414Y483D02*
X16250Y3318D01*
X12732Y4000D02*
X16249Y483D01*
X13450Y4000D02*
X16967Y483D01*
X14133D02*
X16609Y2959D01*
X19174Y1149D02*
X19841Y483D01*
X19162D02*
X19828Y1149D01*
X19893D02*
X20559Y483D01*
X19880D02*
X20547Y1149D01*
X17725Y483D02*
X18405Y1163D01*
X17006Y483D02*
X18046Y1522D01*
X18456Y1149D02*
X19123Y483D01*
X18443D02*
X19110Y1149D01*
X7856Y6002D02*
X9000Y4858D01*
X7856Y4264D02*
X9000Y5408D01*
X7856Y4982D02*
X9000Y6126D01*
X7856Y3545D02*
X9000Y4689D01*
X7856Y5284D02*
X9000Y4139D01*
X7856Y5700D02*
X9000Y6845D01*
X7856Y6419D02*
X9000Y7563D01*
X7856Y3322D02*
Y6678D01*
X9000Y4000D02*
X15568D01*
X6178Y1644D02*
X7856Y3322D01*
X5955Y1644D02*
X7856Y3545D01*
X5029Y1644D02*
X6191Y483D01*
X4793D02*
X5955Y1644D01*
X2822D02*
X6178D01*
X3592D02*
X4754Y483D01*
X4311Y1644D02*
X5473Y483D01*
X4075D02*
X5236Y1644D01*
X483Y4754D02*
X1144Y4092D01*
X483Y4793D02*
X1144Y5455D01*
Y3322D02*
Y6678D01*
X483Y6191D02*
X1144Y5529D01*
X483Y6909D02*
X1144Y6248D01*
X483Y5473D02*
X1144Y4811D01*
X483Y5512D02*
X1144Y6173D01*
Y3374D02*
X2874Y1644D01*
X483Y1919D02*
X1515Y2952D01*
X1144Y3322D02*
X2822Y1644D01*
X483Y1201D02*
X1874Y2593D01*
X483Y4036D02*
X1144Y3374D01*
X483Y4075D02*
X1144Y4737D01*
X483Y2638D02*
X1156Y3311D01*
X483Y3356D02*
X1144Y4018D01*
X9139Y4000D02*
X12657Y483D01*
X9822D02*
X13339Y4000D01*
X9104Y483D02*
X12621Y4000D01*
X10540Y483D02*
X14058Y4000D01*
X9858D02*
X13375Y483D01*
X7667D02*
X11184Y4000D01*
X6948Y483D02*
X10466Y4000D01*
X7856Y4565D02*
X11938Y483D01*
X8385D02*
X11903Y4000D01*
X11295D02*
X14812Y483D01*
X11977D02*
X15495Y4000D01*
X11259Y483D02*
X14776Y4000D01*
X12696Y483D02*
X15890Y3677D01*
X12013Y4000D02*
X15531Y483D01*
X7759Y3225D02*
X10502Y483D01*
X7400Y2866D02*
X9783Y483D01*
X10576Y4000D02*
X14094Y483D01*
X7856Y3847D02*
X11220Y483D01*
X5512D02*
X9029Y4000D01*
X6230Y483D02*
X9747Y4000D01*
X483Y1881D02*
X1881Y483D01*
X7040Y2507D02*
X9065Y483D01*
X6681Y2148D02*
X8346Y483D01*
X483Y3317D02*
X3317Y483D01*
X483Y2599D02*
X2599Y483D01*
X483D02*
X2233Y2233D01*
X483Y483D02*
X2233Y2233D01*
X3356Y483D02*
X4518Y1644D01*
X2874D02*
X4036Y483D01*
X6322Y1789D02*
X7628Y483D01*
X5748Y1644D02*
X6909Y483D01*
X1201D02*
X2593Y1874D01*
X483Y1162D02*
X1162Y483D01*
X2638D02*
X3800Y1644D01*
X1919Y483D02*
X3081Y1644D01*
D11*
X82000Y59500D02*
X85254D01*
X82000D02*
Y62754D01*
X78746Y59500D02*
X82000D01*
Y56246D02*
Y59500D01*
Y42390D02*
Y43544D01*
Y42390D02*
X83154D01*
X80846D02*
X82000D01*
Y41236D02*
Y42390D01*
X59503Y54940D02*
X60507D01*
Y53936D02*
Y54940D01*
X61511D01*
X60507D02*
Y55944D01*
X82000Y30750D02*
X83154D01*
X82000D02*
Y31904D01*
X80846Y30750D02*
X82000D01*
Y29596D02*
Y30750D01*
Y5000D02*
X85254D01*
X78746D02*
X82000D01*
Y8254D01*
Y1746D02*
Y5000D01*
X13144Y57474D02*
Y59328D01*
Y57474D02*
X14998D01*
X13144Y55620D02*
Y57474D01*
X11290D02*
X13144D01*
X1246Y59500D02*
X4500D01*
X7754D01*
X4500D02*
Y62754D01*
Y56246D02*
Y59500D01*
Y5000D02*
Y8254D01*
Y5000D02*
X7754D01*
X1246D02*
X4500D01*
Y1746D02*
Y5000D01*
D12*
X75550Y50500D02*
Y51460D01*
Y49000D02*
Y50500D01*
X75650Y50600D01*
X77690D01*
X75550Y51460D02*
X77690Y53600D01*
X75550Y49000D02*
X77600Y46950D01*
Y38700D02*
Y46950D01*
Y28200D02*
Y38700D01*
Y9500D02*
Y28200D01*
X77610Y28210D02*
X82000D01*
X77600Y28200D02*
X77610Y28210D01*
X58420Y1905D02*
X70005D01*
X77600Y9500D01*
Y38700D02*
X78750Y39850D01*
X82000D01*
X12827Y49276D02*
X17104Y53553D01*
Y57475D01*
X57492Y43100D02*
X61530D01*
X43600Y32400D02*
Y35030D01*
X43869Y32131D02*
X56134D01*
X43600Y32400D02*
X43869Y32131D01*
X43600Y7708D02*
Y10030D01*
Y7708D02*
X44069Y7239D01*
X56261D01*
X64100Y7585D02*
Y12900D01*
X58420Y1905D02*
X64100Y7585D01*
X64152Y43070D02*
X66830D01*
X63500Y42418D02*
X64152Y43070D01*
X57023Y33020D02*
Y42631D01*
X57492Y43100D01*
X25430Y35560D02*
X25620Y35750D01*
X16256Y35560D02*
X25430D01*
X38481Y1905D02*
X38620Y2044D01*
X42037Y1905D02*
X43466Y3334D01*
X42037Y1905D02*
X58420D01*
X34798Y23241D02*
X41777Y30220D01*
X34798Y1905D02*
Y23241D01*
X41777Y30220D02*
X43600D01*
X38620D02*
X41777D01*
X38620Y5220D02*
X43600D01*
X34798Y1905D02*
X38481D01*
X18796D02*
X34798D01*
X38481D02*
X42037D01*
X43466Y5086D02*
X43600Y5220D01*
X43466Y3334D02*
Y5086D01*
X16256Y4445D02*
X18796Y1905D01*
X16256Y4445D02*
Y35560D01*
X12827Y38989D02*
Y49276D01*
Y38989D02*
X16256Y35560D01*
X63500Y35306D02*
Y42418D01*
X57531Y29337D02*
X63500Y35306D01*
X57531Y8509D02*
Y29337D01*
X56261Y7239D02*
X57531Y8509D01*
X56134Y32131D02*
X57023Y33020D01*
D13*
X46500Y44960D02*
Y45460D01*
Y18605D02*
Y20460D01*
X54550Y48000D02*
Y49590D01*
X52832Y51308D02*
X54550Y49590D01*
X50400Y48000D02*
Y49676D01*
X49530Y50546D02*
X50400Y49676D01*
X46266Y49784D02*
X46500Y49550D01*
X41136Y49784D02*
X46266D01*
X46500Y48000D02*
Y49550D01*
X42594Y48000D02*
X42600D01*
X42588Y48006D02*
X42594Y48000D01*
X40894Y48006D02*
X42588D01*
X45466Y17571D02*
X46500Y18605D01*
X16256Y38227D02*
X21844D01*
X22479Y38862D01*
Y49403D01*
X29845Y56769D01*
X54102D01*
X56773Y59440D01*
X60507D01*
X28202Y48000D02*
X31000D01*
X27815Y48387D02*
X28202Y48000D01*
X24892Y48387D02*
X27815D01*
X45466Y17526D02*
Y17571D01*
Y17526D02*
X48680Y14312D01*
Y10030D02*
Y14312D01*
X41554Y17526D02*
X45466D01*
X38620Y20460D02*
X41554Y17526D01*
X44974Y43434D02*
X48680Y39728D01*
Y35030D02*
Y39728D01*
X40646Y43434D02*
X44974D01*
X46500Y44960D01*
X38620Y45460D02*
X40646Y43434D01*
X35716Y53184D02*
X40894Y48006D01*
X35196Y53184D02*
X35716D01*
X35000Y53380D02*
X35196Y53184D01*
X37540Y53380D02*
X41136Y49784D01*
X42914Y50546D02*
X49530D01*
X40080Y53380D02*
X42914Y50546D01*
X44692Y51308D02*
X52832D01*
X42620Y53380D02*
X44692Y51308D01*
D14*
X77690Y53600D02*
D03*
X85310D02*
D03*
X77690Y50600D02*
D03*
X85310D02*
D03*
X35000Y61000D02*
D03*
Y53380D02*
D03*
X37540D02*
D03*
Y61000D02*
D03*
X40080Y53380D02*
D03*
Y61000D02*
D03*
X42620Y53380D02*
D03*
Y61000D02*
D03*
X45160Y53380D02*
D03*
Y61000D02*
D03*
X47700Y53380D02*
D03*
Y61000D02*
D03*
X50240Y53380D02*
D03*
Y61000D02*
D03*
X52780Y53380D02*
D03*
Y61000D02*
D03*
D15*
X20550Y43270D02*
D03*
X18010D02*
D03*
X15470D02*
D03*
X20550Y45810D02*
D03*
X18010D02*
D03*
X15470D02*
D03*
X25620Y43370D02*
D03*
Y40830D02*
D03*
Y38290D02*
D03*
Y35750D02*
D03*
Y33210D02*
D03*
Y30670D02*
D03*
Y28130D02*
D03*
Y25590D02*
D03*
Y23050D02*
D03*
Y20510D02*
D03*
Y17970D02*
D03*
Y15430D02*
D03*
Y12890D02*
D03*
Y10350D02*
D03*
Y7810D02*
D03*
X10380D02*
D03*
Y10350D02*
D03*
Y12890D02*
D03*
Y15430D02*
D03*
Y17970D02*
D03*
Y20510D02*
D03*
Y23050D02*
D03*
Y25590D02*
D03*
Y28130D02*
D03*
Y30670D02*
D03*
Y33210D02*
D03*
Y35750D02*
D03*
Y38290D02*
D03*
Y40830D02*
D03*
Y43370D02*
D03*
X82000Y39850D02*
D03*
Y42390D02*
D03*
Y44930D02*
D03*
Y28210D02*
D03*
Y30750D02*
D03*
Y33290D02*
D03*
D16*
X25620Y45910D02*
D03*
X10380D02*
D03*
X25620Y5270D02*
D03*
X10380D02*
D03*
D17*
X13144Y57474D02*
D03*
X17104D02*
D03*
X21064D02*
D03*
X25024D02*
D03*
D18*
X53760Y10030D02*
D03*
X51220D02*
D03*
X48680D02*
D03*
X46140D02*
D03*
X43600D02*
D03*
X53760Y35030D02*
D03*
X51220D02*
D03*
X48680D02*
D03*
X46140D02*
D03*
X43600D02*
D03*
X66830Y24210D02*
D03*
Y19130D02*
D03*
X61530Y24210D02*
D03*
Y19130D02*
D03*
X66830Y43070D02*
D03*
Y37990D02*
D03*
X61530Y43070D02*
D03*
Y37990D02*
D03*
X46250Y23000D02*
D03*
X54550D02*
D03*
Y48000D02*
D03*
X50400Y23000D02*
D03*
Y48000D02*
D03*
X46250D02*
D03*
X42100Y23000D02*
D03*
Y48000D02*
D03*
X43600Y30220D02*
D03*
X46140D02*
D03*
X43600Y5220D02*
D03*
X46140D02*
D03*
X60507Y59440D02*
D03*
X67007D02*
D03*
X60507Y54940D02*
D03*
X67007D02*
D03*
D19*
X66830Y21670D02*
D03*
X61530D02*
D03*
X66830Y40530D02*
D03*
X61530D02*
D03*
X46250Y20460D02*
D03*
X54550D02*
D03*
Y45460D02*
D03*
X50400Y20460D02*
D03*
Y45460D02*
D03*
X46250D02*
D03*
X42100Y20460D02*
D03*
Y45460D02*
D03*
D20*
X31000Y48000D02*
D03*
Y45460D02*
D03*
Y42920D02*
D03*
Y40380D02*
D03*
X38620Y30220D02*
D03*
Y32760D02*
D03*
Y35300D02*
D03*
Y37840D02*
D03*
Y40380D02*
D03*
Y42920D02*
D03*
Y45460D02*
D03*
Y48000D02*
D03*
X31000Y23000D02*
D03*
Y20460D02*
D03*
Y17920D02*
D03*
Y15380D02*
D03*
X38620Y5220D02*
D03*
Y7760D02*
D03*
Y10300D02*
D03*
Y12840D02*
D03*
Y15380D02*
D03*
Y17920D02*
D03*
Y20460D02*
D03*
Y23000D02*
D03*
D21*
X31000Y37840D02*
D03*
Y35300D02*
D03*
Y32760D02*
D03*
Y30220D02*
D03*
Y12840D02*
D03*
Y10300D02*
D03*
Y7760D02*
D03*
Y5220D02*
D03*
D22*
X82000Y5000D02*
D03*
Y59500D02*
D03*
X4500D02*
D03*
Y5000D02*
D03*
D23*
X64100Y12900D02*
D03*
X16256Y38227D02*
D03*
X24892Y48387D02*
D03*
%TF.MD5,b9c2a52e1bd603f8bdc289221ed46cd3*%
M02*
