%TF.GenerationSoftware,Altium Limited,Altium Designer,21.8.1 (53)*%
G04 Layer_Physical_Order=3*
G04 Layer_Color=16440176*
%FSLAX43Y43*%
%MOMM*%
%TF.SameCoordinates,EC881490-E286-48FB-906B-DE43019234B0*%
%TF.FilePolarity,Positive*%
%TF.FileFunction,Copper,L3,Inr,Signal*%
%TF.Part,Single*%
G01*
G75*
%TA.AperFunction,Conductor*%
%ADD12C,0.800*%
%ADD13C,0.400*%
%TA.AperFunction,ComponentPad*%
%ADD14C,1.400*%
%ADD15C,1.800*%
%ADD16C,1.524*%
%ADD17C,3.200*%
%ADD18C,1.500*%
%ADD19R,1.500X1.500*%
%ADD20C,1.425*%
%ADD21R,1.425X1.425*%
%TA.AperFunction,ViaPad*%
%ADD22C,6.000*%
%ADD23C,1.270*%
D12*
X67019Y24210D02*
X67369Y24560D01*
X67460D01*
X74549Y31649D01*
X66830Y24210D02*
X67019D01*
X74549Y31649D02*
Y45720D01*
X45160Y58599D02*
X46736Y57023D01*
X45160Y58599D02*
Y61000D01*
X52705Y57023D02*
X62396D01*
X50292D02*
X52705D01*
X52780Y57098D02*
Y61000D01*
X52705Y57023D02*
X52780Y57098D01*
X47625Y57023D02*
X50292D01*
X50240Y57075D02*
Y61000D01*
Y57075D02*
X50292Y57023D01*
X46736D02*
X47625D01*
X47700Y57098D01*
Y61000D01*
X62396Y57023D02*
X62865Y56554D01*
Y52412D02*
Y56554D01*
X63334Y51943D02*
X68326D01*
X62865Y52412D02*
X63334Y51943D01*
X68326D02*
X74549Y45720D01*
D13*
X19850Y1900D02*
X34285D01*
X17450Y4300D02*
X19850Y1900D01*
X34285D02*
X35560Y3175D01*
X32976Y2750D02*
X34417Y4191D01*
X21300Y2750D02*
X32976D01*
X18750Y5300D02*
X21300Y2750D01*
X10380Y15430D02*
X14320D01*
X15850Y3200D02*
Y13900D01*
X14320Y15430D02*
X15850Y13900D01*
Y3200D02*
X18034Y1016D01*
X10380Y17970D02*
X15680D01*
X17450Y4300D02*
Y16200D01*
X15680Y17970D02*
X17450Y16200D01*
X18034Y1016D02*
X35941D01*
X18750Y5300D02*
Y17500D01*
X15740Y20510D02*
X18750Y17500D01*
X22967Y3683D02*
X32659D01*
X20800Y5850D02*
Y19200D01*
Y5850D02*
X22967Y3683D01*
X16950Y23050D02*
X20800Y19200D01*
X10380Y20510D02*
X15740D01*
X10380Y23050D02*
X16950D01*
X54467Y23167D02*
X54730Y23430D01*
Y23930D01*
X58186Y27386D01*
X52070Y51542D02*
Y51550D01*
X52304Y51308D02*
X53594D01*
X52070Y51542D02*
X52304Y51308D01*
X53594D02*
X56261Y48641D01*
Y28861D02*
Y48641D01*
X50400Y23000D02*
X56261Y28861D01*
X50240Y53380D02*
X52070Y51550D01*
X58186Y27386D02*
Y50272D01*
X52780Y53380D02*
X55078D01*
X58186Y50272D01*
X7747Y46736D02*
X9398Y48387D01*
X24892D01*
X7747Y33655D02*
Y46736D01*
Y33655D02*
X8192Y33210D01*
X10380D01*
X6096Y49550D02*
X6330Y49784D01*
X6096Y31877D02*
Y49550D01*
X26676Y49784D02*
X31000Y45460D01*
X6330Y49784D02*
X26676D01*
X7303Y30670D02*
X10380D01*
X6096Y31877D02*
X7303Y30670D01*
X31000Y42920D02*
X35066D01*
X35560Y43414D01*
Y49530D01*
X34798Y50292D02*
X35560Y49530D01*
X32004Y50292D02*
X34798D01*
X30480Y51816D02*
X32004Y50292D01*
X5461Y51816D02*
X30480D01*
X4191Y30226D02*
Y50546D01*
X5461Y51816D01*
X2286Y27813D02*
Y51308D01*
X4445Y53467D02*
X30861D01*
X2286Y51308D02*
X4445Y53467D01*
X30861D02*
X32639Y51689D01*
X35241D02*
X36957Y49973D01*
X32639Y51689D02*
X35241D01*
X36957Y41402D02*
Y49973D01*
X35935Y40380D02*
X36957Y41402D01*
X31000Y40380D02*
X35935D01*
X6287Y28130D02*
X10380D01*
X4191Y30226D02*
X6287Y28130D01*
X4509Y25590D02*
X10380D01*
X2286Y27813D02*
X4509Y25590D01*
X35941Y1016D02*
X36830Y1905D01*
X32893Y3917D02*
Y13487D01*
X32659Y3683D02*
X32893Y3917D01*
X31000Y15380D02*
X32893Y13487D01*
X31000Y17920D02*
X31013Y17907D01*
X33274D01*
X34417Y4191D02*
Y16764D01*
X33274Y17907D02*
X34417Y16764D01*
X36830Y1905D02*
Y21082D01*
X35560Y3175D02*
Y19558D01*
X34912Y23000D02*
X36830Y21082D01*
X34544Y20574D02*
X35560Y19558D01*
X31114Y20574D02*
X34544D01*
X31000Y20460D02*
X31114Y20574D01*
X31000Y23000D02*
X34912D01*
X49276Y15621D02*
X50400Y16745D01*
Y20460D01*
X51220Y10030D02*
Y13677D01*
X49276Y15621D02*
X51220Y13677D01*
X40919Y15621D02*
X49276D01*
X38620Y17920D02*
X40919Y15621D01*
X51220Y35030D02*
Y39204D01*
X48387Y42037D02*
X51220Y39204D01*
X50400Y44050D02*
Y45460D01*
X48387Y42037D02*
X50400Y44050D01*
X39593Y42037D02*
X48387D01*
X38620Y42920D02*
X38710D01*
X39593Y42037D01*
D14*
X77690Y53600D02*
D03*
X85310D02*
D03*
X77690Y50600D02*
D03*
X85310D02*
D03*
X35000Y61000D02*
D03*
Y53380D02*
D03*
X37540D02*
D03*
Y61000D02*
D03*
X40080Y53380D02*
D03*
Y61000D02*
D03*
X42620Y53380D02*
D03*
Y61000D02*
D03*
X45160Y53380D02*
D03*
Y61000D02*
D03*
X47700Y53380D02*
D03*
Y61000D02*
D03*
X50240Y53380D02*
D03*
Y61000D02*
D03*
X52780Y53380D02*
D03*
Y61000D02*
D03*
D15*
X20550Y43270D02*
D03*
X18010D02*
D03*
X15470D02*
D03*
X20550Y45810D02*
D03*
X18010D02*
D03*
X15470D02*
D03*
X25620Y43370D02*
D03*
Y40830D02*
D03*
Y38290D02*
D03*
Y35750D02*
D03*
Y33210D02*
D03*
Y30670D02*
D03*
Y28130D02*
D03*
Y25590D02*
D03*
Y23050D02*
D03*
Y20510D02*
D03*
Y17970D02*
D03*
Y15430D02*
D03*
Y12890D02*
D03*
Y10350D02*
D03*
Y7810D02*
D03*
X10380D02*
D03*
Y10350D02*
D03*
Y12890D02*
D03*
Y15430D02*
D03*
Y17970D02*
D03*
Y20510D02*
D03*
Y23050D02*
D03*
Y25590D02*
D03*
Y28130D02*
D03*
Y30670D02*
D03*
Y33210D02*
D03*
Y35750D02*
D03*
Y38290D02*
D03*
Y40830D02*
D03*
Y43370D02*
D03*
X82000Y39850D02*
D03*
Y42390D02*
D03*
Y44930D02*
D03*
Y28210D02*
D03*
Y30750D02*
D03*
Y33290D02*
D03*
D16*
X25620Y45910D02*
D03*
X10380D02*
D03*
X25620Y5270D02*
D03*
X10380D02*
D03*
D17*
X13144Y57474D02*
D03*
X17104D02*
D03*
X21064D02*
D03*
X25024D02*
D03*
D18*
X53760Y10030D02*
D03*
X51220D02*
D03*
X48680D02*
D03*
X46140D02*
D03*
X43600D02*
D03*
X53760Y35030D02*
D03*
X51220D02*
D03*
X48680D02*
D03*
X46140D02*
D03*
X43600D02*
D03*
X66830Y24210D02*
D03*
Y19130D02*
D03*
X61530Y24210D02*
D03*
Y19130D02*
D03*
X66830Y43070D02*
D03*
Y37990D02*
D03*
X61530Y43070D02*
D03*
Y37990D02*
D03*
X46250Y23000D02*
D03*
X54550D02*
D03*
Y48000D02*
D03*
X50400Y23000D02*
D03*
Y48000D02*
D03*
X46250D02*
D03*
X42100Y23000D02*
D03*
Y48000D02*
D03*
X43600Y30220D02*
D03*
X46140D02*
D03*
X43600Y5220D02*
D03*
X46140D02*
D03*
X60507Y59440D02*
D03*
X67007D02*
D03*
X60507Y54940D02*
D03*
X67007D02*
D03*
D19*
X66830Y21670D02*
D03*
X61530D02*
D03*
X66830Y40530D02*
D03*
X61530D02*
D03*
X46250Y20460D02*
D03*
X54550D02*
D03*
Y45460D02*
D03*
X50400Y20460D02*
D03*
Y45460D02*
D03*
X46250D02*
D03*
X42100Y20460D02*
D03*
Y45460D02*
D03*
D20*
X31000Y48000D02*
D03*
Y45460D02*
D03*
Y42920D02*
D03*
Y40380D02*
D03*
X38620Y30220D02*
D03*
Y32760D02*
D03*
Y35300D02*
D03*
Y37840D02*
D03*
Y40380D02*
D03*
Y42920D02*
D03*
Y45460D02*
D03*
Y48000D02*
D03*
X31000Y23000D02*
D03*
Y20460D02*
D03*
Y17920D02*
D03*
Y15380D02*
D03*
X38620Y5220D02*
D03*
Y7760D02*
D03*
Y10300D02*
D03*
Y12840D02*
D03*
Y15380D02*
D03*
Y17920D02*
D03*
Y20460D02*
D03*
Y23000D02*
D03*
D21*
X31000Y37840D02*
D03*
Y35300D02*
D03*
Y32760D02*
D03*
Y30220D02*
D03*
Y12840D02*
D03*
Y10300D02*
D03*
Y7760D02*
D03*
Y5220D02*
D03*
D22*
X82000Y5000D02*
D03*
Y59500D02*
D03*
X4500D02*
D03*
Y5000D02*
D03*
D23*
X64100Y12900D02*
D03*
X16256Y38227D02*
D03*
X24892Y48387D02*
D03*
%TF.MD5,dae4bb61e8c5c66e3c55af3b99774fcd*%
M02*
