%TF.GenerationSoftware,Altium Limited,Altium Designer,21.8.1 (53)*%
G04 Layer_Physical_Order=4*
G04 Layer_Color=16711680*
%FSLAX43Y43*%
%MOMM*%
%TF.SameCoordinates,EC881490-E286-48FB-906B-DE43019234B0*%
%TF.FilePolarity,Positive*%
%TF.FileFunction,Copper,L4,Bot,Signal*%
%TF.Part,Single*%
G01*
G75*
%TA.AperFunction,NonConductor*%
%ADD10C,0.203*%
%TA.AperFunction,Conductor*%
%ADD12C,0.800*%
%ADD13C,0.400*%
%TA.AperFunction,ComponentPad*%
%ADD14C,1.400*%
%ADD15C,1.800*%
%ADD16C,1.524*%
%ADD17C,3.200*%
%ADD18C,1.500*%
%ADD19R,1.500X1.500*%
%ADD20C,1.425*%
%ADD21R,1.425X1.425*%
%TA.AperFunction,ViaPad*%
%ADD22C,6.000*%
%ADD23C,1.270*%
%TA.AperFunction,Conductor*%
%ADD24C,0.600*%
D10*
X84904Y64017D02*
X86017Y62904D01*
X85121Y61413D02*
X86017Y62310D01*
X85622Y64017D02*
X86017Y63622D01*
Y54476D02*
Y64017D01*
X85356Y60211D02*
X86017Y60873D01*
X85356Y60929D02*
X86017Y61591D01*
X84402Y62131D02*
X86017Y63746D01*
X84761Y61772D02*
X86017Y63028D01*
X84185Y64017D02*
X86017Y62185D01*
X82748Y64017D02*
X86017Y60748D01*
X83467Y64017D02*
X86017Y61467D01*
X85356Y58536D02*
X86017Y57875D01*
X85548Y54656D02*
X86017Y55125D01*
X85356Y60692D02*
X86017Y60030D01*
X85838Y52544D02*
X86017Y52724D01*
X85838Y54656D02*
X86017Y54476D01*
X84994Y57461D02*
X86017Y56438D01*
X84635Y57102D02*
X86017Y55719D01*
X85354Y57820D02*
X86017Y57156D01*
X84829Y54656D02*
X86017Y55844D01*
X84276Y56742D02*
X86017Y55001D01*
X85356Y59973D02*
X86017Y59311D01*
X85356Y58774D02*
X86017Y59436D01*
X85356Y59492D02*
X86017Y60154D01*
X85356Y58056D02*
X86017Y58717D01*
X85356Y59255D02*
X86017Y58593D01*
X83684Y62850D02*
X84852Y64017D01*
X84043Y62490D02*
X85570Y64017D01*
X82971Y62856D02*
X84133Y64017D01*
X85356Y57822D02*
Y61178D01*
X83678Y62856D02*
X85356Y61178D01*
X84254Y54081D02*
X84829Y54656D01*
X84782D02*
X85838D01*
X84254Y54128D02*
X84782Y54656D01*
X85088Y52544D02*
X85838D01*
X84254Y53378D02*
Y54128D01*
X83444Y56144D02*
X85356Y58056D01*
X83678Y56144D02*
X85356Y57822D01*
X83437Y56144D02*
X84926Y54656D01*
X83917Y56383D02*
X85644Y54656D01*
X82719Y56144D02*
X84495Y54368D01*
X85600Y52544D02*
X86017Y52127D01*
X85421Y51656D02*
X86017Y52252D01*
X84985Y52441D02*
X85771Y51656D01*
X86017Y51476D02*
Y52724D01*
X85838Y51656D02*
X86017Y51476D01*
X84166Y51622D02*
X85088Y52544D01*
X84782Y51656D02*
X85838D01*
X84626Y52082D02*
X85052Y51656D01*
X82556Y49508D02*
X85592Y52544D01*
X84254Y51128D02*
X84782Y51656D01*
X85866Y49226D02*
X86017Y49378D01*
X85866Y48687D02*
X86017Y48535D01*
X85866Y49405D02*
X86017Y49254D01*
X85866Y48508D02*
X86017Y48660D01*
X85866Y36878D02*
Y49572D01*
X86017Y49724D01*
X82556Y47353D02*
X84754Y49552D01*
X82556Y49842D02*
X84754Y47643D01*
Y36878D02*
Y49572D01*
X82556Y49123D02*
X84754Y46924D01*
X83332Y52456D02*
X84254Y53378D01*
X84266Y51723D02*
X84558Y51431D01*
X83888Y51344D02*
X84166Y51622D01*
X83907Y51364D02*
X84254Y51017D01*
X83888Y51344D02*
X84166Y51622D01*
X82629Y52456D02*
X84254Y54081D01*
X83028Y51344D02*
X83332D01*
X83028Y52456D02*
X83332D01*
X82556Y50227D02*
X83673Y51344D01*
X82556Y50872D02*
X83028Y51344D01*
X83332D02*
X83888D01*
X83208D02*
X84254Y50298D01*
X83332Y51344D02*
X83888D01*
X84254Y50072D02*
X84754Y49572D01*
X84254Y50072D02*
Y51128D01*
X82759Y51075D02*
X84754Y49080D01*
X82556Y50560D02*
X84754Y48361D01*
X82556Y48790D02*
X84254Y50489D01*
X82556Y48071D02*
X84405Y49921D01*
X82556Y46186D02*
Y50872D01*
X81311Y64017D02*
X82473Y62856D01*
X81535D02*
X82696Y64017D01*
X80816Y62856D02*
X81978Y64017D01*
X82253Y62856D02*
X83415Y64017D01*
X82030D02*
X83192Y62856D01*
X71972Y64017D02*
X83433Y52556D01*
X80322Y62856D02*
X83678D01*
X71254Y64017D02*
X82815Y52456D01*
X70535Y64017D02*
X82285Y52268D01*
X77519Y51656D02*
X82008Y56144D01*
X82000D02*
X84254Y53890D01*
X82472Y52456D02*
X83028D01*
X82472D02*
X83028D01*
X82194Y52178D02*
X82472Y52456D01*
X82194Y52178D02*
X82472Y52456D01*
X80563Y56144D02*
X83792Y52916D01*
X81282Y56144D02*
X84151Y53275D01*
X80322Y56144D02*
X83678D01*
X78227Y51646D02*
X82726Y56144D01*
X81722Y51706D02*
X82194Y52178D01*
X79875Y64017D02*
X81036Y62856D01*
X80593Y64017D02*
X81755Y62856D01*
X79156Y64017D02*
X80320Y62854D01*
X78438Y64017D02*
X79961Y62494D01*
X77719Y64017D02*
X79602Y62135D01*
X76283Y64017D02*
X78883Y61417D01*
X77001Y64017D02*
X79242Y61776D01*
X74846Y64017D02*
X78644Y60219D01*
X69817Y64017D02*
X81925Y51909D01*
X69098Y64017D02*
X81566Y51550D01*
X78644Y58063D02*
X80563Y56144D01*
X78650Y54224D02*
X80571Y56144D01*
X78644Y57822D02*
X80322Y56144D01*
X78746Y53601D02*
X81289Y56144D01*
X78746Y53072D02*
Y54128D01*
X78644Y61178D02*
X80322Y62856D01*
X78291Y54583D02*
X80087Y56379D01*
X77645Y54656D02*
X79728Y56739D01*
X78218Y52544D02*
X78746Y53072D01*
X78218Y54656D02*
X78746Y54128D01*
X81444Y51428D02*
X81722Y51706D01*
X81444Y51428D02*
X81722Y51706D01*
X78746Y53652D02*
X81444Y50953D01*
X78746Y50727D02*
X86017Y57999D01*
X78676Y53003D02*
X81444Y50234D01*
X78587Y51287D02*
X83444Y56144D01*
X77698Y52544D02*
X81444Y48798D01*
X78317Y52644D02*
X81444Y49516D01*
X70225Y40769D02*
X86017Y56562D01*
X70225Y41488D02*
X86017Y57281D01*
X81444Y50872D02*
Y51428D01*
X78746Y50778D02*
X81444Y48079D01*
Y50872D02*
Y51428D01*
X82556Y46635D02*
X84754Y48833D01*
X78739Y50066D02*
X81444Y47361D01*
X70225Y40051D02*
X81444Y51271D01*
X70225Y39332D02*
X81444Y50552D01*
X78380Y49707D02*
X81444Y46642D01*
X70225Y37896D02*
X81444Y49115D01*
X70225Y38614D02*
X81444Y49834D01*
X67938Y58712D02*
X80918Y45732D01*
X67578Y58353D02*
X80744Y45187D01*
X66879Y58334D02*
X80725Y44488D01*
X61418Y44176D02*
X81260Y64017D01*
X62470Y41636D02*
X78650Y57816D01*
X59759Y64017D02*
X80006Y43770D01*
X60477Y64017D02*
X80366Y44129D01*
X57652Y42565D02*
X79104Y64017D01*
X57652Y41128D02*
X80541Y64017D01*
X57652Y41846D02*
X79823Y64017D01*
X78746Y50072D02*
Y51128D01*
X78218Y49544D02*
X78746Y50072D01*
X78218Y51656D02*
X78746Y51128D01*
X81444Y46186D02*
Y50872D01*
X77824Y49544D02*
X81277Y46091D01*
X66447Y44176D02*
X79369Y57098D01*
X68113Y54945D02*
X79647Y43411D01*
X68032Y54307D02*
X79288Y43051D01*
X62838Y41286D02*
X79010Y57457D01*
X67673Y53948D02*
X78929Y42692D01*
X85866Y45813D02*
X86017Y45661D01*
X85866Y45634D02*
X86017Y45786D01*
X85866Y46352D02*
X86017Y46504D01*
X85866Y44916D02*
X86017Y45067D01*
X85866Y44376D02*
X86017Y44225D01*
X85866Y45095D02*
X86017Y44943D01*
X85866Y47789D02*
X86017Y47941D01*
X85866Y47250D02*
X86017Y47098D01*
X85866Y47969D02*
X86017Y47817D01*
X85866Y46532D02*
X86017Y46380D01*
X85866Y47071D02*
X86017Y47223D01*
X85866Y41503D02*
X86017Y41351D01*
X85866Y41323D02*
X86017Y41475D01*
X85866Y42042D02*
X86017Y42194D01*
X85866Y40605D02*
X86017Y40757D01*
X85866Y40784D02*
X86017Y40632D01*
X85866Y43479D02*
X86017Y43631D01*
X85866Y42940D02*
X86017Y42788D01*
X85866Y43658D02*
X86017Y43506D01*
X85866Y42221D02*
X86017Y42069D01*
X85866Y42760D02*
X86017Y42912D01*
X83256Y45179D02*
X84754Y46678D01*
X83256Y44461D02*
X84754Y45960D01*
X83256Y44302D02*
Y45558D01*
Y44831D02*
X84754Y43332D01*
X83256Y45550D02*
X84754Y44051D01*
X82726Y46087D02*
X84754Y48115D01*
X83086Y45728D02*
X84754Y47396D01*
X82628Y46186D02*
X83256Y45558D01*
X83253Y43021D02*
X84754Y44523D01*
X82893Y43380D02*
X84754Y45241D01*
X85866Y44197D02*
X86017Y44349D01*
X83256Y42306D02*
X84754Y43804D01*
X83161Y44207D02*
X84754Y42614D01*
X83256Y42676D02*
X84754Y41177D01*
X83256Y41762D02*
Y43018D01*
X82802Y43848D02*
X84754Y41896D01*
X82628Y43646D02*
X83256Y43018D01*
X82628Y43674D02*
X83256Y44302D01*
X83060Y40673D02*
X84754Y42368D01*
X82701Y41032D02*
X84754Y43086D01*
X85866Y37731D02*
X86017Y37883D01*
X85866Y37192D02*
X86017Y37040D01*
X85866Y37911D02*
X86017Y37759D01*
X85866Y36474D02*
X86017Y36322D01*
X85866Y37013D02*
X86017Y37165D01*
X85866Y39887D02*
X86017Y40038D01*
X85866Y39347D02*
X86017Y39196D01*
X85866Y40066D02*
X86017Y39914D01*
X83256Y33685D02*
X86017Y36446D01*
X85866Y38450D02*
X86017Y38602D01*
X85223Y35680D02*
X86017Y34885D01*
X84864Y35320D02*
X86017Y34167D01*
X85582Y36039D02*
X86017Y35604D01*
X84145Y34602D02*
X86017Y32730D01*
X84505Y34961D02*
X86017Y33448D01*
X82821Y31813D02*
X86017Y35009D01*
X83786Y34243D02*
X86017Y32011D01*
X83256Y32966D02*
X86017Y35728D01*
X83427Y33884D02*
X86017Y31293D01*
X83180Y31454D02*
X86017Y34291D01*
X83256Y40150D02*
X84754Y41649D01*
X83256Y39432D02*
X84754Y40931D01*
X83256Y39222D02*
Y40478D01*
X85866Y39168D02*
X86017Y39320D01*
X83256Y39802D02*
X84754Y38303D01*
X83256Y41957D02*
X84754Y40459D01*
X82994Y41501D02*
X84754Y39740D01*
X82628Y41106D02*
X83256Y40478D01*
X82635Y41141D02*
X84754Y39022D01*
X82628Y38594D02*
X83256Y39222D01*
X85866Y38629D02*
X86017Y38477D01*
X85866Y36322D02*
Y36878D01*
Y36322D02*
Y36878D01*
X85588Y36044D02*
X85866Y36322D01*
X85588Y36044D02*
X85866Y36322D01*
X83186Y39153D02*
X84754Y37585D01*
X83256Y33712D02*
X85588Y36044D01*
X82827Y38794D02*
X84749Y36872D01*
X82628Y32034D02*
X83256Y32662D01*
Y33712D01*
X82556Y48405D02*
X84754Y46206D01*
X82620Y46186D02*
X83256Y45550D01*
X82556Y46250D02*
X82620Y46186D01*
X82556Y46968D02*
X84754Y44769D01*
X82556Y47686D02*
X84754Y45488D01*
X70225Y37177D02*
X81444Y48397D01*
X81578Y43674D02*
X82628D01*
X81388Y46186D02*
X81444Y46242D01*
X70225Y35740D02*
X81444Y46960D01*
X70225Y36459D02*
X81444Y47679D01*
X82628Y41134D02*
X83256Y41762D01*
X81372Y38594D02*
X82628D01*
X81549Y43646D02*
X82628D01*
X82308Y38594D02*
X84390Y36513D01*
X81590Y38594D02*
X84030Y36154D01*
X81372Y41106D02*
X82628D01*
X78685Y40781D02*
X83671Y35795D01*
X81372Y41134D02*
X82628D01*
X78325Y40422D02*
X83312Y35435D01*
X77966Y40063D02*
X82953Y35076D01*
X80744Y45558D02*
X81372Y46186D01*
X80744Y45542D02*
X81388Y46186D01*
X80744Y44508D02*
Y45558D01*
Y41762D02*
Y42841D01*
X80481Y42577D02*
X80744Y42313D01*
X75106Y37202D02*
X80744Y42841D01*
X80121Y42218D02*
X81303Y41036D01*
X74272Y38036D02*
X80744Y44508D01*
X70225Y35022D02*
X80744Y45542D01*
X75106Y37029D02*
X80744Y42668D01*
Y41762D02*
X81372Y41134D01*
X80744Y40478D02*
X81372Y41106D01*
X79762Y41859D02*
X80944Y40677D01*
X80744Y39222D02*
X81372Y38594D01*
X80744Y39222D02*
Y40478D01*
X75106Y36311D02*
X80744Y41950D01*
X79044Y41140D02*
X80744Y39440D01*
X79403Y41500D02*
X80744Y40158D01*
X75106Y34874D02*
X81369Y41138D01*
X75106Y35592D02*
X81010Y41497D01*
X77607Y39704D02*
X82594Y34717D01*
X81961Y34546D02*
X84754Y37339D01*
X77248Y39344D02*
X82046Y34546D01*
X80543Y33846D02*
X84754Y38057D01*
X82422Y34546D02*
X84754Y36878D01*
X76888Y38985D02*
X81350Y34523D01*
X75106Y32719D02*
X81177Y38790D01*
X76529Y38626D02*
X80991Y34164D01*
X75106Y31282D02*
X82418Y38594D01*
X75106Y32000D02*
X81700Y38594D01*
X81372Y32034D02*
X82628D01*
X81372Y32006D02*
X82628D01*
X81372Y34546D02*
X82422D01*
X82628Y32006D02*
X83256Y31378D01*
X80744D02*
X81372Y32006D01*
X80744Y33918D02*
X81372Y34546D01*
X80744Y32662D02*
X81372Y32034D01*
X80417Y32583D02*
X81183Y31817D01*
X79706Y30853D02*
X81130Y32277D01*
X80057Y32224D02*
X80824Y31457D01*
X76170Y38267D02*
X80591Y33846D01*
X79734Y33568D02*
X80012Y33846D01*
X75811Y37907D02*
X79942Y33776D01*
X79734Y33568D02*
X80012Y33846D01*
X75452Y37548D02*
X79583Y33417D01*
X75106Y34156D02*
X80744Y39794D01*
X75106Y33437D02*
X80818Y39149D01*
X70225Y34304D02*
X80744Y44823D01*
X75106Y37176D02*
X79224Y33057D01*
X75106Y36457D02*
X78865Y32698D01*
X80012Y33846D02*
X80568D01*
X80744D01*
X80012D02*
X80568D01*
X79706Y31857D02*
X80744Y30819D01*
X80568Y32734D02*
X80744D01*
X78872Y32706D02*
X79734Y33568D01*
X78594Y32428D02*
X78872Y32706D01*
X78594Y32428D02*
X78872Y32706D01*
X79706Y31571D02*
X80770Y32636D01*
X79706Y31872D02*
X80568Y32734D01*
X68004Y60101D02*
X71920Y64017D01*
X68113Y59492D02*
X72638Y64017D01*
X67645Y60461D02*
X71202Y64017D01*
X68113Y55181D02*
X76949Y64017D01*
X67661D02*
X77093Y54586D01*
X67909Y55696D02*
X76231Y64017D01*
X66822Y56046D02*
X74794Y64017D01*
X67540Y56046D02*
X75512Y64017D01*
X67011Y60546D02*
X70483Y64017D01*
X66943D02*
X76734Y54227D01*
X66225Y64017D02*
X76634Y53608D01*
X74127Y64017D02*
X78644Y59500D01*
Y57822D02*
Y61178D01*
X75564Y64017D02*
X78644Y60937D01*
X77162Y54656D02*
X78218D01*
X76634Y54128D02*
X77162Y54656D01*
X73409Y64017D02*
X78644Y58782D01*
X72690Y64017D02*
X78644Y58063D01*
X68380Y64017D02*
X77742Y54656D01*
X68113Y54463D02*
X77667Y64017D01*
X67484Y53834D02*
X68113Y54463D01*
X67560Y60546D02*
X68113Y59993D01*
X67541Y60546D02*
X68113Y59974D01*
X66454Y60546D02*
X67560D01*
X68113Y58887D02*
Y59993D01*
X65901Y58887D02*
X66454Y58334D01*
X63351Y64017D02*
X66823Y60546D01*
X64069Y64017D02*
X67541Y60546D01*
X62632Y64017D02*
X66279Y60371D01*
X65901Y59993D02*
X66454Y60546D01*
X65901Y58887D02*
Y59993D01*
X67560Y56046D02*
X68113Y55493D01*
Y54387D02*
Y55493D01*
X67560Y58334D02*
X68113Y58887D01*
X67560Y53834D02*
X68113Y54387D01*
X66454Y53834D02*
X67560D01*
X66454Y58334D02*
X67560D01*
X66454Y56046D02*
X67560D01*
X65901Y55493D02*
X66454Y56046D01*
X65901Y54387D02*
X66454Y53834D01*
X65901Y54387D02*
Y55493D01*
X68113Y59974D02*
X76797Y51290D01*
X76634Y53072D02*
X77162Y52544D01*
X76634Y53072D02*
Y54128D01*
X67068Y53834D02*
X78570Y42333D01*
X67633Y43925D02*
X76707Y52999D01*
X65506Y64017D02*
X77868Y51656D01*
X62469Y43790D02*
X78644Y59965D01*
X64788Y64017D02*
X77156Y51649D01*
X62636Y42520D02*
X78644Y58529D01*
X62636Y43238D02*
X78644Y59247D01*
X77162Y52544D02*
X78218D01*
X77162Y51656D02*
X78218D01*
X76634Y51128D02*
X77162Y51656D01*
Y49544D02*
X78218D01*
X76634Y50072D02*
X77162Y49544D01*
X68252Y43826D02*
X77066Y52640D01*
X68829Y43684D02*
X77689Y52544D01*
X69547Y42965D02*
X76644Y50063D01*
X70225Y42206D02*
X77563Y49544D01*
X69906Y42606D02*
X77003Y49703D01*
X68113Y59256D02*
X76634Y50734D01*
Y50072D02*
Y51128D01*
X67931Y43826D02*
X68687D01*
X69188Y43325D02*
X76634Y50771D01*
X67931Y43826D02*
X68687D01*
X67165Y44176D02*
X76634Y53645D01*
X67383Y44176D02*
X67733Y43826D01*
X66277Y44176D02*
X67383D01*
X67733Y43826D02*
X67931D01*
X65724Y43623D02*
X66277Y44176D01*
X68687Y43826D02*
X69065Y43448D01*
X69847Y42666D01*
X68687Y43826D02*
X69065Y43448D01*
X69847Y42666D02*
X70225Y42288D01*
X69847Y42666D02*
X70225Y42288D01*
X65724Y42517D02*
Y43623D01*
X62636Y43180D02*
X64530Y41286D01*
X62636Y42517D02*
Y43623D01*
X64275Y41286D02*
X65724Y42735D01*
X63557Y41286D02*
X65724Y43453D01*
X61521Y60084D02*
X65454Y64017D01*
X61914D02*
X65920Y60011D01*
X61162Y60443D02*
X64736Y64017D01*
X61613Y59457D02*
X66173Y64017D01*
X61196D02*
X65901Y59312D01*
X60546Y60546D02*
X64017Y64017D01*
X59040D02*
X67012Y56046D01*
X60546Y60546D02*
X64017Y64017D01*
X58322D02*
X66374Y55965D01*
X57604Y64017D02*
X66015Y55606D01*
X61613Y55147D02*
X65901Y59436D01*
X61613Y59290D02*
X65901Y55001D01*
X61613Y58887D02*
Y59993D01*
Y54428D02*
X65986Y58802D01*
X61613Y54387D02*
Y55493D01*
X60356Y56046D02*
X68328Y64017D01*
X61067Y56038D02*
X69046Y64017D01*
X61060Y58334D02*
X61613Y58887D01*
X61426Y55679D02*
X69765Y64017D01*
X57608Y54016D02*
X67610Y64017D01*
X61060Y60546D02*
X61613Y59993D01*
X59954Y58334D02*
X61060D01*
X59954Y60546D02*
X61060D01*
Y56046D02*
X61613Y55493D01*
X59954Y56046D02*
X61060D01*
X59401Y59993D02*
X59954Y60546D01*
X59401Y58887D02*
X59954Y58334D01*
X59401Y58887D02*
Y59993D01*
Y55493D02*
X59954Y56046D01*
X59401Y54387D02*
Y55493D01*
X61019Y53834D02*
X61613Y54428D01*
X59954Y53834D02*
X61060D01*
X59401Y54387D02*
X59954Y53834D01*
X61060D02*
X61613Y54387D01*
X57652Y51186D02*
X60300Y53834D01*
X57652Y53341D02*
X59401Y55091D01*
X57652Y53216D02*
Y53972D01*
Y53216D02*
Y53972D01*
Y51904D02*
X59768Y54021D01*
X57652Y52623D02*
X59409Y54380D01*
X62109Y44149D02*
X78644Y60684D01*
X61455Y58729D02*
X78210Y41974D01*
X61096Y58370D02*
X77851Y41615D01*
X60413Y58334D02*
X77492Y41255D01*
X61613Y54979D02*
X76414Y40178D01*
X57652Y48312D02*
X73357Y64017D01*
X57652Y49031D02*
X66955Y58334D01*
X57652Y49749D02*
X66346Y58443D01*
X57652Y43283D02*
X78386Y64017D01*
X57652Y47594D02*
X74075Y64017D01*
X61549Y54324D02*
X76055Y39818D01*
X57652Y50319D02*
X66335Y41636D01*
X57652Y52475D02*
X66114Y44012D01*
X61190Y53965D02*
X75696Y39459D01*
X60602Y53834D02*
X75337Y39100D01*
X57652Y44720D02*
X66766Y53834D01*
X57652Y53193D02*
X66669Y44176D01*
X57652Y45438D02*
X66251Y54038D01*
X57652Y53911D02*
X67737Y43826D01*
X57652Y44002D02*
X67484Y53834D01*
X57652Y48164D02*
X61640Y44176D01*
X57652Y47446D02*
X60949Y44148D01*
X57652Y46727D02*
X60590Y43789D01*
X57652Y49601D02*
X65724Y41528D01*
X57652Y48883D02*
X65249Y41286D01*
X57652Y46875D02*
X65901Y55125D01*
X57652Y46157D02*
X65901Y54407D01*
X57652Y50467D02*
X61019Y53834D01*
X57652Y51756D02*
X65755Y43653D01*
X57652Y51038D02*
X65724Y42965D01*
X60977Y44176D02*
X62083D01*
X62636Y43623D01*
X60424D02*
X60977Y44176D01*
X57652Y43135D02*
X60424Y40362D01*
Y42517D02*
Y43623D01*
X57652Y45290D02*
X60424Y42518D01*
X57652Y44572D02*
X60588Y41636D01*
X57652Y46009D02*
X60424Y43236D01*
X57652Y40409D02*
X60424Y43182D01*
X57652Y43854D02*
X60424Y41081D01*
X70225Y41532D02*
Y42288D01*
Y41532D02*
Y42288D01*
X67936Y41472D02*
X68713Y40694D01*
X70225Y42057D02*
X74259Y38022D01*
X67936Y39424D02*
Y41636D01*
X67931Y42314D02*
X68713Y41532D01*
X67499Y41636D02*
X68054Y42191D01*
X67772Y41636D02*
X67936Y41472D01*
X67812Y42314D02*
X68713Y41413D01*
X67936Y41354D02*
X68414Y41832D01*
X67936Y39917D02*
X68713Y40695D01*
X67936Y40035D02*
X68713Y39258D01*
X67936Y40754D02*
X68713Y39976D01*
X67936Y37762D02*
X68713Y38540D01*
X67936Y38480D02*
X68713Y39258D01*
X67936Y40636D02*
X68713Y41413D01*
X67608Y38871D02*
X68713Y39977D01*
X67383Y39096D02*
X67936Y38543D01*
X67110Y39424D02*
X68713Y37821D01*
X67828Y39424D02*
X68713Y38539D01*
X67383Y41964D02*
X67733Y42314D01*
X67931D01*
X66725Y41964D02*
X67054Y41636D01*
X67413Y41995D02*
X67772Y41636D01*
X66780D02*
X67109Y41964D01*
X66062Y41636D02*
X66391Y41964D01*
X66277D02*
X67383D01*
X65724Y42517D02*
X66277Y41964D01*
X64993Y41286D02*
X65975Y42267D01*
X65724Y41286D02*
Y41636D01*
X66396Y39096D02*
X66724Y39424D01*
X66277Y39096D02*
X67383D01*
X66391Y39424D02*
X66720Y39096D01*
X67114D02*
X67443Y39424D01*
X65724Y38543D02*
X66277Y39096D01*
X65724Y41636D02*
X67936D01*
X65724Y39424D02*
X67936D01*
X65724D02*
Y39774D01*
X65323D02*
X66139Y38958D01*
X64906Y39042D02*
X65638Y39774D01*
X73994Y37758D02*
X74272Y38036D01*
X73994Y37758D02*
X74272Y38036D01*
X73994Y37202D02*
Y37758D01*
X70225Y37028D02*
X73994Y33258D01*
Y37202D02*
Y37758D01*
X70225Y40620D02*
X73994Y36850D01*
X70225Y39902D02*
X73994Y36132D01*
X70225Y41338D02*
X73994Y37569D01*
X70225Y33585D02*
X73994Y37355D01*
X70225Y37746D02*
X73994Y33977D01*
X78594Y31872D02*
Y32428D01*
Y31872D02*
Y32428D01*
X75106Y35739D02*
X78594Y32250D01*
X75106Y35021D02*
X78594Y31532D01*
X70225Y34873D02*
X73994Y31103D01*
X70225Y36310D02*
X73994Y32540D01*
X70225Y32148D02*
X73994Y35918D01*
X70225Y32867D02*
X73994Y36637D01*
X70225Y31430D02*
X73994Y35200D01*
X70225Y35591D02*
X73994Y31821D01*
X67936Y37880D02*
X68713Y37102D01*
X67798Y37299D02*
X68713Y36384D01*
X67936Y37437D02*
Y38543D01*
X70225Y38465D02*
X73994Y34695D01*
X70225Y39183D02*
X73994Y35413D01*
X65724Y37437D02*
X66277Y36884D01*
X67383D02*
X67936Y37437D01*
X65724D02*
Y38543D01*
X64906Y34013D02*
X68713Y37821D01*
X64906Y38036D02*
X68713Y34229D01*
X67439Y36940D02*
X68713Y35665D01*
X66776Y36884D02*
X68713Y34947D01*
X66277Y36884D02*
X67383D01*
X64906Y31140D02*
X68713Y34948D01*
X64906Y35163D02*
X68713Y31355D01*
X64906Y36600D02*
X68713Y32792D01*
X64906Y32577D02*
X68713Y36384D01*
X64906Y35450D02*
X66340Y36884D01*
X64906Y31858D02*
X68713Y35666D01*
X64906Y35881D02*
X68713Y32073D01*
X63772Y41286D02*
X64528D01*
X63772D02*
X64528D01*
X63772D02*
X64528D01*
X65724D01*
X62636Y39424D02*
Y39774D01*
X62083Y41964D02*
X62636Y42517D01*
X62249Y42130D02*
X63093Y41286D01*
X62080Y41964D02*
X62636Y42520D01*
X62608Y42489D02*
X63812Y41286D01*
X62636D02*
X63772D01*
X64906Y39774D02*
X65724D01*
X62636Y39588D02*
X63394Y38829D01*
X63168Y39774D02*
X63394Y39548D01*
X64906Y38324D02*
X66006Y39424D01*
X64906Y39473D02*
X65780Y38599D01*
X62636Y39646D02*
X62764Y39774D01*
X62636D02*
X63394D01*
X60424Y39424D02*
X62636D01*
X62443Y38735D02*
X63394Y39687D01*
X62083Y39096D02*
X62636Y38543D01*
X61033Y41636D02*
X61362Y41964D01*
X60977D02*
X62083D01*
X60978D02*
X61306Y41636D01*
X61751D02*
X62080Y41964D01*
X61696D02*
X62025Y41636D01*
X60424Y42518D02*
X60978Y41964D01*
X60424Y42517D02*
X60977Y41964D01*
X57652Y39691D02*
X60451Y42491D01*
X57652Y38973D02*
X60810Y42131D01*
X57652Y42417D02*
X60424Y39644D01*
X62636Y41286D02*
Y41636D01*
X60977Y39096D02*
X62083D01*
X61362Y39424D02*
X61691Y39096D01*
X62084Y39094D02*
X62414Y39424D01*
X61367Y39096D02*
X61695Y39424D01*
X60424Y41636D02*
X62636D01*
X60644Y39424D02*
X60975Y39093D01*
X60424Y39424D02*
Y41636D01*
Y38543D02*
X60977Y39096D01*
X57652Y41698D02*
X60616Y38734D01*
X64906Y38755D02*
X65724Y37936D01*
X64906Y37606D02*
X65724Y38424D01*
X62636Y38209D02*
X63394Y38968D01*
X64906Y36887D02*
X65724Y37706D01*
X62636Y37491D02*
X63394Y38250D01*
X57652Y39543D02*
X63394Y33800D01*
X57652Y38825D02*
X63394Y33082D01*
X62081Y39424D02*
X63394Y38111D01*
X57652Y31788D02*
X63394Y37531D01*
X57652Y38106D02*
X63394Y32363D01*
X64906Y36169D02*
X65949Y37212D01*
X64906Y34732D02*
X67058Y36884D01*
X62274Y37076D02*
X63394Y35955D01*
X64906Y33295D02*
X68713Y37103D01*
X64906Y37318D02*
X68713Y33510D01*
X57652Y37388D02*
X63394Y31645D01*
X61029Y36884D02*
X63394Y34519D01*
X61747Y36884D02*
X63394Y35237D01*
X57652Y36669D02*
X63394Y30927D01*
X57652Y31070D02*
X63394Y36813D01*
X62636Y37437D02*
Y38543D01*
Y38151D02*
X63394Y37392D01*
X60424Y37437D02*
Y38543D01*
X57652Y36099D02*
X60977Y39424D01*
X57652Y35381D02*
X60424Y38153D01*
X57652Y40980D02*
X60424Y38207D01*
X57652Y37536D02*
X60424Y40309D01*
X57652Y38254D02*
X60424Y41027D01*
X57652Y36817D02*
X60424Y39590D01*
X57652Y40261D02*
X60424Y37489D01*
X62029Y36884D02*
X62636Y37491D01*
X60977Y36884D02*
X62083D01*
X60424Y37437D02*
X60977Y36884D01*
X62633Y37435D02*
X63394Y36674D01*
X62083Y36884D02*
X62636Y37437D01*
X60424Y37489D02*
X61029Y36884D01*
X57652Y33944D02*
X60785Y37077D01*
X57652Y34662D02*
X60426Y37436D01*
X57652Y32507D02*
X62029Y36884D01*
X57652Y33225D02*
X61311Y36884D01*
X83256Y33336D02*
X86017Y30575D01*
X83256Y28656D02*
X86017Y31417D01*
X83256Y30122D02*
Y31378D01*
Y27937D02*
X86017Y30699D01*
X83256Y30463D02*
X86017Y27701D01*
X83256Y31181D02*
X86017Y28419D01*
X82628Y29465D02*
X86017Y32854D01*
X83233Y32640D02*
X86017Y29856D01*
X83256Y30811D02*
X86017Y33573D01*
X82988Y29106D02*
X86017Y32136D01*
X82874Y32281D02*
X86017Y29138D01*
X83067Y29933D02*
X86017Y26983D01*
X83256Y28307D02*
X86017Y25546D01*
X83256Y27582D02*
Y28838D01*
X82900Y27226D02*
X86017Y24109D01*
X83256Y27589D02*
X86017Y24827D01*
X82628Y29494D02*
X83256Y30122D01*
X82628Y29466D02*
X83256Y28838D01*
X81372Y26954D02*
X82628D01*
X82707Y29574D02*
X86017Y26264D01*
X82628Y26954D02*
X83256Y27582D01*
X80744Y30122D02*
X81372Y29494D01*
X82628D01*
X80744Y30122D02*
Y31378D01*
X79706Y27979D02*
X81296Y29570D01*
X79706Y29702D02*
X80744Y28663D01*
X79706Y31139D02*
X81379Y29466D01*
X79706Y29416D02*
X80744Y30455D01*
X79706Y30135D02*
X80744Y31173D01*
X79706Y30421D02*
X81016Y29110D01*
X79706Y28698D02*
X80937Y29929D01*
X80744Y28838D02*
X81372Y29466D01*
X82628D01*
X80744Y27582D02*
Y28838D01*
X79706Y24387D02*
X82273Y26954D01*
X80744Y27582D02*
X81372Y26954D01*
X79706Y27261D02*
X80744Y28300D01*
X79706Y26542D02*
X80745Y27582D01*
X79706Y28984D02*
X80744Y27945D01*
X79706Y25106D02*
X81554Y26954D01*
X79706Y25824D02*
X81104Y27222D01*
X79706Y23236D02*
X86017Y16925D01*
X79706Y22518D02*
X86017Y16206D01*
X82453Y26954D02*
X86017Y23390D01*
Y483D02*
Y49724D01*
X79706Y21800D02*
X86017Y15488D01*
X79706Y22950D02*
X86017Y29262D01*
X79706Y23955D02*
X86017Y17643D01*
X79706Y23669D02*
X86017Y29981D01*
X78256Y15035D02*
X86017Y22796D01*
X78256Y15753D02*
X86017Y23515D01*
X79706Y20363D02*
X86017Y14051D01*
X79706Y19644D02*
X86017Y13333D01*
X79706Y21081D02*
X86017Y14769D01*
X79706Y18207D02*
X86017Y11896D01*
X79706Y18926D02*
X86017Y12614D01*
X78256Y10724D02*
X86017Y18486D01*
X79464Y17731D02*
X86017Y11177D01*
X78256Y12879D02*
X86017Y20641D01*
X78256Y10006D02*
X86017Y17767D01*
X79105Y17371D02*
X86017Y10459D01*
X79706Y27547D02*
X86017Y21235D01*
X79706Y20795D02*
X86017Y27107D01*
X81735Y26954D02*
X86017Y22672D01*
X79706Y20077D02*
X86017Y26388D01*
X79706Y26829D02*
X86017Y20517D01*
X79706Y28265D02*
X86017Y21954D01*
X79706Y21513D02*
X86017Y27825D01*
X79706Y22232D02*
X86017Y28544D01*
X79706Y18528D02*
Y31872D01*
X78594Y18528D02*
Y31872D01*
X79706Y18640D02*
X86017Y24952D01*
X79706Y24673D02*
X86017Y18361D01*
X79706Y25392D02*
X86017Y19080D01*
X79706Y17972D02*
Y18528D01*
Y17972D02*
Y18528D01*
Y26110D02*
X86017Y19798D01*
X79706Y19358D02*
X86017Y25670D01*
X79428Y17694D02*
X79706Y17972D01*
X79428Y17694D02*
X79706Y17972D01*
X78256Y16522D02*
X79428Y17694D01*
X75106Y32147D02*
X78594Y28658D01*
X75106Y28408D02*
X78594Y31897D01*
X75106Y32865D02*
X78594Y29377D01*
X75106Y25535D02*
X78594Y29023D01*
X75106Y29273D02*
X78594Y25784D01*
X75106Y30563D02*
X84754Y40212D01*
X75106Y33584D02*
X78594Y30095D01*
X75106Y34302D02*
X78594Y30813D01*
X75106Y29127D02*
X84754Y38775D01*
X75106Y29845D02*
X84754Y39494D01*
X75106Y26400D02*
X78594Y22911D01*
X75106Y22661D02*
X78594Y26150D01*
X75106Y23379D02*
X78594Y26868D01*
X75106Y21942D02*
X78594Y25431D01*
X75106Y25681D02*
X78594Y22192D01*
X75106Y24816D02*
X78594Y28305D01*
X75106Y27836D02*
X78594Y24348D01*
X75106Y28555D02*
X78594Y25066D01*
X75106Y27118D02*
X78594Y23629D01*
X75106Y24098D02*
X78594Y27586D01*
X75106Y31429D02*
X78594Y27940D01*
X75106Y27690D02*
X78594Y31179D01*
X70225Y32717D02*
X73994Y28948D01*
X75106Y26971D02*
X78594Y30460D01*
X75106Y30710D02*
X78594Y27221D01*
X70225Y34154D02*
X73994Y30384D01*
X70225Y29993D02*
X73994Y33763D01*
X70225Y30711D02*
X73994Y34481D01*
X70225Y29275D02*
X73994Y33044D01*
X70225Y33436D02*
X73994Y29666D01*
X75106Y29992D02*
X78594Y26503D01*
X75106Y26253D02*
X78594Y29742D01*
X70225Y26970D02*
X73994Y23200D01*
X70225Y25533D02*
X73994Y21763D01*
X70225Y26252D02*
X73994Y22482D01*
X70225Y29125D02*
X73994Y25355D01*
X70225Y24964D02*
X73994Y28734D01*
X70225Y25682D02*
X73994Y29452D01*
X70225Y23527D02*
X73994Y27297D01*
X70225Y28407D02*
X73994Y24637D01*
X75106Y19069D02*
X78594Y22558D01*
X75106Y22089D02*
X78594Y18600D01*
X75106Y22807D02*
X78594Y19319D01*
X78256Y14316D02*
X86017Y22078D01*
X78256Y16471D02*
X86017Y24233D01*
X75106Y24244D02*
X78594Y20756D01*
X75106Y20506D02*
X78594Y23994D01*
X75106Y24963D02*
X78594Y21474D01*
X75106Y19787D02*
X78594Y23276D01*
X75106Y23526D02*
X78594Y20037D01*
X78256Y13598D02*
X86017Y21359D01*
X78256Y12161D02*
X86017Y19923D01*
X77422Y17356D02*
X78594Y18528D01*
X78256Y9287D02*
X86017Y17049D01*
X78256Y11442D02*
X86017Y19204D01*
X75106Y17632D02*
X78594Y21121D01*
X75106Y16913D02*
X78594Y20402D01*
X75106Y18350D02*
X78594Y21839D01*
X75106Y15477D02*
X78594Y18965D01*
X75106Y16195D02*
X78594Y19684D01*
X75106Y21224D02*
X78594Y24713D01*
X75106Y21371D02*
X78271Y18205D01*
X75106Y20652D02*
X77912Y17846D01*
X75106Y5628D02*
Y37202D01*
X73994Y5628D02*
Y37202D01*
X67517Y20101D02*
X73994Y26579D01*
X67876Y19742D02*
X73994Y25860D01*
X70225Y24096D02*
X73994Y20327D01*
X67936Y19083D02*
X73994Y25142D01*
X70225Y23378D02*
X73994Y19608D01*
X77144Y17078D02*
X77422Y17356D01*
X77144Y17078D02*
X77422Y17356D01*
X77144Y16522D02*
Y17078D01*
X75106Y17060D02*
X77144Y15021D01*
Y16522D02*
Y17078D01*
X75106Y19934D02*
X77553Y17486D01*
X75106Y19215D02*
X77194Y17127D01*
X75106Y18497D02*
X77144Y16458D01*
X75106Y17778D02*
X77144Y15740D01*
X59492Y3456D02*
X73994Y17958D01*
X78386Y16653D02*
X86017Y9022D01*
X80916Y8356D02*
X86017Y13457D01*
X78746Y17012D02*
X86017Y9740D01*
X78256Y13910D02*
X86017Y6148D01*
X82353Y8356D02*
X86017Y12020D01*
X81635Y8356D02*
X86017Y12738D01*
X78256Y16065D02*
X86017Y8304D01*
X78256Y7132D02*
X86017Y14894D01*
X78256Y8569D02*
X86017Y16331D01*
X78256Y6413D02*
X86017Y14175D01*
X78256Y14629D02*
X86017Y6867D01*
X85356Y5611D02*
X86017Y6273D01*
X85356Y6092D02*
X86017Y5430D01*
X85356Y6329D02*
X86017Y6991D01*
X85356Y5373D02*
X86017Y4711D01*
X85356Y4892D02*
X86017Y5554D01*
X83734Y8300D02*
X86017Y10583D01*
X84452Y7581D02*
X86017Y9146D01*
X83071Y8356D02*
X86017Y11302D01*
X85171Y6863D02*
X86017Y7709D01*
X84811Y7222D02*
X86017Y8428D01*
X78256Y11036D02*
X80936Y8356D01*
X78256Y10318D02*
X80270Y8303D01*
X78256Y9600D02*
X79911Y7944D01*
X84093Y7940D02*
X86017Y9865D01*
X78256Y8881D02*
X79552Y7585D01*
X78256Y13192D02*
X83092Y8356D01*
X78256Y12473D02*
X82373Y8356D01*
X78256Y11755D02*
X81655Y8356D01*
X78256Y15347D02*
X86017Y7585D01*
X78256Y7850D02*
X86017Y15612D01*
X80322Y8356D02*
X83678D01*
X85356Y6678D01*
X78644D02*
X80322Y8356D01*
X78256Y5289D02*
X78644Y4900D01*
X78256Y4977D02*
X78644Y5365D01*
X78256Y8163D02*
X79192Y7226D01*
X78256Y7444D02*
X78833Y6867D01*
X78256Y6726D02*
X78644Y6337D01*
X78256Y6008D02*
X78644Y5619D01*
X78256Y5695D02*
X78644Y6084D01*
X85356Y4655D02*
X86017Y3993D01*
X85356Y3456D02*
X86017Y4117D01*
X85356Y4174D02*
X86017Y4836D01*
X85356Y3936D02*
X86017Y3275D01*
X85356Y3322D02*
Y6678D01*
X85303Y3270D02*
X86017Y2556D01*
X84944Y2911D02*
X86017Y1838D01*
X83544Y1644D02*
X85356Y3456D01*
X83101Y483D02*
X86017Y3399D01*
X83678Y1644D02*
X85356Y3322D01*
X84585Y2552D02*
X86017Y1119D01*
X84226Y2192D02*
X85936Y483D01*
X83867Y1833D02*
X85217Y483D01*
X85256D02*
X86017Y1244D01*
X84538Y483D02*
X86017Y1962D01*
X80322Y1644D02*
X83678D01*
X82619D02*
X83781Y483D01*
X82383D02*
X83544Y1644D01*
X83819Y483D02*
X86017Y2681D01*
X83337Y1644D02*
X84499Y483D01*
X78256Y3672D02*
Y4228D01*
Y3852D02*
X78644Y3463D01*
X78256Y3672D02*
Y4228D01*
X78644Y3463D02*
X80463Y1644D01*
X78644Y3322D02*
Y6678D01*
X78256Y4258D02*
X78644Y4647D01*
X78256Y4571D02*
X78644Y4182D01*
X78256Y4228D02*
Y16522D01*
X77986Y3403D02*
X80907Y483D01*
X77978Y3394D02*
X78256Y3672D01*
X80946Y483D02*
X82108Y1644D01*
X81182D02*
X82344Y483D01*
X80463Y1644D02*
X81625Y483D01*
X81900Y1644D02*
X83062Y483D01*
X81664D02*
X82826Y1644D01*
X78644Y3322D02*
X80322Y1644D01*
X78791Y483D02*
X80137Y1829D01*
X78072Y483D02*
X79778Y2189D01*
X80227Y483D02*
X81389Y1644D01*
X79509Y483D02*
X80671Y1644D01*
X75106Y12603D02*
X77144Y14642D01*
X75106Y14186D02*
X77144Y12148D01*
X75106Y14905D02*
X77144Y12866D01*
Y4228D02*
Y16522D01*
X75106Y11885D02*
X77144Y13923D01*
X75106Y16342D02*
X77144Y14303D01*
X75106Y14040D02*
X77144Y16079D01*
X75106Y14758D02*
X77144Y16797D01*
X75106Y13321D02*
X77144Y15360D01*
X75106Y15623D02*
X77144Y13584D01*
X75106Y7721D02*
X77144Y5682D01*
X75106Y5419D02*
X77144Y7458D01*
X75106Y6137D02*
X77144Y8176D01*
X75106Y6284D02*
X77144Y4245D01*
X75106Y7002D02*
X77144Y4963D01*
X75106Y7574D02*
X77144Y9613D01*
X75106Y9158D02*
X77144Y7119D01*
X75106Y13468D02*
X77144Y11429D01*
X75106Y8439D02*
X77144Y6400D01*
X75106Y6856D02*
X77144Y8894D01*
X75106Y11313D02*
X77144Y9274D01*
X75106Y9011D02*
X77144Y11050D01*
X75106Y9729D02*
X77144Y11768D01*
X75106Y8292D02*
X77144Y10331D01*
X75106Y10594D02*
X77144Y8556D01*
X75106Y12750D02*
X77144Y10711D01*
X75106Y10448D02*
X77144Y12486D01*
X75106Y11166D02*
X77144Y13205D01*
X75106Y12031D02*
X77144Y9992D01*
X64906Y15047D02*
X73994Y5958D01*
X75106Y9876D02*
X77144Y7837D01*
X75106Y5072D02*
Y5628D01*
Y5072D02*
Y5628D01*
Y5565D02*
X76794Y3877D01*
X74993Y4960D02*
X76435Y3518D01*
X74828Y4794D02*
X75106Y5072D01*
X74828Y4794D02*
X75106Y5072D01*
X70987Y3456D02*
X73994Y6463D01*
X71822Y3456D02*
X73994Y5628D01*
X71706Y3456D02*
X73994Y5744D01*
X74572Y1656D02*
X77144Y4228D01*
X77978Y3394D02*
X78256Y3672D01*
X74634Y4600D02*
X76075Y3159D01*
X75198Y483D02*
X78644Y3929D01*
X75406Y822D02*
X77978Y3394D01*
X72061Y1656D02*
X77144Y6739D01*
X72779Y1656D02*
X77144Y6021D01*
X74275Y4241D02*
X75716Y2800D01*
X74216Y1656D02*
X77144Y4584D01*
X73498Y1656D02*
X77144Y5302D01*
X76635Y483D02*
X79060Y2907D01*
X77268Y2685D02*
X79470Y483D01*
X76909Y2325D02*
X78752Y483D01*
X77627Y3044D02*
X80188Y483D01*
X77354D02*
X79419Y2548D01*
X75917Y483D02*
X78700Y3266D01*
X75831Y1248D02*
X76596Y483D01*
X75472Y889D02*
X75878Y483D01*
X76550Y1966D02*
X78033Y483D01*
X76190Y1607D02*
X77315Y483D01*
X66677Y3456D02*
X73994Y10773D01*
X68832Y3456D02*
X73994Y8618D01*
X65958Y3456D02*
X73994Y11492D01*
X72656Y2622D02*
X74828Y4794D01*
X70269Y3456D02*
X73994Y7181D01*
X61648Y3456D02*
X73994Y15802D01*
X62366Y3456D02*
X73994Y15084D01*
X60929Y3456D02*
X73994Y16521D01*
X65240Y3456D02*
X73994Y12210D01*
X63085Y3456D02*
X73994Y14365D01*
X75128Y544D02*
X75406Y822D01*
X74572Y544D02*
X75128D01*
X74572D02*
X75128D01*
X75406Y822D01*
X75098Y544D02*
X75159Y483D01*
X73915Y3882D02*
X75357Y2440D01*
X73556Y3523D02*
X74998Y2081D01*
X73197Y3164D02*
X74639Y1722D01*
X74480Y483D02*
X74542Y544D01*
X74379D02*
X74441Y483D01*
X70225Y27838D02*
X73994Y31608D01*
X70225Y31281D02*
X73994Y27511D01*
X70225Y31999D02*
X73994Y28229D01*
X70225Y30562D02*
X73994Y26792D01*
X70225Y26401D02*
X73994Y30171D01*
X70225Y27119D02*
X73994Y30889D01*
X64906Y33726D02*
X68713Y29918D01*
X70225Y28556D02*
X73994Y32326D01*
X64906Y30421D02*
X68713Y34229D01*
X70225Y23833D02*
Y41532D01*
X68713Y23833D02*
Y41532D01*
X70225Y24246D02*
X73994Y28015D01*
X70225Y27688D02*
X73994Y23919D01*
X70225Y29844D02*
X73994Y26074D01*
X70225Y23078D02*
Y23833D01*
Y23078D02*
Y23833D01*
X64906Y24674D02*
X68713Y28482D01*
X67902Y24797D02*
X68713Y25608D01*
X64906Y28697D02*
X68713Y24889D01*
X67656Y22776D02*
X68713Y23833D01*
X67936Y24112D02*
X68713Y24890D01*
X64906Y27260D02*
X66850Y25316D01*
X66984D02*
X68713Y27045D01*
X64906Y26542D02*
X66204Y25243D01*
X67543Y25156D02*
X68713Y26327D01*
X65724Y24763D02*
X66277Y25316D01*
X64906Y33007D02*
X68713Y29200D01*
X64906Y32289D02*
X68713Y28481D01*
X64906Y29703D02*
X68713Y33511D01*
X64906Y25392D02*
X68713Y29200D01*
X64906Y29415D02*
X68713Y25608D01*
X67936Y24230D02*
X68523Y23643D01*
X67863Y23584D02*
X68164Y23284D01*
X67936Y23657D02*
Y24763D01*
X67383Y23104D02*
X67936Y23657D01*
X67504Y23225D02*
X67804Y22924D01*
X66277Y25316D02*
X67383D01*
X67936Y24763D01*
X65724Y23657D02*
Y24763D01*
X66277Y23104D02*
X67383D01*
X65724Y23657D02*
X66277Y23104D01*
X70225Y24815D02*
X73994Y21045D01*
X69847Y22700D02*
X70225Y23078D01*
X69847Y22700D02*
X70225Y23078D01*
X69656Y22509D02*
X73994Y18171D01*
X70015Y22869D02*
X73994Y18890D01*
X64906Y14616D02*
X73994Y23705D01*
X68789Y21642D02*
X69847Y22700D01*
X67318Y22776D02*
X68713Y24171D01*
X65091Y13364D02*
X73994Y22268D01*
X64906Y13898D02*
X73994Y22986D01*
X69297Y22150D02*
X73994Y17453D01*
X68411Y21264D02*
X68789Y21642D01*
X68411Y21264D02*
X68789Y21642D01*
X68579Y21432D02*
X73994Y16016D01*
X68938Y21791D02*
X73994Y16734D01*
X67936Y21264D02*
X68411D01*
X68028D02*
X73994Y15298D01*
X67936Y21264D02*
X68411D01*
X65091Y12646D02*
X73994Y21550D01*
X67936Y20638D02*
X73994Y14579D01*
X66906Y23104D02*
X67235Y22776D01*
X66802Y22776D02*
X67558D01*
X66599Y22776D02*
X66928Y23104D01*
X67558Y22776D02*
X67656D01*
X66802D02*
X67558D01*
X65881Y22776D02*
X66243Y23138D01*
X65724Y22776D02*
X67656D01*
X65724Y22619D02*
X65881Y22776D01*
X65724Y20564D02*
Y22776D01*
X64906Y22950D02*
X65724Y22131D01*
X67936Y20564D02*
Y21264D01*
X64906Y20794D02*
X65871Y19829D01*
X65724Y20694D02*
X65854Y20564D01*
X64906Y18927D02*
X66543Y20564D01*
X64906Y19645D02*
X65825Y20564D01*
X64906Y22231D02*
X65724Y21412D01*
X64906Y21082D02*
X65724Y21901D01*
X64906Y21800D02*
X65724Y22619D01*
X64906Y20363D02*
X65724Y21182D01*
X64906Y21513D02*
X65724Y20694D01*
X64906Y31571D02*
X68713Y27763D01*
X64906Y27548D02*
X68713Y31355D01*
X64906Y28266D02*
X68713Y32074D01*
X64906Y26829D02*
X68713Y30637D01*
X64906Y30852D02*
X68713Y27044D01*
X64906Y34444D02*
X68713Y30636D01*
X64906Y28985D02*
X68713Y32792D01*
X57652Y32359D02*
X63394Y26616D01*
X57652Y30922D02*
X63394Y25179D01*
X57652Y31640D02*
X63394Y25898D01*
X64906Y30134D02*
X68713Y26326D01*
X64906Y26111D02*
X68713Y29919D01*
X62378Y25020D02*
X63394Y26037D01*
X64906Y25823D02*
X65845Y24884D01*
X62636Y24559D02*
X63394Y25318D01*
X60554Y26070D02*
X63394Y28910D01*
X60913Y25710D02*
X63394Y28192D01*
X60195Y26429D02*
X63394Y29629D01*
X61955Y25316D02*
X63394Y26755D01*
X61272Y25351D02*
X63394Y27473D01*
X57652Y34514D02*
X63394Y28771D01*
X58039Y28584D02*
X63394Y33939D01*
X57680Y28943D02*
X63394Y34658D01*
X57652Y33796D02*
X63394Y28053D01*
X58399Y28225D02*
X63394Y33221D01*
X57652Y35951D02*
X63394Y30208D01*
X57652Y29633D02*
X63394Y35376D01*
X57652Y30352D02*
X63394Y36094D01*
X57652Y35233D02*
X63394Y29490D01*
X57652Y28972D02*
Y53216D01*
X59476Y27147D02*
X63394Y31065D01*
X59835Y26788D02*
X63394Y30347D01*
X59117Y27506D02*
X63394Y31784D01*
X62083Y25316D02*
X62636Y24763D01*
X61308Y25316D02*
X62083D01*
X57652Y33077D02*
X63394Y27334D01*
X58758Y27866D02*
X63394Y32502D01*
X57652Y29485D02*
X61821Y25316D01*
X57652Y30204D02*
X63394Y24461D01*
X57652Y28972D02*
X61308Y25316D01*
X64906Y23956D02*
X68713Y27763D01*
X64906Y23237D02*
X65724Y24056D01*
X64906Y25105D02*
X65724Y24286D01*
X64906Y15335D02*
X73994Y24423D01*
X64906Y24386D02*
X66516Y22776D01*
X64906Y27979D02*
X68713Y24171D01*
X62636Y24501D02*
X63394Y23742D01*
X62636Y23841D02*
X63394Y24600D01*
X64906Y13580D02*
Y39774D01*
X63394Y13680D02*
Y39774D01*
X64906Y23668D02*
X65798Y22776D01*
X64906Y22519D02*
X65884Y23497D01*
X62636Y20967D02*
X63394Y21726D01*
X62636Y20909D02*
X63394Y20150D01*
X62636Y21628D02*
X63394Y20869D01*
X62636Y22404D02*
X63394Y23163D01*
X62636Y22346D02*
X63394Y21587D01*
X62636Y23783D02*
X63394Y23024D01*
X62262Y20564D02*
X63394Y19432D01*
X62353Y19966D02*
X63394Y21008D01*
X62636Y23657D02*
Y24763D01*
X62083Y23104D02*
X62636Y23657D01*
X60852Y22776D02*
X61181Y23104D01*
X62339Y23361D02*
X63394Y22306D01*
X62289Y22776D02*
X63394Y23881D01*
X60174Y24182D02*
X60424Y23932D01*
X60174Y24182D02*
X60424Y23932D01*
X60235Y24182D02*
X60424Y23993D01*
Y23657D02*
X60977Y23104D01*
X60424Y23657D02*
Y23932D01*
X61877Y23104D02*
X62206Y22776D01*
X62636Y21686D02*
X63394Y22444D01*
X61570Y22776D02*
X61899Y23104D01*
X62636Y20564D02*
Y22776D01*
X61186Y20236D02*
X61514Y20564D01*
X60977Y23104D02*
X62083D01*
X60424Y22776D02*
X62636D01*
X61159Y23104D02*
X61488Y22776D01*
X60825Y20564D02*
X61154Y20236D01*
X60424Y20564D02*
Y22776D01*
X67936Y19201D02*
X73994Y13142D01*
X67888Y18530D02*
X73994Y12424D01*
X67291Y20564D02*
X73994Y13861D01*
X66957Y18024D02*
X73994Y10987D01*
X67529Y18171D02*
X73994Y11706D01*
X64906Y16484D02*
X73994Y7395D01*
X64906Y15765D02*
X73994Y6677D01*
X64906Y17202D02*
X73994Y8113D01*
X64906Y14329D02*
X73800Y5434D01*
X64906Y13610D02*
X73441Y5075D01*
X69550Y3456D02*
X73994Y7900D01*
X71822Y2344D02*
X72378D01*
X71822D02*
X72378D01*
X72656Y2622D01*
X72378Y2344D02*
X72656Y2622D01*
X67395Y3456D02*
X73994Y10055D01*
X68114Y3456D02*
X73994Y9336D01*
X65091Y12707D02*
X73082Y4715D01*
X67750Y1656D02*
X68439Y2344D01*
X67550D02*
X68239Y1656D01*
X66933Y20236D02*
X67262Y20564D01*
X66277Y20236D02*
X67383D01*
X66572Y20564D02*
X66901Y20236D01*
X67936Y18577D02*
Y19683D01*
X67383Y20236D02*
X67936Y19683D01*
X65724Y20564D02*
X67936D01*
X65724Y19683D02*
X66277Y20236D01*
X65854Y20564D02*
X66230Y20188D01*
X65724Y18577D02*
Y19683D01*
X64906Y20076D02*
X65724Y19257D01*
X67383Y18024D02*
X67936Y18577D01*
X66277Y18024D02*
X67383D01*
X66314Y1656D02*
X67002Y2344D01*
X67032Y1656D02*
X67721Y2344D01*
X66832D02*
X67521Y1656D01*
X65724Y18577D02*
X66277Y18024D01*
X65091Y12405D02*
Y13395D01*
X64906Y13580D02*
X65091Y13395D01*
X65595Y1656D02*
X66284Y2344D01*
X65395D02*
X66084Y1656D01*
X71342D02*
X72031Y2344D01*
X71861D02*
X72550Y1656D01*
X71142Y2344D02*
X71831Y1656D01*
X72838Y2804D02*
X73986Y1656D01*
X72479Y2445D02*
X73268Y1656D01*
X69906D02*
X70594Y2344D01*
X70424D02*
X71113Y1656D01*
X69706Y2344D02*
X70394Y1656D01*
X70624D02*
X71313Y2344D01*
X70169Y483D02*
X70231Y544D01*
X72942D02*
X73004Y483D01*
X73043D02*
X73105Y544D01*
X72325Y483D02*
X72387Y544D01*
X73762Y483D02*
X73823Y544D01*
X73661D02*
X73723Y483D01*
X70888D02*
X70950Y544D01*
X71506D02*
X71567Y483D01*
X70787Y544D02*
X70849Y483D01*
X72224Y544D02*
X72286Y483D01*
X71606D02*
X71668Y544D01*
X68469Y1656D02*
X69158Y2344D01*
X68987D02*
X69676Y1656D01*
X68269Y2344D02*
X68958Y1656D01*
X69187D02*
X69876Y2344D01*
X66477Y544D02*
X66538Y483D01*
X66113Y2344D02*
X66802Y1656D01*
X65141Y483D02*
X65202Y544D01*
X65040D02*
X65102Y483D01*
X65859D02*
X65921Y544D01*
X65758D02*
X65820Y483D01*
X68733D02*
X68794Y544D01*
X69350D02*
X69412Y483D01*
X68632Y544D02*
X68694Y483D01*
X70069Y544D02*
X70131Y483D01*
X69451D02*
X69513Y544D01*
X67195D02*
X67257Y483D01*
X67296D02*
X67358Y544D01*
X66577Y483D02*
X66639Y544D01*
X68014Y483D02*
X68076Y544D01*
X67913D02*
X67975Y483D01*
X64906Y16771D02*
X66218Y18084D01*
X64906Y16053D02*
X66877Y18024D01*
X64906Y17490D02*
X65859Y18443D01*
X64906Y17921D02*
X73994Y8832D01*
X64906Y18639D02*
X73994Y9550D01*
X64906Y19358D02*
X73994Y10269D01*
X64906Y18208D02*
X65724Y19027D01*
X61928Y18024D02*
X63394Y16558D01*
X58774Y3456D02*
X73994Y18676D01*
X58056Y3456D02*
X73994Y19394D01*
X64882Y12197D02*
X72723Y4356D01*
X64451Y11909D02*
X72364Y3997D01*
X64595Y11909D02*
X65091Y12405D01*
X64521Y3456D02*
X73994Y12929D01*
X64677Y2344D02*
X65365Y1656D01*
X63605Y11909D02*
X64595D01*
X63733D02*
X72004Y3638D01*
X63109Y12405D02*
X63605Y11909D01*
X63803Y3456D02*
X73994Y13647D01*
X60211Y3456D02*
X73994Y17239D01*
X62636Y19530D02*
X63394Y20289D01*
X62083Y20236D02*
X62636Y19683D01*
X61904Y20236D02*
X62233Y20564D01*
X62636Y18812D02*
X63394Y19571D01*
X62636Y18577D02*
Y19683D01*
X60424Y20564D02*
X62636D01*
X60977Y20236D02*
X62083D01*
X61543Y20564D02*
X61872Y20236D01*
X60424Y19683D02*
X60977Y20236D01*
X60424Y18577D02*
Y19683D01*
X62636Y18754D02*
X63394Y17995D01*
X62365Y18306D02*
X63394Y17277D01*
X62636Y19472D02*
X63394Y18713D01*
X63109Y13395D02*
X63394Y13680D01*
X63109Y12405D02*
Y13395D01*
X62083Y18024D02*
X62636Y18577D01*
X60977Y18024D02*
X62083D01*
X60424Y18577D02*
X60977Y18024D01*
X61210D02*
X63394Y15840D01*
X57692Y1656D02*
X58381Y2344D01*
X63240D02*
X63929Y1656D01*
X63440D02*
X64129Y2344D01*
X62721Y1656D02*
X63410Y2344D01*
X64158Y1656D02*
X64847Y2344D01*
X63958D02*
X64647Y1656D01*
X61285D02*
X61973Y2344D01*
X61803D02*
X62492Y1656D01*
X61085Y2344D02*
X61773Y1656D01*
X62521Y2344D02*
X63210Y1656D01*
X62003D02*
X62692Y2344D01*
X64877Y1656D02*
X65565Y2344D01*
X63704Y483D02*
X63765Y544D01*
X63603D02*
X63665Y483D01*
X64422D02*
X64484Y544D01*
X64321D02*
X64383Y483D01*
X62166Y544D02*
X62228Y483D01*
X62267D02*
X62329Y544D01*
X61548Y483D02*
X61610Y544D01*
X62985Y483D02*
X63047Y544D01*
X62885D02*
X62946Y483D01*
X59648Y2344D02*
X60336Y1656D01*
X59848D02*
X60537Y2344D01*
X59129Y1656D02*
X59818Y2344D01*
X60566Y1656D02*
X61255Y2344D01*
X60366D02*
X61055Y1656D01*
X58211Y2344D02*
X58900Y1656D01*
X58411D02*
X59100Y2344D01*
X57492D02*
X58181Y1656D01*
X58929Y2344D02*
X59618Y1656D01*
X57856Y544D02*
X57917Y483D01*
X60112D02*
X60173Y544D01*
X60729D02*
X60791Y483D01*
X60011Y544D02*
X60073Y483D01*
X61448Y544D02*
X61509Y483D01*
X60830D02*
X60892Y544D01*
X58574D02*
X58636Y483D01*
X58675D02*
X58737Y544D01*
X57956Y483D02*
X58018Y544D01*
X59393Y483D02*
X59455Y544D01*
X59292D02*
X59354Y483D01*
X54150Y62053D02*
X56115Y64017D01*
X54150Y61334D02*
X56833Y64017D01*
X53569Y62190D02*
X55396Y64017D01*
X54150Y59897D02*
X58270Y64017D01*
X54150Y59179D02*
X58988Y64017D01*
X54150Y60616D02*
X57552Y64017D01*
X51414Y62190D02*
X53241Y64017D01*
X51856D02*
X53684Y62190D01*
X51138Y64017D02*
X52965Y62190D01*
X52851D02*
X54678Y64017D01*
X52132Y62190D02*
X53959Y64017D01*
X56167D02*
X59796Y60388D01*
X56885Y64017D02*
X60357Y60546D01*
X55448Y64017D02*
X59437Y60029D01*
X54730Y64017D02*
X59401Y59346D01*
X54150Y56001D02*
X54867D01*
X54150Y57742D02*
X60425Y64017D01*
X54150Y57024D02*
X61144Y64017D01*
X54150Y58461D02*
X59707Y64017D01*
X54150Y56305D02*
X61862Y64017D01*
X52575D02*
X60546Y56046D01*
X46109Y64017D02*
X47936Y62190D01*
X46385D02*
X48212Y64017D01*
X45666Y62190D02*
X47494Y64017D01*
X47103Y62190D02*
X48931Y64017D01*
X46827D02*
X48655Y62190D01*
X44229D02*
X46057Y64017D01*
X44672D02*
X46499Y62190D01*
X43954Y64017D02*
X45781Y62190D01*
X45390Y64017D02*
X47218Y62190D01*
X44948D02*
X46775Y64017D01*
X49701D02*
X51528Y62190D01*
X49977D02*
X51804Y64017D01*
X49258Y62190D02*
X51086Y64017D01*
X50695Y62190D02*
X52523Y64017D01*
X50419D02*
X52247Y62190D01*
X47822D02*
X49649Y64017D01*
X48264D02*
X50091Y62190D01*
X47546Y64017D02*
X49373Y62190D01*
X48982Y64017D02*
X50810Y62190D01*
X48540D02*
X50367Y64017D01*
X54564Y56001D02*
X62581Y64017D01*
X55282Y56001D02*
X63299Y64017D01*
X55812Y55812D02*
X59401Y59401D01*
X54150Y59568D02*
X74977Y38741D01*
X57249Y54375D02*
X66891Y64017D01*
X54150Y61724D02*
X59891Y55982D01*
X54150Y61005D02*
X59532Y55623D01*
X54150Y60287D02*
X59401Y55035D01*
X54011Y64017D02*
X77133Y40896D01*
X53293Y64017D02*
X76774Y40537D01*
X56530Y55093D02*
X59863Y58426D01*
X56889Y54734D02*
X60490Y58334D01*
X56171Y55452D02*
X59504Y58785D01*
X57274Y54350D02*
X57652Y53972D01*
X57274Y54350D02*
X57652Y53972D01*
X55812Y55812D02*
X59401Y59401D01*
X55562Y56001D02*
X57652Y53911D01*
X56001Y55623D02*
X57274Y54350D01*
X54150Y58850D02*
X74618Y38382D01*
X54150Y58131D02*
X68456Y43826D01*
X54867Y56001D02*
X55623D01*
X56001Y55623D01*
X54867Y56001D02*
X55623D01*
X56001Y55623D01*
X54150Y54150D02*
X54489Y54489D01*
X54150Y57413D02*
X55562Y56001D01*
X54150Y56695D02*
X54844Y56001D01*
X54150D02*
Y62190D01*
Y54150D02*
X54489Y54489D01*
X54150Y52190D02*
Y54489D01*
X54200D02*
X56140Y52549D01*
X54150Y53821D02*
X56140Y51831D01*
X54867Y54489D02*
X56140Y53216D01*
Y50870D02*
Y53216D01*
X54150Y53103D02*
X56140Y51112D01*
X54150Y53432D02*
X55038Y54319D01*
X54150Y52713D02*
X55397Y53960D01*
X54150Y54489D02*
X54867D01*
X53744Y50870D02*
X56115Y53241D01*
X53025Y50870D02*
X55756Y53601D01*
X39643Y64017D02*
X41470Y62190D01*
X39919D02*
X41746Y64017D01*
X39201Y62190D02*
X41028Y64017D01*
X40637Y62190D02*
X42465Y64017D01*
X40361D02*
X42189Y62190D01*
X37764D02*
X39591Y64017D01*
X38206D02*
X40034Y62190D01*
X37488Y64017D02*
X39315Y62190D01*
X38925Y64017D02*
X40752Y62190D01*
X38482D02*
X40310Y64017D01*
X42517D02*
X44344Y62190D01*
X42793D02*
X44620Y64017D01*
X42074Y62190D02*
X43902Y64017D01*
X43511Y62190D02*
X45338Y64017D01*
X43235D02*
X45063Y62190D01*
X483Y64017D02*
X86017D01*
X33630Y62190D02*
X54150D01*
X41080Y64017D02*
X42907Y62190D01*
X41798Y64017D02*
X43626Y62190D01*
X41356D02*
X43183Y64017D01*
X32459D02*
X34286Y62190D01*
X33177Y64017D02*
X35005Y62190D01*
X31740Y64017D02*
X33630Y62128D01*
X30304Y64017D02*
X33630Y60691D01*
X31022Y64017D02*
X33630Y61409D01*
X24945Y59430D02*
X29533Y64017D01*
X29585D02*
X33630Y59973D01*
X24227Y59430D02*
X28815Y64017D01*
X28867D02*
X33630Y59254D01*
X25664Y59430D02*
X30252Y64017D01*
X36051D02*
X37878Y62190D01*
X36327D02*
X38154Y64017D01*
X35608Y62190D02*
X37436Y64017D01*
X37045Y62190D02*
X38873Y64017D01*
X36769D02*
X38597Y62190D01*
X34172D02*
X35999Y64017D01*
X34614D02*
X36441Y62190D01*
X33896Y64017D02*
X35723Y62190D01*
X35332Y64017D02*
X37160Y62190D01*
X34890D02*
X36717Y64017D01*
X27430D02*
X33630Y57817D01*
X26980Y57153D02*
X33844Y64017D01*
X28148D02*
X33630Y58536D01*
X25993Y64017D02*
X33630Y56380D01*
X26711Y64017D02*
X33630Y57099D01*
X25680Y55135D02*
X34562Y64017D01*
X24278Y53014D02*
X35281Y64017D01*
X21683D02*
X34051Y51649D01*
X24278Y50141D02*
X33630Y59493D01*
X24278Y50859D02*
X33630Y60212D01*
X29317Y50870D02*
X33630Y55183D01*
X30036Y50870D02*
X33630Y54464D01*
X28599Y50870D02*
X33630Y55901D01*
X31473Y50870D02*
X33630Y53027D01*
X30754Y50870D02*
X33630Y53746D01*
X24951Y49378D02*
X33630Y58056D01*
X26980Y58002D02*
X33692Y51289D01*
X24278Y49422D02*
X33630Y58775D01*
X25883Y48872D02*
X33630Y56619D01*
X25528Y49236D02*
X33630Y57338D01*
X26551Y58880D02*
X31688Y64017D01*
X26910Y58521D02*
X32407Y64017D01*
X26192Y59239D02*
X30970Y64017D01*
X33630Y52190D02*
Y62190D01*
X26980Y57872D02*
X33125Y64017D01*
X24556D02*
X33630Y54944D01*
X23838Y64017D02*
X33630Y54225D01*
X25275Y64017D02*
X33630Y55662D01*
X22401Y64017D02*
X33630Y52788D01*
X23119Y64017D02*
X33630Y53507D01*
X26980Y57284D02*
X33333Y50930D01*
X26296Y55812D02*
X31238Y50870D01*
X25871Y55518D02*
X30519Y50870D01*
X26980Y56565D02*
X32675Y50870D01*
X26655Y56171D02*
X31956Y50870D01*
X24278Y52296D02*
X33630Y61648D01*
X24278Y51578D02*
X33630Y60930D01*
X24984Y54250D02*
X28364Y50870D01*
X25680Y54991D02*
X29801Y50870D01*
X25343Y54610D02*
X29083Y50870D01*
X50870D02*
X52190Y52190D01*
X51470D02*
X52790Y50870D01*
X50870D02*
X52190Y52190D01*
X54462Y50870D02*
X56140Y52548D01*
X54150Y52384D02*
X55664Y50870D01*
X51588D02*
X52908Y52190D01*
X45005D02*
X45341Y51854D01*
X44803Y52190D02*
X45677D01*
X43644Y51030D02*
X44803Y52190D01*
X50752D02*
X52072Y50870D01*
X50152D02*
X51472Y52190D01*
X52907D02*
X54227Y50870D01*
X53626Y52190D02*
X54946Y50870D01*
X52307D02*
X53627Y52190D01*
X55899Y50870D02*
X56140Y51111D01*
X55181Y50870D02*
X56140Y51830D01*
X47343Y52190D02*
X54150D01*
X44545Y51931D02*
X44981Y51495D01*
X44186Y51572D02*
X44622Y51136D01*
X52189Y52190D02*
X53509Y50870D01*
X43483D02*
X44357D01*
X38932Y51864D02*
X39258Y52190D01*
X39257D02*
X39584Y51864D01*
X38539Y52190D02*
X38865Y51864D01*
X39976Y52190D02*
X40302Y51864D01*
X39650D02*
X39977Y52190D01*
X37102D02*
X37428Y51864D01*
X37495D02*
X37822Y52190D01*
X36777Y51864D02*
X37103Y52190D01*
X38214Y51864D02*
X38540Y52190D01*
X37820D02*
X38147Y51864D01*
X42524D02*
X42851Y52190D01*
X42849D02*
X42993Y52046D01*
X42131Y52190D02*
X42457Y51864D01*
X43483Y50870D02*
X43644Y51030D01*
X42810Y51864D02*
X43137Y52190D01*
X40694D02*
X41021Y51864D01*
X41087D02*
X41414Y52190D01*
X40369Y51864D02*
X40695Y52190D01*
X41806Y51864D02*
X42132Y52190D01*
X41413D02*
X41739Y51864D01*
X47996Y50870D02*
X49316Y52190D01*
X48597D02*
X49917Y50870D01*
X47878Y52190D02*
X49198Y50870D01*
X49315Y52190D02*
X50635Y50870D01*
X48715D02*
X50035Y52190D01*
X44357Y50870D02*
X45677Y52190D01*
X46023Y50870D02*
X47343Y52190D01*
X43686Y50870D02*
X45006Y52190D01*
X47278Y50870D02*
X48598Y52190D01*
X46559Y50870D02*
X47879Y52190D01*
X47252Y52098D02*
X48480Y50870D01*
X46892Y51739D02*
X47761Y50870D01*
X46533Y51380D02*
X47043Y50870D01*
X50034Y52190D02*
X51354Y50870D01*
X49433D02*
X50753Y52190D01*
X46174Y51021D02*
X46325Y50870D01*
X46023D02*
X56140D01*
X43826Y51213D02*
X44169Y50870D01*
X43960Y26718D02*
X44592Y27350D01*
X43460Y26718D02*
X44016D01*
X43483Y50870D02*
X43644Y51030D01*
X39649Y26718D02*
X40282Y27350D01*
X38953D02*
X39585Y26718D01*
X40368D02*
X41000Y27350D01*
X39671D02*
X40303Y26718D01*
X37494D02*
X38126Y27350D01*
X37516D02*
X38148Y26718D01*
X36797Y27350D02*
X37430Y26718D01*
X38931D02*
X39563Y27350D01*
X38212Y26718D02*
X38845Y27350D01*
X42545D02*
X43177Y26718D01*
X43241D02*
X43874Y27350D01*
X42523Y26718D02*
X43155Y27350D01*
X43460Y26718D02*
X44016D01*
X43263Y27350D02*
X43896Y26718D01*
X41086D02*
X41718Y27350D01*
X41108D02*
X41740Y26718D01*
X40389Y27350D02*
X41022Y26718D01*
X41826Y27350D02*
X42459Y26718D01*
X41804D02*
X42437Y27350D01*
X35340Y51864D02*
X35666Y52190D01*
X35665D02*
X35992Y51864D01*
X34947Y52190D02*
X35273Y51864D01*
X36384Y52190D02*
X36710Y51864D01*
X36058D02*
X36385Y52190D01*
X34621Y51864D02*
X34948Y52190D01*
X33630D02*
X43137D01*
X34228D02*
X34555Y51864D01*
X32909Y50870D02*
X34229Y52190D01*
X32191Y50870D02*
X33630Y52309D01*
X34266Y51864D02*
X34822D01*
X42810D01*
X34266D02*
X34822D01*
X33988Y51586D02*
X34266Y51864D01*
X33988Y51586D02*
X34266Y51864D01*
X33273Y50870D02*
X33988Y51586D01*
X28310Y50870D02*
X33273D01*
X24278Y50646D02*
X28310Y46614D01*
X27000Y40739D02*
X28310Y39429D01*
X27000Y46397D02*
X28310Y47707D01*
X27000Y44961D02*
X28310Y46271D01*
X27000Y45768D02*
X28310Y44458D01*
X27000Y46487D02*
X28310Y45177D01*
X27000Y45050D02*
X28310Y43740D01*
X27000Y44242D02*
X28310Y45552D01*
X25627Y47180D02*
X28310Y49863D01*
X26346Y47180D02*
X28310Y49144D01*
X24278Y51364D02*
X28310Y47332D01*
X25883Y48323D02*
X28310Y45895D01*
X27000Y47116D02*
X28310Y48426D01*
X27000Y42176D02*
X28310Y40866D01*
X27000Y40650D02*
X28310Y41960D01*
X27000Y41368D02*
X28310Y42678D01*
X27000Y39932D02*
X28310Y41242D01*
X27000Y41458D02*
X28310Y40148D01*
X27000Y42805D02*
X28310Y44115D01*
X27000Y43613D02*
X28310Y42303D01*
X27000Y44332D02*
X28310Y43022D01*
X27000Y42895D02*
X28310Y41585D01*
X27000Y42087D02*
X28310Y43397D01*
X27000Y29874D02*
X28310Y31184D01*
X27000Y28437D02*
X28310Y29747D01*
X27000Y31400D02*
X28310Y30090D01*
X32523Y27350D02*
X32742Y27130D01*
X28310Y27350D02*
X32523D01*
X27000Y32837D02*
X28310Y31527D01*
X27000Y31311D02*
X28310Y32621D01*
X27000Y32029D02*
X28310Y33339D01*
X27000Y30592D02*
X28310Y31902D01*
X27000Y32118D02*
X28310Y30808D01*
X36079Y27350D02*
X36711Y26718D01*
X35967Y27350D02*
X57007D01*
X36328Y26989D02*
X36689Y27350D01*
X36600Y26718D02*
X43460D01*
X36776D02*
X37408Y27350D01*
X34189D02*
X34301D01*
X34362Y27178D02*
X34417Y27233D01*
X32523Y27350D02*
X32742Y27130D01*
X35967Y27350D02*
X36600Y26718D01*
X34721Y26818D02*
X34777Y26874D01*
X27000Y37058D02*
X28310Y38368D01*
X27000Y37866D02*
X28310Y36556D01*
X27000Y38584D02*
X28310Y37274D01*
X27000Y37147D02*
X28310Y35837D01*
X27000Y36339D02*
X28310Y37649D01*
X27000Y40021D02*
X28310Y38711D01*
X27000Y38495D02*
X28310Y39805D01*
X27000Y39213D02*
X28310Y40523D01*
X27000Y37776D02*
X28310Y39086D01*
X27000Y39303D02*
X28310Y37993D01*
X27000Y33466D02*
X28310Y34776D01*
X27000Y34274D02*
X28310Y32964D01*
X27000Y34992D02*
X28310Y33682D01*
X27000Y33555D02*
X28310Y32245D01*
X27000Y32747D02*
X28310Y34057D01*
X27000Y36429D02*
X28310Y35119D01*
X27000Y34903D02*
X28310Y36213D01*
X27000Y35621D02*
X28310Y36931D01*
X27000Y34184D02*
X28310Y35494D01*
X27000Y35710D02*
X28310Y34401D01*
X18281Y59231D02*
X23067Y64017D01*
X19527D02*
X24115Y59430D01*
X17761D02*
X22349Y64017D01*
X18809D02*
X23721Y59105D01*
X18640Y58871D02*
X23786Y64017D01*
X18090D02*
X23362Y58746D01*
X16324Y59430D02*
X20912Y64017D01*
X16654D02*
X21241Y59430D01*
X15935Y64017D02*
X20523Y59430D01*
X17372Y64017D02*
X21960Y59430D01*
X17043D02*
X21631Y64017D01*
X22057Y59415D02*
X26660Y64017D01*
X24046Y59430D02*
X26002D01*
X21353D02*
X25941Y64017D01*
X22775Y58696D02*
X28096Y64017D01*
X22416Y59055D02*
X27378Y64017D01*
X20246D02*
X24834Y59430D01*
X20635D02*
X25223Y64017D01*
X20086Y59430D02*
X22042D01*
X20964Y64017D02*
X25552Y59430D01*
X18999Y58512D02*
X24504Y64017D01*
X12343D02*
X16931Y59430D01*
X12732D02*
X17320Y64017D01*
X11625D02*
X16212Y59430D01*
X10906Y64017D02*
X15810Y59114D01*
X10188Y64017D02*
X15451Y58754D01*
X8033Y64017D02*
X12620Y59430D01*
X8751Y64017D02*
X13339Y59430D01*
X7856Y59582D02*
X12291Y64017D01*
X9469D02*
X14057Y59430D01*
X7856Y58864D02*
X13009Y64017D01*
X14505Y59047D02*
X19475Y64017D01*
X15217D02*
X19945Y59289D01*
X16126Y59430D02*
X18082D01*
X14864Y58688D02*
X20194Y64017D01*
X14498D02*
X19586Y58930D01*
X13062Y64017D02*
X17649Y59430D01*
X13451D02*
X18038Y64017D01*
X12166Y59430D02*
X14122D01*
X13780Y64017D02*
X19227Y58570D01*
X14145Y59406D02*
X18757Y64017D01*
X23068Y58452D02*
X24046Y59430D01*
X26002D02*
X26980Y58452D01*
X23020Y56496D02*
Y58452D01*
X26980Y56496D02*
Y58452D01*
X23068Y56496D02*
Y58452D01*
X22042Y59430D02*
X23020Y58452D01*
X21960Y59430D02*
X23020Y58370D01*
X19108Y58452D02*
X20086Y59430D01*
X19108Y56534D02*
X20124Y55518D01*
X7856Y59165D02*
X19841Y47180D01*
X23068Y56496D02*
X24046Y55518D01*
X22893Y55940D02*
X23259Y56306D01*
X22678Y56155D02*
X22906Y55928D01*
X26002Y55518D02*
X26980Y56496D01*
X22879Y56355D02*
X24000Y55234D01*
X22678Y56155D02*
X23020Y56496D01*
X22678Y56155D02*
X22906Y55928D01*
X19108Y56496D02*
X20086Y55518D01*
X14967Y56364D02*
X21594Y49737D01*
X18744Y56180D02*
X21594Y53329D01*
X15148Y58452D02*
X16126Y59430D01*
X18082D02*
X19060Y58452D01*
X14122Y59430D02*
X15100Y58452D01*
Y56496D02*
Y58452D01*
X14057Y59430D02*
X15100Y58387D01*
X7856Y58145D02*
X13728Y64017D01*
X11188Y58452D02*
X12166Y59430D01*
X7856Y57822D02*
Y61178D01*
X11188Y56496D02*
Y58452D01*
X7856Y60602D02*
X11188Y57269D01*
X19060Y56496D02*
Y58452D01*
X19108Y56496D02*
Y58452D01*
X15148Y56496D02*
Y58452D01*
X18082Y55518D02*
X19060Y56496D01*
X15148D02*
X16126Y55518D01*
X11188Y56551D02*
X12221Y55518D01*
X14122D02*
X15100Y56496D01*
X11188D02*
X12166Y55518D01*
X10541Y47180D02*
X19483Y56122D01*
X9822Y47180D02*
X19123Y56481D01*
X5382Y62856D02*
X6544Y64017D01*
X6100Y62856D02*
X7262Y64017D01*
X4663Y62856D02*
X5825Y64017D01*
X6857Y62176D02*
X8699Y64017D01*
X6498Y62535D02*
X7981Y64017D01*
X3227Y62856D02*
X4388Y64017D01*
X3722D02*
X4884Y62856D01*
X3004Y64017D02*
X4165Y62856D01*
X4440Y64017D02*
X5602Y62856D01*
X3945D02*
X5107Y64017D01*
X7576Y61458D02*
X10136Y64017D01*
X7856Y61019D02*
X10854Y64017D01*
X7217Y61817D02*
X9417Y64017D01*
X7314D02*
X12034Y59297D01*
X7856Y60300D02*
X11573Y64017D01*
X6596D02*
X11675Y58938D01*
X6178Y62856D02*
X7856Y61178D01*
X2822Y62856D02*
X6178D01*
X5877Y64017D02*
X11316Y58579D01*
X5159Y64017D02*
X11188Y57988D01*
X1567Y64017D02*
X2775Y62809D01*
X2285Y64017D02*
X3447Y62856D01*
X848Y64017D02*
X2416Y62450D01*
X483Y63665D02*
X2057Y62090D01*
X483Y62946D02*
X1698Y61731D01*
X483Y62985D02*
X1515Y64017D01*
X483Y62267D02*
X2233Y64017D01*
X483Y63704D02*
X796Y64017D01*
X483Y60830D02*
X3670Y64017D01*
X483Y61548D02*
X2952Y64017D01*
X1144Y61178D02*
X2822Y62856D01*
X483Y59354D02*
X1144Y58692D01*
X483Y59393D02*
X1144Y60055D01*
X483Y58636D02*
X1144Y57974D01*
X483Y58675D02*
X1144Y59337D01*
X483Y62228D02*
X1339Y61372D01*
X483Y60791D02*
X1144Y60129D01*
X483Y61509D02*
X1144Y60848D01*
X483Y60073D02*
X1144Y59411D01*
X483Y60112D02*
X1144Y60773D01*
X7809Y57775D02*
X18404Y47180D01*
X7450Y57416D02*
X17686Y47180D01*
X7090Y57057D02*
X16967Y47180D01*
X7856Y58447D02*
X19123Y47180D01*
X483Y46462D02*
X11188Y57167D01*
X483Y49335D02*
X15165Y64017D01*
X483Y48617D02*
X15883Y64017D01*
X483Y50054D02*
X14446Y64017D01*
X483Y47898D02*
X16602Y64017D01*
X483Y57917D02*
X11220Y47180D01*
X5129Y56144D02*
X14094Y47180D01*
X5848Y56144D02*
X14812Y47180D01*
X4411Y56144D02*
X13375Y47180D01*
X6731Y56698D02*
X16249Y47180D01*
X6372Y56339D02*
X15531Y47180D01*
X2974Y56144D02*
X11938Y47180D01*
X3692Y56144D02*
X12657Y47180D01*
X483Y45743D02*
X11212Y56473D01*
X483Y41433D02*
X15347Y56297D01*
X483Y45025D02*
X11571Y56113D01*
X7856Y59884D02*
X11188Y56551D01*
X1144Y57974D02*
X2974Y56144D01*
X1144Y57822D02*
Y61178D01*
X6178Y56144D02*
X7856Y57822D01*
X1144D02*
X2822Y56144D01*
X483Y57238D02*
X1144Y57900D01*
X483Y56519D02*
X1465Y57502D01*
X483Y57956D02*
X1144Y58618D01*
X483Y47180D02*
X11188Y57886D01*
X483Y57199D02*
X10502Y47180D01*
X483Y52209D02*
X4418Y56144D01*
X2822D02*
X6178D01*
X483Y52927D02*
X3700Y56144D01*
X483Y50772D02*
X5855Y56144D01*
X483Y51491D02*
X5136Y56144D01*
X483Y55083D02*
X2183Y56783D01*
X483Y54364D02*
X2543Y56424D01*
X483Y55801D02*
X1824Y57143D01*
X483Y56481D02*
X9783Y47180D01*
X483Y53646D02*
X2981Y56144D01*
X25680Y55518D02*
Y55602D01*
Y55518D02*
Y55602D01*
X24285Y55518D02*
X24368Y55602D01*
X25680Y54946D02*
Y55518D01*
Y54946D02*
Y55518D01*
X22906Y55610D02*
X23641Y54875D01*
X24046Y55518D02*
X24285D01*
X22906Y55235D02*
X23618Y55947D01*
X23294Y54528D02*
X24285Y55518D01*
X22906Y54516D02*
X23977Y55588D01*
X25680Y55518D02*
X26002D01*
X25352Y54618D02*
X25680Y54946D01*
X25352Y54618D02*
X25680Y54946D01*
X24278Y53520D02*
X28310Y49487D01*
X24625Y53891D02*
X28310Y50206D01*
X22966Y54200D02*
X23294Y54528D01*
X22966Y54200D02*
X23294Y54528D01*
X22906Y54892D02*
X23282Y54515D01*
X24278Y53544D02*
X25352Y54618D01*
X22906Y49487D02*
X22966Y49548D01*
Y53544D02*
Y54200D01*
X22906Y53798D02*
X22966Y53859D01*
X22906Y54173D02*
X22966Y54113D01*
X22906Y53455D02*
X22966Y53394D01*
Y53544D02*
Y54200D01*
X22906Y55272D02*
Y55928D01*
Y55272D02*
Y55928D01*
X21348Y55518D02*
X21594Y55272D01*
X20124Y55518D02*
X21594Y54048D01*
X20842Y55518D02*
X21594Y54766D01*
X22906Y50924D02*
X22966Y50985D01*
X22906Y50581D02*
X22966Y50520D01*
X22906Y51300D02*
X22966Y51239D01*
X22906Y49863D02*
X22966Y49802D01*
X22906Y50206D02*
X22966Y50266D01*
X22906Y52736D02*
X22966Y52676D01*
X22906Y52361D02*
X22966Y52422D01*
X22906Y53079D02*
X22966Y53140D01*
X22906Y51642D02*
X22966Y51703D01*
X22906Y52018D02*
X22966Y51957D01*
X25883Y48154D02*
X28310Y50581D01*
X25387Y47396D02*
X25883Y47892D01*
Y48882D01*
X28310Y27350D02*
Y50870D01*
X25739Y47748D02*
X26307Y47180D01*
X24278Y52801D02*
X28310Y48769D01*
X24278Y52083D02*
X28310Y48051D01*
X25387Y49378D02*
X25883Y48882D01*
X25372Y47396D02*
X25588Y47180D01*
X24397Y47396D02*
X25387D01*
X27000Y29245D02*
X28310Y27935D01*
X27000Y27718D02*
X28310Y29028D01*
X27000Y29963D02*
X28310Y28653D01*
X27000Y27000D02*
X28310Y28310D01*
X27000Y27000D02*
X28310Y28310D01*
X27000Y45679D02*
X28310Y46989D01*
X27000Y43524D02*
X28310Y44834D01*
X24278Y47180D02*
X27000D01*
Y29155D02*
X28310Y30465D01*
X27000Y30682D02*
X28310Y29372D01*
X24278Y49928D02*
X24828Y49378D01*
X24397D02*
X25387D01*
X24278Y49258D02*
Y53544D01*
Y49258D02*
X24397Y49378D01*
X22966Y47180D02*
Y53544D01*
X22906Y48769D02*
X22966Y48830D01*
X22906Y48426D02*
X22966Y48365D01*
X22906Y49144D02*
X22966Y49084D01*
X22906Y47180D02*
Y55272D01*
X21594Y47180D02*
Y55272D01*
X24278Y47515D02*
X24397Y47396D01*
X24278Y47267D02*
X24407Y47396D01*
X24278Y47180D02*
Y47515D01*
X24909Y47180D02*
X25125Y47396D01*
X24654D02*
X24870Y47180D01*
X22906Y47708D02*
X22966Y47647D01*
X22906Y47332D02*
X22966Y47393D01*
X22906Y48050D02*
X22966Y48111D01*
X21317Y47180D02*
X21594Y47458D01*
X20598Y47180D02*
X21594Y48176D01*
X18384Y55821D02*
X21594Y52611D01*
X17968Y55518D02*
X21594Y51892D01*
X20086Y55518D02*
X21348D01*
X16532D02*
X21594Y50456D01*
X17250Y55518D02*
X21594Y51174D01*
X14249Y55646D02*
X21594Y48300D01*
X13658Y55518D02*
X21594Y47582D01*
X14608Y56005D02*
X21594Y49019D01*
X13414Y47180D02*
X21550Y55316D01*
X12939Y55518D02*
X21278Y47180D01*
X17725D02*
X21594Y51050D01*
X18443Y47180D02*
X21594Y50331D01*
X17006Y47180D02*
X21594Y51768D01*
X19880Y47180D02*
X21594Y48894D01*
X19162Y47180D02*
X21594Y49613D01*
X14133Y47180D02*
X21594Y54642D01*
X14851Y47180D02*
X21594Y53923D01*
X9000Y47180D02*
X21594D01*
X16288D02*
X21594Y52487D01*
X15569Y47180D02*
X21594Y53205D01*
X9104Y47180D02*
X17442Y55518D01*
X16126D02*
X18082D01*
X12166D02*
X14122D01*
X11977Y47180D02*
X20316Y55518D01*
X11259Y47180D02*
X19842Y55763D01*
X483Y44306D02*
X11930Y55754D01*
X483Y43588D02*
X12413Y55518D01*
X483Y55762D02*
X9065Y47180D01*
X483Y42151D02*
X13850Y55518D01*
X483Y42869D02*
X13132Y55518D01*
X12221D02*
X20559Y47180D01*
X12696D02*
X21034Y55518D01*
X483Y51452D02*
X9000Y42934D01*
X483Y50015D02*
X9000Y41497D01*
X483Y50733D02*
X9000Y42216D01*
X483Y54325D02*
X9000Y45808D01*
X483Y53607D02*
X9000Y45089D01*
X483Y55044D02*
X9000Y46526D01*
X483Y52170D02*
X9000Y43653D01*
X483Y52888D02*
X9000Y44371D01*
X483Y32812D02*
X9000Y41329D01*
X483Y40675D02*
X9000Y32158D01*
X483Y41394D02*
X9000Y32876D01*
X483Y39957D02*
X9000Y31439D01*
X483Y32093D02*
X9000Y40611D01*
X483Y39996D02*
X16066Y55579D01*
X483Y39277D02*
X16724Y55518D01*
X483Y40714D02*
X15707Y55938D01*
X483Y33530D02*
X9000Y42047D01*
X483Y42112D02*
X9000Y33595D01*
X483Y29219D02*
X9000Y37737D01*
X483Y37083D02*
X9000Y28566D01*
X483Y37802D02*
X9000Y29284D01*
X483Y36365D02*
X9000Y27847D01*
X483Y28501D02*
X9000Y37018D01*
X483Y39238D02*
X9000Y30721D01*
X483Y30656D02*
X9000Y39174D01*
X483Y31375D02*
X9000Y39892D01*
X483Y29938D02*
X9000Y38455D01*
X483Y38520D02*
X9000Y30003D01*
X483Y37840D02*
X9000Y46358D01*
X483Y45704D02*
X9000Y37187D01*
X483Y46423D02*
X9000Y37905D01*
X483Y44986D02*
X9000Y36468D01*
X483Y37122D02*
X9000Y45639D01*
X483Y48578D02*
X9000Y40061D01*
X483Y47859D02*
X9000Y39342D01*
X483Y49296D02*
X9000Y40779D01*
X483Y38559D02*
X9000Y47076D01*
X483Y47141D02*
X9000Y38624D01*
X483Y34248D02*
X9000Y42766D01*
X483Y27783D02*
X9000Y36300D01*
X483Y42831D02*
X9000Y34313D01*
X483Y27064D02*
X9000Y35582D01*
X483Y35646D02*
X9000Y27129D01*
X483Y44267D02*
X9000Y35750D01*
X483Y35685D02*
X9000Y44203D01*
X483Y36404D02*
X9000Y44921D01*
X483Y34967D02*
X9000Y43484D01*
X483Y43549D02*
X9000Y35032D01*
X57050Y20411D02*
X60424Y23785D01*
X57050Y23621D02*
X60706Y19965D01*
X57050Y24339D02*
X60424Y20965D01*
X57050Y19692D02*
X60720Y23362D01*
X57050Y18974D02*
X60424Y22348D01*
X57050Y22903D02*
X60424Y19528D01*
X56913Y27350D02*
X60424Y23839D01*
X56195Y27350D02*
X60769Y22776D01*
X57007Y27350D02*
X60174Y24182D01*
X57050Y25058D02*
X60424Y21683D01*
X57050Y25776D02*
X60424Y22402D01*
X57050Y16818D02*
X60796Y20564D01*
X57050Y15382D02*
X60424Y18756D01*
X57050Y16100D02*
X60424Y19474D01*
X57050Y13945D02*
X61130Y18024D01*
X57050Y14663D02*
X60694Y18307D01*
X57050Y18255D02*
X60424Y21630D01*
X57050Y17537D02*
X60424Y20911D01*
X57050Y22184D02*
X60424Y18810D01*
X57050Y20747D02*
X63394Y14403D01*
X57050Y21466D02*
X63394Y15121D01*
X54039Y27350D02*
X55519Y25870D01*
X54607D02*
X56087Y27350D01*
X53888Y25870D02*
X55368Y27350D01*
X55325Y25870D02*
X56805Y27350D01*
X54758D02*
X56238Y25870D01*
X52452D02*
X53932Y27350D01*
X52603D02*
X54083Y25870D01*
X51884Y27350D02*
X53364Y25870D01*
X53321Y27350D02*
X54801Y25870D01*
X53170D02*
X54650Y27350D01*
X57050Y23284D02*
X59061Y25295D01*
X57050Y22566D02*
X59420Y24936D01*
X57050Y24003D02*
X58702Y25655D01*
X57050Y21129D02*
X60139Y24218D01*
X57050Y21847D02*
X59780Y24577D01*
X56044Y25870D02*
X57265Y27091D01*
X56762Y25870D02*
X57624Y26732D01*
X55476Y27350D02*
X56956Y25870D01*
X57050Y24721D02*
X58343Y26014D01*
X57050Y25439D02*
X57984Y26373D01*
X57050Y17155D02*
X70750Y3456D01*
X57050Y16437D02*
X70031Y3456D01*
X57050Y15718D02*
X69313Y3456D01*
X57337D02*
X73994Y20113D01*
X57050Y15000D02*
X68594Y3456D01*
X57050Y12508D02*
X63394Y18852D01*
X57050Y11789D02*
X63394Y18134D01*
X57050Y20029D02*
X63394Y13685D01*
X57050Y3887D02*
X73994Y20831D01*
X57050Y17874D02*
X71468Y3456D01*
X57050Y4605D02*
X64354Y11909D01*
X57050Y11408D02*
X65002Y3456D01*
X57050Y10689D02*
X64284Y3456D01*
X57050D02*
X71822D01*
X57050Y9971D02*
X63565Y3456D01*
X57050Y14282D02*
X67876Y3456D01*
X57050Y13563D02*
X67158Y3456D01*
X57050Y5324D02*
X63636Y11909D01*
X57050Y12845D02*
X66439Y3456D01*
X57050Y12126D02*
X65721Y3456D01*
X57050Y9634D02*
X63394Y15979D01*
X57050Y8916D02*
X63394Y15260D01*
X57050Y10353D02*
X63394Y16697D01*
X57050Y7479D02*
X63394Y13823D01*
X57050Y8197D02*
X63394Y14542D01*
X57050Y19311D02*
X63109Y13251D01*
X57050Y18592D02*
X63109Y12533D01*
X57050Y13226D02*
X61848Y18024D01*
X57050Y11071D02*
X63394Y17415D01*
X57050Y3456D02*
Y25870D01*
Y7097D02*
X60692Y3456D01*
X57050Y6379D02*
X59973Y3456D01*
X57050Y5661D02*
X59255Y3456D01*
X57050Y4942D02*
X58536Y3456D01*
X57050Y4224D02*
X57818Y3456D01*
X57050Y6761D02*
X63109Y12820D01*
X57050Y6042D02*
X63261Y12253D01*
X57050Y9253D02*
X62847Y3456D01*
X57050Y8534D02*
X62129Y3456D01*
X57050Y7816D02*
X61410Y3456D01*
X47574Y27350D02*
X49054Y25870D01*
X48141D02*
X49621Y27350D01*
X47423Y25870D02*
X48903Y27350D01*
X48859Y25870D02*
X50339Y27350D01*
X48292D02*
X49772Y25870D01*
X44347Y26386D02*
X45311Y27350D01*
X44706Y26027D02*
X46029Y27350D01*
X38234D02*
X38867Y26718D01*
X46855Y27350D02*
X48335Y25870D01*
X46704D02*
X48184Y27350D01*
X50447D02*
X51927Y25870D01*
X51015D02*
X52495Y27350D01*
X50296Y25870D02*
X51776Y27350D01*
X51733Y25870D02*
X53213Y27350D01*
X51166D02*
X52646Y25870D01*
X49011Y27350D02*
X50491Y25870D01*
X44016Y26718D02*
X44294Y26440D01*
X44016Y26718D02*
X44294Y26440D01*
X49729Y27350D02*
X51209Y25870D01*
X49578D02*
X51058Y27350D01*
X30181Y25870D02*
X31661Y27350D01*
X30332D02*
X31812Y25870D01*
X29613Y27350D02*
X31093Y25870D01*
X31050Y27350D02*
X32530Y25870D01*
X30899D02*
X32379Y27350D01*
X27000Y28526D02*
X29656Y25870D01*
X28744D02*
X30224Y27350D01*
X27000Y27808D02*
X28938Y25870D01*
X29462D02*
X30942Y27350D01*
X28895D02*
X30375Y25870D01*
X34301Y27350D02*
X35766Y25884D01*
X35439Y26100D02*
X35495Y26156D01*
X35080Y26459D02*
X35136Y26515D01*
X32742Y27130D02*
X34003Y25870D01*
X33054D02*
X33528Y26344D01*
X31768Y27350D02*
X33248Y25870D01*
X28310D02*
X34003D01*
X31617D02*
X32810Y27063D01*
X32487Y27350D02*
X33967Y25870D01*
X32336D02*
X33169Y26703D01*
X45267Y25870D02*
X46747Y27350D01*
X45418D02*
X46898Y25870D01*
X44700Y27350D02*
X46180Y25870D01*
X46137Y27350D02*
X47617Y25870D01*
X45986D02*
X47466Y27350D01*
X43982D02*
X45462Y25870D01*
X44294Y26440D02*
X44863Y25870D01*
X34189Y27350D02*
X35669Y25870D01*
X27000Y24845D02*
X29505Y27350D01*
X27000Y25563D02*
X28787Y27350D01*
X44863Y25870D02*
X57050D01*
X45479Y1656D02*
X46168Y2344D01*
X45279D02*
X45968Y1656D01*
X46198D02*
X46887Y2344D01*
X45998D02*
X46686Y1656D01*
X35669Y25870D02*
X35781D01*
X40969Y2344D02*
X41658Y1656D01*
X33773Y25870D02*
X33888Y25985D01*
X44761Y1656D02*
X45450Y2344D01*
X44561D02*
X45250Y1656D01*
X27000Y21971D02*
X28310Y23281D01*
X27000Y22060D02*
X28310Y20750D01*
X27000Y23497D02*
X28310Y22187D01*
X27000Y21342D02*
X28310Y20032D01*
X27000Y20534D02*
X28310Y21844D01*
X27000Y24934D02*
X28310Y23624D01*
X27000Y23408D02*
X28310Y24718D01*
X27000Y24126D02*
X28310Y25436D01*
X27000Y22689D02*
X28310Y23999D01*
X27000Y24216D02*
X28310Y22906D01*
X27000Y4729D02*
X28310Y6039D01*
X27000Y4818D02*
X28310Y3508D01*
X27000Y16313D02*
X28310Y15003D01*
X27882Y3456D02*
X28310Y3884D01*
X27163Y3456D02*
X28310Y4602D01*
X27000Y20624D02*
X28310Y19314D01*
X27000Y19097D02*
X28310Y20407D01*
X27000Y19816D02*
X28310Y21126D01*
X27000Y15505D02*
X28310Y16815D01*
X27000Y17032D02*
X28310Y15722D01*
X51945Y1656D02*
X52634Y2344D01*
X52463D02*
X53152Y1656D01*
X51745Y2344D02*
X52434Y1656D01*
X53182Y2344D02*
X53871Y1656D01*
X53382D02*
X54071Y2344D01*
X52664Y1656D02*
X53352Y2344D01*
X50308D02*
X50997Y1656D01*
X50508D02*
X51197Y2344D01*
X49790Y1656D02*
X50479Y2344D01*
X51227Y1656D02*
X51915Y2344D01*
X51027D02*
X51715Y1656D01*
X56056Y2344D02*
X56744Y1656D01*
X56256D02*
X56944Y2344D01*
X55537Y1656D02*
X56226Y2344D01*
X56974Y1656D02*
X57663Y2344D01*
X56774D02*
X57463Y1656D01*
X54100D02*
X54789Y2344D01*
X54619D02*
X55308Y1656D01*
X53900Y2344D02*
X54589Y1656D01*
X55337Y2344D02*
X56026Y1656D01*
X54819D02*
X55508Y2344D01*
X44042Y1656D02*
X44731Y2344D01*
X46716D02*
X47405Y1656D01*
X43842Y2344D02*
X44531Y1656D01*
X47435Y2344D02*
X48123Y1656D01*
X46916D02*
X47605Y2344D01*
X42406D02*
X43094Y1656D01*
X42606D02*
X43294Y2344D01*
X41887Y1656D02*
X42576Y2344D01*
X43324Y1656D02*
X44013Y2344D01*
X43124D02*
X43813Y1656D01*
X49071D02*
X49760Y2344D01*
X49590D02*
X50279Y1656D01*
X49235Y544D02*
X49296Y483D01*
X49953Y544D02*
X50015Y483D01*
X49335D02*
X49397Y544D01*
X48153Y2344D02*
X48842Y1656D01*
X48353D02*
X49042Y2344D01*
X47635Y1656D02*
X48323Y2344D01*
X48871D02*
X49560Y1656D01*
X43588Y483D02*
X43650Y544D01*
X52827D02*
X52888Y483D01*
X52927D02*
X52989Y544D01*
X52209Y483D02*
X52271Y544D01*
X53646Y483D02*
X53708Y544D01*
X53545D02*
X53607Y483D01*
X50772D02*
X50834Y544D01*
X51390D02*
X51452Y483D01*
X50671Y544D02*
X50733Y483D01*
X52108Y544D02*
X52170Y483D01*
X51491D02*
X51552Y544D01*
X56419D02*
X56481Y483D01*
X56519D02*
X56581Y544D01*
X55801Y483D02*
X55863Y544D01*
X57238Y483D02*
X57300Y544D01*
X57137D02*
X57199Y483D01*
X54364D02*
X54426Y544D01*
X54982D02*
X55044Y483D01*
X54263Y544D02*
X54325Y483D01*
X55700Y544D02*
X55762Y483D01*
X55083D02*
X55144Y544D01*
X44306Y483D02*
X44368Y544D01*
X44924D02*
X44986Y483D01*
X44206Y544D02*
X44267Y483D01*
X45642Y544D02*
X45704Y483D01*
X45025D02*
X45087Y544D01*
X42151Y483D02*
X42213Y544D01*
X42769D02*
X42831Y483D01*
X42050Y544D02*
X42112Y483D01*
X43487Y544D02*
X43549Y483D01*
X42869D02*
X42931Y544D01*
X47898Y483D02*
X47960Y544D01*
X48516D02*
X48578Y483D01*
X47798Y544D02*
X47859Y483D01*
X50054D02*
X50115Y544D01*
X48617Y483D02*
X48679Y544D01*
X46361D02*
X46423Y483D01*
X46462D02*
X46523Y544D01*
X45743Y483D02*
X45805Y544D01*
X47180Y483D02*
X47242Y544D01*
X47079D02*
X47141Y483D01*
X37377Y2344D02*
X38065Y1656D01*
X37577D02*
X38265Y2344D01*
X36858Y1656D02*
X37547Y2344D01*
X38295Y1656D02*
X38984Y2344D01*
X38095D02*
X38784Y1656D01*
X35421D02*
X36110Y2344D01*
X35940D02*
X36629Y1656D01*
X35221Y2344D02*
X35910Y1656D01*
X36658Y2344D02*
X37347Y1656D01*
X36140D02*
X36829Y2344D01*
X40250D02*
X40939Y1656D01*
X40450D02*
X41139Y2344D01*
X39732Y1656D02*
X40421Y2344D01*
X41687D02*
X42376Y1656D01*
X41169D02*
X41858Y2344D01*
X18028D02*
X71822D01*
X16278Y1656D02*
X74572D01*
X38813Y2344D02*
X39502Y1656D01*
X39532Y2344D02*
X40221Y1656D01*
X39014D02*
X39702Y2344D01*
X30192D02*
X30881Y1656D01*
X30392D02*
X31081Y2344D01*
X29674Y1656D02*
X30363Y2344D01*
X31111Y1656D02*
X31800Y2344D01*
X30911D02*
X31600Y1656D01*
X28237D02*
X28926Y2344D01*
X28756D02*
X29444Y1656D01*
X28037Y2344D02*
X28726Y1656D01*
X29474Y2344D02*
X30163Y1656D01*
X28956D02*
X29644Y2344D01*
X33785D02*
X34473Y1656D01*
X33985D02*
X34673Y2344D01*
X33266Y1656D02*
X33955Y2344D01*
X34703Y1656D02*
X35392Y2344D01*
X34503D02*
X35192Y1656D01*
X31829D02*
X32518Y2344D01*
X32348D02*
X33036Y1656D01*
X31629Y2344D02*
X32318Y1656D01*
X33066Y2344D02*
X33755Y1656D01*
X32548D02*
X33237Y2344D01*
X37740Y544D02*
X37802Y483D01*
X37840D02*
X37902Y544D01*
X37122Y483D02*
X37184Y544D01*
X38559Y483D02*
X38621Y544D01*
X38458D02*
X38520Y483D01*
X35685D02*
X35747Y544D01*
X36303D02*
X36365Y483D01*
X35585Y544D02*
X35646Y483D01*
X37021Y544D02*
X37083Y483D01*
X36404D02*
X36465Y544D01*
X40613D02*
X40675Y483D01*
X40714D02*
X40776Y544D01*
X39996Y483D02*
X40058Y544D01*
X41433Y483D02*
X41494Y544D01*
X41332D02*
X41394Y483D01*
X16278Y544D02*
X74572D01*
X483Y483D02*
X86017D01*
X39177Y544D02*
X39238Y483D01*
X39895Y544D02*
X39957Y483D01*
X39277D02*
X39339Y544D01*
X30556D02*
X30617Y483D01*
X30656D02*
X30718Y544D01*
X29938Y483D02*
X30000Y544D01*
X31375Y483D02*
X31437Y544D01*
X31274D02*
X31336Y483D01*
X28501D02*
X28563Y544D01*
X29119D02*
X29181Y483D01*
X28400Y544D02*
X28462Y483D01*
X29837Y544D02*
X29899Y483D01*
X29219D02*
X29281Y544D01*
X34148D02*
X34209Y483D01*
X34248D02*
X34310Y544D01*
X33530Y483D02*
X33592Y544D01*
X34967Y483D02*
X35029Y544D01*
X34866D02*
X34928Y483D01*
X32093D02*
X32155Y544D01*
X32711D02*
X32773Y483D01*
X31992Y544D02*
X32054Y483D01*
X33429Y544D02*
X33491Y483D01*
X32812D02*
X32873Y544D01*
X27000Y19905D02*
X28310Y18595D01*
X27000Y12632D02*
X28310Y13942D01*
X27000Y21253D02*
X28310Y22563D01*
X27000Y11913D02*
X28310Y13223D01*
X27000Y12721D02*
X28310Y11411D01*
X27000Y13439D02*
X28310Y12129D01*
X27000Y27089D02*
X28310Y25779D01*
X27000Y26371D02*
X28310Y25061D01*
X27000Y26282D02*
X28310Y27592D01*
X27000Y22779D02*
X28310Y21469D01*
X27000Y25653D02*
X28310Y24343D01*
X27000Y9039D02*
X28310Y10349D01*
X27000Y9847D02*
X28310Y8537D01*
X27000Y10566D02*
X28310Y9256D01*
X27000Y9129D02*
X28310Y7819D01*
X27000Y8321D02*
X28310Y9631D01*
X27000Y12003D02*
X28310Y10693D01*
X27000Y10476D02*
X28310Y11786D01*
X27000Y11195D02*
X28310Y12505D01*
X27000Y9758D02*
X28310Y11068D01*
X27000Y11284D02*
X28310Y9974D01*
X27000Y16224D02*
X28310Y17534D01*
X27000Y14787D02*
X28310Y16097D01*
X27000Y17750D02*
X28310Y16440D01*
X27000Y14068D02*
X28310Y15378D01*
X27000Y15595D02*
X28310Y14285D01*
X27000Y19187D02*
X28310Y17877D01*
X27000Y17661D02*
X28310Y18971D01*
X27000Y18379D02*
X28310Y19689D01*
X27000Y16942D02*
X28310Y18252D01*
X27000Y18468D02*
X28310Y17158D01*
X27000Y13350D02*
X28310Y14660D01*
X27000Y14158D02*
X28310Y12848D01*
X27000Y14876D02*
X28310Y13566D01*
X6548Y7985D02*
X9000Y10437D01*
X6189Y8344D02*
X9000Y11155D01*
X3327Y8356D02*
X9000Y14029D01*
X4045Y8356D02*
X9000Y13311D01*
X2822Y8356D02*
X6178D01*
X5482D02*
X9000Y11874D01*
X4764Y8356D02*
X9000Y12592D01*
X27000Y6974D02*
X28310Y5664D01*
X27000Y5447D02*
X28310Y6757D01*
X27000Y6166D02*
X28310Y7476D01*
Y3456D02*
Y25870D01*
X27000Y6255D02*
X28310Y4945D01*
X27000Y8410D02*
X28310Y7101D01*
X27000Y6884D02*
X28310Y8194D01*
X27000Y7603D02*
X28310Y8913D01*
X27000Y7692D02*
X28310Y6382D01*
X27000Y4000D02*
Y47180D01*
Y5537D02*
X28310Y4227D01*
X27000Y4011D02*
X28310Y5321D01*
X14355Y3579D02*
X14776Y4000D01*
X27000Y4100D02*
X27644Y3456D01*
X14714Y3219D02*
X15495Y4000D01*
X13996Y3938D02*
X14058Y4000D01*
X10576D02*
X14094Y483D01*
X9858Y4000D02*
X13375Y483D01*
X12013Y4000D02*
X15531Y483D01*
X11295Y4000D02*
X14812Y483D01*
X7856Y5700D02*
X9000Y6845D01*
X7856Y4982D02*
X9000Y6126D01*
X7856Y6419D02*
X9000Y7563D01*
Y4000D02*
Y47180D01*
X7856Y3322D02*
Y6678D01*
X7267Y7267D02*
X9000Y9000D01*
X7267Y7267D02*
X9000Y9000D01*
X6907Y7626D02*
X9000Y9718D01*
X7626Y6907D02*
X9000Y8282D01*
X6178Y8356D02*
X7856Y6678D01*
X12594Y3672D02*
Y4000D01*
Y3672D02*
Y4000D01*
X9000D02*
X12594D01*
X9139D02*
X12657Y483D01*
X8385D02*
X11903Y4000D01*
X7856Y4264D02*
X9000Y5408D01*
X7856Y5284D02*
X9000Y4139D01*
X7856Y6002D02*
X9000Y4858D01*
X7856Y4565D02*
X11938Y483D01*
X7856Y3545D02*
X9000Y4689D01*
X483Y25588D02*
X9000Y17071D01*
X483Y17006D02*
X9000Y25524D01*
X483Y17725D02*
X9000Y26242D01*
X483Y16288D02*
X9000Y24805D01*
X483Y24870D02*
X9000Y16353D01*
X483Y19162D02*
X9000Y27679D01*
X483Y27025D02*
X9000Y18508D01*
X483Y27744D02*
X9000Y19226D01*
X483Y26307D02*
X9000Y17789D01*
X483Y18443D02*
X9000Y26961D01*
X483Y21996D02*
X9000Y13479D01*
X483Y13414D02*
X9000Y21932D01*
X483Y14133D02*
X9000Y22650D01*
X483Y12696D02*
X9000Y21213D01*
X483Y21278D02*
X9000Y12760D01*
X483Y15569D02*
X9000Y24087D01*
X483Y23433D02*
X9000Y14916D01*
X483Y24152D02*
X9000Y15634D01*
X483Y22715D02*
X9000Y14197D01*
X483Y14851D02*
X9000Y23368D01*
X483Y32773D02*
X9000Y24255D01*
X483Y24191D02*
X9000Y32708D01*
X483Y24909D02*
X9000Y33426D01*
X483Y23472D02*
X9000Y31989D01*
X483Y32054D02*
X9000Y23537D01*
X483Y26346D02*
X9000Y34863D01*
X483Y34209D02*
X9000Y25692D01*
X483Y34928D02*
X9000Y26410D01*
X483Y33491D02*
X9000Y24974D01*
X483Y25627D02*
X9000Y34145D01*
X483Y29181D02*
X9000Y20663D01*
X483Y20598D02*
X9000Y29116D01*
X483Y21317D02*
X9000Y29834D01*
X483Y19880D02*
X9000Y28397D01*
X483Y28462D02*
X9000Y19945D01*
X483Y22754D02*
X9000Y31271D01*
X483Y30617D02*
X9000Y22100D01*
X483Y31336D02*
X9000Y22818D01*
X483Y29899D02*
X9000Y21382D01*
X483Y22035D02*
X9000Y30553D01*
X483Y18404D02*
X9000Y9887D01*
X483Y9822D02*
X9000Y18339D01*
X483Y10540D02*
X9000Y19058D01*
X483Y9104D02*
X9000Y17621D01*
X483Y17686D02*
X9000Y9168D01*
X483Y11977D02*
X9000Y20495D01*
X483Y19841D02*
X9000Y11324D01*
X483Y20559D02*
X9000Y12042D01*
X483Y19123D02*
X9000Y10605D01*
X483Y11259D02*
X9000Y19776D01*
X483Y6948D02*
X9000Y15466D01*
X483Y14812D02*
X9000Y6295D01*
X483Y13375D02*
X5502Y8356D01*
X483Y14094D02*
X9000Y5576D01*
X483Y6230D02*
X9000Y14747D01*
X483Y8385D02*
X9000Y16903D01*
X483Y16249D02*
X9000Y7732D01*
X483Y16967D02*
X9000Y8450D01*
X483Y15531D02*
X9000Y7013D01*
X483Y7667D02*
X9000Y16184D01*
X483Y9783D02*
X2366Y7900D01*
X483Y9065D02*
X2007Y7540D01*
X483Y8346D02*
X1648Y7181D01*
X1144Y6678D02*
X2822Y8356D01*
X483Y7628D02*
X1289Y6822D01*
X483Y12657D02*
X4784Y8356D01*
X483Y11938D02*
X4065Y8356D01*
X483Y11220D02*
X3347Y8356D01*
X483Y10502D02*
X2725Y8259D01*
X483Y483D02*
Y64017D01*
Y4075D02*
X1144Y4737D01*
X483Y4036D02*
X1144Y3374D01*
X483Y4754D02*
X1144Y4092D01*
Y3322D02*
Y6678D01*
X483Y3356D02*
X1144Y4018D01*
X483Y6191D02*
X1144Y5529D01*
X483Y5512D02*
X1144Y6173D01*
X483Y6909D02*
X1144Y6248D01*
X483Y4793D02*
X1144Y5455D01*
X483Y5473D02*
X1144Y4811D01*
X24226Y4000D02*
X24771Y3456D01*
X24290D02*
X24834Y4000D01*
X23571Y3456D02*
X24116Y4000D01*
X25008Y3456D02*
X25553Y4000D01*
X24945D02*
X25489Y3456D01*
X22135D02*
X22679Y4000D01*
X22789D02*
X23334Y3456D01*
X22071Y4000D02*
X22615Y3456D01*
X23508Y4000D02*
X24052Y3456D01*
X22853D02*
X23397Y4000D01*
X25727Y3456D02*
X26271Y4000D01*
X26382D02*
X26926Y3456D01*
X25663Y4000D02*
X26208Y3456D01*
X27519Y1656D02*
X28208Y2344D01*
X26445Y3456D02*
X26989Y4000D01*
X18028Y3456D02*
X28310D01*
X22290Y2344D02*
X22979Y1656D01*
X21771D02*
X22460Y2344D01*
X23927Y1656D02*
X24615Y2344D01*
X22490Y1656D02*
X23179Y2344D01*
X20634Y4000D02*
X21179Y3456D01*
X20698D02*
X21242Y4000D01*
X19979Y3456D02*
X20524Y4000D01*
X21416Y3456D02*
X21961Y4000D01*
X21353D02*
X21897Y3456D01*
X18542D02*
X19087Y4000D01*
X19197D02*
X19742Y3456D01*
X18479Y4000D02*
X19023Y3456D01*
X19916Y4000D02*
X20460Y3456D01*
X19261D02*
X19805Y4000D01*
X20335Y1656D02*
X21023Y2344D01*
X20853D02*
X21542Y1656D01*
X20135Y2344D02*
X20823Y1656D01*
X21571Y2344D02*
X22260Y1656D01*
X21053D02*
X21742Y2344D01*
X18698D02*
X19386Y1656D01*
X18898D02*
X19587Y2344D01*
X18179Y1656D02*
X18868Y2344D01*
X19616Y1656D02*
X20305Y2344D01*
X19416D02*
X20105Y1656D01*
X26082D02*
X26771Y2344D01*
X26600D02*
X27289Y1656D01*
X25882Y2344D02*
X26571Y1656D01*
X27319Y2344D02*
X28008Y1656D01*
X26800D02*
X27489Y2344D01*
X24445D02*
X25134Y1656D01*
X24645D02*
X25334Y2344D01*
X23727D02*
X24415Y1656D01*
X25364D02*
X26052Y2344D01*
X25163D02*
X25852Y1656D01*
X26963Y544D02*
X27025Y483D01*
X27064D02*
X27126Y544D01*
X26346Y483D02*
X26408Y544D01*
X27783Y483D02*
X27844Y544D01*
X27682D02*
X27744Y483D01*
X24909D02*
X24971Y544D01*
X25527D02*
X25588Y483D01*
X24808Y544D02*
X24870Y483D01*
X26245Y544D02*
X26307Y483D01*
X25627D02*
X25689Y544D01*
X23008Y2344D02*
X23697Y1656D01*
X23208D02*
X23897Y2344D01*
X19880Y483D02*
X19942Y544D01*
X20598Y483D02*
X20660Y544D01*
X20498D02*
X20559Y483D01*
X18443D02*
X18505Y544D01*
X19061D02*
X19123Y483D01*
X18342Y544D02*
X18404Y483D01*
X19779Y544D02*
X19841Y483D01*
X19162D02*
X19223Y544D01*
X23371D02*
X23433Y483D01*
X23472D02*
X23534Y544D01*
X22754Y483D02*
X22815Y544D01*
X24191Y483D02*
X24252Y544D01*
X24090D02*
X24152Y483D01*
X21317D02*
X21379Y544D01*
X21935D02*
X21996Y483D01*
X21216Y544D02*
X21278Y483D01*
X22653Y544D02*
X22715Y483D01*
X22035D02*
X22097Y544D01*
X17926Y3557D02*
X18368Y4000D01*
X17483D02*
X27000D01*
X17567Y3917D02*
X17650Y4000D01*
X17760D02*
X18305Y3456D01*
X17483Y4000D02*
X18028Y3456D01*
X14168Y4000D02*
X16513Y1656D01*
X15817Y4000D02*
X17194Y2622D01*
X15432Y2501D02*
X16374Y3443D01*
X15605Y4000D02*
X17950Y1656D01*
X14887Y4000D02*
X17231Y1656D01*
X17472Y2344D02*
X18028D01*
X17472D02*
X18028D01*
X17194Y2622D02*
X17472Y2344D01*
X17979D02*
X18668Y1656D01*
X17461D02*
X18150Y2344D01*
X16151Y1782D02*
X17093Y2724D01*
X17194Y2622D02*
X17472Y2344D01*
X15792Y2142D02*
X16733Y3083D01*
X16742Y1656D02*
X17452Y2365D01*
X15722Y544D02*
X16278D01*
X13933Y4000D02*
X15817D01*
X15073Y2860D02*
X16015Y3802D01*
X12594Y3672D02*
X12872Y3394D01*
X13933Y4000D02*
X16278Y1656D01*
X12872Y3394D02*
X15444Y822D01*
X12594Y3672D02*
X12872Y3394D01*
X1144Y3374D02*
X2874Y1644D01*
X1144Y3322D02*
X2822Y1644D01*
X6178D02*
X7856Y3322D01*
X5955Y1644D02*
X7856Y3545D01*
X15444Y822D02*
X15722Y544D01*
X16278D01*
X15444Y822D02*
X15722Y544D01*
X11259Y483D02*
X13521Y2745D01*
X10540Y483D02*
X13162Y3104D01*
X483Y1919D02*
X1515Y2952D01*
X2822Y1644D02*
X6178D01*
X483Y2638D02*
X1156Y3311D01*
X483Y1881D02*
X1881Y483D01*
X483Y1201D02*
X1874Y2593D01*
X9104Y483D02*
X12594Y3973D01*
X9822Y483D02*
X12803Y3464D01*
X7856Y3847D02*
X11220Y483D01*
X12696D02*
X14240Y2027D01*
X11977Y483D02*
X13881Y2386D01*
X6948Y483D02*
X10466Y4000D01*
X7400Y2866D02*
X9783Y483D01*
X6230D02*
X9747Y4000D01*
X7667Y483D02*
X11184Y4000D01*
X7759Y3225D02*
X10502Y483D01*
X16906Y544D02*
X16967Y483D01*
X17006D02*
X17068Y544D01*
X16288Y483D02*
X16350Y544D01*
X17725Y483D02*
X17787Y544D01*
X17624D02*
X17686Y483D01*
X14133D02*
X14958Y1308D01*
X14851Y483D02*
X15318Y949D01*
X13414Y483D02*
X14599Y1668D01*
X16187Y544D02*
X16249Y483D01*
X15569D02*
X15677Y590D01*
X5512Y483D02*
X9029Y4000D01*
X6322Y1789D02*
X7628Y483D01*
X1919D02*
X3081Y1644D01*
X7040Y2507D02*
X9065Y483D01*
X6681Y2148D02*
X8346Y483D01*
X483Y3317D02*
X3317Y483D01*
X483Y2599D02*
X2599Y483D01*
X483D02*
X2233Y2233D01*
X1201Y483D02*
X2593Y1874D01*
X483Y483D02*
X2233Y2233D01*
X4311Y1644D02*
X5473Y483D01*
X4793D02*
X5955Y1644D01*
X4075Y483D02*
X5236Y1644D01*
X5748D02*
X6909Y483D01*
X5029Y1644D02*
X6191Y483D01*
X2638D02*
X3800Y1644D01*
X2874D02*
X4036Y483D01*
X483Y1162D02*
X1162Y483D01*
X3592Y1644D02*
X4754Y483D01*
X3356D02*
X4518Y1644D01*
D12*
X64100Y12900D02*
X64150Y12950D01*
Y40530D01*
X61530D02*
X64150D01*
X66830D01*
Y21670D02*
X67180Y22020D01*
X68033D01*
X69469Y23456D01*
X61341Y24210D02*
X61530D01*
X60930Y24560D02*
X60991D01*
X56896Y28594D02*
X60930Y24560D01*
X60991D02*
X61341Y24210D01*
X68309Y43070D02*
X69469Y41910D01*
X66830Y43070D02*
X68309D01*
X40005Y55245D02*
X40080Y55320D01*
X37540D02*
Y61000D01*
X35000Y57202D02*
X36957Y55245D01*
X37465D01*
X40080Y55320D02*
Y61000D01*
X37465Y55245D02*
X40005D01*
X37465D02*
X37540Y55320D01*
X35000Y57202D02*
Y61000D01*
X40005Y55245D02*
X41477D01*
X42620Y56388D01*
Y61000D01*
X41477Y55245D02*
X55245D01*
X56896Y53594D01*
Y28594D02*
Y53594D01*
X69469Y23456D02*
Y41910D01*
D13*
X83610Y51900D02*
X85310Y53600D01*
X82750Y51900D02*
X83610D01*
X82000Y51150D02*
X82750Y51900D01*
X82000Y44930D02*
Y51150D01*
Y33290D02*
X85310Y36600D01*
Y50600D01*
X74550Y5350D02*
Y37480D01*
X17750Y2900D02*
X72100D01*
X74550Y5350D01*
X15350Y5300D02*
X17750Y2900D01*
X15350Y5300D02*
Y10700D01*
X10380Y12890D02*
X13160D01*
X15350Y10700D01*
X13150Y3950D02*
Y7580D01*
X16000Y1100D02*
X74850D01*
X13150Y3950D02*
X16000Y1100D01*
X74550Y37480D02*
X82000Y44930D01*
X74850Y1100D02*
X77700Y3950D01*
Y16800D01*
X10380Y10350D02*
X13150Y7580D01*
X77700Y16800D02*
X79150Y18250D01*
Y32150D01*
X80290Y33290D01*
X82000D01*
X54550Y42993D02*
Y45555D01*
X51937Y40380D02*
X54550Y42993D01*
X51435Y14351D02*
X54550Y17466D01*
Y20460D01*
X46500Y23298D02*
Y23400D01*
Y23000D02*
Y23298D01*
X43738Y26162D02*
X46500Y23400D01*
X36322Y26162D02*
X43738D01*
X35433Y25273D02*
X40327D01*
X42600Y23000D01*
X35433Y50038D02*
X44358D01*
X47700Y53380D01*
X34544Y49149D02*
X35433Y50038D01*
X34544Y27940D02*
Y49149D01*
Y27940D02*
X36322Y26162D01*
X33020Y27686D02*
X35433Y25273D01*
X33020Y27686D02*
Y49784D01*
X34544Y51308D01*
X43088D02*
X45160Y53380D01*
X34544Y51308D02*
X43088D01*
X10411Y38258D02*
X16225D01*
X10380Y38290D02*
X10411Y38258D01*
X16225D02*
X16256Y38227D01*
X53760Y10030D02*
Y12026D01*
X51435Y14351D02*
X53760Y12026D01*
X39649Y14351D02*
X51435D01*
X38620Y15380D02*
X39649Y14351D01*
X53760Y35030D02*
Y38557D01*
X51937Y40380D02*
X53760Y38557D01*
X38620Y40380D02*
X51937D01*
D14*
X77690Y53600D02*
D03*
X85310D02*
D03*
X77690Y50600D02*
D03*
X85310D02*
D03*
X35000Y61000D02*
D03*
Y53380D02*
D03*
X37540D02*
D03*
Y61000D02*
D03*
X40080Y53380D02*
D03*
Y61000D02*
D03*
X42620Y53380D02*
D03*
Y61000D02*
D03*
X45160Y53380D02*
D03*
Y61000D02*
D03*
X47700Y53380D02*
D03*
Y61000D02*
D03*
X50240Y53380D02*
D03*
Y61000D02*
D03*
X52780Y53380D02*
D03*
Y61000D02*
D03*
D15*
X20550Y43270D02*
D03*
X18010D02*
D03*
X15470D02*
D03*
X20550Y45810D02*
D03*
X18010D02*
D03*
X15470D02*
D03*
X25620Y43370D02*
D03*
Y40830D02*
D03*
Y38290D02*
D03*
Y35750D02*
D03*
Y33210D02*
D03*
Y30670D02*
D03*
Y28130D02*
D03*
Y25590D02*
D03*
Y23050D02*
D03*
Y20510D02*
D03*
Y17970D02*
D03*
Y15430D02*
D03*
Y12890D02*
D03*
Y10350D02*
D03*
Y7810D02*
D03*
X10380D02*
D03*
Y10350D02*
D03*
Y12890D02*
D03*
Y15430D02*
D03*
Y17970D02*
D03*
Y20510D02*
D03*
Y23050D02*
D03*
Y25590D02*
D03*
Y28130D02*
D03*
Y30670D02*
D03*
Y33210D02*
D03*
Y35750D02*
D03*
Y38290D02*
D03*
Y40830D02*
D03*
Y43370D02*
D03*
X82000Y39850D02*
D03*
Y42390D02*
D03*
Y44930D02*
D03*
Y28210D02*
D03*
Y30750D02*
D03*
Y33290D02*
D03*
D16*
X25620Y45910D02*
D03*
X10380D02*
D03*
X25620Y5270D02*
D03*
X10380D02*
D03*
D17*
X13144Y57474D02*
D03*
X17104D02*
D03*
X21064D02*
D03*
X25024D02*
D03*
D18*
X53760Y10030D02*
D03*
X51220D02*
D03*
X48680D02*
D03*
X46140D02*
D03*
X43600D02*
D03*
X53760Y35030D02*
D03*
X51220D02*
D03*
X48680D02*
D03*
X46140D02*
D03*
X43600D02*
D03*
X66830Y24210D02*
D03*
Y19130D02*
D03*
X61530Y24210D02*
D03*
Y19130D02*
D03*
X66830Y43070D02*
D03*
Y37990D02*
D03*
X61530Y43070D02*
D03*
Y37990D02*
D03*
X46250Y23000D02*
D03*
X54550D02*
D03*
Y48000D02*
D03*
X50400Y23000D02*
D03*
Y48000D02*
D03*
X46250D02*
D03*
X42100Y23000D02*
D03*
Y48000D02*
D03*
X43600Y30220D02*
D03*
X46140D02*
D03*
X43600Y5220D02*
D03*
X46140D02*
D03*
X60507Y59440D02*
D03*
X67007D02*
D03*
X60507Y54940D02*
D03*
X67007D02*
D03*
D19*
X66830Y21670D02*
D03*
X61530D02*
D03*
X66830Y40530D02*
D03*
X61530D02*
D03*
X46250Y20460D02*
D03*
X54550D02*
D03*
Y45460D02*
D03*
X50400Y20460D02*
D03*
Y45460D02*
D03*
X46250D02*
D03*
X42100Y20460D02*
D03*
Y45460D02*
D03*
D20*
X31000Y48000D02*
D03*
Y45460D02*
D03*
Y42920D02*
D03*
Y40380D02*
D03*
X38620Y30220D02*
D03*
Y32760D02*
D03*
Y35300D02*
D03*
Y37840D02*
D03*
Y40380D02*
D03*
Y42920D02*
D03*
Y45460D02*
D03*
Y48000D02*
D03*
X31000Y23000D02*
D03*
Y20460D02*
D03*
Y17920D02*
D03*
Y15380D02*
D03*
X38620Y5220D02*
D03*
Y7760D02*
D03*
Y10300D02*
D03*
Y12840D02*
D03*
Y15380D02*
D03*
Y17920D02*
D03*
Y20460D02*
D03*
Y23000D02*
D03*
D21*
X31000Y37840D02*
D03*
Y35300D02*
D03*
Y32760D02*
D03*
Y30220D02*
D03*
Y12840D02*
D03*
Y10300D02*
D03*
Y7760D02*
D03*
Y5220D02*
D03*
D22*
X82000Y5000D02*
D03*
Y59500D02*
D03*
X4500D02*
D03*
Y5000D02*
D03*
D23*
X64100Y12900D02*
D03*
X16256Y38227D02*
D03*
X24892Y48387D02*
D03*
D24*
X23622Y53872D02*
X25024Y55274D01*
X23622Y30128D02*
Y53872D01*
X25024Y55274D02*
Y57475D01*
X21064Y56786D02*
X22250Y55600D01*
X21064Y56786D02*
Y57475D01*
X22250Y28960D02*
Y55600D01*
Y28960D02*
X25620Y25590D01*
X23622Y30128D02*
X25620Y28130D01*
%TF.MD5,2159403627a6161d0722a4a9dea1c188*%
M02*
